<?xml version="1.0" encoding="UTF-8" standalone="no"?>
<!-- Created with Inkscape (http://www.inkscape.org/) -->
<svg
   xmlns:svg="http://www.w3.org/2000/svg"
   xmlns="http://www.w3.org/2000/svg"
   version="1.0"
   width="1680px"
   height="1680px"
   viewBox="0 0 500.29913 500.30167"
   id="svg1979">
  <defs
     id="defs2046" />
  <title
     id="title1981">SVG drawing</title>
  <desc
     id="desc1983">This was produced by version 4.1 of GNU libplot, a free library for exporting 2-D vector graphics.</desc>
  <polygon
     points="182.85,519.35 210.04,519.35 210.04,546.5 182.85,546.5 182.85,519.35 "
     transform="matrix(18.09355,0,0,-18.1203,-3304.238,9906.912)"
     style="font-style:normal;font-variant:normal;font-weight:normal;font-stretch:normal;letter-spacing:normal;word-spacing:normal;text-anchor:start;fill:#ff7d00;fill-opacity:1;fill-rule:evenodd;stroke:black;stroke-width:0.46034938;stroke-linecap:butt;stroke-linejoin:miter;stroke-miterlimit:10.43299961;stroke-dasharray:none;stroke-dashoffset:0;stroke-opacity:1"
     id="polygon1989" />
  <g
     transform="matrix(4.705235,0,0,4.704628,-6.355876,7.454254)"
     style="fill:black;fill-opacity:1;stroke:none"
     id="g22541">
    <path
       d="M 99.544427,63.876462 L 99.544427,65.994826 L 99.544427,68.151725 L 99.544427,70.308602 L 99.544427,72.465502 L 99.544427,74.583865 L 99.544427,76.702252 L 99.544427,78.782101 L 99.544427,79.783524 L 99.544427,80.784946 C 95.08375,82.287046 92.622698,82.864796 85.624061,83.172928 C 84.431987,83.172928 81.240284,83.172928 78.894587,82.864796 C 78.01015,82.595178 73.16495,81.670804 71.972854,81.978936 L 58.129387,81.978936 C 55.168439,81.978936 55.053061,78.435456 58.014032,78.435456 L 72.088231,78.435456 C 72.665032,78.127346 72.549676,77.549596 71.972854,77.549596 L 51.707572,77.549596 C 48.438965,77.549596 48.246705,73.351361 51.515291,73.081766 L 69.011906,73.081766 C 69.588706,72.773634 69.47335,72.465502 69.011906,72.195884 L 49.631038,72.195884 C 46.977705,72.195884 46.785447,68.344294 49.43878,68.344294 L 71.011513,68.382807 C 71.742143,68.074698 71.665239,67.419921 70.780779,67.419921 L 52.97655,67.419921 C 49.707964,67.419921 50.130958,62.990582 53.399543,62.990582 L 58.744661,62.990582 C 59.013847,65.571153 62.474713,63.568331 62.167076,62.990582 C 62.167076,62.990582 62.359335,62.875041 62.666972,62.875041 C 64.166683,66.148903 67.204557,64.261622 67.512194,63.067608 L 75.087654,62.990582 C 75.702906,62.990582 75.510646,62.37434 74.933824,62.104722 C 71.357602,61.180349 70.203979,61.180349 68.704269,59.408609 C 67.819831,58.52275 68.127446,57.559842 68.704269,56.36585 C 69.011906,56.057718 69.319543,56.134769 71.049965,56.751009 C 71.703691,56.9436 71.972854,57.020628 72.549676,57.020628 C 74.626187,57.598355 75.972091,57.752432 77.164165,57.752432 C 83.970543,59.216018 91.54598,61.180349 99.544427,63.876462 z "
       style="font-style:normal;font-variant:normal;font-weight:normal;font-stretch:normal;letter-spacing:normal;word-spacing:normal;text-anchor:start;fill:black;fill-opacity:1;fill-rule:evenodd;stroke:none;stroke-width:0;stroke-linecap:butt;stroke-linejoin:miter;stroke-miterlimit:10.43299961;stroke-dasharray:none;stroke-dashoffset:0;stroke-opacity:1"
       id="path2017" />
    <path
       d="M 24.328253,70.809324 L 24.328253,70.809324 L 24.328253,70.847839 L 24.328253,70.886352 L 24.328253,70.886352 L 24.328253,70.924866 L 24.328253,70.924866 L 24.328253,70.96338 L 24.328253,71.040407 L 24.328253,71.078921 L 24.328253,71.117434 L 24.328253,71.117434 L 24.328253,71.15597 L 24.328253,71.15597 L 24.328253,71.194484 L 24.328253,71.232997 L 24.328253,71.232997 L 24.328253,71.271512 L 24.366728,71.310025 L 24.366728,71.348538 L 24.366728,71.348538 L 24.366728,71.387053 L 24.366728,71.425566 L 24.366728,71.46408 L 24.366728,71.502594 L 24.366728,71.541129 L 24.366728,71.579643 L 24.366728,71.579643 L 24.366728,71.618157 L 24.366728,71.618157 L 24.366728,71.65667 L 24.366728,71.695184 L 24.366728,71.733698 C 24.366728,71.733698 24.597439,72.041829 24.635891,72.003316 C 24.635891,72.272912 24.674342,72.272912 24.98198,72.581043 C 25.289617,72.581043 25.520349,72.65807 25.520349,72.581043 C 25.520349,72.889175 25.789512,73.23582 25.827964,73.158792 C 25.827964,73.775034 26.058698,73.813547 26.366335,74.083166 C 26.366335,74.083166 27.020061,74.121679 27.289224,74.121679 C 27.596861,74.429811 27.635313,74.391297 27.94295,74.391297 C 28.558223,74.391297 29.019668,74.006138 29.019668,73.698006 C 29.327306,73.428389 29.404209,73.23582 29.673372,73.23582 C 29.673372,72.927688 30.019461,72.927688 30.634735,72.619557 C 30.90392,72.619557 30.865446,72.542529 31.134631,72.542529 C 31.442268,72.542529 32.057542,72.619557 32.057542,72.311425 C 32.057542,71.733698 32.288254,71.425566 32.595891,71.15597 C 32.595891,71.15597 33.095786,70.809324 32.903528,70.809324 L 42.017127,70.809324 L 42.017127,77.318515 L 9.484994,77.318515 L 9.484994,70.809324 L 24.328253,70.809324 z "
       style="font-style:normal;font-variant:normal;font-weight:normal;font-stretch:normal;letter-spacing:normal;word-spacing:normal;text-anchor:start;fill:black;fill-opacity:1;fill-rule:evenodd;stroke:none;stroke-width:0;stroke-linecap:butt;stroke-linejoin:miter;stroke-miterlimit:10.43299961;stroke-dasharray:none;stroke-dashoffset:0;stroke-opacity:1"
       id="path2019" />
    <path
       d="M 28.487782,59.318685 C 28.180145,59.896414 27.904024,60.79289 27.596388,61.409131 C 27.019589,62.87274 26.520827,63.879787 26.213191,65.651505 C 26.213191,68.617236 29.932456,68.532779 29.932455,65.528538 C 29.932455,63.756797 29.379435,62.872741 29.071799,61.409131 L 29.071799,61.347647 L 29.010324,61.286163 L 28.948848,61.132454 L 28.91811,61.040229 L 28.856635,60.917261 L 28.79516,60.763552 L 28.764422,60.640585 L 28.702946,60.486875 L 28.672209,60.363908 L 28.641471,60.210199 L 28.610733,60.05649 L 28.549258,59.933522 L 28.51852,59.779813 L 28.51852,59.749071 L 28.487782,59.687587 L 28.487782,59.595362 L 28.487782,59.56462 L 28.487782,59.472395 L 28.487782,59.441653 L 28.487782,59.380169 L 28.487782,59.318685 z M 28.364831,61.409131 L 28.364831,61.501356 L 28.364831,61.56284 L 28.364831,61.655065 L 28.364831,61.716549 L 28.334094,61.808775 L 28.334094,61.901 L 28.334094,61.993226 L 28.303356,62.116193 L 28.303356,62.177677 L 28.303356,62.300644 L 28.241881,62.423612 L 28.241881,62.515837 L 28.241881,62.638804 L 28.211143,62.761772 L 28.211143,62.884739 L 28.180405,63.130674 L 28.180405,63.407351 L 28.149667,63.684027 L 28.149667,63.960704 L 28.149667,64.23738 L 28.149667,64.483315 L 28.149667,64.637024 L 28.180405,64.759992 L 28.180405,64.913701 L 28.180405,65.036668 C 28.372687,66.538769 28.357496,66.75044 27.934503,66.788953 C 27.511511,66.865982 27.289011,66.538769 27.289011,65.036668 C 27.289011,63.587619 28.234136,62.221249 28.364831,61.409131 z "
       style="font-style:normal;font-variant:normal;font-weight:normal;font-stretch:normal;letter-spacing:normal;word-spacing:normal;text-anchor:start;fill:black;fill-opacity:1;fill-rule:evenodd;stroke:none;stroke-width:0;stroke-linecap:butt;stroke-linejoin:miter;stroke-miterlimit:10.43299961;stroke-dasharray:none;stroke-dashoffset:0;stroke-opacity:1"
       id="path2021" />
    <path
       d="M 29.071799,47.72901 C 28.773698,48.30696 28.480337,49.133209 28.180405,49.696488 C 27.295968,51.19861 26.704995,52.374567 26.704995,54.184797 C 26.397358,57.150529 30.055146,57.334982 30.362783,54.369249 C 30.362783,52.597508 29.955976,51.198611 29.379176,49.696488 L 29.317701,49.665746 L 29.317701,49.573521 L 29.286963,49.542779 L 29.286963,49.481295 L 29.256225,49.419812 L 29.256225,49.358328 L 29.225488,49.266102 L 29.225488,49.204619 L 29.164012,49.081651 L 29.133274,48.927942 L 29.133274,48.804975 L 29.102537,48.651266 L 29.102537,48.55904 L 29.102537,48.405331 L 29.102537,48.282363 L 29.102537,48.128654 L 29.071799,48.005687 L 29.071799,47.882719 L 29.071799,47.72901 z M 28.641471,49.72723 L 28.641471,49.819456 L 28.641471,49.880939 L 28.641471,49.942423 L 28.641471,50.003907 L 28.641471,50.126874 L 28.641471,50.188358 L 28.641471,50.280583 L 28.610733,50.403551 L 28.610733,50.465034 L 28.610733,50.588002 L 28.549258,50.710969 L 28.549258,50.833936 L 28.549258,50.926162 L 28.51852,51.049129 L 28.51852,51.172097 L 28.51852,51.295064 L 28.487782,51.540999 L 28.487782,51.786934 L 28.457045,52.06361 L 28.457045,52.309545 L 28.457045,52.586222 L 28.457045,52.89364 L 28.457045,53.016607 L 28.457045,53.170317 L 28.487782,53.324026 L 28.487782,53.446993 C 28.641614,54.910603 28.634135,55.160764 28.211143,55.199278 C 27.78815,55.237791 27.596388,54.949115 27.596388,53.446993 C 27.596387,51.944894 28.526093,50.536062 28.641471,49.72723 z "
       style="font-style:normal;font-variant:normal;font-weight:normal;font-stretch:normal;letter-spacing:normal;word-spacing:normal;text-anchor:start;fill:black;fill-opacity:1;fill-rule:evenodd;stroke:none;stroke-width:0;stroke-linecap:butt;stroke-linejoin:miter;stroke-miterlimit:10.43299961;stroke-dasharray:none;stroke-dashoffset:0;stroke-opacity:1"
       id="path2023" />
    <path
       d="M 64.850504,47.882719 C 64.55523,48.460765 64.528006,49.311127 63.95911,49.880939 C 63.036198,51.691193 62.852553,53.090115 62.852552,54.5537 C 62.583366,57.557945 66.356651,57.334982 66.356652,54.369249 C 66.356652,52.867126 66.049794,51.690478 65.43452,50.188358 L 65.311569,49.880939 L 65.280832,49.696488 L 65.250094,49.542779 L 65.157881,49.38907 L 65.127143,49.235361 L 65.096405,49.05091 L 65.065668,48.8972 L 65.004192,48.774233 L 64.973454,48.620524 L 64.942717,48.466814 L 64.911979,48.405331 L 64.911979,48.313105 L 64.911979,48.282363 L 64.911979,48.190138 L 64.850504,48.128654 L 64.850504,48.097912 L 64.850504,48.005687 L 64.850504,47.944203 L 64.850504,47.882719 z M 64.666077,50.034649 L 64.666077,50.126874 L 64.666077,50.157616 L 64.666077,50.249841 L 64.666077,50.311325 L 64.666077,50.403551 L 64.63534,50.526518 L 64.63534,50.588002 L 64.63534,50.680227 L 64.63534,50.772453 L 64.604602,50.89542 L 64.604602,51.018388 L 64.604602,51.079871 L 64.543126,51.202839 L 64.543126,51.325806 L 64.543126,51.448773 L 64.512389,51.602483 L 64.512389,51.817675 L 64.481651,52.094352 L 64.481651,52.371029 L 64.450913,52.616963 L 64.450913,52.89364 L 64.450913,53.170317 L 64.481651,53.324026 L 64.481651,53.446993 L 64.481651,53.600702 L 64.512389,53.754412 C 64.666197,55.218021 64.658742,55.429669 64.235749,55.506697 C 63.812752,55.545209 63.620995,55.21802 63.620995,53.754412 C 63.620996,52.25229 64.550722,50.843481 64.666077,50.034649 z "
       style="font-style:normal;font-variant:normal;font-weight:normal;font-stretch:normal;letter-spacing:normal;word-spacing:normal;text-anchor:start;fill:black;fill-opacity:1;fill-rule:evenodd;stroke:none;stroke-width:0;stroke-linecap:butt;stroke-linejoin:miter;stroke-miterlimit:10.43299961;stroke-dasharray:none;stroke-dashoffset:0;stroke-opacity:1"
       id="path2025" />
    <path
       d="M 64.666077,31.681768 C 64.358462,32.60614 64.358957,33.500477 64.051323,34.694468 C 63.166886,36.466186 62.575911,37.656971 62.575912,39.428712 C 62.575912,42.702575 66.756245,42.702574 66.756242,39.428712 C 66.448605,37.656972 66.13427,36.158076 65.557471,34.694468 L 65.465258,34.571501 L 65.43452,34.448534 L 65.403783,34.325566 L 65.373045,34.233341 L 65.311569,34.141115 L 65.280832,34.018148 L 65.250094,33.956664 L 65.219356,33.833697 L 65.157881,33.710729 L 65.127143,33.649246 L 65.096405,33.434053 L 65.004192,33.249602 L 64.973454,33.065151 L 64.942717,32.911442 L 64.911979,32.72699 L 64.850504,32.511798 L 64.819766,32.358088 L 64.789028,32.204379 L 64.75829,32.019928 L 64.696815,31.866219 L 64.666077,31.681768 z M 64.512389,34.909661 L 64.512389,35.001887 L 64.512389,35.032629 L 64.512389,35.094112 L 64.512389,35.186338 L 64.512389,35.247822 L 64.512389,35.370789 L 64.481651,35.463015 L 64.481651,35.524498 L 64.481651,35.647466 L 64.450913,35.770433 L 64.450913,35.862659 L 64.450913,35.954884 L 64.389438,36.077851 L 64.389438,36.170077 L 64.389438,36.293044 L 64.3587,36.446754 L 64.3587,36.692688 L 64.327962,36.938623 L 64.327962,37.2153 L 64.327962,37.491976 L 64.297225,37.768653 L 64.327962,38.045329 L 64.327962,38.291264 L 64.327962,38.444973 L 64.327962,38.598683 C 64.520224,40.062291 64.505053,40.304659 64.082061,40.38171 C 63.659064,40.420224 63.467306,40.062292 63.467306,38.598683 C 63.467305,37.096558 64.397033,35.718493 64.512389,34.909661 z "
       style="font-style:normal;font-variant:normal;font-weight:normal;font-stretch:normal;letter-spacing:normal;word-spacing:normal;text-anchor:start;fill:black;fill-opacity:1;fill-rule:evenodd;stroke:none;stroke-width:0;stroke-linecap:butt;stroke-linejoin:miter;stroke-miterlimit:10.43299961;stroke-dasharray:none;stroke-dashoffset:0;stroke-opacity:1"
       id="path2027" />
    <path
       d="M 30.547209,36.938623 L 29.379176,45.085212 L 30.239832,45.269663 L 30.393521,44.378149 L 50.004185,46.345627 C 54.157229,46.653761 54.595271,40.228714 50.403776,39.920582 L 31.530816,37.737911 L 31.592292,37.06159 L 30.547209,36.938623 z M 31.438603,38.537199 L 50.526727,40.627644 L 50.61894,40.627644 L 50.711153,40.658386 L 50.772628,40.658386 L 50.864842,40.689128 L 50.926317,40.71987 L 51.049268,40.781354 L 51.141481,40.781354 L 51.202956,40.812095 L 51.233694,40.842837 L 51.325907,40.873579 L 51.479596,40.965805 L 51.602547,41.027288 L 51.69476,41.150256 L 51.817711,41.242481 L 51.909924,41.334707 L 52.002137,41.426932 L 52.09435,41.5499 L 52.155826,41.642125 L 52.248039,41.765093 L 52.309514,41.88806 L 52.37099,42.011027 L 52.401728,42.103253 L 52.432465,42.22622 L 52.463203,42.379929 L 52.524678,42.502897 L 52.555416,42.625864 L 52.555416,42.71809 L 52.586154,42.841057 L 52.586154,42.964024 L 52.586154,43.086992 L 52.586154,43.179217 L 52.586154,43.302185 L 52.555416,43.39441 L 52.555416,43.486636 L 52.555416,43.578861 L 52.524678,43.701829 L 52.463203,43.763312 L 34.389424,43.763312 L 30.547209,43.763312 L 31.438603,38.537199 z "
       style="font-style:normal;font-variant:normal;font-weight:normal;font-stretch:normal;letter-spacing:normal;word-spacing:normal;text-anchor:start;fill:black;fill-opacity:1;fill-rule:evenodd;stroke:none;stroke-width:0;stroke-linecap:butt;stroke-linejoin:miter;stroke-miterlimit:10.43299961;stroke-dasharray:none;stroke-dashoffset:0;stroke-opacity:1"
       id="path2031" />
    <path
       d="M 61.653781,19.999867 L 60.8546,20.184318 L 61.039026,20.922123 L 41.520575,25.348948 C 37.367531,26.234808 38.666251,32.789901 42.780822,32.173637 L 62.637388,27.71607 L 62.852552,28.607583 L 63.743946,28.330907 L 61.653781,19.999867 z M 61.284928,21.782894 L 62.545175,27.131975 L 57.258287,28.330907 L 40.045165,28.023488 L 40.014427,27.992747 L 40.014427,27.931263 L 39.983689,27.869779 L 39.983689,27.777554 L 39.983689,27.71607 L 39.983689,27.623844 L 40.014427,27.562361 L 40.014427,27.470135 L 40.045165,27.408652 L 40.10664,27.316426 L 40.168115,27.285684 L 40.198853,27.2242 L 40.291066,27.131975 L 40.321804,27.039749 L 40.414017,27.009008 L 40.475493,26.947524 L 40.598444,26.855298 L 40.659919,26.824557 L 40.752132,26.732331 L 40.875083,26.701589 L 40.967296,26.640105 L 41.090247,26.578622 L 41.213198,26.54788 L 41.336149,26.517138 L 41.428362,26.424913 L 41.551313,26.394171 L 41.674264,26.363429 L 41.827952,26.332687 L 41.950903,26.271203 L 42.104592,26.240461 L 42.25828,26.20972 L 42.350493,26.178978 L 42.504182,26.178978 L 61.284928,21.782894 z "
       style="font-style:normal;font-variant:normal;font-weight:normal;font-stretch:normal;letter-spacing:normal;word-spacing:normal;text-anchor:start;fill:black;fill-opacity:1;fill-rule:evenodd;stroke:none;stroke-width:0;stroke-linecap:butt;stroke-linejoin:miter;stroke-miterlimit:10.43299961;stroke-dasharray:none;stroke-dashoffset:0;stroke-opacity:1"
       id="path2033" />
  </g>
</svg>
