<?xml version="1.0"?><svg width="1680px" height="1260px" viewBox="0 0 640 480"
xmlns="http://www.w3.org/2000/svg">
 <metadata id="metadata4">image/svg+xml</metadata>
 <g>
  <title>Layer 1</title>
  <g transform="rotate(-90.44305419921875 14.95669651031492,240.20367431640622) " id="layer1">
   <rect fill="black" fill-rule="evenodd" stroke-width="0.3" stroke-miterlimit="4" transform="matrix(0.6454718943911815,0,0.3729749611517396,-0.16800299092972107,153.35596415425795,110.27385612708972) " y="-810.824646" x="-114.131007" height="74.8283" width="49.618557" id="rect5537"/>
   <rect fill="yellow" fill-rule="evenodd" stroke-width="0.3" stroke-miterlimit="4" transform="matrix(0.6454718943911815,0,0.3729749611517396,-0.16800299092972107,153.35596415425795,110.27385612708972) " y="-810.82431" x="-64.845759" height="74.8283" width="49.618557" id="rect6424"/>
   <rect fill="black" fill-rule="evenodd" stroke-width="0.3" stroke-miterlimit="4" transform="matrix(0.6454718943911815,0,0.3729749611517396,-0.16800299092972107,153.35596415425795,110.27385612708972) " y="-810.82431" x="-15.230233" height="74.8283" width="49.618557" id="rect6426"/>
   <rect fill="yellow" fill-rule="evenodd" stroke-width="0.3" stroke-miterlimit="4" transform="matrix(0.6454718943911815,0,0.3729749611517396,-0.16800299092972107,153.35596415425795,110.27385612708972) " y="-810.824341" x="34.261377" height="74.8283" width="49.618557" id="rect6428"/>
   <rect fill="black" fill-rule="evenodd" stroke-width="0.3" stroke-miterlimit="4" transform="matrix(0.6454718943911815,0,0.3729749611517396,-0.16800299092972107,153.35596415425795,110.27385612708972) " y="-810.819549" x="83.881967" height="74.8283" width="49.618557" id="rect6430"/>
   <rect fill="yellow" fill-rule="evenodd" stroke-width="0.3" stroke-miterlimit="4" transform="matrix(0.6454718943911815,0,0.3729749611517396,-0.16800299092972107,153.35596415425795,110.27385612708972) " y="-810.795349" x="133.346057" height="74.8283" width="49.618557" id="rect6432"/>
   <rect fill="black" fill-rule="evenodd" stroke-width="0.3" stroke-miterlimit="4" transform="matrix(0.6454718943911815,0,0.3729749611517396,-0.16800299092972107,153.35596415425795,110.27385612708972) " y="-810.788841" x="183.002737" height="74.8283" width="49.618557" id="rect6434"/>
   <rect fill="yellow" fill-rule="evenodd" stroke-width="0.3" stroke-miterlimit="4" transform="matrix(0.6454718943911815,0,0.3729749611517396,-0.16800299092972107,153.35596415425795,110.27385612708972) " y="-810.788505" x="232.287987" height="74.8283" width="49.618557" id="rect6436"/>
   <rect fill="black" fill-rule="evenodd" stroke-width="0.3" stroke-miterlimit="4" transform="matrix(0.6454718943911815,0,0.3729749611517396,-0.16800299092972107,153.35596415425795,110.27385612708972) " y="-810.788505" x="281.903497" height="74.8283" width="49.618557" id="rect6438"/>
   <rect fill="yellow" fill-rule="evenodd" stroke-width="0.3" stroke-miterlimit="4" transform="matrix(0.6454718943911815,0,0.3729749611517396,-0.16800299092972107,153.35596415425795,110.27385612708972) " y="-810.788536" x="331.395097" height="74.8283" width="49.618557" id="rect6440"/>
   <rect fill="black" fill-rule="evenodd" stroke-width="0.3" stroke-miterlimit="4" transform="matrix(0.6454718943911815,0,0.3729749611517396,-0.16800299092972107,153.35596415425795,110.27385612708972) " y="-810.783745" x="381.015707" height="74.8283" width="49.618557" id="rect6442"/>
   <rect fill="yellow" fill-rule="evenodd" stroke-width="0.3" stroke-miterlimit="4" transform="matrix(0.6454718943911815,0,0.3729749611517396,-0.16800299092972107,153.35596415425795,110.27385612708972) " y="-810.759544" x="430.479817" height="74.8283" width="49.618557" id="rect6444"/>
   <rect fill="black" fill-rule="evenodd" stroke-width="0.3" stroke-miterlimit="4" transform="matrix(0.6454718943911815,0,0.3729749611517396,-0.16800299092972107,153.35596415425795,110.27385612708972) " y="-810.788834" x="480.179217" height="74.8283" width="49.618557" id="rect6446"/>
   <rect fill="yellow" fill-rule="evenodd" stroke-width="0.3" stroke-miterlimit="4" transform="matrix(0.6454718943911815,0,0.3729749611517396,-0.16800299092972107,153.35596415425795,110.27385612708972) " y="-810.788498" x="529.464497" height="74.8283" width="49.618557" id="rect6448"/>
  </g>
  <g id="svg_1" transform="rotate(-90.44305419921875 37.956695556640625,242.20367431640625) ">
   <rect id="svg_2" fill="black" fill-rule="evenodd" stroke-width="0.3" stroke-miterlimit="4" transform="matrix(0.6454718943911815,0,0.3729749611517396,-0.16800299092972107,153.35596415425795,110.27385612708972) " y="-822.729196" x="-71.61932" height="74.8283" width="49.618557"/>
   <rect id="svg_3" fill="yellow" fill-rule="evenodd" stroke-width="0.3" stroke-miterlimit="4" transform="matrix(0.6454718943911815,0,0.3729749611517396,-0.16800299092972107,153.35596415425795,110.27385612708972) " y="-822.72886" x="-22.334072" height="74.8283" width="49.618557"/>
   <rect id="svg_4" fill="black" fill-rule="evenodd" stroke-width="0.3" stroke-miterlimit="4" transform="matrix(0.6454718943911815,0,0.3729749611517396,-0.16800299092972107,153.35596415425795,110.27385612708972) " y="-822.72886" x="27.281454" height="74.8283" width="49.618557"/>
   <rect id="svg_5" fill="yellow" fill-rule="evenodd" stroke-width="0.3" stroke-miterlimit="4" transform="matrix(0.6454718943911815,0,0.3729749611517396,-0.16800299092972107,153.35596415425795,110.27385612708972) " y="-822.728891" x="76.773064" height="74.8283" width="49.618557"/>
   <rect id="svg_6" fill="black" fill-rule="evenodd" stroke-width="0.3" stroke-miterlimit="4" transform="matrix(0.6454718943911815,0,0.3729749611517396,-0.16800299092972107,153.35596415425795,110.27385612708972) " y="-822.724099" x="126.393654" height="74.8283" width="49.618557"/>
   <rect id="svg_7" fill="yellow" fill-rule="evenodd" stroke-width="0.3" stroke-miterlimit="4" transform="matrix(0.6454718943911815,0,0.3729749611517396,-0.16800299092972107,153.35596415425795,110.27385612708972) " y="-822.699899" x="175.857744" height="74.8283" width="49.618557"/>
   <rect id="svg_8" fill="black" fill-rule="evenodd" stroke-width="0.3" stroke-miterlimit="4" transform="matrix(0.6454718943911815,0,0.3729749611517396,-0.16800299092972107,153.35596415425795,110.27385612708972) " y="-822.693391" x="225.514424" height="74.8283" width="49.618557"/>
   <rect id="svg_9" fill="yellow" fill-rule="evenodd" stroke-width="0.3" stroke-miterlimit="4" transform="matrix(0.6454718943911815,0,0.3729749611517396,-0.16800299092972107,153.35596415425795,110.27385612708972) " y="-822.693055" x="274.799674" height="74.8283" width="49.618557"/>
   <rect id="svg_10" fill="black" fill-rule="evenodd" stroke-width="0.3" stroke-miterlimit="4" transform="matrix(0.6454718943911815,0,0.3729749611517396,-0.16800299092972107,153.35596415425795,110.27385612708972) " y="-822.693055" x="324.415184" height="74.8283" width="49.618557"/>
   <rect id="svg_11" fill="yellow" fill-rule="evenodd" stroke-width="0.3" stroke-miterlimit="4" transform="matrix(0.6454718943911815,0,0.3729749611517396,-0.16800299092972107,153.35596415425795,110.27385612708972) " y="-822.693086" x="373.906784" height="74.8283" width="49.618557"/>
   <rect id="svg_12" fill="black" fill-rule="evenodd" stroke-width="0.3" stroke-miterlimit="4" transform="matrix(0.6454718943911815,0,0.3729749611517396,-0.16800299092972107,153.35596415425795,110.27385612708972) " y="-822.688295" x="423.527394" height="74.8283" width="49.618557"/>
   <rect id="svg_13" fill="yellow" fill-rule="evenodd" stroke-width="0.3" stroke-miterlimit="4" transform="matrix(0.6454718943911815,0,0.3729749611517396,-0.16800299092972107,153.35596415425795,110.27385612708972) " y="-822.664094" x="472.991504" height="74.8283" width="49.618557"/>
   <rect id="svg_14" fill="black" fill-rule="evenodd" stroke-width="0.3" stroke-miterlimit="4" transform="matrix(0.6454718943911815,0,0.3729749611517396,-0.16800299092972107,153.35596415425795,110.27385612708972) " y="-822.693384" x="522.690904" height="74.8283" width="49.618557"/>
   <rect id="svg_15" fill="yellow" fill-rule="evenodd" stroke-width="0.3" stroke-miterlimit="4" transform="matrix(0.6454718943911815,0,0.3729749611517396,-0.16800299092972107,153.35596415425795,110.27385612708972) " y="-822.693048" x="571.976184" height="74.8283" width="49.618557"/>
  </g>
  <g id="svg_16" transform="rotate(-90.44305419921875 61.95669555664063,237.20367431640625) ">
   <rect id="svg_17" fill="black" fill-rule="evenodd" stroke-width="0.3" stroke-miterlimit="4" transform="matrix(0.6454718943911815,0,0.3729749611517396,-0.16800299092972107,153.35596415425795,110.27385612708972) " y="-792.967821" x="-51.634325" height="74.8283" width="49.618557"/>
   <rect id="svg_18" fill="yellow" fill-rule="evenodd" stroke-width="0.3" stroke-miterlimit="4" transform="matrix(0.6454718943911815,0,0.3729749611517396,-0.16800299092972107,153.35596415425795,110.27385612708972) " y="-792.967485" x="-2.349077" height="74.8283" width="49.618557"/>
   <rect id="svg_19" fill="black" fill-rule="evenodd" stroke-width="0.3" stroke-miterlimit="4" transform="matrix(0.6454718943911815,0,0.3729749611517396,-0.16800299092972107,153.35596415425795,110.27385612708972) " y="-792.967485" x="47.266449" height="74.8283" width="49.618557"/>
   <rect id="svg_20" fill="yellow" fill-rule="evenodd" stroke-width="0.3" stroke-miterlimit="4" transform="matrix(0.6454718943911815,0,0.3729749611517396,-0.16800299092972107,153.35596415425795,110.27385612708972) " y="-792.967516" x="96.758059" height="74.8283" width="49.618557"/>
   <rect id="svg_21" fill="black" fill-rule="evenodd" stroke-width="0.3" stroke-miterlimit="4" transform="matrix(0.6454718943911815,0,0.3729749611517396,-0.16800299092972107,153.35596415425795,110.27385612708972) " y="-792.962724" x="146.378649" height="74.8283" width="49.618557"/>
   <rect id="svg_22" fill="yellow" fill-rule="evenodd" stroke-width="0.3" stroke-miterlimit="4" transform="matrix(0.6454718943911815,0,0.3729749611517396,-0.16800299092972107,153.35596415425795,110.27385612708972) " y="-792.938524" x="195.842739" height="74.8283" width="49.618557"/>
   <rect id="svg_23" fill="black" fill-rule="evenodd" stroke-width="0.3" stroke-miterlimit="4" transform="matrix(0.6454718943911815,0,0.3729749611517396,-0.16800299092972107,153.35596415425795,110.27385612708972) " y="-792.932016" x="245.499419" height="74.8283" width="49.618557"/>
   <rect id="svg_24" fill="yellow" fill-rule="evenodd" stroke-width="0.3" stroke-miterlimit="4" transform="matrix(0.6454718943911815,0,0.3729749611517396,-0.16800299092972107,153.35596415425795,110.27385612708972) " y="-792.93168" x="294.784669" height="74.8283" width="49.618557"/>
   <rect id="svg_25" fill="black" fill-rule="evenodd" stroke-width="0.3" stroke-miterlimit="4" transform="matrix(0.6454718943911815,0,0.3729749611517396,-0.16800299092972107,153.35596415425795,110.27385612708972) " y="-792.93168" x="344.400179" height="74.8283" width="49.618557"/>
   <rect id="svg_26" fill="yellow" fill-rule="evenodd" stroke-width="0.3" stroke-miterlimit="4" transform="matrix(0.6454718943911815,0,0.3729749611517396,-0.16800299092972107,153.35596415425795,110.27385612708972) " y="-792.931711" x="393.891779" height="74.8283" width="49.618557"/>
   <rect id="svg_27" fill="black" fill-rule="evenodd" stroke-width="0.3" stroke-miterlimit="4" transform="matrix(0.6454718943911815,0,0.3729749611517396,-0.16800299092972107,153.35596415425795,110.27385612708972) " y="-792.92692" x="443.512389" height="74.8283" width="49.618557"/>
   <rect id="svg_28" fill="yellow" fill-rule="evenodd" stroke-width="0.3" stroke-miterlimit="4" transform="matrix(0.6454718943911815,0,0.3729749611517396,-0.16800299092972107,153.35596415425795,110.27385612708972) " y="-792.902719" x="492.976499" height="74.8283" width="49.618557"/>
   <rect id="svg_29" fill="black" fill-rule="evenodd" stroke-width="0.3" stroke-miterlimit="4" transform="matrix(0.6454718943911815,0,0.3729749611517396,-0.16800299092972107,153.35596415425795,110.27385612708972) " y="-792.932009" x="542.675899" height="74.8283" width="49.618557"/>
   <rect id="svg_30" fill="yellow" fill-rule="evenodd" stroke-width="0.3" stroke-miterlimit="4" transform="matrix(0.6454718943911815,0,0.3729749611517396,-0.16800299092972107,153.35596415425795,110.27385612708972) " y="-792.931673" x="591.961179" height="74.8283" width="49.618557"/>
  </g>
  <g id="svg_31" transform="rotate(-90.44305419921875 86.95669555664058,243.2036743164062) ">
   <rect id="svg_32" fill="black" fill-rule="evenodd" stroke-width="0.3" stroke-miterlimit="4" transform="matrix(0.6454718943911815,0,0.3729749611517396,-0.16800299092972107,153.35596415425795,110.27385612708972) " y="-828.681471" x="7.733554" height="74.8283" width="49.618557"/>
   <rect id="svg_33" fill="yellow" fill-rule="evenodd" stroke-width="0.3" stroke-miterlimit="4" transform="matrix(0.6454718943911815,0,0.3729749611517396,-0.16800299092972107,153.35596415425795,110.27385612708972) " y="-828.681135" x="57.018802" height="74.8283" width="49.618557"/>
   <rect id="svg_34" fill="black" fill-rule="evenodd" stroke-width="0.3" stroke-miterlimit="4" transform="matrix(0.6454718943911815,0,0.3729749611517396,-0.16800299092972107,153.35596415425795,110.27385612708972) " y="-828.681135" x="106.634328" height="74.8283" width="49.618557"/>
   <rect id="svg_35" fill="yellow" fill-rule="evenodd" stroke-width="0.3" stroke-miterlimit="4" transform="matrix(0.6454718943911815,0,0.3729749611517396,-0.16800299092972107,153.35596415425795,110.27385612708972) " y="-828.681166" x="156.125938" height="74.8283" width="49.618557"/>
   <rect id="svg_36" fill="black" fill-rule="evenodd" stroke-width="0.3" stroke-miterlimit="4" transform="matrix(0.6454718943911815,0,0.3729749611517396,-0.16800299092972107,153.35596415425795,110.27385612708972) " y="-828.676374" x="205.746528" height="74.8283" width="49.618557"/>
   <rect id="svg_37" fill="yellow" fill-rule="evenodd" stroke-width="0.3" stroke-miterlimit="4" transform="matrix(0.6454718943911815,0,0.3729749611517396,-0.16800299092972107,153.35596415425795,110.27385612708972) " y="-828.652174" x="255.210618" height="74.8283" width="49.618557"/>
   <rect id="svg_38" fill="black" fill-rule="evenodd" stroke-width="0.3" stroke-miterlimit="4" transform="matrix(0.6454718943911815,0,0.3729749611517396,-0.16800299092972107,153.35596415425795,110.27385612708972) " y="-828.645666" x="304.867298" height="74.8283" width="49.618557"/>
   <rect id="svg_39" fill="yellow" fill-rule="evenodd" stroke-width="0.3" stroke-miterlimit="4" transform="matrix(0.6454718943911815,0,0.3729749611517396,-0.16800299092972107,153.35596415425795,110.27385612708972) " y="-828.64533" x="354.152548" height="74.8283" width="49.618557"/>
   <rect id="svg_40" fill="black" fill-rule="evenodd" stroke-width="0.3" stroke-miterlimit="4" transform="matrix(0.6454718943911815,0,0.3729749611517396,-0.16800299092972107,153.35596415425795,110.27385612708972) " y="-828.64533" x="403.768058" height="74.8283" width="49.618557"/>
   <rect id="svg_41" fill="yellow" fill-rule="evenodd" stroke-width="0.3" stroke-miterlimit="4" transform="matrix(0.6454718943911815,0,0.3729749611517396,-0.16800299092972107,153.35596415425795,110.27385612708972) " y="-828.645361" x="453.259658" height="74.8283" width="49.618557"/>
   <rect id="svg_42" fill="black" fill-rule="evenodd" stroke-width="0.3" stroke-miterlimit="4" transform="matrix(0.6454718943911815,0,0.3729749611517396,-0.16800299092972107,153.35596415425795,110.27385612708972) " y="-828.64057" x="502.880268" height="74.8283" width="49.618557"/>
   <rect id="svg_43" fill="yellow" fill-rule="evenodd" stroke-width="0.3" stroke-miterlimit="4" transform="matrix(0.6454718943911815,0,0.3729749611517396,-0.16800299092972107,153.35596415425795,110.27385612708972) " y="-828.616369" x="552.344378" height="74.8283" width="49.618557"/>
   <rect id="svg_44" fill="black" fill-rule="evenodd" stroke-width="0.3" stroke-miterlimit="4" transform="matrix(0.6454718943911815,0,0.3729749611517396,-0.16800299092972107,153.35596415425795,110.27385612708972) " y="-828.645659" x="602.043778" height="74.8283" width="49.618557"/>
   <rect id="svg_45" fill="yellow" fill-rule="evenodd" stroke-width="0.3" stroke-miterlimit="4" transform="matrix(0.6454718943911815,0,0.3729749611517396,-0.16800299092972107,153.35596415425795,110.27385612708972) " y="-828.645323" x="651.329058" height="74.8283" width="49.618557"/>
  </g>
  <g id="svg_46" transform="rotate(-90.44305419921875 107.95669555664058,240.2036743164062) ">
   <rect id="svg_47" fill="black" fill-rule="evenodd" stroke-width="0.3" stroke-miterlimit="4" transform="matrix(0.6454718943911815,0,0.3729749611517396,-0.16800299092972107,153.35596415425795,110.27385612708972) " y="-810.824646" x="29.949628" height="74.8283" width="49.618557"/>
   <rect id="svg_48" fill="yellow" fill-rule="evenodd" stroke-width="0.3" stroke-miterlimit="4" transform="matrix(0.6454718943911815,0,0.3729749611517396,-0.16800299092972107,153.35596415425795,110.27385612708972) " y="-810.82431" x="79.234876" height="74.8283" width="49.618557"/>
   <rect id="svg_49" fill="black" fill-rule="evenodd" stroke-width="0.3" stroke-miterlimit="4" transform="matrix(0.6454718943911815,0,0.3729749611517396,-0.16800299092972107,153.35596415425795,110.27385612708972) " y="-810.82431" x="128.850402" height="74.8283" width="49.618557"/>
   <rect id="svg_50" fill="yellow" fill-rule="evenodd" stroke-width="0.3" stroke-miterlimit="4" transform="matrix(0.6454718943911815,0,0.3729749611517396,-0.16800299092972107,153.35596415425795,110.27385612708972) " y="-810.824341" x="178.342012" height="74.8283" width="49.618557"/>
   <rect id="svg_51" fill="black" fill-rule="evenodd" stroke-width="0.3" stroke-miterlimit="4" transform="matrix(0.6454718943911815,0,0.3729749611517396,-0.16800299092972107,153.35596415425795,110.27385612708972) " y="-810.819549" x="227.962602" height="74.8283" width="49.618557"/>
   <rect id="svg_52" fill="yellow" fill-rule="evenodd" stroke-width="0.3" stroke-miterlimit="4" transform="matrix(0.6454718943911815,0,0.3729749611517396,-0.16800299092972107,153.35596415425795,110.27385612708972) " y="-810.795349" x="277.426692" height="74.8283" width="49.618557"/>
   <rect id="svg_53" fill="black" fill-rule="evenodd" stroke-width="0.3" stroke-miterlimit="4" transform="matrix(0.6454718943911815,0,0.3729749611517396,-0.16800299092972107,153.35596415425795,110.27385612708972) " y="-810.788841" x="327.083372" height="74.8283" width="49.618557"/>
   <rect id="svg_54" fill="yellow" fill-rule="evenodd" stroke-width="0.3" stroke-miterlimit="4" transform="matrix(0.6454718943911815,0,0.3729749611517396,-0.16800299092972107,153.35596415425795,110.27385612708972) " y="-810.788505" x="376.368622" height="74.8283" width="49.618557"/>
   <rect id="svg_55" fill="black" fill-rule="evenodd" stroke-width="0.3" stroke-miterlimit="4" transform="matrix(0.6454718943911815,0,0.3729749611517396,-0.16800299092972107,153.35596415425795,110.27385612708972) " y="-810.788505" x="425.984132" height="74.8283" width="49.618557"/>
   <rect id="svg_56" fill="yellow" fill-rule="evenodd" stroke-width="0.3" stroke-miterlimit="4" transform="matrix(0.6454718943911815,0,0.3729749611517396,-0.16800299092972107,153.35596415425795,110.27385612708972) " y="-810.788536" x="475.475732" height="74.8283" width="49.618557"/>
   <rect id="svg_57" fill="black" fill-rule="evenodd" stroke-width="0.3" stroke-miterlimit="4" transform="matrix(0.6454718943911815,0,0.3729749611517396,-0.16800299092972107,153.35596415425795,110.27385612708972) " y="-810.783745" x="525.096342" height="74.8283" width="49.618557"/>
   <rect id="svg_58" fill="yellow" fill-rule="evenodd" stroke-width="0.3" stroke-miterlimit="4" transform="matrix(0.6454718943911815,0,0.3729749611517396,-0.16800299092972107,153.35596415425795,110.27385612708972) " y="-810.759544" x="574.560452" height="74.8283" width="49.618557"/>
   <rect id="svg_59" fill="black" fill-rule="evenodd" stroke-width="0.3" stroke-miterlimit="4" transform="matrix(0.6454718943911815,0,0.3729749611517396,-0.16800299092972107,153.35596415425795,110.27385612708972) " y="-810.788834" x="624.259852" height="74.8283" width="49.618557"/>
   <rect id="svg_60" fill="yellow" fill-rule="evenodd" stroke-width="0.3" stroke-miterlimit="4" transform="matrix(0.6454718943911815,0,0.3729749611517396,-0.16800299092972107,153.35596415425795,110.27385612708972) " y="-810.788498" x="673.545132" height="74.8283" width="49.618557"/>
  </g>
  <g id="svg_61" transform="rotate(-90.44305419921875 126.95669555664061,239.20367431640622) ">
   <rect id="svg_62" fill="black" fill-rule="evenodd" stroke-width="0.3" stroke-miterlimit="4" transform="matrix(0.6454718943911815,0,0.3729749611517396,-0.16800299092972107,153.35596415425795,110.27385612708972) " y="-804.872371" x="55.946035" height="74.8283" width="49.618557"/>
   <rect id="svg_63" fill="yellow" fill-rule="evenodd" stroke-width="0.3" stroke-miterlimit="4" transform="matrix(0.6454718943911815,0,0.3729749611517396,-0.16800299092972107,153.35596415425795,110.27385612708972) " y="-804.872035" x="105.231283" height="74.8283" width="49.618557"/>
   <rect id="svg_64" fill="black" fill-rule="evenodd" stroke-width="0.3" stroke-miterlimit="4" transform="matrix(0.6454718943911815,0,0.3729749611517396,-0.16800299092972107,153.35596415425795,110.27385612708972) " y="-804.872035" x="154.846809" height="74.8283" width="49.618557"/>
   <rect id="svg_65" fill="yellow" fill-rule="evenodd" stroke-width="0.3" stroke-miterlimit="4" transform="matrix(0.6454718943911815,0,0.3729749611517396,-0.16800299092972107,153.35596415425795,110.27385612708972) " y="-804.872066" x="204.338419" height="74.8283" width="49.618557"/>
   <rect id="svg_66" fill="black" fill-rule="evenodd" stroke-width="0.3" stroke-miterlimit="4" transform="matrix(0.6454718943911815,0,0.3729749611517396,-0.16800299092972107,153.35596415425795,110.27385612708972) " y="-804.867274" x="253.959009" height="74.8283" width="49.618557"/>
   <rect id="svg_67" fill="yellow" fill-rule="evenodd" stroke-width="0.3" stroke-miterlimit="4" transform="matrix(0.6454718943911815,0,0.3729749611517396,-0.16800299092972107,153.35596415425795,110.27385612708972) " y="-804.843074" x="303.423099" height="74.8283" width="49.618557"/>
   <rect id="svg_68" fill="black" fill-rule="evenodd" stroke-width="0.3" stroke-miterlimit="4" transform="matrix(0.6454718943911815,0,0.3729749611517396,-0.16800299092972107,153.35596415425795,110.27385612708972) " y="-804.836566" x="353.079779" height="74.8283" width="49.618557"/>
   <rect id="svg_69" fill="yellow" fill-rule="evenodd" stroke-width="0.3" stroke-miterlimit="4" transform="matrix(0.6454718943911815,0,0.3729749611517396,-0.16800299092972107,153.35596415425795,110.27385612708972) " y="-804.83623" x="402.365029" height="74.8283" width="49.618557"/>
   <rect id="svg_70" fill="black" fill-rule="evenodd" stroke-width="0.3" stroke-miterlimit="4" transform="matrix(0.6454718943911815,0,0.3729749611517396,-0.16800299092972107,153.35596415425795,110.27385612708972) " y="-804.83623" x="451.980539" height="74.8283" width="49.618557"/>
   <rect id="svg_71" fill="yellow" fill-rule="evenodd" stroke-width="0.3" stroke-miterlimit="4" transform="matrix(0.6454718943911815,0,0.3729749611517396,-0.16800299092972107,153.35596415425795,110.27385612708972) " y="-804.836261" x="501.472139" height="74.8283" width="49.618557"/>
   <rect id="svg_72" fill="black" fill-rule="evenodd" stroke-width="0.3" stroke-miterlimit="4" transform="matrix(0.6454718943911815,0,0.3729749611517396,-0.16800299092972107,153.35596415425795,110.27385612708972) " y="-804.83147" x="551.092749" height="74.8283" width="49.618557"/>
   <rect id="svg_73" fill="yellow" fill-rule="evenodd" stroke-width="0.3" stroke-miterlimit="4" transform="matrix(0.6454718943911815,0,0.3729749611517396,-0.16800299092972107,153.35596415425795,110.27385612708972) " y="-804.807269" x="600.556859" height="74.8283" width="49.618557"/>
   <rect id="svg_74" fill="black" fill-rule="evenodd" stroke-width="0.3" stroke-miterlimit="4" transform="matrix(0.6454718943911815,0,0.3729749611517396,-0.16800299092972107,153.35596415425795,110.27385612708972) " y="-804.836559" x="650.256259" height="74.8283" width="49.618557"/>
   <rect id="svg_75" fill="yellow" fill-rule="evenodd" stroke-width="0.3" stroke-miterlimit="4" transform="matrix(0.6454718943911815,0,0.3729749611517396,-0.16800299092972107,153.35596415425795,110.27385612708972) " y="-804.836223" x="699.541539" height="74.8283" width="49.618557"/>
  </g>
  <g id="svg_76" transform="rotate(-90.44305419921875 146.95669555664065,240.20367431640625) ">
   <rect id="svg_77" fill="black" fill-rule="evenodd" stroke-width="0.3" stroke-miterlimit="4" transform="matrix(0.6454718943911815,0,0.3729749611517396,-0.16800299092972107,153.35596415425795,110.27385612708972) " y="-810.824646" x="90.370539" height="74.8283" width="49.618557"/>
   <rect id="svg_78" fill="yellow" fill-rule="evenodd" stroke-width="0.3" stroke-miterlimit="4" transform="matrix(0.6454718943911815,0,0.3729749611517396,-0.16800299092972107,153.35596415425795,110.27385612708972) " y="-810.82431" x="139.655787" height="74.8283" width="49.618557"/>
   <rect id="svg_79" fill="black" fill-rule="evenodd" stroke-width="0.3" stroke-miterlimit="4" transform="matrix(0.6454718943911815,0,0.3729749611517396,-0.16800299092972107,153.35596415425795,110.27385612708972) " y="-810.82431" x="189.271313" height="74.8283" width="49.618557"/>
   <rect id="svg_80" fill="yellow" fill-rule="evenodd" stroke-width="0.3" stroke-miterlimit="4" transform="matrix(0.6454718943911815,0,0.3729749611517396,-0.16800299092972107,153.35596415425795,110.27385612708972) " y="-810.824341" x="238.762923" height="74.8283" width="49.618557"/>
   <rect id="svg_81" fill="black" fill-rule="evenodd" stroke-width="0.3" stroke-miterlimit="4" transform="matrix(0.6454718943911815,0,0.3729749611517396,-0.16800299092972107,153.35596415425795,110.27385612708972) " y="-810.819549" x="288.383513" height="74.8283" width="49.618557"/>
   <rect id="svg_82" fill="yellow" fill-rule="evenodd" stroke-width="0.3" stroke-miterlimit="4" transform="matrix(0.6454718943911815,0,0.3729749611517396,-0.16800299092972107,153.35596415425795,110.27385612708972) " y="-810.795349" x="337.847603" height="74.8283" width="49.618557"/>
   <rect id="svg_83" fill="black" fill-rule="evenodd" stroke-width="0.3" stroke-miterlimit="4" transform="matrix(0.6454718943911815,0,0.3729749611517396,-0.16800299092972107,153.35596415425795,110.27385612708972) " y="-810.788841" x="387.504283" height="74.8283" width="49.618557"/>
   <rect id="svg_84" fill="yellow" fill-rule="evenodd" stroke-width="0.3" stroke-miterlimit="4" transform="matrix(0.6454718943911815,0,0.3729749611517396,-0.16800299092972107,153.35596415425795,110.27385612708972) " y="-810.788505" x="436.789533" height="74.8283" width="49.618557"/>
   <rect id="svg_85" fill="black" fill-rule="evenodd" stroke-width="0.3" stroke-miterlimit="4" transform="matrix(0.6454718943911815,0,0.3729749611517396,-0.16800299092972107,153.35596415425795,110.27385612708972) " y="-810.788505" x="486.405043" height="74.8283" width="49.618557"/>
   <rect id="svg_86" fill="yellow" fill-rule="evenodd" stroke-width="0.3" stroke-miterlimit="4" transform="matrix(0.6454718943911815,0,0.3729749611517396,-0.16800299092972107,153.35596415425795,110.27385612708972) " y="-810.788536" x="535.896643" height="74.8283" width="49.618557"/>
   <rect id="svg_87" fill="black" fill-rule="evenodd" stroke-width="0.3" stroke-miterlimit="4" transform="matrix(0.6454718943911815,0,0.3729749611517396,-0.16800299092972107,153.35596415425795,110.27385612708972) " y="-810.783745" x="585.517253" height="74.8283" width="49.618557"/>
   <rect id="svg_88" fill="yellow" fill-rule="evenodd" stroke-width="0.3" stroke-miterlimit="4" transform="matrix(0.6454718943911815,0,0.3729749611517396,-0.16800299092972107,153.35596415425795,110.27385612708972) " y="-810.759544" x="634.981363" height="74.8283" width="49.618557"/>
   <rect id="svg_89" fill="black" fill-rule="evenodd" stroke-width="0.3" stroke-miterlimit="4" transform="matrix(0.6454718943911815,0,0.3729749611517396,-0.16800299092972107,153.35596415425795,110.27385612708972) " y="-810.788834" x="684.680763" height="74.8283" width="49.618557"/>
   <rect id="svg_90" fill="yellow" fill-rule="evenodd" stroke-width="0.3" stroke-miterlimit="4" transform="matrix(0.6454718943911815,0,0.3729749611517396,-0.16800299092972107,153.35596415425795,110.27385612708972) " y="-810.788498" x="733.966043" height="74.8283" width="49.618557"/>
  </g>
  <g id="svg_91" transform="rotate(-90.44305419921875 169.95669555664062,243.20367431640625) ">
   <rect id="svg_92" fill="black" fill-rule="evenodd" stroke-width="0.3" stroke-miterlimit="4" transform="matrix(0.6454718943911815,0,0.3729749611517396,-0.16800299092972107,153.35596415425795,110.27385612708972) " y="-828.681471" x="136.321647" height="74.8283" width="49.618557"/>
   <rect id="svg_93" fill="yellow" fill-rule="evenodd" stroke-width="0.3" stroke-miterlimit="4" transform="matrix(0.6454718943911815,0,0.3729749611517396,-0.16800299092972107,153.35596415425795,110.27385612708972) " y="-828.681135" x="185.606895" height="74.8283" width="49.618557"/>
   <rect id="svg_94" fill="black" fill-rule="evenodd" stroke-width="0.3" stroke-miterlimit="4" transform="matrix(0.6454718943911815,0,0.3729749611517396,-0.16800299092972107,153.35596415425795,110.27385612708972) " y="-828.681135" x="235.222421" height="74.8283" width="49.618557"/>
   <rect id="svg_95" fill="yellow" fill-rule="evenodd" stroke-width="0.3" stroke-miterlimit="4" transform="matrix(0.6454718943911815,0,0.3729749611517396,-0.16800299092972107,153.35596415425795,110.27385612708972) " y="-828.681166" x="284.714031" height="74.8283" width="49.618557"/>
   <rect id="svg_96" fill="black" fill-rule="evenodd" stroke-width="0.3" stroke-miterlimit="4" transform="matrix(0.6454718943911815,0,0.3729749611517396,-0.16800299092972107,153.35596415425795,110.27385612708972) " y="-828.676374" x="334.334621" height="74.8283" width="49.618557"/>
   <rect id="svg_97" fill="yellow" fill-rule="evenodd" stroke-width="0.3" stroke-miterlimit="4" transform="matrix(0.6454718943911815,0,0.3729749611517396,-0.16800299092972107,153.35596415425795,110.27385612708972) " y="-828.652174" x="383.798711" height="74.8283" width="49.618557"/>
   <rect id="svg_98" fill="black" fill-rule="evenodd" stroke-width="0.3" stroke-miterlimit="4" transform="matrix(0.6454718943911815,0,0.3729749611517396,-0.16800299092972107,153.35596415425795,110.27385612708972) " y="-828.645666" x="433.455391" height="74.8283" width="49.618557"/>
   <rect id="svg_99" fill="yellow" fill-rule="evenodd" stroke-width="0.3" stroke-miterlimit="4" transform="matrix(0.6454718943911815,0,0.3729749611517396,-0.16800299092972107,153.35596415425795,110.27385612708972) " y="-828.64533" x="482.740641" height="74.8283" width="49.618557"/>
   <rect id="svg_100" fill="black" fill-rule="evenodd" stroke-width="0.3" stroke-miterlimit="4" transform="matrix(0.6454718943911815,0,0.3729749611517396,-0.16800299092972107,153.35596415425795,110.27385612708972) " y="-828.64533" x="532.356151" height="74.8283" width="49.618557"/>
   <rect id="svg_101" fill="yellow" fill-rule="evenodd" stroke-width="0.3" stroke-miterlimit="4" transform="matrix(0.6454718943911815,0,0.3729749611517396,-0.16800299092972107,153.35596415425795,110.27385612708972) " y="-828.645361" x="581.847751" height="74.8283" width="49.618557"/>
   <rect id="svg_102" fill="black" fill-rule="evenodd" stroke-width="0.3" stroke-miterlimit="4" transform="matrix(0.6454718943911815,0,0.3729749611517396,-0.16800299092972107,153.35596415425795,110.27385612708972) " y="-828.64057" x="631.468361" height="74.8283" width="49.618557"/>
   <rect id="svg_103" fill="yellow" fill-rule="evenodd" stroke-width="0.3" stroke-miterlimit="4" transform="matrix(0.6454718943911815,0,0.3729749611517396,-0.16800299092972107,153.35596415425795,110.27385612708972) " y="-828.616369" x="680.932471" height="74.8283" width="49.618557"/>
   <rect id="svg_104" fill="black" fill-rule="evenodd" stroke-width="0.3" stroke-miterlimit="4" transform="matrix(0.6454718943911815,0,0.3729749611517396,-0.16800299092972107,153.35596415425795,110.27385612708972) " y="-828.645659" x="730.631871" height="74.8283" width="49.618557"/>
   <rect id="svg_105" fill="yellow" fill-rule="evenodd" stroke-width="0.3" stroke-miterlimit="4" transform="matrix(0.6454718943911815,0,0.3729749611517396,-0.16800299092972107,153.35596415425795,110.27385612708972) " y="-828.645323" x="779.917151" height="74.8283" width="49.618557"/>
  </g>
  <g id="svg_106" transform="rotate(-90.44305419921875 196.4563446044922,241.16114807128906) ">
   <rect id="svg_107" fill="black" fill-rule="evenodd" stroke-width="0.3" stroke-miterlimit="4" transform="matrix(0.6454718943911815,0,0.3729749611517396,-0.3148741273428672,153.35596415425795,-1.3100714478631517) " y="-807.504366" x="165.139511" height="74.8283" width="49.618557"/>
   <rect id="svg_108" fill="yellow" fill-rule="evenodd" stroke-width="0.3" stroke-miterlimit="4" transform="matrix(0.6454718943911815,0,0.3729749611517396,-0.3148741273428672,153.35596415425795,-1.3100714478631517) " y="-807.50403" x="214.424759" height="74.8283" width="49.618557"/>
   <rect id="svg_109" fill="black" fill-rule="evenodd" stroke-width="0.3" stroke-miterlimit="4" transform="matrix(0.6454718943911815,0,0.3729749611517396,-0.3148741273428672,153.35596415425795,-1.3100714478631517) " y="-807.50403" x="264.040285" height="74.8283" width="49.618557"/>
   <rect id="svg_110" fill="yellow" fill-rule="evenodd" stroke-width="0.3" stroke-miterlimit="4" transform="matrix(0.6454718943911815,0,0.3729749611517396,-0.3148741273428672,153.35596415425795,-1.3100714478631517) " y="-807.504061" x="313.531895" height="74.8283" width="49.618557"/>
   <rect id="svg_111" fill="black" fill-rule="evenodd" stroke-width="0.3" stroke-miterlimit="4" transform="matrix(0.6454718943911815,0,0.3729749611517396,-0.3148741273428672,153.35596415425795,-1.3100714478631517) " y="-807.499269" x="363.152485" height="74.8283" width="49.618557"/>
   <rect id="svg_112" fill="yellow" fill-rule="evenodd" stroke-width="0.3" stroke-miterlimit="4" transform="matrix(0.6454718943911815,0,0.3729749611517396,-0.3148741273428672,153.35596415425795,-1.3100714478631517) " y="-807.475069" x="412.616575" height="74.8283" width="49.618557"/>
   <rect id="svg_113" fill="black" fill-rule="evenodd" stroke-width="0.3" stroke-miterlimit="4" transform="matrix(0.6454718943911815,0,0.3729749611517396,-0.3148741273428672,153.35596415425795,-1.3100714478631517) " y="-807.468561" x="462.273255" height="74.8283" width="49.618557"/>
   <rect id="svg_114" fill="yellow" fill-rule="evenodd" stroke-width="0.3" stroke-miterlimit="4" transform="matrix(0.6454718943911815,0,0.3729749611517396,-0.3148741273428672,153.35596415425795,-1.3100714478631517) " y="-807.468225" x="511.558505" height="74.8283" width="49.618557"/>
   <rect id="svg_115" fill="black" fill-rule="evenodd" stroke-width="0.3" stroke-miterlimit="4" transform="matrix(0.6454718943911815,0,0.3729749611517396,-0.3148741273428672,153.35596415425795,-1.3100714478631517) " y="-807.468225" x="561.174015" height="74.8283" width="49.618557"/>
   <rect id="svg_116" fill="yellow" fill-rule="evenodd" stroke-width="0.3" stroke-miterlimit="4" transform="matrix(0.6454718943911815,0,0.3729749611517396,-0.3148741273428672,153.35596415425795,-1.3100714478631517) " y="-807.468256" x="610.665615" height="74.8283" width="49.618557"/>
   <rect id="svg_117" fill="black" fill-rule="evenodd" stroke-width="0.3" stroke-miterlimit="4" transform="matrix(0.6454718943911815,0,0.3729749611517396,-0.3148741273428672,153.35596415425795,-1.3100714478631517) " y="-807.463465" x="660.286225" height="74.8283" width="49.618557"/>
   <rect id="svg_118" fill="yellow" fill-rule="evenodd" stroke-width="0.3" stroke-miterlimit="4" transform="matrix(0.6454718943911815,0,0.3729749611517396,-0.3148741273428672,153.35596415425795,-1.3100714478631517) " y="-807.439264" x="709.750335" height="74.8283" width="49.618557"/>
   <rect id="svg_119" fill="black" fill-rule="evenodd" stroke-width="0.3" stroke-miterlimit="4" transform="matrix(0.6454718943911815,0,0.3729749611517396,-0.3148741273428672,153.35596415425795,-1.3100714478631517) " y="-807.468554" x="759.449735" height="74.8283" width="49.618557"/>
   <rect id="svg_120" fill="yellow" fill-rule="evenodd" stroke-width="0.3" stroke-miterlimit="4" transform="matrix(0.6454718943911815,0,0.3729749611517396,-0.3148741273428672,153.35596415425795,-1.3100714478631517) " y="-807.468218" x="808.735015" height="74.8283" width="49.618557"/>
  </g>
  <g id="svg_121" transform="rotate(-90.44305419921875 228.45635986328128,242.1611328125) ">
   <rect id="svg_122" fill="black" fill-rule="evenodd" stroke-width="0.3" stroke-miterlimit="4" transform="matrix(0.6454718943911815,0,0.3729749611517396,-0.3148741273428672,153.35596415425795,-1.3100714478631517) " y="-810.680238" x="216.550767" height="74.8283" width="49.618557"/>
   <rect id="svg_123" fill="yellow" fill-rule="evenodd" stroke-width="0.3" stroke-miterlimit="4" transform="matrix(0.6454718943911815,0,0.3729749611517396,-0.3148741273428672,153.35596415425795,-1.3100714478631517) " y="-810.679902" x="265.836015" height="74.8283" width="49.618557"/>
   <rect id="svg_124" fill="black" fill-rule="evenodd" stroke-width="0.3" stroke-miterlimit="4" transform="matrix(0.6454718943911815,0,0.3729749611517396,-0.3148741273428672,153.35596415425795,-1.3100714478631517) " y="-810.679902" x="315.451541" height="74.8283" width="49.618557"/>
   <rect id="svg_125" fill="yellow" fill-rule="evenodd" stroke-width="0.3" stroke-miterlimit="4" transform="matrix(0.6454718943911815,0,0.3729749611517396,-0.3148741273428672,153.35596415425795,-1.3100714478631517) " y="-810.679933" x="364.943151" height="74.8283" width="49.618557"/>
   <rect id="svg_126" fill="black" fill-rule="evenodd" stroke-width="0.3" stroke-miterlimit="4" transform="matrix(0.6454718943911815,0,0.3729749611517396,-0.3148741273428672,153.35596415425795,-1.3100714478631517) " y="-810.675141" x="414.563741" height="74.8283" width="49.618557"/>
   <rect id="svg_127" fill="yellow" fill-rule="evenodd" stroke-width="0.3" stroke-miterlimit="4" transform="matrix(0.6454718943911815,0,0.3729749611517396,-0.3148741273428672,153.35596415425795,-1.3100714478631517) " y="-810.650941" x="464.027831" height="74.8283" width="49.618557"/>
   <rect id="svg_128" fill="black" fill-rule="evenodd" stroke-width="0.3" stroke-miterlimit="4" transform="matrix(0.6454718943911815,0,0.3729749611517396,-0.3148741273428672,153.35596415425795,-1.3100714478631517) " y="-810.644433" x="513.684511" height="74.8283" width="49.618557"/>
   <rect id="svg_129" fill="yellow" fill-rule="evenodd" stroke-width="0.3" stroke-miterlimit="4" transform="matrix(0.6454718943911815,0,0.3729749611517396,-0.3148741273428672,153.35596415425795,-1.3100714478631517) " y="-810.644097" x="562.969761" height="74.8283" width="49.618557"/>
   <rect id="svg_130" fill="black" fill-rule="evenodd" stroke-width="0.3" stroke-miterlimit="4" transform="matrix(0.6454718943911815,0,0.3729749611517396,-0.3148741273428672,153.35596415425795,-1.3100714478631517) " y="-810.644097" x="612.585271" height="74.8283" width="49.618557"/>
   <rect id="svg_131" fill="yellow" fill-rule="evenodd" stroke-width="0.3" stroke-miterlimit="4" transform="matrix(0.6454718943911815,0,0.3729749611517396,-0.3148741273428672,153.35596415425795,-1.3100714478631517) " y="-810.644128" x="662.076871" height="74.8283" width="49.618557"/>
   <rect id="svg_132" fill="black" fill-rule="evenodd" stroke-width="0.3" stroke-miterlimit="4" transform="matrix(0.6454718943911815,0,0.3729749611517396,-0.3148741273428672,153.35596415425795,-1.3100714478631517) " y="-810.639337" x="711.697481" height="74.8283" width="49.618557"/>
   <rect id="svg_133" fill="yellow" fill-rule="evenodd" stroke-width="0.3" stroke-miterlimit="4" transform="matrix(0.6454718943911815,0,0.3729749611517396,-0.3148741273428672,153.35596415425795,-1.3100714478631517) " y="-810.615136" x="761.161591" height="74.8283" width="49.618557"/>
   <rect id="svg_134" fill="black" fill-rule="evenodd" stroke-width="0.3" stroke-miterlimit="4" transform="matrix(0.6454718943911815,0,0.3729749611517396,-0.3148741273428672,153.35596415425795,-1.3100714478631517) " y="-810.644426" x="810.860991" height="74.8283" width="49.618557"/>
   <rect id="svg_135" fill="yellow" fill-rule="evenodd" stroke-width="0.3" stroke-miterlimit="4" transform="matrix(0.6454718943911815,0,0.3729749611517396,-0.3148741273428672,153.35596415425795,-1.3100714478631517) " y="-810.64409" x="860.146271" height="74.8283" width="49.618557"/>
  </g>
  <g id="svg_136" transform="rotate(-90.44305419921875 259.4563598632813,244.1611328125) ">
   <rect id="svg_137" fill="black" fill-rule="evenodd" stroke-width="0.3" stroke-miterlimit="4" transform="matrix(0.6454718943911815,0,0.3729749611517396,-0.3148741273428672,153.35596415425795,-1.3100714478631517) " y="-817.031983" x="268.247892" height="74.8283" width="49.618557"/>
   <rect id="svg_138" fill="yellow" fill-rule="evenodd" stroke-width="0.3" stroke-miterlimit="4" transform="matrix(0.6454718943911815,0,0.3729749611517396,-0.3148741273428672,153.35596415425795,-1.3100714478631517) " y="-817.031647" x="317.53314" height="74.8283" width="49.618557"/>
   <rect id="svg_139" fill="black" fill-rule="evenodd" stroke-width="0.3" stroke-miterlimit="4" transform="matrix(0.6454718943911815,0,0.3729749611517396,-0.3148741273428672,153.35596415425795,-1.3100714478631517) " y="-817.031647" x="367.148666" height="74.8283" width="49.618557"/>
   <rect id="svg_140" fill="yellow" fill-rule="evenodd" stroke-width="0.3" stroke-miterlimit="4" transform="matrix(0.6454718943911815,0,0.3729749611517396,-0.3148741273428672,153.35596415425795,-1.3100714478631517) " y="-817.031678" x="416.640276" height="74.8283" width="49.618557"/>
   <rect id="svg_141" fill="black" fill-rule="evenodd" stroke-width="0.3" stroke-miterlimit="4" transform="matrix(0.6454718943911815,0,0.3729749611517396,-0.3148741273428672,153.35596415425795,-1.3100714478631517) " y="-817.026886" x="466.260866" height="74.8283" width="49.618557"/>
   <rect id="svg_142" fill="yellow" fill-rule="evenodd" stroke-width="0.3" stroke-miterlimit="4" transform="matrix(0.6454718943911815,0,0.3729749611517396,-0.3148741273428672,153.35596415425795,-1.3100714478631517) " y="-817.002686" x="515.724956" height="74.8283" width="49.618557"/>
   <rect id="svg_143" fill="black" fill-rule="evenodd" stroke-width="0.3" stroke-miterlimit="4" transform="matrix(0.6454718943911815,0,0.3729749611517396,-0.3148741273428672,153.35596415425795,-1.3100714478631517) " y="-816.996178" x="565.381636" height="74.8283" width="49.618557"/>
   <rect id="svg_144" fill="yellow" fill-rule="evenodd" stroke-width="0.3" stroke-miterlimit="4" transform="matrix(0.6454718943911815,0,0.3729749611517396,-0.3148741273428672,153.35596415425795,-1.3100714478631517) " y="-816.995842" x="614.666886" height="74.8283" width="49.618557"/>
   <rect id="svg_145" fill="black" fill-rule="evenodd" stroke-width="0.3" stroke-miterlimit="4" transform="matrix(0.6454718943911815,0,0.3729749611517396,-0.3148741273428672,153.35596415425795,-1.3100714478631517) " y="-816.995842" x="664.282396" height="74.8283" width="49.618557"/>
   <rect id="svg_146" fill="yellow" fill-rule="evenodd" stroke-width="0.3" stroke-miterlimit="4" transform="matrix(0.6454718943911815,0,0.3729749611517396,-0.3148741273428672,153.35596415425795,-1.3100714478631517) " y="-816.995873" x="713.773996" height="74.8283" width="49.618557"/>
   <rect id="svg_147" fill="black" fill-rule="evenodd" stroke-width="0.3" stroke-miterlimit="4" transform="matrix(0.6454718943911815,0,0.3729749611517396,-0.3148741273428672,153.35596415425795,-1.3100714478631517) " y="-816.991082" x="763.394606" height="74.8283" width="49.618557"/>
   <rect id="svg_148" fill="yellow" fill-rule="evenodd" stroke-width="0.3" stroke-miterlimit="4" transform="matrix(0.6454718943911815,0,0.3729749611517396,-0.3148741273428672,153.35596415425795,-1.3100714478631517) " y="-816.966881" x="812.858716" height="74.8283" width="49.618557"/>
   <rect id="svg_149" fill="black" fill-rule="evenodd" stroke-width="0.3" stroke-miterlimit="4" transform="matrix(0.6454718943911815,0,0.3729749611517396,-0.3148741273428672,153.35596415425795,-1.3100714478631517) " y="-816.996171" x="862.558116" height="74.8283" width="49.618557"/>
   <rect id="svg_150" fill="yellow" fill-rule="evenodd" stroke-width="0.3" stroke-miterlimit="4" transform="matrix(0.6454718943911815,0,0.3729749611517396,-0.3148741273428672,153.35596415425795,-1.3100714478631517) " y="-816.995835" x="911.843396" height="74.8283" width="49.618557"/>
  </g>
  <g id="svg_151" transform="rotate(-90.44305419921875 287.4563598632813,241.1611328125) ">
   <rect id="svg_152" fill="black" fill-rule="evenodd" stroke-width="0.3" stroke-miterlimit="4" transform="matrix(0.6454718943911815,0,0.3729749611517396,-0.3148741273428672,153.35596415425795,-1.3100714478631517) " y="-807.504366" x="306.121637" height="74.8283" width="49.618557"/>
   <rect id="svg_153" fill="yellow" fill-rule="evenodd" stroke-width="0.3" stroke-miterlimit="4" transform="matrix(0.6454718943911815,0,0.3729749611517396,-0.3148741273428672,153.35596415425795,-1.3100714478631517) " y="-807.50403" x="355.406885" height="74.8283" width="49.618557"/>
   <rect id="svg_154" fill="black" fill-rule="evenodd" stroke-width="0.3" stroke-miterlimit="4" transform="matrix(0.6454718943911815,0,0.3729749611517396,-0.3148741273428672,153.35596415425795,-1.3100714478631517) " y="-807.50403" x="405.022411" height="74.8283" width="49.618557"/>
   <rect id="svg_155" fill="yellow" fill-rule="evenodd" stroke-width="0.3" stroke-miterlimit="4" transform="matrix(0.6454718943911815,0,0.3729749611517396,-0.3148741273428672,153.35596415425795,-1.3100714478631517) " y="-807.504061" x="454.514021" height="74.8283" width="49.618557"/>
   <rect id="svg_156" fill="black" fill-rule="evenodd" stroke-width="0.3" stroke-miterlimit="4" transform="matrix(0.6454718943911815,0,0.3729749611517396,-0.3148741273428672,153.35596415425795,-1.3100714478631517) " y="-807.499269" x="504.134611" height="74.8283" width="49.618557"/>
   <rect id="svg_157" fill="yellow" fill-rule="evenodd" stroke-width="0.3" stroke-miterlimit="4" transform="matrix(0.6454718943911815,0,0.3729749611517396,-0.3148741273428672,153.35596415425795,-1.3100714478631517) " y="-807.475069" x="553.598701" height="74.8283" width="49.618557"/>
   <rect id="svg_158" fill="black" fill-rule="evenodd" stroke-width="0.3" stroke-miterlimit="4" transform="matrix(0.6454718943911815,0,0.3729749611517396,-0.3148741273428672,153.35596415425795,-1.3100714478631517) " y="-807.468561" x="603.255381" height="74.8283" width="49.618557"/>
   <rect id="svg_159" fill="yellow" fill-rule="evenodd" stroke-width="0.3" stroke-miterlimit="4" transform="matrix(0.6454718943911815,0,0.3729749611517396,-0.3148741273428672,153.35596415425795,-1.3100714478631517) " y="-807.468225" x="652.540631" height="74.8283" width="49.618557"/>
   <rect id="svg_160" fill="black" fill-rule="evenodd" stroke-width="0.3" stroke-miterlimit="4" transform="matrix(0.6454718943911815,0,0.3729749611517396,-0.3148741273428672,153.35596415425795,-1.3100714478631517) " y="-807.468225" x="702.156141" height="74.8283" width="49.618557"/>
   <rect id="svg_161" fill="yellow" fill-rule="evenodd" stroke-width="0.3" stroke-miterlimit="4" transform="matrix(0.6454718943911815,0,0.3729749611517396,-0.3148741273428672,153.35596415425795,-1.3100714478631517) " y="-807.468256" x="751.647741" height="74.8283" width="49.618557"/>
   <rect id="svg_162" fill="black" fill-rule="evenodd" stroke-width="0.3" stroke-miterlimit="4" transform="matrix(0.6454718943911815,0,0.3729749611517396,-0.3148741273428672,153.35596415425795,-1.3100714478631517) " y="-807.463465" x="801.268351" height="74.8283" width="49.618557"/>
   <rect id="svg_163" fill="yellow" fill-rule="evenodd" stroke-width="0.3" stroke-miterlimit="4" transform="matrix(0.6454718943911815,0,0.3729749611517396,-0.3148741273428672,153.35596415425795,-1.3100714478631517) " y="-807.439264" x="850.732461" height="74.8283" width="49.618557"/>
   <rect id="svg_164" fill="black" fill-rule="evenodd" stroke-width="0.3" stroke-miterlimit="4" transform="matrix(0.6454718943911815,0,0.3729749611517396,-0.3148741273428672,153.35596415425795,-1.3100714478631517) " y="-807.468554" x="900.431861" height="74.8283" width="49.618557"/>
   <rect id="svg_165" fill="yellow" fill-rule="evenodd" stroke-width="0.3" stroke-miterlimit="4" transform="matrix(0.6454718943911815,0,0.3729749611517396,-0.3148741273428672,153.35596415425795,-1.3100714478631517) " y="-807.468218" x="949.717141" height="74.8283" width="49.618557"/>
  </g>
  <g id="svg_166" transform="rotate(-90.44305419921875 317.4563598632813,241.1611328125) ">
   <rect id="svg_167" fill="black" fill-rule="evenodd" stroke-width="0.3" stroke-miterlimit="4" transform="matrix(0.6454718943911815,0,0.3729749611517396,-0.3148741273428672,153.35596415425795,-1.3100714478631517) " y="-807.504366" x="352.599261" height="74.8283" width="49.618557"/>
   <rect id="svg_168" fill="yellow" fill-rule="evenodd" stroke-width="0.3" stroke-miterlimit="4" transform="matrix(0.6454718943911815,0,0.3729749611517396,-0.3148741273428672,153.35596415425795,-1.3100714478631517) " y="-807.50403" x="401.884509" height="74.8283" width="49.618557"/>
   <rect id="svg_169" fill="black" fill-rule="evenodd" stroke-width="0.3" stroke-miterlimit="4" transform="matrix(0.6454718943911815,0,0.3729749611517396,-0.3148741273428672,153.35596415425795,-1.3100714478631517) " y="-807.50403" x="451.500035" height="74.8283" width="49.618557"/>
   <rect id="svg_170" fill="yellow" fill-rule="evenodd" stroke-width="0.3" stroke-miterlimit="4" transform="matrix(0.6454718943911815,0,0.3729749611517396,-0.3148741273428672,153.35596415425795,-1.3100714478631517) " y="-807.504061" x="500.991645" height="74.8283" width="49.618557"/>
   <rect id="svg_171" fill="black" fill-rule="evenodd" stroke-width="0.3" stroke-miterlimit="4" transform="matrix(0.6454718943911815,0,0.3729749611517396,-0.3148741273428672,153.35596415425795,-1.3100714478631517) " y="-807.499269" x="550.612235" height="74.8283" width="49.618557"/>
   <rect id="svg_172" fill="yellow" fill-rule="evenodd" stroke-width="0.3" stroke-miterlimit="4" transform="matrix(0.6454718943911815,0,0.3729749611517396,-0.3148741273428672,153.35596415425795,-1.3100714478631517) " y="-807.475069" x="600.076325" height="74.8283" width="49.618557"/>
   <rect id="svg_173" fill="black" fill-rule="evenodd" stroke-width="0.3" stroke-miterlimit="4" transform="matrix(0.6454718943911815,0,0.3729749611517396,-0.3148741273428672,153.35596415425795,-1.3100714478631517) " y="-807.468561" x="649.733005" height="74.8283" width="49.618557"/>
   <rect id="svg_174" fill="yellow" fill-rule="evenodd" stroke-width="0.3" stroke-miterlimit="4" transform="matrix(0.6454718943911815,0,0.3729749611517396,-0.3148741273428672,153.35596415425795,-1.3100714478631517) " y="-807.468225" x="699.018255" height="74.8283" width="49.618557"/>
   <rect id="svg_175" fill="black" fill-rule="evenodd" stroke-width="0.3" stroke-miterlimit="4" transform="matrix(0.6454718943911815,0,0.3729749611517396,-0.3148741273428672,153.35596415425795,-1.3100714478631517) " y="-807.468225" x="748.633765" height="74.8283" width="49.618557"/>
   <rect id="svg_176" fill="yellow" fill-rule="evenodd" stroke-width="0.3" stroke-miterlimit="4" transform="matrix(0.6454718943911815,0,0.3729749611517396,-0.3148741273428672,153.35596415425795,-1.3100714478631517) " y="-807.468256" x="798.125365" height="74.8283" width="49.618557"/>
   <rect id="svg_177" fill="black" fill-rule="evenodd" stroke-width="0.3" stroke-miterlimit="4" transform="matrix(0.6454718943911815,0,0.3729749611517396,-0.3148741273428672,153.35596415425795,-1.3100714478631517) " y="-807.463465" x="847.745975" height="74.8283" width="49.618557"/>
   <rect id="svg_178" fill="yellow" fill-rule="evenodd" stroke-width="0.3" stroke-miterlimit="4" transform="matrix(0.6454718943911815,0,0.3729749611517396,-0.3148741273428672,153.35596415425795,-1.3100714478631517) " y="-807.439264" x="897.210085" height="74.8283" width="49.618557"/>
   <rect id="svg_179" fill="black" fill-rule="evenodd" stroke-width="0.3" stroke-miterlimit="4" transform="matrix(0.6454718943911815,0,0.3729749611517396,-0.3148741273428672,153.35596415425795,-1.3100714478631517) " y="-807.468554" x="946.909485" height="74.8283" width="49.618557"/>
   <rect id="svg_180" fill="yellow" fill-rule="evenodd" stroke-width="0.3" stroke-miterlimit="4" transform="matrix(0.6454718943911815,0,0.3729749611517396,-0.3148741273428672,153.35596415425795,-1.3100714478631517) " y="-807.468218" x="996.194765" height="74.8283" width="49.618557"/>
  </g>
  <g id="svg_181" transform="rotate(-90.44305419921875 347.4563598632813,244.16113281250006) ">
   <rect id="svg_182" fill="black" fill-rule="evenodd" stroke-width="0.3" stroke-miterlimit="4" transform="matrix(0.6454718943911815,0,0.3729749611517396,-0.3148741273428672,153.35596415425795,-1.3100714478631517) " y="-817.031983" x="404.582256" height="74.8283" width="49.618557"/>
   <rect id="svg_183" fill="yellow" fill-rule="evenodd" stroke-width="0.3" stroke-miterlimit="4" transform="matrix(0.6454718943911815,0,0.3729749611517396,-0.3148741273428672,153.35596415425795,-1.3100714478631517) " y="-817.031647" x="453.867504" height="74.8283" width="49.618557"/>
   <rect id="svg_184" fill="black" fill-rule="evenodd" stroke-width="0.3" stroke-miterlimit="4" transform="matrix(0.6454718943911815,0,0.3729749611517396,-0.3148741273428672,153.35596415425795,-1.3100714478631517) " y="-817.031647" x="503.48303" height="74.8283" width="49.618557"/>
   <rect id="svg_185" fill="yellow" fill-rule="evenodd" stroke-width="0.3" stroke-miterlimit="4" transform="matrix(0.6454718943911815,0,0.3729749611517396,-0.3148741273428672,153.35596415425795,-1.3100714478631517) " y="-817.031678" x="552.97464" height="74.8283" width="49.618557"/>
   <rect id="svg_186" fill="black" fill-rule="evenodd" stroke-width="0.3" stroke-miterlimit="4" transform="matrix(0.6454718943911815,0,0.3729749611517396,-0.3148741273428672,153.35596415425795,-1.3100714478631517) " y="-817.026886" x="602.59523" height="74.8283" width="49.618557"/>
   <rect id="svg_187" fill="yellow" fill-rule="evenodd" stroke-width="0.3" stroke-miterlimit="4" transform="matrix(0.6454718943911815,0,0.3729749611517396,-0.3148741273428672,153.35596415425795,-1.3100714478631517) " y="-817.002686" x="652.05932" height="74.8283" width="49.618557"/>
   <rect id="svg_188" fill="black" fill-rule="evenodd" stroke-width="0.3" stroke-miterlimit="4" transform="matrix(0.6454718943911815,0,0.3729749611517396,-0.3148741273428672,153.35596415425795,-1.3100714478631517) " y="-816.996178" x="701.716" height="74.8283" width="49.618557"/>
   <rect id="svg_189" fill="yellow" fill-rule="evenodd" stroke-width="0.3" stroke-miterlimit="4" transform="matrix(0.6454718943911815,0,0.3729749611517396,-0.3148741273428672,153.35596415425795,-1.3100714478631517) " y="-816.995842" x="751.00125" height="74.8283" width="49.618557"/>
   <rect id="svg_190" fill="black" fill-rule="evenodd" stroke-width="0.3" stroke-miterlimit="4" transform="matrix(0.6454718943911815,0,0.3729749611517396,-0.3148741273428672,153.35596415425795,-1.3100714478631517) " y="-816.995842" x="800.61676" height="74.8283" width="49.618557"/>
   <rect id="svg_191" fill="yellow" fill-rule="evenodd" stroke-width="0.3" stroke-miterlimit="4" transform="matrix(0.6454718943911815,0,0.3729749611517396,-0.3148741273428672,153.35596415425795,-1.3100714478631517) " y="-816.995873" x="850.10836" height="74.8283" width="49.618557"/>
   <rect id="svg_192" fill="black" fill-rule="evenodd" stroke-width="0.3" stroke-miterlimit="4" transform="matrix(0.6454718943911815,0,0.3729749611517396,-0.3148741273428672,153.35596415425795,-1.3100714478631517) " y="-816.991082" x="899.72897" height="74.8283" width="49.618557"/>
   <rect id="svg_193" fill="yellow" fill-rule="evenodd" stroke-width="0.3" stroke-miterlimit="4" transform="matrix(0.6454718943911815,0,0.3729749611517396,-0.3148741273428672,153.35596415425795,-1.3100714478631517) " y="-816.966881" x="949.19308" height="74.8283" width="49.618557"/>
   <rect id="svg_194" fill="black" fill-rule="evenodd" stroke-width="0.3" stroke-miterlimit="4" transform="matrix(0.6454718943911815,0,0.3729749611517396,-0.3148741273428672,153.35596415425795,-1.3100714478631517) " y="-816.996171" x="998.89248" height="74.8283" width="49.618557"/>
   <rect id="svg_195" fill="yellow" fill-rule="evenodd" stroke-width="0.3" stroke-miterlimit="4" transform="matrix(0.6454718943911815,0,0.3729749611517396,-0.3148741273428672,153.35596415425795,-1.3100714478631517) " y="-816.995835" x="1048.17776" height="74.8283" width="49.618557"/>
  </g>
  <g id="svg_196" transform="rotate(-90.44305419921875 377.4563598632812,243.16113281249994) ">
   <rect id="svg_197" fill="black" fill-rule="evenodd" stroke-width="0.3" stroke-miterlimit="4" transform="matrix(0.6454718943911815,0,0.3729749611517396,-0.3148741273428672,153.35596415425795,-1.3100714478631517) " y="-813.85611" x="449.224756" height="74.8283" width="49.618557"/>
   <rect id="svg_198" fill="yellow" fill-rule="evenodd" stroke-width="0.3" stroke-miterlimit="4" transform="matrix(0.6454718943911815,0,0.3729749611517396,-0.3148741273428672,153.35596415425795,-1.3100714478631517) " y="-813.855774" x="498.510004" height="74.8283" width="49.618557"/>
   <rect id="svg_199" fill="black" fill-rule="evenodd" stroke-width="0.3" stroke-miterlimit="4" transform="matrix(0.6454718943911815,0,0.3729749611517396,-0.3148741273428672,153.35596415425795,-1.3100714478631517) " y="-813.855774" x="548.12553" height="74.8283" width="49.618557"/>
   <rect id="svg_200" fill="yellow" fill-rule="evenodd" stroke-width="0.3" stroke-miterlimit="4" transform="matrix(0.6454718943911815,0,0.3729749611517396,-0.3148741273428672,153.35596415425795,-1.3100714478631517) " y="-813.855805" x="597.61714" height="74.8283" width="49.618557"/>
   <rect id="svg_201" fill="black" fill-rule="evenodd" stroke-width="0.3" stroke-miterlimit="4" transform="matrix(0.6454718943911815,0,0.3729749611517396,-0.3148741273428672,153.35596415425795,-1.3100714478631517) " y="-813.851013" x="647.23773" height="74.8283" width="49.618557"/>
   <rect id="svg_202" fill="yellow" fill-rule="evenodd" stroke-width="0.3" stroke-miterlimit="4" transform="matrix(0.6454718943911815,0,0.3729749611517396,-0.3148741273428672,153.35596415425795,-1.3100714478631517) " y="-813.826813" x="696.70182" height="74.8283" width="49.618557"/>
   <rect id="svg_203" fill="black" fill-rule="evenodd" stroke-width="0.3" stroke-miterlimit="4" transform="matrix(0.6454718943911815,0,0.3729749611517396,-0.3148741273428672,153.35596415425795,-1.3100714478631517) " y="-813.820305" x="746.3585" height="74.8283" width="49.618557"/>
   <rect id="svg_204" fill="yellow" fill-rule="evenodd" stroke-width="0.3" stroke-miterlimit="4" transform="matrix(0.6454718943911815,0,0.3729749611517396,-0.3148741273428672,153.35596415425795,-1.3100714478631517) " y="-813.819969" x="795.64375" height="74.8283" width="49.618557"/>
   <rect id="svg_205" fill="black" fill-rule="evenodd" stroke-width="0.3" stroke-miterlimit="4" transform="matrix(0.6454718943911815,0,0.3729749611517396,-0.3148741273428672,153.35596415425795,-1.3100714478631517) " y="-813.819969" x="845.25926" height="74.8283" width="49.618557"/>
   <rect id="svg_206" fill="yellow" fill-rule="evenodd" stroke-width="0.3" stroke-miterlimit="4" transform="matrix(0.6454718943911815,0,0.3729749611517396,-0.3148741273428672,153.35596415425795,-1.3100714478631517) " y="-813.82" x="894.75086" height="74.8283" width="49.618557"/>
   <rect id="svg_207" fill="black" fill-rule="evenodd" stroke-width="0.3" stroke-miterlimit="4" transform="matrix(0.6454718943911815,0,0.3729749611517396,-0.3148741273428672,153.35596415425795,-1.3100714478631517) " y="-813.815209" x="944.37147" height="74.8283" width="49.618557"/>
   <rect id="svg_208" fill="yellow" fill-rule="evenodd" stroke-width="0.3" stroke-miterlimit="4" transform="matrix(0.6454718943911815,0,0.3729749611517396,-0.3148741273428672,153.35596415425795,-1.3100714478631517) " y="-813.791008" x="993.83558" height="74.8283" width="49.618557"/>
   <rect id="svg_209" fill="black" fill-rule="evenodd" stroke-width="0.3" stroke-miterlimit="4" transform="matrix(0.6454718943911815,0,0.3729749611517396,-0.3148741273428672,153.35596415425795,-1.3100714478631517) " y="-813.820298" x="1043.53498" height="74.8283" width="49.618557"/>
   <rect id="svg_210" fill="yellow" fill-rule="evenodd" stroke-width="0.3" stroke-miterlimit="4" transform="matrix(0.6454718943911815,0,0.3729749611517396,-0.3148741273428672,153.35596415425795,-1.3100714478631517) " y="-813.819962" x="1092.82026" height="74.8283" width="49.618557"/>
  </g>
  <g id="svg_211" transform="rotate(-90.44305419921875 407.4563598632813,241.16113281250006) ">
   <rect id="svg_212" fill="black" fill-rule="evenodd" stroke-width="0.3" stroke-miterlimit="4" transform="matrix(0.6454718943911815,0,0.3729749611517396,-0.3148741273428672,153.35596415425795,-1.3100714478631517) " y="-807.504366" x="492.032133" height="74.8283" width="49.618557"/>
   <rect id="svg_213" fill="yellow" fill-rule="evenodd" stroke-width="0.3" stroke-miterlimit="4" transform="matrix(0.6454718943911815,0,0.3729749611517396,-0.3148741273428672,153.35596415425795,-1.3100714478631517) " y="-807.50403" x="541.317381" height="74.8283" width="49.618557"/>
   <rect id="svg_214" fill="black" fill-rule="evenodd" stroke-width="0.3" stroke-miterlimit="4" transform="matrix(0.6454718943911815,0,0.3729749611517396,-0.3148741273428672,153.35596415425795,-1.3100714478631517) " y="-807.50403" x="590.932907" height="74.8283" width="49.618557"/>
   <rect id="svg_215" fill="yellow" fill-rule="evenodd" stroke-width="0.3" stroke-miterlimit="4" transform="matrix(0.6454718943911815,0,0.3729749611517396,-0.3148741273428672,153.35596415425795,-1.3100714478631517) " y="-807.504061" x="640.424517" height="74.8283" width="49.618557"/>
   <rect id="svg_216" fill="black" fill-rule="evenodd" stroke-width="0.3" stroke-miterlimit="4" transform="matrix(0.6454718943911815,0,0.3729749611517396,-0.3148741273428672,153.35596415425795,-1.3100714478631517) " y="-807.499269" x="690.045107" height="74.8283" width="49.618557"/>
   <rect id="svg_217" fill="yellow" fill-rule="evenodd" stroke-width="0.3" stroke-miterlimit="4" transform="matrix(0.6454718943911815,0,0.3729749611517396,-0.3148741273428672,153.35596415425795,-1.3100714478631517) " y="-807.475069" x="739.509197" height="74.8283" width="49.618557"/>
   <rect id="svg_218" fill="black" fill-rule="evenodd" stroke-width="0.3" stroke-miterlimit="4" transform="matrix(0.6454718943911815,0,0.3729749611517396,-0.3148741273428672,153.35596415425795,-1.3100714478631517) " y="-807.468561" x="789.165877" height="74.8283" width="49.618557"/>
   <rect id="svg_219" fill="yellow" fill-rule="evenodd" stroke-width="0.3" stroke-miterlimit="4" transform="matrix(0.6454718943911815,0,0.3729749611517396,-0.3148741273428672,153.35596415425795,-1.3100714478631517) " y="-807.468225" x="838.451127" height="74.8283" width="49.618557"/>
   <rect id="svg_220" fill="black" fill-rule="evenodd" stroke-width="0.3" stroke-miterlimit="4" transform="matrix(0.6454718943911815,0,0.3729749611517396,-0.3148741273428672,153.35596415425795,-1.3100714478631517) " y="-807.468225" x="888.066637" height="74.8283" width="49.618557"/>
   <rect id="svg_221" fill="yellow" fill-rule="evenodd" stroke-width="0.3" stroke-miterlimit="4" transform="matrix(0.6454718943911815,0,0.3729749611517396,-0.3148741273428672,153.35596415425795,-1.3100714478631517) " y="-807.468256" x="937.558237" height="74.8283" width="49.618557"/>
   <rect id="svg_222" fill="black" fill-rule="evenodd" stroke-width="0.3" stroke-miterlimit="4" transform="matrix(0.6454718943911815,0,0.3729749611517396,-0.3148741273428672,153.35596415425795,-1.3100714478631517) " y="-807.463465" x="987.178847" height="74.8283" width="49.618557"/>
   <rect id="svg_223" fill="yellow" fill-rule="evenodd" stroke-width="0.3" stroke-miterlimit="4" transform="matrix(0.6454718943911815,0,0.3729749611517396,-0.3148741273428672,153.35596415425795,-1.3100714478631517) " y="-807.439264" x="1036.642957" height="74.8283" width="49.618557"/>
   <rect id="svg_224" fill="black" fill-rule="evenodd" stroke-width="0.3" stroke-miterlimit="4" transform="matrix(0.6454718943911815,0,0.3729749611517396,-0.3148741273428672,153.35596415425795,-1.3100714478631517) " y="-807.468554" x="1086.342357" height="74.8283" width="49.618557"/>
   <rect id="svg_225" fill="yellow" fill-rule="evenodd" stroke-width="0.3" stroke-miterlimit="4" transform="matrix(0.6454718943911815,0,0.3729749611517396,-0.3148741273428672,153.35596415425795,-1.3100714478631517) " y="-807.468218" x="1135.627637" height="74.8283" width="49.618557"/>
  </g>
  <g id="svg_226" transform="rotate(-90.44305419921875 449.4596557617188,240.08375549316403) ">
   <rect id="svg_227" fill="black" fill-rule="evenodd" stroke-width="0.3" stroke-miterlimit="4" transform="matrix(0.6454718943911815,0,0.3729749611517396,-0.5820153628993137,153.35596415425795,-196.17226009898735) " y="-787.007692" x="545.262222" height="74.8283" width="49.618557"/>
   <rect id="svg_228" fill="yellow" fill-rule="evenodd" stroke-width="0.3" stroke-miterlimit="4" transform="matrix(0.6454718943911815,0,0.3729749611517396,-0.5820153628993137,153.35596415425795,-196.17226009898735) " y="-787.007356" x="594.54747" height="74.8283" width="49.618557"/>
   <rect id="svg_229" fill="black" fill-rule="evenodd" stroke-width="0.3" stroke-miterlimit="4" transform="matrix(0.6454718943911815,0,0.3729749611517396,-0.5820153628993137,153.35596415425795,-196.17226009898735) " y="-787.007356" x="644.162996" height="74.8283" width="49.618557"/>
   <rect id="svg_230" fill="yellow" fill-rule="evenodd" stroke-width="0.3" stroke-miterlimit="4" transform="matrix(0.6454718943911815,0,0.3729749611517396,-0.5820153628993137,153.35596415425795,-196.17226009898735) " y="-787.007387" x="693.654606" height="74.8283" width="49.618557"/>
   <rect id="svg_231" fill="black" fill-rule="evenodd" stroke-width="0.3" stroke-miterlimit="4" transform="matrix(0.6454718943911815,0,0.3729749611517396,-0.5820153628993137,153.35596415425795,-196.17226009898735) " y="-787.002595" x="743.275196" height="74.8283" width="49.618557"/>
   <rect id="svg_232" fill="yellow" fill-rule="evenodd" stroke-width="0.3" stroke-miterlimit="4" transform="matrix(0.6454718943911815,0,0.3729749611517396,-0.5820153628993137,153.35596415425795,-196.17226009898735) " y="-786.978395" x="792.739286" height="74.8283" width="49.618557"/>
   <rect id="svg_233" fill="black" fill-rule="evenodd" stroke-width="0.3" stroke-miterlimit="4" transform="matrix(0.6454718943911815,0,0.3729749611517396,-0.5820153628993137,153.35596415425795,-196.17226009898735) " y="-786.971887" x="842.395966" height="74.8283" width="49.618557"/>
   <rect id="svg_234" fill="yellow" fill-rule="evenodd" stroke-width="0.3" stroke-miterlimit="4" transform="matrix(0.6454718943911815,0,0.3729749611517396,-0.5820153628993137,153.35596415425795,-196.17226009898735) " y="-786.971551" x="891.681216" height="74.8283" width="49.618557"/>
   <rect id="svg_235" fill="black" fill-rule="evenodd" stroke-width="0.3" stroke-miterlimit="4" transform="matrix(0.6454718943911815,0,0.3729749611517396,-0.5820153628993137,153.35596415425795,-196.17226009898735) " y="-786.971551" x="941.296726" height="74.8283" width="49.618557"/>
   <rect id="svg_236" fill="yellow" fill-rule="evenodd" stroke-width="0.3" stroke-miterlimit="4" transform="matrix(0.6454718943911815,0,0.3729749611517396,-0.5820153628993137,153.35596415425795,-196.17226009898735) " y="-786.971582" x="990.788326" height="74.8283" width="49.618557"/>
   <rect id="svg_237" fill="black" fill-rule="evenodd" stroke-width="0.3" stroke-miterlimit="4" transform="matrix(0.6454718943911815,0,0.3729749611517396,-0.5820153628993137,153.35596415425795,-196.17226009898735) " y="-786.966791" x="1040.408936" height="74.8283" width="49.618557"/>
   <rect id="svg_238" fill="yellow" fill-rule="evenodd" stroke-width="0.3" stroke-miterlimit="4" transform="matrix(0.6454718943911815,0,0.3729749611517396,-0.5820153628993137,153.35596415425795,-196.17226009898735) " y="-786.94259" x="1089.873046" height="74.8283" width="49.618557"/>
   <rect id="svg_239" fill="black" fill-rule="evenodd" stroke-width="0.3" stroke-miterlimit="4" transform="matrix(0.6454718943911815,0,0.3729749611517396,-0.5820153628993137,153.35596415425795,-196.17226009898735) " y="-786.97188" x="1139.572446" height="74.8283" width="49.618557"/>
   <rect id="svg_240" fill="yellow" fill-rule="evenodd" stroke-width="0.3" stroke-miterlimit="4" transform="matrix(0.6454718943911815,0,0.3729749611517396,-0.5820153628993137,153.35596415425795,-196.17226009898735) " y="-786.971544" x="1188.857726" height="74.8283" width="49.618557"/>
  </g>
  <g id="svg_241" transform="rotate(-90.44305419921875 501.4596557617188,242.083740234375) ">
   <rect id="svg_242" fill="black" fill-rule="evenodd" stroke-width="0.3" stroke-miterlimit="4" transform="matrix(0.6454718943911815,0,0.3729749611517396,-0.5820153628993137,153.35596415425795,-196.17226009898735) " y="-790.444027" x="627.809065" height="74.8283" width="49.618557"/>
   <rect id="svg_243" fill="yellow" fill-rule="evenodd" stroke-width="0.3" stroke-miterlimit="4" transform="matrix(0.6454718943911815,0,0.3729749611517396,-0.5820153628993137,153.35596415425795,-196.17226009898735) " y="-790.443691" x="677.094313" height="74.8283" width="49.618557"/>
   <rect id="svg_244" fill="black" fill-rule="evenodd" stroke-width="0.3" stroke-miterlimit="4" transform="matrix(0.6454718943911815,0,0.3729749611517396,-0.5820153628993137,153.35596415425795,-196.17226009898735) " y="-790.443691" x="726.709839" height="74.8283" width="49.618557"/>
   <rect id="svg_245" fill="yellow" fill-rule="evenodd" stroke-width="0.3" stroke-miterlimit="4" transform="matrix(0.6454718943911815,0,0.3729749611517396,-0.5820153628993137,153.35596415425795,-196.17226009898735) " y="-790.443722" x="776.201449" height="74.8283" width="49.618557"/>
   <rect id="svg_246" fill="black" fill-rule="evenodd" stroke-width="0.3" stroke-miterlimit="4" transform="matrix(0.6454718943911815,0,0.3729749611517396,-0.5820153628993137,153.35596415425795,-196.17226009898735) " y="-790.43893" x="825.822039" height="74.8283" width="49.618557"/>
   <rect id="svg_247" fill="yellow" fill-rule="evenodd" stroke-width="0.3" stroke-miterlimit="4" transform="matrix(0.6454718943911815,0,0.3729749611517396,-0.5820153628993137,153.35596415425795,-196.17226009898735) " y="-790.41473" x="875.286129" height="74.8283" width="49.618557"/>
   <rect id="svg_248" fill="black" fill-rule="evenodd" stroke-width="0.3" stroke-miterlimit="4" transform="matrix(0.6454718943911815,0,0.3729749611517396,-0.5820153628993137,153.35596415425795,-196.17226009898735) " y="-790.408222" x="924.942809" height="74.8283" width="49.618557"/>
   <rect id="svg_249" fill="yellow" fill-rule="evenodd" stroke-width="0.3" stroke-miterlimit="4" transform="matrix(0.6454718943911815,0,0.3729749611517396,-0.5820153628993137,153.35596415425795,-196.17226009898735) " y="-790.407886" x="974.228059" height="74.8283" width="49.618557"/>
   <rect id="svg_250" fill="black" fill-rule="evenodd" stroke-width="0.3" stroke-miterlimit="4" transform="matrix(0.6454718943911815,0,0.3729749611517396,-0.5820153628993137,153.35596415425795,-196.17226009898735) " y="-790.407886" x="1023.843569" height="74.8283" width="49.618557"/>
   <rect id="svg_251" fill="yellow" fill-rule="evenodd" stroke-width="0.3" stroke-miterlimit="4" transform="matrix(0.6454718943911815,0,0.3729749611517396,-0.5820153628993137,153.35596415425795,-196.17226009898735) " y="-790.407917" x="1073.335169" height="74.8283" width="49.618557"/>
   <rect id="svg_252" fill="black" fill-rule="evenodd" stroke-width="0.3" stroke-miterlimit="4" transform="matrix(0.6454718943911815,0,0.3729749611517396,-0.5820153628993137,153.35596415425795,-196.17226009898735) " y="-790.403126" x="1122.955779" height="74.8283" width="49.618557"/>
   <rect id="svg_253" fill="yellow" fill-rule="evenodd" stroke-width="0.3" stroke-miterlimit="4" transform="matrix(0.6454718943911815,0,0.3729749611517396,-0.5820153628993137,153.35596415425795,-196.17226009898735) " y="-790.378925" x="1172.419889" height="74.8283" width="49.618557"/>
   <rect id="svg_254" fill="black" fill-rule="evenodd" stroke-width="0.3" stroke-miterlimit="4" transform="matrix(0.6454718943911815,0,0.3729749611517396,-0.5820153628993137,153.35596415425795,-196.17226009898735) " y="-790.408215" x="1222.119289" height="74.8283" width="49.618557"/>
   <rect id="svg_255" fill="yellow" fill-rule="evenodd" stroke-width="0.3" stroke-miterlimit="4" transform="matrix(0.6454718943911815,0,0.3729749611517396,-0.5820153628993137,153.35596415425795,-196.17226009898735) " y="-790.407879" x="1271.404569" height="74.8283" width="49.618557"/>
  </g>
  <g id="svg_256" transform="rotate(-90.44305419921875 552.4596557617188,241.08374023437497) ">
   <rect id="svg_257" fill="black" fill-rule="evenodd" stroke-width="0.3" stroke-miterlimit="4" transform="matrix(0.6454718943911815,0,0.3729749611517396,-0.5820153628993137,153.35596415425795,-196.17226009898735) " y="-788.72586" x="705.828212" height="74.8283" width="49.618557"/>
   <rect id="svg_258" fill="yellow" fill-rule="evenodd" stroke-width="0.3" stroke-miterlimit="4" transform="matrix(0.6454718943911815,0,0.3729749611517396,-0.5820153628993137,153.35596415425795,-196.17226009898735) " y="-788.725524" x="755.11346" height="74.8283" width="49.618557"/>
   <rect id="svg_259" fill="black" fill-rule="evenodd" stroke-width="0.3" stroke-miterlimit="4" transform="matrix(0.6454718943911815,0,0.3729749611517396,-0.5820153628993137,153.35596415425795,-196.17226009898735) " y="-788.725524" x="804.728986" height="74.8283" width="49.618557"/>
   <rect id="svg_260" fill="yellow" fill-rule="evenodd" stroke-width="0.3" stroke-miterlimit="4" transform="matrix(0.6454718943911815,0,0.3729749611517396,-0.5820153628993137,153.35596415425795,-196.17226009898735) " y="-788.725555" x="854.220596" height="74.8283" width="49.618557"/>
   <rect id="svg_261" fill="black" fill-rule="evenodd" stroke-width="0.3" stroke-miterlimit="4" transform="matrix(0.6454718943911815,0,0.3729749611517396,-0.5820153628993137,153.35596415425795,-196.17226009898735) " y="-788.720763" x="903.841186" height="74.8283" width="49.618557"/>
   <rect id="svg_262" fill="yellow" fill-rule="evenodd" stroke-width="0.3" stroke-miterlimit="4" transform="matrix(0.6454718943911815,0,0.3729749611517396,-0.5820153628993137,153.35596415425795,-196.17226009898735) " y="-788.696563" x="953.305276" height="74.8283" width="49.618557"/>
   <rect id="svg_263" fill="black" fill-rule="evenodd" stroke-width="0.3" stroke-miterlimit="4" transform="matrix(0.6454718943911815,0,0.3729749611517396,-0.5820153628993137,153.35596415425795,-196.17226009898735) " y="-788.690055" x="1002.961956" height="74.8283" width="49.618557"/>
   <rect id="svg_264" fill="yellow" fill-rule="evenodd" stroke-width="0.3" stroke-miterlimit="4" transform="matrix(0.6454718943911815,0,0.3729749611517396,-0.5820153628993137,153.35596415425795,-196.17226009898735) " y="-788.689719" x="1052.247206" height="74.8283" width="49.618557"/>
   <rect id="svg_265" fill="black" fill-rule="evenodd" stroke-width="0.3" stroke-miterlimit="4" transform="matrix(0.6454718943911815,0,0.3729749611517396,-0.5820153628993137,153.35596415425795,-196.17226009898735) " y="-788.689719" x="1101.862716" height="74.8283" width="49.618557"/>
   <rect id="svg_266" fill="yellow" fill-rule="evenodd" stroke-width="0.3" stroke-miterlimit="4" transform="matrix(0.6454718943911815,0,0.3729749611517396,-0.5820153628993137,153.35596415425795,-196.17226009898735) " y="-788.68975" x="1151.354316" height="74.8283" width="49.618557"/>
   <rect id="svg_267" fill="black" fill-rule="evenodd" stroke-width="0.3" stroke-miterlimit="4" transform="matrix(0.6454718943911815,0,0.3729749611517396,-0.5820153628993137,153.35596415425795,-196.17226009898735) " y="-788.684959" x="1200.974926" height="74.8283" width="49.618557"/>
   <rect id="svg_268" fill="yellow" fill-rule="evenodd" stroke-width="0.3" stroke-miterlimit="4" transform="matrix(0.6454718943911815,0,0.3729749611517396,-0.5820153628993137,153.35596415425795,-196.17226009898735) " y="-788.660758" x="1250.439036" height="74.8283" width="49.618557"/>
   <rect id="svg_269" fill="black" fill-rule="evenodd" stroke-width="0.3" stroke-miterlimit="4" transform="matrix(0.6454718943911815,0,0.3729749611517396,-0.5820153628993137,153.35596415425795,-196.17226009898735) " y="-788.690048" x="1300.138436" height="74.8283" width="49.618557"/>
   <rect id="svg_270" fill="yellow" fill-rule="evenodd" stroke-width="0.3" stroke-miterlimit="4" transform="matrix(0.6454718943911815,0,0.3729749611517396,-0.5820153628993137,153.35596415425795,-196.17226009898735) " y="-788.689712" x="1349.423716" height="74.8283" width="49.618557"/>
  </g>
  <g id="svg_271" transform="rotate(-90.44305419921875 602.4596557617188,242.08374023437497) ">
   <rect id="svg_272" fill="black" fill-rule="evenodd" stroke-width="0.3" stroke-miterlimit="4" transform="matrix(0.6454718943911815,0,0.3729749611517396,-0.5820153628993137,153.35596415425795,-196.17226009898735) " y="-790.444027" x="784.283733" height="74.8283" width="49.618557"/>
   <rect id="svg_273" fill="yellow" fill-rule="evenodd" stroke-width="0.3" stroke-miterlimit="4" transform="matrix(0.6454718943911815,0,0.3729749611517396,-0.5820153628993137,153.35596415425795,-196.17226009898735) " y="-790.443691" x="833.568981" height="74.8283" width="49.618557"/>
   <rect id="svg_274" fill="black" fill-rule="evenodd" stroke-width="0.3" stroke-miterlimit="4" transform="matrix(0.6454718943911815,0,0.3729749611517396,-0.5820153628993137,153.35596415425795,-196.17226009898735) " y="-790.443691" x="883.184507" height="74.8283" width="49.618557"/>
   <rect id="svg_275" fill="yellow" fill-rule="evenodd" stroke-width="0.3" stroke-miterlimit="4" transform="matrix(0.6454718943911815,0,0.3729749611517396,-0.5820153628993137,153.35596415425795,-196.17226009898735) " y="-790.443722" x="932.676117" height="74.8283" width="49.618557"/>
   <rect id="svg_276" fill="black" fill-rule="evenodd" stroke-width="0.3" stroke-miterlimit="4" transform="matrix(0.6454718943911815,0,0.3729749611517396,-0.5820153628993137,153.35596415425795,-196.17226009898735) " y="-790.43893" x="982.296707" height="74.8283" width="49.618557"/>
   <rect id="svg_277" fill="yellow" fill-rule="evenodd" stroke-width="0.3" stroke-miterlimit="4" transform="matrix(0.6454718943911815,0,0.3729749611517396,-0.5820153628993137,153.35596415425795,-196.17226009898735) " y="-790.41473" x="1031.760797" height="74.8283" width="49.618557"/>
   <rect id="svg_278" fill="black" fill-rule="evenodd" stroke-width="0.3" stroke-miterlimit="4" transform="matrix(0.6454718943911815,0,0.3729749611517396,-0.5820153628993137,153.35596415425795,-196.17226009898735) " y="-790.408222" x="1081.417477" height="74.8283" width="49.618557"/>
   <rect id="svg_279" fill="yellow" fill-rule="evenodd" stroke-width="0.3" stroke-miterlimit="4" transform="matrix(0.6454718943911815,0,0.3729749611517396,-0.5820153628993137,153.35596415425795,-196.17226009898735) " y="-790.407886" x="1130.702727" height="74.8283" width="49.618557"/>
   <rect id="svg_280" fill="black" fill-rule="evenodd" stroke-width="0.3" stroke-miterlimit="4" transform="matrix(0.6454718943911815,0,0.3729749611517396,-0.5820153628993137,153.35596415425795,-196.17226009898735) " y="-790.407886" x="1180.318237" height="74.8283" width="49.618557"/>
   <rect id="svg_281" fill="yellow" fill-rule="evenodd" stroke-width="0.3" stroke-miterlimit="4" transform="matrix(0.6454718943911815,0,0.3729749611517396,-0.5820153628993137,153.35596415425795,-196.17226009898735) " y="-790.407917" x="1229.809837" height="74.8283" width="49.618557"/>
   <rect id="svg_282" fill="black" fill-rule="evenodd" stroke-width="0.3" stroke-miterlimit="4" transform="matrix(0.6454718943911815,0,0.3729749611517396,-0.5820153628993137,153.35596415425795,-196.17226009898735) " y="-790.403126" x="1279.430447" height="74.8283" width="49.618557"/>
   <rect id="svg_283" fill="yellow" fill-rule="evenodd" stroke-width="0.3" stroke-miterlimit="4" transform="matrix(0.6454718943911815,0,0.3729749611517396,-0.5820153628993137,153.35596415425795,-196.17226009898735) " y="-790.378925" x="1328.894557" height="74.8283" width="49.618557"/>
   <rect id="svg_284" fill="black" fill-rule="evenodd" stroke-width="0.3" stroke-miterlimit="4" transform="matrix(0.6454718943911815,0,0.3729749611517396,-0.5820153628993137,153.35596415425795,-196.17226009898735) " y="-790.408215" x="1378.593957" height="74.8283" width="49.618557"/>
   <rect id="svg_285" fill="yellow" fill-rule="evenodd" stroke-width="0.3" stroke-miterlimit="4" transform="matrix(0.6454718943911815,0,0.3729749611517396,-0.5820153628993137,153.35596415425795,-196.17226009898735) " y="-790.407879" x="1427.879237" height="74.8283" width="49.618557"/>
  </g>
 </g>
</svg>