<?xml version="1.0" encoding="UTF-8" ?>
<!DOCTYPE svg PUBLIC "-//W3C//DTD SVG 1.1//EN" "http://www.w3.org/Graphics/SVG/1.1/DTD/svg11.dtd">
<svg width="1680px" height="1680px" viewBox="0 0 400 400" version="1.1" xmlns="http://www.w3.org/2000/svg">
<path fill="#ffffff" d=" M 0.00 0.00 L 400.00 0.00 L 400.00 400.00 L 0.00 400.00 L 0.00 0.00 Z" />
<path fill="#030303" d=" M 176.78 14.28 C 178.62 12.50 181.51 12.31 183.25 14.35 C 181.12 15.13 178.89 15.12 176.78 14.28 Z" />
<path fill="#030303" d=" M 184.48 14.13 C 186.81 12.07 189.04 14.40 190.80 16.04 C 192.80 18.92 191.43 22.22 190.72 25.26 C 190.20 25.21 189.14 25.11 188.61 25.06 C 189.09 23.14 189.52 21.21 189.70 19.25 C 188.87 18.00 188.14 16.68 187.42 15.36 C 186.69 15.05 185.22 14.44 184.48 14.13 Z" />
<path fill="#030303" d=" M 160.78 17.42 C 163.13 15.85 166.03 16.18 168.63 16.84 C 165.85 18.39 162.63 18.57 159.53 18.59 L 159.32 20.56 C 159.01 19.66 158.70 18.77 158.37 17.88 C 158.97 17.77 160.18 17.53 160.78 17.42 Z" />
<path fill="#030303" d=" M 153.42 23.14 C 154.44 21.97 155.45 20.77 156.52 19.64 C 156.08 22.34 156.63 25.54 154.80 27.80 C 154.22 26.28 153.81 24.71 153.42 23.14 Z" />
<path fill="#030303" d=" M 202.00 27.19 C 201.09 25.62 199.62 24.09 200.31 22.14 C 201.25 22.87 202.19 23.60 203.13 24.32 C 202.75 25.28 202.38 26.23 202.00 27.19 Z" />
<path fill="#030303" d=" M 156.20 29.69 C 157.75 29.12 159.31 28.53 160.86 27.96 C 160.10 29.98 159.34 32.00 158.73 34.07 C 157.90 32.60 157.05 31.14 156.20 29.69 Z" />
<path fill="#030303" d=" M 165.52 30.23 C 167.41 27.99 170.62 28.57 173.17 28.89 C 170.00 29.45 166.56 31.25 166.56 34.93 C 169.78 36.98 173.13 39.10 177.03 39.51 C 183.97 40.82 190.84 37.91 197.80 39.23 C 198.29 42.88 196.37 46.49 197.61 50.11 C 203.41 51.84 209.90 51.82 214.91 55.62 C 221.62 59.41 227.53 64.83 231.35 71.56 C 235.25 79.41 237.25 88.13 236.97 96.90 C 240.11 97.09 243.38 97.09 246.29 98.43 C 243.40 99.16 240.41 98.88 237.48 99.20 C 236.14 106.02 234.48 112.90 230.50 118.72 C 222.82 128.98 210.70 135.59 198.07 137.18 C 197.99 139.73 197.76 142.28 197.47 144.82 C 199.70 144.92 201.90 145.31 204.08 145.77 C 206.35 145.33 208.55 144.60 210.86 144.42 C 216.22 143.96 221.24 141.66 226.67 141.64 L 226.86 143.06 C 225.13 143.11 223.40 143.20 221.71 143.60 C 224.59 143.89 227.48 143.60 230.36 143.63 C 230.29 143.99 230.15 144.72 230.08 145.09 C 229.11 145.15 227.19 145.28 226.23 145.34 L 224.98 146.57 C 229.08 146.05 233.25 146.11 237.35 146.62 C 236.43 146.61 234.59 146.60 233.67 146.59 C 233.25 146.87 232.41 147.43 231.99 147.71 C 229.85 147.52 227.69 147.47 225.55 147.49 C 226.02 148.04 226.97 149.13 227.44 149.68 C 227.03 150.01 226.21 150.69 225.80 151.03 C 228.36 151.10 230.94 151.05 233.49 151.44 C 230.78 152.11 227.97 151.88 225.20 151.90 C 225.24 151.03 225.33 149.30 225.37 148.44 L 222.43 148.21 C 222.96 148.84 224.03 150.09 224.56 150.72 C 221.46 150.84 218.20 151.27 215.27 149.98 C 210.81 150.31 206.27 148.73 201.91 149.96 C 201.84 150.47 201.70 151.49 201.63 152.00 C 198.15 151.97 194.67 151.70 191.20 151.47 C 191.09 147.46 190.94 143.43 191.30 139.42 C 192.68 142.46 191.86 145.86 191.97 149.07 C 193.20 148.02 194.42 146.96 195.67 145.94 C 195.96 143.41 196.03 140.86 196.00 138.32 C 195.11 138.00 193.31 137.37 192.42 137.05 C 192.13 137.62 191.56 138.74 191.27 139.30 C 191.26 138.75 191.25 137.65 191.24 137.11 C 182.19 137.09 173.50 133.02 166.50 127.47 C 163.85 125.53 161.37 123.26 159.70 120.40 C 154.23 113.80 151.90 105.32 150.97 96.95 C 149.32 97.41 147.68 97.87 146.01 98.24 C 145.36 102.48 146.21 106.74 146.01 111.01 C 145.84 126.49 146.41 141.99 145.52 157.46 C 158.49 155.35 171.67 155.34 184.75 154.66 C 196.82 155.85 208.93 154.98 221.02 155.00 C 229.00 156.03 237.12 155.78 245.01 157.55 C 244.34 141.84 244.81 126.12 244.58 110.41 L 246.01 110.30 C 246.65 127.53 245.98 144.78 246.25 162.01 C 244.83 161.08 245.01 159.33 244.80 157.87 C 240.19 158.29 235.67 157.11 231.07 157.05 C 219.73 156.94 208.42 155.03 197.08 156.16 C 189.96 156.88 182.80 155.32 175.72 156.56 C 168.86 157.19 161.90 156.56 155.08 157.71 C 151.98 157.98 148.97 159.18 145.83 158.77 C 145.89 160.30 145.93 161.83 145.97 163.36 C 154.80 161.09 163.94 161.13 172.93 160.04 C 188.30 159.94 203.68 160.03 219.06 159.98 C 220.96 159.99 222.92 159.91 224.73 160.61 C 231.99 161.06 239.67 160.34 246.42 163.51 C 246.51 164.84 246.62 166.16 246.76 167.49 C 245.92 172.41 247.10 177.32 247.18 182.24 C 249.09 182.30 251.00 182.32 252.92 182.31 C 252.92 174.20 253.51 166.02 252.09 157.99 C 251.69 145.03 252.22 132.05 251.87 119.08 C 250.79 110.05 251.71 100.95 250.83 91.91 C 246.77 91.84 242.70 92.00 238.64 91.78 C 238.38 91.44 237.85 90.76 237.58 90.42 C 242.77 89.82 248.00 90.52 253.21 90.12 C 253.10 94.07 253.92 97.97 253.99 101.92 C 254.24 108.62 253.73 115.35 254.48 122.03 C 254.53 126.94 255.42 131.83 254.80 136.75 C 255.04 144.51 254.40 152.30 255.00 160.07 C 254.68 167.06 254.43 174.07 255.20 181.04 C 257.13 180.58 259.05 180.11 261.00 179.76 C 262.36 180.26 263.75 180.68 265.15 181.06 C 264.61 180.55 263.52 179.54 262.98 179.03 C 264.19 179.02 266.61 178.98 267.83 178.97 C 267.47 179.68 266.77 181.11 266.41 181.82 C 265.47 182.13 264.53 182.46 263.61 182.80 C 259.29 184.50 254.60 183.67 250.15 184.67 C 248.34 185.08 246.54 184.51 244.77 184.24 C 244.43 177.25 244.76 170.22 245.21 163.24 C 238.46 163.54 231.77 162.29 225.03 162.04 C 208.37 161.66 191.70 162.13 175.03 162.14 C 167.53 162.70 160.08 163.71 152.57 164.16 C 150.46 164.96 148.19 164.93 145.98 164.84 C 146.04 169.25 146.04 173.66 145.84 178.07 C 145.53 179.67 146.55 180.83 147.62 181.84 C 151.47 179.25 156.03 177.95 160.43 176.59 C 163.56 176.14 166.77 176.44 169.93 176.40 C 170.07 175.95 170.35 175.05 170.49 174.60 C 171.87 174.75 173.26 174.90 174.63 175.15 C 173.05 175.71 171.45 176.20 169.95 176.94 C 171.31 176.95 174.05 176.96 175.42 176.97 C 172.63 178.54 169.35 177.84 166.33 178.40 C 170.29 179.52 174.45 178.15 178.49 178.72 C 177.36 180.93 174.14 180.49 172.06 181.21 C 168.01 182.43 163.76 180.96 159.66 181.89 C 159.19 181.78 158.24 181.56 157.76 181.45 C 157.24 181.91 156.71 182.37 156.19 182.83 C 157.90 182.79 159.62 182.67 161.33 182.51 L 161.40 184.02 C 155.35 183.95 149.23 184.02 143.36 185.60 C 141.41 185.73 139.45 185.71 137.51 185.52 C 136.87 182.36 137.29 179.15 137.66 176.00 C 137.34 173.13 137.19 170.26 137.35 167.38 C 127.71 168.05 118.77 171.86 109.61 174.58 C 104.41 176.82 98.68 178.41 94.81 182.84 C 94.95 184.86 95.37 186.84 96.08 188.74 C 105.26 194.51 116.08 196.80 126.43 199.59 C 133.62 200.60 140.73 202.40 148.05 202.07 C 157.55 203.55 167.22 202.83 176.69 204.48 C 181.63 204.51 186.59 205.00 191.51 204.46 C 199.83 203.15 208.48 205.17 216.67 203.19 C 227.01 203.22 237.25 201.87 247.49 200.61 C 258.43 199.11 268.97 195.74 279.58 192.82 C 284.11 190.29 289.48 188.85 293.12 184.99 C 295.81 181.81 292.36 178.23 290.02 176.08 C 284.09 171.59 276.84 169.32 269.76 167.32 C 265.18 165.16 259.99 166.25 255.28 164.56 C 257.04 163.42 259.13 163.98 261.05 164.25 C 264.42 164.79 267.94 164.56 271.19 165.78 C 278.61 168.21 286.41 170.33 292.65 175.22 C 295.23 177.18 296.31 180.32 297.17 183.31 C 292.79 190.69 283.73 192.89 276.06 195.23 C 256.93 202.14 236.49 203.95 216.35 205.44 C 196.94 206.52 177.44 206.12 158.03 205.06 C 153.58 205.28 149.29 203.84 144.88 203.72 C 141.54 204.33 138.30 203.17 135.00 202.96 C 121.73 200.96 108.53 197.50 96.60 191.25 C 93.73 189.35 91.82 185.50 92.87 182.10 C 93.70 180.57 95.09 179.46 96.26 178.20 C 98.51 176.87 100.62 175.26 103.12 174.43 C 110.40 171.91 117.58 169.01 125.12 167.34 C 129.09 166.51 133.09 165.78 137.02 164.78 C 137.01 163.27 137.00 161.76 137.00 160.26 C 135.74 160.84 134.53 161.60 133.15 161.88 C 119.01 164.92 104.71 168.58 92.29 176.27 C 89.25 178.90 86.12 183.57 89.55 187.26 C 88.66 187.74 87.75 188.18 86.85 188.64 C 86.41 188.00 85.98 187.36 85.55 186.72 C 84.52 187.90 83.48 189.07 82.49 190.28 C 84.01 189.95 85.53 189.59 87.04 189.20 C 85.40 191.71 83.90 194.32 82.58 197.02 C 84.65 195.76 86.76 194.57 88.89 193.44 C 89.15 191.74 89.35 190.03 89.52 188.32 C 91.97 191.92 95.37 194.86 99.39 196.56 C 114.86 203.13 131.39 207.41 148.21 208.23 C 153.87 209.12 159.60 209.06 165.29 209.65 C 167.46 209.47 169.64 209.02 171.80 209.59 C 181.49 210.49 191.25 209.63 200.97 210.02 C 203.01 210.14 204.96 209.44 206.96 209.11 C 219.30 209.69 231.58 207.73 243.84 206.70 C 251.54 205.14 259.59 205.04 266.98 202.23 C 276.77 199.93 286.58 197.12 295.42 192.23 C 298.85 190.49 301.72 186.96 301.61 182.97 C 302.12 179.13 299.44 175.73 296.76 173.30 C 288.54 167.40 278.59 164.49 268.84 162.30 C 265.22 160.70 261.02 161.33 257.50 159.46 C 268.18 159.71 278.77 162.07 288.51 166.53 C 294.98 169.31 300.85 173.35 306.49 177.53 C 311.32 180.78 313.78 187.41 311.83 192.93 C 307.79 200.95 300.13 206.43 292.15 210.12 C 282.17 214.38 271.57 216.94 261.08 219.62 C 247.76 221.58 234.46 224.02 220.96 224.12 C 217.91 224.05 214.43 225.32 211.91 222.99 C 215.12 222.79 218.60 223.68 221.63 222.22 C 218.38 221.94 215.11 222.04 211.85 222.18 C 209.86 221.97 207.87 222.12 205.92 222.57 C 195.18 223.94 184.33 222.22 173.58 223.14 C 171.82 222.83 170.03 222.70 168.25 222.65 C 168.44 222.19 168.83 221.26 169.02 220.80 C 171.36 220.99 173.72 221.03 176.07 221.06 C 175.83 220.39 175.34 219.06 175.10 218.39 C 175.64 218.84 176.72 219.73 177.27 220.18 C 179.97 218.91 182.96 217.55 183.36 214.22 C 186.46 214.26 184.51 217.40 183.42 218.72 C 182.48 219.53 181.54 220.34 180.62 221.18 C 183.19 221.17 185.75 221.11 188.32 221.04 C 187.69 220.33 186.45 218.93 185.82 218.22 C 188.03 219.02 190.21 219.91 192.55 220.26 C 193.79 222.13 195.99 221.99 197.94 221.64 C 200.30 221.81 200.08 220.46 199.12 218.81 C 201.53 220.39 204.14 220.05 206.24 218.17 C 205.69 218.75 204.59 219.91 204.04 220.50 C 206.21 220.29 210.03 222.37 210.36 218.85 C 212.37 219.04 214.30 218.49 216.19 217.86 C 215.57 218.61 214.33 220.11 213.71 220.86 C 215.91 220.46 218.11 220.02 220.29 219.52 C 218.36 217.83 215.06 217.25 214.66 214.31 C 215.18 214.04 216.22 213.50 216.74 213.22 C 216.85 213.84 217.09 215.06 217.20 215.68 C 219.00 217.08 221.28 219.14 223.72 217.92 C 225.12 216.21 225.00 213.85 225.76 211.87 C 227.07 214.87 229.34 217.07 232.61 217.74 C 233.66 216.67 234.73 215.61 235.80 214.55 C 235.70 213.69 235.50 211.97 235.40 211.11 C 237.26 211.57 238.12 213.06 238.63 214.76 C 239.79 215.17 240.94 215.62 242.14 215.95 C 243.61 215.56 244.84 214.54 246.19 213.86 C 245.82 212.89 245.46 211.94 245.09 210.98 C 245.48 210.74 246.26 210.26 246.65 210.02 C 247.21 210.88 247.77 211.75 248.33 212.63 C 249.88 213.44 251.43 214.25 252.93 215.17 C 254.02 214.79 255.10 214.38 256.19 213.96 C 255.70 212.18 255.16 210.42 254.77 208.62 C 256.38 209.59 259.14 210.68 258.75 213.01 C 257.73 214.20 256.43 215.11 255.27 216.15 C 257.40 216.08 259.53 215.95 261.66 215.89 C 261.58 215.39 261.42 214.37 261.34 213.87 C 261.94 214.04 263.14 214.39 263.73 214.56 C 264.64 213.73 265.55 212.91 266.47 212.10 C 265.98 210.48 264.98 208.90 265.17 207.16 C 267.24 206.83 268.17 209.35 269.67 210.37 C 268.41 211.35 267.14 212.31 265.90 213.30 C 267.96 214.02 270.01 212.95 272.07 212.81 L 271.86 211.15 C 273.38 211.26 274.51 211.87 275.24 212.99 C 275.08 213.22 274.77 213.69 274.62 213.93 C 269.29 214.99 264.10 216.62 258.75 217.59 C 260.23 217.78 261.71 217.92 263.19 218.06 C 265.81 216.16 269.28 216.29 272.27 215.31 C 276.57 214.47 280.60 212.65 284.86 211.64 C 284.54 211.26 283.90 210.52 283.57 210.15 C 285.45 209.19 287.32 208.19 289.34 207.54 C 289.29 207.31 289.18 206.83 289.12 206.59 C 290.83 206.82 292.48 206.29 294.17 206.18 C 291.63 208.67 287.68 209.07 284.73 211.05 C 289.19 210.74 292.96 208.11 296.99 206.45 L 296.35 206.29 C 296.05 206.15 295.46 205.86 295.16 205.71 C 297.66 203.72 300.74 202.01 303.47 200.14 C 302.72 199.63 301.97 199.14 301.22 198.66 C 301.14 199.30 300.99 200.59 300.92 201.24 C 300.18 201.02 299.44 200.80 298.71 200.58 C 298.36 201.18 297.67 202.36 297.32 202.95 C 296.48 201.18 295.58 199.46 294.81 197.66 C 297.12 197.31 299.38 198.21 301.68 198.26 C 300.77 196.55 299.61 195.01 298.55 193.41 C 301.22 193.90 303.83 194.79 306.57 194.87 C 305.71 193.16 304.33 191.85 302.99 190.54 C 302.51 190.85 301.55 191.49 301.07 191.81 C 299.79 191.83 298.54 192.02 297.33 192.38 C 297.09 193.64 296.92 194.93 296.82 196.22 C 293.23 193.64 289.78 197.19 286.51 198.62 C 286.61 199.36 286.81 200.84 286.91 201.58 C 286.22 201.16 284.84 200.32 284.14 199.90 C 281.97 200.11 279.88 200.75 277.77 201.25 C 278.25 202.72 278.76 204.18 279.16 205.68 C 277.64 204.82 276.30 203.71 274.85 202.77 C 273.38 202.66 271.95 203.20 270.51 203.40 C 270.69 204.23 271.03 205.89 271.21 206.72 C 269.53 206.43 268.29 205.38 267.26 204.12 C 265.81 204.63 264.32 204.99 262.83 205.29 C 262.87 206.70 262.90 208.12 262.91 209.53 C 261.24 208.89 260.05 207.60 259.23 206.05 C 258.35 206.07 257.48 206.09 256.62 206.12 C 255.06 206.72 253.41 206.99 251.78 207.29 C 252.30 208.62 252.86 209.94 253.34 211.29 C 251.00 211.43 249.54 209.79 248.50 207.94 C 246.49 207.97 244.47 208.00 242.46 208.01 C 242.63 209.27 242.81 210.53 242.98 211.79 C 242.34 211.85 241.05 211.96 240.41 212.02 C 240.03 210.91 239.64 209.80 239.24 208.70 C 236.99 208.75 234.74 208.86 232.50 209.02 C 232.26 210.19 232.01 211.35 231.72 212.51 C 230.02 212.13 229.85 210.23 228.93 209.03 C 226.69 209.09 224.50 209.69 222.32 210.12 C 222.39 211.16 222.46 212.21 222.54 213.26 C 221.94 213.42 220.74 213.73 220.14 213.89 C 219.70 212.67 219.27 211.45 218.85 210.23 C 216.87 210.20 214.90 210.22 212.94 210.35 C 212.80 211.37 212.53 213.40 212.40 214.42 C 210.68 214.00 210.13 212.41 209.53 210.97 C 207.33 210.94 205.14 211.01 202.95 211.11 C 202.48 212.41 202.03 213.72 201.59 215.03 C 201.21 214.78 200.45 214.29 200.06 214.04 C 200.00 213.33 199.86 211.90 199.79 211.18 C 196.94 211.02 194.07 211.02 191.22 211.17 C 191.07 212.72 190.96 214.29 190.83 215.85 C 190.45 215.63 189.68 215.19 189.29 214.97 C 189.03 213.90 188.77 212.83 188.51 211.76 C 185.83 211.47 183.17 211.06 180.48 210.90 C 180.13 212.92 179.64 214.93 178.51 216.68 C 177.56 215.20 177.09 213.49 176.73 211.78 C 173.92 211.41 171.12 210.93 168.28 210.90 C 167.58 212.51 166.88 214.11 166.12 215.69 C 165.21 214.21 165.11 212.30 164.07 210.93 C 161.77 210.68 159.48 210.38 157.18 210.16 C 156.98 211.09 156.59 212.95 156.39 213.88 C 155.85 213.89 154.75 213.91 154.21 213.92 C 154.09 212.65 153.98 211.39 153.88 210.12 C 151.90 209.99 149.94 209.75 147.97 209.66 C 146.96 210.79 146.33 212.19 145.40 213.38 C 144.32 212.38 144.50 210.81 144.25 209.50 C 142.08 209.11 139.90 208.81 137.73 208.42 C 136.79 210.09 135.79 211.83 133.90 212.58 C 134.00 211.12 134.13 209.68 134.29 208.24 C 132.30 207.83 130.35 207.28 128.38 206.77 C 127.92 207.60 127.00 209.25 126.55 210.08 C 127.08 210.57 127.62 211.06 128.16 211.55 L 127.98 210.01 L 130.05 209.93 C 130.04 210.52 130.01 211.69 130.00 212.28 C 128.18 212.63 127.03 214.12 125.72 215.28 C 126.44 215.74 127.86 216.65 128.57 217.11 C 133.24 216.75 137.15 214.07 139.90 210.41 C 140.00 211.57 140.07 212.76 140.09 213.93 C 140.96 215.23 141.88 216.50 142.83 217.76 C 145.32 216.09 147.78 214.23 149.18 211.50 C 150.54 212.21 150.94 213.57 151.13 214.99 C 148.61 215.45 146.40 216.73 144.43 218.31 C 146.88 219.88 149.83 219.62 152.59 219.97 C 155.10 218.18 158.55 216.92 158.95 213.42 C 161.26 212.26 161.85 216.44 159.21 216.62 C 159.10 217.09 158.90 218.01 158.79 218.48 C 158.21 218.81 157.04 219.49 156.46 219.82 C 159.02 219.97 161.56 220.33 164.08 220.82 C 165.30 220.23 166.42 219.43 167.61 218.76 C 168.42 218.17 169.23 217.58 170.04 217.00 C 169.93 216.47 169.72 215.40 169.61 214.87 C 170.57 214.49 171.53 214.11 172.50 213.76 C 172.81 214.88 173.12 216.01 173.43 217.15 C 172.79 217.11 171.52 217.02 170.88 216.98 C 169.62 218.75 168.35 220.53 167.25 222.41 C 159.43 222.40 151.75 220.84 143.93 221.02 C 138.42 220.89 133.11 219.04 127.62 218.64 C 129.13 219.93 133.15 218.90 132.66 221.60 C 131.60 221.39 129.49 220.98 128.43 220.77 C 125.36 219.88 122.20 219.33 119.06 218.77 C 120.76 217.99 122.63 217.75 124.43 217.27 C 123.48 217.16 121.58 216.95 120.63 216.85 C 119.01 216.24 117.26 216.12 115.56 215.98 C 116.34 216.66 119.93 216.87 118.23 218.36 C 117.15 217.95 114.99 217.13 113.91 216.72 C 116.08 220.54 117.35 224.87 117.07 229.29 C 120.33 230.92 123.94 231.61 127.49 232.30 C 134.21 233.88 141.06 235.00 147.97 235.17 C 154.18 236.47 160.57 235.63 166.82 236.66 C 177.51 237.77 188.28 237.39 199.01 238.02 C 203.37 238.30 207.63 237.16 211.97 237.01 C 222.33 237.15 232.60 235.71 242.89 234.73 C 253.14 232.92 264.15 232.60 273.45 227.56 C 273.87 227.68 274.70 227.93 275.12 228.05 C 274.76 223.57 276.56 219.14 279.12 215.53 C 279.75 219.12 275.70 221.77 276.90 225.23 L 275.70 224.69 C 276.05 225.39 276.40 226.08 276.76 226.78 C 277.99 225.94 279.20 225.07 280.39 224.18 C 283.80 223.26 287.25 222.41 290.57 221.18 C 291.16 221.11 292.33 220.98 292.92 220.91 C 293.10 219.41 293.31 217.92 293.49 216.43 C 290.76 216.00 288.09 215.26 285.59 214.08 C 287.52 213.93 289.41 214.34 291.30 214.72 C 293.67 214.01 296.03 213.23 298.38 212.45 C 300.96 208.68 306.29 208.07 310.18 210.09 C 315.05 211.79 317.63 217.15 317.08 222.09 C 318.13 231.05 319.49 240.91 315.41 249.34 C 313.65 250.35 311.95 251.58 309.95 252.05 C 305.87 251.88 302.23 249.29 300.52 245.62 C 298.63 239.22 298.81 232.52 299.17 225.93 C 296.89 224.72 294.39 224.07 292.08 222.95 C 288.07 223.94 283.76 224.57 280.38 227.12 C 277.68 230.04 275.90 233.63 273.88 237.01 C 278.44 241.79 282.58 247.27 283.79 253.95 C 289.29 271.27 291.64 289.63 299.64 306.10 C 300.67 309.53 302.45 312.69 303.26 316.17 C 299.33 313.41 298.32 308.61 296.76 304.39 C 294.18 297.66 291.66 290.91 289.87 283.92 C 287.72 275.91 283.87 268.16 283.92 259.72 C 281.52 254.94 280.65 249.52 277.78 244.97 C 276.40 242.75 274.68 240.77 273.01 238.77 C 269.84 239.07 266.45 238.58 263.63 240.39 C 269.11 243.82 271.35 250.32 274.29 255.76 C 275.37 258.97 276.90 262.14 277.04 265.58 C 276.73 264.70 276.09 262.94 275.78 262.06 C 275.42 262.79 275.08 263.53 274.74 264.28 C 275.54 266.25 276.27 268.37 275.61 270.50 C 274.86 267.40 273.99 264.35 272.97 261.34 L 274.20 263.16 C 274.55 262.30 274.88 261.45 275.21 260.59 C 273.53 257.28 271.89 253.91 271.14 250.25 C 268.48 252.01 268.91 248.32 268.14 247.03 C 267.43 243.61 263.76 242.63 261.22 240.97 C 258.36 241.32 255.49 241.80 252.78 242.76 C 252.00 244.14 251.85 245.79 251.34 247.29 C 251.85 249.89 253.29 252.07 255.11 253.96 C 256.84 253.98 258.57 254.00 260.31 254.04 C 261.45 252.65 263.21 251.28 262.54 249.25 C 262.65 247.25 260.58 246.36 259.30 245.27 C 258.77 245.72 257.71 246.61 257.18 247.06 C 257.01 247.91 256.66 249.62 256.48 250.47 C 254.92 247.61 256.57 244.21 259.85 243.89 C 262.38 245.08 264.44 247.28 264.98 250.09 C 264.59 251.49 263.97 252.82 263.57 254.23 C 267.95 260.97 269.28 269.01 271.48 276.61 C 272.75 280.15 273.75 283.77 274.47 287.46 C 278.44 299.98 282.48 312.53 288.45 324.27 C 290.13 323.45 291.78 322.58 293.48 321.80 C 292.21 319.83 291.24 317.70 290.24 315.60 C 285.05 303.45 281.22 290.75 278.25 277.88 C 279.15 279.08 279.75 280.45 280.34 281.82 C 281.23 282.13 282.16 282.29 283.13 282.31 C 284.96 292.69 289.02 302.53 292.80 312.32 C 293.12 313.50 293.63 314.64 293.81 315.86 C 292.78 314.57 290.72 311.98 289.68 310.69 C 290.44 312.40 291.96 315.81 292.72 317.52 C 293.58 319.97 295.50 321.82 298.28 321.02 C 300.99 318.88 304.61 318.66 307.92 318.42 C 311.08 320.62 314.82 322.79 315.80 326.82 C 317.23 326.16 318.67 325.51 320.12 324.89 C 321.99 323.52 324.74 323.47 325.89 321.24 C 328.69 320.99 331.49 320.80 334.29 320.61 C 332.70 320.26 331.12 319.88 329.56 319.47 C 335.97 318.42 342.52 319.16 348.99 318.94 L 349.01 317.93 C 345.95 318.13 342.88 318.04 339.83 317.75 C 337.05 317.36 334.19 318.39 331.51 317.30 C 338.01 317.40 344.50 317.01 351.00 316.68 C 351.08 317.74 351.23 319.86 351.30 320.92 C 347.83 320.48 343.96 319.28 340.73 321.16 C 344.08 323.05 348.30 320.25 351.16 322.98 C 348.43 323.28 345.69 323.28 342.95 323.37 C 344.48 323.87 346.01 324.32 347.55 324.84 C 346.51 325.82 345.36 325.48 344.28 324.80 C 341.99 325.27 339.00 324.91 338.01 327.59 C 334.87 328.34 331.69 328.90 328.53 329.54 C 325.11 330.69 321.62 331.69 317.99 331.60 C 318.08 332.23 318.28 333.48 318.38 334.11 C 315.87 333.00 313.13 332.93 310.44 332.73 C 309.71 333.26 308.98 333.79 308.24 334.31 C 307.67 333.21 307.09 332.11 306.52 331.01 C 306.98 330.49 307.91 329.45 308.37 328.93 C 306.38 328.73 304.29 328.32 302.64 329.79 C 303.12 330.20 304.07 331.03 304.54 331.44 C 301.91 331.88 301.95 334.44 301.47 336.49 C 300.22 335.77 299.03 334.94 297.90 334.04 C 296.07 334.07 294.23 334.06 292.41 334.02 C 291.32 332.54 290.26 331.05 289.15 329.59 C 287.83 326.12 286.22 322.78 284.26 319.63 C 276.76 305.20 273.05 289.27 268.28 273.83 C 267.15 268.31 265.37 262.92 263.38 257.65 C 262.95 257.33 262.09 256.68 261.65 256.36 C 259.92 256.48 258.18 256.48 256.44 256.39 C 251.42 259.52 246.57 263.03 240.95 265.06 C 231.87 268.20 222.67 271.38 213.07 272.40 C 209.56 273.77 209.29 277.98 208.36 281.10 C 206.72 289.21 204.37 297.36 204.96 305.72 C 207.27 307.21 209.24 309.22 209.61 312.08 C 213.28 312.20 216.92 311.36 220.23 309.79 C 221.51 309.84 222.79 309.91 224.07 310.00 C 224.13 309.52 224.23 308.57 224.29 308.09 C 225.51 308.14 226.74 308.19 227.98 308.23 C 229.93 307.20 231.83 307.21 233.16 309.14 C 233.20 307.92 233.63 306.88 234.45 306.00 L 234.31 305.62 C 237.76 303.29 241.94 302.41 246.05 302.59 C 247.77 298.62 252.17 300.26 255.26 301.36 C 254.09 301.85 251.75 302.82 250.57 303.31 C 253.40 303.22 256.22 302.86 259.05 302.71 C 259.74 303.81 260.43 304.91 261.16 305.99 C 261.41 307.28 261.63 308.58 261.85 309.88 C 259.29 311.89 256.06 311.33 253.04 311.41 C 250.39 313.25 247.17 312.50 244.17 312.45 C 239.26 314.99 233.33 314.76 227.97 315.88 C 225.30 315.38 222.61 315.16 219.98 316.06 C 215.48 317.56 210.72 316.37 206.11 316.92 C 199.43 318.09 192.62 317.63 185.91 317.04 C 184.91 313.00 186.95 309.34 188.95 306.01 C 186.62 296.99 186.36 287.51 183.33 278.66 C 182.02 276.64 181.68 273.41 178.95 272.82 C 175.18 271.79 171.20 271.71 167.51 270.32 C 156.91 267.48 147.04 262.26 137.87 256.35 C 137.37 256.75 136.38 257.56 135.88 257.97 C 133.43 258.01 130.99 258.05 128.56 258.31 C 124.40 274.62 122.28 291.49 116.16 307.26 C 113.45 314.13 109.26 320.27 104.74 326.05 C 105.26 323.69 106.49 321.58 107.81 319.58 C 112.10 312.94 114.45 305.33 117.18 297.98 C 119.14 290.71 121.97 283.54 122.19 275.92 C 123.88 269.51 125.01 262.96 126.70 256.54 C 126.54 254.21 125.90 251.91 125.75 249.57 C 126.71 247.24 128.58 245.44 131.08 244.85 C 132.96 245.52 134.60 246.69 136.19 247.87 C 133.65 247.81 130.72 245.57 128.58 247.71 C 125.63 249.48 127.53 253.18 128.68 255.48 C 130.99 256.45 133.40 257.61 135.71 255.97 C 136.81 254.57 137.93 253.18 139.07 251.81 C 139.19 249.08 138.66 246.41 137.67 243.88 C 135.58 242.91 133.22 242.74 131.01 242.18 C 128.41 242.82 126.72 245.05 124.59 246.48 C 124.60 246.98 124.64 247.97 124.65 248.47 L 123.48 247.90 C 118.31 257.78 118.78 269.54 114.02 279.54 C 114.29 277.44 114.83 275.38 115.49 273.37 C 115.17 273.36 114.54 273.33 114.23 273.32 C 113.92 274.29 113.61 275.27 113.31 276.25 C 113.07 277.65 112.70 279.03 112.03 280.30 L 111.42 277.80 C 113.11 269.04 116.07 260.60 117.99 251.91 C 118.35 251.82 119.08 251.66 119.45 251.57 C 118.06 256.56 116.15 261.44 115.48 266.60 C 115.12 268.19 115.11 270.01 113.87 271.25 C 114.61 271.76 115.37 272.24 116.12 272.76 C 117.41 264.54 118.72 256.09 122.19 248.47 C 124.12 245.83 126.16 243.33 129.07 241.70 C 127.77 241.64 125.73 239.95 124.96 241.82 C 123.17 245.09 119.94 247.81 119.87 251.80 C 119.46 251.07 119.07 250.33 118.68 249.59 C 120.03 246.85 121.03 243.44 124.10 242.13 C 124.21 241.37 124.32 240.62 124.42 239.86 C 123.32 239.84 121.13 239.79 120.03 239.77 C 116.18 243.68 113.44 248.75 112.24 254.11 C 110.19 262.54 107.49 270.89 106.58 279.54 C 105.01 284.06 103.86 288.75 101.82 293.10 C 101.78 293.67 101.68 294.80 101.63 295.37 C 97.93 303.81 95.92 313.60 88.82 320.00 C 90.57 320.20 92.64 319.44 94.13 320.70 C 96.98 322.91 101.35 322.27 103.63 325.35 C 104.02 326.66 104.19 328.03 104.68 329.33 C 107.34 330.82 110.27 329.20 112.99 328.79 C 117.24 327.50 121.79 328.51 125.98 326.96 C 129.23 327.37 132.37 328.38 135.60 328.92 C 136.76 324.58 141.62 328.78 144.41 327.01 C 141.52 326.17 138.47 326.23 135.57 325.46 C 137.98 325.07 140.43 325.14 142.86 325.36 C 142.71 324.81 142.43 323.72 142.29 323.17 C 145.33 322.95 148.56 322.53 151.30 324.18 C 149.43 324.93 146.48 323.73 145.55 326.08 C 148.27 326.14 151.00 326.12 153.69 326.59 C 153.60 327.08 153.43 328.06 153.35 328.56 C 150.57 328.62 147.61 327.46 145.02 328.92 C 147.73 329.93 150.63 329.84 153.47 329.96 C 153.48 331.30 153.52 332.64 153.59 333.98 C 152.79 333.82 151.21 333.48 150.41 333.31 C 150.46 333.89 150.57 335.04 150.62 335.62 C 145.66 334.67 140.56 334.83 135.58 333.86 C 133.94 333.22 132.22 332.79 130.44 332.97 C 131.99 333.63 133.59 334.18 135.12 334.90 C 131.41 337.21 127.37 333.72 123.56 335.68 C 116.29 334.02 108.63 336.31 101.39 334.19 C 99.39 335.37 97.19 336.70 94.86 335.39 C 93.78 335.75 92.70 336.12 91.62 336.48 C 91.25 336.11 90.50 335.37 90.13 335.00 C 89.46 335.00 88.14 335.00 87.48 335.00 C 86.30 335.98 85.11 336.96 83.94 337.95 C 83.34 337.36 82.74 336.76 82.14 336.18 C 82.44 335.50 83.02 334.14 83.32 333.46 C 80.07 333.85 76.97 335.46 73.66 334.51 C 74.23 333.50 74.75 332.47 75.29 331.45 C 76.28 330.27 76.72 328.91 76.59 327.39 C 77.64 327.88 78.69 328.37 79.75 328.85 C 79.51 330.64 77.36 331.33 76.37 332.67 C 77.59 332.38 78.81 332.09 80.02 331.80 L 79.83 330.16 C 80.68 330.91 81.54 331.65 82.41 332.40 C 82.40 329.03 86.81 329.10 88.26 331.49 C 87.42 331.35 85.73 331.07 84.88 330.93 C 84.05 332.46 84.37 333.71 86.08 334.45 L 85.65 331.70 C 86.59 331.76 87.52 331.83 88.45 331.90 L 87.94 333.46 C 90.10 332.81 91.47 331.42 91.19 329.11 C 92.42 326.72 95.78 322.92 91.66 321.39 C 89.99 323.87 87.73 325.86 85.01 327.11 C 84.54 324.38 87.67 323.69 89.33 322.36 C 88.13 321.09 86.32 320.63 84.88 321.82 C 82.59 323.87 80.01 325.54 77.80 327.68 C 77.45 327.09 77.11 326.51 76.76 325.93 C 80.82 323.62 83.49 318.87 88.44 318.35 C 90.90 315.60 92.33 312.26 93.77 308.92 C 97.03 303.63 98.50 297.54 101.30 292.02 C 102.41 286.74 103.89 281.55 104.60 276.19 C 107.24 267.04 108.88 257.63 111.68 248.53 C 113.07 244.99 114.92 241.50 118.16 239.32 C 116.78 236.19 115.80 232.87 114.16 229.87 C 108.42 226.79 101.79 222.02 95.09 225.18 C 95.16 222.46 94.27 219.41 95.95 217.00 C 96.17 219.01 96.21 221.05 96.20 223.08 C 96.52 222.56 97.14 221.52 97.45 220.99 C 104.13 221.82 110.41 224.50 116.20 227.84 C 115.31 224.18 114.26 220.56 113.15 216.97 C 110.72 216.05 108.19 215.42 105.69 214.74 C 103.46 217.42 97.67 214.88 97.69 219.30 C 97.05 218.11 96.38 216.94 95.69 215.79 L 95.54 217.33 C 95.08 217.29 94.16 217.22 93.70 217.18 L 94.22 215.08 L 92.37 214.95 C 92.69 215.83 93.32 217.59 93.64 218.48 C 93.06 218.41 91.91 218.28 91.34 218.21 C 91.51 217.89 91.85 217.25 92.02 216.94 C 90.42 214.38 88.64 210.78 85.08 210.99 C 81.38 210.48 77.24 213.11 76.93 217.00 C 76.71 219.57 76.82 222.34 78.46 224.47 C 79.82 226.61 82.72 229.32 85.25 227.22 C 83.54 225.20 81.86 223.13 81.25 220.49 C 82.00 218.62 82.78 216.58 84.83 215.81 C 87.56 217.54 89.81 219.89 91.84 222.39 C 92.51 220.82 93.13 219.21 94.21 217.86 C 94.29 219.89 93.97 221.84 93.25 223.70 C 93.41 223.85 93.74 224.17 93.90 224.32 C 91.97 226.56 93.27 229.44 93.35 232.03 C 93.95 238.95 93.40 246.93 87.79 251.82 C 85.42 252.76 82.85 254.41 80.36 252.75 C 75.30 250.67 74.76 244.80 74.00 240.12 C 73.70 237.90 74.05 235.63 75.56 233.90 C 76.14 236.90 75.87 239.96 76.14 242.99 C 76.81 245.63 78.31 247.96 80.23 249.89 C 80.95 250.16 82.41 250.72 83.14 251.00 C 85.40 249.81 88.72 249.19 89.30 246.26 C 91.43 241.10 91.01 235.47 91.01 230.02 C 91.06 225.54 89.13 220.93 85.69 218.03 C 83.59 217.24 82.69 219.84 82.76 221.45 C 84.72 223.87 87.04 226.22 87.43 229.48 C 85.64 229.67 83.86 229.90 82.07 230.09 C 80.48 234.59 81.07 239.39 82.10 243.94 C 83.56 245.59 85.34 244.47 87.03 243.89 C 86.17 245.05 85.17 246.09 84.08 247.02 C 82.74 246.03 80.96 245.31 80.48 243.57 C 79.13 238.82 78.33 233.75 79.51 228.88 C 79.14 228.31 78.41 227.18 78.05 226.61 C 77.14 227.07 74.89 230.11 75.32 227.46 C 76.37 224.27 74.83 221.08 74.03 218.01 C 75.04 215.50 74.99 211.97 78.01 210.92 C 80.92 209.94 84.32 208.04 87.29 209.76 C 89.58 210.63 91.10 212.82 93.57 213.33 C 96.84 215.62 100.74 215.52 104.52 214.87 C 100.82 212.05 96.29 210.17 91.82 209.08 C 91.84 207.08 91.83 204.50 89.06 204.71 L 90.65 206.11 C 90.08 206.53 89.51 206.94 88.95 207.35 C 85.81 204.63 82.04 202.48 80.15 198.61 C 79.58 196.15 78.99 193.69 78.35 191.25 C 78.27 185.85 82.32 182.28 85.28 178.30 C 92.05 173.66 99.54 170.11 107.05 166.84 C 117.29 164.03 127.49 160.23 138.21 159.91 C 138.46 160.85 138.71 161.78 138.96 162.72 C 137.44 166.49 139.39 170.35 138.69 174.17 C 138.44 177.09 139.12 180.00 139.27 182.91 C 140.82 182.96 142.37 182.99 143.92 183.02 C 143.71 173.69 144.86 164.26 143.14 155.04 C 143.10 147.69 143.93 140.31 143.09 132.99 C 143.09 128.96 142.95 124.93 143.14 120.91 C 144.54 112.75 143.54 104.42 143.96 96.18 C 145.64 96.04 147.33 95.91 149.01 95.75 C 149.87 86.01 151.90 75.93 157.83 67.91 C 160.72 63.79 164.61 60.56 168.33 57.24 C 172.06 55.01 176.08 53.39 180.04 51.66 C 183.72 50.67 187.74 51.03 191.21 49.23 L 189.46 48.44 C 189.92 47.31 190.37 46.18 190.82 45.04 C 188.26 45.17 185.45 45.52 183.18 44.01 C 179.01 44.56 174.80 46.77 170.59 45.55 C 172.44 45.13 174.32 44.88 176.19 44.60 L 175.29 42.68 C 175.50 42.12 175.93 40.98 176.14 40.41 C 173.34 39.84 170.75 38.64 168.05 37.76 C 167.12 36.96 166.17 36.18 165.20 35.44 C 165.15 33.70 165.01 31.92 165.52 30.23 Z" />
<path fill="#030303" d=" M 189.35 30.65 C 189.81 29.26 190.76 28.46 192.27 28.77 C 191.80 29.87 191.31 30.96 190.82 32.05 C 188.51 32.98 186.05 33.31 183.77 32.10 C 184.10 31.71 184.76 30.94 185.09 30.55 C 185.51 30.79 186.36 31.25 186.78 31.49 C 187.42 31.28 188.71 30.86 189.35 30.65 Z" />
<path fill="#030303" d=" M 193.77 33.25 C 196.80 33.17 198.97 30.96 201.19 29.20 C 201.69 33.75 196.88 34.34 193.52 34.55 C 193.58 34.23 193.70 33.58 193.77 33.25 Z" />
<path fill="#030303" d=" M 170.85 34.45 C 171.75 32.45 173.98 32.07 175.82 31.36 C 175.98 31.69 176.31 32.37 176.47 32.71 C 174.64 33.44 172.80 34.14 170.85 34.45 Z" />
<path fill="#030303" d=" M 207.23 36.45 C 205.75 36.12 205.60 33.25 207.25 33.09 C 208.87 33.30 208.88 36.28 207.23 36.45 Z" />
<path fill="#030303" d=" M 181.13 36.11 C 182.90 35.93 183.93 33.72 185.85 34.27 C 184.49 38.02 179.26 37.98 176.29 36.30 C 177.90 36.22 179.52 36.16 181.13 36.11 Z" />
<path fill="#030303" d=" M 159.25 35.39 C 160.59 36.40 162.89 36.88 162.88 38.96 C 163.30 42.76 167.66 43.87 170.12 46.15 C 166.37 47.37 163.83 43.76 161.00 42.01 C 160.96 41.33 160.89 39.97 160.85 39.30 C 160.28 38.01 159.75 36.71 159.25 35.39 Z" />
<path fill="#ffffff" d=" M 184.99 40.88 C 188.30 40.96 191.61 41.04 194.91 40.85 C 194.98 43.74 195.44 46.66 194.90 49.53 C 194.11 49.76 192.52 50.20 191.72 50.42 C 191.90 48.25 191.92 46.07 191.97 43.90 C 189.68 43.80 187.39 43.82 185.10 43.78 C 185.07 43.06 185.02 41.60 184.99 40.88 Z" />
<path fill="#ffffff" d=" M 180.08 55.01 C 181.68 54.40 183.08 53.14 184.85 53.05 C 189.68 52.89 194.52 52.90 199.34 53.29 C 202.81 54.45 206.55 54.64 209.95 56.05 C 215.54 58.37 220.17 62.39 224.60 66.43 C 232.14 75.42 235.65 87.44 234.81 99.09 C 233.59 110.72 226.61 121.34 217.00 127.82 C 210.85 130.94 204.53 134.28 197.53 134.78 C 190.29 135.32 183.15 133.37 176.47 130.74 C 170.86 127.18 164.84 123.68 161.16 117.95 C 156.99 112.12 154.76 105.19 153.72 98.15 C 151.78 91.38 153.78 84.38 155.85 77.91 C 161.55 68.29 169.40 59.13 180.08 55.01 Z" />
<path fill="#030303" d=" M 136.40 90.85 C 140.32 90.33 144.31 90.43 148.26 90.44 C 145.43 90.86 142.56 91.02 139.72 91.45 C 138.84 92.36 137.90 93.22 137.15 94.24 C 137.23 97.18 138.22 100.04 138.03 103.02 C 137.80 121.11 138.35 139.19 138.16 157.28 C 137.75 157.36 136.92 157.51 136.50 157.58 C 136.69 155.06 137.06 152.53 136.94 149.99 C 136.14 143.03 136.72 136.01 136.56 129.02 C 136.26 116.30 136.28 103.55 136.40 90.85 Z" />
<path fill="#030303" d=" M 230.30 142.96 C 232.95 143.06 235.72 143.83 238.26 142.71 C 238.90 143.09 239.53 143.47 240.17 143.85 C 237.52 143.69 234.84 143.59 232.30 144.53 C 231.63 144.01 230.96 143.49 230.30 142.96 Z" />
<path fill="#ffffff" d=" M 196.76 146.30 C 198.15 146.24 199.54 146.15 200.93 146.05 C 200.99 147.88 201.07 149.70 201.15 151.54 C 198.51 151.13 195.86 150.99 193.20 150.99 C 194.52 149.54 195.74 147.99 196.76 146.30 Z" />
<path fill="#ffffff" d=" M 303.33 181.12 C 304.70 182.03 306.09 182.91 307.45 183.85 C 306.13 183.95 304.81 184.04 303.49 184.13 C 303.45 183.38 303.37 181.87 303.33 181.12 Z" />
<path fill="#ffffff" d=" M 86.77 184.10 C 87.03 186.49 80.43 186.18 84.11 183.84 C 84.78 183.91 86.10 184.03 86.77 184.10 Z" />
<path fill="#ffffff" d=" M 305.70 184.51 C 307.35 185.02 308.80 185.94 310.21 186.92 C 309.69 189.25 309.36 191.65 308.40 193.86 C 307.02 192.67 305.88 191.23 304.79 189.78 C 305.92 189.98 308.19 190.38 309.32 190.58 C 307.85 188.72 306.45 186.79 305.70 184.51 Z" />
<path fill="#ffffff" d=" M 302.17 187.75 C 301.59 184.71 306.76 186.82 305.17 188.88 C 303.93 189.24 302.93 188.86 302.17 187.75 Z" />
<path fill="#ffffff" d=" M 81.85 195.81 C 79.95 195.16 81.83 191.57 83.44 192.17 C 83.69 193.44 83.15 195.29 81.85 195.81 Z" />
<path fill="#ffffff" d=" M 90.88 191.96 L 92.20 191.72 C 92.93 193.75 93.37 195.87 94.06 197.91 C 92.67 198.69 91.26 199.44 89.89 200.25 C 87.66 198.36 89.75 195.53 90.66 193.50 L 90.88 191.96 Z" />
<path fill="#ffffff" d=" M 86.46 195.68 C 86.77 195.79 87.39 195.99 87.70 196.10 C 87.01 197.39 86.32 198.69 85.69 200.02 C 85.14 199.97 84.05 199.85 83.50 199.79 C 84.37 198.34 85.42 197.01 86.46 195.68 Z" />
<path fill="#ffffff" d=" M 303.80 195.78 C 305.43 195.33 306.09 195.91 305.77 197.54 C 304.14 197.97 303.49 197.38 303.80 195.78 Z" />
<path fill="#ffffff" d=" M 95.91 196.94 C 97.81 198.22 99.83 199.26 102.20 198.99 C 102.57 199.29 103.32 199.87 103.69 200.17 C 103.48 200.97 103.08 202.58 102.88 203.39 C 104.18 202.58 105.44 201.71 106.67 200.80 C 108.67 200.94 109.87 202.11 110.18 204.06 C 111.77 203.70 113.41 202.53 115.03 203.47 C 117.44 203.73 117.54 206.35 118.47 208.08 C 119.21 207.13 119.93 206.15 120.61 205.16 C 121.94 205.51 123.27 205.87 124.60 206.21 C 124.77 207.52 124.96 208.82 125.15 210.13 C 125.48 211.15 127.47 212.55 125.36 213.21 C 124.46 214.41 122.87 214.28 121.56 214.47 C 119.67 215.71 117.81 214.00 116.00 213.56 C 117.64 212.51 119.43 211.85 121.40 212.04 C 121.36 210.80 121.30 209.57 121.22 208.34 C 117.74 212.19 112.55 212.04 107.82 211.85 C 108.55 210.55 109.30 209.24 110.02 207.93 C 110.44 208.36 111.28 209.22 111.70 209.65 C 112.30 208.29 112.92 206.95 113.41 205.55 C 110.31 206.37 108.44 209.38 105.06 209.59 C 105.15 207.70 106.95 205.31 105.11 203.80 C 103.22 204.91 101.21 205.99 98.99 206.26 C 99.41 204.66 99.98 203.11 100.47 201.54 C 97.87 202.23 95.30 203.05 92.63 203.41 C 93.61 201.20 94.67 199.02 95.91 196.94 Z" />
<path fill="#030303" d=" M 289.04 199.07 C 291.31 198.83 292.83 201.05 294.70 202.00 C 293.38 203.23 292.19 204.57 291.00 205.91 C 291.46 203.30 288.74 201.59 289.04 199.07 Z" />
<path fill="#ffffff" d=" M 89.41 201.05 C 91.68 199.99 91.69 203.59 89.64 203.66 C 87.30 204.57 87.53 201.34 89.41 201.05 Z" />
<path fill="#030303" d=" M 280.98 202.94 C 283.53 203.95 285.96 205.25 288.59 206.09 C 286.50 206.86 284.34 207.39 282.25 208.15 C 281.80 206.41 281.20 204.72 280.98 202.94 Z" />
<path fill="#ffffff" d=" M 92.73 204.95 C 94.25 204.78 95.74 204.51 97.25 204.27 C 96.85 205.29 96.44 206.32 96.02 207.34 C 95.24 206.99 93.69 206.30 92.91 205.96 L 92.73 204.95 Z" />
<path fill="#030303" d=" M 273.85 204.51 C 276.13 206.20 277.74 209.12 280.88 209.25 C 281.41 209.71 282.47 210.64 283.00 211.10 C 281.05 211.82 279.05 212.42 277.01 212.82 L 277.00 212.47 C 277.91 211.54 278.81 210.61 279.71 209.67 C 277.88 209.98 276.28 210.93 274.62 211.71 C 274.84 211.15 275.28 210.03 275.50 209.48 C 274.60 207.95 273.77 206.34 273.85 204.51 Z" />
<path fill="#ffffff" d=" M 93.21 207.17 C 93.89 207.83 93.89 207.83 93.21 207.17 Z" />
<path fill="#ffffff" d=" M 100.31 208.32 C 101.66 207.68 103.02 207.04 104.43 206.53 C 104.07 208.26 102.95 209.55 101.58 210.58 C 102.31 210.85 103.78 211.38 104.51 211.65 C 108.29 212.63 111.76 214.51 115.56 215.42 L 115.22 216.26 C 111.39 214.89 107.44 213.84 103.67 212.29 C 102.40 211.78 101.14 211.25 99.88 210.73 C 100.31 210.46 101.18 209.94 101.61 209.67 C 101.29 209.34 100.64 208.66 100.31 208.32 Z" />
<path fill="#ffffff" d=" M 303.53 210.06 C 305.66 210.15 308.08 209.53 309.85 211.08 C 311.59 212.55 312.60 214.71 314.03 216.48 C 313.97 218.51 314.33 220.66 313.60 222.60 C 312.58 224.98 309.99 225.90 307.82 226.93 C 307.70 223.89 309.47 221.40 310.86 218.86 C 309.75 216.91 307.95 215.60 305.79 215.01 C 302.92 216.68 301.86 220.04 300.22 222.72 C 299.47 220.20 299.11 217.57 299.07 214.95 C 299.71 212.70 301.78 211.39 303.53 210.06 Z" />
<path fill="#030303" d=" M 204.50 213.91 C 205.65 213.84 206.81 213.78 207.96 213.72 C 208.11 215.13 208.21 216.55 208.25 217.97 C 206.82 216.78 205.01 215.84 204.50 213.91 Z" />
<path fill="#030303" d=" M 193.54 215.38 C 194.39 214.83 195.39 214.61 196.34 214.31 C 196.67 214.77 197.33 215.70 197.67 216.16 C 196.67 217.16 195.69 218.34 194.11 218.11 C 193.84 217.21 193.65 216.30 193.54 215.38 Z" />
<path fill="#ffffff" d=" M 248.54 214.10 C 250.12 214.81 251.73 215.50 253.21 216.43 C 250.32 217.44 247.31 218.04 244.26 218.27 C 244.77 216.09 246.93 215.30 248.54 214.10 Z" />
<path fill="#ffffff" d=" M 134.78 217.73 C 135.90 216.54 137.00 215.33 138.10 214.12 C 139.78 215.82 141.54 217.44 143.20 219.16 C 140.37 218.82 137.61 218.07 134.78 217.73 Z" />
<path fill="#ffffff" d=" M 296.05 216.80 C 296.61 216.04 297.18 215.29 297.75 214.54 C 297.85 217.95 298.11 221.36 298.98 224.68 C 297.18 222.91 296.93 220.32 295.98 218.11 C 295.91 219.44 295.78 222.09 295.71 223.41 C 294.24 221.16 293.92 218.46 293.51 215.87 C 294.15 216.10 295.41 216.57 296.05 216.80 Z" />
<path fill="#ffffff" d=" M 234.67 218.66 C 236.03 216.74 238.20 214.93 240.50 216.74 C 241.15 216.93 242.46 217.31 243.11 217.50 C 240.45 218.70 237.58 219.43 234.67 218.66 Z" />
<path fill="#ffffff" d=" M 224.19 219.93 C 225.26 218.73 226.38 217.57 227.54 216.46 C 229.18 217.32 230.82 218.19 232.42 219.15 C 229.79 220.20 226.93 219.80 224.19 219.93 Z" />
<path fill="#ffffff" d=" M 305.49 217.40 C 306.83 216.12 309.74 217.74 308.84 219.51 C 308.02 220.83 307.05 222.05 306.07 223.25 C 306.02 228.85 305.74 234.46 305.94 240.07 C 305.93 242.05 307.15 243.72 307.90 245.48 C 309.85 244.92 311.50 243.60 312.51 241.86 C 313.42 237.24 312.55 232.59 311.85 228.02 C 312.96 227.24 314.06 226.45 315.17 225.66 C 316.19 232.23 317.01 239.39 314.42 245.70 C 313.05 249.35 307.53 251.88 304.80 248.23 C 300.13 242.67 300.86 234.73 301.04 227.95 C 301.72 224.24 301.99 219.61 305.49 217.40 Z" />
<path fill="#ffffff" d=" M 238.39 220.49 C 241.02 219.96 243.66 219.50 246.33 219.26 C 245.01 222.28 240.91 220.93 238.39 220.49 Z" />
<path fill="#030303" d=" M 132.86 221.90 C 134.48 220.92 136.40 220.77 138.22 220.43 C 138.65 220.79 139.51 221.53 139.94 221.89 C 144.07 221.95 148.19 221.84 152.31 222.08 C 155.81 222.86 159.40 223.02 162.98 222.92 C 178.54 224.40 194.23 224.12 209.84 223.51 L 209.74 222.25 C 211.13 222.77 212.19 223.73 212.84 225.08 C 205.52 224.66 198.30 226.50 190.97 225.75 C 182.66 224.65 174.25 225.41 165.91 224.82 C 160.32 223.97 154.64 224.22 149.10 223.08 C 143.62 223.32 138.27 222.51 132.86 221.90 Z" />
<path fill="#ffffff" d=" M 223.30 222.98 C 222.35 221.05 226.27 220.53 226.72 222.21 C 226.33 223.51 224.27 223.73 223.30 222.98 Z" />
<path fill="#ffffff" d=" M 226.79 222.01 C 229.67 220.20 233.20 221.07 236.37 221.43 C 233.21 221.96 229.99 222.56 226.79 222.01 Z" />
<path fill="#ffffff" d=" M 307.00 229.72 C 308.32 229.27 309.66 228.83 311.00 228.39 C 310.56 233.47 312.26 239.10 309.46 243.70 C 305.30 240.29 307.58 234.32 307.00 229.72 Z" />
<path fill="#ffffff" d=" M 272.71 230.15 C 273.42 230.11 274.85 230.03 275.57 229.99 C 274.54 231.92 273.55 233.89 272.40 235.76 C 264.48 237.59 256.67 240.33 248.50 241.23 C 237.72 242.90 226.75 243.39 215.92 244.76 C 207.28 244.58 198.66 245.61 190.04 245.00 C 184.67 244.93 179.31 245.10 173.94 244.93 C 158.45 243.49 142.66 243.45 127.54 239.25 C 124.82 238.89 122.18 238.17 119.52 237.52 C 118.55 235.68 117.64 233.80 116.75 231.92 C 117.42 231.97 118.75 232.08 119.42 232.13 C 128.89 235.55 139.01 236.89 149.02 237.09 C 160.70 238.38 172.46 239.27 184.23 239.45 C 190.49 240.14 196.82 240.19 203.10 239.85 C 209.78 238.47 216.65 239.36 223.36 238.25 C 240.03 237.53 256.88 235.73 272.71 230.15 Z" />
<path fill="#ffffff" d=" M 218.02 246.87 C 228.80 245.26 239.97 245.92 250.52 242.87 C 249.16 247.21 250.26 251.59 253.06 255.08 C 240.21 263.60 224.91 267.64 209.79 269.63 C 206.76 270.00 203.73 271.43 200.68 270.48 C 195.86 271.91 190.92 270.00 186.02 270.22 C 171.83 268.62 158.02 264.24 145.44 257.50 C 143.38 256.38 141.16 255.44 139.57 253.66 C 139.88 253.04 140.49 251.81 140.79 251.19 C 140.25 248.88 140.00 246.52 139.84 244.16 C 154.14 246.19 168.63 247.04 183.09 247.09 C 194.73 248.25 206.38 246.85 218.02 246.87 Z" />
<path fill="#030303" d=" M 279.08 273.89 C 279.61 275.01 280.10 276.15 280.58 277.31 C 281.18 278.41 282.51 279.44 281.87 280.83 C 281.68 280.84 281.32 280.87 281.14 280.88 C 280.31 278.59 279.15 276.38 279.08 273.89 Z" />
<path fill="#ffffff" d=" M 194.32 275.27 C 195.39 274.61 198.16 274.27 198.51 275.76 C 197.44 276.41 194.64 276.76 194.32 275.27 Z" />
<path fill="#ffffff" d=" M 191.13 278.77 C 193.63 276.37 197.44 278.24 200.53 277.80 C 203.02 278.31 205.94 276.56 207.98 278.64 C 202.39 279.24 196.73 279.09 191.13 278.77 Z" />
<path fill="#030303" d=" M 111.23 279.07 C 112.01 280.94 112.13 282.99 112.73 284.92 C 113.03 283.76 113.62 281.44 113.92 280.28 C 114.37 283.70 113.14 286.94 112.12 290.12 C 110.80 294.05 109.68 298.04 108.00 301.83 C 107.70 302.75 107.10 304.60 106.80 305.52 C 106.79 303.63 107.08 301.69 106.18 299.96 C 105.90 301.37 105.33 304.20 105.05 305.61 C 104.58 305.06 104.11 304.51 103.64 303.96 C 105.10 300.48 106.49 296.96 107.65 293.37 L 108.41 293.69 C 108.42 293.03 108.44 291.71 108.45 291.04 C 108.90 292.04 109.27 293.07 109.56 294.15 C 109.96 290.91 111.33 287.93 112.18 284.82 C 111.95 284.84 111.48 284.89 111.25 284.92 C 110.77 286.32 111.02 289.38 109.20 289.82 C 108.88 286.11 111.27 282.79 111.23 279.07 Z" />
<path fill="#ffffff" d=" M 188.36 281.65 C 192.61 280.10 197.14 280.42 201.58 280.50 C 203.08 280.79 204.55 280.46 206.00 280.06 C 206.01 280.89 206.03 282.55 206.05 283.38 C 203.88 283.80 201.68 284.09 199.48 284.24 C 200.95 283.23 202.58 282.56 204.37 282.24 C 199.04 281.61 193.62 282.90 188.36 281.65 Z" />
<path fill="#ffffff" d=" M 185.70 280.67 C 186.88 281.52 187.93 282.52 189.12 283.38 C 192.60 283.55 196.72 281.40 199.66 284.04 C 195.38 284.28 191.10 283.56 186.83 283.98 C 186.97 283.65 187.25 282.98 187.39 282.65 C 186.97 282.15 186.13 281.16 185.70 280.67 Z" />
<path fill="#ffffff" d=" M 281.85 285.24 C 279.71 286.19 280.75 281.84 282.26 283.42 C 282.16 283.87 281.95 284.78 281.85 285.24 Z" />
<path fill="#ffffff" d=" M 187.06 285.39 C 193.35 284.80 199.75 284.16 206.02 285.27 C 203.78 285.92 201.49 286.76 199.14 286.80 C 195.50 286.21 191.74 285.75 188.10 286.62 C 187.75 286.21 187.40 285.80 187.06 285.39 Z" />
<path fill="#ffffff" d=" M 281.83 286.54 C 283.26 287.17 285.08 291.49 283.45 292.56 C 282.75 290.70 281.54 288.56 281.83 286.54 Z" />
<path fill="#ffffff" d=" M 187.98 288.09 C 193.86 288.46 199.81 286.59 205.56 288.51 C 200.30 289.47 194.89 288.98 189.59 289.40 C 189.27 289.85 188.63 290.77 188.32 291.22 C 189.37 290.98 191.48 290.49 192.54 290.25 C 193.14 290.49 194.35 290.99 194.95 291.23 L 195.14 291.71 C 192.81 292.02 190.46 291.88 188.12 291.92 C 188.07 290.64 188.02 289.36 187.98 288.09 Z" />
<path fill="#ffffff" d=" M 196.79 290.23 C 199.10 290.31 201.43 290.42 203.74 290.10 C 203.62 291.40 203.64 292.70 203.79 294.01 C 198.87 293.78 193.96 294.28 189.05 294.29 L 188.92 292.99 C 191.71 292.98 194.51 292.94 197.30 293.23 C 197.01 292.24 196.84 291.24 196.79 290.23 Z" />
<path fill="#030303" d=" M 202.72 292.46 C 201.77 292.99 197.68 293.70 198.46 291.90 C 199.64 291.76 202.40 290.87 202.72 292.46 Z" />
<path fill="#ffffff" d=" M 283.76 293.65 C 284.47 294.50 285.16 295.37 285.85 296.26 C 286.67 301.26 289.60 305.69 290.13 310.74 C 287.32 305.36 285.39 299.49 283.76 293.65 Z" />
<path fill="#ffffff" d=" M 188.98 295.81 C 193.62 294.64 198.39 295.22 203.13 295.08 C 203.39 295.79 203.64 296.51 203.85 297.25 C 203.42 297.68 202.55 298.53 202.12 298.96 C 198.47 298.97 194.71 298.37 191.13 299.29 C 191.54 300.06 192.25 300.40 193.29 300.28 C 192.68 301.60 192.12 302.94 191.58 304.28 C 192.37 304.37 193.97 304.53 194.76 304.61 C 194.39 304.96 193.66 305.67 193.29 306.02 C 193.06 306.19 192.60 306.52 192.37 306.69 C 192.68 306.82 193.30 307.09 193.60 307.22 C 193.69 307.41 193.86 307.79 193.95 307.98 L 192.00 308.35 L 192.00 309.05 C 194.79 309.02 197.59 308.97 200.38 308.77 C 199.54 308.56 197.88 308.15 197.05 307.95 C 197.08 307.75 197.16 307.37 197.20 307.18 C 197.94 307.08 199.44 306.88 200.18 306.78 C 200.44 306.44 200.97 305.76 201.23 305.41 C 199.54 305.48 197.85 305.55 196.17 305.62 C 195.53 305.05 194.89 304.48 194.27 303.90 L 196.66 304.05 C 195.35 300.49 200.01 302.64 201.78 301.85 C 201.85 301.64 201.99 301.21 202.06 301.00 C 199.86 300.95 197.66 301.02 195.49 300.69 C 197.84 299.67 200.45 299.99 202.94 299.94 C 202.90 300.63 202.81 302.00 202.77 302.69 C 200.94 302.90 199.10 303.02 197.27 303.15 L 197.31 304.00 C 199.21 304.00 201.12 304.02 203.03 304.04 C 202.76 304.48 202.23 305.35 201.96 305.79 C 202.13 307.21 202.23 308.63 202.33 310.06 C 198.76 309.97 195.13 309.79 191.68 310.89 C 190.90 307.64 190.47 303.76 192.45 300.84 C 191.91 300.91 190.82 301.04 190.28 301.11 C 190.08 300.35 189.69 298.82 189.49 298.05 C 193.92 297.68 198.59 298.44 202.79 296.73 C 198.26 296.46 193.73 296.53 189.19 296.61 C 189.14 296.41 189.03 296.01 188.98 295.81 Z" />
<path fill="#ffffff" d=" M 108.27 296.15 C 108.81 296.82 108.81 296.82 108.27 296.15 Z" />
<path fill="#ffffff" d=" M 107.05 298.55 C 109.48 297.84 107.74 301.34 106.62 299.36 L 107.05 298.55 Z" />
<path fill="#ffffff" d=" M 248.22 302.52 C 248.88 303.06 248.88 303.06 248.22 302.52 Z" />
<path fill="#ffffff" d=" M 252.91 304.99 C 253.20 303.74 254.00 303.50 255.32 304.28 C 255.01 305.54 254.21 305.78 252.91 304.99 Z" />
<path fill="#ffffff" d=" M 237.87 306.52 C 238.45 305.86 239.61 304.56 240.19 303.91 L 240.92 306.48 L 239.52 306.44 C 239.56 306.98 239.66 308.06 239.70 308.60 C 238.59 308.57 236.37 308.50 235.25 308.47 C 235.30 308.01 235.41 307.11 235.46 306.66 C 236.06 306.62 237.27 306.55 237.87 306.52 Z" />
<path fill="#030303" d=" M 102.58 305.96 C 103.07 305.86 104.04 305.65 104.53 305.55 C 104.22 308.27 100.87 310.98 102.35 313.62 C 100.62 313.44 99.72 314.29 99.63 316.17 C 101.00 316.15 102.08 314.87 102.35 313.62 C 103.20 310.72 104.36 307.93 105.89 305.32 C 106.52 310.52 102.24 314.13 100.75 318.73 C 100.23 317.91 99.69 317.10 99.15 316.29 C 98.93 318.10 98.11 319.56 96.69 320.66 C 98.38 315.65 101.36 311.16 102.58 305.96 Z" />
<path fill="#ffffff" d=" M 249.09 306.74 C 250.48 306.59 251.83 306.26 253.13 305.74 C 255.40 305.58 257.72 305.60 259.67 306.99 C 257.84 307.15 256.02 307.25 254.19 307.28 C 254.31 307.63 254.56 308.33 254.68 308.68 C 253.86 308.62 252.22 308.51 251.41 308.45 L 251.43 309.57 C 248.40 309.63 245.35 309.77 242.32 309.42 C 244.57 307.98 247.29 308.61 249.78 308.70 C 249.61 308.21 249.26 307.23 249.09 306.74 Z" />
<path fill="#ffffff" d=" M 205.86 308.66 C 206.57 309.52 207.27 310.39 207.96 311.26 C 206.58 313.80 204.09 315.85 201.11 315.95 C 196.74 316.06 192.30 316.28 188.04 315.20 C 188.02 313.75 188.02 312.31 188.01 310.87 C 188.29 310.71 188.85 310.40 189.13 310.25 C 191.55 313.06 195.27 314.88 199.02 313.84 C 201.65 312.69 204.24 311.10 205.86 308.66 Z" />
<path fill="#ffffff" d=" M 195.32 311.21 C 196.69 310.55 198.53 310.66 199.91 311.29 C 199.59 312.65 195.70 312.58 195.32 311.21 Z" />
<path fill="#030303" d=" M 336.06 314.61 C 339.62 312.19 344.50 311.83 348.62 312.97 C 349.19 313.69 350.34 315.13 350.91 315.85 C 344.81 316.66 338.63 315.52 332.49 315.87 C 333.67 315.41 334.86 314.99 336.06 314.61 Z" />
<path fill="#ffffff" d=" M 99.63 316.17 C 99.72 314.29 100.62 313.44 102.35 313.62 C 102.08 314.87 101.00 316.15 99.63 316.17 Z" />
<path fill="#030303" d=" M 294.34 317.05 C 294.72 317.42 294.72 317.42 294.34 317.05 Z" />
<path fill="#ffffff" d=" M 304.49 321.69 C 305.43 321.07 306.37 320.46 307.32 319.86 C 308.97 321.50 310.77 322.99 312.68 324.33 C 313.22 325.83 313.76 327.33 314.25 328.86 C 315.01 329.62 315.76 330.39 316.50 331.18 C 313.55 331.53 311.72 329.10 309.51 327.66 C 308.58 325.10 306.29 323.57 304.49 321.69 Z" />
<path fill="#ffffff" d=" M 291.88 325.00 C 293.32 323.70 294.99 321.44 297.16 322.70 C 298.55 323.26 299.68 321.79 300.99 321.51 C 303.69 322.00 305.05 324.65 306.86 326.43 C 305.99 327.11 305.13 327.82 304.29 328.54 C 303.35 327.95 302.42 327.38 301.49 326.81 C 300.77 325.47 299.87 324.24 298.65 323.33 C 298.82 324.97 299.93 326.20 300.74 327.55 C 300.65 329.49 300.25 331.40 300.35 333.37 C 299.12 332.46 298.14 330.39 296.39 331.48 C 293.17 332.78 289.10 327.65 291.88 325.00 Z" />
<path fill="#ffffff" d=" M 96.02 324.04 C 97.70 324.60 99.68 324.77 100.96 326.11 C 102.52 327.45 101.81 329.67 101.95 331.46 C 100.62 332.02 99.33 332.66 97.96 333.09 C 95.76 332.25 94.32 330.05 91.91 329.51 C 92.20 328.88 92.49 328.26 92.79 327.64 C 93.95 326.52 95.00 325.29 96.02 324.04 Z" />
<path fill="#ffffff" d=" M 124.75 328.13 C 127.97 326.63 125.04 331.26 124.75 328.13 Z" />
<path fill="#ffffff" d=" M 134.44 331.99 C 136.95 331.32 140.10 332.79 142.14 330.78 C 145.30 330.78 148.45 331.02 151.61 331.21 C 151.67 331.37 151.81 331.70 151.87 331.87 C 148.62 332.66 145.25 331.19 141.95 331.88 C 142.51 332.43 143.64 333.51 144.20 334.05 C 140.99 333.16 137.54 333.31 134.44 331.99 Z" />
<path fill="#ffffff" d=" M 93.79 334.63 C 92.02 335.04 91.25 331.89 93.13 331.51 C 95.18 330.96 95.49 334.04 93.79 334.63 Z" />
</svg>
