<?xml version="1.0" encoding="UTF-8" ?>
<!DOCTYPE svg PUBLIC "-//W3C//DTD SVG 1.1//EN" "http://www.w3.org/Graphics/SVG/1.1/DTD/svg11.dtd">
<svg width="1680px" height="1700px" viewBox="0 0 416 421" version="1.1" xmlns="http://www.w3.org/2000/svg">
<path fill="#ffffff" d=" M 0.00 0.00 L 416.00 0.00 L 416.00 421.00 L 272.50 421.00 C 273.52 419.48 275.22 418.88 277.00 419.08 C 279.60 419.32 281.40 417.07 283.92 416.84 C 285.80 416.36 285.99 414.01 285.71 412.41 L 283.62 413.77 C 283.20 411.59 282.95 409.39 282.73 407.20 C 281.40 406.59 280.04 406.02 278.70 405.49 C 277.34 403.02 278.23 400.53 279.50 398.24 C 277.90 395.75 276.09 393.40 274.45 390.94 C 275.37 389.88 276.31 388.84 277.13 387.71 C 275.08 384.74 272.32 382.17 271.19 378.65 C 270.88 376.72 270.98 374.75 270.92 372.81 C 267.85 369.39 267.96 364.64 267.20 360.39 C 271.12 362.05 272.95 366.21 276.38 368.55 C 279.75 370.78 282.06 374.27 285.56 376.32 C 291.30 379.45 294.88 385.41 300.77 388.33 C 303.10 389.48 305.16 391.81 307.99 391.40 C 312.86 390.69 317.98 389.38 321.56 385.77 C 325.33 382.88 326.86 378.28 329.41 374.46 C 331.71 369.23 331.58 363.38 332.24 357.80 C 332.45 356.28 332.05 354.79 331.73 353.34 C 331.43 348.51 329.09 344.12 328.72 339.31 C 328.22 333.82 325.45 328.91 324.81 323.46 C 323.28 320.93 321.90 318.29 321.36 315.36 C 319.16 309.13 316.51 303.07 314.00 296.96 C 312.36 290.81 308.12 285.77 306.70 279.54 C 304.65 275.96 304.15 271.69 301.77 268.29 C 300.53 266.57 300.17 264.47 299.56 262.50 C 298.26 261.16 296.53 260.17 295.77 258.39 C 293.18 253.36 289.26 249.16 287.03 243.93 C 284.66 240.05 282.54 235.97 279.68 232.41 C 275.31 228.21 274.26 221.83 270.05 217.44 C 270.01 216.97 269.93 216.01 269.89 215.54 C 265.29 209.82 262.46 202.92 257.95 197.13 C 258.47 196.08 259.00 195.04 259.53 194.00 C 262.35 193.84 265.17 193.93 268.00 193.81 C 270.57 193.00 272.73 191.24 275.31 190.44 C 280.34 189.36 284.36 185.79 289.37 184.62 C 290.78 182.65 292.96 181.77 295.34 181.73 C 296.65 179.82 298.38 178.23 300.63 177.53 C 302.47 176.20 304.50 175.15 306.74 174.68 C 307.47 174.13 308.20 173.59 308.94 173.04 C 310.07 173.01 311.20 172.98 312.33 172.96 C 316.67 169.55 322.54 168.94 326.58 165.11 C 330.66 164.58 334.66 163.41 338.79 163.34 C 342.19 163.07 345.59 162.63 348.87 161.66 C 354.31 159.99 360.09 162.27 365.52 160.48 C 370.02 158.86 375.01 159.37 379.41 157.36 C 381.53 156.21 383.96 156.73 386.26 156.55 C 386.76 156.99 387.77 157.85 388.28 158.29 C 393.96 156.24 399.87 155.15 405.83 154.28 C 408.48 155.21 411.25 156.18 414.01 155.03 C 415.69 151.00 415.24 146.47 412.84 142.83 C 404.58 145.03 396.18 146.64 387.90 148.74 C 384.31 149.14 380.66 150.69 377.09 149.37 C 375.67 149.46 374.25 149.56 372.85 149.65 C 372.91 148.28 372.97 146.90 373.04 145.53 C 374.10 144.75 375.15 143.94 376.18 143.10 C 374.75 141.16 372.12 142.22 370.52 143.34 C 368.33 145.27 366.87 147.88 364.63 149.75 C 361.10 152.33 356.42 150.03 352.53 151.62 C 346.97 153.69 341.07 154.32 335.17 154.36 C 330.68 156.10 325.89 156.83 321.29 158.27 C 321.20 157.53 321.01 156.05 320.91 155.31 C 322.03 154.70 323.15 154.08 324.28 153.47 C 323.76 152.62 323.24 151.77 322.72 150.93 C 319.41 154.26 317.35 158.67 313.61 161.59 C 314.33 157.04 317.29 153.38 320.36 150.13 C 319.91 148.96 319.66 147.42 318.02 147.83 C 314.28 152.47 311.36 157.87 309.68 163.61 C 299.57 168.73 290.08 175.11 279.45 179.20 C 276.42 181.96 273.23 184.57 269.85 186.90 C 267.74 185.77 265.52 184.88 263.31 183.99 C 263.04 184.20 262.51 184.62 262.24 184.82 C 262.01 184.49 261.54 183.82 261.31 183.48 C 259.59 183.08 257.89 182.62 256.20 182.11 C 250.73 179.76 247.64 173.86 245.44 168.61 C 247.56 169.27 249.68 169.96 251.85 170.47 C 250.44 166.56 247.17 163.63 246.24 159.48 C 248.17 159.70 250.09 159.92 252.03 160.13 C 248.65 154.15 241.92 150.15 240.61 143.05 C 243.76 143.12 246.85 143.78 249.97 144.17 C 250.00 143.50 250.06 142.16 250.09 141.49 C 250.84 140.74 251.60 139.98 252.35 139.22 C 251.15 138.19 249.97 137.16 248.80 136.11 C 251.97 136.46 255.13 136.96 258.33 137.16 C 258.67 135.92 259.00 134.68 259.32 133.44 C 256.95 133.17 254.56 132.97 252.19 132.73 C 252.37 131.53 252.58 130.33 252.81 129.14 C 255.43 129.27 258.03 129.69 260.66 129.82 C 261.74 128.93 262.61 127.83 263.45 126.71 C 261.32 124.92 258.40 126.23 255.92 125.86 C 257.73 124.13 262.37 124.26 261.96 121.22 C 260.65 120.45 259.31 119.74 257.96 119.06 C 258.32 111.98 259.74 104.92 261.53 98.07 C 261.21 96.11 261.00 94.15 260.84 92.18 C 260.35 91.98 259.37 91.59 258.88 91.39 C 260.27 89.92 262.21 87.68 259.70 86.10 C 261.31 84.69 264.90 84.01 263.83 81.20 C 262.05 81.72 260.39 82.54 258.68 83.24 C 258.77 82.55 258.93 81.17 259.01 80.48 C 259.51 80.00 260.52 79.05 261.02 78.58 C 261.11 76.54 260.79 74.43 261.33 72.44 C 266.16 67.54 273.85 63.73 274.17 55.99 C 276.00 54.55 278.10 53.46 279.77 51.82 C 280.24 50.13 280.48 48.38 280.86 46.66 C 283.55 44.97 285.79 42.61 288.75 41.34 C 289.31 40.56 289.88 39.78 290.45 39.00 C 289.77 36.20 290.65 33.32 292.18 30.95 C 294.27 30.58 296.40 30.87 298.52 30.90 C 301.54 29.01 300.99 25.39 301.33 22.32 C 297.73 19.61 293.68 17.58 289.82 15.28 C 288.60 17.64 287.26 19.94 285.89 22.22 C 286.06 22.80 286.40 23.95 286.56 24.53 C 284.08 28.35 281.98 32.47 278.67 35.68 C 275.63 38.73 275.84 43.72 272.30 46.31 C 270.34 48.01 269.29 50.43 267.93 52.60 C 264.35 53.87 262.48 57.28 262.81 61.01 C 261.95 62.06 261.09 63.11 260.24 64.17 C 259.73 63.60 258.71 62.45 258.20 61.88 C 256.77 65.16 257.74 69.23 255.20 72.00 C 254.11 73.37 252.80 74.53 251.53 75.72 C 251.19 73.88 250.84 72.05 250.47 70.23 C 247.64 72.03 249.41 75.54 249.43 78.21 C 249.06 86.40 248.88 94.70 250.27 102.82 C 251.09 106.72 250.26 110.82 251.71 114.62 C 251.83 115.25 252.08 116.51 252.20 117.15 C 249.49 118.69 246.61 120.00 243.49 120.43 C 243.16 117.38 243.57 114.25 242.78 111.25 C 241.05 106.96 238.33 103.09 235.13 99.78 C 230.86 96.45 225.46 95.03 220.29 93.76 C 220.00 90.91 218.24 88.70 216.62 86.47 C 215.29 85.18 214.20 83.68 213.41 82.00 C 213.12 82.00 212.52 82.00 212.22 82.00 C 212.34 83.82 212.48 85.65 212.45 87.48 C 209.45 87.62 209.74 84.42 210.18 82.37 C 211.30 79.38 213.78 77.13 214.84 74.13 C 215.53 72.29 212.99 69.17 211.33 71.07 C 207.89 73.55 208.15 78.91 204.22 80.75 C 204.01 82.08 203.85 83.43 203.52 84.74 C 202.22 85.06 200.88 85.17 199.56 85.30 C 199.17 84.72 198.39 83.55 198.00 82.97 C 198.00 81.78 198.00 80.58 198.01 79.39 C 199.75 77.64 201.18 75.60 201.59 73.11 C 200.02 73.30 198.46 73.47 196.90 73.65 C 196.60 72.11 196.44 70.53 195.87 69.06 C 193.86 67.75 192.52 69.73 191.19 70.95 C 191.59 73.64 192.15 76.33 192.09 79.07 C 191.58 81.91 190.57 84.65 190.00 87.49 C 189.88 86.11 189.74 84.73 189.60 83.35 C 187.73 83.57 185.88 83.94 184.18 84.74 C 183.94 86.67 184.17 88.75 183.36 90.57 C 182.04 92.21 179.70 91.74 177.87 92.09 C 172.66 92.26 168.57 95.93 164.11 98.17 C 162.00 101.34 157.65 103.68 157.94 107.94 C 157.84 109.88 158.45 111.72 159.00 113.55 C 161.06 116.29 163.90 118.25 166.20 120.73 C 168.40 123.28 165.20 125.93 164.32 128.31 C 162.63 127.10 160.97 125.86 159.26 124.69 C 156.85 120.49 155.03 115.93 151.94 112.16 C 151.37 106.13 154.83 100.82 155.23 94.93 C 155.83 91.96 156.50 88.97 155.98 85.94 C 155.46 83.40 156.65 81.07 157.85 78.93 C 156.41 76.03 156.41 72.88 157.03 69.77 C 153.75 67.17 154.06 62.97 153.15 59.30 C 152.20 58.85 151.26 58.40 150.32 57.95 C 150.05 55.42 149.03 53.10 147.61 51.02 C 147.92 45.82 142.36 43.94 140.09 40.01 C 139.84 38.35 140.52 36.75 140.84 35.15 C 139.49 33.03 137.84 31.12 136.00 29.41 C 136.00 28.21 136.01 27.00 136.02 25.80 C 133.65 24.67 131.11 24.03 128.55 23.58 C 128.89 21.80 129.25 20.03 129.79 18.30 C 129.87 17.14 129.94 15.97 130.01 14.80 C 128.00 12.48 126.70 9.65 126.33 6.60 C 124.32 7.10 122.32 7.64 120.32 8.16 C 120.02 6.59 119.71 5.02 119.35 3.47 C 119.86 2.59 120.38 1.72 120.89 0.84 C 116.09 -0.13 112.51 3.26 108.49 5.18 C 108.85 7.92 109.56 10.59 110.46 13.20 C 109.90 15.68 110.72 18.13 111.11 20.56 C 113.48 22.48 115.13 25.01 116.39 27.75 C 116.88 27.96 117.86 28.38 118.35 28.59 C 120.13 27.97 122.02 26.65 123.90 27.82 C 125.59 29.31 124.80 31.82 125.13 33.80 C 128.96 36.95 131.75 41.09 135.30 44.52 C 136.86 49.52 139.79 53.97 144.15 56.95 C 144.30 59.86 143.52 62.60 142.09 65.11 C 143.05 68.94 146.23 71.55 147.89 75.02 C 148.23 82.12 145.16 88.99 145.86 96.14 C 145.01 102.00 147.06 107.96 145.57 113.75 C 143.73 112.71 141.97 111.51 140.04 110.64 C 139.85 111.79 139.75 112.96 139.69 114.14 C 141.81 115.34 143.90 116.60 145.98 117.89 C 144.85 118.10 143.74 118.33 142.63 118.59 C 144.14 120.22 146.17 121.18 148.11 122.21 C 146.77 123.17 145.45 124.14 144.19 125.20 C 146.21 125.77 148.25 126.26 150.28 126.80 C 149.69 127.51 148.51 128.92 147.92 129.62 C 148.03 130.22 148.26 131.40 148.37 132.00 C 146.39 131.89 144.41 131.79 142.43 131.77 C 143.00 133.56 143.91 135.58 146.04 135.84 C 148.93 136.00 151.86 135.68 154.74 136.12 C 155.89 137.20 156.53 138.68 157.10 140.12 C 154.54 144.79 150.31 148.36 148.11 153.30 C 147.94 157.34 147.15 161.37 147.62 165.43 C 149.31 164.29 150.88 163.00 152.51 161.78 C 151.25 166.00 147.25 168.32 145.23 172.05 C 143.39 175.29 141.47 178.48 139.31 181.51 C 137.96 183.75 135.05 182.86 132.89 183.13 C 132.31 183.75 131.72 184.37 131.14 185.00 C 130.00 184.99 128.85 184.99 127.71 185.00 C 125.68 186.92 123.61 188.88 121.17 190.26 C 119.93 189.00 118.88 187.57 117.78 186.20 C 109.07 186.65 102.22 180.57 95.47 175.97 C 94.93 176.26 93.85 176.84 93.32 177.13 C 92.14 176.40 90.96 175.69 89.79 174.97 C 89.44 175.12 88.75 175.44 88.40 175.59 C 86.32 173.83 83.95 172.50 81.56 171.22 C 78.28 173.85 76.15 169.14 72.76 170.53 C 72.10 169.55 71.46 168.56 70.73 167.65 C 69.28 167.87 67.95 168.52 66.61 169.08 C 64.79 169.20 62.97 169.40 61.15 169.62 C 54.96 169.78 49.25 172.41 43.17 173.12 C 42.94 173.70 42.50 174.86 42.28 175.44 C 41.16 174.63 40.05 173.83 38.93 173.03 C 37.10 174.26 35.36 175.63 33.64 177.01 C 28.90 177.27 24.07 176.35 19.41 177.33 C 18.42 178.74 17.73 180.33 16.94 181.86 C 14.99 181.52 13.04 181.21 11.08 180.94 C 10.17 179.89 9.26 178.84 8.35 177.79 C 7.76 179.45 7.17 181.12 6.61 182.79 C 5.84 182.42 4.28 181.69 3.51 181.32 C 2.30 182.76 1.19 184.29 0.21 185.90 C 0.86 188.47 1.50 191.04 2.29 193.58 C 4.04 194.67 5.82 195.74 7.63 196.73 C 10.68 195.62 13.31 193.76 15.97 191.97 C 18.54 190.82 21.17 189.75 23.24 187.77 C 24.96 189.05 26.80 190.16 28.69 191.16 C 30.88 189.20 33.46 187.78 35.89 186.15 C 39.96 186.80 43.34 183.49 47.35 184.58 C 49.38 184.32 50.84 182.30 52.96 182.08 C 57.70 181.49 61.31 178.05 65.81 176.70 C 65.50 178.53 65.15 180.36 65.16 182.22 C 66.66 181.60 68.07 180.79 69.49 180.02 C 70.88 180.92 72.25 181.85 73.58 182.85 C 75.86 182.92 78.13 183.11 80.39 183.44 C 79.99 184.40 79.56 185.34 79.22 186.33 L 79.57 186.39 C 82.25 186.25 84.94 186.81 87.59 186.07 C 88.99 187.36 90.26 188.78 91.53 190.21 C 92.60 189.84 93.67 189.48 94.75 189.11 C 96.90 192.52 101.05 192.09 104.48 193.07 C 105.38 193.71 106.29 194.34 107.20 194.98 C 109.69 194.55 112.40 193.53 114.71 195.11 C 116.62 196.37 118.84 195.79 120.93 195.45 C 121.00 196.77 121.07 198.10 121.16 199.44 C 122.55 199.00 123.94 198.53 125.31 198.01 C 125.95 198.27 126.58 198.53 127.22 198.80 C 129.03 198.32 130.88 198.01 132.73 197.77 C 133.91 197.19 135.10 196.63 136.30 196.07 C 135.90 197.91 135.41 199.72 134.90 201.52 C 134.04 202.79 133.19 204.08 132.34 205.36 C 131.03 209.39 127.36 211.90 125.53 215.63 C 122.00 222.26 117.31 228.19 114.02 234.96 C 112.27 238.49 110.29 241.91 108.66 245.50 C 103.21 252.73 100.23 261.61 94.30 268.47 C 92.67 271.62 91.44 275.04 89.11 277.77 C 89.06 278.18 88.96 279.00 88.91 279.40 C 86.09 283.59 83.94 288.17 81.34 292.50 C 79.07 296.04 75.76 299.27 75.75 303.78 C 74.88 304.66 74.01 305.53 73.14 306.40 C 71.19 312.76 69.47 319.19 67.27 325.48 C 65.22 332.80 63.00 340.15 62.67 347.80 C 60.90 353.07 64.96 358.16 63.53 363.46 C 65.50 366.76 66.90 370.30 67.93 373.99 C 70.40 377.54 73.48 380.78 76.93 383.39 C 80.07 383.21 83.20 382.85 86.35 382.84 C 89.38 381.24 92.47 379.67 95.79 378.75 C 100.50 377.42 104.44 374.41 108.52 371.84 C 110.10 369.53 112.65 368.36 114.90 366.87 C 117.68 365.13 119.68 362.44 122.30 360.51 C 127.10 357.25 129.80 351.58 135.18 349.09 C 137.58 355.56 134.99 362.45 136.98 368.95 C 136.14 371.20 135.23 373.50 135.09 375.93 C 135.63 383.18 135.01 390.48 134.27 397.71 C 133.42 398.90 132.18 399.74 131.12 400.74 C 131.87 403.77 132.26 406.97 134.17 409.56 C 136.68 409.21 139.19 409.47 141.64 410.02 C 142.35 408.87 143.06 407.72 143.79 406.58 C 144.12 405.64 144.46 404.70 144.81 403.77 C 143.51 398.25 144.25 392.54 143.77 386.95 C 143.41 383.44 144.87 380.17 145.45 376.79 C 145.43 373.11 143.92 369.49 144.64 365.81 C 144.91 363.09 143.67 360.35 144.76 357.67 C 143.29 353.31 141.82 348.74 142.06 344.09 C 144.10 340.65 147.53 338.24 150.46 335.58 C 155.85 332.23 158.45 326.14 163.02 321.93 C 164.78 320.19 166.51 318.39 168.62 317.07 C 169.14 320.94 168.74 324.90 169.67 328.72 C 170.11 328.16 170.99 327.03 171.43 326.47 C 172.14 326.73 173.57 327.26 174.29 327.52 C 173.87 323.26 173.46 318.45 176.92 315.24 C 178.15 322.14 174.09 329.20 177.63 335.78 C 178.74 334.56 179.75 333.26 180.74 331.94 C 183.88 333.46 187.47 334.38 189.93 337.00 C 191.83 338.60 193.01 340.82 194.65 342.67 C 195.28 338.46 194.58 334.22 194.95 330.01 C 195.33 332.74 196.09 335.40 196.77 338.07 C 197.32 340.36 196.36 343.15 198.02 345.07 C 199.19 345.25 201.52 344.70 200.85 343.06 C 200.06 339.81 199.60 336.41 200.60 333.14 C 201.27 334.72 201.85 336.33 202.34 337.98 C 203.00 338.56 204.33 339.74 204.99 340.33 C 205.48 338.87 205.95 337.40 206.36 335.92 C 207.77 336.35 209.18 336.85 210.66 337.08 C 211.33 333.36 210.69 329.48 211.97 325.86 C 212.82 327.93 213.65 330.03 214.46 332.13 C 215.08 332.11 216.33 332.07 216.95 332.04 C 216.94 328.83 216.82 325.61 216.95 322.40 C 218.05 324.49 219.19 326.55 220.38 328.59 C 221.11 326.66 221.90 324.74 222.82 322.89 C 223.94 324.61 224.53 326.60 224.61 328.65 C 225.16 330.68 225.72 332.71 226.20 334.76 C 227.15 335.87 228.13 336.95 229.14 338.02 C 229.56 337.30 230.40 335.86 230.82 335.14 C 230.09 332.17 229.23 329.23 227.77 326.53 C 225.49 322.51 224.98 317.71 223.65 313.30 C 224.89 314.00 226.39 314.51 227.17 315.82 C 230.88 321.07 234.64 326.32 239.02 331.06 C 243.92 339.05 252.72 343.59 257.70 351.51 C 259.51 355.50 259.38 360.06 260.91 364.16 C 262.56 367.88 261.88 372.00 262.07 375.95 C 261.90 378.29 263.84 379.99 264.50 382.11 C 265.79 385.14 265.95 388.45 266.70 391.62 C 267.28 397.35 269.72 402.58 270.86 408.19 C 270.57 409.37 270.27 410.55 269.97 411.73 C 271.27 414.05 272.48 416.61 271.47 419.29 L 271.64 419.92 C 271.73 420.19 271.90 420.73 271.99 421.00 L 0.00 421.00 L 0.00 0.00 Z" />
<path fill="#000000" d=" M 108.49 5.18 C 112.51 3.26 116.09 -0.13 120.89 0.84 C 120.38 1.72 119.86 2.59 119.35 3.47 C 119.71 5.02 120.02 6.59 120.32 8.16 C 122.32 7.64 124.32 7.10 126.33 6.60 C 126.70 9.65 128.00 12.48 130.01 14.80 C 129.94 15.97 129.87 17.14 129.79 18.30 C 129.25 20.03 128.89 21.80 128.55 23.58 C 131.11 24.03 133.65 24.67 136.02 25.80 C 136.01 27.00 136.00 28.21 136.00 29.41 C 137.84 31.12 139.49 33.03 140.84 35.15 C 140.52 36.75 139.84 38.35 140.09 40.01 C 142.36 43.94 147.92 45.82 147.61 51.02 C 149.03 53.10 150.05 55.42 150.32 57.95 C 151.26 58.40 152.20 58.85 153.15 59.30 C 154.06 62.97 153.75 67.17 157.03 69.77 C 156.41 72.88 156.41 76.03 157.85 78.93 C 156.65 81.07 155.46 83.40 155.98 85.94 C 156.50 88.97 155.83 91.96 155.23 94.93 C 154.83 100.82 151.37 106.13 151.94 112.16 C 155.03 115.93 156.85 120.49 159.26 124.69 C 160.97 125.86 162.63 127.10 164.32 128.31 C 165.20 125.93 168.40 123.28 166.20 120.73 C 163.90 118.25 161.06 116.29 159.00 113.55 C 158.45 111.72 157.84 109.88 157.94 107.94 C 157.65 103.68 162.00 101.34 164.11 98.17 C 168.57 95.93 172.66 92.26 177.87 92.09 C 179.70 91.74 182.04 92.21 183.36 90.57 C 184.17 88.75 183.94 86.67 184.18 84.74 C 185.88 83.94 187.73 83.57 189.60 83.35 C 189.74 84.73 189.88 86.11 190.00 87.49 C 190.57 84.65 191.58 81.91 192.09 79.07 C 192.15 76.33 191.59 73.64 191.19 70.95 C 192.52 69.73 193.86 67.75 195.87 69.06 C 196.44 70.53 196.60 72.11 196.90 73.65 C 198.46 73.47 200.02 73.30 201.59 73.11 C 201.18 75.60 199.75 77.64 198.01 79.39 C 198.00 80.58 198.00 81.78 198.00 82.97 C 198.39 83.55 199.17 84.72 199.56 85.30 C 200.88 85.17 202.22 85.06 203.52 84.74 C 203.85 83.43 204.01 82.08 204.22 80.75 C 208.15 78.91 207.89 73.55 211.33 71.07 C 212.99 69.17 215.53 72.29 214.84 74.13 C 213.78 77.13 211.30 79.38 210.18 82.37 C 209.74 84.42 209.45 87.62 212.45 87.48 C 212.48 85.65 212.34 83.82 212.22 82.00 C 212.52 82.00 213.12 82.00 213.41 82.00 C 214.20 83.68 215.29 85.18 216.62 86.47 C 218.24 88.70 220.00 90.91 220.29 93.76 C 225.46 95.03 230.86 96.45 235.13 99.78 C 238.33 103.09 241.05 106.96 242.78 111.25 C 243.57 114.25 243.16 117.38 243.49 120.43 C 246.61 120.00 249.49 118.69 252.20 117.15 C 252.08 116.51 251.83 115.25 251.71 114.62 C 250.26 110.82 251.09 106.72 250.27 102.82 C 248.88 94.70 249.06 86.40 249.43 78.21 C 249.41 75.54 247.64 72.03 250.47 70.23 C 250.84 72.05 251.19 73.88 251.53 75.72 C 252.80 74.53 254.11 73.37 255.20 72.00 C 257.74 69.23 256.77 65.16 258.20 61.88 C 258.71 62.45 259.73 63.60 260.24 64.17 C 261.09 63.11 261.95 62.06 262.81 61.01 C 262.48 57.28 264.35 53.87 267.93 52.60 C 269.29 50.43 270.34 48.01 272.30 46.31 C 275.84 43.72 275.63 38.73 278.67 35.68 C 281.98 32.47 284.08 28.35 286.56 24.53 C 286.40 23.95 286.06 22.80 285.89 22.22 C 287.26 19.94 288.60 17.64 289.82 15.28 C 293.68 17.58 297.73 19.61 301.33 22.32 C 300.99 25.39 301.54 29.01 298.52 30.90 C 296.40 30.87 294.27 30.58 292.18 30.95 C 290.65 33.32 289.77 36.20 290.45 39.00 C 289.88 39.78 289.31 40.56 288.75 41.34 C 285.79 42.61 283.55 44.97 280.86 46.66 C 280.48 48.38 280.24 50.13 279.77 51.82 C 278.10 53.46 276.00 54.55 274.17 55.99 C 273.85 63.73 266.16 67.54 261.33 72.44 C 260.79 74.43 261.11 76.54 261.02 78.58 C 260.52 79.05 259.51 80.00 259.01 80.48 C 258.93 81.17 258.77 82.55 258.68 83.24 C 260.39 82.54 262.05 81.72 263.83 81.20 C 264.90 84.01 261.31 84.69 259.70 86.10 C 262.21 87.68 260.27 89.92 258.88 91.39 C 259.37 91.59 260.35 91.98 260.84 92.18 C 261.00 94.15 261.21 96.11 261.53 98.07 C 259.74 104.92 258.32 111.98 257.96 119.06 C 259.31 119.74 260.65 120.45 261.96 121.22 C 262.37 124.26 257.73 124.13 255.92 125.86 C 258.40 126.23 261.32 124.92 263.45 126.71 C 262.61 127.83 261.74 128.93 260.66 129.82 C 258.03 129.69 255.43 129.27 252.81 129.14 C 252.58 130.33 252.37 131.53 252.19 132.73 C 254.56 132.97 256.95 133.17 259.32 133.44 C 259.00 134.68 258.67 135.92 258.33 137.16 C 255.13 136.96 251.97 136.46 248.80 136.11 C 249.97 137.16 251.15 138.19 252.35 139.22 C 251.60 139.98 250.84 140.74 250.09 141.49 C 250.06 142.16 250.00 143.50 249.97 144.17 C 246.85 143.78 243.76 143.12 240.61 143.05 C 241.92 150.15 248.65 154.15 252.03 160.13 C 250.09 159.92 248.17 159.70 246.24 159.48 C 247.17 163.63 250.44 166.56 251.85 170.47 C 249.68 169.96 247.56 169.27 245.44 168.61 C 247.64 173.86 250.73 179.76 256.20 182.11 C 257.89 182.62 259.59 183.08 261.31 183.48 C 261.54 183.82 262.01 184.49 262.24 184.82 C 262.51 184.62 263.04 184.20 263.31 183.99 C 265.52 184.88 267.74 185.77 269.85 186.90 C 273.23 184.57 276.42 181.96 279.45 179.20 C 290.08 175.11 299.57 168.73 309.68 163.61 C 311.36 157.87 314.28 152.47 318.02 147.83 C 319.66 147.42 319.91 148.96 320.36 150.13 C 317.29 153.38 314.33 157.04 313.61 161.59 C 317.35 158.67 319.41 154.26 322.72 150.93 C 323.24 151.77 323.76 152.62 324.28 153.47 C 323.15 154.08 322.03 154.70 320.91 155.31 C 321.01 156.05 321.20 157.53 321.29 158.27 C 325.89 156.83 330.68 156.10 335.17 154.36 C 341.07 154.32 346.97 153.69 352.53 151.62 C 356.42 150.03 361.10 152.33 364.63 149.75 C 366.87 147.88 368.33 145.27 370.52 143.34 C 372.12 142.22 374.75 141.16 376.18 143.10 C 375.15 143.94 374.10 144.75 373.04 145.53 C 372.97 146.90 372.91 148.28 372.85 149.65 C 374.25 149.56 375.67 149.46 377.09 149.37 C 380.66 150.69 384.31 149.14 387.90 148.74 C 396.18 146.64 404.58 145.03 412.84 142.83 C 415.24 146.47 415.69 151.00 414.01 155.03 C 411.25 156.18 408.48 155.21 405.83 154.28 C 399.87 155.15 393.96 156.24 388.28 158.29 C 387.77 157.85 386.76 156.99 386.26 156.55 C 383.96 156.73 381.53 156.21 379.41 157.36 C 375.01 159.37 370.02 158.86 365.52 160.48 C 360.09 162.27 354.31 159.99 348.87 161.66 C 345.59 162.63 342.19 163.07 338.79 163.34 C 334.66 163.41 330.66 164.58 326.58 165.11 C 322.54 168.94 316.67 169.55 312.33 172.96 C 311.20 172.98 310.07 173.01 308.94 173.04 C 308.20 173.59 307.47 174.13 306.74 174.68 C 304.50 175.15 302.47 176.20 300.63 177.53 C 298.38 178.23 296.65 179.82 295.34 181.73 C 292.96 181.77 290.78 182.65 289.37 184.62 C 284.36 185.79 280.34 189.36 275.31 190.44 C 272.73 191.24 270.57 193.00 268.00 193.81 C 265.17 193.93 262.35 193.84 259.53 194.00 C 259.00 195.04 258.47 196.08 257.95 197.13 C 262.46 202.92 265.29 209.82 269.89 215.54 C 269.93 216.01 270.01 216.97 270.05 217.44 C 274.26 221.83 275.31 228.21 279.68 232.41 C 282.54 235.97 284.66 240.05 287.03 243.93 C 289.26 249.16 293.18 253.36 295.77 258.39 C 296.53 260.17 298.26 261.16 299.56 262.50 C 300.17 264.47 300.53 266.57 301.77 268.29 C 304.15 271.69 304.65 275.96 306.70 279.54 C 308.12 285.77 312.36 290.81 314.00 296.96 C 316.51 303.07 319.16 309.13 321.36 315.36 C 321.90 318.29 323.28 320.93 324.81 323.46 C 325.45 328.91 328.22 333.82 328.72 339.31 C 329.09 344.12 331.43 348.51 331.73 353.34 C 332.05 354.79 332.45 356.28 332.24 357.80 C 331.58 363.38 331.71 369.23 329.41 374.46 C 326.86 378.28 325.33 382.88 321.56 385.77 C 317.98 389.38 312.86 390.69 307.99 391.40 C 305.16 391.81 303.10 389.48 300.77 388.33 C 294.88 385.41 291.30 379.45 285.56 376.32 C 282.06 374.27 279.75 370.78 276.38 368.55 C 272.95 366.21 271.12 362.05 267.20 360.39 C 267.96 364.64 267.85 369.39 270.92 372.81 C 270.98 374.75 270.88 376.72 271.19 378.65 C 272.32 382.17 275.08 384.74 277.13 387.71 C 276.31 388.84 275.37 389.88 274.45 390.94 C 276.09 393.40 277.90 395.75 279.50 398.24 C 278.23 400.53 277.34 403.02 278.70 405.49 C 280.04 406.02 281.40 406.59 282.73 407.20 C 282.95 409.39 283.20 411.59 283.62 413.77 L 285.71 412.41 C 285.99 414.01 285.80 416.36 283.92 416.84 C 281.40 417.07 279.60 419.32 277.00 419.08 C 275.22 418.88 273.52 419.48 272.50 421.00 L 271.99 421.00 C 271.90 420.73 271.73 420.19 271.64 419.92 L 271.47 419.29 C 272.48 416.61 271.27 414.05 269.97 411.73 C 270.27 410.55 270.57 409.37 270.86 408.19 C 269.72 402.58 267.28 397.35 266.70 391.62 C 265.95 388.45 265.79 385.14 264.50 382.11 C 263.84 379.99 261.90 378.29 262.07 375.95 C 261.88 372.00 262.56 367.88 260.91 364.16 C 259.38 360.06 259.51 355.50 257.70 351.51 C 252.72 343.59 243.92 339.05 239.02 331.06 C 234.64 326.32 230.88 321.07 227.17 315.82 C 226.39 314.51 224.89 314.00 223.65 313.30 C 224.98 317.71 225.49 322.51 227.77 326.53 C 229.23 329.23 230.09 332.17 230.82 335.14 C 230.40 335.86 229.56 337.30 229.14 338.02 C 228.13 336.95 227.15 335.87 226.20 334.76 C 225.72 332.71 225.16 330.68 224.61 328.65 C 224.53 326.60 223.94 324.61 222.82 322.89 C 221.90 324.74 221.11 326.66 220.38 328.59 C 219.19 326.55 218.05 324.49 216.95 322.40 C 216.82 325.61 216.94 328.83 216.95 332.04 C 216.33 332.07 215.08 332.11 214.46 332.13 C 213.65 330.03 212.82 327.93 211.97 325.86 C 210.69 329.48 211.33 333.36 210.66 337.08 C 209.18 336.85 207.77 336.35 206.36 335.92 C 205.95 337.40 205.48 338.87 204.99 340.33 C 204.33 339.74 203.00 338.56 202.34 337.98 C 201.85 336.33 201.27 334.72 200.60 333.14 C 199.60 336.41 200.06 339.81 200.85 343.06 C 201.52 344.70 199.19 345.25 198.02 345.07 C 196.36 343.15 197.32 340.36 196.77 338.07 C 196.09 335.40 195.33 332.74 194.95 330.01 C 194.58 334.22 195.28 338.46 194.65 342.67 C 193.01 340.82 191.83 338.60 189.93 337.00 C 187.47 334.38 183.88 333.46 180.74 331.94 C 179.75 333.26 178.74 334.56 177.63 335.78 C 174.09 329.20 178.15 322.14 176.92 315.24 C 173.46 318.45 173.87 323.26 174.29 327.52 C 173.57 327.26 172.14 326.73 171.43 326.47 C 170.99 327.03 170.11 328.16 169.67 328.72 C 168.74 324.90 169.14 320.94 168.62 317.07 C 166.51 318.39 164.78 320.19 163.02 321.93 C 158.45 326.14 155.85 332.23 150.46 335.58 C 147.53 338.24 144.10 340.65 142.06 344.09 C 141.82 348.74 143.29 353.31 144.76 357.67 C 143.67 360.35 144.91 363.09 144.64 365.81 C 143.92 369.49 145.43 373.11 145.45 376.79 C 144.87 380.17 143.41 383.44 143.77 386.95 C 144.25 392.54 143.51 398.25 144.81 403.77 C 144.46 404.70 144.12 405.64 143.79 406.58 C 143.06 407.72 142.35 408.87 141.64 410.02 C 139.19 409.47 136.68 409.21 134.17 409.56 C 132.26 406.97 131.87 403.77 131.12 400.74 C 132.18 399.74 133.42 398.90 134.27 397.71 C 135.01 390.48 135.63 383.18 135.09 375.93 C 135.23 373.50 136.14 371.20 136.98 368.95 C 134.99 362.45 137.58 355.56 135.18 349.09 C 129.80 351.58 127.10 357.25 122.30 360.51 C 119.68 362.44 117.68 365.13 114.90 366.87 C 112.65 368.36 110.10 369.53 108.52 371.84 C 104.44 374.41 100.50 377.42 95.79 378.75 C 92.47 379.67 89.38 381.24 86.35 382.84 C 83.20 382.85 80.07 383.21 76.93 383.39 C 73.48 380.78 70.40 377.54 67.93 373.99 C 66.90 370.30 65.50 366.76 63.53 363.46 C 64.96 358.16 60.90 353.07 62.67 347.80 C 63.00 340.15 65.22 332.80 67.27 325.48 C 69.47 319.19 71.19 312.76 73.14 306.40 C 74.01 305.53 74.88 304.66 75.75 303.78 C 75.76 299.27 79.07 296.04 81.34 292.50 C 83.94 288.17 86.09 283.59 88.91 279.40 C 88.96 279.00 89.06 278.18 89.11 277.77 C 91.44 275.04 92.67 271.62 94.30 268.47 C 100.23 261.61 103.21 252.73 108.66 245.50 C 110.29 241.91 112.27 238.49 114.02 234.96 C 117.31 228.19 122.00 222.26 125.53 215.63 C 127.36 211.90 131.03 209.39 132.34 205.36 C 133.19 204.08 134.04 202.79 134.90 201.52 C 135.41 199.72 135.90 197.91 136.30 196.07 C 135.10 196.63 133.91 197.19 132.73 197.77 C 130.88 198.01 129.03 198.32 127.22 198.80 C 126.58 198.53 125.95 198.27 125.31 198.01 C 123.94 198.53 122.55 199.00 121.16 199.44 C 121.07 198.10 121.00 196.77 120.93 195.45 C 118.84 195.79 116.62 196.37 114.71 195.11 C 112.40 193.53 109.69 194.55 107.20 194.98 C 106.29 194.34 105.38 193.71 104.48 193.07 C 101.05 192.09 96.90 192.52 94.75 189.11 C 93.67 189.48 92.60 189.84 91.53 190.21 C 90.26 188.78 88.99 187.36 87.59 186.07 C 84.94 186.81 82.25 186.25 79.57 186.39 L 79.22 186.33 C 79.56 185.34 79.99 184.40 80.39 183.44 C 78.13 183.11 75.86 182.92 73.58 182.85 C 72.25 181.85 70.88 180.92 69.49 180.02 C 68.07 180.79 66.66 181.60 65.16 182.22 C 65.15 180.36 65.50 178.53 65.81 176.70 C 61.31 178.05 57.70 181.49 52.96 182.08 C 50.84 182.30 49.38 184.32 47.35 184.58 C 43.34 183.49 39.96 186.80 35.89 186.15 C 33.46 187.78 30.88 189.20 28.69 191.16 C 26.80 190.16 24.96 189.05 23.24 187.77 C 21.17 189.75 18.54 190.82 15.97 191.97 C 13.31 193.76 10.68 195.62 7.63 196.73 C 5.82 195.74 4.04 194.67 2.29 193.58 C 1.50 191.04 0.86 188.47 0.21 185.90 C 1.19 184.29 2.30 182.76 3.51 181.32 C 4.28 181.69 5.84 182.42 6.61 182.79 C 7.17 181.12 7.76 179.45 8.35 177.79 C 9.26 178.84 10.17 179.89 11.08 180.94 C 13.04 181.21 14.99 181.52 16.94 181.86 C 17.73 180.33 18.42 178.74 19.41 177.33 C 24.07 176.35 28.90 177.27 33.64 177.01 C 35.36 175.63 37.10 174.26 38.93 173.03 C 40.05 173.83 41.16 174.63 42.28 175.44 C 42.50 174.86 42.94 173.70 43.17 173.12 C 49.25 172.41 54.96 169.78 61.15 169.62 C 62.97 169.40 64.79 169.20 66.61 169.08 C 67.95 168.52 69.28 167.87 70.73 167.65 C 71.46 168.56 72.10 169.55 72.76 170.53 C 76.15 169.14 78.28 173.85 81.56 171.22 C 83.95 172.50 86.32 173.83 88.40 175.59 C 88.75 175.44 89.44 175.12 89.79 174.97 C 90.96 175.69 92.14 176.40 93.32 177.13 C 93.85 176.84 94.93 176.26 95.47 175.97 C 102.22 180.57 109.07 186.65 117.78 186.20 C 118.88 187.57 119.93 189.00 121.17 190.26 C 123.61 188.88 125.68 186.92 127.71 185.00 C 128.85 184.99 130.00 184.99 131.14 185.00 C 131.72 184.37 132.31 183.75 132.89 183.13 C 135.05 182.86 137.96 183.75 139.31 181.51 C 141.47 178.48 143.39 175.29 145.23 172.05 C 147.25 168.32 151.25 166.00 152.51 161.78 C 150.88 163.00 149.31 164.29 147.62 165.43 C 147.15 161.37 147.94 157.34 148.11 153.30 C 150.31 148.36 154.54 144.79 157.10 140.12 C 156.53 138.68 155.89 137.20 154.74 136.12 C 151.86 135.68 148.93 136.00 146.04 135.84 C 143.91 135.58 143.00 133.56 142.43 131.77 C 144.41 131.79 146.39 131.89 148.37 132.00 C 148.26 131.40 148.03 130.22 147.92 129.62 C 148.51 128.92 149.69 127.51 150.28 126.80 C 148.25 126.26 146.21 125.77 144.19 125.20 C 145.45 124.14 146.77 123.17 148.11 122.21 C 146.17 121.18 144.14 120.22 142.63 118.59 C 143.74 118.33 144.85 118.10 145.98 117.89 C 143.90 116.60 141.81 115.34 139.69 114.14 C 139.75 112.96 139.85 111.79 140.04 110.64 C 141.97 111.51 143.73 112.71 145.57 113.75 C 147.06 107.96 145.01 102.00 145.86 96.14 C 145.16 88.99 148.23 82.12 147.89 75.02 C 146.23 71.55 143.05 68.94 142.09 65.11 C 143.52 62.60 144.30 59.86 144.15 56.95 C 139.79 53.97 136.86 49.52 135.30 44.52 C 131.75 41.09 128.96 36.95 125.13 33.80 C 124.80 31.82 125.59 29.31 123.90 27.82 C 122.02 26.65 120.13 27.97 118.35 28.59 C 117.86 28.38 116.88 27.96 116.39 27.75 C 115.13 25.01 113.48 22.48 111.11 20.56 C 110.72 18.13 109.90 15.68 110.46 13.20 C 109.56 10.59 108.85 7.92 108.49 5.18 Z" />
<path fill="#ffffff" d=" M 119.13 16.58 C 121.15 16.32 123.56 16.64 122.97 19.36 C 121.29 19.07 119.94 18.11 119.13 16.58 Z" />
<path fill="#ffffff" d=" M 252.94 82.26 C 253.41 82.57 254.37 83.18 254.84 83.49 C 254.35 85.42 253.81 87.33 253.32 89.25 C 253.18 86.92 253.02 84.59 252.94 82.26 Z" />
<path fill="#ffffff" d=" M 150.13 85.89 C 150.54 85.75 151.35 85.46 151.76 85.32 L 152.04 86.90 L 150.81 86.05 C 150.37 89.25 151.62 92.69 150.19 95.70 C 150.05 92.43 150.41 89.16 150.13 85.89 Z" />
<path fill="#ffffff" d=" M 191.10 89.00 C 192.96 88.47 194.90 87.57 196.87 88.23 C 200.36 89.25 204.02 89.03 207.62 89.28 C 208.23 89.72 209.45 90.60 210.06 91.04 C 208.19 94.11 204.81 95.87 203.03 98.98 C 202.31 100.84 204.31 101.35 205.55 101.96 C 204.77 102.31 203.99 102.66 203.21 103.02 C 199.24 98.82 192.53 97.67 190.01 92.04 C 190.34 91.01 190.70 90.00 191.10 89.00 Z" />
<path fill="#ffffff" d=" M 170.47 99.55 C 174.20 98.57 177.71 96.61 181.67 96.89 C 182.01 97.41 182.68 98.45 183.01 98.97 C 183.00 100.77 182.99 102.58 182.97 104.38 C 178.93 107.23 173.98 107.08 169.42 108.54 C 166.50 109.32 162.74 109.82 160.61 107.16 C 164.68 105.56 166.28 100.87 170.47 99.55 Z" />
<path fill="#ffffff" d=" M 217.81 100.57 C 219.51 99.97 221.15 98.61 223.06 99.02 C 229.78 101.33 236.50 105.85 238.38 113.11 C 233.21 113.19 228.39 111.10 223.52 109.64 C 220.80 108.76 217.57 107.60 216.51 104.65 C 217.21 104.18 218.59 103.23 219.28 102.76 C 218.79 102.03 218.30 101.30 217.81 100.57 Z" />
<path fill="#ffffff" d=" M 254.18 102.72 C 255.50 102.96 255.71 103.68 254.84 104.87 C 253.50 104.64 253.28 103.93 254.18 102.72 Z" />
<path fill="#ffffff" d=" M 208.69 106.91 C 212.10 105.90 213.04 109.78 215.86 110.36 C 217.96 110.70 220.10 111.40 221.45 113.16 C 219.72 112.86 218.11 112.16 216.68 111.16 C 215.88 111.13 215.13 111.29 214.42 111.66 C 217.64 115.04 221.98 119.11 226.89 118.82 C 225.94 117.48 224.35 116.68 223.21 115.49 C 224.90 115.52 226.59 115.59 228.29 115.61 C 228.36 115.69 228.52 115.86 228.60 115.95 C 228.93 116.25 229.59 116.85 229.92 117.15 L 230.18 117.50 C 231.49 117.85 232.69 118.44 233.79 119.28 C 233.10 119.79 232.42 120.30 231.74 120.81 C 230.92 120.34 229.29 119.39 228.47 118.91 L 228.67 119.98 C 228.76 120.69 228.93 122.10 229.01 122.81 C 226.35 123.03 223.49 122.69 221.37 124.66 C 220.58 124.49 219.02 124.15 218.24 123.99 C 219.19 123.18 220.14 122.35 221.09 121.52 C 219.50 120.78 217.89 120.10 216.26 119.48 L 215.98 120.54 L 217.41 120.63 C 217.00 121.42 216.59 122.21 216.18 123.00 C 214.18 121.87 212.29 120.55 210.74 118.84 C 211.55 118.79 213.16 118.69 213.96 118.64 C 214.01 118.11 214.11 117.04 214.15 116.51 C 217.52 117.33 220.26 119.50 223.24 121.15 C 220.60 118.27 216.82 116.80 214.25 113.82 C 212.14 113.75 210.15 114.34 208.45 115.61 C 207.25 116.32 206.12 117.12 205.01 117.95 C 204.13 117.97 202.37 118.02 201.49 118.04 C 200.89 115.60 201.48 112.84 200.12 110.64 C 196.04 111.07 198.58 116.51 197.35 119.22 C 194.17 117.98 192.57 114.83 189.95 112.87 C 188.32 113.60 186.86 114.64 185.34 115.56 C 183.35 114.46 181.18 114.04 178.91 114.34 C 179.96 113.48 181.09 112.74 182.27 112.06 C 183.46 109.25 186.76 110.21 189.13 109.58 C 191.36 109.10 193.70 108.63 195.77 109.99 C 197.43 109.48 198.94 108.48 200.64 108.11 C 203.39 109.17 206.81 109.79 208.69 106.91 Z" />
<path fill="#ffffff" d=" M 173.72 111.72 C 175.89 111.44 178.09 111.16 180.28 111.40 C 179.03 111.57 177.78 111.69 176.53 111.74 L 176.43 114.50 L 179.35 112.43 C 178.99 113.56 178.58 114.66 178.27 115.80 C 179.18 116.17 180.11 116.51 181.05 116.83 C 181.50 117.11 182.39 117.66 182.84 117.93 C 179.00 118.18 174.50 119.85 170.96 117.88 C 170.64 115.17 174.81 116.38 176.25 115.77 C 176.30 114.04 174.56 113.01 173.72 111.72 Z" />
<path fill="#ffffff" d=" M 182.82 118.62 C 182.78 117.64 182.76 116.65 182.73 115.67 C 184.98 115.92 187.52 115.48 189.41 117.06 C 187.26 117.78 185.04 118.23 182.82 118.62 Z" />
<path fill="#ffffff" d=" M 233.16 117.13 C 234.80 116.32 236.66 116.26 238.44 116.12 C 237.88 117.23 237.23 118.29 236.52 119.31 C 235.64 118.50 231.58 119.17 233.16 117.13 Z" />
<path fill="#ffffff" d=" M 170.59 120.72 C 175.12 118.95 180.02 120.02 184.65 118.84 C 187.45 118.82 190.28 118.33 193.02 119.16 C 192.93 119.92 192.73 121.43 192.64 122.18 C 193.88 122.28 195.13 122.39 196.38 122.48 C 193.64 123.03 190.90 123.57 188.13 123.97 C 188.24 123.25 188.45 121.82 188.56 121.10 C 184.27 121.43 179.96 120.92 175.69 121.47 C 173.95 121.68 172.25 121.12 170.59 120.72 Z" />
<path fill="#ffffff" d=" M 201.45 122.70 C 202.74 120.66 205.12 119.82 207.41 119.60 C 209.62 120.59 211.48 122.28 213.02 124.13 C 209.13 123.83 205.38 122.62 201.45 122.70 Z" />
<path fill="#ffffff" d=" M 230.45 126.74 C 233.31 122.78 238.98 122.58 242.57 119.39 C 242.73 120.53 242.85 121.67 242.92 122.82 C 240.85 126.54 237.50 129.23 234.48 132.12 C 234.05 131.82 233.21 131.22 232.79 130.92 C 233.47 129.67 234.15 128.43 234.83 127.19 C 233.73 127.07 231.54 126.85 230.45 126.74 Z" />
<path fill="#ffffff" d=" M 177.30 123.55 C 179.50 122.55 181.93 122.36 184.28 122.88 C 183.47 123.54 182.65 124.19 181.84 124.85 C 180.28 124.56 178.72 124.25 177.30 123.55 Z" />
<path fill="#ffffff" d=" M 249.58 123.01 C 250.20 123.00 251.43 122.99 252.05 122.99 C 252.01 123.67 251.93 125.05 251.89 125.74 C 251.19 125.90 249.80 126.21 249.10 126.36 C 249.05 126.89 248.95 127.95 248.91 128.48 C 248.17 129.91 247.50 131.37 246.80 132.81 C 245.54 133.28 244.28 133.76 243.02 134.22 C 242.48 135.48 241.99 136.74 241.51 138.02 C 240.83 138.03 239.48 138.04 238.80 138.04 C 238.58 136.38 237.12 134.22 238.67 132.82 C 240.20 131.35 241.33 128.48 243.93 129.48 C 243.91 128.84 243.88 127.58 243.86 126.94 C 245.83 125.73 247.81 124.52 249.58 123.01 Z" />
<path fill="#ffffff" d=" M 183.90 127.80 C 185.58 125.91 187.69 127.65 188.99 129.01 C 191.38 127.55 194.73 125.28 196.81 128.54 C 197.52 128.19 198.93 127.51 199.63 127.17 C 202.92 127.01 206.21 127.00 209.49 126.86 C 209.81 128.20 210.12 129.55 210.42 130.91 C 211.75 130.07 213.06 129.22 214.38 128.37 C 215.12 128.72 215.87 129.08 216.63 129.43 C 216.77 130.05 217.06 131.27 217.21 131.88 C 218.31 131.18 219.41 130.47 220.50 129.75 C 222.27 129.87 224.04 129.97 225.82 130.04 C 226.55 131.30 227.26 132.57 227.98 133.84 C 232.83 132.20 235.36 141.09 229.89 141.63 C 228.83 140.82 227.66 139.67 226.61 141.19 C 227.92 141.83 230.39 141.21 230.92 143.00 C 232.70 146.06 230.49 149.30 230.77 152.53 C 229.55 149.94 227.60 147.81 225.63 145.78 C 226.23 141.97 225.48 138.17 224.65 134.46 C 224.08 133.90 223.50 133.36 222.90 132.83 C 221.58 135.33 219.64 137.35 217.04 138.50 C 215.73 142.52 216.17 146.78 215.83 150.91 C 215.04 152.38 213.98 153.68 213.06 155.06 C 214.13 154.80 215.21 154.52 216.28 154.25 C 215.97 155.05 215.65 155.85 215.34 156.66 C 213.66 156.68 212.00 156.74 210.33 156.84 C 209.35 155.07 208.18 153.42 206.85 151.89 C 206.85 150.45 206.89 149.01 206.95 147.57 C 207.68 148.90 208.45 150.21 209.29 151.48 C 209.91 149.31 210.46 147.13 211.12 144.97 C 212.47 144.77 213.61 144.04 214.62 143.15 C 213.46 143.08 212.32 143.15 211.17 143.16 C 210.98 141.54 210.92 139.87 210.17 138.39 C 210.11 137.85 209.98 136.76 209.92 136.21 C 208.98 135.25 208.05 134.28 207.14 133.31 C 207.29 131.68 206.91 130.26 206.01 129.03 C 205.09 130.42 204.27 131.86 203.43 133.29 C 203.21 131.54 202.09 130.22 201.09 128.88 C 200.48 130.47 200.97 132.03 201.68 133.50 C 201.19 134.07 200.22 135.20 199.73 135.76 C 200.13 137.05 200.59 138.32 201.08 139.58 C 199.96 141.47 198.57 143.20 197.51 145.13 C 197.32 147.79 198.09 150.45 198.08 153.13 C 197.83 154.79 200.00 155.22 200.24 156.75 C 198.84 157.68 196.79 158.27 195.61 156.70 C 194.70 154.92 193.73 153.15 193.14 151.25 C 193.77 149.22 194.45 147.20 194.89 145.12 C 195.21 144.78 195.85 144.08 196.17 143.74 C 196.01 142.07 195.89 140.40 195.90 138.73 C 197.07 137.50 198.15 136.17 198.59 134.49 C 197.43 134.82 196.27 135.17 195.12 135.54 C 194.58 133.97 194.17 132.31 193.15 130.96 C 190.47 130.49 188.35 132.37 186.36 133.83 C 185.26 133.20 184.11 132.58 183.05 131.94 C 180.72 133.12 177.73 132.81 176.06 135.16 C 173.14 137.61 176.22 141.17 176.27 144.15 C 175.76 144.42 174.73 144.95 174.22 145.22 C 173.41 147.47 173.58 150.28 171.66 151.95 C 168.61 153.01 168.96 148.80 169.12 146.93 C 169.95 144.94 170.06 142.79 170.12 140.67 C 170.87 139.52 171.66 138.37 172.18 137.09 C 171.00 134.42 167.65 134.89 165.29 134.31 C 164.99 136.91 165.13 139.69 163.74 142.02 C 162.29 142.44 160.67 141.48 160.98 139.84 C 161.51 139.66 162.55 139.28 163.07 139.10 C 162.64 138.10 162.21 137.11 161.79 136.12 C 163.64 135.06 165.44 133.90 167.06 132.51 C 169.88 132.80 171.53 130.26 173.80 129.09 C 174.99 129.82 176.17 130.56 177.36 131.30 C 177.95 130.16 178.60 129.05 179.30 127.97 C 180.90 128.27 182.64 129.55 183.90 127.80 Z" />
<path fill="#ffffff" d=" M 158.20 130.28 C 160.14 129.19 161.25 133.40 159.20 133.68 C 157.72 133.45 157.25 131.30 158.20 130.28 Z" />
<path fill="#000000" d=" M 213.17 133.18 C 214.78 132.66 215.34 133.23 214.82 134.88 C 213.22 135.40 212.66 134.84 213.17 133.18 Z" />
<path fill="#ffffff" d=" M 184.90 133.00 C 185.69 134.30 186.92 135.45 187.09 137.03 C 185.99 140.69 183.73 144.14 184.07 148.12 C 184.29 149.48 182.91 150.25 182.31 151.28 C 180.44 148.47 180.43 144.66 183.03 142.29 C 182.62 138.98 181.92 135.42 184.90 133.00 Z" />
<path fill="#ffffff" d=" M 158.07 146.17 C 158.53 145.95 159.46 145.50 159.93 145.28 C 159.97 146.97 160.00 148.66 160.05 150.36 C 159.02 151.23 157.97 152.06 156.88 152.85 C 157.01 150.58 157.52 148.37 158.07 146.17 Z" />
<path fill="#ffffff" d=" M 185.58 147.37 C 188.10 149.81 187.45 154.35 185.31 156.90 C 183.83 156.05 182.42 155.09 181.09 154.02 C 183.28 152.28 185.33 150.37 185.58 147.37 Z" />
<path fill="#ffffff" d=" M 173.74 151.17 C 173.47 149.90 175.40 148.47 176.32 149.66 C 176.90 150.82 176.66 151.71 175.61 152.34 C 175.14 152.04 174.21 151.46 173.74 151.17 Z" />
<path fill="#ffffff" d=" M 224.11 150.03 C 224.61 149.69 225.62 149.01 226.12 148.67 C 226.58 150.39 226.87 152.15 226.97 153.93 C 226.57 154.52 225.77 155.71 225.37 156.30 C 224.80 155.58 224.23 154.85 223.66 154.13 C 223.84 152.77 223.97 151.40 224.11 150.03 Z" />
<path fill="#ffffff" d=" M 162.52 150.47 C 163.03 151.55 163.48 152.64 163.93 153.75 C 163.50 154.23 162.65 155.19 162.22 155.67 C 163.01 157.31 163.33 159.09 163.09 160.91 C 162.87 164.61 163.81 168.24 163.93 171.92 C 159.85 174.16 157.66 169.01 157.69 165.73 C 159.36 166.45 161.26 166.24 161.40 164.05 C 159.92 164.16 158.45 164.29 156.98 164.44 C 157.00 162.42 156.90 160.40 157.09 158.40 C 158.25 156.89 160.30 156.68 161.90 155.85 C 162.05 154.05 162.24 152.25 162.52 150.47 Z" />
<path fill="#ffffff" d=" M 239.40 154.23 C 239.92 153.46 240.46 152.70 241.02 151.96 C 240.97 153.36 240.96 154.76 240.97 156.17 C 240.72 156.60 240.20 157.47 239.94 157.90 C 242.67 161.73 242.77 166.46 240.95 170.72 C 239.54 171.26 238.14 171.80 236.74 172.35 C 236.84 173.28 236.93 174.21 236.99 175.15 C 235.99 175.85 234.88 176.39 233.81 176.98 C 233.24 173.76 235.05 170.86 236.03 167.92 C 235.77 167.49 235.26 166.62 235.01 166.19 C 235.01 164.54 235.01 162.90 235.00 161.26 C 236.22 161.24 237.46 161.16 238.67 160.91 C 234.21 160.81 235.82 156.61 236.15 153.82 C 236.40 153.59 236.89 153.13 237.13 152.90 C 237.70 153.24 238.84 153.90 239.40 154.23 Z" />
<path fill="#ffffff" d=" M 173.40 156.13 C 175.16 155.13 175.86 157.76 176.06 159.03 C 175.01 162.58 172.28 165.32 170.34 168.41 C 171.20 164.29 170.93 159.75 173.40 156.13 Z" />
<path fill="#ffffff" d=" M 181.00 158.01 C 181.79 158.01 183.37 158.00 184.16 158.00 C 186.38 163.11 186.33 168.64 185.94 174.10 C 185.66 175.02 185.81 177.53 184.23 176.78 C 184.02 176.42 183.61 175.71 183.41 175.35 C 183.18 175.71 182.71 176.43 182.48 176.78 C 181.67 175.53 180.72 174.38 180.09 173.02 C 180.38 170.88 182.07 169.43 183.23 167.74 C 182.67 167.46 181.56 166.90 181.00 166.61 C 180.98 163.75 180.98 160.88 181.00 158.01 Z" />
<path fill="#ffffff" d=" M 228.80 157.52 C 231.17 159.01 229.54 161.65 229.07 163.67 C 227.82 161.80 228.65 159.56 228.80 157.52 Z" />
<path fill="#ffffff" d=" M 223.45 159.50 C 224.00 159.35 225.11 159.05 225.67 158.90 C 225.19 160.42 223.51 161.86 224.45 163.52 C 226.55 168.48 225.90 173.89 226.21 179.12 C 224.20 179.06 221.88 179.38 220.80 177.27 C 221.37 176.81 222.53 175.89 223.11 175.43 C 220.92 170.39 222.01 164.61 223.45 159.50 Z" />
<path fill="#ffffff" d=" M 192.95 161.15 C 194.91 158.83 197.73 159.91 200.25 160.41 C 200.09 162.41 199.25 164.21 198.12 165.84 C 198.66 170.27 200.76 175.98 197.08 179.51 C 195.62 178.64 193.88 178.16 192.63 176.99 C 192.69 175.15 193.02 173.33 193.25 171.51 C 194.81 169.47 195.68 167.03 196.12 164.52 C 195.35 164.46 193.81 164.32 193.04 164.26 C 193.02 163.48 192.97 161.92 192.95 161.15 Z" />
<path fill="#ffffff" d=" M 208.11 160.17 C 210.54 159.82 213.33 158.77 215.57 160.32 C 216.76 164.14 215.37 168.09 215.45 171.97 C 215.20 174.65 215.77 177.82 213.65 179.90 C 212.26 177.90 211.61 175.52 211.31 173.13 C 211.71 171.33 213.20 170.11 214.25 168.69 C 213.20 167.98 212.13 167.28 211.04 166.64 C 209.97 164.53 208.99 162.37 208.11 160.17 Z" />
<path fill="#ffffff" d=" M 310.63 167.95 C 313.85 165.33 316.99 162.14 321.44 162.01 C 319.58 166.06 314.57 167.02 310.63 167.95 Z" />
<path fill="#ffffff" d=" M 206.27 165.68 C 206.64 165.39 207.40 164.81 207.77 164.51 C 207.96 167.26 207.91 170.02 207.64 172.76 C 208.65 174.36 209.53 176.06 210.01 177.90 C 209.89 179.36 208.11 179.78 207.12 180.53 C 206.85 178.22 206.87 175.89 206.27 173.63 L 207.04 173.46 C 206.30 170.92 206.85 168.25 206.27 165.68 Z" />
<path fill="#ffffff" d=" M 174.07 167.41 C 174.38 167.58 175.00 167.93 175.31 168.10 C 175.20 170.75 175.26 173.42 174.83 176.05 C 173.18 174.70 172.18 172.89 172.06 170.76 C 172.73 169.64 173.40 168.52 174.07 167.41 Z" />
<path fill="#ffffff" d=" M 306.37 169.02 C 309.41 167.78 306.19 172.35 306.37 169.02 Z" />
<path fill="#000000" d=" M 195.65 173.25 C 197.06 172.08 198.14 174.73 196.92 175.54 C 195.49 176.56 194.31 174.06 195.65 173.25 Z" />
<path fill="#ffffff" d=" M 169.62 178.25 C 170.41 177.37 171.20 176.50 172.00 175.64 C 172.66 175.82 173.97 176.20 174.63 176.38 C 174.90 176.97 175.44 178.15 175.71 178.75 C 175.44 179.72 175.17 180.69 174.90 181.67 C 172.45 181.82 170.67 180.35 169.62 178.25 Z" />
<path fill="#ffffff" d=" M 77.07 177.23 C 84.89 177.02 91.72 181.23 98.62 184.32 C 100.37 185.02 101.89 186.15 103.41 187.25 C 100.33 187.32 97.38 186.55 94.61 185.27 C 89.29 183.29 83.95 181.14 79.44 177.60 C 78.86 177.65 77.69 177.74 77.10 177.78 L 77.07 177.23 Z" />
<path fill="#ffffff" d=" M 142.59 184.52 C 140.14 180.88 145.10 177.34 148.50 177.34 C 147.29 180.29 144.78 182.33 142.59 184.52 Z" />
<path fill="#ffffff" d=" M 154.04 179.69 C 155.76 178.40 157.74 177.56 159.70 178.87 C 161.14 182.73 161.58 186.99 160.13 190.92 C 160.46 194.56 159.70 198.04 158.99 201.55 C 160.25 202.55 161.72 203.25 163.03 204.20 C 161.10 208.88 163.27 214.19 160.83 218.71 C 160.12 220.21 159.07 221.50 158.01 222.77 C 156.09 219.43 156.18 213.95 152.12 212.52 C 151.83 212.98 151.26 213.89 150.97 214.35 C 151.75 217.20 153.31 219.77 154.23 222.59 C 157.60 225.82 156.74 230.71 158.75 234.62 C 159.03 239.89 161.56 244.75 162.01 250.00 C 162.08 252.79 163.90 255.18 163.93 257.97 C 164.04 260.56 164.17 263.84 166.92 265.07 C 169.36 264.93 169.49 261.84 168.82 260.06 C 167.31 256.10 166.63 251.90 165.29 247.89 C 164.78 246.63 165.39 245.31 165.50 244.03 C 162.68 240.69 160.80 235.59 163.22 231.54 C 164.16 229.92 164.85 228.17 165.63 226.47 C 166.74 228.01 169.17 229.69 168.09 231.82 C 166.32 235.53 165.81 239.60 165.84 243.67 C 169.81 241.22 167.77 235.36 171.80 232.76 C 172.01 236.56 171.96 240.44 170.84 244.12 C 170.34 245.46 171.27 246.74 171.55 248.03 C 173.13 248.09 174.72 248.12 176.31 248.12 C 176.25 245.90 174.75 244.36 173.33 242.86 C 173.60 241.46 173.88 240.07 174.16 238.68 C 175.58 238.90 178.09 239.00 177.98 241.00 C 178.48 243.98 176.99 247.61 178.92 250.16 C 180.61 250.42 181.30 248.52 182.40 247.66 C 183.91 249.84 184.99 252.28 186.30 254.59 C 187.19 251.20 187.42 247.68 188.04 244.24 C 189.02 245.37 189.96 246.55 190.84 247.77 C 190.53 249.66 191.25 251.40 191.86 253.15 C 191.27 256.97 190.70 260.81 190.69 264.70 C 188.91 268.17 188.29 272.06 187.44 275.82 C 186.28 276.38 185.10 276.91 183.91 277.41 C 185.57 280.69 183.66 284.03 181.75 286.70 C 178.64 290.88 177.03 295.88 174.74 300.51 C 173.33 303.32 171.87 307.10 167.91 306.16 C 167.99 307.98 168.04 309.81 168.06 311.64 C 163.99 315.41 159.42 318.72 156.17 323.31 C 155.41 325.32 152.50 325.23 151.71 323.27 C 148.61 316.74 148.22 309.33 145.52 302.65 C 145.27 296.60 142.80 290.61 144.64 284.58 C 143.83 280.33 144.41 276.00 144.92 271.76 C 144.61 270.31 144.31 268.85 144.02 267.40 C 145.38 266.54 146.80 265.75 148.09 264.78 C 147.65 263.27 145.72 262.03 146.51 260.37 C 147.65 258.09 145.87 256.05 145.21 253.96 C 145.54 251.72 146.29 249.45 145.18 247.29 C 146.16 245.40 147.99 243.94 148.56 241.87 C 148.51 238.28 149.17 234.72 149.00 231.12 C 149.96 232.27 150.96 233.41 152.11 234.41 C 153.06 233.28 153.86 231.73 152.88 230.35 C 152.28 230.70 151.06 231.41 150.45 231.76 C 149.84 229.77 149.98 227.69 150.05 225.64 C 150.75 224.13 151.23 222.53 151.79 220.96 C 151.39 220.35 150.58 219.12 150.17 218.50 C 144.95 224.56 147.46 233.65 143.13 240.15 C 140.32 239.96 138.36 236.62 135.23 237.72 C 134.72 236.64 134.20 235.57 133.65 234.51 C 132.18 235.46 131.06 236.77 130.66 238.51 C 127.90 246.03 124.05 253.05 121.45 260.63 C 118.87 265.45 116.16 270.27 114.83 275.62 C 113.18 278.16 111.53 280.76 109.16 282.71 C 109.10 283.20 108.97 284.18 108.91 284.67 C 103.56 290.15 101.09 297.58 96.50 303.59 C 94.96 306.15 93.81 308.94 92.72 311.72 C 90.20 314.67 87.81 317.80 86.77 321.60 C 86.21 322.55 85.63 323.50 85.06 324.45 C 85.03 324.99 84.96 326.08 84.93 326.62 C 82.85 328.76 82.61 331.86 81.33 334.45 C 80.80 336.16 80.10 337.81 79.29 339.42 C 78.34 342.11 77.07 344.69 76.28 347.45 C 75.10 351.18 73.97 354.91 72.83 358.67 C 71.77 359.07 70.71 359.46 69.64 359.83 C 68.47 358.05 69.19 355.69 68.90 353.67 C 67.56 351.60 68.08 349.08 68.05 346.77 C 69.40 344.71 70.00 342.30 70.51 339.93 C 70.47 339.24 70.37 337.87 70.33 337.18 C 71.82 332.21 73.33 327.23 75.43 322.48 C 75.82 322.23 76.59 321.72 76.97 321.47 C 77.05 319.41 76.72 317.21 77.86 315.37 C 77.94 314.43 78.01 313.50 78.09 312.58 C 82.64 305.44 84.07 296.46 89.76 289.97 C 92.45 282.18 97.24 275.46 101.41 268.44 C 104.08 266.58 105.32 263.49 106.28 260.51 C 107.46 258.56 108.47 256.52 109.35 254.43 C 112.25 249.89 117.69 248.16 121.48 244.58 C 122.91 242.66 124.11 240.56 125.70 238.75 C 128.79 231.20 134.01 224.82 137.72 217.59 C 139.12 214.12 140.95 210.84 142.24 207.34 C 144.30 205.73 145.86 203.48 148.36 202.50 C 149.09 202.96 150.56 203.89 151.29 204.35 C 150.35 201.64 149.52 198.83 151.80 196.53 C 153.05 191.01 154.02 185.37 154.04 179.69 Z" />
<path fill="#ffffff" d=" M 182.49 186.50 C 180.78 183.71 180.45 180.19 181.82 177.19 C 182.47 177.53 183.76 178.22 184.41 178.56 C 184.98 179.46 185.54 180.36 186.08 181.28 C 185.68 182.46 185.29 183.65 184.92 184.83 C 185.12 185.27 185.53 186.13 185.74 186.56 C 184.11 192.07 185.51 197.94 184.70 203.58 C 183.22 201.76 182.15 199.66 180.97 197.65 C 180.81 193.80 184.84 190.29 182.49 186.50 Z" />
<path fill="#ffffff" d=" M 192.24 181.18 C 194.07 180.49 195.94 179.94 197.86 179.60 C 198.00 182.15 197.94 184.74 198.55 187.24 C 197.19 192.02 198.96 197.17 197.05 201.85 C 197.35 202.42 197.96 203.55 198.27 204.11 C 197.36 204.10 195.54 204.07 194.63 204.05 C 194.68 203.29 194.79 201.76 194.85 201.00 C 194.40 201.00 193.50 201.00 193.05 201.00 C 193.00 201.51 192.90 202.53 192.84 203.04 C 192.14 203.00 190.73 202.93 190.02 202.89 C 190.02 202.33 190.03 201.20 190.04 200.63 C 192.71 197.94 191.89 194.21 191.29 190.89 C 190.56 187.61 191.63 184.37 192.24 181.18 Z" />
<path fill="#ffffff" d=" M 247.89 180.52 C 248.87 180.68 249.85 180.85 250.83 181.02 C 251.34 181.90 251.83 182.80 252.33 183.69 C 250.97 183.80 249.61 183.86 248.26 183.86 C 248.10 182.75 247.97 181.63 247.89 180.52 Z" />
<path fill="#ffffff" d=" M 220.15 181.82 C 221.99 180.80 224.10 181.02 226.12 181.05 C 225.83 184.94 225.29 188.83 223.99 192.52 C 223.45 193.81 224.42 194.95 225.14 195.91 L 222.99 193.64 L 223.58 197.56 C 223.34 196.94 222.60 193.96 221.95 195.85 C 221.82 197.50 221.90 199.16 221.84 200.81 C 220.29 199.77 218.69 198.61 218.21 196.69 C 217.58 195.16 219.26 194.02 220.00 192.91 L 221.15 194.93 C 223.46 192.54 222.33 189.29 221.81 186.43 C 221.19 184.92 220.67 183.36 220.15 181.82 Z" />
<path fill="#ffffff" d=" M 204.89 184.49 C 205.91 183.46 206.92 182.42 207.94 181.39 C 209.97 182.07 212.61 182.24 214.04 183.97 C 214.01 186.83 214.07 189.78 213.09 192.50 C 211.32 192.83 209.72 193.52 209.00 195.31 C 210.43 195.13 211.82 195.29 213.14 195.77 C 212.50 198.39 211.76 201.00 211.91 203.75 C 210.54 202.67 209.16 201.62 207.70 200.67 C 207.16 202.19 206.85 203.83 205.85 205.14 C 204.74 205.03 203.74 204.64 202.85 203.98 C 203.15 202.99 203.50 202.02 203.91 201.06 C 202.94 196.48 206.43 192.44 205.19 187.97 C 205.05 186.81 204.95 185.65 204.89 184.49 Z" />
<path fill="#ffffff" d=" M 236.08 181.99 C 238.36 183.74 241.19 184.84 243.00 187.15 C 243.03 187.70 243.09 188.82 243.12 189.37 C 245.51 194.59 245.09 200.72 248.22 205.66 C 250.24 210.85 257.11 211.92 258.75 217.40 C 260.51 223.43 264.04 228.69 266.34 234.46 C 268.30 238.00 270.06 241.64 271.81 245.29 C 274.17 251.10 280.50 254.49 286.58 254.44 C 289.18 258.46 291.90 262.44 294.72 266.33 C 297.79 271.82 299.14 278.14 302.29 283.61 C 305.64 289.61 307.77 296.15 310.21 302.55 C 312.09 305.66 313.34 309.08 314.41 312.54 C 317.58 319.43 320.86 326.47 321.53 334.11 C 323.66 338.98 325.71 344.19 325.37 349.62 C 328.00 354.73 326.68 360.57 327.00 366.07 C 327.25 368.15 326.14 369.96 324.94 371.53 C 321.68 366.44 321.56 360.12 318.40 354.98 C 318.43 354.28 318.49 352.87 318.51 352.17 C 315.21 346.26 313.82 339.49 310.35 333.65 C 306.91 324.55 302.05 316.11 297.73 307.43 C 293.26 300.13 288.86 292.79 284.34 285.52 C 283.04 282.08 279.95 280.08 277.11 278.06 C 273.31 272.98 271.54 266.79 269.05 261.04 C 266.89 255.43 267.76 248.71 264.17 243.65 C 263.10 244.51 262.12 245.47 261.10 246.37 C 259.80 244.03 258.78 241.55 257.98 239.01 C 256.71 235.00 254.45 231.33 253.75 227.14 C 252.96 223.32 250.87 219.98 249.34 216.45 C 248.56 217.20 247.83 218.00 247.10 218.80 C 248.89 222.25 250.30 225.88 250.76 229.76 C 251.46 234.41 255.06 238.30 255.00 243.02 C 253.42 245.20 251.54 243.24 250.17 241.94 C 248.76 234.71 247.73 227.44 246.21 220.23 C 246.21 217.68 243.88 219.00 242.82 219.92 C 242.89 222.19 243.40 224.41 244.25 226.52 C 246.47 230.07 245.59 234.41 246.99 238.21 C 246.47 238.87 245.95 239.53 245.44 240.19 C 246.54 242.22 247.00 244.47 247.25 246.75 C 247.70 247.02 248.61 247.54 249.06 247.80 C 249.09 250.69 248.98 253.61 248.02 256.37 C 248.87 257.73 249.70 259.10 250.54 260.49 C 249.23 261.16 247.91 261.83 246.61 262.52 C 247.36 263.78 248.15 265.02 248.93 266.27 C 249.94 265.83 250.95 265.40 251.96 264.96 C 252.28 269.24 251.58 273.57 252.30 277.81 C 253.53 281.07 252.60 284.56 252.88 287.93 C 252.17 295.63 251.96 303.49 249.73 310.97 C 247.79 315.59 246.07 320.35 243.43 324.65 C 242.68 325.47 241.63 325.93 240.73 326.54 C 236.60 322.03 235.08 315.64 230.23 311.78 C 228.95 307.60 226.06 304.09 222.56 301.55 C 221.18 298.73 219.90 295.67 217.47 293.57 C 214.42 291.16 213.77 287.00 211.02 284.30 C 211.01 283.28 211.00 282.26 210.99 281.25 C 211.52 280.65 212.59 279.44 213.13 278.83 C 211.47 278.15 209.69 277.75 208.13 276.85 C 205.18 270.30 203.79 262.81 205.21 255.72 C 206.43 252.46 205.92 248.82 207.36 245.58 C 207.35 248.34 209.09 250.52 211.33 251.94 C 213.41 252.83 214.10 250.34 214.16 248.78 C 211.87 245.68 209.37 242.35 209.88 238.24 C 211.36 236.67 213.15 235.55 215.39 235.67 C 216.96 238.41 218.33 241.46 221.15 243.16 C 222.54 237.87 215.33 233.73 218.78 228.52 C 221.62 230.32 220.98 235.15 224.42 235.92 C 224.60 235.42 224.96 234.42 225.14 233.92 C 224.03 232.22 223.14 230.41 222.23 228.61 C 221.95 226.97 221.58 225.36 221.16 223.77 C 221.80 222.07 222.31 220.25 223.74 219.01 C 224.83 220.27 225.83 221.61 226.72 223.03 C 227.43 222.98 228.86 222.88 229.57 222.83 C 228.30 219.43 224.07 216.99 225.12 212.96 C 225.95 211.48 226.94 210.09 227.84 208.64 C 228.79 205.96 229.61 203.22 230.23 200.44 C 232.49 196.80 232.97 192.33 232.04 188.19 C 233.48 186.17 234.08 183.56 236.08 181.99 Z" />
<path fill="#ffffff" d=" M 142.19 194.40 C 144.58 190.45 147.29 186.72 149.83 182.86 C 150.48 186.46 150.15 190.21 148.36 193.43 C 146.71 196.29 145.60 199.82 142.46 201.41 C 141.76 201.63 140.36 202.07 139.66 202.29 C 139.65 199.43 140.74 196.80 142.19 194.40 Z" />
<path fill="#ffffff" d=" M 170.96 191.98 C 171.06 188.91 168.92 185.62 170.95 182.81 C 171.63 183.86 172.55 184.75 173.24 185.81 C 173.76 185.18 174.80 183.92 175.33 183.29 C 175.46 184.98 175.57 186.67 175.65 188.37 C 174.69 188.68 173.74 188.99 172.79 189.30 C 173.57 189.45 175.13 189.74 175.91 189.88 C 176.33 192.87 176.26 195.85 174.44 198.39 C 172.90 196.51 170.84 194.63 170.96 191.98 Z" />
<path fill="#000000" d=" M 209.18 185.27 C 209.85 185.76 209.85 185.76 209.18 185.27 Z" />
<path fill="#ffffff" d=" M 252.56 186.92 C 255.92 187.36 260.21 186.60 262.68 189.45 C 260.62 190.45 258.39 191.56 256.03 191.18 C 254.08 190.67 253.14 188.67 252.56 186.92 Z" />
<path fill="#ffffff" d=" M 133.55 188.02 C 135.72 188.00 137.90 188.00 140.08 187.99 C 140.06 188.67 140.01 190.02 139.98 190.70 C 139.39 191.40 138.80 192.11 138.22 192.81 C 134.20 193.60 129.40 194.67 126.01 191.67 C 128.56 190.53 131.17 189.50 133.55 188.02 Z" />
<path fill="#ffffff" d=" M 246.75 188.44 C 250.21 190.35 251.72 194.18 253.71 197.36 C 255.49 200.32 257.02 203.41 258.88 206.33 C 259.83 208.59 256.82 208.21 255.50 207.86 C 252.14 205.41 250.80 201.24 249.70 197.42 C 248.45 194.53 247.27 191.57 246.75 188.44 Z" />
<path fill="#000000" d=" M 194.88 194.05 C 196.20 193.47 196.67 193.92 196.31 195.39 C 194.97 195.95 194.50 195.50 194.88 194.05 Z" />
<path fill="#ffffff" d=" M 164.09 195.69 C 167.45 195.63 168.29 198.80 168.75 201.47 C 166.71 201.50 165.22 200.12 163.97 198.66 C 164.00 197.92 164.06 196.43 164.09 195.69 Z" />
<path fill="#ffffff" d=" M 170.55 204.28 C 170.26 203.06 169.64 201.68 171.04 200.90 C 172.64 201.25 174.25 202.05 175.08 203.52 C 173.58 203.85 172.07 204.10 170.55 204.28 Z" />
<path fill="#000000" d=" M 233.76 202.91 C 235.03 202.07 236.32 201.25 237.67 200.52 C 238.82 207.45 240.67 215.28 236.76 221.68 C 235.76 223.80 234.95 226.01 233.95 228.14 C 235.20 228.50 236.47 228.82 237.74 229.14 C 238.69 227.05 239.07 224.38 241.43 223.35 C 241.27 225.09 241.05 226.82 240.87 228.56 C 239.96 230.55 237.88 232.87 239.92 234.84 C 240.85 234.62 241.79 234.39 242.72 234.17 C 242.95 234.66 243.41 235.66 243.64 236.16 C 243.24 237.63 242.87 239.10 242.55 240.59 C 241.62 239.11 240.58 237.70 239.68 236.22 C 239.50 236.22 239.15 236.23 238.97 236.23 C 237.74 239.03 237.06 242.02 236.67 245.04 C 234.89 249.76 233.15 254.58 232.74 259.65 C 231.69 262.86 230.71 266.22 228.80 269.04 C 224.45 269.15 225.48 262.51 227.89 260.42 C 227.95 259.47 228.01 258.52 228.07 257.58 C 230.71 255.16 229.94 251.54 230.00 248.36 C 230.90 247.42 231.81 246.48 232.75 245.58 C 233.69 241.71 235.25 238.01 235.99 234.08 C 236.62 232.24 234.81 230.51 233.00 230.95 C 232.30 232.02 231.80 233.20 231.24 234.35 C 230.22 238.31 228.60 242.15 226.27 245.53 C 225.79 246.57 225.30 247.61 224.82 248.66 C 223.92 249.87 223.03 251.08 222.10 252.26 C 219.67 252.49 217.52 251.09 217.73 248.46 C 219.70 247.30 221.68 246.15 223.59 244.89 C 226.37 239.92 228.28 234.53 230.01 229.12 C 229.43 228.08 228.81 227.07 228.15 226.08 C 228.58 225.55 229.02 225.03 229.46 224.51 C 230.15 224.86 231.53 225.56 232.22 225.91 C 233.30 220.86 235.18 216.01 235.86 210.86 C 235.23 208.19 234.29 205.60 233.76 202.91 Z" />
<path fill="#ffffff" d=" M 220.81 205.77 C 221.57 204.71 222.32 203.63 223.05 202.55 C 223.48 203.51 223.92 204.47 224.35 205.44 C 224.16 206.89 224.02 208.35 223.90 209.82 C 223.49 210.04 222.65 210.48 222.23 210.70 C 221.72 209.07 221.19 207.44 220.81 205.77 Z" />
<path fill="#ffffff" d=" M 167.49 208.04 C 168.20 206.43 169.61 205.43 171.09 204.59 C 171.51 207.07 169.71 210.71 172.79 211.92 C 172.95 209.98 172.93 208.04 173.13 206.11 C 174.11 204.57 176.12 205.21 177.64 205.11 C 179.66 207.86 177.14 210.86 177.12 213.82 C 177.12 218.24 174.28 222.00 174.63 226.51 C 174.62 227.81 174.58 229.11 174.51 230.41 C 172.99 227.62 171.38 224.89 169.22 222.54 C 167.43 218.68 166.54 214.02 168.87 210.18 C 168.40 209.46 167.94 208.75 167.49 208.04 Z" />
<path fill="#ffffff" d=" M 181.69 210.20 C 180.69 208.48 181.38 206.57 183.12 205.72 C 186.19 207.46 189.76 206.10 192.95 207.40 C 197.24 208.81 201.98 206.94 206.13 209.06 C 206.22 212.43 204.83 215.61 205.04 218.99 C 204.04 219.35 203.03 219.72 202.08 220.19 C 201.98 221.59 201.94 222.99 201.94 224.40 C 203.59 224.01 205.08 223.30 204.98 221.34 C 204.98 219.48 207.96 219.90 207.84 218.04 C 208.26 214.54 210.22 210.98 213.62 209.62 C 214.46 211.10 213.05 215.54 215.73 214.72 C 216.49 213.42 216.93 211.96 217.53 210.59 C 220.62 211.06 220.31 214.14 219.80 216.54 C 218.87 217.91 217.63 219.00 216.43 220.12 C 216.82 222.35 216.45 224.58 216.02 226.77 C 213.76 227.70 211.81 229.08 211.04 231.53 C 208.62 228.30 212.36 224.51 212.03 220.91 C 212.52 219.22 210.40 218.81 209.23 218.94 C 208.54 220.32 208.29 221.85 208.45 223.38 C 206.70 226.55 206.86 230.13 207.01 233.63 C 206.04 234.73 205.17 235.93 204.05 236.88 C 201.82 236.66 199.62 236.60 197.79 238.11 C 197.51 233.98 198.87 230.00 199.19 225.92 C 198.27 225.52 197.33 225.17 196.37 224.89 C 192.21 228.52 194.63 234.51 194.00 239.28 C 192.76 239.21 191.51 239.12 190.28 239.01 C 188.79 237.31 187.17 235.75 185.47 234.26 C 186.90 231.49 186.88 228.40 187.03 225.37 C 188.35 223.81 190.77 222.48 189.95 220.07 C 189.44 219.59 188.40 218.64 187.89 218.17 C 186.56 219.89 185.40 221.73 184.05 223.44 C 183.30 227.64 183.70 231.91 183.42 236.15 C 181.26 235.18 179.03 234.42 176.78 233.72 C 176.62 230.08 178.03 226.65 178.12 223.04 C 179.98 221.52 181.55 219.71 181.87 217.23 C 181.27 215.69 180.52 214.20 179.83 212.71 C 181.14 209.71 183.93 212.02 186.15 212.45 C 186.03 210.62 186.19 208.59 184.49 207.43 C 183.79 208.12 182.39 209.51 181.69 210.20 Z" />
<path fill="#ffffff" d=" M 212.21 207.43 C 214.62 206.73 217.46 204.99 219.05 207.89 C 217.51 208.30 215.95 208.62 214.39 208.97 C 213.67 208.45 212.94 207.94 212.21 207.43 Z" />
<path fill="#ffffff" d=" M 135.43 208.42 C 135.88 206.68 137.68 206.67 139.14 206.79 C 136.80 211.79 133.79 216.46 131.33 221.41 C 129.26 225.53 125.72 228.94 124.72 233.56 C 123.94 234.84 123.15 236.12 122.31 237.35 C 120.34 239.94 118.44 242.68 115.83 244.65 C 115.81 240.42 118.95 237.21 120.71 233.60 C 121.76 230.03 124.91 227.62 126.30 224.18 C 130.00 219.31 132.81 213.92 135.43 208.42 Z" />
<path fill="#000000" d=" M 191.09 214.91 C 188.28 213.13 190.74 210.15 192.54 208.71 C 192.85 209.37 193.45 210.68 193.75 211.33 C 193.19 212.63 193.29 215.66 191.09 214.91 Z" />
<path fill="#000000" d=" M 196.83 211.83 C 197.77 211.82 198.72 211.83 199.67 211.84 C 199.99 212.43 200.64 213.60 200.97 214.19 C 200.12 215.17 199.90 217.06 198.33 217.10 C 196.45 215.95 197.01 213.66 196.83 211.83 Z" />
<path fill="#000000" d=" M 170.94 218.79 C 167.26 218.53 167.54 214.04 170.88 213.54 C 170.95 215.29 170.97 217.04 170.94 218.79 Z" />
<path fill="#ffffff" d=" M 262.11 217.91 C 261.32 216.32 262.94 215.57 264.00 214.77 C 265.85 216.70 266.17 219.47 267.70 221.61 C 268.00 222.55 268.31 223.49 268.63 224.43 C 272.86 230.62 277.04 236.83 280.78 243.34 C 281.54 244.97 282.37 246.56 283.05 248.23 C 281.62 249.91 279.40 247.87 278.24 246.77 C 275.30 242.90 271.84 239.24 270.30 234.52 C 268.96 231.06 266.92 227.91 265.76 224.38 C 264.86 222.05 263.44 220.01 262.11 217.91 Z" />
<path fill="#000000" d=" M 193.78 224.67 C 192.04 222.42 192.52 218.79 195.86 218.62 C 195.93 220.06 196.00 221.49 196.05 222.93 C 195.48 223.37 194.35 224.23 193.78 224.67 Z" />
<path fill="#ffffff" d=" M 160.65 228.52 C 160.69 225.39 161.19 222.01 164.09 220.20 C 164.34 221.94 164.22 223.70 163.98 225.43 C 162.94 226.87 162.02 228.39 161.15 229.94 C 161.02 229.58 160.78 228.87 160.65 228.52 Z" />
<path fill="#ffffff" d=" M 134.19 238.69 C 135.71 240.34 137.48 241.71 139.57 242.57 C 143.89 244.21 141.55 249.56 141.25 252.99 C 141.55 259.07 141.02 265.23 140.57 271.30 C 141.36 274.82 140.61 278.41 140.09 281.91 C 139.70 291.43 139.59 301.15 142.65 310.30 C 143.34 311.55 142.62 312.77 141.69 313.65 C 138.51 316.26 134.12 317.22 131.41 320.43 C 127.15 326.08 120.66 329.54 114.18 332.01 C 111.68 331.90 111.84 328.81 111.96 326.99 C 111.71 323.78 114.17 321.17 114.01 317.96 C 114.72 308.49 118.24 299.52 119.20 290.12 C 119.69 289.18 120.25 288.29 120.89 287.45 C 121.02 283.63 120.85 279.80 121.02 275.98 C 122.34 271.45 125.45 267.71 127.30 263.42 C 130.14 258.01 132.46 252.36 135.00 246.80 C 134.52 246.55 133.56 246.05 133.08 245.80 C 129.94 250.31 128.10 255.53 125.38 260.29 C 125.56 258.34 125.28 256.15 126.72 254.58 C 130.21 249.78 131.35 243.82 134.19 238.69 Z" />
<path fill="#000000" d=" M 150.06 242.10 C 150.87 240.02 152.93 241.66 154.43 241.87 C 154.07 242.98 153.65 244.06 153.18 245.12 C 151.49 245.32 149.27 244.04 150.06 242.10 Z" />
<path fill="#ffffff" d=" M 180.81 241.39 C 183.06 241.27 185.35 241.89 185.30 244.59 C 184.08 245.51 182.86 246.43 181.60 247.30 C 180.76 245.42 180.46 243.42 180.81 241.39 Z" />
<path fill="#ffffff" d=" M 197.42 242.56 C 199.57 240.50 201.63 243.96 201.15 246.02 C 200.98 248.18 198.24 247.27 196.98 246.88 C 196.04 245.58 195.85 243.47 197.42 242.56 Z" />
<path fill="#ffffff" d=" M 254.23 246.02 C 255.40 246.01 256.57 246.00 257.74 246.00 C 258.70 247.80 259.67 249.61 260.71 251.38 C 261.38 252.83 262.08 254.27 262.79 255.70 C 262.65 256.22 262.35 257.27 262.20 257.79 C 265.72 261.05 264.27 266.12 266.61 269.95 C 266.78 273.25 268.67 275.90 270.36 278.59 C 271.40 282.32 272.71 285.96 274.27 289.50 C 275.21 291.07 275.98 292.74 276.78 294.39 C 279.03 299.65 279.15 305.42 280.04 310.99 C 281.40 319.64 281.81 328.42 283.52 337.02 C 283.22 337.43 282.62 338.26 282.32 338.67 C 276.81 336.67 272.96 331.92 268.70 328.11 C 265.25 325.56 261.62 323.29 257.90 321.17 C 255.86 319.18 253.87 317.14 251.81 315.17 C 255.66 308.37 255.45 300.39 257.00 292.95 C 257.63 285.99 255.93 279.11 256.26 272.16 C 255.78 266.92 253.81 261.90 253.91 256.60 C 251.60 254.43 252.16 251.12 251.93 248.27 C 252.69 247.52 253.46 246.77 254.23 246.02 Z" />
<path fill="#000000" d=" M 242.65 247.37 C 243.84 247.62 245.03 247.88 246.22 248.15 C 246.05 249.58 245.96 251.11 244.64 251.99 C 242.85 252.76 242.13 250.76 241.13 249.74 C 241.51 249.14 242.27 247.96 242.65 247.37 Z" />
<path fill="#ffffff" d=" M 196.21 258.70 C 195.33 255.98 197.56 253.24 198.30 250.62 C 199.45 252.25 201.50 253.73 201.03 256.00 C 201.05 257.62 199.43 258.63 198.73 259.93 C 199.26 261.15 199.90 262.31 200.57 263.47 C 200.46 263.75 200.25 264.31 200.14 264.58 C 200.48 265.44 200.81 266.31 201.14 267.18 C 200.66 267.94 199.69 269.47 199.21 270.23 C 199.91 270.57 201.30 271.24 202.00 271.58 C 202.01 272.99 202.02 274.40 202.03 275.82 C 201.13 276.60 200.24 277.39 199.35 278.19 C 197.49 277.82 195.65 277.32 193.82 276.83 C 194.10 273.04 193.25 268.89 195.50 265.54 C 195.26 264.27 195.04 262.99 194.85 261.71 C 195.54 260.81 197.70 260.19 196.21 258.70 Z" />
<path fill="#000000" d=" M 258.23 262.13 C 259.85 261.62 260.41 262.19 259.90 263.83 C 258.28 264.31 257.73 263.75 258.23 262.13 Z" />
<path fill="#ffffff" d=" M 120.33 269.53 C 119.83 268.08 121.06 265.39 122.61 265.21 C 122.97 266.68 122.27 269.81 120.33 269.53 Z" />
<path fill="#000000" d=" M 247.94 272.05 C 245.91 271.37 247.74 269.43 248.60 268.56 C 249.04 269.14 249.91 270.29 250.34 270.86 C 249.74 271.16 248.54 271.75 247.94 272.05 Z" />
<path fill="#000000" d=" M 145.92 271.20 C 146.43 270.62 147.45 269.48 147.95 268.91 C 149.50 271.00 151.14 273.03 152.93 274.93 C 153.08 277.41 153.32 280.06 152.14 282.37 C 153.01 282.71 153.90 283.06 154.79 283.39 C 155.18 284.95 156.92 286.83 155.29 288.21 C 153.90 290.41 152.28 287.42 150.87 286.73 C 151.01 284.88 151.21 283.05 151.36 281.22 L 150.12 282.27 C 148.81 280.16 149.02 277.64 148.49 275.32 C 147.78 273.86 146.70 272.62 145.92 271.20 Z" />
<path fill="#000000" d=" M 235.07 274.78 C 236.33 272.59 238.82 272.63 240.73 273.97 C 241.18 275.79 242.23 277.55 241.98 279.49 C 241.12 280.36 240.17 281.13 239.22 281.90 C 238.70 281.63 237.65 281.08 237.12 280.81 C 236.40 278.81 235.71 276.80 235.07 274.78 Z" />
<path fill="#000000" d=" M 155.98 274.65 C 157.42 274.71 159.03 274.82 159.96 276.11 C 160.64 278.45 157.86 279.56 155.96 279.00 C 154.74 277.78 155.87 276.05 155.98 274.65 Z" />
<path fill="#000000" d=" M 163.01 275.92 C 163.84 275.03 164.85 274.34 165.82 273.61 C 166.81 274.81 169.74 276.32 168.51 278.05 C 167.46 281.24 161.95 278.88 163.01 275.92 Z" />
<path fill="#000000" d=" M 246.26 274.08 C 246.99 274.10 248.45 274.15 249.18 274.17 C 249.54 276.43 248.06 277.62 246.11 278.31 C 248.64 280.67 247.41 283.78 246.44 286.57 C 243.87 284.85 243.68 281.40 242.09 278.95 C 243.25 278.37 244.41 277.82 245.59 277.30 C 245.81 276.22 246.03 275.15 246.26 274.08 Z" />
<path fill="#000000" d=" M 173.03 278.88 C 172.30 276.39 173.64 274.56 176.09 274.08 C 176.82 274.38 178.27 274.98 179.00 275.27 C 179.00 276.02 179.02 277.51 179.02 278.26 C 177.35 279.46 174.49 281.32 173.03 278.88 Z" />
<path fill="#000000" d=" M 217.60 279.71 C 218.72 278.66 219.85 277.63 220.99 276.61 C 222.62 277.29 224.20 278.30 226.00 278.44 C 228.34 278.33 230.26 276.71 232.62 276.61 C 233.18 278.01 233.76 279.42 234.29 280.85 C 232.90 281.39 231.58 282.48 230.00 282.23 C 227.88 282.97 228.10 278.38 226.08 279.98 C 225.68 280.52 224.89 281.60 224.50 282.13 C 221.84 282.56 219.30 281.86 217.60 279.71 Z" />
<path fill="#ffffff" d=" M 114.22 282.22 C 114.78 280.93 115.76 279.92 116.87 279.08 C 117.50 284.31 116.13 289.42 114.76 294.41 C 110.77 300.68 112.09 308.70 109.26 315.42 C 107.74 320.43 107.76 325.77 108.06 330.95 C 108.25 336.37 107.24 341.87 108.52 347.22 C 108.02 348.76 107.45 350.27 106.80 351.76 C 104.07 352.60 101.14 353.35 98.32 352.45 C 94.78 353.90 91.60 356.08 88.45 358.21 C 84.97 363.41 80.70 368.30 75.59 371.98 C 74.98 371.99 73.75 372.01 73.14 372.02 C 70.80 369.05 73.53 366.15 74.28 363.15 C 75.41 359.90 77.47 357.04 78.32 353.68 C 79.02 353.75 80.41 353.90 81.11 353.97 C 81.17 352.72 80.56 351.91 79.28 351.53 C 80.07 347.60 82.13 344.26 84.79 341.34 C 83.76 338.57 86.06 336.33 87.22 334.06 C 89.31 330.39 88.83 325.24 92.32 322.49 C 92.38 317.43 96.72 314.01 98.23 309.44 C 98.93 308.43 99.61 307.42 100.31 306.42 C 101.35 305.19 101.94 303.70 102.34 302.17 C 104.48 299.40 105.52 295.95 107.89 293.35 C 107.94 292.85 108.05 291.86 108.10 291.36 C 110.17 288.34 112.55 285.50 114.22 282.22 Z" />
<path fill="#ffffff" d=" M 190.15 283.12 C 192.21 282.50 194.30 281.82 196.47 282.25 C 198.90 282.18 201.34 282.34 203.78 282.16 C 204.91 283.40 206.00 284.67 207.01 286.01 C 206.18 287.23 205.75 288.58 205.71 290.05 C 206.68 289.66 207.65 289.26 208.62 288.87 C 210.75 291.97 212.59 295.27 214.76 298.36 C 216.63 301.11 219.07 303.51 220.32 306.66 C 221.72 307.97 223.17 309.35 223.42 311.38 C 221.38 311.13 219.32 311.00 217.35 310.38 C 214.25 310.70 211.02 308.18 208.17 309.88 C 207.23 309.93 206.29 309.99 205.35 310.05 C 204.65 308.73 203.96 307.41 203.26 306.10 C 201.98 307.49 200.88 309.31 198.96 309.89 C 195.21 310.18 191.45 309.97 187.70 309.89 C 187.80 308.35 187.74 306.82 187.51 305.30 C 189.34 303.76 189.10 301.89 187.91 300.09 C 187.47 300.30 186.58 300.71 186.14 300.92 C 186.39 303.83 184.59 306.56 185.49 309.42 C 182.37 308.68 179.15 309.75 176.04 309.08 C 175.13 307.59 176.65 306.47 177.21 305.27 C 178.41 303.57 179.16 301.50 180.89 300.24 C 182.93 299.18 182.02 296.66 182.68 294.88 C 183.70 294.17 184.84 293.69 185.89 293.03 C 186.00 291.58 186.06 290.12 186.07 288.66 C 186.47 288.45 187.27 288.01 187.67 287.80 C 188.47 286.22 189.31 284.67 190.15 283.12 Z" />
<path fill="#000000" d=" M 192.85 286.34 C 193.34 286.53 194.33 286.90 194.83 287.08 C 195.03 288.26 195.26 289.42 195.52 290.59 C 195.14 291.60 194.76 292.61 194.38 293.61 C 192.81 291.49 191.08 288.89 192.85 286.34 Z" />
<path fill="#000000" d=" M 241.97 287.25 C 242.57 286.89 243.78 286.16 244.38 285.80 C 245.26 288.25 245.83 291.48 242.73 292.53 C 243.12 294.75 242.24 297.37 239.80 297.91 C 238.47 297.10 237.35 296.10 237.82 294.37 C 238.88 293.52 239.95 292.68 241.03 291.86 C 241.00 290.25 241.42 288.73 241.97 287.25 Z" />
<path fill="#000000" d=" M 200.31 287.37 C 201.90 286.72 202.45 287.23 201.94 288.92 C 200.32 289.53 199.77 289.01 200.31 287.37 Z" />
<path fill="#ffffff" d=" M 278.52 289.06 C 278.61 287.22 281.53 287.43 282.24 288.66 C 286.02 293.46 287.92 299.44 291.38 304.47 C 295.14 309.53 296.54 315.83 300.05 321.05 C 302.82 327.22 306.32 333.03 308.79 339.34 C 312.90 346.58 314.50 354.87 317.70 362.49 C 318.18 363.87 318.72 365.23 319.28 366.59 C 320.20 369.17 321.16 371.74 322.22 374.28 C 321.32 375.03 320.42 375.78 319.49 376.50 C 318.29 372.97 316.09 370.07 313.09 367.88 C 309.86 362.13 303.80 355.87 296.57 357.21 C 294.10 356.79 291.65 356.31 289.23 355.69 C 287.43 350.24 288.46 344.40 287.52 338.80 C 286.70 334.23 287.55 329.50 286.29 325.01 C 284.80 319.61 285.01 313.99 283.75 308.55 C 282.40 304.65 283.05 300.32 281.36 296.50 C 280.32 294.06 279.12 291.65 278.52 289.06 Z" />
<path fill="#000000" d=" M 154.75 289.64 C 155.36 289.42 156.59 288.97 157.21 288.74 C 158.92 290.51 162.17 294.47 158.42 295.78 C 155.13 295.58 154.81 292.18 154.75 289.64 Z" />
<path fill="#000000" d=" M 196.89 291.46 C 197.99 291.16 199.08 290.87 200.18 290.58 C 200.12 292.25 199.75 296.05 197.27 294.74 C 197.10 293.64 196.97 292.55 196.89 291.46 Z" />
<path fill="#000000" d=" M 205.92 296.30 C 202.78 295.42 204.09 291.84 206.81 291.56 C 206.79 293.17 207.48 295.15 205.92 296.30 Z" />
<path fill="#000000" d=" M 189.06 292.84 C 191.12 292.20 192.01 296.29 189.82 295.96 C 187.71 296.84 189.07 293.69 189.06 292.84 Z" />
<path fill="#000000" d=" M 160.11 299.96 C 159.16 298.85 157.57 296.13 159.97 295.74 C 161.81 295.28 163.49 296.21 163.82 298.13 C 164.18 301.52 169.84 302.64 167.31 306.42 C 164.20 305.05 162.83 301.82 160.11 299.96 Z" />
<path fill="#000000" d=" M 193.72 298.69 C 194.40 297.59 195.89 298.03 196.94 297.75 C 197.00 299.47 197.04 301.22 196.54 302.89 C 198.80 304.50 196.42 308.31 194.08 306.62 C 194.37 305.61 194.77 304.64 195.15 303.68 C 194.01 302.43 191.73 300.28 193.72 298.69 Z" />
<path fill="#000000" d=" M 200.96 298.22 C 201.36 297.98 202.16 297.50 202.56 297.26 C 203.78 298.98 205.53 300.25 206.66 302.04 C 206.13 302.84 205.48 303.61 204.48 303.77 C 204.09 303.17 203.32 301.98 202.94 301.39 C 202.44 301.25 201.46 300.98 200.97 300.85 C 200.97 300.19 200.96 298.88 200.96 298.22 Z" />
<path fill="#000000" d=" M 210.20 297.21 C 211.78 295.95 212.90 298.81 211.73 299.81 C 210.16 301.03 208.97 298.19 210.20 297.21 Z" />
<path fill="#000000" d=" M 233.79 299.92 C 235.39 299.17 236.85 297.15 238.78 298.16 C 239.43 299.71 239.04 301.39 239.04 303.02 C 237.79 303.55 236.53 304.09 235.18 304.28 C 233.96 303.13 233.99 301.45 233.79 299.92 Z" />
<path fill="#000000" d=" M 209.30 304.18 C 209.72 304.92 209.72 304.92 209.30 304.18 Z" />
<path fill="#000000" d=" M 230.13 305.37 C 231.24 304.67 232.45 304.13 233.65 303.60 C 233.77 304.45 234.00 306.15 234.12 307.01 C 233.00 307.44 231.89 307.87 230.77 308.30 C 230.51 307.33 230.30 306.35 230.13 305.37 Z" />
<path fill="#ffffff" d=" M 181.57 314.46 C 184.18 314.04 186.94 313.59 189.46 314.69 C 190.79 315.45 192.11 314.60 193.41 314.21 C 194.20 314.92 195.00 315.63 195.80 316.34 C 196.91 315.66 197.99 314.92 199.06 314.17 C 201.00 315.51 203.43 314.83 205.53 315.69 C 207.03 316.57 207.27 313.62 208.80 313.99 C 209.29 314.43 210.26 315.30 210.74 315.74 C 210.62 315.23 210.37 314.23 210.24 313.73 C 211.55 314.06 212.85 314.42 214.14 314.82 C 214.80 321.73 206.35 325.36 200.50 324.51 C 198.93 324.36 197.64 323.53 196.53 322.48 C 195.12 322.80 193.66 323.89 192.23 323.03 C 190.12 322.38 189.74 319.75 188.69 318.07 C 185.80 318.39 182.72 317.32 181.57 314.46 Z" />
<path fill="#ffffff" d=" M 215.86 313.68 C 216.44 313.97 217.59 314.55 218.16 314.84 C 217.71 315.83 217.26 316.82 216.81 317.81 C 216.33 318.02 215.36 318.42 214.88 318.63 C 215.15 316.96 215.45 315.31 215.86 313.68 Z" />
<path fill="#ffffff" d=" M 120.97 334.02 C 130.24 330.08 135.10 320.16 144.18 315.85 C 146.83 319.71 150.40 324.01 149.97 328.91 C 147.00 333.82 141.38 336.37 137.71 340.71 C 135.44 343.52 132.00 345.06 129.79 347.92 C 128.20 350.10 125.79 351.40 123.47 352.68 C 121.01 353.76 120.07 356.54 117.99 358.09 C 114.91 360.27 112.31 363.09 108.94 364.85 C 105.24 366.61 102.36 369.62 99.23 372.18 C 96.44 373.43 93.44 374.19 90.58 375.29 C 86.70 377.22 81.22 378.31 77.54 375.59 C 82.10 370.81 87.40 366.76 91.46 361.50 C 95.81 356.07 103.68 358.52 109.13 355.13 C 112.80 350.07 113.52 343.33 112.03 337.40 C 114.14 334.62 118.11 335.50 120.97 334.02 Z" />
<path fill="#ffffff" d=" M 249.39 319.59 C 254.11 320.33 255.72 326.26 260.36 327.55 C 262.20 329.51 264.79 330.44 266.79 332.21 C 271.80 336.25 276.31 341.32 282.67 343.21 C 285.15 348.74 283.29 355.88 287.31 360.80 C 292.32 363.67 299.08 360.07 303.65 364.25 C 306.09 366.87 309.64 368.52 311.11 371.94 C 312.50 375.10 316.25 376.10 318.02 379.04 C 318.02 379.82 318.00 381.39 318.00 382.17 C 317.07 382.80 316.15 383.46 315.18 384.02 C 314.26 383.46 313.37 382.88 312.50 382.28 C 311.70 383.21 310.90 384.15 310.11 385.09 C 307.49 384.33 304.67 384.14 302.35 382.61 C 297.41 380.46 294.14 375.93 289.58 373.21 C 285.33 368.78 280.15 365.42 275.75 361.16 C 271.37 357.17 266.30 353.86 262.76 349.04 C 260.20 346.03 256.86 343.80 254.37 340.72 C 251.20 336.74 246.37 334.40 243.79 329.91 C 245.06 327.76 246.45 325.68 247.78 323.57 C 248.29 322.23 248.84 320.91 249.39 319.59 Z" />
</svg>
