<?xml version="1.0" encoding="UTF-8" standalone="no"?>
<!-- Created with Inkscape (http://www.inkscape.org/) -->

<svg
   xmlns:dc="http://purl.org/dc/elements/1.1/"
   xmlns:cc="http://creativecommons.org/ns#"
   xmlns:rdf="http://www.w3.org/1999/02/22-rdf-syntax-ns#"
   xmlns:svg="http://www.w3.org/2000/svg"
   xmlns="http://www.w3.org/2000/svg"
   xmlns:sodipodi="http://sodipodi.sourceforge.net/DTD/sodipodi-0.dtd"
   xmlns:inkscape="http://www.inkscape.org/namespaces/inkscape"
   inkscape:export-ydpi="90"
   inkscape:export-xdpi="90"
   inkscape:export-filename="/home/kevin/Desktop/SierpinskiTriangleLSystem.png"
   sodipodi:docname="SierpinskiTriangleLSystem.svg"
   inkscape:version="0.47pre4 r22446"
   version="1.1"
   id="svg2"
   height="1000"
   width="1000"
   viewBox="0 0 1097.6974 950.71167">
  <sodipodi:namedview
     id="base"
     pagecolor="#ffffff"
     bordercolor="#666666"
     borderopacity="1.0"
     inkscape:pageopacity="1"
     inkscape:pageshadow="2"
     inkscape:zoom="0.41986485"
     inkscape:cx="519.3237"
     inkscape:cy="438.77435"
     inkscape:document-units="px"
     inkscape:current-layer="svg2"
     showgrid="false"
     inkscape:window-width="1439"
     inkscape:window-height="829"
     inkscape:window-x="0"
     inkscape:window-y="24"
     inkscape:window-maximized="1"
     inkscape:connector-spacing="100" />
  <defs
     id="defs4">
    <inkscape:path-effect
       is_visible="true"
       id="path-effect23765"
       effect="spiro" />
    <inkscape:path-effect
       tgtlength_rdm="0.3;1"
       tgtlength="100"
       tgtscale="10"
       tgt_places_rdmness="1;1"
       nbtangents="5"
       tremble_frequency="1"
       tremble_size="2;1"
       parallel_offset="5;1"
       ends_tolerance="0.1;1"
       strokeoverlap_rdm="0.1;1422972435"
       strokeoverlap="0.2"
       strokelength_rdm="0.3;-126552713"
       strokelength="100"
       nbiter_approxstrokes="3"
       is_visible="true"
       id="path-effect23763"
       effect="sketch" />
    <inkscape:path-effect
       crossing_points_vector="1008.9385 | 25.509237 | 4 | 8 | 0 | 0 | 0.7795019 | 0.31872574 | 1"
       switcher_size="15"
       add_other_stroke_width="true"
       add_stroke_width="true"
       prop_to_stroke_width="true"
       interruption_width="10"
       is_visible="true"
       id="path-effect9964"
       effect="knot" />
    <inkscape:path-effect
       crossing_points_vector=""
       switcher_size="15"
       add_other_stroke_width="true"
       add_stroke_width="true"
       prop_to_stroke_width="true"
       interruption_width="3.8"
       is_visible="true"
       id="path-effect9961"
       effect="knot" />
    <inkscape:path-effect
       crossing_points_vector="-375 | -236.51778 | 0 | 0 | 0 | 9 | 0.32940421 | 5.5959633 | 1 | -101.85294 | -311.47402 | 0 | 0 | 3 | 6 | 1.7550407 | 3.7234629 | 1 | -199.88951 | -308.28584 | 0 | 0 | 2 | 7 | 1.4840453 | 4.342529 | 1 | -269.67588 | -306.01637 | 0 | 0 | 1 | 10 | 1.2911399 | 7.525392 | 1 | -7.9294411 | -249.04191 | 0 | 0 | 4 | 13 | 2.3063434 | 8.886909 | 1 | -94.108079 | -230.2056 | 0 | 0 | 5 | 12 | 3.4545826 | 8.590942 | 1 | -207.58968 | -214.04154 | 0 | 0 | 8 | 11 | 4.5592351 | 8.2012072 | 1"
       switcher_size="0"
       add_other_stroke_width="true"
       add_stroke_width="true"
       prop_to_stroke_width="true"
       interruption_width="1"
       is_visible="true"
       id="path-effect9959"
       effect="knot" />
    <marker
       style="overflow:visible"
       id="DiamondMend"
       refX="0"
       refY="0"
       orient="auto"
       inkscape:stockid="DiamondMend">
      <path
         transform="matrix(0.4,0,0,0.4,-2.6,0)"
         style="fill-rule:evenodd;stroke:#000000;stroke-width:1pt;marker-start:none"
         d="M 0,-7.0710768 -7.0710894,0 0,7.0710589 7.0710462,0 0,-7.0710768 z"
         id="path5068" />
    </marker>
    <marker
       style="overflow:visible"
       id="DiamondSend"
       refX="0"
       refY="0"
       orient="auto"
       inkscape:stockid="DiamondSend">
      <path
         transform="matrix(0.2,0,0,0.2,-1.2,0)"
         style="fill-rule:evenodd;stroke:#000000;stroke-width:1pt;marker-start:none"
         d="M 0,-7.0710768 -7.0710894,0 0,7.0710589 7.0710462,0 0,-7.0710768 z"
         id="path5071" />
    </marker>
    <marker
       style="overflow:visible"
       id="Torso"
       refX="0"
       refY="0"
       orient="auto"
       inkscape:stockid="Torso">
      <g
         transform="scale(0.7,0.7)"
         id="g5180">
        <path
           style="fill:none;stroke:#000000;stroke-width:1.25;marker-start:none;marker-mid:none;marker-end:none"
           d="m -4.7792281,-3.239542 c 2.350374,0.3659393 5.30026732,1.9375477 5.03715532,3.62748546 C -0.00518779,2.0778819 -2.2126741,2.6176539 -4.5630471,2.2517169 -6.9134221,1.8857769 -8.521035,0.75201414 -8.257922,-0.93792336 -7.994809,-2.6278615 -7.1296041,-3.6054813 -4.7792281,-3.239542 z"
           id="path5182" />
        <path
           style="fill:none;stroke:#000000;stroke-width:1pt;marker-end:none"
           d="M 4.4598789,0.08866574 C -2.5564571,-4.378332 5.2248769,-3.9061806 -0.84829578,-8.7197331"
           id="path5184" />
        <path
           style="fill:none;stroke:#000000;stroke-width:1pt;marker-start:none;marker-end:none"
           d="M 4.9298719,0.05752074 C -1.3872731,1.7494689 1.8027579,5.4782079 -4.9448731,7.5462725"
           id="path5186" />
        <rect
           style="fill-rule:evenodd;stroke-width:1pt;marker-end:none"
           width="2.6366582"
           height="2.7608147"
           x="-10.391706"
           y="-1.7408575"
           transform="matrix(0.527536,-0.849533,0.887668,0.460484,0,0)"
           id="rect5188" />
        <rect
           style="fill-rule:evenodd;stroke-width:1pt;marker-end:none"
           width="2.7327356"
           height="2.8614161"
           x="4.9587269"
           y="-7.9629307"
           transform="matrix(0.671205,-0.741272,0.790802,0.612072,0,0)"
           id="rect5190" />
        <path
           sodipodi:type="arc"
           style="fill:#ff0000;fill-opacity:0.75;fill-rule:evenodd;stroke:#000000;stroke-width:1pt;marker-start:none;marker-end:none"
           sodipodi:cx="16.172634"
           sodipodi:cy="-28.685045"
           sodipodi:rx="0.60731727"
           sodipodi:ry="0.60731727"
           d="m 16.779951,-28.685045 c 0,0.335412 -0.271905,0.607317 -0.607317,0.607317 -0.335412,0 -0.607317,-0.271905 -0.607317,-0.607317 0,-0.335412 0.271905,-0.607318 0.607317,-0.607318 0.335412,0 0.607317,0.271906 0.607317,0.607318 z"
           transform="matrix(0,-1.109517,1.109517,0,25.96648,19.71619)"
           id="path5192" />
        <path
           sodipodi:type="arc"
           style="fill:#ff0000;fill-opacity:0.75;fill-rule:evenodd;stroke:#000000;stroke-width:1pt;marker-start:none;marker-end:none"
           sodipodi:cx="16.172634"
           sodipodi:cy="-28.685045"
           sodipodi:rx="0.60731727"
           sodipodi:ry="0.60731727"
           d="m 16.779951,-28.685045 c 0,0.335412 -0.271905,0.607317 -0.607317,0.607317 -0.335412,0 -0.607317,-0.271905 -0.607317,-0.607317 0,-0.335412 0.271905,-0.607318 0.607317,-0.607318 0.335412,0 0.607317,0.271906 0.607317,0.607318 z"
           transform="matrix(0,-1.109517,1.109517,0,26.8245,16.99126)"
           id="path5194" />
      </g>
    </marker>
    <marker
       style="overflow:visible"
       id="Legs"
       refX="0"
       refY="0"
       orient="auto"
       inkscape:stockid="Legs">
      <g
         transform="scale(-0.7,-0.7)"
         id="g5167">
        <g
           transform="matrix(0,-1,-1,0,20.70862,21.31391)"
           id="g5169">
          <path
             style="fill:none;stroke:#000000;stroke-width:1pt;marker-start:none;marker-end:none"
             d="m 21.22125,20.67536 c -6.910151,4.721157 -2.454525,6.606844 -5.841071,13.443235"
             id="path5171" />
          <path
             style="fill:none;stroke:#000000;stroke-width:1pt;marker-start:none;marker-end:none"
             d="m 21.39811,20.54812 c -1.360509,8.347524 3.536072,8.76994 4.505041,13.824958"
             id="path5173" />
        </g>
        <path
           style="fill:#030300;fill-rule:evenodd;stroke-width:1pt;marker-end:none"
           d="m -14.09007,-6.7318716 -0.922168,4.043383 3.962751,-1.22307 -3.040583,-2.820313 z"
           id="path5175" />
        <path
           style="fill:#030300;fill-rule:evenodd;stroke-width:1pt;marker-end:none"
           d="m -15.215679,4.5567534 1.874127,3.699613 2.266874,-3.472855 -4.141001,-0.226758 z"
           id="path5177" />
      </g>
    </marker>
    <marker
       style="overflow:visible"
       id="Scissors"
       refX="0"
       refY="0"
       orient="auto"
       inkscape:stockid="Scissors">
      <path
         d="M 9.0898857,-3.6061018 C 8.1198849,-4.7769976 6.3697607,-4.7358294 5.0623558,-4.2327734 l -8.2124046,3.0779029 c -2.3882933,-1.3067135 -4.7482873,-0.9325372 -4.7482873,-1.5687873 0,-0.4973164 0.4566662,-0.3883222 0.3883068,-1.6831941 -0.065635,-1.2432767 -1.3635771,-2.1630796 -2.5903987,-2.0816435 -1.227271,-0.00735 -2.499439,0.9331613 -2.510341,2.2300611 -0.09143,1.3063864 1.007209,2.5196896 2.306764,2.6052316 1.5223406,0.2266616 4.218258,-0.6955566 5.482945,1.57086006 -0.9422847,1.73825774 -2.6140244,1.74307674 -4.1255107,1.65607034 -1.2548743,-0.072235 -2.7620933,0.2873979 -3.3606483,1.5208605 -0.578367,1.1820862 -0.0112,2.8646022 1.316749,3.226412 1.3401912,0.4918277 3.1806689,-0.129711 3.4993722,-1.6707242 0.2456585,-1.187823 -0.5953659,-1.7459574 -0.2725074,-2.1771537 0.2436135,-0.32536 1.7907806,-0.1368452 4.5471053,-1.3748244 L 5.6763468,4.2330688 C 6.8000164,4.5467672 8.1730685,4.5362646 9.1684433,3.4313614 L -0.05164093,-0.05372222 9.0898857,-3.6061018 z m -18.3078016,-1.900504 c 1.294559,0.7227998 1.1888392,2.6835702 -0.1564272,3.0632889 -1.2165179,0.423661 -2.7710269,-0.7589694 -2.3831779,-2.0774648 0.227148,-1.0818519 1.653387,-1.480632 2.5396051,-0.9858241 z m 0.056264,8.0173649 c 1.3508301,0.4988648 1.1214429,2.7844356 -0.2522207,3.091609 -0.9110594,0.3163391 -2.2135494,-0.1387976 -2.3056964,-1.2121394 -0.177609,-1.305055 1.356085,-2.4841482 2.5579171,-1.8794696 z"
         style="marker-start:none"
         id="schere" />
    </marker>
    <marker
       inkscape:stockid="DistanceStart"
       orient="auto"
       refY="0"
       refX="0"
       id="DistanceStart"
       style="overflow:visible">
      <g
         id="g2300">
        <path
           id="path2306"
           d="M 0,0 2,0"
           style="fill:none;stroke:#ffffff;stroke-width:1.14999998;stroke-linecap:square" />
        <path
           id="path2302"
           d="M 0,0 13,4 9,0 13,-4 0,0 z"
           style="fill:#000000;fill-rule:evenodd;stroke:none" />
        <path
           id="path2304"
           d="M 0,-4 0,40"
           style="fill:none;stroke:#000000;stroke-width:1;stroke-linecap:square" />
      </g>
    </marker>
    <marker
       inkscape:stockid="DistanceEnd"
       orient="auto"
       refY="0"
       refX="0"
       id="DistanceEnd"
       style="overflow:visible">
      <g
         id="g5023">
        <path
           id="path2316"
           d="M 0,0 -2,0"
           style="fill:none;stroke:#ffffff;stroke-width:1.14999998;stroke-linecap:square" />
        <path
           id="path2312"
           d="M 0,0 -13,4 -9,0 -13,-4 0,0 z"
           style="fill:#000000;fill-rule:evenodd;stroke:none" />
        <path
           id="path2314"
           d="M 0,-4 0,40"
           style="fill:none;stroke:#000000;stroke-width:1;stroke-linecap:square" />
      </g>
    </marker>
    <marker
       style="overflow:visible"
       id="Arrow1Send"
       refX="0"
       refY="0"
       orient="auto"
       inkscape:stockid="Arrow1Send">
      <path
         transform="matrix(-0.2,0,0,-0.2,-1.2,0)"
         style="fill-rule:evenodd;stroke:#000000;stroke-width:1pt;marker-start:none"
         d="M 0,0 5,-5 -12.5,0 5,5 0,0 z"
         id="path4982" />
    </marker>
    <marker
       style="overflow:visible"
       id="TriangleOutL"
       refX="0"
       refY="0"
       orient="auto"
       inkscape:stockid="TriangleOutL">
      <path
         transform="scale(0.8,0.8)"
         style="fill-rule:evenodd;stroke:#000000;stroke-width:1pt;marker-start:none"
         d="m 5.77,0 -8.65,5 0,-10 8.65,5 z"
         id="path5110" />
    </marker>
    <marker
       style="overflow:visible"
       id="Arrow2Lend"
       refX="0"
       refY="0"
       orient="auto"
       inkscape:stockid="Arrow2Lend">
      <path
         transform="matrix(-1.1,0,0,-1.1,-1.1,0)"
         d="M 8.7185878,4.0337352 -2.2072895,0.01601326 8.7185884,-4.0017078 c -1.7454984,2.3720609 -1.7354408,5.6174519 -6e-7,8.035443 z"
         style="font-size:12px;fill-rule:evenodd;stroke-width:0.625;stroke-linejoin:round"
         id="path4988" />
    </marker>
    <inkscape:perspective
       id="perspective10"
       inkscape:persp3d-origin="372.04724 : 350.78739 : 1"
       inkscape:vp_z="744.09448 : 526.18109 : 1"
       inkscape:vp_y="0 : 1000 : 0"
       inkscape:vp_x="0 : 526.18109 : 1"
       sodipodi:type="inkscape:persp3d" />
  </defs>
  <metadata
     id="metadata7">
    <rdf:RDF>
      <cc:Work
         rdf:about="">
        <dc:format>image/svg+xml</dc:format>
        <dc:type
           rdf:resource="http://purl.org/dc/dcmitype/StillImage" />
        <dc:title />
      </cc:Work>
    </rdf:RDF>
  </metadata>
  <g
     transform="translate(986.45176,-270.44544)"
     style="display:inline"
     inkscape:label="Layern"
     id="layer3"
     inkscape:groupmode="layer" />
  <path
     id="path25009"
     d="m 556.90515,907.90454 8.05645,-13.95318 -8.05645,-13.95319 8.05645,-13.95318 16.1129,0 8.05646,13.95318 -8.05646,13.95319 8.05646,13.95318 16.1129,0 8.05645,-13.95318 16.1129,0 8.05646,13.95318 16.1129,0 8.05645,-13.95318 -8.05645,-13.95319 -16.1129,0 -8.05646,-13.95318 8.05646,-13.95318 -8.05646,-13.95319 -16.1129,0 -8.05645,13.95319 -16.1129,0 -8.05646,-13.95319 8.05646,-13.95318 16.1129,0 8.05645,-13.95318 -8.05645,-13.95319 8.05645,-13.95319 16.1129,0 8.05646,13.95319 16.1129,0 8.05645,-13.95319 -8.05645,-13.95318 -16.1129,0 -8.05646,-13.95318 8.05646,-13.95318 16.1129,0 8.05645,-13.95319 -8.05645,-13.95319 8.05645,-13.95318 16.1129,0 8.05646,13.95318 -8.05646,13.95319 8.05646,13.95319 16.1129,0 8.05645,13.95318 -8.05645,13.95318 -16.1129,0 -8.05646,13.95318 8.05646,13.95319 16.1129,0 8.05645,-13.95319 16.1129,0 8.05646,13.95319 -8.05646,13.95319 8.05646,13.95318 16.1129,0 8.05645,13.95318 -8.05645,13.95319 -16.1129,0 -8.05646,-13.95319 -16.1129,0 -8.05645,13.95319 8.05645,13.95318 -8.05645,13.95318 -16.1129,0 -8.05646,13.95319 8.05646,13.95318 16.1129,0 8.05645,-13.95318 16.1129,0 8.05646,13.95318 16.1129,0 8.05645,-13.95318 -8.05645,-13.95319 8.05645,-13.95318 16.1129,0 8.05645,13.95318 -8.05645,13.95319 8.05645,13.95318 16.11291,0 8.05645,-13.95318 16.1129,0 8.05645,13.95318 16.11291,0 8.05645,-13.95318 -8.05645,-13.95319 -16.11291,0 -8.05645,-13.95318 8.05645,-13.95318 16.11291,0 8.05645,-13.95319 -8.05645,-13.95318 8.05645,-13.95318 16.1129,0 8.05645,13.95318 -8.05645,13.95318 8.05645,13.95319 16.11291,0 8.05645,13.95318 -8.05645,13.95318 -16.11291,0 -8.05645,13.95319 8.05645,13.95318 16.11291,0 8.05645,-13.95318 16.1129,0 8.05645,13.95318 16.1129,0 8.05645,-13.95318 -8.05645,-13.95319 8.05645,-13.95318 16.11291,0 8.05645,13.95318 -8.05645,13.95319 8.05645,13.95318 16.1129,0 8.05647,-13.95318 16.1129,0 8.0564,13.95318 16.1129,0 8.0565,-13.95318 -8.0565,-13.95319 -16.1129,0 -8.0564,-13.95318 8.0564,-13.95318 -8.0564,-13.95319 -16.1129,0 -8.05647,13.95319 -16.1129,0 -8.05645,-13.95319 8.05645,-13.95318 16.1129,0 8.05647,-13.95318 -8.05647,-13.95319 -16.1129,0 -8.05645,-13.95319 8.05645,-13.95318 -8.05645,-13.95318 -16.11291,0 -8.05645,13.95318 8.05645,13.95318 -8.05645,13.95319 -16.1129,0 -8.05645,-13.95319 -16.1129,0 -8.05645,13.95319 -16.11291,0 -8.05645,-13.95319 8.05645,-13.95318 16.11291,0 8.05645,-13.95318 -8.05645,-13.95318 8.05645,-13.95319 16.1129,0 8.05645,13.95319 16.1129,0 8.05645,-13.95319 -8.05645,-13.95319 -16.1129,0 -8.05645,-13.95318 8.05645,-13.95318 -8.05645,-13.95318 -16.1129,0 -8.05645,13.95318 -16.11291,0 -8.05645,-13.95318 8.05645,-13.95319 16.11291,0 8.05645,-13.95318 -8.05645,-13.95319 -16.11291,0 -8.05645,-13.95318 8.05645,-13.95318 -8.05645,-13.95319 -16.1129,0 -8.05645,13.95319 8.05645,13.95318 -8.05645,13.95318 -16.11291,0 -8.05645,13.95319 8.05645,13.95318 16.11291,0 8.05645,13.95319 -8.05645,13.95318 -16.11291,0 -8.05645,-13.95318 -16.1129,0 -8.05645,13.95318 -16.11291,0 -8.05645,-13.95318 8.05645,-13.95319 -8.05645,-13.95318 -16.1129,0 -8.05645,13.95318 8.05645,13.95319 -8.05645,13.95318 -16.1129,0 -8.05646,-13.95318 -16.1129,0 -8.05645,13.95318 -16.1129,0 -8.05646,-13.95318 8.05646,-13.95319 16.1129,0 8.05645,-13.95318 -8.05645,-13.95319 8.05645,-13.95318 16.1129,0 8.05646,13.95318 16.1129,0 8.05645,-13.95318 -8.05645,-13.95318 -16.1129,0 -8.05646,-13.95319 8.05646,-13.95318 16.1129,0 8.05645,-13.95319 -8.05645,-13.95318 8.05645,-13.95318 16.1129,0 8.05645,13.95318 -8.05645,13.95318 8.05645,13.95319 16.11291,0 8.05645,-13.95319 16.1129,0 8.05645,13.95319 16.11291,0 8.05645,-13.95319 -8.05645,-13.95318 -16.11291,0 -8.05645,-13.95318 8.05645,-13.95319 -8.05645,-13.95318 -16.1129,0 -8.05645,13.95318 -16.11291,0 -8.05645,-13.95318 8.05645,-13.95319 16.11291,0 8.05645,-13.95318 -8.05645,-13.95318 -16.11291,0 -8.05645,13.95318 -16.1129,0 -8.05645,-13.95318 8.05645,-13.95319 16.1129,0 8.05645,-13.95318 -8.05645,-13.95319 -16.1129,0 -8.05645,-13.95318 8.05645,-13.95318 -8.05645,-13.95319 -16.1129,0 -8.05646,13.95319 8.05646,13.95318 -8.05646,13.95318 -16.1129,0 -8.05645,13.95319 8.05645,13.95318 16.1129,0 8.05646,13.95319 -8.05646,13.95318 -16.1129,0 -8.05645,-13.95318 -16.1129,0 -8.05646,13.95318 -16.1129,0 -8.05645,-13.95318 8.05645,-13.95319 -8.05645,-13.95318 -16.1129,0 -8.05646,13.95318 8.05646,13.95319 -8.05646,13.95318 -16.1129,0 -8.05645,-13.95318 -16.1129,0 -8.05646,13.95318 -16.1129,0 -8.05645,-13.95318 8.05645,-13.95319 16.1129,0 8.05646,-13.95318 -8.05646,-13.95319 8.05646,-13.95318 16.1129,0 8.05645,13.95318 16.1129,0 8.05646,-13.95318 -8.05646,-13.95318 -16.1129,0 -8.05645,-13.95319 8.05645,-13.95318 16.1129,0 8.05646,-13.95318 -8.05646,-13.95319 8.05646,-13.95318 16.1129,0 8.05645,13.95318 -8.05645,13.95319 8.05645,13.95318 16.1129,0 8.05646,-13.95318 16.1129,0 8.05645,13.95318 16.1129,0 8.05646,-13.95318 -8.05646,-13.95319 -16.1129,0 -8.05645,-13.95318 8.05645,-13.95319 -8.05645,-13.95318 -16.1129,0 -8.05646,13.95318 -16.1129,0 -8.05645,-13.95318 8.05645,-13.95318 16.1129,0 8.05646,-13.95319 -8.05646,-13.95318 -16.1129,0 -8.05645,-13.95319 8.05645,-13.95318 -8.05645,-13.95318 -16.1129,0 -8.05646,13.95318 8.05646,13.95318 -8.05646,13.95319 -16.1129,0 -8.05645,-13.95319 -16.1129,0 -8.05646,13.95319 -16.1129,0 -8.05645,-13.95319 8.05645,-13.95318 16.1129,0 8.05646,-13.95318 -8.05646,-13.95319 8.05646,-13.95318 16.1129,0 8.05645,13.95318 16.1129,0 8.05646,-13.95318 -8.05646,-13.95319 -16.1129,0 -8.05645,-13.95318 8.05645,-13.95318 -8.05645,-13.95319 -16.1129,0 -8.05646,13.95319 -16.1129,0 -8.05645,-13.95319 8.05645,-13.95319 16.1129,0 8.05646,-13.953183 -8.05646,-13.953183 -16.1129,0 -8.05645,-13.953183 8.05645,-13.953188 -8.05645,-13.953183 -16.11291,0 -8.05645,13.953183 8.05645,13.953188 -8.05645,13.953183 -16.1129,0 -8.05646,13.953183 8.05646,13.953183 16.1129,0 8.05645,13.95319 -8.05645,13.95319 -16.1129,0 -8.05646,-13.95319 -16.1129,0 -8.05645,13.95319 8.05645,13.95318 -8.05645,13.95318 -16.1129,0 -8.05646,13.95319 8.05646,13.95318 16.1129,0 8.05645,-13.95318 16.1129,0 8.05646,13.95318 -8.05646,13.95319 8.05646,13.95318 16.1129,0 8.05645,13.95318 -8.05645,13.95319 -16.1129,0 -8.05646,-13.95319 -16.1129,0 -8.05645,13.95319 -16.1129,0 -8.05646,-13.95319 8.05646,-13.95318 -8.05646,-13.95318 -16.1129,0 -8.05645,13.95318 8.05645,13.95318 -8.05645,13.95319 -16.1129,0 -8.05645,13.95318 8.05645,13.95319 16.1129,0 8.05645,13.95318 -8.05645,13.95318 -16.1129,0 -8.05645,-13.95318 -16.11291,0 -8.05645,13.95318 8.05645,13.95319 -8.05645,13.95318 -16.1129,0 -8.05645,13.95319 8.05645,13.95318 16.1129,0 8.05645,-13.95318 16.11291,0 8.05645,13.95318 16.1129,0 8.05645,-13.95318 -8.05645,-13.95319 8.05645,-13.95318 16.1129,0 8.05646,13.95318 -8.05646,13.95319 8.05646,13.95318 16.1129,0 8.05645,13.95318 -8.05645,13.95319 -16.1129,0 -8.05646,13.95318 8.05646,13.95318 16.1129,0 8.05645,-13.95318 16.1129,0 8.05646,13.95318 -8.05646,13.95319 8.05646,13.95318 16.1129,0 8.05645,13.95319 -8.05645,13.95318 -16.1129,0 -8.05646,-13.95318 -16.1129,0 -8.05645,13.95318 -16.1129,0 -8.05646,-13.95318 8.05646,-13.95319 -8.05646,-13.95318 -16.1129,0 -8.05645,13.95318 8.05645,13.95319 -8.05645,13.95318 -16.1129,0 -8.05645,-13.95318 -16.11291,0 -8.05645,13.95318 -16.1129,0 -8.05645,-13.95318 8.05645,-13.95319 16.1129,0 8.05645,-13.95318 -8.05645,-13.95319 -16.1129,0 -8.05645,-13.95318 8.05645,-13.95318 -8.05645,-13.95319 -16.11291,0 -8.05645,13.95319 8.05645,13.95318 -8.05645,13.95318 -16.1129,0 -8.05646,13.95319 8.05646,13.95318 16.1129,0 8.05645,13.95319 -8.05645,13.95318 -16.1129,0 -8.05646,-13.95318 -16.1129,0 -8.05645,13.95318 8.05645,13.95318 16.1129,0 8.05646,13.95319 -8.05646,13.95318 -16.1129,0 -8.05645,-13.95318 -16.1129,0 -8.05646,13.95318 8.05646,13.95319 -8.05646,13.95318 -16.1129,0 -8.05645,13.95318 8.05645,13.95319 16.1129,0 8.05646,-13.95319 16.1129,0 8.05645,13.95319 16.1129,0 8.05646,-13.95319 -8.05646,-13.95318 8.05646,-13.95318 16.1129,0 8.05645,13.95318 -8.05645,13.95318 8.05645,13.95319 16.11291,0 8.05645,13.95318 -8.05645,13.95319 -16.11291,0 -8.05645,13.95318 8.05645,13.95318 16.11291,0 8.05645,-13.95318 16.1129,0 8.05645,13.95318 -8.05645,13.95319 8.05645,13.95318 16.11291,0 8.05645,13.95319 -8.05645,13.95318 -16.11291,0 -8.05645,-13.95318 -16.1129,0 -8.05645,13.95318 -16.11291,0 -8.05645,-13.95318 8.05645,-13.95319 -8.05645,-13.95318 -16.1129,0 -8.05646,13.95318 8.05646,13.95319 -8.05646,13.95318 -16.1129,0 -8.05645,-13.95318 -16.1129,0 -8.05646,13.95318 -16.1129,0 -8.05645,-13.95318 8.05645,-13.95319 16.1129,0 8.05646,-13.95318 -8.05646,-13.95319 -16.1129,0 -8.05645,-13.95318 8.05645,-13.95318 -8.05645,-13.95319 -16.1129,0 -8.05646,13.95319 8.05646,13.95318 -8.05646,13.95318 -16.1129,0 -8.05645,13.95319 8.05645,13.95318 16.1129,0 8.05646,13.95319 -8.05646,13.95318 -16.1129,0 -8.05645,-13.95318 -16.1129,0 -8.05646,13.95318 8.05646,13.95318 -8.05646,13.95318 -16.1129,0 -8.05645,13.95319 8.05645,13.95319 16.1129,0 8.05646,-13.95319 16.1129,0 8.05645,13.95319 -8.05645,13.95318 8.05645,13.95318 16.1129,0 8.05646,13.95318 -8.05646,13.95319 -16.1129,0 -8.05645,-13.95319 -16.1129,0 -8.05646,13.95319 -16.1129,0 -8.05645,-13.95319 8.05645,-13.95318 -8.05645,-13.95318 -16.1129,0 -8.05646,13.95318 8.05646,13.95318 -8.05646,13.95319 -16.1129,0 -8.056446,13.95319 8.056446,13.95318 16.1129,0 8.05646,13.95318 -8.05646,13.95319 -16.1129,0 -8.056446,-13.95319 -16.11291,0 -8.05645,13.95319 8.05645,13.95318 -8.05645,13.95318 -16.1129,0 -8.05645,13.95319 8.05645,13.95318 16.1129,0 8.05645,-13.95318 16.11291,0 8.056446,13.95318 16.1129,0 8.05646,-13.95318 -8.05646,-13.95319 8.05646,-13.95318 16.1129,0 8.05645,13.95318 -8.05645,13.95319 8.05645,13.95318 16.1129,0 8.05646,-13.95318 16.1129,0 8.05645,13.95318 16.1129,0 8.05646,-13.95318 -8.05646,-13.95319 -16.1129,0 -8.05645,-13.95318 8.05645,-13.95318 16.1129,0 8.05646,-13.95319 -8.05646,-13.95318 8.05646,-13.95318 16.1129,0 8.05645,13.95318 -8.05645,13.95318 8.05645,13.95319 16.1129,0 8.05646,13.95318 -8.05646,13.95318 -16.1129,0 -8.05645,13.95319 8.05645,13.95318 16.1129,0 8.05646,-13.95318 16.1129,0 8.05645,13.95318 16.1129,0 8.05646,-13.95318 -8.05646,-13.95319 8.05646,-13.95318 16.1129,0 8.05645,13.95318 -8.05645,13.95319 8.05645,13.95318 16.11291,0 8.05645,-13.95318 16.1129,0 8.05645,13.95318 16.11291,0 8.05645,-13.95318 -8.05645,-13.95319 -16.11291,0 -8.05645,-13.95318 8.05645,-13.95318 -8.05645,-13.95319 -16.1129,0 -8.05645,13.95319 -16.11291,0 -8.05645,-13.95319 8.05645,-13.95318 16.11291,0 8.05645,-13.95318 -8.05645,-13.95319 8.05645,-13.95319 16.1129,0 8.05645,13.95319 16.11291,0 8.05645,-13.95319 -8.05645,-13.95318 -16.11291,0 -8.05645,-13.95318 8.05645,-13.95318 16.11291,0 8.05645,-13.95319 -8.05645,-13.95319 8.05645,-13.95318 16.1129,0 8.05645,13.95318 -8.05645,13.95319 8.05645,13.95319 16.1129,0 8.05646,13.95318 -8.05646,13.95318 -16.1129,0 -8.05645,13.95318 8.05645,13.95319 16.1129,0 8.05646,-13.95319 16.1129,0 8.05645,13.95319 -8.05645,13.95319 8.05645,13.95318 16.1129,0 8.05646,13.95318 -8.05646,13.95319 -16.1129,0 -8.05645,-13.95319 -16.1129,0 -8.05646,13.95319 8.05646,13.95318 -8.05646,13.95318 -16.1129,0 -8.05645,13.95319 8.05645,13.95318 16.1129,0 8.05646,-13.95318 16.1129,0 8.05645,13.95318 16.1129,0 8.05646,-13.95318 -8.05646,-13.95319 8.05646,-13.95318 16.1129,0 8.05645,13.95318 -8.05645,13.95319 8.05645,13.95318 16.11291,0 z"
     style="fill:#000000;stroke:#ffffff;stroke-width:1px;stroke-linecap:butt;stroke-linejoin:miter;stroke-opacity:1;fill-opacity:1"
     sodipodi:nodetypes="ccccccccccccccccccccccccccccccccccccccccccccccccccccccccccccccccccccccccccccccccccccccccccccccccccccccccccccccccccccccccccccccccccccccccccccccccccccccccccccccccccccccccccccccccccccccccccccccccccccccccccccccccccccccccccccccccccccccccccccccccccccccccccccccccccccccccccccccccccccccccccccccccccccccccccccccccccccccccccccccccccccccccccccccccccccccccccccccccccccccccccccccccccccccccccccccccccccccccccccccccccccccccccccccccccccccccccccccccccccccccccccccccccccccccccccccccccccccccccccccccccccccccccccccccccccccccccccccccccccccccccccccccccccccccccccccccccccccccccccccccccccccccccccccccccccccccccccccccccccccccccccccccccccccccccccccccccccccccccccccccccccccccccccccccccccccccccccccccccccccccccccccccccccccccccccccccccccccccccccccccccccccc" />
</svg>
