<?xml version="1.0" encoding="UTF-8" standalone="no"?>
<!-- Created with Inkscape (http://www.inkscape.org/) -->
<svg
   xmlns:svg="http://www.w3.org/2000/svg"
   xmlns="http://www.w3.org/2000/svg"
   version="1.0"
   width="256"
   height="256"
   id="svg2">
  <defs
     id="defs4" />
  <g
     id="layer2"
     style="display:inline">
    <rect
       width="256"
       height="256"
       x="0"
       y="0"
       id="rect3928"
       style="opacity:1;fill:#808080;fill-opacity:1;stroke:none;stroke-width:1;stroke-miterlimit:4;stroke-dasharray:none;stroke-opacity:0.92682926" />
  </g>
  <g
     id="layer1"
     style="display:inline">
    <path
       d="M 127.99999,128 L 143.99999,128 L 143.99999,100 L 127.99999,128 L 127.99999,128 z"
       id="path2616"
       style="fill:#000000;fill-opacity:1;fill-rule:evenodd;stroke:none;stroke-width:1px;stroke-linecap:butt;stroke-linejoin:miter;stroke-opacity:1" />
    <path
       d="M 159.99999,128 L 143.99999,128 L 143.99999,100 L 159.99999,128 L 159.99999,128 z"
       id="path2618"
       style="fill:#000000;fill-opacity:1;fill-rule:evenodd;stroke:none;stroke-width:1px;stroke-linecap:butt;stroke-linejoin:miter;stroke-opacity:1" />
    <path
       d="M 95.999979,128 L 111.99999,128 L 111.99999,100 L 95.999979,128 L 95.999979,128 z"
       id="path3687"
       style="fill:#000000;fill-opacity:1;fill-rule:evenodd;stroke:none;stroke-width:1px;stroke-linecap:butt;stroke-linejoin:miter;stroke-opacity:1" />
    <path
       d="M 127.99999,128 L 112,128 L 112,100 L 127.99999,128 L 127.99999,128 z"
       id="path3689"
       style="fill:#000000;fill-opacity:1;fill-rule:evenodd;stroke:none;stroke-width:1px;stroke-linecap:butt;stroke-linejoin:miter;stroke-opacity:1" />
    <path
       d="M 112,100 L 127.99999,100 L 127.99999,128 L 112,100 L 112,100 z"
       id="path3691"
       style="fill:#ffffff;fill-opacity:1;fill-rule:evenodd;stroke:none;stroke-width:1px;stroke-linecap:butt;stroke-linejoin:miter;stroke-opacity:1" />
    <path
       d="M 143.99999,100 L 127.99999,100 L 127.99999,128 L 143.99999,100 L 143.99999,100 z"
       id="path3693"
       style="fill:#ffffff;fill-opacity:1;fill-rule:evenodd;stroke:none;stroke-width:1px;stroke-linecap:butt;stroke-linejoin:miter;stroke-opacity:1" />
    <path
       d="M 127.99999,128 L 143.99999,128 L 143.99999,156 L 127.99999,128 L 127.99999,128 z"
       id="path3695"
       style="fill:#ffffff;fill-opacity:1;fill-rule:evenodd;stroke:none;stroke-width:1px;stroke-linecap:butt;stroke-linejoin:miter;stroke-opacity:1" />
    <path
       d="M 159.99999,128 L 143.99999,128 L 143.99999,156 L 159.99999,128 L 159.99999,128 z"
       id="path3697"
       style="fill:#ffffff;fill-opacity:1;fill-rule:evenodd;stroke:none;stroke-width:1px;stroke-linecap:butt;stroke-linejoin:miter;stroke-opacity:1" />
    <path
       d="M 95.999989,128 L 111.99999,128 L 111.99999,156 L 95.999989,128 L 95.999989,128 z"
       id="path3699"
       style="fill:#ffffff;fill-opacity:1;fill-rule:evenodd;stroke:none;stroke-width:1px;stroke-linecap:butt;stroke-linejoin:miter;stroke-opacity:1" />
    <path
       d="M 127.99999,128 L 111.99999,128 L 111.99999,156 L 127.99999,128 L 127.99999,128 z"
       id="path3701"
       style="fill:#ffffff;fill-opacity:1;fill-rule:evenodd;stroke:none;stroke-width:1px;stroke-linecap:butt;stroke-linejoin:miter;stroke-opacity:1" />
    <path
       d="M 112,156 L 127.99999,156 L 127.99999,128 L 112,156 L 112,156 z"
       id="path3703"
       style="fill:#000000;fill-opacity:1;fill-rule:evenodd;stroke:none;stroke-width:1px;stroke-linecap:butt;stroke-linejoin:miter;stroke-opacity:1" />
    <path
       d="M 143.99999,156 L 127.99999,156 L 127.99999,128 L 143.99999,156 L 143.99999,156 z"
       id="path3705"
       style="fill:#000000;fill-opacity:1;fill-rule:evenodd;stroke:none;stroke-width:1px;stroke-linecap:butt;stroke-linejoin:miter;stroke-opacity:1" />
    <path
       d="M 175.99999,99.999997 L 191.99999,99.999997 L 191.99999,71.999997 L 175.99999,99.999997 L 175.99999,99.999997 z"
       id="path3771"
       style="fill:#000000;fill-opacity:1;fill-rule:evenodd;stroke:none;stroke-width:1px;stroke-linecap:butt;stroke-linejoin:miter;stroke-opacity:1" />
    <path
       d="M 207.99999,99.999997 L 191.99999,99.999997 L 191.99999,71.999997 L 207.99999,99.999997 L 207.99999,99.999997 z"
       id="path3773"
       style="fill:#000000;fill-opacity:1;fill-rule:evenodd;stroke:none;stroke-width:1px;stroke-linecap:butt;stroke-linejoin:miter;stroke-opacity:1" />
    <path
       d="M 143.99999,99.999997 L 159.99999,99.999997 L 159.99999,71.999997 L 143.99999,99.999997 L 143.99999,99.999997 z"
       id="path3775"
       style="fill:#000000;fill-opacity:1;fill-rule:evenodd;stroke:none;stroke-width:1px;stroke-linecap:butt;stroke-linejoin:miter;stroke-opacity:1" />
    <path
       d="M 175.99999,99.999997 L 160,99.999997 L 160,71.999997 L 175.99999,99.999997 L 175.99999,99.999997 z"
       id="path3777"
       style="fill:#000000;fill-opacity:1;fill-rule:evenodd;stroke:none;stroke-width:1px;stroke-linecap:butt;stroke-linejoin:miter;stroke-opacity:1" />
    <path
       d="M 160,71.999997 L 175.99999,71.999997 L 175.99999,99.999997 L 160,71.999997 L 160,71.999997 z"
       id="path3779"
       style="fill:#ffffff;fill-opacity:1;fill-rule:evenodd;stroke:none;stroke-width:1px;stroke-linecap:butt;stroke-linejoin:miter;stroke-opacity:1" />
    <path
       d="M 191.99999,71.999997 L 175.99999,71.999997 L 175.99999,99.999997 L 191.99999,71.999997 L 191.99999,71.999997 z"
       id="path3781"
       style="fill:#ffffff;fill-opacity:1;fill-rule:evenodd;stroke:none;stroke-width:1px;stroke-linecap:butt;stroke-linejoin:miter;stroke-opacity:1" />
    <path
       d="M 175.99999,99.999997 L 191.99999,99.999997 L 191.99999,128 L 175.99999,99.999997 L 175.99999,99.999997 z"
       id="path3783"
       style="fill:#ffffff;fill-opacity:1;fill-rule:evenodd;stroke:none;stroke-width:1px;stroke-linecap:butt;stroke-linejoin:miter;stroke-opacity:1" />
    <path
       d="M 207.99999,99.999997 L 191.99999,99.999997 L 191.99999,128 L 207.99999,99.999997 L 207.99999,99.999997 z"
       id="path3785"
       style="fill:#ffffff;fill-opacity:1;fill-rule:evenodd;stroke:none;stroke-width:1px;stroke-linecap:butt;stroke-linejoin:miter;stroke-opacity:1" />
    <path
       d="M 144,99.999997 L 159.99999,99.999997 L 159.99999,128 L 144,99.999997 L 144,99.999997 z"
       id="path3787"
       style="fill:#ffffff;fill-opacity:1;fill-rule:evenodd;stroke:none;stroke-width:1px;stroke-linecap:butt;stroke-linejoin:miter;stroke-opacity:1" />
    <path
       d="M 175.99999,99.999997 L 159.99999,99.999997 L 159.99999,128 L 175.99999,99.999997 L 175.99999,99.999997 z"
       id="path3789"
       style="fill:#ffffff;fill-opacity:1;fill-rule:evenodd;stroke:none;stroke-width:1px;stroke-linecap:butt;stroke-linejoin:miter;stroke-opacity:1" />
    <path
       d="M 160,128 L 175.99999,128 L 175.99999,99.999997 L 160,128 L 160,128 z"
       id="path3791"
       style="fill:#000000;fill-opacity:1;fill-rule:evenodd;stroke:none;stroke-width:1px;stroke-linecap:butt;stroke-linejoin:miter;stroke-opacity:1" />
    <path
       d="M 191.99999,128 L 175.99999,128 L 175.99999,99.999997 L 191.99999,128 L 191.99999,128 z"
       id="path3793"
       style="fill:#000000;fill-opacity:1;fill-rule:evenodd;stroke:none;stroke-width:1px;stroke-linecap:butt;stroke-linejoin:miter;stroke-opacity:1" />
    <path
       d="M 127.99998,184 L 143.99998,184 L 143.99998,156 L 127.99998,184 L 127.99998,184 z"
       id="path3797"
       style="fill:#000000;fill-opacity:1;fill-rule:evenodd;stroke:none;stroke-width:1px;stroke-linecap:butt;stroke-linejoin:miter;stroke-opacity:1" />
    <path
       d="M 159.99998,184 L 143.99998,184 L 143.99998,156 L 159.99998,184 L 159.99998,184 z"
       id="path3799"
       style="fill:#000000;fill-opacity:1;fill-rule:evenodd;stroke:none;stroke-width:1px;stroke-linecap:butt;stroke-linejoin:miter;stroke-opacity:1" />
    <path
       d="M 95.999969,184 L 111.99998,184 L 111.99998,156 L 95.999969,184 L 95.999969,184 z"
       id="path3801"
       style="fill:#000000;fill-opacity:1;fill-rule:evenodd;stroke:none;stroke-width:1px;stroke-linecap:butt;stroke-linejoin:miter;stroke-opacity:1" />
    <path
       d="M 127.99998,184 L 111.99999,184 L 111.99999,156 L 127.99998,184 L 127.99998,184 z"
       id="path3803"
       style="fill:#000000;fill-opacity:1;fill-rule:evenodd;stroke:none;stroke-width:1px;stroke-linecap:butt;stroke-linejoin:miter;stroke-opacity:1" />
    <path
       d="M 111.99999,156 L 127.99998,156 L 127.99998,184 L 111.99999,156 L 111.99999,156 z"
       id="path3805"
       style="fill:#ffffff;fill-opacity:1;fill-rule:evenodd;stroke:none;stroke-width:1px;stroke-linecap:butt;stroke-linejoin:miter;stroke-opacity:1" />
    <path
       d="M 143.99998,156 L 127.99998,156 L 127.99998,184 L 143.99998,156 L 143.99998,156 z"
       id="path3807"
       style="fill:#ffffff;fill-opacity:1;fill-rule:evenodd;stroke:none;stroke-width:1px;stroke-linecap:butt;stroke-linejoin:miter;stroke-opacity:1" />
    <path
       d="M 127.99998,184 L 143.99998,184 L 143.99998,212 L 127.99998,184 L 127.99998,184 z"
       id="path3809"
       style="fill:#ffffff;fill-opacity:1;fill-rule:evenodd;stroke:none;stroke-width:1px;stroke-linecap:butt;stroke-linejoin:miter;stroke-opacity:1" />
    <path
       d="M 159.99998,184 L 143.99998,184 L 143.99998,212 L 159.99998,184 L 159.99998,184 z"
       id="path3811"
       style="fill:#ffffff;fill-opacity:1;fill-rule:evenodd;stroke:none;stroke-width:1px;stroke-linecap:butt;stroke-linejoin:miter;stroke-opacity:1" />
    <path
       d="M 95.999979,184 L 111.99998,184 L 111.99998,212 L 95.999979,184 L 95.999979,184 z"
       id="path3813"
       style="fill:#ffffff;fill-opacity:1;fill-rule:evenodd;stroke:none;stroke-width:1px;stroke-linecap:butt;stroke-linejoin:miter;stroke-opacity:1" />
    <path
       d="M 127.99998,184 L 111.99998,184 L 111.99998,212 L 127.99998,184 L 127.99998,184 z"
       id="path3815"
       style="fill:#ffffff;fill-opacity:1;fill-rule:evenodd;stroke:none;stroke-width:1px;stroke-linecap:butt;stroke-linejoin:miter;stroke-opacity:1" />
    <path
       d="M 111.99999,212 L 127.99998,212 L 127.99998,184 L 111.99999,212 L 111.99999,212 z"
       id="path3817"
       style="fill:#000000;fill-opacity:1;fill-rule:evenodd;stroke:none;stroke-width:1px;stroke-linecap:butt;stroke-linejoin:miter;stroke-opacity:1" />
    <path
       d="M 143.99998,212 L 127.99998,212 L 127.99998,184 L 143.99998,212 L 143.99998,212 z"
       id="path3819"
       style="fill:#000000;fill-opacity:1;fill-rule:evenodd;stroke:none;stroke-width:1px;stroke-linecap:butt;stroke-linejoin:miter;stroke-opacity:1" />
    <path
       d="M 176,156 L 192,156 L 192,128 L 176,156 L 176,156 z"
       id="path3823"
       style="fill:#000000;fill-opacity:1;fill-rule:evenodd;stroke:none;stroke-width:1px;stroke-linecap:butt;stroke-linejoin:miter;stroke-opacity:1" />
    <path
       d="M 208,156 L 192,156 L 192,128 L 208,156 L 208,156 z"
       id="path3825"
       style="fill:#000000;fill-opacity:1;fill-rule:evenodd;stroke:none;stroke-width:1px;stroke-linecap:butt;stroke-linejoin:miter;stroke-opacity:1" />
    <path
       d="M 144,156 L 160,156 L 160,128 L 144,156 L 144,156 z"
       id="path3827"
       style="fill:#000000;fill-opacity:1;fill-rule:evenodd;stroke:none;stroke-width:1px;stroke-linecap:butt;stroke-linejoin:miter;stroke-opacity:1" />
    <path
       d="M 176,156 L 160.00001,156 L 160.00001,128 L 176,156 L 176,156 z"
       id="path3829"
       style="fill:#000000;fill-opacity:1;fill-rule:evenodd;stroke:none;stroke-width:1px;stroke-linecap:butt;stroke-linejoin:miter;stroke-opacity:1" />
    <path
       d="M 160.00001,128 L 176,128 L 176,156 L 160.00001,128 L 160.00001,128 z"
       id="path3831"
       style="fill:#ffffff;fill-opacity:1;fill-rule:evenodd;stroke:none;stroke-width:1px;stroke-linecap:butt;stroke-linejoin:miter;stroke-opacity:1" />
    <path
       d="M 192,128 L 176,128 L 176,156 L 192,128 L 192,128 z"
       id="path3833"
       style="fill:#ffffff;fill-opacity:1;fill-rule:evenodd;stroke:none;stroke-width:1px;stroke-linecap:butt;stroke-linejoin:miter;stroke-opacity:1" />
    <path
       d="M 176,156 L 192,156 L 192,184 L 176,156 L 176,156 z"
       id="path3835"
       style="fill:#ffffff;fill-opacity:1;fill-rule:evenodd;stroke:none;stroke-width:1px;stroke-linecap:butt;stroke-linejoin:miter;stroke-opacity:1" />
    <path
       d="M 208,156 L 192,156 L 192,184 L 208,156 L 208,156 z"
       id="path3837"
       style="fill:#ffffff;fill-opacity:1;fill-rule:evenodd;stroke:none;stroke-width:1px;stroke-linecap:butt;stroke-linejoin:miter;stroke-opacity:1" />
    <path
       d="M 144.00001,156 L 160,156 L 160,184 L 144.00001,156 L 144.00001,156 z"
       id="path3839"
       style="fill:#ffffff;fill-opacity:1;fill-rule:evenodd;stroke:none;stroke-width:1px;stroke-linecap:butt;stroke-linejoin:miter;stroke-opacity:1" />
    <path
       d="M 176,156 L 160,156 L 160,184 L 176,156 L 176,156 z"
       id="path3841"
       style="fill:#ffffff;fill-opacity:1;fill-rule:evenodd;stroke:none;stroke-width:1px;stroke-linecap:butt;stroke-linejoin:miter;stroke-opacity:1" />
    <path
       d="M 160.00001,184 L 176,184 L 176,156 L 160.00001,184 L 160.00001,184 z"
       id="path3843"
       style="fill:#000000;fill-opacity:1;fill-rule:evenodd;stroke:none;stroke-width:1px;stroke-linecap:butt;stroke-linejoin:miter;stroke-opacity:1" />
    <path
       d="M 192,184 L 176,184 L 176,156 L 192,184 L 192,184 z"
       id="path3845"
       style="fill:#000000;fill-opacity:1;fill-rule:evenodd;stroke:none;stroke-width:1px;stroke-linecap:butt;stroke-linejoin:miter;stroke-opacity:1" />
    <path
       d="M 79.99999,156 L 95.99999,156 L 95.99999,128 L 79.99999,156 L 79.99999,156 z"
       id="path3849"
       style="fill:#000000;fill-opacity:1;fill-rule:evenodd;stroke:none;stroke-width:1px;stroke-linecap:butt;stroke-linejoin:miter;stroke-opacity:1" />
    <path
       d="M 111.99999,156 L 95.99999,156 L 95.99999,128 L 111.99999,156 L 111.99999,156 z"
       id="path3851"
       style="fill:#000000;fill-opacity:1;fill-rule:evenodd;stroke:none;stroke-width:1px;stroke-linecap:butt;stroke-linejoin:miter;stroke-opacity:1" />
    <path
       d="M 47.999986,156 L 63.99999,156 L 63.99999,128 L 47.999986,156 L 47.999986,156 z"
       id="path3853"
       style="fill:#000000;fill-opacity:1;fill-rule:evenodd;stroke:none;stroke-width:1px;stroke-linecap:butt;stroke-linejoin:miter;stroke-opacity:1" />
    <path
       d="M 79.99999,156 L 64,156 L 64,128 L 79.99999,156 L 79.99999,156 z"
       id="path3855"
       style="fill:#000000;fill-opacity:1;fill-rule:evenodd;stroke:none;stroke-width:1px;stroke-linecap:butt;stroke-linejoin:miter;stroke-opacity:1" />
    <path
       d="M 64,128 L 79.99999,128 L 79.99999,156 L 64,128 L 64,128 z"
       id="path3857"
       style="fill:#ffffff;fill-opacity:1;fill-rule:evenodd;stroke:none;stroke-width:1px;stroke-linecap:butt;stroke-linejoin:miter;stroke-opacity:1" />
    <path
       d="M 95.99999,128 L 79.99999,128 L 79.99999,156 L 95.99999,128 L 95.99999,128 z"
       id="path3859"
       style="fill:#ffffff;fill-opacity:1;fill-rule:evenodd;stroke:none;stroke-width:1px;stroke-linecap:butt;stroke-linejoin:miter;stroke-opacity:1" />
    <path
       d="M 79.99999,156 L 95.99999,156 L 95.99999,184 L 79.99999,156 L 79.99999,156 z"
       id="path3861"
       style="fill:#ffffff;fill-opacity:1;fill-rule:evenodd;stroke:none;stroke-width:1px;stroke-linecap:butt;stroke-linejoin:miter;stroke-opacity:1" />
    <path
       d="M 111.99999,156 L 95.99999,156 L 95.99999,184 L 111.99999,156 L 111.99999,156 z"
       id="path3863"
       style="fill:#ffffff;fill-opacity:1;fill-rule:evenodd;stroke:none;stroke-width:1px;stroke-linecap:butt;stroke-linejoin:miter;stroke-opacity:1" />
    <path
       d="M 47.999996,156 L 63.99999,156 L 63.99999,184 L 47.999996,156 L 47.999996,156 z"
       id="path3865"
       style="fill:#ffffff;fill-opacity:1;fill-rule:evenodd;stroke:none;stroke-width:1px;stroke-linecap:butt;stroke-linejoin:miter;stroke-opacity:1" />
    <path
       d="M 79.99999,156 L 63.99999,156 L 63.99999,184 L 79.99999,156 L 79.99999,156 z"
       id="path3867"
       style="fill:#ffffff;fill-opacity:1;fill-rule:evenodd;stroke:none;stroke-width:1px;stroke-linecap:butt;stroke-linejoin:miter;stroke-opacity:1" />
    <path
       d="M 64,184 L 79.99999,184 L 79.99999,156 L 64,184 L 64,184 z"
       id="path3869"
       style="fill:#000000;fill-opacity:1;fill-rule:evenodd;stroke:none;stroke-width:1px;stroke-linecap:butt;stroke-linejoin:miter;stroke-opacity:1" />
    <path
       d="M 95.99999,184 L 79.99999,184 L 79.99999,156 L 95.99999,184 L 95.99999,184 z"
       id="path3871"
       style="fill:#000000;fill-opacity:1;fill-rule:evenodd;stroke:none;stroke-width:1px;stroke-linecap:butt;stroke-linejoin:miter;stroke-opacity:1" />
    <path
       d="M 79.999979,100 L 95.999979,100 L 95.999979,72 L 79.999979,100 L 79.999979,100 z"
       id="path3875"
       style="fill:#000000;fill-opacity:1;fill-rule:evenodd;stroke:none;stroke-width:1px;stroke-linecap:butt;stroke-linejoin:miter;stroke-opacity:1" />
    <path
       d="M 111.99998,100 L 95.999979,100 L 95.999979,72 L 111.99998,100 L 111.99998,100 z"
       id="path3877"
       style="fill:#000000;fill-opacity:1;fill-rule:evenodd;stroke:none;stroke-width:1px;stroke-linecap:butt;stroke-linejoin:miter;stroke-opacity:1" />
    <path
       d="M 47.999975,100 L 63.999979,100 L 63.999979,72 L 47.999975,100 L 47.999975,100 z"
       id="path3879"
       style="fill:#000000;fill-opacity:1;fill-rule:evenodd;stroke:none;stroke-width:1px;stroke-linecap:butt;stroke-linejoin:miter;stroke-opacity:1" />
    <path
       d="M 79.999979,100 L 63.999989,100 L 63.999989,72 L 79.999979,100 L 79.999979,100 z"
       id="path3881"
       style="fill:#000000;fill-opacity:1;fill-rule:evenodd;stroke:none;stroke-width:1px;stroke-linecap:butt;stroke-linejoin:miter;stroke-opacity:1" />
    <path
       d="M 64.000006,72 L 79.999996,72 L 79.999996,100 L 64.000006,72 L 64.000006,72 z"
       id="path3883"
       style="fill:#ffffff;fill-opacity:1;fill-rule:evenodd;stroke:none;stroke-width:1px;stroke-linecap:butt;stroke-linejoin:miter;stroke-opacity:1" />
    <path
       d="M 95.999979,72 L 79.999979,72 L 79.999979,100 L 95.999979,72 L 95.999979,72 z"
       id="path3885"
       style="fill:#ffffff;fill-opacity:1;fill-rule:evenodd;stroke:none;stroke-width:1px;stroke-linecap:butt;stroke-linejoin:miter;stroke-opacity:1" />
    <path
       d="M 79.999979,100 L 95.999979,100 L 95.999979,128 L 79.999979,100 L 79.999979,100 z"
       id="path3887"
       style="fill:#ffffff;fill-opacity:1;fill-rule:evenodd;stroke:none;stroke-width:1px;stroke-linecap:butt;stroke-linejoin:miter;stroke-opacity:1" />
    <path
       d="M 111.99998,100 L 95.999979,100 L 95.999979,128 L 111.99998,100 L 111.99998,100 z"
       id="path3889"
       style="fill:#ffffff;fill-opacity:1;fill-rule:evenodd;stroke:none;stroke-width:1px;stroke-linecap:butt;stroke-linejoin:miter;stroke-opacity:1" />
    <path
       d="M 47.999985,100 L 63.999979,100 L 63.999979,128 L 47.999985,100 L 47.999985,100 z"
       id="path3891"
       style="fill:#ffffff;fill-opacity:1;fill-rule:evenodd;stroke:none;stroke-width:1px;stroke-linecap:butt;stroke-linejoin:miter;stroke-opacity:1" />
    <path
       d="M 79.999979,100 L 63.999979,100 L 63.999979,128 L 79.999979,100 L 79.999979,100 z"
       id="path3893"
       style="fill:#ffffff;fill-opacity:1;fill-rule:evenodd;stroke:none;stroke-width:1px;stroke-linecap:butt;stroke-linejoin:miter;stroke-opacity:1" />
    <path
       d="M 63.999989,128 L 79.999979,128 L 79.999979,100 L 63.999989,128 L 63.999989,128 z"
       id="path3895"
       style="fill:#000000;fill-opacity:1;fill-rule:evenodd;stroke:none;stroke-width:1px;stroke-linecap:butt;stroke-linejoin:miter;stroke-opacity:1" />
    <path
       d="M 95.999979,128 L 79.999979,128 L 79.999979,100 L 95.999979,128 L 95.999979,128 z"
       id="path3897"
       style="fill:#000000;fill-opacity:1;fill-rule:evenodd;stroke:none;stroke-width:1px;stroke-linecap:butt;stroke-linejoin:miter;stroke-opacity:1" />
    <path
       d="M 127.99998,72 L 143.99998,72 L 143.99998,44 L 127.99998,72 L 127.99998,72 z"
       id="path3901"
       style="fill:#000000;fill-opacity:1;fill-rule:evenodd;stroke:none;stroke-width:1px;stroke-linecap:butt;stroke-linejoin:miter;stroke-opacity:1" />
    <path
       d="M 159.99998,72 L 143.99998,72 L 143.99998,44 L 159.99998,72 L 159.99998,72 z"
       id="path3903"
       style="fill:#000000;fill-opacity:1;fill-rule:evenodd;stroke:none;stroke-width:1px;stroke-linecap:butt;stroke-linejoin:miter;stroke-opacity:1" />
    <path
       d="M 95.999972,72 L 111.99998,72 L 111.99998,44 L 95.999972,72 L 95.999972,72 z"
       id="path3905"
       style="fill:#000000;fill-opacity:1;fill-rule:evenodd;stroke:none;stroke-width:1px;stroke-linecap:butt;stroke-linejoin:miter;stroke-opacity:1" />
    <path
       d="M 127.99998,72 L 111.99999,72 L 111.99999,44 L 127.99998,72 L 127.99998,72 z"
       id="path3907"
       style="fill:#000000;fill-opacity:1;fill-rule:evenodd;stroke:none;stroke-width:1px;stroke-linecap:butt;stroke-linejoin:miter;stroke-opacity:1" />
    <path
       d="M 111.99999,44 L 127.99998,44 L 127.99998,72 L 111.99999,44 L 111.99999,44 z"
       id="path3909"
       style="fill:#ffffff;fill-opacity:1;fill-rule:evenodd;stroke:none;stroke-width:1px;stroke-linecap:butt;stroke-linejoin:miter;stroke-opacity:1" />
    <path
       d="M 143.99998,44 L 127.99998,44 L 127.99998,72 L 143.99998,44 L 143.99998,44 z"
       id="path3911"
       style="fill:#ffffff;fill-opacity:1;fill-rule:evenodd;stroke:none;stroke-width:1px;stroke-linecap:butt;stroke-linejoin:miter;stroke-opacity:1" />
    <path
       d="M 127.99998,72 L 143.99998,72 L 143.99998,100 L 127.99998,72 L 127.99998,72 z"
       id="path3913"
       style="fill:#ffffff;fill-opacity:1;fill-rule:evenodd;stroke:none;stroke-width:1px;stroke-linecap:butt;stroke-linejoin:miter;stroke-opacity:1" />
    <path
       d="M 159.99998,72 L 143.99998,72 L 143.99998,100 L 159.99998,72 L 159.99998,72 z"
       id="path3915"
       style="fill:#ffffff;fill-opacity:1;fill-rule:evenodd;stroke:none;stroke-width:1px;stroke-linecap:butt;stroke-linejoin:miter;stroke-opacity:1" />
    <path
       d="M 95.999982,72 L 111.99998,72 L 111.99998,100 L 95.999982,72 L 95.999982,72 z"
       id="path3917"
       style="fill:#ffffff;fill-opacity:1;fill-rule:evenodd;stroke:none;stroke-width:1px;stroke-linecap:butt;stroke-linejoin:miter;stroke-opacity:1" />
    <path
       d="M 127.99998,72 L 111.99998,72 L 111.99998,100 L 127.99998,72 L 127.99998,72 z"
       id="path3919"
       style="fill:#ffffff;fill-opacity:1;fill-rule:evenodd;stroke:none;stroke-width:1px;stroke-linecap:butt;stroke-linejoin:miter;stroke-opacity:1" />
    <path
       d="M 111.99999,100 L 127.99998,100 L 127.99998,72 L 111.99999,100 L 111.99999,100 z"
       id="path3921"
       style="fill:#000000;fill-opacity:1;fill-rule:evenodd;stroke:none;stroke-width:1px;stroke-linecap:butt;stroke-linejoin:miter;stroke-opacity:1" />
    <path
       d="M 143.99998,100 L 127.99998,100 L 127.99998,72 L 143.99998,100 L 143.99998,100 z"
       id="path3923"
       style="fill:#000000;fill-opacity:1;fill-rule:evenodd;stroke:none;stroke-width:1px;stroke-linecap:butt;stroke-linejoin:miter;stroke-opacity:1" />
    <path
       d="M 111.99999,212 L 127.99998,212 L 127.99998,240 L 111.99999,212 L 111.99999,212 z"
       id="path2557"
       style="fill:#ffffff;fill-opacity:1;fill-rule:evenodd;stroke:none;stroke-width:1px;stroke-linecap:butt;stroke-linejoin:miter;stroke-opacity:1;display:inline" />
    <path
       d="M 143.99998,212 L 127.99998,212 L 127.99998,240 L 143.99998,212 L 143.99998,212 z"
       id="path2559"
       style="fill:#ffffff;fill-opacity:1;fill-rule:evenodd;stroke:none;stroke-width:1px;stroke-linecap:butt;stroke-linejoin:miter;stroke-opacity:1;display:inline" />
    <path
       d="M 32,184 L 48,184 L 48,156 L 32,184 L 32,184 z"
       id="path2561"
       style="fill:#000000;fill-opacity:1;fill-rule:evenodd;stroke:none;stroke-width:1px;stroke-linecap:butt;stroke-linejoin:miter;stroke-opacity:1;display:inline" />
    <path
       d="M 64,184 L 48,184 L 48,156 L 64,184 L 64,184 z"
       id="path2563"
       style="fill:#000000;fill-opacity:1;fill-rule:evenodd;stroke:none;stroke-width:1px;stroke-linecap:butt;stroke-linejoin:miter;stroke-opacity:1;display:inline" />
    <path
       d="M 192,184 L 208,184 L 208,156 L 192,184 L 192,184 z"
       id="path2565"
       style="fill:#000000;fill-opacity:1;fill-rule:evenodd;stroke:none;stroke-width:1px;stroke-linecap:butt;stroke-linejoin:miter;stroke-opacity:1;display:inline" />
    <path
       d="M 224,184 L 208,184 L 208,156 L 224,184 L 224,184 z"
       id="path2567"
       style="fill:#000000;fill-opacity:1;fill-rule:evenodd;stroke:none;stroke-width:1px;stroke-linecap:butt;stroke-linejoin:miter;stroke-opacity:1;display:inline" />
    <path
       d="M 111.99999,44 L 127.99999,44 L 127.99999,16 L 111.99999,44 L 111.99999,44 z"
       id="path2569"
       style="fill:#000000;fill-opacity:1;fill-rule:evenodd;stroke:none;stroke-width:1px;stroke-linecap:butt;stroke-linejoin:miter;stroke-opacity:1;display:inline" />
    <path
       d="M 143.99999,44 L 127.99999,44 L 127.99999,16 L 143.99999,44 L 143.99999,44 z"
       id="path2571"
       style="fill:#000000;fill-opacity:1;fill-rule:evenodd;stroke:none;stroke-width:1px;stroke-linecap:butt;stroke-linejoin:miter;stroke-opacity:1;display:inline" />
    <path
       d="M 32.000016,72 L 48.000006,72 L 48.000006,100 L 32.000016,72 L 32.000016,72 z"
       id="path2573"
       style="fill:#ffffff;fill-opacity:1;fill-rule:evenodd;stroke:none;stroke-width:1px;stroke-linecap:butt;stroke-linejoin:miter;stroke-opacity:1;display:inline" />
    <path
       d="M 64.000006,72 L 48.000006,72 L 48.000006,100 L 64.000006,72 L 64.000006,72 z"
       id="path2575"
       style="fill:#ffffff;fill-opacity:1;fill-rule:evenodd;stroke:none;stroke-width:1px;stroke-linecap:butt;stroke-linejoin:miter;stroke-opacity:1;display:inline" />
    <path
       d="M 192,71.999997 L 207.99999,71.999997 L 207.99999,99.999997 L 192,71.999997 L 192,71.999997 z"
       id="path2577"
       style="fill:#ffffff;fill-opacity:1;fill-rule:evenodd;stroke:none;stroke-width:1px;stroke-linecap:butt;stroke-linejoin:miter;stroke-opacity:1;display:inline" />
    <path
       d="M 223.99999,71.999997 L 207.99999,71.999997 L 207.99999,99.999997 L 223.99999,71.999997 L 223.99999,71.999997 z"
       id="path2579"
       style="fill:#ffffff;fill-opacity:1;fill-rule:evenodd;stroke:none;stroke-width:1px;stroke-linecap:butt;stroke-linejoin:miter;stroke-opacity:1;display:inline" />
  </g>
</svg>
