<?xml version="1.0" encoding="UTF-8" standalone="no"?>
<!-- Created with Inkscape (http://www.inkscape.org/) -->
<svg
   xmlns:dc="http://purl.org/dc/elements/1.1/"
   xmlns:cc="http://web.resource.org/cc/"
   xmlns:rdf="http://www.w3.org/1999/02/22-rdf-syntax-ns#"
   xmlns:svg="http://www.w3.org/2000/svg"
   xmlns="http://www.w3.org/2000/svg"
   xmlns:sodipodi="http://sodipodi.sourceforge.net/DTD/sodipodi-0.dtd"
   xmlns:inkscape="http://www.inkscape.org/namespaces/inkscape"
   width="744.09448819"
   height="1052.3622047"
   id="svg2163"
   sodipodi:version="0.32"
   inkscape:version="0.45.1"
   sodipodi:docbase="/home/dan/Desktop/Pages DIZ/OpenClipart.Projects/Appollonio"
   sodipodi:docname="Appolinio Original1.svg"
   inkscape:output_extension="org.inkscape.output.svg.inkscape"
   inkscape:export-filename="/home/dan/Desktop/Pages DIZ/OpenClipart.Projects/Appollonio/Appolinio Original1.png"
   inkscape:export-xdpi="90"
   inkscape:export-ydpi="90">
  <defs
     id="defs2165" />
  <sodipodi:namedview
     id="base"
     pagecolor="#ffffff"
     bordercolor="#666666"
     borderopacity="1.0"
     gridtolerance="10000"
     guidetolerance="10"
     objecttolerance="10"
     inkscape:pageopacity="0.0"
     inkscape:pageshadow="2"
     inkscape:zoom="0.35"
     inkscape:cx="375"
     inkscape:cy="520"
     inkscape:document-units="px"
     inkscape:current-layer="layer1"
     inkscape:window-width="823"
     inkscape:window-height="599"
     inkscape:window-x="26"
     inkscape:window-y="0" />
  <metadata
     id="metadata2168">
    <rdf:RDF>
      <cc:Work
         rdf:about="">
        <dc:format>image/svg+xml</dc:format>
        <dc:type
           rdf:resource="http://purl.org/dc/dcmitype/StillImage" />
      </cc:Work>
    </rdf:RDF>
  </metadata>
  <g
     inkscape:label="Layer 1"
     inkscape:groupmode="layer"
     id="layer1">
    <path
       style="fill:#000000"
       d="M 173.17434,368.69435 C 168.19773,368.32067 165.87091,368.04922 160.62733,367.23072 C 160.03583,367.13836 158.18067,366.80911 156.50475,366.49894 C 154.82882,366.18882 153.05432,365.86431 152.5614,365.77782 C 149.54679,365.2488 139.26279,362.41269 133.92013,360.63699 C 128.22817,358.74512 125.48288,357.70715 119.5807,355.21536 C 117.53521,354.35181 105.65115,348.38977 103.44883,347.12228 C 95.139882,342.34026 85.699081,335.85521 78.354806,329.88471 C 70.528992,323.52277 58.461038,311.41647 53.460114,304.91087 C 46.693481,296.10828 44.1874,292.54128 40.352573,286.25455 C 37.57213,281.69624 33.89643,274.54106 34.13608,274.15333 C 34.26625,273.94272 34.20393,273.87565 33.99692,274.0036 C 33.02755,274.6027 24.72328,253.12449 22.65395,244.66605 C 22.36455,243.48305 21.8071,241.38591 21.41517,240.00574 C 19.45159,233.09089 16.8406,217.18147 16.53199,210.25141 L 16.37237,206.66654 L 16.70014,209.71368 C 18.10538,222.7764 19.44181,230.13646 22.45706,241.41839 C 27.26762,259.4178 34.31941,275.0206 44.501413,290.19376 C 54.569558,305.19733 68.196476,319.5738 82.784128,330.58225 C 86.931669,333.71217 96.638418,340.23489 99.86397,342.05952 C 119.04878,352.91209 137.07847,359.47185 156.72328,362.74661 C 166.87833,364.43942 171.17611,364.74909 184.10816,364.71979 C 197.03015,364.69046 200.77148,364.38625 211.89082,362.46077 C 236.3767,358.22076 259.73601,348.51451 280.54088,333.93535 C 287.80768,328.84309 295.8454,322.05445 302.60451,315.30045 C 322.45398,295.46595 336.32798,273.10925 345.32617,246.45849 C 352.50774,225.18801 355.72937,202.78697 354.73504,181.03481 C 353.84763,161.62251 349.84053,142.8099 342.74686,124.75251 C 340.53545,119.12324 334.72144,107.06672 331.85586,102.16791 C 329.81484,98.67865 324.07273,90.00223 321.17966,86.03603 C 313.90082,76.05707 302.14233,63.74956 292.90866,56.44496 C 291.9228,55.66509 291.03556,54.93436 290.93697,54.82114 C 290.12525,53.8889 279.94654,46.77659 274.44661,43.29857 C 267.83541,39.11783 257.05791,33.64323 250.85341,31.31403 C 249.53504,30.81911 247.97243,30.2033 247.38094,29.94552 C 242.47411,27.8073 230.91477,24.16734 224.61707,22.77733 C 218.30436,21.38401 210.39085,19.98664 206.15505,19.5173 C 196.45216,18.44217 181.08828,18.184 173.17434,18.96311 C 153.0464,20.94462 134.28009,25.7725 118.326,33.07356 C 116.05549,34.11261 106.82272,38.72862 105.06203,39.70502 C 97.195585,44.0673 86.132552,51.51281 80.172654,56.45572 C 67.412781,67.03832 56.717051,78.66582 47.365264,92.12118 C 44.438219,96.33258 43.434259,97.6687 44.12604,96.43213 C 46.812611,91.62963 56.358985,79.06373 62.373039,72.41356 C 65.025609,69.48047 72.117626,62.49862 74.936011,60.04581 C 76.295313,58.86281 78.144914,57.22962 79.046234,56.41649 C 80.802444,54.83208 89.024216,48.52733 92.7557,45.90359 C 102.42776,39.10272 117.20328,31.33907 128.3636,27.19374 C 129.94094,26.60786 131.47347,26.06621 131.76922,25.99009 C 132.06497,25.91398 133.1942,25.50252 134.27862,25.07575 C 137.39124,23.85076 148.57196,20.69861 153.99534,19.517 C 167.88345,16.49122 184.27805,15.08486 197.73063,15.76527 C 228.40555,17.3168 257.63515,26.66952 282.43068,42.8671 C 288.71818,46.97436 297.66582,53.61716 301.62756,57.11903 C 317.44908,71.10393 328.26521,84.20956 338.25163,101.49544 C 341.64637,107.37156 346.43485,117.16595 348.30752,122.06386 C 349.13673,124.23271 350.10589,126.65249 350.4612,127.44115 C 351.53478,129.82412 355.88046,143.87327 356.50452,146.97863 C 356.68282,147.86588 357.32802,150.93094 357.93829,153.78987 C 358.95621,158.55865 360.53254,169.18171 360.99702,174.40282 C 361.5109,180.17892 361.63282,194.60362 361.22431,201.28925 C 360.80116,208.21468 359.46889,218.39768 357.96465,226.20403 C 353.20588,250.89992 340.29635,279.80228 325.38613,299.14222 C 318.45543,308.13195 316.14912,310.75223 308.17297,318.69835 C 299.93871,326.90161 294.79343,331.28523 286.27665,337.3533 C 277.21782,343.80757 265.28522,350.59398 255.41059,354.90771 C 238.4524,362.31588 218.09378,367.42104 199.88154,368.83222 C 194.10712,369.27964 179.99905,369.20684 173.17434,368.69435 z M 168.87251,360.06273 C 168.28101,359.98008 165.45793,359.66355 162.59901,359.35943 C 145.88525,357.58163 127.76672,352.4396 112.23174,345.06522 C 107.71564,342.92147 102.24833,340.13668 100.04135,338.85603 C 90.441053,333.28526 82.472196,327.67135 73.515253,320.1689 C 67.398306,315.04527 57.196229,304.6386 53.37408,299.62382 C 52.818862,298.89534 51.056613,296.63688 49.457952,294.60503 C 39.16725,281.52564 30.11016,263.87635 24.76681,246.49007 C 23.7313,243.12087 22.76745,239.79961 22.62487,239.10952 C 22.48231,238.41942 22.15415,237.20954 21.89566,236.42088 C 20.75338,232.93565 18.28434,219.3631 17.59156,212.76081 C 17.05347,207.63254 16.70087,203.06887 16.69832,201.19961 C 16.69618,199.6508 16.55691,198.9574 16.24712,198.9536 C 15.90199,198.94939 15.89843,198.88494 16.23167,198.67314 C 16.79045,198.31799 16.64795,194.4666 16.05406,193.87269 C 15.81013,193.62879 15.64536,192.64485 15.67821,191.62806 L 15.73666,189.81771 L 15.97828,191.78937 C 16.25265,194.02826 16.30488,193.93297 16.52965,190.78372 C 16.62497,189.44806 16.55532,188.60715 16.35941,188.72827 C 16.17703,188.84096 15.92646,188.76924 15.80264,188.56887 C 15.67879,188.36847 15.70796,188.20316 15.86751,188.20148 C 16.02701,188.19983 16.17946,186.26238 16.20623,183.89605 C 16.24063,180.85738 16.39859,179.41652 16.74395,178.9907 C 17.01294,178.65908 17.05147,178.49646 16.82962,178.62931 C 16.3722,178.90325 16.4424,177.76289 17.2662,171.53492 C 18.18994,164.55155 18.77063,161.16302 20.16696,154.60713 C 20.7343,151.94353 21.24211,150.31413 21.46243,150.45031 C 21.6714,150.57948 21.71411,150.49514 21.56326,150.25109 C 21.25665,149.75497 22.45796,144.80207 22.82926,145.03155 C 22.96777,145.11715 23.00599,144.89988 22.91415,144.54873 C 22.82235,144.19755 22.94483,143.43107 23.18641,142.84541 C 23.42799,142.25977 23.64625,141.69992 23.67142,141.60135 C 23.69658,141.50277 23.92776,140.57556 24.18512,139.54088 C 24.47398,138.37944 24.79993,137.7504 25.03689,137.89688 C 25.28528,138.05039 25.3323,137.90366 25.17016,137.48107 C 24.84793,136.64135 26.28548,132.28069 26.88454,132.28069 C 27.13302,132.28069 27.5347,131.61864 27.7771,130.80944 C 28.01956,130.00026 28.31449,129.08655 28.43255,128.77898 C 28.57294,128.41299 28.50363,128.30845 28.23181,128.47643 C 27.95588,128.64695 27.89206,128.53629 28.04154,128.14669 C 28.22164,127.67737 28.32706,127.65577 28.5697,128.03845 C 28.78148,128.37259 28.87444,128.38648 28.87827,128.08452 C 28.88483,127.56733 31.76083,120.76893 33.22277,117.81487 C 34.30662,115.62472 34.50514,114.88022 33.90665,115.2501 C 33.69956,115.37811 33.64582,115.22543 33.77731,114.8827 C 33.93701,114.46651 34.07836,114.41931 34.26425,114.72007 C 34.42051,114.9729 35.70923,112.92444 37.45918,109.6417 C 39.07232,106.61552 40.738786,103.57494 41.16241,102.88486 C 67.268589,60.35724 108.25074,32.11743 155.60853,24.02272 C 168.8476,21.75981 177.95493,21.11146 190.21977,21.55874 C 199.95284,21.91369 207.91632,22.88062 216.73038,24.77763 C 218.60347,25.18077 220.37797,25.56145 220.67373,25.62357 C 220.96947,25.68567 223.1237,26.2403 225.46088,26.85604 C 242.17804,31.26033 257.21588,37.94547 273.57,48.2432 C 274.1723,48.62245 276.97486,50.6266 279.79793,52.69685 C 304.23336,70.61637 322.84527,93.95309 334.40597,121.16764 C 336.91,127.06233 337.4929,128.60257 339.69703,135.14859 C 343.51424,146.4854 346.25809,159.87861 347.62881,173.86509 C 348.24428,180.14536 348.13227,196.36613 347.42387,203.54178 C 346.06629,217.2932 343.63576,229.86311 340.34002,240.17737 C 337.89088,247.84209 333.82616,258.46373 331.96872,262.05262 C 331.50955,262.93987 330.58442,264.8757 329.91296,266.35445 C 327.82779,270.94643 323.52474,278.39011 318.92999,285.3534 C 305.46505,305.75939 285.50199,324.79152 264.76748,336.9901 C 244.45508,348.94037 221.71058,356.66805 198.76705,359.41447 C 194.21847,359.95895 171.63339,360.4487 168.87251,360.06273 z M 191.45712,355.48881 C 192.04863,355.38784 193.50049,355.22239 194.6835,355.12114 C 196.57774,354.95898 198.54572,354.65461 207.94748,353.06973 C 212.35381,352.32692 226.57493,348.50343 229.09816,347.38313 C 229.49247,347.20805 230.70237,346.74793 231.7868,346.36068 C 248.19785,340.49997 264.65048,331.22796 278.80094,319.86557 C 283.33148,316.22767 291.54669,308.76171 294.35179,305.73293 C 307.78268,291.23134 315.77476,279.82378 323.65964,263.90021 C 326.93025,257.29519 328.22097,254.42304 329.64517,250.58108 C 330.26645,248.90514 330.93764,247.13723 331.13679,246.65239 C 331.68244,245.32371 334.49558,236.43088 335.33735,233.37376 C 338.05954,223.48713 340.27585,210.74106 341.13432,200.03485 C 341.52401,195.17438 341.65377,179.40927 341.32126,177.31546 C 341.22341,176.69936 341.06115,175.06601 340.96075,173.68584 C 338.99338,146.65182 329.14608,118.27114 314.02282,96.04838 C 302.93449,79.75477 290.82367,66.94338 276.28483,56.12735 C 273.05758,53.72649 265.65741,48.77376 263.6858,47.69515 C 262.80199,47.21164 261.53725,46.4489 260.87528,46.00016 C 260.21328,45.55142 258.84209,44.77026 257.82814,44.26425 C 256.81421,43.75824 255.09734,42.88117 254.01291,42.31524 C 241.14407,35.59915 230.62174,31.84814 213.32477,27.81063 C 208.68804,26.72832 201.40877,25.63814 194.14577,24.93828 C 188.22312,24.36759 171.03117,24.42526 166.36311,25.03147 C 164.78577,25.23631 162.60797,25.50056 161.52355,25.61868 C 158.56622,25.94086 157.15723,26.15567 151.66519,27.12175 C 124.39631,31.91847 98.508897,44.19262 75.977982,63.00776 C 71.300877,66.91349 62.135945,76.05131 57.555469,81.37571 C 54.180418,85.29891 46.78167,95.11431 45.184824,97.78699 C 44.982151,98.12625 44.02914,99.61368 43.067084,101.09245 C 39.70851,106.25473 34.52084,115.95837 31.6931,122.36769 C 27.07261,132.84048 22.6711,147.20064 20.41377,159.16717 C 17.90631,172.45963 17.25928,179.13611 17.26972,191.61015 C 17.28502,209.90005 19.22917,223.63639 24.34776,241.61892 C 29.68205,260.35943 39.51989,279.39024 51.774705,294.67484 C 53.276474,296.54792 54.601932,298.1611 54.720122,298.25969 C 54.838319,298.35829 56.391968,300.13277 58.172703,302.20304 C 61.524658,306.09998 67.998295,312.54147 71.690096,315.65328 C 72.855094,316.63525 74.387625,317.93887 75.095717,318.5502 C 77.4572,320.58903 85.29844,326.41703 89.187644,329.02407 C 96.038718,333.61649 105.67521,338.92688 112.39402,341.81244 C 113.88209,342.4515 115.82556,343.31242 116.71281,343.72556 C 120.47114,345.47555 130.22153,348.81679 137.14651,350.72769 C 144.25926,352.69043 152.06834,354.14594 160.43347,355.06807 C 163.10325,355.3624 165.85227,355.67122 166.54235,355.75434 C 168.21487,355.95584 190.08653,355.72273 191.45712,355.48881 z M 165.46689,351.43385 C 157.78519,350.88626 153.81054,350.4023 147.90108,349.29501 C 131.55101,346.23148 118.37812,341.78451 103.98656,334.47014 C 95.732708,330.27522 87.593211,325.28293 81.760423,320.8379 C 80.577425,319.93635 78.157653,318.0913 76.383142,316.73775 C 62.320211,306.01093 46.781926,287.78225 38.03045,271.74444 C 33.74434,263.88972 29.51664,254.61992 27.80617,249.32637 C 27.36022,247.9462 26.89702,246.65565 26.77686,246.45849 C 26.65671,246.26132 26.37795,245.45473 26.15744,244.66605 C 25.93693,243.87736 25.10919,240.97365 24.31804,238.2133 C 20.77796,225.86179 19.14893,216.58646 18.14782,203.08168 C 17.52969,194.74283 17.95422,179.17827 19.02296,170.99719 C 19.46591,167.60647 20.69108,160.31639 21.22201,157.91244 C 21.52685,156.53229 21.98814,154.43514 22.24712,153.25213 C 26.30005,134.73876 34.38759,115.77951 45.185366,99.47925 C 67.35456,66.0127 100.33194,42.37219 138.72442,32.42382 C 141.46533,31.71358 144.0061,31.21045 144.37057,31.30576 C 144.73501,31.40108 145.0332,31.35393 145.0332,31.20104 C 145.0332,31.04813 145.55748,30.83046 146.19828,30.71733 C 146.83907,30.60425 149.0572,30.19541 151.12746,29.80885 C 153.19771,29.42229 156.10145,28.9929 157.5802,28.85461 C 159.05896,28.71634 160.35535,28.55122 160.4611,28.48769 C 160.56682,28.42416 162.09935,28.26338 163.86672,28.13038 C 165.63406,27.99739 167.1939,27.81918 167.33307,27.73437 C 167.99813,27.32895 187.9711,27.64969 192.88476,28.14468 C 208.13005,29.68051 221.71839,33.05875 236.8056,39.06401 C 244.04771,41.94663 257.72957,49.09388 262.33757,52.40164 C 262.97579,52.85977 263.77804,53.3959 264.12037,53.59305 C 269.24652,56.54541 283.17037,67.86106 287.56936,72.64962 C 288.18173,73.31626 290.11758,75.35074 291.87117,77.17068 C 302.73252,88.44289 313.40052,104.32492 320.34055,119.55447 C 327.541,135.35546 332.75596,154.67388 334.13066,170.63871 C 334.87221,179.25101 334.99295,181.61027 334.97681,187.17418 C 334.9452,198.07656 333.5979,211.31332 331.56973,220.6475 C 331.2698,222.02766 330.72779,224.5281 330.36522,226.20403 C 329.51303,230.14301 326.51462,240.00212 324.51637,245.43565 C 321.46399,253.73568 316.91196,263.40969 312.80163,270.33198 C 311.62028,272.32153 310.6537,274.02156 310.6537,274.10977 C 310.6537,274.19799 310.34967,274.70726 309.97812,275.2415 C 309.60656,275.77571 308.12913,277.98732 306.695,280.15615 C 290.22826,305.05866 264.89027,326.31171 237.34333,338.32719 C 233.06116,340.19499 219.3674,345.14851 217.04327,345.67045 C 216.57544,345.77551 214.33749,346.34194 212.07006,346.92916 C 205.78294,348.55741 201.06989,349.46259 193.96653,350.40609 C 185.91959,351.47492 172.72032,351.9509 165.46689,351.43385 z M 184.48909,346.82582 C 206.20652,344.81182 228.64559,337.8821 246.84321,327.56935 C 250.75471,325.35267 250.65321,325.4151 256.27478,321.76767 C 288.41165,300.91641 312.11811,268.381 322.64084,230.68511 C 326.21741,217.8728 327.76549,208.3868 328.60831,194.11954 C 328.95096,188.31938 328.83911,177.67785 328.40569,174.84399 C 328.33845,174.40418 328.17764,172.67312 328.04837,170.99719 C 327.19268,159.90415 323.28624,142.4526 319.38187,132.28069 C 312.93058,115.47359 306.76201,104.19308 296.74018,90.87561 C 284.08813,74.06297 267.79353,59.94211 249.17337,49.65426 C 233.01883,40.72871 214.58574,34.46127 197.01366,31.91945 C 192.6968,31.29505 191.32205,31.13405 187.79809,30.84038 C 184.19409,30.54005 163.34735,30.6155 162.06128,30.93354 C 161.66694,31.03105 160.05376,31.22003 158.47642,31.35345 C 154.08694,31.72484 141.99686,33.91083 136.56347,35.31554 C 132.1243,36.46322 121.84916,39.69971 120.11842,40.49546 C 119.72409,40.67675 117.38497,41.67036 114.92038,42.70343 C 100.728,48.65253 87.465842,56.75581 75.486925,66.79758 C 71.801273,69.88725 62.017939,79.54711 58.181062,83.88513 C 55.472485,86.94743 49.009229,95.35075 46.405973,99.19467 C 35.29094,115.60716 26.92707,135.32479 22.63941,155.22381 C 21.46676,160.66601 20.02421,169.11914 19.73355,172.25188 C 19.60547,173.63206 19.41894,175.24526 19.31901,175.83676 C 19.21908,176.42826 19.03146,180.12799 18.90211,184.05837 C 18.53079,195.34036 19.10538,205.73555 20.6868,216.34567 C 21.48217,221.68192 23.93357,233.01679 24.91219,235.88315 C 25.08052,236.37608 25.5082,237.82793 25.86266,239.10952 C 26.82723,242.59714 30.00118,251.27064 32.09381,256.1376 C 36.84691,267.19194 45.506086,281.42422 52.596061,289.8353 C 52.928452,290.22961 53.786314,291.27818 54.502366,292.16545 C 56.770054,294.97529 65.503032,304.06098 68.854932,307.09775 C 94.175765,330.03792 127.02201,344.33851 160.44809,346.97554 C 166.79612,347.47635 178.2429,347.40506 184.48909,346.82582 z M 160.26885,342.86021 C 149.13148,342.04983 138.21705,340.06999 126.92966,336.8126 C 123.32045,335.771 123.75307,335.91959 116.89205,333.36552 C 102.29037,327.92995 88.402743,320.03604 75.307702,309.72843 C 65.65778,302.13263 55.030689,290.95613 48.04118,281.05239 C 47.275869,279.96796 46.543704,279.00003 46.414191,278.90145 C 45.937861,278.53893 41.465688,271.43138 39.17815,267.40137 C 36.57781,262.82018 33.19461,255.83023 31.37295,251.2752 C 27.4563,241.48163 24.56433,231.81113 22.64248,222.08144 C 21.42384,215.91182 21.11802,213.74497 20.01178,203.44018 C 19.5501,199.13977 19.69592,179.07486 20.21887,174.94055 C 21.34767,166.01663 22.07067,161.67223 23.55974,154.86533 C 26.8672,139.74611 33.06814,123.38971 40.072418,111.30929 C 40.758356,110.12629 41.695607,108.51309 42.155274,107.72444 C 45.033366,102.78609 54.423164,89.67346 55.566796,88.99546 C 55.818033,88.84653 56.087532,88.53619 56.165759,88.30582 C 56.725925,86.65568 68.537427,74.61273 74.590709,69.51984 C 87.17927,58.92853 100.99858,50.56136 115.99583,44.45029 C 124.81398,40.85704 139.35044,36.70794 146.64638,35.70178 C 147.23789,35.62023 149.41569,35.30761 151.48594,35.00712 C 163.82535,33.21607 176.22269,32.95922 188.40999,34.24211 C 192.78929,34.70311 198.86355,35.62107 200.24003,36.0299 C 200.53578,36.11775 201.3955,36.28607 202.15051,36.40394 C 203.94265,36.68372 211.79518,38.58548 213.86249,39.24041 C 219.7497,41.10548 226.44535,43.47829 229.09816,44.63966 C 229.68964,44.89862 231.70612,45.78083 233.5792,46.60016 C 242.14095,50.34514 255.76702,58.47544 263.13778,64.23688 C 268.89234,68.73499 276.93299,76.11808 281.80306,81.37571 C 297.71901,98.55833 309.84875,119.9924 316.18951,142.13908 C 316.52819,143.32207 316.94224,144.6933 317.10962,145.18622 C 318.40516,149.00128 320.67552,160.83829 321.40708,167.59157 C 321.64199,169.76041 321.97037,172.66415 322.13676,174.04434 C 322.44372,176.59043 322.29553,196.71857 321.94805,199.67607 C 321.8438,200.56331 321.59113,202.74113 321.38655,204.51563 C 320.9173,208.5865 319.78931,215.5827 319.0747,218.85508 C 318.77329,220.23524 318.37814,222.09041 318.19657,222.97765 C 317.1975,227.85978 313.76589,238.4329 310.75016,245.92077 C 302.68643,265.9425 290.9532,283.55992 275.70133,298.54664 C 266.42157,307.66503 257.50088,314.63228 246.66395,321.22541 C 242.78174,323.58736 234.97677,327.73385 232.32452,328.84348 C 231.14152,329.3384 229.04436,330.26697 227.66421,330.907 C 223.35782,332.90399 211.73875,336.85134 205.71637,338.36337 C 198.92302,340.06897 191.13001,341.49733 184.64589,342.22535 C 180.23013,342.72111 164.12261,343.1406 160.26885,342.86021 z M 184.17161,337.72694 C 203.71856,335.25582 222.82539,328.78156 240.46067,318.6537 C 258.06342,308.54454 274.81174,293.43889 286.89166,276.77679 C 288.11711,275.08642 289.29749,273.49701 289.51467,273.24471 C 289.73188,272.99241 291.43659,270.25 293.30294,267.15046 C 295.16933,264.0509 296.85131,261.27292 297.04073,260.97717 C 297.23015,260.68141 298.75523,257.67811 300.42975,254.30315 C 303.51817,248.07844 306.64728,240.48776 308.54024,234.62845 C 309.11353,232.85394 309.82166,230.67613 310.11385,229.78887 C 310.70498,227.99392 313.37295,217.05287 313.69794,215.09098 C 313.81229,214.40088 313.97485,213.5943 314.05927,213.29852 C 314.4711,211.85568 315.6739,202.49958 316.04098,197.88364 C 317.99986,173.25057 314.05336,148.58837 304.56785,126.18646 C 301.55135,119.06236 296.65711,109.63118 294.12127,106.05589 C 293.75007,105.53256 293.44637,105.00708 293.44637,104.88818 C 293.44637,104.19362 285.72021,93.62447 281.78706,88.93863 C 263.93447,67.66942 241.20909,52.27844 215.22389,43.85806 C 211.81336,42.75288 208.7003,41.72149 208.30596,41.56603 C 207.91163,41.41059 207.10503,41.19603 206.51353,41.08923 C 205.92203,40.98243 203.34093,40.41751 200.77776,39.83382 C 186.71091,36.63065 168.31815,35.71373 153.27837,37.4659 C 140.84942,38.91391 125.34927,42.79645 115.8166,46.84949 C 114.63359,47.35246 112.46454,48.26894 110.9965,48.88609 C 96.410317,55.01798 80.921467,65.13931 69.806295,75.80222 C 58.149896,86.98429 50.972942,95.73483 43.330462,108.08291 C 39.44839,114.35528 34.32917,124.48969 32.19388,130.12981 C 31.78331,131.21422 30.96085,133.39202 30.36625,134.96936 C 29.7716,136.5467 28.78104,139.53109 28.16507,141.60135 C 27.54904,143.67161 26.90426,145.76875 26.73222,146.26167 C 25.77304,149.01002 23.20709,161.23613 22.29328,167.41232 C 20.57449,179.0293 20.32146,194.9943 21.67401,206.4873 C 22.93634,217.21379 24.81811,226.55285 27.45258,235.16618 C 29.51989,241.9252 29.74796,242.57531 31.94989,247.98684 C 42.832045,274.73086 61.003857,297.1205 84.989247,313.33702 C 87.159414,314.80427 89.256552,316.19949 89.649556,316.43752 C 96.608517,320.65215 106.23079,325.66996 110.49559,327.30828 C 111.64765,327.75085 114.04209,328.67015 115.8166,329.35118 C 118.57801,330.41097 122.16484,331.63502 126.57117,333.02127 C 132.10254,334.76146 141.77822,336.75072 149.2287,337.6795 C 157.29324,338.6848 157.44792,338.69213 168.33478,338.58226 C 175.74307,338.50748 179.67896,338.2949 184.17161,337.72694 z M 150.94821,333.75321 C 144.8023,333.10222 140.14474,332.39091 135.53332,331.39904 C 132.39008,330.72295 123.58757,328.42161 122.62783,328.02499 C 122.2335,327.86204 119.89437,327.04452 117.42978,326.20826 C 95.215089,318.67067 72.265936,303.12558 57.11712,285.35421 C 51.502746,278.7679 49.721482,276.47239 46.776112,272.02779 C 33.29423,251.68341 25.82265,230.96505 22.94662,205.94957 C 22.25765,199.95701 21.97806,184.88218 22.43463,178.34617 C 23.97523,156.29266 30.88371,132.85446 41.243246,114.53486 C 43.911625,109.81609 50.314956,99.9562 51.725302,98.39444 C 52.076898,98.00507 53.083194,96.71866 53.961499,95.53576 C 57.811344,90.35074 62.610427,85.14161 70.186138,77.92491 C 72.870662,75.36761 81.154237,68.53487 83.465677,66.97121 C 89.641111,62.79368 93.126589,60.54789 94.48668,59.87004 C 95.37394,59.42784 96.341845,58.85755 96.637592,58.60274 C 97.655486,57.72569 109.37066,52.05733 113.66568,50.36373 C 123.11021,46.63961 131.67762,44.09079 140.01439,42.52498 C 152.06088,40.26235 157.54117,39.79891 169.94797,39.99356 C 179.80658,40.14825 180.68831,40.19726 185.72135,40.87046 C 187.29869,41.08143 189.23451,41.34054 190.02318,41.4462 C 190.81185,41.55187 192.58635,41.8748 193.96653,42.16387 C 195.3467,42.45287 197.02265,42.77678 197.69087,42.88358 C 201.89172,43.55509 216.80247,48.30067 222.46616,50.76869 C 249.24738,62.43892 269.47138,79.28083 286.09741,103.75876 C 299.60393,123.64401 308.44628,149.79709 310.10332,174.76129 C 310.32136,178.04617 310.3505,196.07023 310.13834,196.41354 C 310.04811,196.55954 309.79714,198.44224 309.58064,200.5973 C 308.51762,211.17858 306.04873,222.67835 302.61715,233.03215 C 299.14302,243.51432 295.16947,252.09761 288.48065,263.56837 C 286.11249,267.62957 279.22666,277.29531 276.02513,281.05239 C 263.67893,295.54089 252.4263,305.09368 236.44711,314.6516 C 233.8402,316.21093 224.65016,320.82177 221.03222,322.38556 C 210.11818,327.10301 198.55905,330.64731 189.30621,332.11354 C 188.71471,332.20729 187.10152,332.46336 185.72135,332.68264 C 174.91422,334.39967 161.07419,334.82576 150.94821,333.75321 z M 174.32297,329.63847 C 180.34574,329.05906 184.96161,328.37607 190.38167,327.26237 C 198.27395,325.64065 209.77357,321.97886 216.3073,319.00696 C 217.55333,318.44015 218.72084,317.97641 218.90169,317.97641 C 219.63512,317.97641 231.92764,311.43627 236.44711,308.64151 C 249.98729,300.26841 262.15066,289.31398 273.25068,275.49584 C 276.20505,271.81798 282.36675,262.85174 284.33671,259.36397 C 284.55945,258.96966 285.38944,257.51777 286.18115,256.1376 C 290.50689,248.59669 295.54197,236.6527 298.42204,227.10023 C 301.41465,217.17467 303.31437,207.06321 304.21431,196.27046 C 304.61601,191.45328 304.717,178.32038 304.38388,174.22356 C 304.07992,170.48525 303.1168,162.35536 302.77009,160.60112 C 302.59472,159.71385 302.18418,157.53605 301.85778,155.76156 C 300.84064,150.23193 298.865,143.12873 296.37379,136.04482 C 290.88929,120.44909 281.78459,104.5052 271.65619,92.76012 C 262.55671,82.20818 253.16725,73.72609 242.36215,66.29699 C 241.37629,65.61919 240.48904,64.98396 240.39045,64.88536 C 240.29185,64.78678 239.56594,64.36857 238.77726,63.95604 C 237.98861,63.54349 235.73447,62.2846 233.76814,61.15852 C 220.88914,53.78302 203.20851,47.2484 190.56091,45.18948 C 189.27932,44.98086 187.82745,44.74005 187.33454,44.65435 C 186.84162,44.56865 184.90579,44.32057 183.0327,44.10307 C 181.15962,43.88557 178.82049,43.59432 177.83466,43.45584 C 176.84882,43.31735 171.28333,43.2144 165.46689,43.22705 C 156.8143,43.24588 153.75097,43.39338 148.61806,44.03843 C 116.81121,48.03554 88.757256,61.65028 66.519544,83.88125 C 45.705567,104.6889 32.62348,129.24819 26.41666,159.16717 C 24.35633,169.09868 23.5201,178.54987 23.68887,189.99695 C 23.83756,200.08192 24.18017,204.29732 25.52439,212.58155 C 28.95369,233.71559 37.01507,253.89876 48.720086,270.65629 C 51.203982,274.21237 55.130308,279.41706 55.75139,279.97691 C 55.860764,280.07551 56.989953,281.36605 58.260729,282.8448 C 66.592671,292.54057 79.238166,303.11535 90.97449,310.2017 C 93.995225,312.02563 103.64299,317.02187 106.49596,318.23974 C 114.46339,321.64087 118.12341,322.92862 127.27968,325.55244 C 133.2123,327.25248 141.91541,328.84089 149.51427,329.61051 C 155.90715,330.25801 167.74461,330.27133 174.32297,329.63847 z M 151.17625,325.82625 C 136.30005,324.75642 120.57392,320.8499 106.42193,314.70882 C 95.444878,309.94545 86.918182,304.76722 74.938267,295.58886 C 69.146571,291.15156 59.265658,280.99472 53.388195,273.43702 C 49.935527,268.99726 46.091086,263.51514 46.091086,263.03135 C 46.091086,262.85984 45.633338,262.04519 45.073836,261.22099 C 41.649703,256.17683 36.84438,246.08667 33.09239,236.0624 C 30.18406,228.29218 26.55629,212.43504 26.19157,205.89861 C 26.13501,204.88472 25.99778,203.7555 25.88663,203.38921 C 25.2557,201.31005 24.8761,184.45904 25.32656,178.5254 C 25.70981,173.47629 26.57192,166.47322 27.31248,162.39353 C 28.57805,155.42164 31.62733,143.83769 33.44621,139.09194 C 35.77656,133.01181 36.92352,130.19253 37.60283,128.8751 C 38.00945,128.08642 38.38188,127.20995 38.43047,126.92735 C 38.59483,125.97073 42.658185,118.14253 44.955646,114.35641 C 52.259663,102.31968 58.537035,94.34206 67.679637,85.4775 C 81.674603,71.90813 96.614971,62.23399 114.02416,55.4686 C 124.76415,51.2949 136.53669,48.44024 149.33503,46.90624 C 155.28654,46.19287 172.77481,46.28571 179.08936,47.06415 C 199.79794,49.61712 218.49141,56.27338 235.55089,67.16862 C 253.77574,78.80812 270.27757,96.11344 280.37679,114.17717 C 285.2254,122.84951 286.46264,125.40833 289.21674,132.45996 C 293.18317,142.61557 295.03626,149.33087 296.99572,160.64982 C 302.72954,193.77111 296.0783,228.7376 278.48464,257.96509 C 270.02162,272.02427 259.09702,284.72282 247.20169,294.32765 C 246.11727,295.20327 245.14936,296.0165 245.05076,296.1348 C 244.67341,296.58772 237.93722,301.4143 235.37166,303.07004 C 233.8929,304.02441 232.03774,305.24305 231.24907,305.77815 C 229.69474,306.83273 222.20848,310.92311 219.59828,312.14395 C 208.68789,317.24692 201.06064,319.95724 190.74015,322.3986 C 176.86599,325.68061 164.29518,326.76969 151.17625,325.82625 z M 172.04447,321.13907 C 178.74955,320.43811 181.35359,319.97557 188.94772,318.13661 C 209.52252,313.15432 228.46516,303.43537 245.30038,289.22364 C 252.39296,283.23633 263.70521,270.61179 268.5228,263.30731 C 269.30306,262.12432 270.21342,260.83377 270.54588,260.43943 C 270.87832,260.0451 271.46785,259.15784 271.85588,258.46776 C 272.24393,257.77768 273.47493,255.68052 274.59141,253.80743 C 276.82857,250.0542 280.67572,242.38246 282.14168,238.75104 C 282.65905,237.46945 283.23203,236.09823 283.41493,235.70391 C 287.13461,227.68441 291.34177,210.9701 292.79934,198.42137 C 293.51171,192.28784 293.41489,174.14535 292.6367,167.95006 C 292.28997,165.18973 291.92127,162.52797 291.81735,162.03504 C 291.71348,161.54213 291.2387,159.0417 290.76231,156.47851 C 289.62988,150.38549 287.3297,141.98937 285.57899,137.55853 C 285.40589,137.12034 284.90021,135.79388 284.45528,134.61086 C 284.0104,133.42787 283.10047,131.26022 282.43325,129.79387 C 281.766,128.32753 280.87111,126.31102 280.44461,125.31279 C 279.62922,123.40417 277.02574,118.27887 275.78971,116.14885 C 273.49559,112.1954 267.59097,103.31669 266.42008,102.05982 C 265.90548,101.50744 265.48447,100.93292 265.48447,100.78309 C 265.48447,100.63325 265.20215,100.19712 264.85714,99.8139 C 264.51207,99.43071 263.34474,98.0694 262.26301,96.78881 C 255.73408,89.05958 247.4061,81.18659 239.66993,75.43016 C 230.13223,68.33316 217.76999,61.5375 207.76823,57.89341 C 206.28948,57.35463 204.75695,56.77584 204.36262,56.60719 C 201.52563,55.3939 186.84527,51.61228 182.95774,51.09337 C 182.50605,51.03306 179.95869,50.68621 177.29693,50.32254 C 170.7275,49.42503 153.25349,49.40842 146.08575,50.29291 C 133.70228,51.821 123.49016,54.39775 111.69401,58.97072 C 90.943839,67.01489 71.58251,81.49926 56.826692,100.01749 C 50.387924,108.09803 46.711275,113.81741 41.502073,123.85629 C 34.36849,137.6038 28.57171,158.18093 27.26255,174.40282 C 27.13524,175.98014 26.96522,177.67398 26.8847,178.1669 C 26.66762,179.49595 26.67681,194.53576 26.89611,196.81417 C 27.00017,197.8953 27.25917,200.55435 27.47171,202.72319 C 28.62154,214.45615 33.02728,231.79721 37.12607,240.7227 C 37.30718,241.11705 37.88243,242.48826 38.40446,243.76982 C 41.755106,251.99566 49.14972,264.15739 56.030586,272.759 C 64.945543,283.90346 76.561196,294.17489 88.895313,301.82055 C 97.868062,307.38258 106.6005,311.50052 116.60666,314.88834 C 128.0344,318.75749 136.32317,320.41872 150.58973,321.69928 C 154.35946,322.03766 166.47514,321.7213 172.04447,321.13907 z M 149.87276,317.74553 C 121.31075,315.8158 95.587126,305.57538 74.052989,287.56209 C 69.833402,284.0324 60.870372,275.05763 58.458843,271.94744 C 57.867348,271.1846 56.557613,269.5459 55.548381,268.30591 C 52.718205,264.82873 47.540545,256.96017 44.946583,252.19425 C 36.26179,236.23756 31.4663,221.13639 29.17969,202.54396 C 28.43468,196.4861 28.54478,176.26532 29.35438,170.45946 C 32.20099,150.04583 38.32352,132.07362 47.68064,116.66392 C 52.708278,108.38424 54.453199,105.90568 59.391761,100.02912 C 67.941762,89.85527 77.669391,81.11869 88.392414,73.98307 C 105.97727,62.28128 127.46133,54.91317 149.33503,53.08235 C 157.54142,52.39548 172.85002,53.0064 180.34406,54.31982 C 202.75398,58.24743 221.54055,66.68762 239.49424,80.89415 C 243.47487,84.04395 252.8871,93.20821 256.5572,97.50759 C 265.74222,108.26746 273.3894,120.8813 278.3992,133.53542 C 290.84607,164.97468 291.27605,197.92456 279.66104,230.22628 C 271.1323,253.94491 254.8479,275.98274 234.65468,291.13386 C 225.5113,297.99419 214.07145,304.54462 204.35534,308.48316 C 198.26886,310.9504 185.26145,314.78631 180.16482,315.617 C 175.61276,316.35893 171.36431,316.96788 168.54862,317.282 C 165.18043,317.65778 153.03554,317.95919 149.87276,317.74553 z M 169.76873,312.8415 C 171.83898,312.52504 174.1781,312.16804 174.96677,312.04818 C 184.6047,310.58339 196.00656,307.09869 206.0945,302.53478 C 224.68454,294.12438 242.7242,279.92356 254.79327,264.19907 C 255.32102,263.51143 256.3747,262.14225 257.13471,261.15641 C 259.23402,258.4334 261.88033,254.42263 264.52176,249.96045 C 274.61012,232.91816 280.7098,213.62057 282.34216,193.58181 C 283.76855,176.07161 281.60692,158.31746 276.0156,141.61962 C 273.58011,134.34643 272.75632,132.38505 269.24856,125.50859 C 265.37562,117.91623 264.70691,116.73446 261.92367,112.56399 C 255.36803,102.74096 245.92306,91.99928 238.41879,85.83204 C 237.23578,84.85982 236.18722,83.97516 236.08862,83.86617 C 235.99004,83.75714 235.2641,83.19255 234.47544,82.61146 C 233.68677,82.03039 232.84906,81.37405 232.61386,81.15295 C 232.37868,80.93182 229.63626,79.05399 226.51957,76.98 C 220.98751,73.29858 215.69225,70.25532 210.99461,68.05758 C 209.71302,67.45799 207.69654,66.51212 206.51353,65.95562 C 202.28035,63.96427 190.82988,60.1567 186.61756,59.33971 C 185.92748,59.20586 183.45873,58.70874 181.13144,58.23499 C 178.80415,57.76126 175.90041,57.27919 174.67869,57.16376 C 173.45697,57.04833 171.16682,56.78551 169.58948,56.57975 C 163.92196,55.84039 152.62342,55.93871 143.88049,56.80342 C 127.20003,58.45326 109.12075,64.31074 95.060399,72.62064 C 88.941588,76.23697 86.218663,78.04669 81.581173,81.57928 C 74.997155,86.59463 70.264042,91.06302 62.038375,100.02908 C 56.220288,106.3708 47.469319,119.76626 43.310997,128.69586 C 38.99269,137.96894 35.6,148.0274 33.33532,158.27095 C 29.5819,175.24854 29.40667,195.0283 32.85582,212.40233 C 34.00212,218.1764 37.52582,230.46603 38.92017,233.55298 C 39.09832,233.94733 39.91649,235.88315 40.738349,237.85482 C 48.702315,256.96028 62.323469,274.71262 78.719654,287.35557 C 82.349141,290.15427 83.292673,290.82154 87.634835,293.66023 C 99.479065,301.40347 112.56437,306.9823 127.28814,310.56607 C 131.79359,311.66271 139.43347,312.89595 143.53652,313.18888 C 145.24696,313.31099 146.7164,313.47304 146.802,313.54899 C 147.25434,313.95039 166.36601,313.36164 169.76873,312.8415 z M 150.0116,309.57135 C 149.92366,309.48342 148.30822,309.3827 146.42168,309.34754 C 137.59605,309.18302 123.92422,306.39942 113.17068,302.57761 C 94.933181,296.09596 77.746185,284.77094 64.998445,270.83553 C 49.312116,253.68769 39.15199,233.33173 34.67003,210.07217 C 34.27112,208.00191 33.85325,205.50146 33.74149,204.51563 C 33.62976,203.52978 33.4471,201.99725 33.33565,201.11002 C 32.22,192.22878 32.41305,175.5336 33.72741,167.23311 C 35.06902,158.7603 39.31995,143.06118 41.590034,138.19573 C 41.866009,137.60424 42.409722,136.31133 42.798272,135.32256 C 43.655894,133.14018 48.246011,123.76279 49.551433,121.52613 C 50.934767,119.15599 58.483132,107.84382 59.241832,107.00374 C 59.599871,106.60737 60.538063,105.48001 61.326732,104.49851 C 65.131202,99.76387 71.90024,92.96593 77.65957,88.09594 C 78.534874,87.35579 79.493005,86.53491 79.788764,86.27172 C 80.084504,86.00853 80.88505,85.40423 81.567709,84.92878 C 82.250362,84.45335 83.132571,83.7775 83.528208,83.42692 C 84.623549,82.45618 92.86479,77.05989 96.099868,75.19508 C 98.667748,73.7149 104.36544,70.8967 107.75067,69.43238 C 108.44074,69.13387 109.91624,68.48891 111.02948,67.99911 C 117.03487,65.35705 131.20715,61.64237 139.83515,60.44891 C 145.38767,59.68088 163.33795,59.37637 168.33478,59.96546 C 175.57157,60.81861 182.23378,61.95591 184.7082,62.76054 C 185.33397,62.96401 186.30188,63.20987 186.85911,63.30686 C 189.24982,63.72297 199.03985,67.00996 202.2117,68.46147 C 202.60604,68.64191 203.73527,69.14097 204.7211,69.57047 C 212.19461,72.82646 220.92872,77.95639 227.67654,83.05321 C 229.19594,84.20084 230.91531,85.48626 231.49735,85.90971 C 235.97768,89.16905 245.22412,98.41103 250.27402,104.67729 C 254.39672,109.79306 260.09216,118.36417 262.78012,123.4978 C 266.15621,129.94584 270.69144,140.87049 272.09663,145.93994 C 272.39163,147.00415 272.94738,149.00409 273.33169,150.38425 C 274.65979,155.15396 275.92504,161.90352 276.82611,169.02551 C 277.62682,175.35439 277.62305,189.79336 276.81897,196.49373 C 274.52549,215.60489 269.11446,231.84676 259.75504,247.71318 C 250.26968,263.79313 236.36562,278.53099 221.39069,288.37821 C 213.76631,293.39186 213.00725,293.84276 207.80071,296.45097 C 194.76832,302.97964 182.27239,306.80636 167.43857,308.81146 C 163.14817,309.39139 150.38805,309.94779 150.0116,309.57135 z M 164.74992,305.11103 C 166.03151,304.92248 167.84652,304.67046 168.78328,304.55098 C 170.83275,304.28954 177.81243,302.85479 181.778,301.87977 C 190.04268,299.8477 202.41439,294.72916 211.21938,289.69904 C 215.14207,287.45806 225.51878,280.25278 226.76799,278.90248 C 226.86657,278.79592 228.23779,277.63749 229.81514,276.32819 C 236.08568,271.1232 244.52439,261.89226 249.58384,254.70366 C 254.78925,247.3076 260.69786,236.94235 262.45795,232.11904 C 262.81768,231.13321 263.30849,230.00397 263.54858,229.60964 C 264.16095,228.60395 267.40037,219.07683 268.30238,215.62869 C 270.23907,208.22547 271.60625,201.21423 272.07729,196.27046 C 272.18998,195.08745 272.37402,193.15162 272.48622,191.96861 C 272.59848,190.78561 272.7354,187.2366 272.79051,184.08192 C 273.03529,170.06932 271.04588,157.20076 266.5419,143.6625 C 262.70854,132.14002 257.63841,122.25557 250.19222,111.78799 C 244.85211,104.28106 236.35675,95.1617 230.0428,90.15862 C 228.79867,89.17277 227.59322,88.20055 227.364,87.9981 C 226.35171,87.10401 219.95443,82.45778 218.16432,81.31657 C 217.0799,80.62521 215.425,79.56652 214.48672,78.96387 C 207.66012,74.57913 194.1111,68.87219 184.46665,66.31925 C 170.08785,62.5131 151.37535,61.62442 136.25029,64.02943 C 119.92162,66.6258 105.2138,72.20117 91.081064,81.15199 C 78.562947,89.08017 66.298283,100.77814 57.583549,113.10171 C 55.426024,116.15264 52.185343,121.12107 52.185343,121.37791 C 52.185343,121.49714 51.880803,122.02292 51.508548,122.54626 C 50.649387,123.75431 46.55899,131.72342 45.22405,134.79011 C 38.26706,150.77216 34.40744,169.56496 34.65893,186.23285 C 34.91636,203.2962 37.44003,216.28171 43.472098,231.58132 C 49.582361,247.07909 57.797584,259.47436 70.089662,271.74211 C 76.764779,278.40403 82.794589,283.13191 91.6188,288.62271 C 106.58415,297.9348 126.27567,304.32572 143.06152,305.31851 C 144.83603,305.42347 146.36755,305.58447 146.46492,305.67628 C 146.76174,305.95619 162.26182,305.47703 164.74992,305.11103 z M 140.19364,301.27394 C 128.91778,300.06702 119.10972,297.66049 108.64688,293.53365 C 104.37892,291.85022 96.310413,287.83089 93.05273,285.76539 C 91.771149,284.95282 90.285085,284.04295 89.750362,283.74348 C 88.859733,283.24467 83.054057,279.13781 81.642857,278.00837 C 77.453554,274.65543 73.729879,271.43511 71.494716,269.23198 C 54.714095,252.69193 42.909194,230.26363 38.94141,207.38351 C 37.52771,199.23156 37.09977,194.12323 37.12467,185.69513 C 37.18582,164.94824 41.067714,148.5105 50.288423,129.95356 C 51.561228,127.39203 52.711609,125.21422 52.844808,125.11401 C 52.978027,125.01375 53.557161,124.04451 54.131783,122.96009 C 59.276169,113.2516 70.34983,100.53662 81.619944,91.39772 C 88.09696,86.14556 98.48696,79.62372 104.84563,76.81888 C 105.95049,76.33155 107.66104,75.56735 108.64688,75.12071 C 114.94899,72.26544 125.57265,69.1582 134.27862,67.62381 C 146.7787,65.42073 163.69888,65.63146 175.50762,68.13729 C 177.37899,68.5344 179.31341,68.94158 179.80633,69.04212 C 182.5315,69.59806 187.94238,71.19254 191.93126,72.61511 C 200.5622,75.69312 215.06553,83.51924 221.21146,88.41488 C 237.71134,101.55819 247.59233,113.44097 255.7229,129.91794 C 261.65401,141.93763 265.47085,154.74012 267.11493,168.1293 C 267.81234,173.80868 268.06929,185.63988 267.61718,191.25165 C 265.86066,213.05341 258.90167,232.58652 246.38604,250.84518 C 241.26136,258.32136 233.66013,266.84285 226.74379,272.86539 C 221.79625,277.17352 210.58916,285.24048 208.52127,285.98207 C 208.20569,286.09525 207.52081,286.48316 206.99928,286.84409 C 205.63173,287.79058 196.5454,292.26995 193.68289,293.40879 C 190.24494,294.77658 179.81085,298.16309 178.14952,298.45034 C 177.38483,298.58257 175.54931,298.98844 174.07056,299.35227 C 165.35551,301.49666 150.26924,302.35244 140.19364,301.27394 z M 165.28765,296.67884 C 174.10909,295.31489 183.19094,292.90563 190.38167,290.02184 C 194.19348,288.49314 202.45737,284.45156 204.81768,282.96172 C 205.85664,282.30591 206.78813,281.76934 206.88765,281.76934 C 207.24029,281.76934 214.97918,276.50606 216.93304,274.93741 C 223.33444,269.79803 225.72558,267.68276 229.58573,263.74434 C 240.68784,252.41728 247.93752,241.62826 254.0883,227.27949 C 258.9774,215.87405 262.48308,201.08194 263.00909,189.63845 C 263.55801,177.6959 262.86998,168.36427 260.64577,157.58413 C 259.71238,153.06046 256.45876,142.63182 254.94143,139.30051 C 254.48508,138.29855 253.99513,137.10702 253.85271,136.65262 C 253.42958,135.30293 249.58196,127.68765 247.56845,124.21478 C 238.15364,107.97603 223.21884,93.34557 205.9758,83.46973 C 204.10272,82.39692 201.92491,81.22125 201.13625,80.8571 C 200.34758,80.49296 198.38071,79.57017 196.76544,78.80646 C 193.51648,77.27035 183.80427,73.94642 179.13041,72.77101 C 161.83038,68.4203 142.00306,68.54994 124.35734,73.12917 C 107.4571,77.51493 92.480489,85.42268 79.297171,96.92126 C 68.963881,105.934 59.139822,118.23921 53.643169,129.05433 C 52.79139,130.73027 51.974022,132.2628 51.826743,132.45996 C 51.679518,132.65712 50.673194,134.83494 49.590493,137.29952 C 35.50282,169.36768 36.35551,206.22207 51.896262,236.9586 C 54.700951,242.50572 55.149092,243.28193 58.395851,248.216 C 69.036553,264.38647 83.623636,277.32842 101.29791,286.27965 C 105.84492,288.58249 112.67952,291.31037 117.78827,292.86138 C 119.85852,293.4899 121.95566,294.14693 122.44859,294.32141 C 123.3776,294.6503 130.85418,296.12368 135.08693,296.81203 C 136.41878,297.02863 138.91922,297.30048 140.64347,297.41616 C 142.36775,297.53185 143.83965,297.68224 143.9144,297.75038 C 143.98911,297.81851 147.45746,297.81731 151.62185,297.74768 C 157.52704,297.64895 160.53459,297.41372 165.28765,296.67884 z M 143.57839,293.83342 C 143.46833,293.71462 142.50042,293.59953 141.42747,293.57765 C 139.61888,293.54077 134.6807,293.05331 133.02392,292.7481 C 132.62958,292.67547 131.50035,292.4988 130.51452,292.35548 C 129.52868,292.21217 127.18956,291.69702 125.31647,291.21073 C 123.44338,290.7244 121.26558,290.18373 120.47691,290.00919 C 114.3724,288.65842 100.34166,282.55143 94.128195,278.54071 C 93.832444,278.34979 93.10651,277.92924 92.515014,277.60615 C 86.915846,274.54766 76.939343,266.20635 70.773228,259.42791 C 51.419914,238.15277 41.462097,211.07212 42.276912,181.93102 C 42.531104,172.84 43.521346,164.60959 45.037318,158.98791 C 45.249966,158.19925 45.513021,157.15069 45.621862,156.65775 C 46.638267,152.05457 50.082626,142.40321 52.850214,136.4033 C 65.581184,108.80401 90.030811,87.09506 118.39425,78.20649 C 126.56221,75.64683 132.75814,74.36763 141.22249,73.49348 C 147.02563,72.89416 158.49234,72.98916 163.13673,73.67503 C 163.72824,73.76238 165.09945,73.93364 166.18387,74.05561 C 169.63085,74.44331 176.79304,75.93832 180.70255,77.08621 C 201.86723,83.30044 220.50997,95.83223 234.5471,113.28095 C 240.18241,120.28593 245.28486,128.54192 248.28347,135.5071 C 249.08991,137.38017 249.96178,139.31599 250.22101,139.80892 C 250.48026,140.30184 251.50498,143.12492 252.4982,146.08243 C 255.33069,154.51679 257.0614,162.69238 258.11396,172.61038 C 258.4459,175.7382 258.3506,187.86151 257.95892,192.32712 C 257.3045,199.78878 255.06816,210.83196 253.13125,216.16643 C 252.80914,217.05368 252.14075,218.98948 251.64602,220.46825 C 249.29363,227.49955 243.91351,238.01662 238.87216,245.43858 C 231.05354,256.94928 218.18816,269.42572 206.69278,276.64516 C 195.21144,283.85582 184.84198,288.28262 172.9951,291.03094 C 167.21595,292.37163 166.34852,292.53676 162.24052,293.0783 C 157.95285,293.64353 143.9282,294.21101 143.57839,293.83342 z M 159.69111,289.45778 C 162.3309,289.16396 165.96057,288.59456 167.75705,288.1924 C 169.55356,287.79025 171.42672,287.3828 171.91964,287.28697 C 174.79914,286.72715 184.06475,283.68694 188.23075,281.93502 C 192.081,280.31589 200.22415,276.02012 203.86411,273.68797 C 212.26081,268.30814 220.30929,261.28819 227.27399,253.26971 C 232.44921,247.31151 234.98739,243.85538 238.61231,237.83108 C 254.499,211.42868 258.44771,179.85504 249.5487,150.38425 C 244.65506,134.1782 236.58147,120.56214 224.32756,107.8491 C 209.37841,92.33984 190.14539,81.95428 169.39913,78.18853 C 167.33496,77.81386 164.59757,77.39314 163.31598,77.25362 C 162.03439,77.11406 160.50187,76.93819 159.91036,76.86278 C 154.03374,76.11363 142.37122,76.47236 134.54117,77.64313 C 114.08686,80.70151 95.409643,89.77419 79.257049,104.49806 C 69.581992,113.31734 60.078887,126.66172 54.621223,139.09194 C 46.753208,157.01201 43.758846,175.05418 45.379014,194.77962 C 46.405555,207.27717 50.449167,221.28906 56.399376,232.96719 C 64.686718,249.2322 75.523062,261.5869 91.081064,272.50837 C 95.770172,275.80003 105.8162,281.05792 111.51476,283.2029 C 112.69777,283.64819 114.46181,284.31142 115.43488,284.67671 C 116.40792,285.04203 117.27606,285.26892 117.36407,285.18095 C 117.45204,285.09294 117.82364,285.18129 118.18984,285.37726 C 119.38722,286.01809 124.69719,287.4318 128.72209,288.18136 C 139.71298,290.22821 149.24067,290.62089 159.69111,289.45778 z M 140.37288,286.01521 C 136.06707,285.67525 130.26046,284.77946 124.77874,283.60951 C 121.88282,282.99145 114.07041,280.5105 112.23174,279.62501 C 111.8374,279.43511 110.70817,278.96853 109.72234,278.5882 C 94.596343,272.75262 78.638521,260.35416 68.368719,246.45849 C 65.409128,242.45396 64.373858,240.97857 64.373858,240.76527 C 64.373858,240.67415 63.664138,239.54118 62.796672,238.24758 C 59.649942,233.55497 54.63609,222.58689 52.702718,216.16643 C 51.648797,212.66663 50.342907,207.45767 49.826749,204.69487 C 49.734703,204.20195 49.50498,202.99207 49.316268,202.00621 C 48.295955,196.67521 48.007255,193.11059 47.922591,184.7989 C 47.82615,175.32937 48.550524,168.99553 50.833524,159.34641 C 52.101888,153.98568 55.070505,145.02111 56.338932,142.72129 C 56.814792,141.85848 57.204151,140.98631 57.204151,140.78316 C 57.204151,140.57998 58.026726,138.78547 59.032057,136.79535 C 70.644851,113.80763 89.691822,96.21544 112.94871,86.99681 C 129.68437,80.36307 149.16045,78.39565 166.7216,81.56484 C 169.48193,82.06298 172.70831,82.72026 173.89131,83.02545 C 175.07432,83.33063 176.35228,83.64497 176.73124,83.72402 C 178.65728,84.12568 186.41857,86.95347 190.20242,88.63216 C 210.62447,97.69236 228.32023,114.64681 238.62843,135.02949 C 242.696,143.07236 245.28702,150.22829 247.18258,158.6542 C 249.07625,167.07179 249.5108,171.32906 249.50356,181.39329 C 249.49503,193.3215 248.62323,200.04941 245.76412,210.25141 C 239.20861,233.64306 223.92178,254.82495 203.48823,268.8302 C 197.2661,273.09487 189.90553,276.90842 182.36782,279.7728 C 168.84588,284.91127 154.11816,287.10049 140.37288,286.01521 z M 158.65566,281.77172 C 175.97311,279.5017 191.76926,272.93094 205.9758,262.08776 C 211.0069,258.2478 220.10251,249.37085 223.45937,245.02455 C 225.92586,241.83105 229.99436,235.98194 229.99436,235.62949 C 229.99436,235.5043 230.21759,235.14719 230.4904,234.83592 C 232.30677,232.76349 237.43231,222.40711 239.55282,216.52491 C 242.26664,208.99687 243.00004,206.22945 244.58785,197.52515 C 245.47534,192.66045 245.53652,191.63745 245.54227,181.57253 C 245.54805,171.41402 245.49438,170.51993 244.574,165.44066 C 241.06073,146.05255 233.97645,131.03473 221.47602,116.47557 C 211.36808,104.70294 197.46216,95.0329 182.85787,89.62096 C 175.53558,86.90751 169.77557,85.515 159.91036,84.07318 C 157.27947,83.68868 144.18882,83.58799 140.19364,83.92152 C 122.50408,85.39837 104.04349,92.73988 89.49545,104.08345 C 85.13579,107.4828 77.787439,114.6414 74.166296,119.01674 C 61.870089,133.87408 54.005414,152.49188 51.67839,172.25188 C 51.021768,177.82731 51.024411,190.38911 51.683291,195.73271 C 52.978667,206.23837 55.368305,214.99927 59.603635,224.77007 C 61.900553,230.06908 65.830545,236.96578 69.376361,241.92022 C 70.272577,243.17248 71.247835,244.54456 71.543573,244.96929 C 72.537024,246.39596 79.872755,254.53298 81.296125,255.78713 C 91.282972,264.58665 97.422284,268.83685 106.1112,272.96638 C 116.87076,278.08009 129.57062,281.52822 140.37288,282.26881 C 143.80925,282.50437 155.4888,282.18684 158.65566,281.77172 z M 138.35127,278.18643 C 134.14512,277.74428 127.03132,276.47471 123.8959,275.60667 C 122.4098,275.19522 120.54861,274.69579 119.75994,274.49681 C 118.97127,274.29783 117.84204,273.94056 117.25054,273.70288 C 116.65904,273.46519 115.20717,272.91679 114.02416,272.48421 C 108.04372,270.29743 97.658133,264.50539 91.798029,260.08873 C 83.014336,253.46863 74.018388,243.58737 68.562281,234.56621 C 60.901281,221.89952 56.691372,209.53423 54.730676,193.94029 C 54.544703,192.46155 54.443668,187.21867 54.506078,182.28948 C 54.673301,169.0822 56.038138,161.63301 60.515942,149.48803 C 68.15908,128.7579 82.610012,111.30081 101.29791,100.22239 C 104.82248,98.13298 106.03309,97.51451 111.51476,95.00278 C 118.6334,91.74101 128.30539,89.09481 137.86348,87.79397 C 144.23901,86.92628 156.17888,87.20838 163.85371,88.40801 C 175.71773,90.26248 189.66548,95.76499 200.09004,102.70354 C 210.56786,109.67758 220.27541,119.73622 226.97085,130.55661 C 240.00324,151.61806 244.36925,174.54624 240.06434,199.31758 C 237.9748,211.34128 231.95854,225.91376 224.83991,236.19399 C 223.83009,237.65229 222.76686,239.18718 222.47713,239.60484 C 221.03028,241.69063 217.45348,245.8708 214.19818,249.28034 C 201.98897,262.06813 185.31124,271.87557 169.00698,275.85532 C 161.60926,277.66105 157.14002,278.22001 148.97654,278.36051 C 144.73745,278.43347 139.95607,278.35513 138.35127,278.18643 z M 159.01415,274.07725 C 195.94056,268.40399 225.84604,240.78335 235.17782,203.73261 C 237.08041,196.17859 237.80696,189.93762 237.79943,181.21405 C 237.78652,166.30786 234.68053,153.43457 227.7662,139.62969 C 225.66653,135.43755 220.12273,126.58483 218.89876,125.46949 C 218.79057,125.37091 217.98537,124.40297 217.10941,123.31856 C 209.32481,113.68142 199.49979,105.72418 188.76848,100.36538 C 176.45868,94.21834 164.15283,91.21143 149.87276,90.86133 C 138.49785,90.58242 128.12557,92.35286 117.25054,96.42953 C 101.5301,102.32256 90.127283,110.4678 78.854786,123.85629 C 71.258149,132.87895 64.313396,146.27081 61.008007,158.27095 C 54.869931,180.5552 57.178259,205.19711 67.272188,225.14192 C 74.948044,240.30881 86.841045,253.33682 100.76019,261.82593 C 112.00474,268.68381 123.47493,272.69901 136.78802,274.4377 C 141.64239,275.07167 153.82793,274.87405 159.01415,274.07725 z M 142.16531,271.15615 C 138.30918,270.82333 133.27127,270.22554 131.94846,269.94388 C 131.15979,269.77595 129.5466,269.45251 128.3636,269.22509 C 119.65283,267.55069 106.62412,261.87389 98.430031,256.1826 C 92.882639,252.3296 85.87553,245.89094 81.215098,240.36422 C 77.45481,235.90492 72.855039,228.77851 70.143835,223.21148 C 67.891977,218.58766 64.319808,208.94968 63.878874,206.30807 C 63.78014,205.71657 63.531211,204.665 63.325711,203.97128 C 63.120203,203.27756 62.892784,202.22898 62.820293,201.64112 C 62.74785,201.05327 62.514331,199.92703 62.301387,199.13834 C 62.088442,198.34966 61.734418,195.92988 61.514655,193.76105 C 59.447482,173.35792 63.724826,153.72277 73.900479,136.90383 C 86.227128,116.52967 105.17031,102.46167 127.64663,96.98977 C 143.80997,93.05479 160.00221,93.77747 176.15547,99.15473 C 194.17828,105.15436 209.99579,117.77029 220.38467,134.43164 C 231.08075,151.58566 235.64733,171.63428 233.40852,191.61015 C 232.48204,199.87633 229.95963,209.69273 227.14454,215.98719 C 224.77928,221.27583 222.84694,225.23089 222.03364,226.44788 C 221.48287,227.27206 221.03222,228.0445 221.03222,228.16443 C 221.03222,228.54409 216.84818,234.62213 216.2385,235.12811 C 215.91755,235.3945 215.65492,235.76362 215.65492,235.94838 C 215.65492,236.45235 210.80615,242.13772 207.92668,245.01003 C 199.63401,253.28212 192.93064,258.0065 182.20901,263.13522 C 173.74996,267.18164 164.75007,269.74834 155.26732,270.81876 C 152.99901,271.07478 143.92888,271.30835 142.16531,271.15615 z M 150.80109,267.40449 C 164.07206,267.08533 179.96149,261.74435 192.36596,253.43319 C 206.2926,244.10212 217.7259,230.02925 224.05966,214.42252 C 225.10451,211.84797 226.0865,209.85625 226.24191,209.99646 C 226.39731,210.13667 226.41556,210.06133 226.28246,209.82901 C 226.14938,209.59668 226.51493,207.74152 227.09483,205.70642 C 229.32144,197.89217 230.61656,188.6868 230.49018,181.57253 C 230.41883,177.55595 230.01396,170.60686 229.83344,170.30068 C 229.76866,170.19085 229.60917,169.17311 229.47899,168.03905 C 228.69649,161.22209 224.55752,148.99342 220.48073,141.4534 C 219.60089,139.82615 218.96174,138.38716 219.0604,138.25562 C 219.15905,138.12409 219.13876,138.09063 219.01526,138.18126 C 218.89177,138.27188 218.14407,137.34431 217.35368,136.11997 C 209.78071,124.38897 199.95184,115.11849 187.75479,108.20256 C 182.87024,105.43293 180.83307,104.55421 174.10597,102.31516 C 165.32328,99.39195 157.19641,98.16197 147.36336,98.26776 C 128.13568,98.47463 111.05181,104.62199 96.089429,116.71781 C 85.318501,125.42524 76.074491,138.1038 70.889519,151.28048 C 65.699874,164.46915 63.6622,179.47184 65.240069,192.87514 C 67.194542,209.47739 72.820002,223.13984 83.376304,236.92213 C 85.507106,239.70408 92.521821,246.74301 95.73787,249.32637 C 108.05394,259.21946 123.17054,265.55304 138.04272,267.05135 C 141.68171,267.41797 147.09825,267.69805 147.55927,267.54344 C 147.66703,267.50731 149.12585,267.44477 150.80109,267.40449 z M 140.37288,263.63449 C 133.41191,262.80437 126.99178,261.43061 122.0901,259.72246 C 106.34382,254.23509 93.762789,244.81909 83.53188,230.86434 C 75.918513,220.47984 70.65809,206.55085 69.021519,192.44247 C 68.474619,187.72782 68.755672,175.44721 69.516423,170.81796 C 71.034023,161.58286 73.764692,153.27491 77.882074,145.36545 C 78.395279,144.37962 79.064941,143.08907 79.370231,142.49756 C 84.358635,132.83238 97.164781,119.38495 106.59405,113.91046 C 117.3103,107.68878 123.87299,105.11788 133.74089,103.27586 C 148.73191,100.47754 162.87457,101.80154 177.29693,107.35345 C 181.7684,109.07477 184.77226,110.61551 190.14761,113.94498 C 209.61902,126.00543 223.05691,147.08547 226.28819,170.63871 C 227.2974,177.99502 226.9811,191.72593 225.68537,196.80818 C 225.50942,197.49827 225.26883,198.62749 225.15075,199.31758 C 224.21109,204.80898 221.39446,212.66995 217.89352,219.57204 C 209.9128,235.30592 196.26653,248.68215 180.80841,255.92329 C 172.49924,259.81561 167.80394,261.34833 159.73112,262.80357 C 156.0936,263.45929 143.45346,264.00183 140.37288,263.63449 z M 156.58204,259.71332 C 164.82987,258.59835 171.79091,256.53998 178.87524,253.1213 C 191.19898,247.17422 198.32249,241.34147 208.2467,229.07191 C 208.48592,228.77616 209.5816,227.16298 210.68151,225.48707 C 214.732,219.31543 217.46779,213.56042 219.88392,206.12881 C 222.76277,197.27407 223.65443,191.5835 223.67551,181.93102 C 223.70416,168.79816 221.13803,158.1372 215.0897,146.26167 C 207.99361,132.32891 196.35135,120.63163 182.85346,113.87305 C 173.67576,109.27766 166.25338,107.11489 155.60853,105.93428 C 153.13444,105.65987 144.09909,105.64375 141.9552,105.9099 C 130.82149,107.29208 124.57871,109.04669 115.76906,113.26984 C 93.6351,123.88039 77.831611,145.27273 73.520569,170.45946 C 71.990795,179.39684 72.20306,190.66092 74.065457,199.37588 C 78.938394,222.17862 93.09604,241.14357 113.30719,251.94233 C 118.06444,254.48412 127.12758,257.78205 131.78865,258.66745 C 140.58905,260.33914 149.25014,260.70449 156.58204,259.71332 z M 143.42001,256.623 C 133.81868,256.10615 123.15789,253.1408 114.92038,248.69573 C 111.76445,246.99276 105.24417,242.70626 103.44883,241.15428 C 95.573284,234.34617 89.844609,227.5431 86.029788,220.46825 C 85.657682,219.77817 85.175588,218.97157 84.958436,218.67582 C 84.214882,217.66305 80.579471,208.80445 79.630131,205.69205 C 75.593006,192.4564 75.401073,176.48846 79.124733,163.64824 C 79.941756,160.83085 81.570474,156.13473 82.481637,153.96911 C 84.462241,149.26158 88.973385,141.42717 91.374705,138.52464 C 91.687479,138.14657 92.848436,136.70801 93.954574,135.32786 C 97.561522,130.82732 102.41087,126.38075 108.43067,122.05411 C 114.26622,117.85987 123.67643,113.55566 130.69376,111.87099 C 145.88844,108.22311 158.19372,108.64987 172.06554,113.30578 C 183.62044,117.18402 194.34053,124.25959 201.88179,132.98527 C 213.62862,146.57707 219.95585,162.52403 220.4638,179.81852 C 220.82232,192.02625 218.14461,204.3534 212.72409,215.44944 C 209.47581,222.09872 203.2264,231.20143 202.3019,230.63006 C 202.08225,230.49433 202.02669,230.56496 202.17033,230.79738 C 202.73269,231.70731 194.11996,239.93059 188.68309,243.6748 C 174.89163,253.17249 159.75564,257.50238 143.42001,256.623 z M 155.78778,252.8908 C 164.66403,251.82278 171.8445,249.52993 180.34406,245.04947 C 190.57959,239.65393 198.98927,231.93421 206.01642,221.48334 C 208.06821,218.43188 211.22676,212.42234 212.29666,209.53445 C 216.10253,199.26146 217.47148,192.27564 217.53013,182.82723 C 217.63552,165.84646 212.03719,150.12882 201.22221,137.04192 C 199.80457,135.32647 195.10827,130.6834 192.89107,128.80521 C 179.31854,117.30792 161.0568,111.81737 142.47214,113.64632 C 129.83823,114.88965 117.05545,120.12051 107.34884,128.01913 C 106.04341,129.08144 104.56669,130.27321 104.06726,130.66754 C 103.5678,131.06186 101.51462,133.15901 99.504584,135.32786 C 92.903569,142.45039 87.220137,152.12182 84.231329,161.31808 C 81.677438,169.17621 80.797429,174.92802 80.775893,183.90269 C 80.724704,205.26221 90.324161,225.32628 107.03481,238.78689 C 110.69835,241.73796 114.3619,244.01743 119.40145,246.48158 C 131.07684,252.19031 143.46869,254.37307 155.78778,252.8908 z M 141.44834,249.34789 C 132.61266,248.20234 123.48507,245.03558 116.3544,240.6417 C 113.10257,238.63794 107.77006,234.55837 107.50714,233.87323 C 107.40257,233.60076 107.19278,233.45466 107.04093,233.54851 C 106.57192,233.83836 100.78331,227.56191 97.739615,223.46331 C 93.657146,217.96594 87.559332,205.37329 88.187325,203.73678 C 88.287745,203.47506 88.239489,203.26092 88.080082,203.26092 C 87.598007,203.26092 86.184902,198.01951 85.712162,194.47803 C 85.580566,193.49219 85.37598,192.12098 85.257469,191.4309 C 84.830184,188.94227 85.075928,177.98357 85.647353,174.04434 C 86.746693,166.46595 89.81916,157.27937 93.28339,151.21274 C 97.152776,144.43656 100.16524,140.52848 105.76881,135.01535 C 123.21997,117.84585 150.45487,112.353 173.39646,121.37589 C 181.97288,124.74898 188.29162,128.81076 194.91063,135.20555 C 207.47159,147.34098 214.57946,164.33369 214.57946,182.22754 C 214.57946,202.42018 206.60631,220.14245 191.48014,233.57136 C 182.57979,241.47302 171.51416,246.78861 159.38887,248.98695 C 155.09271,249.76588 146.07198,249.94736 141.44834,249.34789 z M 161.94552,245.23 C 173.93204,242.64813 184.7468,236.74337 193.45489,228.02615 C 203.62159,217.8488 210.07588,204.42861 211.73068,190.02585 C 212.15019,186.37467 212.03124,175.98534 211.54356,173.68584 C 211.41813,173.09433 210.98593,170.99719 210.5831,169.02551 C 209.18486,162.1814 205.81395,154.37717 201.26408,147.45031 C 197.67582,141.98742 190.49925,134.87871 184.82513,131.16675 C 176.6756,125.83541 168.1421,122.64464 158.59038,121.35724 C 155.81455,120.98312 146.87671,121.08687 143.24077,121.53543 C 132.53018,122.85678 121.03787,127.8348 112.70486,134.76237 C 107.83157,138.81373 102.08311,145.38018 98.872048,150.5635 C 96.308119,154.70221 93.405235,161.57398 91.678735,167.59157 C 89.615788,174.78204 89.076805,185.69364 90.359587,194.29878 C 91.80309,203.98254 97.015838,215.76004 103.37021,223.69463 C 105.60033,226.47931 111.40237,232.08216 114.20341,234.15584 C 121.91581,239.86553 129.81084,243.42819 138.58045,245.15595 C 143.77326,246.17902 144.33487,246.21859 151.84443,246.09042 C 156.87954,246.00448 159.31173,245.79731 161.94552,245.23 z M 146.2879,242.8028 C 143.06726,242.51184 136.78788,241.10897 133.05339,239.84608 C 112.54567,232.91108 97.752919,214.59503 94.673128,192.32447 C 92.264144,174.90486 97.949874,156.66175 109.80532,143.77143 C 121.98969,130.52352 138.94514,123.76455 156.62746,125.1067 C 176.20623,126.59283 193.19947,137.75128 202.74047,155.3865 C 205.59918,160.67041 208.39992,169.77414 209.19447,176.36507 C 210.69251,188.79178 207.52325,203.32014 200.94216,214.19476 C 198.18856,218.74483 196.48801,220.93691 192.35334,225.2661 C 184.58007,233.40513 173.7737,239.35324 162.06128,241.93967 C 157.87151,242.8649 151.08551,243.23623 146.2879,242.8028 z M 159.481,239.05913 C 168.88796,237.52339 176.03796,234.63596 183.47128,229.37104 C 195.04012,221.17692 202.81364,209.10975 206.06435,194.29878 C 206.67134,191.53326 206.81749,189.57926 206.84194,183.90269 C 206.87636,175.90129 206.34977,172.20265 204.28995,165.97841 C 201.43551,157.35304 197.4708,151.00427 190.74585,144.29 C 185.59384,139.14617 180.9546,135.99934 174.42904,133.22217 C 173.14746,132.67677 171.77625,132.08863 171.38191,131.91524 C 170.07498,131.34055 165.33662,130.17176 161.88204,129.57195 C 155.60029,128.48129 146.09754,128.89913 140.19364,130.52563 C 131.36502,132.95786 124.8546,136.37996 118.326,142.01992 C 112.4721,147.07699 108.42709,152.2949 104.89424,159.34641 C 98.686134,171.7376 97.34761,185.20782 100.93993,199.14029 C 102.04205,203.4148 102.31415,204.13318 104.75096,209.20283 C 112.39284,225.10131 127.1782,236.0686 144.85395,238.9499 C 148.03294,239.46811 156.58465,239.53196 159.481,239.05913 z M 147.86836,235.8618 C 145.0195,235.54004 137.82282,233.65819 135.24495,232.56096 C 129.43178,230.0867 125.59763,227.68609 121.07089,223.68646 C 114.08418,217.51332 109.15958,209.85159 106.21419,200.57229 C 104.35397,194.71176 104.03771,192.60986 103.9488,185.51588 C 103.82714,175.81084 105.15784,169.85023 109.31793,161.46573 C 112.34054,155.37385 114.56347,152.28765 119.37058,147.50919 C 125.20681,141.70776 130.96933,138.15451 138.77751,135.5425 C 144.26123,133.70809 148.97034,132.95076 154.75171,132.97346 C 161.2654,132.99903 164.41169,133.48985 170.30645,135.39993 C 185.2371,140.23792 197.1293,152.2038 202.18399,167.47494 C 204.00177,172.96677 204.67543,177.40674 204.64934,183.72345 C 204.62227,190.27861 203.91759,194.73932 201.98772,200.57229 C 199.32456,208.62132 195.33852,215.02461 189.14858,221.1973 C 181.83834,228.48721 172.29981,233.54326 162.4103,235.3704 C 158.85265,236.0277 151.52828,236.27521 147.86836,235.8618 z M 161.34431,232.47556 C 167.68578,231.7482 175.3572,228.75092 181.41952,224.63202 C 191.28397,217.92981 198.78874,206.8437 201.46827,195.01576 C 202.27781,191.44218 202.36843,190.80179 202.6093,186.94982 C 203.2854,176.13733 199.84071,164.50938 193.321,155.59605 C 191.80174,153.51897 186.01047,147.57458 184.46665,146.50759 C 178.70313,142.52411 175.06138,140.63794 169.94797,138.98778 C 165.01416,137.39562 163.12003,137.13771 156.3255,137.13293 C 150.87132,137.12912 149.29326,137.2575 146.12801,137.96256 C 127.95912,142.00969 114.03048,156.24789 109.8577,175.03896 C 108.76958,179.93891 108.61547,189.00781 109.54259,193.58181 C 110.29165,197.2774 110.95904,199.76536 111.80237,202.00621 C 119.63874,222.82799 139.41497,234.99078 161.34431,232.47556 z M 149.33503,228.91943 C 144.2531,227.98038 136.23524,224.67015 133.02392,222.18531 C 125.60692,216.44615 122.24134,212.53079 118.86548,205.71402 C 116.54371,201.02573 115.38824,197.43078 114.54135,192.26057 C 114.04105,189.20611 114.06905,181.36466 114.59151,178.21302 C 115.00014,175.74797 116.14909,171.34958 116.71051,170.10099 C 116.88782,169.70664 117.39648,168.49675 117.84089,167.41232 C 120.31706,161.36989 124.9877,155.24872 130.48953,150.83544 C 137.13762,145.50266 144.02191,142.5602 152.60714,141.38203 C 156.48908,140.8493 157.62394,140.82938 161.70279,141.22243 C 166.65491,141.69959 172.56334,143.3425 176.60315,145.3656 C 182.20306,148.17002 188.55966,153.5102 192.13545,158.41424 C 195.64388,163.22597 198.00404,168.3684 199.55586,174.58205 C 200.30173,177.56868 200.40629,178.82565 200.40565,184.7989 C 200.40504,190.75447 200.30241,191.99295 199.58848,194.65728 C 197.07757,204.02825 193.38639,210.57196 187.12891,216.74556 C 180.38747,223.39668 172.84102,227.37791 164.07905,228.90586 C 160.51154,229.52799 152.66744,229.53521 149.33503,228.91943 z M 166.13852,225.45878 C 172.44479,224.16531 179.08416,221.00063 183.73899,217.06942 C 195.30913,207.29792 200.62235,192.65021 198.04523,177.62916 C 197.53679,174.66569 196.0318,169.84346 194.96846,167.77083 C 194.71558,167.27791 194.50766,166.74681 194.50648,166.59062 C 194.50526,166.43441 194.34405,166.11177 194.14821,165.87364 C 193.95236,165.63549 192.97409,164.19239 191.97428,162.66675 C 190.29405,160.10291 186.51368,155.92167 183.91537,153.75329 C 177.05703,148.0297 167.22681,144.86098 157.73941,145.31564 C 152.89616,145.54772 150.0164,146.12262 145.6708,147.72487 C 132.32849,152.64433 122.24952,165.0678 120.10111,179.24237 C 116.77178,201.20823 130.63178,221.60083 151.49344,225.43087 C 156.2584,226.30566 161.95667,226.31653 166.13852,225.45878 z M 154.7325,222.57911 C 148.87437,221.58092 142.24844,218.38039 137.24581,214.13254 C 132.67009,210.24719 128.15188,202.97758 126.14418,196.27046 C 125.24256,193.25841 125.17838,192.59162 125.17838,186.23285 C 125.17838,179.81953 125.23606,179.23312 126.16587,176.19524 C 130.69519,161.39647 142.54158,151.26655 157.40096,149.48588 C 175.55838,147.31001 192.61256,159.73012 196.29769,177.81336 C 197.18519,182.16843 197.25506,188.8337 196.4547,192.79032 C 193.42019,207.79141 181.65268,219.67096 167.10227,222.42226 C 164.18463,222.97396 157.54386,223.05815 154.7325,222.57911 z M 172.69325,218.18054 C 178.0253,216.3656 181.2482,214.37278 185.21778,210.43621 C 187.10966,208.56004 189.27341,206.05712 190.02612,204.87412 C 198.42304,191.67692 197.1815,174.87221 186.9877,163.74744 C 175.8717,151.61627 157.36239,149.89676 144.13698,159.76657 C 135.27166,166.38257 130.57969,175.86569 130.68749,186.94982 C 130.73549,191.88334 130.84389,192.68248 131.96273,196.35054 C 133.29475,200.71759 135.7236,205.18288 138.612,208.57468 C 147.05993,218.4951 160.57664,222.30483 172.69325,218.18054 z M 159.19339,215.99989 C 151.81769,214.44047 145.18297,209.97575 141.27168,203.93981 C 128.30438,183.92855 142.13326,157.62895 165.64614,157.58477 C 173.59696,157.56982 179.84845,160.23426 185.72135,166.14109 C 189.6391,170.08144 191.75538,173.84243 193.31946,179.64425 C 194.198,182.90309 194.18248,190.3827 193.29021,193.76105 C 191.54302,200.37625 187.43595,206.66996 182.27458,210.64156 C 179.76299,212.5742 175.82692,214.57617 173.4588,215.1255 C 172.51369,215.34475 170.9556,215.7493 169.99644,216.02451 C 167.86007,216.63748 162.14742,216.62447 159.19339,215.99989 z M 175.17,212.11758 C 176.46478,211.62896 178.19895,210.88489 179.02372,210.46414 C 179.84849,210.04337 180.5233,209.81388 180.5233,209.95416 C 180.5233,210.09442 180.72495,209.96455 180.97141,209.66555 C 181.21787,209.36653 182.36359,208.33409 183.51745,207.37126 C 186.89033,204.55673 189.42368,200.90233 191.21289,196.27046 C 193.09637,191.39446 193.20639,183.6402 191.45953,178.88388 C 189.78006,174.31095 188.52898,172.30051 185.29515,168.97779 C 176.54572,159.98796 162.14975,159.35699 151.75087,167.50761 C 143.20632,174.20474 139.90068,186.42398 143.81223,196.85268 C 147.2196,205.93715 155.14422,212.25646 164.39144,213.26315 C 167.66836,213.61988 172.56957,213.09897 175.17,212.11758 z M 165.61201,209.88368 C 161.05884,208.92344 157.76242,207.10076 154.34053,203.65148 C 150.2724,199.5508 148.21605,194.47395 148.22548,188.55432 C 148.23616,181.82153 150.6929,176.12503 155.55214,171.56571 C 159.40307,167.95246 165.22495,165.92947 171.20267,166.12746 C 174.66661,166.24219 176.54705,166.73415 180.34406,168.51902 C 182.98313,169.75957 187.62846,174.53673 189.04061,177.46232 C 192.04877,183.69453 192.35517,190.04204 189.93962,196.08567 C 185.94149,206.08876 175.55376,211.98039 165.61201,209.88368 z M 177.7716,206.36953 C 182.58786,204.62131 185.9895,201.7472 188.17382,197.58051 C 190.07846,193.94728 190.68308,191.17242 190.43196,187.21648 C 189.83623,177.83128 182.98388,170.85353 173.89131,170.37316 C 166.3754,169.97605 159.76471,173.80903 156.49069,180.4623 C 150.3674,192.90577 158.7878,207.09183 172.35144,207.18323 C 174.75978,207.19948 175.99667,207.01378 177.7716,206.36953 z M 171.7404,203.83954 C 164.4071,202.0562 159.38852,194.39312 160.79765,187.13062 C 161.75018,182.22128 164.59728,178.35346 168.84591,176.19699 C 173.33312,173.91942 178.19418,174.00057 182.53932,176.42563 C 187.67815,179.29366 190.54869,185.54594 189.49438,191.57436 C 187.96881,200.29754 179.95137,205.8363 171.7404,203.83954 z M 181.69426,200.54536 C 184.07149,199.73536 186.38903,197.53965 187.71969,194.8367 C 188.68004,192.88591 188.84814,192.14552 188.84814,189.86635 C 188.84814,187.69652 188.669,186.82548 187.90413,185.2766 C 186.72414,182.88717 185.91278,181.49135 185.90586,181.83902 C 185.90296,181.98561 185.18738,181.5611 184.31569,180.89572 C 181.36782,178.64561 176.94439,178.31084 173.49243,180.07663 C 166.96296,183.4167 165.24761,191.93668 169.98937,197.47634 C 171.17933,198.86656 173.21575,200.22759 174.96677,200.80296 C 176.32844,201.25039 180.04246,201.10818 181.69426,200.54536 z M 179.5323,197.87697 C 175.29099,196.92241 172.81413,191.89705 174.56462,187.79792 C 175.07202,186.60966 178.29058,183.34291 178.62473,183.67703 C 178.70252,183.75486 179.41447,183.67288 180.2068,183.49485 C 184.53451,182.5225 188.92109,186.89039 188.29614,191.54976 C 187.75242,195.60333 183.39811,198.74703 179.5323,197.87697 z M 186.64513,193.96785 C 189.68448,190.92854 185.64962,185.8752 182.21321,188.41727 C 180.53044,189.66209 180.1152,191.39426 181.06103,193.22331 C 181.75094,194.55748 182.52154,194.99131 184.22535,195.00485 C 185.27238,195.01316 185.84539,194.76762 186.64513,193.96785 z M 107.88029,147.51637 C 107.99379,147.22062 107.93041,146.97863 107.7394,146.97863 C 107.54844,146.97863 107.39217,147.22062 107.39217,147.51637 C 107.39217,147.81212 107.45559,148.0541 107.53306,148.0541 C 107.61057,148.0541 107.76679,147.81212 107.88029,147.51637 z M 224.25859,271.37326 C 224.25859,271.17607 224.1068,271.01477 223.92126,271.01477 C 223.73575,271.01477 223.48422,271.17607 223.36237,271.37326 C 223.24052,271.5704 223.3923,271.73174 223.6997,271.73174 C 224.00707,271.73174 224.25859,271.5704 224.25859,271.37326 z M 303.48398,280.31423 C 303.48398,280.10544 303.32265,280.03431 303.12549,280.15615 C 302.92833,280.27802 302.76702,280.44885 302.76702,280.5358 C 302.76702,280.62275 302.92833,280.69389 303.12549,280.69389 C 303.32265,280.69389 303.48398,280.52304 303.48398,280.31423 z M 16.59608,183.09611 C 16.51657,182.4553 16.4515,182.97958 16.4515,184.26117 C 16.4515,185.54278 16.51657,186.06705 16.59608,185.42625 C 16.67561,184.78546 16.67561,183.7369 16.59608,183.09611 z M 26.28877,134.96936 C 26.49266,134.37786 26.78042,133.57126 26.92819,133.17692 C 27.1093,132.69364 27.07837,132.5768 26.83325,132.81844 C 26.63325,133.0156 26.20441,133.97728 25.88022,134.95549 C 25.55604,135.93368 25.43193,136.57896 25.60441,136.38942 C 25.7769,136.19988 26.08486,135.56086 26.28877,134.96936 z M 16.10553,203.08168 C 16.10661,201.30717 16.16813,200.62646 16.24222,201.56893 C 16.31628,202.51143 16.31543,203.9633 16.24021,204.79531 C 16.16503,205.62732 16.10441,204.85618 16.10553,203.08168 z M 15.71019,195.55349 C 15.70621,194.76482 15.77636,194.39997 15.86609,194.74271 C 15.95582,195.08546 15.9591,195.73074 15.87334,196.17665 C 15.78758,196.62257 15.71417,196.34214 15.71019,195.55349 z M 28.89473,126.00722 C 28.89473,125.81004 29.0511,125.40674 29.24223,125.11099 C 29.43341,124.81525 29.58977,124.73459 29.58977,124.93177 C 29.58977,125.12891 29.43341,125.53221 29.24223,125.82796 C 29.0511,126.12371 28.89473,126.20437 28.89473,126.00722 z M 29.98462,123.13932 C 29.98462,122.94217 30.21518,122.37754 30.49694,121.88461 C 30.77871,121.39169 31.00928,121.14973 31.00928,121.34691 C 31.00928,121.54406 30.77871,122.10867 30.49694,122.6016 C 30.21518,123.09453 29.98462,123.33651 29.98462,123.13932 z M 32.1211,118.47901 C 32.1211,118.28184 32.27748,117.87855 32.46862,117.58278 C 32.65977,117.28706 32.81613,117.20639 32.81613,117.40356 C 32.81613,117.60071 32.65977,118.00404 32.46862,118.29976 C 32.27748,118.59552 32.1211,118.67618 32.1211,118.47901 z M 36.5912,109.33761 C 37.4824,107.56311 38.29226,106.11124 38.39085,106.11124 C 38.48942,106.11124 37.84089,107.56311 36.9497,109.33761 C 36.05849,111.11211 35.24864,112.56399 35.15007,112.56399 C 35.05148,112.56399 35.70001,111.11211 36.5912,109.33761 z M 39.27984,104.31882 C 39.4909,103.9245 39.74423,103.60184 39.84283,103.60184 C 39.94141,103.60184 39.84938,103.9245 39.63834,104.31882 C 39.42729,104.71315 39.17395,105.0358 39.07536,105.0358 C 38.97678,105.0358 39.06881,104.71315 39.27984,104.31882 z M 40.355309,102.52638 C 40.566342,102.13205 40.819679,101.80941 40.918289,101.80941 C 41.016861,101.80941 40.924844,102.13205 40.713792,102.52638 C 40.502759,102.92072 40.249422,103.24335 40.150831,103.24335 C 40.052231,103.24335 40.144257,102.92072 40.355309,102.52638 z M 41.430766,100.73395 C 41.641809,100.33961 41.895145,100.01697 41.993746,100.01697 C 42.092318,100.01697 42.000301,100.33961 41.789249,100.73395 C 41.578216,101.12828 41.32487,101.45092 41.226298,101.45092 C 41.127716,101.45092 41.219724,101.12828 41.430766,100.73395 z M 42.444207,99.0744 C 42.646567,98.70556 43.073782,98.08117 43.393504,97.68682 C 43.933133,97.02131 43.935223,97.05182 43.422337,98.1122 C 43.118441,98.7405 42.691236,99.36489 42.473002,99.49978 C 42.188847,99.67539 42.180687,99.55463 42.444207,99.0744 z "
       id="path2161" />
  </g>
</svg>
