<?xml version="1.0" encoding="UTF-8" ?>
<!DOCTYPE svg PUBLIC "-//W3C//DTD SVG 1.1//EN" "http://www.w3.org/Graphics/SVG/1.1/DTD/svg11.dtd">
<svg width="1680px" height="1504px" viewBox="0 0 603 540" version="1.1" xmlns="http://www.w3.org/2000/svg">
<path fill="#fcfcfc" d=" M 0.00 0.00 L 603.00 0.00 L 603.00 540.00 L 0.00 540.00 L 0.00 0.00 Z" />
<path fill="#383838" d=" M 54.16 32.82 C 56.83 29.85 58.90 25.93 62.98 24.65 C 66.45 24.07 69.95 24.93 73.33 25.67 C 74.03 26.54 74.72 27.41 75.42 28.28 C 76.45 33.50 78.08 38.76 76.73 44.09 C 75.93 46.87 79.40 46.40 81.00 46.81 C 82.92 46.89 84.08 48.51 85.35 49.70 C 87.89 52.31 91.28 53.89 93.78 56.57 C 102.01 64.88 111.55 71.70 120.57 79.10 C 123.86 81.37 126.58 84.43 130.19 86.24 C 130.37 86.71 130.73 87.65 130.91 88.12 C 134.33 90.32 137.69 92.62 140.70 95.38 C 143.28 97.82 147.42 97.63 149.60 100.54 C 152.14 103.82 155.55 106.17 158.94 108.48 C 162.24 110.49 162.42 115.07 165.54 117.27 C 168.14 119.06 170.99 120.51 173.32 122.69 C 179.21 127.48 185.61 131.65 191.20 136.82 C 194.29 139.18 197.40 141.54 199.88 144.57 C 202.68 146.19 205.77 147.45 208.06 149.82 C 211.15 152.37 213.07 156.29 216.83 157.98 C 220.64 159.80 223.08 163.36 226.32 165.92 C 231.36 169.63 236.74 172.92 241.19 177.36 C 246.53 180.47 249.98 185.76 255.00 189.26 C 259.06 191.87 262.38 195.40 266.18 198.35 C 269.68 201.21 272.30 205.07 276.18 207.45 C 279.60 209.67 281.65 213.45 285.16 215.54 C 289.54 218.12 292.85 222.11 297.16 224.82 C 304.64 231.52 312.32 238.01 320.21 244.25 C 326.36 247.89 330.57 253.95 336.89 257.35 C 340.55 260.85 343.67 265.01 347.91 267.88 C 349.89 269.28 352.38 270.09 353.83 272.16 C 358.69 278.83 365.94 283.07 371.77 288.79 C 377.03 294.09 382.92 298.71 388.97 303.06 C 393.00 307.24 397.75 310.61 401.90 314.67 C 410.09 313.13 416.34 307.01 423.87 303.78 C 431.05 299.94 437.86 295.42 445.15 291.77 C 451.58 287.75 458.62 284.74 465.99 282.96 C 474.67 280.66 482.36 275.87 490.88 273.12 C 495.23 271.95 498.79 269.00 503.04 267.57 C 506.52 266.31 509.96 264.91 513.46 263.69 C 517.50 262.37 522.03 261.99 525.37 259.10 C 532.16 255.24 539.89 253.39 546.75 249.64 C 550.51 247.88 554.70 247.29 558.33 245.24 C 562.89 242.73 568.29 242.39 573.32 243.38 C 573.70 244.11 574.45 245.55 574.83 246.28 C 572.89 249.10 569.22 247.60 566.75 249.43 C 568.87 249.91 571.01 249.57 572.93 248.56 C 573.41 250.06 573.52 251.59 573.27 253.15 C 571.86 253.18 570.46 253.23 569.07 253.30 L 569.07 253.74 C 569.83 253.73 571.36 253.71 572.13 253.70 L 571.42 256.44 C 565.63 257.61 560.00 259.42 554.16 260.28 C 547.84 263.03 540.80 262.77 534.26 264.82 C 534.27 264.50 534.29 263.87 534.30 263.56 C 533.01 266.20 529.82 265.03 527.53 265.70 C 524.80 266.66 522.07 267.70 519.16 267.86 C 518.19 266.58 516.74 266.20 515.16 266.53 C 514.87 266.84 514.29 267.47 514.00 267.78 C 510.86 268.85 507.89 270.34 504.80 271.51 C 505.93 271.50 507.07 271.49 508.22 271.48 C 509.06 270.86 509.92 270.25 510.79 269.66 C 512.18 269.76 513.40 269.13 514.64 268.60 C 522.41 267.76 530.67 268.29 538.11 265.21 C 544.18 263.52 550.34 261.61 556.72 262.02 C 557.29 265.51 552.17 264.81 550.09 266.13 C 543.45 266.96 536.99 270.43 530.19 268.70 C 528.20 270.38 525.46 270.36 523.05 270.86 C 519.77 271.35 516.59 272.38 513.30 272.77 C 513.04 273.24 512.53 274.17 512.27 274.64 C 514.81 274.52 517.50 275.01 519.94 274.01 C 526.79 271.67 534.02 270.96 541.10 269.64 C 543.87 268.33 547.07 268.55 549.91 267.39 C 556.76 267.79 563.20 265.22 569.86 264.10 C 569.90 265.41 569.71 267.54 567.96 267.54 C 562.51 267.56 557.37 269.40 552.13 270.59 C 545.65 271.60 539.58 274.24 533.10 275.17 C 522.59 275.32 512.22 277.69 502.13 280.43 C 500.97 281.40 498.49 280.22 499.27 278.68 C 499.47 276.75 501.53 276.76 503.03 276.64 C 506.26 276.39 509.41 275.61 512.60 275.05 C 512.00 274.51 511.40 273.99 510.80 273.47 C 502.94 275.76 494.92 277.54 487.13 280.04 C 485.99 280.26 487.17 281.72 486.40 282.33 C 485.48 284.15 483.89 285.22 481.84 285.26 C 480.53 285.49 479.25 285.75 477.97 286.08 C 473.22 286.76 468.64 288.19 464.08 289.62 C 469.11 289.18 474.10 288.33 479.05 287.29 C 481.35 286.75 483.56 287.86 485.41 289.13 C 482.83 290.55 479.93 291.07 477.05 291.38 C 471.29 292.05 465.77 293.91 460.17 295.33 C 458.70 295.66 457.40 296.44 456.11 297.16 C 446.65 297.50 438.77 303.29 429.94 305.87 C 430.62 306.05 431.29 306.21 431.99 306.39 C 436.29 303.72 441.33 302.81 446.11 301.37 C 453.29 299.87 459.88 296.26 467.18 295.25 C 473.47 294.28 479.65 292.55 486.06 292.47 C 488.56 292.03 492.09 292.21 493.30 289.43 C 490.66 289.19 486.95 290.46 485.24 287.77 C 485.01 285.82 487.41 285.73 488.81 285.60 C 491.48 285.53 493.91 284.39 496.42 283.58 C 505.27 281.65 514.09 279.56 522.95 277.60 C 523.54 278.29 524.12 278.98 524.72 279.67 C 524.50 279.17 524.07 278.17 523.85 277.67 C 530.76 275.95 538.03 276.15 544.94 274.34 C 551.85 272.40 559.06 271.83 565.92 269.70 C 568.35 270.68 565.60 273.07 564.08 273.33 C 556.19 275.76 547.72 275.99 540.03 279.20 C 533.58 279.46 527.39 281.64 520.94 281.72 C 516.79 282.04 512.79 283.26 508.87 284.57 C 504.15 286.18 498.54 285.86 494.76 289.60 C 505.06 288.32 514.89 284.88 524.99 282.78 C 529.62 282.33 534.39 282.49 538.88 281.06 C 541.75 280.15 544.70 279.49 547.68 278.98 C 551.82 279.38 555.97 278.18 559.82 276.69 C 560.93 276.92 564.23 276.27 563.46 278.27 C 560.06 281.29 555.13 280.43 551.04 281.64 C 545.77 283.17 540.21 283.38 535.01 285.14 C 527.89 287.46 520.35 287.76 513.01 288.84 C 507.44 290.78 501.73 292.21 496.12 294.02 C 490.28 296.00 484.05 295.93 478.07 297.31 C 474.33 298.16 469.56 297.03 466.82 300.31 C 470.58 301.16 474.57 300.44 478.00 298.73 C 484.20 298.50 490.36 297.54 496.42 296.23 C 500.24 294.45 504.25 293.13 508.09 291.42 C 514.50 291.78 520.57 289.31 526.92 288.81 C 532.47 288.56 537.62 286.28 543.12 285.62 C 549.80 284.90 556.38 282.59 563.17 283.46 C 562.10 284.42 561.57 286.28 560.02 286.60 C 556.40 287.23 552.67 287.02 549.07 287.78 C 541.03 289.34 533.33 292.70 525.06 292.91 C 521.28 292.99 517.70 294.34 514.07 295.24 C 507.32 296.63 500.41 297.37 493.82 299.47 C 487.59 300.80 481.25 301.62 474.91 302.05 C 468.44 304.07 461.68 304.97 455.27 307.25 C 450.50 308.19 446.34 310.83 441.61 311.88 C 437.60 313.76 433.03 314.12 429.23 316.46 C 422.96 318.03 416.29 317.90 410.31 320.65 C 410.38 321.18 410.52 322.23 410.59 322.75 C 414.72 321.62 418.60 319.77 422.55 318.13 C 422.78 318.77 423.25 320.06 423.49 320.70 C 423.61 319.82 423.73 318.93 423.84 318.05 C 427.20 317.16 426.82 320.80 427.74 322.66 C 423.37 322.91 419.32 324.78 414.95 325.01 C 415.01 325.75 415.08 326.51 415.15 327.27 C 418.10 327.48 419.66 330.21 421.90 331.73 C 424.11 331.67 426.01 330.40 427.98 329.53 C 439.45 326.63 450.50 321.91 462.23 319.81 C 467.87 318.97 473.23 316.75 478.94 316.39 C 484.40 315.70 489.80 314.60 495.08 313.06 C 499.69 311.73 504.49 311.19 509.06 309.70 C 516.44 308.95 523.69 307.24 531.02 306.10 C 534.11 305.60 537.54 306.37 540.29 304.53 C 547.58 303.83 555.19 303.83 561.93 300.58 C 564.09 300.74 566.13 301.42 568.08 302.35 C 564.21 304.25 559.72 304.02 555.59 304.99 C 546.76 307.07 537.90 309.04 529.12 311.33 C 525.64 311.57 522.14 311.61 518.73 312.43 C 517.83 310.14 515.77 311.78 515.06 313.12 C 508.41 313.33 502.20 316.05 495.65 316.92 C 496.09 317.55 496.53 318.19 496.98 318.84 C 509.94 316.08 522.92 313.37 536.06 311.83 C 542.89 310.11 549.85 309.05 556.86 308.35 C 562.36 308.00 567.13 304.63 572.67 304.47 C 572.66 305.43 572.64 307.36 572.63 308.33 C 566.83 309.88 560.68 309.75 555.05 312.03 C 545.44 314.17 535.88 316.91 526.02 317.70 C 516.24 318.67 506.56 320.38 496.98 322.51 C 487.83 325.23 478.29 326.28 468.84 327.46 C 463.63 328.50 458.54 330.08 453.32 331.09 C 445.99 334.31 438.23 336.35 430.71 339.05 C 431.60 340.05 432.52 341.02 433.49 341.94 C 437.86 338.78 443.29 337.90 448.08 335.61 C 459.77 330.42 472.53 328.74 485.13 327.32 C 493.32 326.61 500.87 322.76 509.09 322.34 C 517.03 320.89 525.03 319.68 533.07 318.87 C 537.27 319.10 541.14 317.31 545.17 316.41 C 550.04 315.04 555.16 315.10 560.11 314.12 C 563.92 313.20 567.84 311.13 571.81 312.17 C 571.81 312.69 571.80 313.74 571.80 314.27 C 566.76 317.37 560.48 315.98 555.13 318.22 C 547.60 321.26 539.44 321.76 531.49 322.85 C 531.36 323.13 531.10 323.68 530.97 323.96 C 540.40 326.16 549.59 320.46 559.13 321.32 C 561.68 319.44 564.84 318.67 567.95 318.39 C 569.82 318.66 570.12 321.32 568.64 322.28 C 565.53 322.94 562.28 322.85 559.16 322.30 C 558.16 322.84 557.31 323.88 556.07 323.73 C 547.10 323.87 538.95 328.55 529.97 328.56 C 522.81 328.36 516.10 331.18 509.06 331.94 C 504.01 332.58 499.16 334.26 494.30 335.70 L 491.94 337.78 C 501.34 335.94 510.70 333.88 520.06 331.91 C 526.36 331.42 532.67 330.91 538.93 329.99 C 541.51 329.62 544.12 328.56 546.75 329.19 C 548.01 331.18 545.84 332.48 544.25 332.69 C 537.54 334.06 530.73 335.01 523.87 335.01 C 524.17 337.04 526.44 337.08 527.97 337.25 C 530.90 337.56 533.71 336.37 536.64 336.47 C 537.04 337.41 537.18 338.40 537.08 339.43 C 531.60 339.97 526.41 341.99 520.95 342.57 C 513.21 342.82 505.68 344.80 498.12 346.31 C 490.29 348.49 482.19 349.38 474.23 350.99 C 467.20 350.86 461.66 356.08 454.76 356.58 C 454.72 356.27 454.64 355.63 454.59 355.32 C 454.18 356.33 453.79 357.34 453.38 358.36 C 454.22 359.08 455.09 359.80 455.96 360.51 C 461.36 355.29 469.28 355.68 475.84 352.97 C 481.79 351.50 488.03 351.62 493.97 350.05 C 501.58 348.19 509.21 346.38 516.99 345.39 C 519.66 345.10 523.02 343.01 525.08 345.80 C 524.99 349.84 519.53 348.20 516.86 349.32 C 516.47 349.15 515.70 348.81 515.31 348.64 C 510.89 349.83 506.58 351.52 502.00 352.00 C 497.56 352.41 493.54 354.83 489.04 354.84 C 478.54 354.58 469.21 360.26 459.10 362.14 L 459.69 363.59 C 459.09 363.91 457.91 364.55 457.31 364.88 C 451.63 361.72 447.05 357.02 441.89 353.14 C 442.96 352.31 443.92 351.14 445.39 351.08 C 445.56 350.72 445.89 350.00 446.06 349.64 C 455.15 346.05 464.20 341.95 473.99 340.59 C 479.68 339.16 485.80 340.10 491.31 337.94 L 492.54 336.43 C 486.67 336.83 480.87 337.83 475.07 338.69 C 466.83 337.90 459.65 342.62 451.93 344.53 C 448.41 345.37 445.09 346.83 441.68 348.01 C 442.85 349.42 441.91 350.83 441.16 352.16 C 437.79 350.54 435.84 347.19 432.65 345.35 C 427.66 342.57 424.36 337.69 419.58 334.60 C 408.40 325.39 397.26 316.13 386.37 306.57 C 384.18 304.76 382.22 302.62 379.66 301.32 C 370.86 294.06 362.44 286.38 353.51 279.26 C 350.85 276.87 348.13 274.56 345.52 272.13 C 344.25 270.53 342.31 269.70 340.70 268.51 L 339.84 268.99 C 339.79 267.42 339.75 265.86 339.64 264.30 C 338.98 264.84 338.33 265.40 337.71 265.97 C 334.61 263.84 333.00 260.12 329.58 258.36 C 324.25 255.22 320.83 249.65 315.14 247.02 C 311.88 243.37 307.42 241.19 303.87 237.86 C 303.31 237.67 302.76 237.48 302.22 237.30 C 304.05 238.73 305.98 240.07 307.62 241.73 C 308.03 243.65 307.63 245.61 307.59 247.55 C 308.02 247.51 308.88 247.42 309.32 247.38 C 311.74 244.56 317.55 247.86 314.55 251.21 C 316.12 252.98 318.34 253.44 320.57 253.79 C 323.53 255.64 326.66 257.47 328.97 260.13 C 328.50 260.52 327.56 261.28 327.09 261.66 C 330.27 260.93 332.63 263.34 334.96 265.09 C 336.33 266.05 337.87 267.57 339.61 265.40 C 339.48 266.30 339.21 268.11 339.08 269.01 C 340.80 269.20 342.04 270.27 342.96 271.68 C 343.29 271.63 343.96 271.52 344.30 271.47 C 345.28 272.98 346.31 274.45 347.34 275.94 C 348.23 276.18 349.12 276.43 350.02 276.69 C 352.31 279.84 356.02 281.51 358.63 284.36 C 362.20 287.09 365.36 290.30 368.92 293.04 C 370.16 294.03 371.37 295.06 372.53 296.17 C 372.49 296.77 372.42 297.97 372.39 298.57 C 377.02 297.93 378.97 302.79 382.18 305.15 C 387.64 309.20 392.25 314.28 397.96 318.03 C 398.24 318.20 398.81 318.54 399.09 318.71 C 400.27 320.27 402.32 321.32 402.73 323.37 L 403.03 323.14 C 405.16 324.81 407.28 326.55 409.78 327.68 C 409.83 328.21 409.93 329.28 409.98 329.81 C 416.51 333.07 420.35 339.80 427.02 342.82 C 430.06 345.24 432.59 348.72 436.55 349.67 C 438.50 352.11 440.56 354.50 443.46 355.83 C 447.26 359.34 451.75 361.99 455.44 365.63 C 457.75 367.66 460.53 369.06 463.08 370.76 C 463.28 371.28 463.67 372.30 463.87 372.82 C 465.10 373.59 466.34 374.38 467.56 375.19 C 472.76 377.80 475.18 384.33 481.40 385.04 C 479.21 382.10 476.06 379.91 472.85 378.17 C 472.15 377.57 470.75 376.38 470.06 375.78 C 471.47 375.07 473.02 374.72 474.54 374.32 C 481.07 370.83 488.53 369.82 495.56 367.77 C 502.40 367.66 509.12 366.05 515.75 364.45 C 516.19 364.00 517.08 363.10 517.52 362.65 C 516.64 362.44 514.88 362.01 514.00 361.80 C 508.38 363.42 502.71 364.93 496.89 365.54 C 488.36 366.31 480.24 369.29 472.30 372.30 L 471.60 371.55 C 471.17 372.80 470.69 374.04 470.18 375.27 C 466.23 372.12 462.03 369.30 458.25 365.95 C 458.93 365.42 459.63 364.90 460.33 364.40 C 461.53 365.10 462.69 365.88 463.69 366.87 C 463.63 366.37 463.50 365.38 463.44 364.89 C 468.66 360.01 476.30 359.59 482.91 357.67 C 487.39 357.30 491.79 356.40 496.18 355.47 C 496.41 356.38 496.87 358.18 497.09 359.09 C 497.44 357.67 497.63 356.23 497.65 354.78 C 501.97 354.98 506.02 352.88 510.35 353.37 C 512.78 352.18 515.67 350.94 518.28 352.42 C 519.98 351.14 522.02 350.43 524.10 351.31 C 525.91 352.09 527.34 350.19 528.93 349.66 C 529.72 349.98 531.30 350.62 532.09 350.94 C 533.47 348.71 535.96 349.22 538.16 349.55 C 537.04 352.02 534.18 351.96 531.92 351.41 C 530.37 353.55 527.29 353.79 525.21 352.32 C 523.43 354.27 520.87 354.60 518.40 354.21 C 511.55 356.74 504.27 357.78 497.22 359.57 C 491.15 361.28 484.41 359.74 478.71 362.86 C 474.64 365.20 469.73 365.00 465.57 367.15 C 465.81 367.70 466.31 368.81 466.56 369.37 C 467.31 369.75 468.07 370.13 468.85 370.53 C 470.63 368.83 472.75 367.50 475.14 366.82 C 481.98 364.54 489.07 363.08 496.18 362.00 C 503.10 360.77 509.92 358.63 516.96 358.34 C 520.46 358.37 517.28 362.48 517.06 364.29 C 523.62 363.76 530.14 362.73 536.71 362.26 C 536.71 361.49 536.70 359.96 536.69 359.19 C 533.18 359.41 529.59 360.51 526.13 359.45 C 524.92 360.95 522.93 361.25 521.15 361.48 C 518.97 361.94 519.47 358.81 519.62 357.60 C 521.44 357.53 523.31 357.38 525.07 358.05 C 526.58 359.04 527.63 357.17 529.06 356.99 C 535.97 355.86 542.87 354.30 549.89 354.15 C 549.11 359.64 542.17 357.70 538.29 358.76 C 538.34 359.64 538.43 361.40 538.48 362.28 C 543.40 361.90 548.17 360.60 553.07 360.05 C 553.65 360.55 554.24 361.05 554.84 361.56 C 552.02 362.32 549.14 362.62 546.25 362.82 C 536.60 365.55 526.55 366.32 516.71 368.07 C 507.35 370.50 497.66 371.12 488.19 372.89 C 484.36 374.35 480.70 376.40 476.54 376.80 C 476.90 377.35 477.61 378.45 477.97 379.00 C 478.42 379.28 479.32 379.84 479.77 380.13 C 480.89 381.70 482.20 383.13 483.92 384.09 C 484.31 383.71 485.10 382.96 485.49 382.58 C 493.95 381.08 502.33 378.92 510.94 378.48 C 521.87 376.36 533.00 375.80 544.07 374.95 C 547.58 374.78 551.33 372.70 554.69 374.30 C 555.21 376.06 552.81 376.00 551.79 376.62 C 547.76 377.49 543.65 377.94 539.64 378.94 C 531.91 379.68 524.07 379.64 516.45 381.27 C 508.03 383.06 499.34 382.81 490.96 384.79 C 488.65 385.56 485.32 384.87 484.10 387.52 C 489.48 387.91 494.60 385.80 499.95 385.64 C 510.57 385.05 521.17 384.04 531.61 381.91 C 535.04 382.76 538.57 381.10 541.96 382.62 C 543.09 380.59 545.77 381.22 547.05 382.73 C 549.42 380.45 553.32 380.31 556.47 380.38 C 558.28 379.25 562.65 376.97 562.61 380.70 C 561.19 381.46 559.52 381.26 558.00 381.46 C 554.18 381.53 550.82 384.19 546.93 383.55 C 545.22 384.57 543.39 384.79 541.87 383.29 C 540.69 384.81 539.08 386.00 537.05 385.74 C 530.32 385.70 523.78 387.40 517.09 387.76 C 510.64 389.16 503.86 387.98 497.55 390.10 C 491.09 391.22 484.41 390.91 478.05 392.71 C 466.75 396.74 454.59 393.28 443.01 395.45 C 427.16 398.69 410.75 395.37 394.99 399.19 C 387.62 399.57 380.22 399.76 372.90 400.81 C 370.97 401.13 369.28 402.17 367.55 403.01 C 367.57 403.15 367.60 403.44 367.62 403.58 C 368.33 403.25 369.04 402.93 369.75 402.61 C 371.22 402.45 372.72 402.31 374.09 401.69 C 377.34 401.56 380.60 401.67 383.84 401.98 C 388.86 401.13 394.03 401.90 398.99 400.58 C 409.60 398.78 420.40 398.48 431.13 398.68 C 440.59 396.22 450.43 397.88 460.04 396.92 C 465.99 395.98 472.18 397.44 477.85 394.93 C 491.12 393.20 504.43 391.30 517.82 391.06 C 521.92 390.76 525.99 388.79 530.11 390.08 C 531.51 389.71 532.90 389.33 534.31 388.97 L 534.51 390.83 C 535.43 390.12 536.34 389.39 537.23 388.64 C 539.17 388.46 541.13 388.57 542.89 389.51 C 544.08 389.03 545.96 387.07 546.92 389.12 C 550.03 387.59 553.65 386.51 557.09 387.49 C 558.44 385.76 560.54 385.37 562.59 385.11 C 562.64 385.77 562.73 387.09 562.78 387.75 C 561.65 388.26 560.53 388.77 559.43 389.29 C 558.83 389.03 557.65 388.52 557.05 388.27 C 554.59 389.49 552.08 390.86 549.25 390.74 C 548.48 390.45 547.70 390.18 546.93 389.95 C 545.67 391.31 544.25 391.68 542.90 390.23 C 541.82 393.15 538.60 392.01 536.24 392.18 L 536.85 390.81 C 535.61 390.84 534.38 390.88 533.15 390.93 L 533.57 391.43 C 529.93 391.58 526.76 393.74 523.09 393.81 C 517.07 394.32 511.13 396.12 505.06 395.50 C 497.94 395.24 491.02 397.37 483.94 397.72 C 475.55 398.30 467.49 401.65 459.00 400.94 C 451.56 400.48 444.26 403.05 436.84 402.07 C 434.24 402.16 431.68 402.97 429.05 402.71 C 415.95 401.85 403.01 404.42 390.02 405.61 C 387.55 405.39 384.28 406.57 382.48 404.37 C 382.43 404.74 382.34 405.47 382.29 405.84 L 378.59 405.96 C 378.58 405.56 378.54 404.74 378.52 404.34 C 377.53 407.05 374.29 406.77 371.98 407.50 C 371.92 409.57 369.84 409.76 368.29 409.75 C 368.97 409.92 369.66 410.10 370.35 410.28 C 371.08 409.62 371.80 408.96 372.54 408.30 C 380.31 407.68 388.11 407.38 395.91 407.67 C 405.37 404.96 415.29 405.65 424.99 404.81 C 430.84 404.09 436.68 406.10 442.50 404.78 C 450.27 403.24 458.25 404.00 466.08 403.18 C 473.89 401.10 481.99 400.67 489.98 399.64 C 498.73 398.42 507.57 398.37 516.37 397.87 C 516.83 398.34 517.73 399.28 518.18 399.75 C 518.68 396.82 521.59 396.97 523.87 396.98 C 526.31 395.58 529.09 395.95 531.69 396.66 C 531.46 400.44 527.43 401.47 524.43 400.13 C 522.96 400.72 521.50 401.30 520.03 401.86 C 519.50 401.26 518.43 400.06 517.89 399.46 L 517.31 401.44 C 508.45 403.91 499.07 401.89 490.03 403.14 C 483.88 403.07 477.99 404.90 472.05 406.24 C 472.12 406.62 472.26 407.37 472.32 407.75 C 478.57 407.64 484.76 406.56 490.92 405.59 C 499.92 404.81 508.98 405.53 517.97 404.59 C 520.30 404.26 522.83 402.91 524.93 404.71 C 526.60 401.92 529.69 402.70 532.13 403.86 C 532.60 403.44 533.54 402.60 534.01 402.18 C 535.51 402.66 537.54 406.16 538.55 403.16 C 539.95 401.01 542.82 402.47 544.13 403.99 C 542.83 404.95 541.48 406.11 539.83 406.31 C 534.86 405.43 529.84 407.91 524.87 406.54 C 519.06 408.51 512.91 409.77 506.75 409.03 C 496.22 410.31 485.58 410.55 475.00 411.28 C 469.34 412.35 463.59 412.82 457.96 414.07 C 447.79 416.28 437.34 416.20 426.99 416.61 C 421.76 416.76 416.39 414.95 411.25 416.61 C 406.34 418.37 401.03 416.36 396.11 418.16 L 396.25 419.62 C 401.53 419.70 406.86 419.76 412.03 418.49 C 419.90 416.32 427.95 419.43 435.92 418.48 C 442.53 418.46 449.07 417.41 455.69 417.24 L 455.13 418.57 C 456.28 417.65 457.44 416.60 458.98 416.43 C 466.62 415.00 474.42 414.72 482.07 413.32 C 486.33 413.07 490.77 411.99 494.92 413.46 C 502.46 411.42 510.39 413.50 517.90 411.35 C 521.24 410.31 524.72 412.06 528.04 410.88 C 529.80 410.06 531.37 411.00 532.86 411.91 C 532.44 412.45 531.60 413.55 531.18 414.10 C 525.37 413.01 519.68 415.53 513.91 415.81 C 505.13 416.06 496.37 416.93 487.58 416.96 C 481.12 418.53 474.39 417.03 467.93 418.70 C 459.17 419.50 450.66 421.82 441.91 422.84 C 436.78 423.66 431.61 422.65 426.46 422.79 C 426.74 423.42 427.29 424.69 427.57 425.32 C 438.10 427.05 448.45 423.66 458.92 423.23 C 464.44 421.36 470.27 421.49 475.98 420.65 C 487.58 419.76 499.22 419.81 510.85 419.77 C 514.65 419.77 518.04 417.46 521.87 417.69 C 528.93 417.80 535.95 416.85 543.00 416.55 C 543.44 416.85 544.33 417.47 544.78 417.78 C 546.17 415.77 548.16 415.77 550.30 416.62 C 550.75 416.21 551.66 415.40 552.12 414.99 C 552.90 415.17 554.46 415.52 555.24 415.69 C 556.00 413.16 559.17 413.78 560.92 414.69 C 561.51 411.73 564.73 412.68 566.88 412.57 C 566.53 413.31 565.85 414.78 565.51 415.52 C 563.42 416.07 561.08 414.98 559.24 416.40 C 557.93 417.38 556.37 416.54 554.95 416.42 C 553.61 418.19 551.78 417.83 549.98 417.06 C 549.48 420.06 546.49 419.72 544.24 419.74 C 539.71 421.28 534.85 421.96 530.12 421.13 C 527.41 420.54 524.69 421.29 522.03 421.67 C 510.39 423.40 498.62 424.89 486.85 423.79 C 475.21 425.06 463.39 425.23 452.00 428.20 C 447.41 428.69 442.85 429.33 438.31 430.13 C 432.21 429.96 426.10 429.71 420.06 428.82 C 416.82 430.01 412.94 429.17 410.12 431.35 C 410.15 431.59 410.22 432.07 410.25 432.31 C 418.18 432.05 426.14 431.39 434.05 432.32 C 440.70 432.22 447.31 431.18 453.90 430.39 C 459.83 429.89 465.58 427.76 471.59 428.45 C 481.43 425.86 491.88 426.55 501.95 427.38 C 510.67 427.82 519.21 422.85 527.86 425.50 C 528.14 425.18 528.69 424.54 528.97 424.22 C 534.00 425.18 539.02 423.54 544.07 424.08 C 545.93 424.13 547.74 423.58 549.58 423.32 C 549.64 424.03 549.76 425.44 549.82 426.14 C 548.18 426.30 546.92 425.79 546.04 424.61 C 543.58 426.77 539.39 429.11 536.48 426.60 C 534.33 428.81 529.52 428.92 527.28 426.41 L 526.34 427.50 C 522.73 428.13 519.03 428.42 515.37 428.19 C 506.67 431.58 497.14 430.99 487.98 431.42 C 480.97 432.00 473.84 430.51 466.95 432.34 C 459.02 433.59 451.05 434.50 443.16 435.99 C 438.13 437.09 432.96 436.86 427.85 436.78 C 427.17 435.54 426.46 434.32 425.25 433.56 C 427.73 436.72 422.82 436.94 420.96 436.98 C 418.61 437.06 416.26 436.91 413.92 436.84 C 413.92 434.79 412.05 434.83 412.06 436.86 C 409.69 436.91 407.33 436.83 404.97 436.99 C 407.84 438.15 410.99 437.23 413.99 437.66 C 419.61 440.30 425.98 439.07 431.97 439.41 C 444.48 440.11 456.47 435.57 468.93 435.26 C 474.29 434.47 479.69 433.77 485.12 434.16 C 492.14 434.67 499.20 433.06 506.16 434.58 C 509.36 432.81 512.87 431.80 516.58 432.14 C 520.13 431.00 523.96 431.17 527.63 431.51 C 527.74 432.57 527.95 434.69 528.06 435.75 C 524.27 435.65 520.37 435.99 516.72 434.76 C 513.40 436.34 509.72 436.39 506.13 436.53 C 499.85 437.91 493.42 438.08 487.02 438.19 C 480.10 439.17 473.07 438.13 466.20 439.45 C 456.11 440.74 446.14 442.76 436.07 444.06 C 431.66 444.10 427.25 444.18 422.85 444.46 C 421.68 443.87 420.53 443.32 419.36 442.75 C 418.95 443.00 418.13 443.51 417.72 443.77 C 417.67 444.15 417.59 444.93 417.54 445.31 C 423.80 444.76 429.92 446.43 436.16 446.50 C 447.86 445.79 459.29 442.60 471.02 442.13 C 480.31 441.00 489.70 441.36 499.04 441.02 C 501.41 441.03 504.00 439.20 506.14 440.94 C 509.09 438.88 512.89 438.91 516.30 439.61 C 516.31 440.31 516.35 441.72 516.37 442.43 C 511.68 443.45 506.83 443.45 502.16 444.59 C 494.11 445.47 485.98 445.39 477.91 445.99 C 475.66 446.35 473.41 445.84 471.16 445.83 C 459.60 448.19 447.79 449.33 436.00 449.77 C 440.31 450.05 444.63 450.05 448.94 450.44 C 457.03 450.47 464.97 448.47 473.07 448.39 C 481.38 448.51 489.70 448.14 498.01 448.28 C 500.83 448.42 504.05 446.35 506.62 447.93 C 506.75 448.81 507.01 450.56 507.14 451.44 C 502.35 451.66 497.78 453.45 492.97 453.37 C 488.59 453.59 484.26 452.55 479.89 452.93 C 472.35 453.43 464.80 454.04 457.25 453.50 C 457.24 453.69 457.23 454.09 457.22 454.29 C 459.50 454.22 461.78 454.43 463.98 455.06 C 473.13 453.99 482.27 455.30 491.41 455.65 C 494.93 455.25 498.68 456.37 502.01 454.92 C 507.36 454.11 512.79 453.91 518.13 453.03 C 520.40 452.56 522.69 453.01 524.87 453.66 C 529.64 452.93 534.56 453.17 539.35 453.59 L 539.76 455.45 C 534.94 456.35 529.64 457.45 525.00 455.47 C 522.67 458.73 518.21 456.39 514.92 456.87 C 504.73 458.16 494.50 461.00 484.15 459.31 C 489.17 459.92 493.96 462.23 499.11 461.57 C 504.06 460.92 509.00 460.13 514.02 460.34 C 524.85 459.61 535.76 459.35 546.59 460.39 C 546.60 460.90 546.62 461.92 546.64 462.44 C 540.83 463.92 534.87 462.84 528.99 463.47 C 524.97 463.93 520.90 463.44 516.91 464.14 C 510.91 465.28 504.71 464.72 498.77 466.31 C 502.83 467.02 506.92 467.27 511.02 466.65 C 523.55 466.96 536.46 465.14 548.67 468.53 C 549.79 472.45 545.33 471.28 542.98 471.46 C 533.79 471.71 524.34 469.20 515.38 471.97 C 524.86 473.66 534.72 472.04 544.15 474.46 C 549.48 476.01 555.07 475.37 560.54 475.68 C 560.91 476.50 561.28 477.33 561.67 478.17 C 555.10 479.02 548.39 478.50 541.85 477.64 C 536.62 476.53 531.17 476.96 526.05 475.31 C 508.59 472.93 490.70 471.49 474.07 465.25 C 462.69 461.79 451.17 458.78 439.87 455.06 C 432.53 453.56 425.47 450.37 417.88 450.39 C 417.77 449.71 417.65 449.03 417.54 448.37 C 416.30 451.34 412.79 448.52 410.69 448.03 C 410.62 447.24 410.48 445.65 410.41 444.86 C 412.24 444.63 414.20 444.64 415.92 443.85 C 412.68 442.88 409.31 443.15 406.01 443.52 C 404.30 443.13 402.59 442.75 400.88 442.45 C 403.56 443.71 406.56 443.97 409.35 444.83 C 409.82 446.05 410.14 447.32 410.44 448.61 C 402.47 447.59 394.87 444.67 386.84 443.94 C 385.37 443.67 383.91 443.40 382.45 443.14 C 382.35 444.48 382.24 445.83 382.14 447.18 C 381.40 445.69 381.51 444.25 382.47 442.85 C 380.57 442.68 378.69 442.50 376.81 442.34 C 376.05 444.38 373.70 443.66 372.11 443.49 C 373.63 448.95 379.12 451.40 382.83 455.13 C 388.21 458.03 394.04 460.43 400.09 461.47 C 398.38 460.61 396.60 459.92 394.77 459.38 C 391.40 454.51 384.67 453.16 382.15 447.48 C 382.85 446.61 383.57 445.75 384.30 444.91 C 388.28 447.07 390.13 451.52 393.58 454.34 C 397.77 458.61 403.72 460.11 408.86 462.86 C 408.75 463.57 408.54 465.01 408.43 465.73 C 409.59 465.53 410.83 465.52 411.89 464.91 C 411.05 464.32 410.24 463.72 409.43 463.13 L 413.10 463.92 C 409.49 460.49 405.72 457.22 401.72 454.25 C 399.70 452.57 396.98 451.07 396.94 448.09 C 399.22 448.38 401.57 448.63 403.69 449.60 C 405.20 451.05 405.37 453.58 407.29 454.69 C 411.21 457.17 414.33 460.97 418.85 462.42 C 422.58 463.72 425.92 466.73 430.15 465.62 C 424.79 460.52 417.17 457.84 413.16 451.28 C 419.21 451.91 423.42 456.49 428.11 459.84 C 431.99 462.99 436.77 464.80 440.51 468.14 C 443.15 468.70 445.74 469.51 448.43 469.86 C 447.40 468.11 445.61 467.14 443.96 466.12 C 439.79 463.67 435.68 460.79 433.07 456.63 C 443.96 458.40 454.16 462.83 464.71 465.90 L 464.12 464.36 C 464.98 465.31 465.65 466.68 467.06 466.92 C 473.41 468.67 479.51 471.39 486.08 472.28 C 491.48 473.00 496.65 474.86 502.08 475.48 C 512.03 477.39 522.26 477.43 532.14 479.77 C 539.86 480.86 547.46 482.69 555.19 483.73 C 558.93 484.22 563.68 482.69 566.29 486.28 C 560.52 487.98 554.70 484.84 548.97 486.16 C 542.17 485.63 535.76 482.87 528.93 482.47 C 524.57 482.44 520.39 481.11 516.09 480.61 C 504.00 478.86 491.84 477.35 480.08 473.97 C 472.81 471.19 465.24 469.36 457.92 466.77 C 452.49 465.46 447.67 461.98 441.87 462.26 C 447.75 466.35 454.12 470.11 461.22 471.59 C 466.74 473.53 472.53 474.62 477.90 477.03 C 481.68 478.86 486.06 478.33 489.92 479.95 C 492.79 481.43 496.02 480.42 499.06 481.11 C 509.69 483.45 520.53 484.60 531.23 486.59 C 537.17 487.37 542.96 489.04 548.93 489.65 C 550.51 489.71 553.43 492.50 550.49 493.37 C 542.41 494.17 534.83 490.78 526.87 490.38 C 518.77 489.06 510.78 487.04 502.59 486.32 C 494.52 482.53 485.37 482.99 476.90 480.64 C 473.66 479.70 470.36 478.88 466.99 478.62 C 467.57 479.89 468.52 480.71 469.84 481.06 C 474.21 482.52 478.51 484.22 483.11 484.93 C 493.94 488.08 504.97 490.40 516.00 492.75 C 521.67 492.94 527.45 493.26 532.85 495.17 C 536.76 495.09 540.63 495.74 544.48 496.36 C 544.43 497.00 544.33 498.28 544.28 498.92 C 544.16 495.18 550.40 496.23 551.61 498.82 C 548.85 501.72 544.93 498.14 541.92 500.45 C 540.82 499.97 539.75 499.50 538.68 499.02 C 534.49 498.25 530.20 498.15 526.04 497.21 C 522.58 497.01 519.16 496.33 515.81 495.48 C 515.22 495.87 514.63 496.27 514.06 496.68 C 513.31 493.92 510.20 494.68 508.07 494.24 C 498.22 492.47 488.52 489.96 478.69 488.15 C 470.02 484.86 460.87 483.35 451.88 481.24 C 450.44 480.48 448.95 479.77 447.77 478.62 C 447.29 478.96 446.79 479.26 446.27 479.52 C 443.16 479.17 440.11 478.52 437.00 478.29 C 438.25 479.06 439.33 480.42 440.92 480.44 C 445.13 480.54 449.10 482.13 453.28 482.55 C 456.79 482.82 459.81 484.81 463.12 485.83 C 466.38 487.01 469.88 487.50 473.02 489.04 C 476.17 490.45 479.39 491.83 482.86 492.25 C 491.30 493.44 499.46 496.12 507.94 497.05 C 509.41 497.30 510.76 497.95 512.15 498.52 C 515.83 498.67 519.47 499.26 523.14 499.53 C 524.69 499.50 525.89 500.50 527.05 501.40 C 529.71 499.37 533.82 500.95 533.74 504.53 C 531.43 504.36 528.08 505.37 527.04 502.52 C 524.65 505.00 521.25 502.99 518.76 501.80 C 516.52 502.79 513.91 502.45 512.55 500.22 C 512.18 500.64 511.45 501.46 511.09 501.88 C 509.15 501.27 506.74 501.44 505.25 499.89 C 504.11 501.07 502.42 500.24 501.03 500.24 C 496.63 498.26 491.69 497.85 486.97 497.14 C 483.79 494.45 478.89 495.37 475.11 493.81 C 466.79 490.77 457.77 489.92 449.77 485.97 C 447.69 485.41 445.11 485.43 444.00 483.23 L 444.64 485.14 C 441.59 484.64 438.59 483.90 435.62 483.06 C 435.28 481.68 434.30 480.81 433.51 482.43 C 428.78 481.29 423.69 481.27 419.79 477.97 C 416.51 478.19 413.22 478.38 410.02 477.20 C 407.02 475.29 403.22 475.75 400.24 473.85 C 400.40 473.04 400.60 472.25 400.85 471.47 C 400.08 471.07 399.30 470.69 398.52 470.32 C 398.44 471.06 398.28 472.54 398.20 473.28 C 397.36 473.27 395.67 473.23 394.83 473.21 C 396.56 473.73 398.92 473.63 399.57 475.73 C 401.22 474.86 402.84 476.12 404.43 476.50 C 407.16 477.57 410.09 477.97 412.95 478.57 C 412.91 479.63 412.82 481.74 412.78 482.79 C 404.35 481.87 396.31 478.96 388.15 476.76 L 389.40 479.11 C 388.09 480.07 384.92 479.95 385.74 482.40 C 384.30 481.44 382.69 481.03 380.91 481.18 C 376.42 479.79 371.84 478.79 367.26 477.74 L 367.29 477.66 C 366.00 477.26 365.05 476.49 364.46 475.36 C 364.39 475.71 364.27 476.40 364.20 476.75 C 361.52 477.05 360.31 476.03 360.59 473.71 C 360.36 472.46 358.83 474.17 358.33 474.46 C 355.89 474.09 353.49 473.46 351.06 473.05 C 349.66 472.78 348.22 472.52 346.99 471.78 C 346.52 471.63 345.57 471.33 345.10 471.18 C 344.67 469.70 343.15 469.95 342.04 469.74 C 337.60 469.38 333.38 467.81 328.98 467.17 C 330.89 468.27 332.80 469.51 335.08 469.67 C 336.49 469.98 337.88 470.33 339.29 470.71 C 342.78 472.17 346.59 472.49 350.20 473.54 C 353.37 474.84 356.82 475.48 359.80 477.24 C 362.16 477.42 364.65 477.06 366.86 478.12 C 375.08 480.77 383.32 484.06 392.02 484.54 C 393.24 485.38 394.30 486.76 395.92 486.79 C 399.41 487.18 402.59 488.97 406.16 488.87 C 413.85 491.58 421.82 493.44 429.45 496.37 C 441.34 501.14 453.95 503.70 466.04 507.91 C 472.47 510.09 479.22 512.16 486.08 511.44 C 483.66 513.85 480.15 513.82 476.99 514.22 C 472.38 512.93 467.52 512.59 463.09 510.68 C 448.06 505.84 432.38 503.15 417.58 497.55 C 414.89 496.71 412.06 496.38 409.41 495.39 C 409.31 496.16 409.23 496.98 409.84 497.59 C 423.14 501.99 436.52 506.12 449.96 510.07 C 453.07 511.12 456.85 510.94 459.33 513.35 C 450.90 515.98 443.01 510.00 434.77 509.12 C 427.99 506.68 420.81 505.56 414.07 502.99 C 408.65 501.81 403.50 499.30 397.97 498.81 C 397.57 499.16 396.75 499.87 396.35 500.22 C 406.00 503.29 415.78 506.05 425.25 509.69 C 420.32 511.42 415.39 508.48 410.56 507.64 C 410.19 507.93 409.45 508.51 409.08 508.81 C 405.99 505.39 400.97 505.43 396.83 504.15 C 386.00 501.00 374.93 498.90 364.02 496.07 C 358.92 495.16 354.40 492.45 349.27 491.55 C 349.73 491.86 350.64 492.50 351.09 492.82 C 350.88 493.27 350.44 494.18 350.23 494.63 C 352.77 491.61 356.32 494.70 359.23 495.50 C 359.66 497.43 361.78 498.75 362.89 496.32 C 367.28 498.50 372.33 498.75 376.63 501.14 C 381.61 501.83 386.15 504.12 391.07 505.05 C 395.85 506.14 400.65 507.13 405.48 507.97 C 405.65 508.37 406.01 509.17 406.19 509.57 C 404.24 509.53 402.16 509.15 400.38 510.17 C 399.25 509.37 398.20 509.52 397.26 510.64 C 397.35 510.36 397.53 509.80 397.62 509.52 C 390.72 509.70 383.84 508.60 377.21 506.77 C 371.33 505.63 365.58 504.02 359.98 501.93 C 345.01 494.80 328.70 490.88 314.06 483.04 C 311.17 481.49 308.04 480.39 305.38 478.46 C 301.51 475.81 296.69 474.96 293.08 471.88 C 289.10 468.21 283.97 466.33 279.48 463.43 C 275.06 462.13 271.73 458.86 267.66 456.90 C 269.50 454.52 268.49 455.49 267.50 456.57 C 261.89 454.07 258.76 448.54 254.10 444.91 C 253.50 449.26 258.70 450.86 258.77 454.90 C 259.39 461.20 262.89 466.73 263.82 472.96 C 263.91 478.04 265.31 483.82 261.76 488.14 C 258.08 491.99 253.83 496.79 248.00 496.44 C 243.67 496.54 239.32 497.09 235.01 496.39 C 231.58 495.59 228.90 493.07 226.71 490.46 C 226.45 488.92 226.14 487.41 225.67 485.93 C 223.63 487.33 222.16 489.42 220.08 490.77 C 214.34 491.01 208.84 493.32 203.05 492.90 C 198.99 492.21 195.80 489.31 191.95 488.01 C 189.65 487.22 186.57 485.94 186.86 482.98 C 186.56 470.10 184.27 457.16 186.54 444.35 C 187.75 443.53 188.98 442.74 190.23 441.99 C 191.36 439.44 191.80 436.59 193.11 434.14 C 195.31 432.02 197.63 429.45 200.87 429.17 C 200.75 428.62 200.49 427.51 200.36 426.95 C 200.54 427.49 200.88 428.58 201.06 429.12 C 204.17 427.60 207.12 425.78 209.90 423.72 C 212.26 421.87 215.38 420.99 217.09 418.39 C 214.47 412.32 219.47 406.52 222.99 401.99 C 230.57 395.49 240.58 393.13 250.01 390.63 C 256.00 389.42 261.88 387.70 267.90 386.60 C 274.49 384.07 280.93 381.00 287.89 379.56 C 293.67 378.52 298.10 374.39 303.40 372.18 C 307.85 370.38 311.52 367.16 315.93 365.30 C 321.16 363.01 326.43 360.84 331.60 358.42 C 336.79 356.41 343.31 356.35 346.90 351.48 C 353.99 346.11 363.11 344.46 370.46 339.54 C 376.70 333.03 383.99 327.69 391.71 323.10 L 392.01 321.63 C 384.40 319.12 379.40 312.47 373.02 307.96 C 373.91 307.43 374.80 306.90 375.70 306.38 C 374.21 306.25 372.67 306.58 371.23 306.15 C 366.22 303.04 362.74 298.09 357.89 294.79 C 352.97 291.53 348.73 287.39 344.02 283.87 C 332.22 275.88 321.45 266.51 310.08 257.96 C 302.71 250.34 293.93 244.31 285.83 237.54 C 274.61 229.41 264.70 219.61 253.21 211.87 C 250.95 210.18 249.36 207.81 247.29 205.93 C 238.31 198.60 229.01 191.71 220.22 184.16 C 216.90 180.53 212.90 177.64 209.04 174.64 C 206.56 172.73 204.58 170.22 201.88 168.60 C 198.09 166.36 194.47 163.78 191.52 160.50 C 184.75 153.31 175.97 148.52 168.84 141.76 C 164.28 138.49 160.21 134.58 155.56 131.44 C 149.86 127.52 145.42 122.07 139.75 118.11 C 136.59 115.95 134.58 112.53 131.40 110.40 C 129.29 108.97 127.16 107.53 125.41 105.65 C 118.16 98.07 108.74 93.04 101.41 85.55 C 98.68 82.57 94.94 80.77 92.31 77.70 C 87.95 72.30 81.55 69.17 76.55 64.45 C 74.25 62.03 72.48 59.10 69.76 57.09 C 67.55 55.98 65.06 55.55 62.89 54.33 C 58.99 53.55 54.79 53.69 51.14 51.96 C 48.31 49.72 46.44 45.47 48.18 42.01 C 49.77 38.72 51.42 35.33 54.16 32.82 Z" />
<path fill="#fcfcfc" d=" M 129.90 100.16 C 131.06 97.37 134.46 101.39 131.88 102.47 C 130.57 102.29 129.91 101.52 129.90 100.16 Z" />
<path fill="#fcfcfc" d=" M 151.31 113.48 C 150.96 112.45 152.20 112.11 152.83 111.64 C 155.09 112.43 157.11 113.68 158.18 115.90 C 155.61 115.92 153.76 113.90 151.31 113.48 Z" />
<path fill="#fcfcfc" d=" M 241.39 185.17 C 247.55 189.17 252.53 194.72 258.67 198.80 C 261.19 201.99 264.71 204.27 268.53 205.60 C 269.98 206.80 270.63 208.67 271.93 210.03 C 273.33 212.14 275.94 213.01 277.65 214.71 C 275.42 215.32 274.03 213.20 272.74 211.80 C 269.73 210.54 267.72 207.88 265.47 205.63 C 264.23 204.76 263.05 203.80 261.94 202.76 C 259.50 199.87 255.56 199.05 252.83 196.57 C 250.56 193.19 247.63 189.03 242.94 190.39 C 243.04 188.48 242.39 186.75 241.39 185.17 Z" />
<path fill="#383838" d=" M 576.55 243.49 C 577.01 242.25 578.43 242.30 579.50 241.95 C 580.00 244.05 581.83 248.73 578.21 248.76 C 577.19 247.24 576.33 245.36 576.55 243.49 Z" />
<path fill="#fcfcfc" d=" M 559.10 255.15 C 560.73 254.46 562.48 254.38 564.23 254.54 C 558.71 258.55 551.00 256.22 544.92 259.06 C 543.05 259.36 541.17 259.74 539.28 259.60 C 541.93 258.11 545.09 258.07 547.93 257.04 C 551.53 255.79 555.31 255.33 559.10 255.15 Z" />
<path fill="#383838" d=" M 556.82 262.00 C 561.30 260.19 566.21 260.05 570.93 259.25 C 571.15 261.57 568.91 262.57 567.04 262.60 C 563.61 262.79 559.67 264.79 556.82 262.00 Z" />
<path fill="#383838" d=" M 487.05 280.26 C 490.21 280.26 493.23 278.51 496.26 278.57 C 497.27 279.25 497.99 280.28 498.79 281.19 C 495.54 282.41 492.22 283.38 488.81 284.02 C 488.16 282.79 487.59 281.53 487.05 280.26 Z" />
<path fill="#383838" d=" M 531.06 294.15 C 538.98 291.95 547.38 292.32 555.21 289.72 C 557.13 288.93 559.18 289.77 561.17 289.86 C 561.72 290.70 562.29 291.55 562.85 292.39 C 553.52 292.56 544.36 294.50 535.48 297.29 L 537.98 297.39 C 534.58 297.68 530.58 297.87 527.76 299.85 C 530.80 301.18 535.35 299.50 537.98 297.39 L 536.87 298.70 C 545.11 299.05 552.89 295.73 561.03 295.42 C 563.47 294.88 562.00 298.28 560.54 298.27 C 554.18 299.16 547.91 300.54 541.66 302.02 C 533.61 304.47 525.04 304.17 516.97 306.53 C 512.37 307.82 507.54 307.77 502.95 309.05 C 496.87 310.14 491.10 312.78 484.84 312.81 C 476.99 313.40 469.57 316.87 461.65 316.60 C 458.64 318.17 455.37 319.16 452.07 319.85 C 446.71 320.93 441.67 323.23 436.29 324.24 C 433.18 326.02 430.01 328.14 426.24 327.67 C 424.54 328.80 422.59 329.44 420.59 329.76 C 419.68 328.65 418.61 327.75 417.36 327.05 C 423.79 324.57 431.23 325.07 436.92 320.72 C 440.33 319.97 443.57 318.58 447.00 317.86 C 448.45 317.69 449.51 316.68 450.41 315.61 C 447.16 315.56 443.83 315.82 441.04 317.66 C 437.28 319.93 433.01 321.01 428.84 322.24 C 428.41 320.60 426.01 318.89 427.36 317.26 C 432.13 317.59 436.39 315.23 440.96 314.33 C 445.76 313.33 450.03 310.68 454.87 309.83 C 462.30 308.46 469.39 305.64 476.92 304.81 C 488.05 302.89 499.12 300.65 510.05 297.80 C 517.05 296.54 524.08 295.47 531.06 294.15 Z" />
<path fill="#fcfcfc" d=" M 527.76 299.85 C 530.58 297.87 534.58 297.68 537.98 297.39 C 535.35 299.50 530.80 301.18 527.76 299.85 Z" />
<path fill="#fcfcfc" d=" M 504.60 302.75 C 511.64 301.08 518.72 299.52 525.94 298.80 C 525.91 299.07 525.86 299.60 525.83 299.87 C 523.93 301.46 521.34 301.34 519.08 301.94 C 513.07 303.37 506.82 303.86 501.00 306.05 C 492.73 309.12 483.69 308.27 475.27 310.73 C 474.59 310.13 473.92 309.53 473.25 308.93 C 483.70 306.85 494.33 305.69 504.60 302.75 Z" />
<path fill="#fcfcfc" d=" M 454.04 302.53 C 458.36 301.59 462.45 299.45 466.90 299.26 C 466.84 301.87 463.98 301.91 462.14 302.43 C 452.77 303.96 444.05 307.84 434.96 310.37 C 432.51 310.91 430.20 311.90 427.99 313.04 C 422.75 311.63 418.20 315.43 413.10 315.73 C 415.18 314.81 417.24 313.85 419.24 312.77 C 422.71 312.89 426.06 311.51 428.25 308.79 C 431.81 309.38 435.49 309.32 438.82 307.74 C 443.53 305.03 448.94 304.22 454.04 302.53 Z" />
<path fill="#fcfcfc" d=" M 451.46 315.89 C 455.64 312.73 461.07 312.32 465.80 310.30 C 468.12 308.90 470.41 310.31 471.84 312.18 C 464.80 312.22 458.59 316.25 451.46 315.89 Z" />
<path fill="#fcfcfc" d=" M 462.93 323.27 C 473.59 320.47 484.75 320.27 495.37 317.40 C 495.86 318.42 496.77 319.04 497.74 319.55 C 493.49 318.56 489.79 321.67 485.63 321.86 C 481.06 322.10 476.48 322.30 471.94 322.90 C 467.82 325.29 462.78 324.53 458.44 326.31 C 453.43 328.29 447.98 328.57 442.93 330.38 C 438.02 332.18 432.90 333.54 428.49 336.43 C 426.84 337.22 425.93 335.40 424.92 334.50 C 427.98 333.10 431.31 332.61 434.53 331.78 C 443.90 328.64 453.11 324.78 462.93 323.27 Z" />
<path fill="#fcfcfc" d=" M 499.02 327.85 C 508.79 325.74 518.65 323.74 528.67 323.44 L 529.02 324.05 L 528.98 324.75 C 523.24 325.88 517.04 327.00 511.06 327.73 C 503.84 329.90 496.09 329.87 489.09 332.79 C 484.76 333.15 480.02 334.66 475.90 332.94 C 476.06 332.70 476.37 332.22 476.52 331.98 C 484.20 331.68 491.47 328.98 499.02 327.85 Z" />
<path fill="#383838" d=" M 560.62 327.63 C 562.82 325.66 565.76 325.06 568.53 324.28 C 568.81 324.70 569.36 325.55 569.64 325.97 C 569.34 326.31 568.74 327.00 568.44 327.34 C 565.84 327.71 563.22 327.93 560.62 327.63 Z" />
<path fill="#383838" d=" M 553.91 328.39 C 555.17 326.79 557.10 326.63 558.95 327.10 C 558.87 327.75 558.72 329.06 558.64 329.72 C 557.07 329.66 555.50 329.60 553.95 329.53 C 552.22 331.59 549.52 331.62 547.06 331.65 C 546.63 327.79 551.24 327.28 553.91 328.39 Z" />
<path fill="#fcfcfc" d=" M 395.77 334.72 C 398.45 332.63 401.74 331.30 405.17 331.33 C 403.11 334.34 399.12 334.80 395.77 334.72 Z" />
<path fill="#fcfcfc" d=" M 458.96 335.13 C 461.92 334.60 464.77 333.68 467.69 332.95 C 469.84 333.95 471.98 332.71 474.14 332.35 L 474.15 333.16 C 474.04 333.48 473.83 334.14 473.72 334.46 C 467.87 336.58 461.70 337.13 455.69 338.54 L 455.67 337.83 C 455.73 336.08 457.48 335.37 458.96 335.13 Z" />
<path fill="#383838" d=" M 556.20 332.27 C 557.69 331.09 559.31 333.66 557.74 334.60 C 556.26 335.74 554.63 333.21 556.20 332.27 Z" />
<path fill="#383838" d=" M 551.19 333.39 C 553.04 332.76 554.24 335.91 552.11 336.31 C 550.33 336.82 549.41 333.88 551.19 333.39 Z" />
<path fill="#fcfcfc" d=" M 387.90 335.53 C 390.38 337.14 392.68 334.90 395.01 334.11 C 394.52 335.19 394.09 336.38 392.91 336.87 C 389.83 338.59 386.51 339.90 383.13 340.88 C 378.91 342.96 375.20 346.23 370.25 346.35 C 372.20 345.76 374.15 345.12 376.03 344.31 C 378.45 340.79 383.36 341.03 385.91 337.79 C 386.84 337.26 387.51 336.51 387.90 335.53 Z" />
<path fill="#383838" d=" M 541.43 336.09 C 543.17 335.45 544.95 334.78 546.84 334.72 C 546.83 335.40 546.83 336.75 546.82 337.42 C 543.92 336.97 540.57 338.46 538.07 337.87 C 537.37 335.84 540.16 335.80 541.43 336.09 Z" />
<path fill="#fcfcfc" d=" M 400.19 337.41 C 402.75 335.88 405.81 335.98 408.66 335.47 C 408.97 336.00 409.29 336.54 409.61 337.08 C 405.11 338.82 400.26 339.62 395.93 341.81 C 391.46 344.21 386.39 345.13 381.92 347.52 C 378.84 348.83 376.34 351.38 372.91 351.84 C 371.92 351.95 370.94 352.07 369.95 352.17 C 375.16 350.27 379.27 346.31 384.56 344.59 C 389.52 341.66 395.12 340.11 400.19 337.41 Z" />
<path fill="#fcfcfc" d=" M 476.73 343.72 C 492.50 344.30 506.93 336.27 522.57 335.46 C 522.61 335.98 522.69 337.03 522.72 337.55 C 516.69 338.68 510.72 340.22 504.60 340.84 C 501.22 342.67 497.25 342.62 493.69 343.95 C 488.32 346.03 482.45 345.64 476.85 346.55 C 476.81 345.60 476.76 344.66 476.73 343.72 Z" />
<path fill="#fcfcfc" d=" M 433.72 343.61 C 439.97 343.25 445.61 340.26 451.60 338.77 L 452.05 339.07 C 452.19 339.38 452.46 340.02 452.59 340.34 C 451.96 340.45 450.70 340.65 450.06 340.76 C 446.43 343.49 441.81 344.25 437.92 346.53 C 436.52 345.55 435.12 344.57 433.72 343.61 Z" />
<path fill="#383838" d=" M 548.89 341.55 C 549.79 340.31 551.32 340.11 552.66 339.61 C 553.03 340.19 553.41 340.78 553.80 341.37 C 552.16 342.13 550.42 342.61 548.60 342.43 C 548.38 345.67 544.11 344.34 542.14 343.55 C 540.74 345.01 538.82 343.78 537.21 343.62 L 538.01 345.29 C 535.90 345.66 533.77 346.57 531.62 346.11 C 530.90 341.54 537.18 343.18 539.85 343.26 L 539.36 342.22 C 542.71 343.33 545.47 340.07 548.89 341.55 Z" />
<path fill="#fcfcfc" d=" M 406.92 341.32 C 409.67 340.97 412.43 340.62 415.21 340.60 C 413.72 341.01 412.17 341.17 410.66 341.40 C 410.29 341.76 409.56 342.49 409.20 342.85 C 404.61 344.86 399.85 346.09 394.89 346.76 C 389.00 349.83 382.11 351.17 377.00 355.51 C 375.69 355.44 374.39 355.36 373.09 355.30 C 376.39 353.82 379.88 352.80 383.17 351.29 C 385.54 349.47 388.27 348.22 391.08 347.23 C 396.40 345.38 401.24 342.10 406.92 341.32 Z" />
<path fill="#fcfcfc" d=" M 405.79 347.12 C 409.96 346.00 414.04 344.56 418.24 343.52 C 418.76 343.94 419.79 344.79 420.31 345.22 C 416.14 346.29 411.92 347.30 407.62 347.60 C 404.92 349.25 402.19 350.93 399.14 351.84 C 395.93 352.71 393.15 354.91 389.72 354.91 C 387.57 356.91 384.81 357.60 381.93 357.39 C 386.34 355.81 390.13 352.47 394.92 352.13 C 398.31 349.97 402.05 348.53 405.79 347.12 Z" />
<path fill="#383838" d=" M 524.95 347.45 C 524.31 343.90 528.49 342.43 531.15 343.91 C 532.53 347.67 527.20 347.39 524.95 347.45 Z" />
<path fill="#fcfcfc" d=" M 454.87 350.07 C 461.33 347.62 467.91 345.43 474.77 344.43 C 475.44 344.95 476.10 345.48 476.77 346.02 C 469.15 348.84 460.94 349.86 453.58 353.39 C 452.59 354.07 451.70 354.86 450.90 355.75 C 449.57 355.24 448.26 354.71 446.96 354.14 C 448.63 351.34 452.15 351.22 454.87 350.07 Z" />
<path fill="#fcfcfc" d=" M 406.56 352.87 C 412.13 351.27 417.25 348.26 423.09 347.63 C 424.67 347.09 425.41 348.93 426.46 349.71 C 421.14 350.02 416.22 352.28 410.92 352.65 C 408.68 354.18 406.28 355.49 403.70 356.33 C 403.92 357.84 402.20 359.82 402.02 357.19 C 399.41 358.03 396.69 358.57 393.96 358.04 C 397.95 355.81 402.50 354.95 406.56 352.87 Z" />
<path fill="#383838" d=" M 539.77 350.62 C 541.15 348.07 544.44 348.34 546.89 347.58 C 548.07 347.08 548.36 348.83 549.08 349.41 C 545.95 349.61 542.85 350.04 539.77 350.62 Z" />
<path fill="#383838" d=" M 558.18 353.45 C 560.40 351.96 562.39 349.95 564.93 349.02 C 567.02 349.80 568.96 350.90 570.95 351.92 C 569.29 354.14 566.34 353.21 564.01 353.87 C 562.03 354.15 559.80 355.20 558.18 353.45 Z" />
<path fill="#fcfcfc" d=" M 418.39 354.04 C 421.81 353.22 425.18 352.08 428.33 350.49 C 429.61 351.42 430.69 352.55 431.11 354.13 C 427.46 354.47 423.85 355.09 420.26 355.81 C 419.63 355.22 419.01 354.62 418.39 354.04 Z" />
<path fill="#fcfcfc" d=" M 413.57 355.77 C 415.89 354.75 418.42 355.71 420.80 355.95 C 415.91 357.02 411.55 359.96 406.50 360.37 C 406.48 360.03 406.46 359.36 406.45 359.02 C 409.05 358.49 411.26 356.99 413.57 355.77 Z" />
<path fill="#fcfcfc" d=" M 419.10 360.87 C 424.83 359.90 429.99 356.91 435.86 356.55 C 435.76 357.19 435.56 358.46 435.46 359.09 C 428.36 359.96 421.78 363.05 414.71 363.97 C 415.02 361.63 417.38 361.44 419.10 360.87 Z" />
<path fill="#383838" d=" M 567.50 357.34 C 569.27 357.17 571.10 357.09 572.73 357.95 C 572.43 358.32 571.83 359.08 571.53 359.46 C 569.26 359.50 567.00 359.53 564.74 359.51 C 565.65 358.77 566.57 358.06 567.50 357.34 Z" />
<path fill="#383838" d=" M 555.87 361.30 C 557.06 359.05 559.69 359.09 561.91 359.35 C 561.38 360.35 560.27 360.76 559.42 361.39 C 558.23 361.36 557.04 361.33 555.87 361.30 Z" />
<path fill="#fcfcfc" d=" M 424.22 365.28 C 430.21 363.81 435.97 359.72 442.35 361.45 C 438.25 363.80 433.65 365.13 428.97 365.67 C 427.75 366.00 425.58 365.25 425.23 366.86 C 426.34 367.22 427.48 367.44 428.66 367.52 C 426.51 368.54 424.30 368.35 422.09 367.70 L 421.38 367.46 L 421.13 366.97 C 421.49 365.62 423.19 365.71 424.22 365.28 Z" />
<path fill="#383838" d=" M 561.99 365.54 C 564.47 363.34 568.25 363.80 571.32 363.14 C 569.69 366.63 565.08 366.00 561.90 366.61 C 553.15 369.26 543.95 369.90 535.04 371.88 C 524.03 372.30 513.47 376.11 502.46 376.22 C 497.50 376.58 492.91 378.74 487.95 379.08 C 485.62 379.15 483.21 381.58 481.12 379.86 C 481.09 379.48 481.01 378.73 480.98 378.35 C 486.46 375.70 492.50 374.43 498.56 373.98 C 506.84 373.40 514.86 371.07 523.02 369.68 C 532.42 368.56 541.90 368.12 551.24 366.51 C 554.91 366.70 558.33 364.45 561.99 365.54 Z" />
<path fill="#fcfcfc" d=" M 339.95 366.72 C 347.21 366.96 354.21 363.91 361.50 364.86 C 361.49 364.94 361.47 365.09 361.46 365.17 C 360.92 365.54 359.85 366.29 359.31 366.66 C 358.54 368.06 360.64 369.52 361.91 368.70 C 367.98 368.21 374.11 367.20 380.15 368.61 C 376.83 369.34 373.43 369.46 370.05 369.55 C 366.27 369.59 362.61 370.70 358.85 370.89 C 358.27 371.61 357.69 372.33 357.12 373.06 C 355.53 372.20 354.03 370.68 352.07 371.33 C 344.85 373.18 337.44 374.17 330.01 374.65 C 324.22 375.51 318.94 378.35 313.17 379.31 C 307.66 380.23 302.55 382.69 297.03 383.53 C 300.37 382.34 303.84 381.42 306.94 379.64 C 311.38 378.50 315.51 376.35 320.18 376.09 C 320.40 375.38 320.86 373.96 321.09 373.26 C 318.30 373.19 315.41 373.13 313.09 374.89 C 314.35 373.93 315.49 372.81 316.54 371.62 C 319.21 371.18 321.87 370.59 324.57 370.23 C 325.56 369.78 326.69 369.19 327.70 369.98 C 329.85 369.51 331.91 368.72 333.95 367.88 C 335.98 367.71 338.18 367.96 339.95 366.72 Z" />
<path fill="#fcfcfc" d=" M 433.93 370.34 C 434.23 367.23 437.75 367.49 440.00 366.59 C 441.72 365.74 443.39 366.64 444.97 367.33 C 441.68 369.45 437.70 369.81 433.93 370.34 Z" />
<path fill="#383838" d=" M 340.19 367.96 C 343.10 367.26 346.27 368.10 349.04 366.78 C 351.40 366.61 354.34 365.69 356.33 367.41 C 356.68 367.94 357.40 368.99 357.75 369.51 C 354.11 369.48 350.41 371.10 346.83 369.93 C 339.95 371.68 333.22 374.01 326.09 374.54 C 324.45 375.43 322.57 375.43 320.80 374.91 C 321.43 373.24 322.90 372.24 324.07 371.01 C 329.45 370.01 334.77 368.70 340.19 367.96 Z" />
<path fill="#fcfcfc" d=" M 381.54 372.38 C 383.61 369.62 387.06 370.96 389.94 370.69 C 395.30 370.68 400.68 370.24 406.03 370.82 C 406.84 371.06 408.16 370.80 408.69 371.60 C 408.18 371.70 407.16 371.90 406.65 372.01 C 402.46 372.86 398.17 372.22 393.95 372.72 C 389.81 372.83 385.62 373.16 381.54 372.38 Z" />
<path fill="#fcfcfc" d=" M 359.31 373.55 C 366.90 373.07 374.38 371.77 381.92 370.90 C 381.74 371.40 381.38 372.41 381.19 372.91 C 373.66 374.46 365.93 374.37 358.38 375.82 C 358.61 375.25 359.08 374.12 359.31 373.55 Z" />
<path fill="#fcfcfc" d=" M 452.26 371.22 C 455.22 369.57 452.54 374.59 452.26 371.22 Z" />
<path fill="#383838" d=" M 556.27 374.54 C 556.76 371.77 559.83 372.55 561.90 372.35 C 561.74 373.35 561.59 374.36 561.44 375.37 C 559.70 375.20 557.78 375.57 556.27 374.54 Z" />
<path fill="#fcfcfc" d=" M 350.37 375.48 C 352.96 374.97 355.40 373.93 357.95 373.24 C 357.93 374.28 357.92 375.31 357.90 376.35 C 355.22 376.26 352.55 376.54 349.90 376.83 L 350.15 379.71 C 359.40 380.74 368.40 378.19 377.44 376.70 C 382.62 376.77 387.81 376.84 392.95 375.97 C 391.08 376.99 389.27 378.47 387.08 378.61 C 377.89 378.59 368.80 380.63 359.59 380.26 C 354.04 382.50 347.94 382.10 342.28 383.91 C 337.54 385.20 332.54 385.11 327.89 386.77 C 324.90 387.83 320.73 386.59 318.74 389.43 C 318.77 389.11 318.84 388.48 318.88 388.17 C 314.88 388.93 310.60 388.98 307.09 391.30 C 302.69 392.54 298.23 393.58 293.79 394.69 C 291.66 396.74 286.68 396.53 287.61 400.44 C 289.88 400.93 291.86 399.60 293.93 398.93 C 297.28 397.68 300.90 397.61 304.32 396.68 C 302.35 397.62 300.31 398.41 298.24 399.11 C 293.31 402.58 286.30 401.57 281.98 405.85 C 280.05 406.64 278.14 407.49 276.11 407.97 C 271.46 409.82 266.51 410.82 261.64 411.94 C 261.59 412.63 261.49 414.00 261.44 414.68 C 260.36 414.63 259.27 414.59 258.20 414.56 C 258.24 414.02 258.33 412.94 258.38 412.40 C 258.74 412.44 259.48 412.53 259.85 412.57 C 260.77 411.68 261.76 410.79 263.07 410.56 C 268.06 409.08 272.96 407.34 277.79 405.41 C 278.61 405.46 280.26 405.54 281.08 405.58 C 282.81 403.65 285.35 402.91 287.74 402.18 C 287.82 400.10 286.91 399.11 285.01 399.20 C 281.17 399.77 277.30 400.74 274.10 403.02 C 271.16 405.12 267.46 405.35 264.17 406.59 C 266.87 404.15 270.14 402.70 273.74 402.20 C 277.89 400.03 282.30 398.37 286.41 396.11 C 286.40 395.33 286.40 393.79 286.40 393.02 C 285.51 393.21 283.73 393.61 282.84 393.80 C 286.18 390.50 291.24 390.54 295.28 388.50 C 294.25 389.37 293.23 390.25 292.22 391.14 C 290.16 391.29 288.14 391.71 286.28 392.62 C 287.51 395.45 290.99 396.65 293.10 393.98 C 297.26 393.50 300.84 391.10 304.74 389.72 C 305.31 389.42 306.43 388.81 307.00 388.50 C 309.32 388.87 311.68 388.93 314.01 388.56 C 315.87 387.57 318.01 387.44 320.06 387.14 C 324.07 384.96 328.78 384.98 333.19 384.31 C 337.21 382.56 341.62 382.18 345.79 380.90 C 347.18 380.76 350.50 381.46 349.78 378.92 L 349.82 377.25 C 346.47 378.09 343.03 378.38 339.63 378.90 C 335.80 379.75 331.89 380.16 327.98 380.40 C 320.11 381.81 312.30 383.71 304.80 386.52 C 303.39 389.81 299.22 387.93 296.57 388.53 C 303.15 386.07 309.67 383.36 316.49 381.62 C 320.13 380.19 324.13 380.71 327.88 379.74 C 332.29 378.68 336.72 377.34 341.32 377.59 C 343.79 375.37 347.33 375.97 350.37 375.48 Z" />
<path fill="#fcfcfc" d=" M 394.09 375.60 C 400.29 375.88 406.44 374.41 412.66 374.91 C 418.67 375.50 424.70 375.38 430.74 375.48 C 424.12 378.00 416.90 376.03 410.04 376.75 C 404.50 377.46 398.91 377.65 393.34 377.78 C 393.53 377.23 393.90 376.14 394.09 375.60 Z" />
<path fill="#fcfcfc" d=" M 407.98 380.57 C 414.28 379.59 420.64 379.65 426.99 379.61 C 433.48 379.14 439.99 379.85 446.37 380.95 C 439.62 381.90 432.77 381.00 426.04 382.04 C 419.36 383.04 412.65 381.59 405.97 381.59 C 400.36 382.90 394.54 382.38 388.92 383.60 C 382.24 384.80 375.48 384.61 368.73 384.83 C 358.95 387.65 348.79 388.70 338.77 390.35 C 338.71 391.13 338.63 391.90 338.53 392.68 C 337.66 389.46 334.65 391.34 332.33 391.59 C 330.52 391.43 328.70 391.44 326.90 391.67 C 326.20 392.68 325.35 393.53 324.36 394.23 C 324.28 394.76 324.13 395.82 324.06 396.35 C 327.81 397.34 331.38 395.66 334.80 394.34 C 335.65 394.20 337.36 393.91 338.22 393.76 C 338.91 394.03 340.30 394.55 340.99 394.82 C 337.93 395.56 334.29 395.92 332.25 398.44 C 329.75 394.99 325.99 398.47 322.88 398.81 C 319.79 400.83 316.00 400.28 312.51 400.57 C 312.42 401.19 312.26 402.44 312.18 403.06 C 311.82 403.19 311.09 403.43 310.73 403.56 C 311.10 403.03 311.84 401.96 312.21 401.43 C 311.36 401.27 309.67 400.96 308.82 400.80 C 314.07 400.22 319.01 398.23 324.14 397.08 C 323.35 395.48 322.88 392.64 320.40 393.14 C 320.41 392.81 320.42 392.16 320.42 391.83 C 323.68 391.40 326.92 390.85 330.19 390.52 C 332.81 388.92 335.79 388.31 338.79 387.90 C 349.34 386.82 359.70 384.49 370.22 383.20 C 382.81 382.36 395.33 380.26 407.98 380.57 Z" />
<path fill="#fcfcfc" d=" M 441.44 383.88 C 449.99 382.59 458.73 383.00 467.08 385.27 C 459.70 386.17 452.26 385.31 444.89 386.24 C 443.16 386.80 442.48 384.77 441.44 383.88 Z" />
<path fill="#fcfcfc" d=" M 416.09 387.33 C 417.23 386.40 418.23 384.80 419.86 384.85 C 427.13 384.84 434.38 384.41 441.65 384.31 C 441.43 384.83 441.00 385.87 440.78 386.40 C 432.54 386.43 424.33 388.10 416.09 387.33 Z" />
<path fill="#fcfcfc" d=" M 361.19 390.28 C 374.45 388.54 387.81 387.71 401.07 385.97 C 406.24 385.78 411.41 385.34 416.59 385.33 C 416.38 385.85 415.97 386.88 415.76 387.39 C 409.55 387.55 403.25 387.31 397.16 388.69 C 389.21 390.47 380.94 389.84 372.98 391.33 C 373.75 392.38 374.56 393.41 375.36 394.44 C 381.62 393.98 387.87 393.41 394.12 393.02 C 400.62 391.48 407.30 390.73 413.98 390.73 C 415.64 390.75 417.28 390.38 418.89 390.00 C 427.20 391.03 435.73 391.34 443.95 389.54 C 453.96 390.07 463.96 388.53 473.98 389.05 C 475.57 389.10 477.30 388.88 478.61 390.03 C 474.60 391.50 470.28 391.22 466.08 391.28 C 462.71 391.20 459.29 391.61 455.98 390.84 C 449.02 391.65 442.00 391.52 435.06 392.50 C 424.70 392.40 414.35 393.26 403.99 393.67 C 393.34 394.87 382.68 396.13 371.97 396.57 C 367.58 397.65 363.04 397.86 358.54 397.43 C 363.59 396.74 368.50 395.42 373.49 394.45 C 372.93 393.28 372.44 392.06 372.32 390.75 C 369.19 391.19 365.78 391.19 363.42 393.59 C 362.43 392.27 361.05 391.17 359.37 391.98 C 359.37 391.63 359.37 390.94 359.38 390.59 C 359.83 390.51 360.74 390.36 361.19 390.28 Z" />
<path fill="#fcfcfc" d=" M 270.00 390.54 L 268.18 388.81 C 269.22 389.90 270.64 390.41 272.00 391.01 C 270.05 391.63 267.98 391.44 265.98 391.68 C 263.99 392.54 262.20 393.78 260.39 394.95 C 260.73 396.38 261.07 397.82 261.45 399.25 C 263.02 399.64 264.18 400.77 265.41 401.73 C 267.26 400.87 269.09 399.95 271.05 399.38 C 268.57 400.73 266.00 401.97 263.31 402.85 C 263.33 402.19 263.37 400.86 263.38 400.20 C 261.86 399.84 259.76 400.77 258.76 399.05 L 260.86 398.30 C 260.10 397.57 259.35 396.85 258.58 396.15 C 254.86 398.15 251.65 400.87 249.40 404.47 C 246.43 407.36 244.84 411.28 244.55 415.39 C 243.06 415.20 241.71 415.67 241.19 417.16 C 239.09 421.21 238.27 425.94 239.48 430.38 C 239.11 430.74 238.38 431.44 238.01 431.80 C 235.46 426.33 234.26 419.30 238.05 414.10 C 239.37 411.79 242.24 411.54 244.39 410.40 C 245.53 408.46 246.07 406.25 246.78 404.14 C 241.35 405.37 237.19 409.42 233.79 413.60 C 233.17 417.29 232.25 420.94 232.12 424.70 C 231.71 423.45 231.26 422.21 230.80 421.00 C 230.05 416.25 231.57 411.41 234.83 407.89 C 236.82 405.37 239.81 403.72 241.11 400.67 C 250.45 400.55 257.67 393.61 266.06 390.64 C 267.04 390.62 269.01 390.57 270.00 390.54 Z" />
<path fill="#383838" d=" M 558.95 394.25 C 560.47 391.54 563.65 392.15 566.26 392.43 C 565.43 394.11 563.66 394.70 562.08 395.43 C 561.03 395.03 559.98 394.64 558.95 394.25 Z" />
<path fill="#383838" d=" M 550.36 394.94 C 552.87 394.63 556.48 392.17 558.03 395.32 C 557.20 395.98 556.38 396.63 555.56 397.30 C 553.32 397.35 550.90 398.87 548.84 397.43 C 547.20 398.69 545.19 398.38 543.30 398.15 C 541.30 399.23 539.09 399.69 536.97 398.68 C 535.23 399.84 533.17 399.92 531.18 399.51 C 531.50 397.93 531.62 395.44 533.84 395.48 C 534.58 395.69 536.05 396.09 536.78 396.30 C 538.76 394.57 541.78 394.42 543.53 396.61 C 543.86 396.21 544.54 395.42 544.87 395.02 C 546.70 395.27 548.62 395.90 550.36 394.94 Z" />
<path fill="#383838" d=" M 560.42 399.74 C 562.51 397.55 565.55 398.40 568.05 399.26 C 566.04 400.81 561.70 403.24 560.42 399.74 Z" />
<path fill="#fcfcfc" d=" M 233.34 403.31 C 235.49 402.22 237.80 401.43 239.84 400.10 C 237.21 402.45 234.25 404.42 231.75 406.94 C 229.41 410.81 227.48 414.96 227.07 419.52 C 226.43 419.51 225.15 419.48 224.51 419.47 C 226.47 416.20 226.35 411.94 229.04 409.11 C 230.63 407.29 231.85 405.20 233.34 403.31 Z" />
<path fill="#383838" d=" M 550.42 401.34 C 553.36 400.66 556.54 399.60 559.38 401.25 C 556.72 402.95 553.51 403.27 550.46 403.62 C 550.45 403.05 550.43 401.91 550.42 401.34 Z" />
<path fill="#fcfcfc" d=" M 356.07 405.29 C 356.35 404.01 358.54 398.61 357.05 403.46 C 358.48 405.67 360.59 404.68 362.20 403.43 C 362.53 403.88 363.18 404.79 363.51 405.25 C 361.72 405.46 359.92 405.59 358.14 405.73 C 357.54 410.45 364.09 408.92 366.62 409.49 C 363.08 410.65 359.39 411.79 355.62 411.23 C 356.35 409.52 357.19 407.87 358.06 406.24 C 356.05 406.02 353.56 407.33 351.92 405.67 C 353.30 405.51 354.68 405.38 356.07 405.29 Z" />
<path fill="#383838" d=" M 546.38 401.49 C 547.27 401.76 548.14 402.08 549.01 402.44 C 548.27 403.38 547.36 404.13 546.08 403.84 C 546.15 403.25 546.31 402.08 546.38 401.49 Z" />
<path fill="#fcfcfc" d=" M 315.08 405.87 C 316.88 405.42 318.71 405.07 320.52 404.65 C 320.55 404.79 320.61 405.08 320.64 405.22 C 317.45 406.31 314.13 406.86 310.87 407.63 C 310.61 407.97 310.09 408.65 309.82 408.99 L 309.53 407.86 C 309.06 408.54 308.12 409.88 307.65 410.56 C 306.87 410.50 305.32 410.38 304.54 410.33 C 304.14 411.10 303.74 411.87 303.35 412.65 C 302.27 411.14 300.10 410.61 298.67 412.06 C 298.64 413.12 298.61 414.18 298.59 415.24 C 295.55 412.04 291.30 414.81 287.69 414.88 C 287.56 416.11 287.45 417.34 287.35 418.58 C 286.32 418.53 285.28 418.48 284.26 418.45 L 284.56 416.99 C 281.96 416.70 279.36 416.96 276.79 417.38 C 277.83 416.02 279.54 416.30 281.05 416.24 L 280.66 415.22 C 282.48 415.21 284.29 415.25 286.12 415.28 C 290.75 413.01 296.26 413.27 300.68 410.34 C 300.60 409.52 300.46 407.89 300.39 407.07 C 300.49 407.74 300.71 409.06 300.81 409.72 C 303.12 408.76 305.59 408.57 308.06 408.57 C 309.64 406.23 312.86 407.17 315.08 405.87 Z" />
<path fill="#383838" d=" M 558.62 408.55 C 560.59 407.36 562.59 404.51 565.14 406.00 C 567.11 407.52 564.23 408.37 563.15 408.47 C 561.83 408.65 560.50 408.80 559.18 408.94 C 556.41 409.41 553.64 409.88 551.13 411.20 C 550.62 411.02 549.59 410.64 549.08 410.46 C 548.27 411.13 547.45 411.80 546.64 412.48 C 546.15 412.07 545.17 411.25 544.68 410.84 C 544.91 414.13 541.17 412.57 539.41 412.32 C 539.01 412.22 538.20 412.02 537.80 411.92 C 536.88 413.60 535.07 413.53 533.45 413.44 C 533.53 412.70 533.69 411.23 533.78 410.49 C 535.81 410.75 537.84 411.11 539.89 411.37 L 539.33 409.92 C 540.98 409.97 542.65 410.11 544.31 410.23 C 545.93 409.53 547.57 408.94 549.38 409.36 C 552.24 407.88 555.42 407.21 558.62 406.95 L 558.62 408.55 Z" />
<path fill="#fcfcfc" d=" M 415.12 408.11 C 432.88 409.69 450.80 408.88 468.46 406.49 C 468.81 406.65 469.50 406.98 469.85 407.14 C 469.80 407.48 469.71 408.16 469.66 408.50 C 466.18 409.27 462.61 409.35 459.09 409.73 C 453.05 410.41 447.12 412.31 440.99 411.74 C 431.95 412.12 422.70 409.19 413.89 412.29 C 408.87 411.59 403.91 413.30 398.90 412.65 C 395.23 412.30 391.54 412.76 387.89 412.26 C 392.06 410.82 396.58 412.27 400.83 411.11 C 405.55 409.90 410.51 409.79 415.12 408.11 Z" />
<path fill="#fcfcfc" d=" M 343.77 411.98 C 345.95 411.18 348.18 410.43 350.54 410.67 C 350.54 412.06 350.57 413.44 350.65 414.83 C 350.13 414.09 349.11 412.60 348.60 411.86 C 348.55 412.93 348.45 415.07 348.41 416.14 C 351.40 416.59 354.36 415.35 357.28 414.77 C 362.28 414.83 367.28 414.67 372.29 414.81 C 372.00 414.18 371.43 412.94 371.14 412.31 C 371.56 412.68 372.38 413.43 372.80 413.80 C 376.57 413.80 380.32 413.28 384.09 413.26 C 385.28 412.71 386.78 414.30 385.02 414.76 L 384.11 414.89 C 379.22 415.88 374.23 415.31 369.29 415.51 C 369.36 416.33 369.50 417.97 369.57 418.79 C 367.72 418.65 366.12 418.08 366.39 415.80 C 365.51 416.09 363.76 416.66 362.88 416.95 C 358.25 416.29 353.62 417.66 349.00 417.02 C 350.18 417.69 351.44 418.21 352.71 418.72 C 351.40 419.45 349.36 420.43 348.65 418.45 C 345.79 418.66 342.74 417.98 340.06 419.27 C 336.40 420.83 332.28 420.34 328.40 420.54 C 330.63 419.91 332.95 419.73 335.25 419.49 C 337.47 418.09 338.32 415.79 337.39 413.33 C 338.05 413.31 339.39 413.26 340.06 413.23 C 339.52 413.67 338.44 414.55 337.90 414.99 C 339.27 415.85 340.58 416.83 342.00 417.65 C 343.92 416.96 345.80 416.16 347.78 415.64 L 347.52 413.54 C 346.17 413.26 344.83 412.89 343.77 411.98 Z" />
<path fill="#fcfcfc" d=" M 268.54 414.47 C 270.78 411.57 274.69 412.84 277.82 412.31 C 277.75 412.81 277.61 413.80 277.55 414.30 C 274.94 414.48 271.88 413.68 270.02 416.03 C 269.29 416.11 268.56 416.21 267.84 416.31 C 267.75 415.44 267.66 414.59 267.58 413.74 C 267.82 413.92 268.30 414.28 268.54 414.47 Z" />
<path fill="#fcfcfc" d=" M 317.10 417.53 C 320.03 417.90 322.83 417.00 325.59 416.12 C 325.60 416.62 325.63 417.62 325.65 418.12 C 324.34 418.23 323.04 418.36 321.75 418.51 C 318.85 419.40 315.84 419.70 312.83 419.82 C 311.46 420.27 310.03 420.23 308.65 419.94 C 309.46 419.73 311.10 419.31 311.91 419.11 C 313.55 418.28 315.14 417.03 317.10 417.53 Z" />
<path fill="#fcfcfc" d=" M 242.46 428.17 C 242.83 424.15 242.98 420.00 244.79 416.31 C 245.64 417.93 246.48 419.60 247.33 421.24 C 247.40 422.04 247.55 423.66 247.63 424.47 C 247.24 424.86 246.46 425.65 246.07 426.05 C 246.00 429.60 248.50 432.20 250.45 434.87 C 247.98 434.75 246.09 433.14 244.09 431.93 C 243.51 430.69 242.76 429.51 242.46 428.17 Z" />
<path fill="#fcfcfc" d=" M 295.31 418.69 C 295.90 418.69 297.08 418.68 297.67 418.68 C 297.54 420.41 297.93 422.73 295.45 422.61 L 295.30 423.99 C 292.10 423.11 293.86 421.24 295.74 420.85 C 295.59 420.13 295.45 419.41 295.31 418.69 Z" />
<path fill="#383838" d=" M 563.14 420.30 C 563.91 420.32 565.45 420.38 566.22 420.41 C 565.68 421.61 564.55 422.28 563.48 422.93 C 563.39 422.27 563.22 420.96 563.14 420.30 Z" />
<path fill="#fcfcfc" d=" M 247.37 421.28 C 250.04 421.81 251.41 424.51 253.89 425.47 C 255.71 425.94 255.30 427.97 255.65 429.41 C 257.90 432.22 260.02 435.13 261.99 438.15 C 257.72 437.83 254.97 434.10 251.02 432.88 C 250.76 430.07 250.23 427.30 249.34 424.63 C 248.64 423.54 247.98 422.42 247.37 421.28 Z" />
<path fill="#383838" d=" M 551.49 423.96 C 552.71 421.41 556.51 423.76 558.10 421.29 C 558.80 421.31 560.20 421.36 560.89 421.38 C 561.01 424.54 558.00 424.46 555.92 423.17 C 555.80 425.65 551.66 427.07 551.49 423.96 Z" />
<path fill="#fcfcfc" d=" M 407.43 423.30 C 413.59 421.89 419.97 422.56 426.20 423.05 C 426.40 423.60 426.82 424.70 427.03 425.24 C 416.06 424.81 405.11 425.86 394.15 425.32 C 394.99 424.71 395.82 424.10 396.67 423.50 C 400.25 423.72 403.87 423.92 407.43 423.30 Z" />
<path fill="#fcfcfc" d=" M 219.08 424.11 C 220.99 423.40 221.76 424.05 221.40 426.06 C 220.47 428.38 218.01 429.53 216.20 431.08 C 211.30 435.00 205.55 437.70 200.79 441.81 C 204.02 444.47 198.39 443.40 197.22 444.67 C 197.02 447.16 196.45 449.62 195.59 451.97 C 195.25 451.33 194.92 450.70 194.59 450.07 C 195.55 448.34 197.50 446.77 196.78 444.54 C 196.41 444.55 195.67 444.57 195.30 444.58 C 196.33 443.58 197.23 441.70 199.03 442.60 C 200.35 438.96 204.54 437.65 206.44 434.37 L 204.35 434.26 C 206.14 432.90 207.83 431.45 209.50 429.95 C 209.50 430.57 209.51 431.79 209.51 432.41 C 213.46 430.58 215.82 426.79 219.08 424.11 Z" />
<path fill="#fcfcfc" d=" M 380.74 426.16 C 383.53 423.03 387.78 424.21 391.35 424.73 C 387.92 425.82 384.38 427.08 380.74 426.16 Z" />
<path fill="#fcfcfc" d=" M 256.68 427.42 C 261.47 428.29 266.34 428.77 271.03 430.15 C 275.34 430.67 279.99 430.36 283.86 432.64 C 283.26 432.64 282.06 432.64 281.46 432.64 C 280.48 437.55 286.94 438.72 288.27 442.82 C 282.43 443.76 278.35 439.08 274.59 435.44 C 273.36 434.38 272.82 432.83 272.28 431.36 C 270.85 430.97 269.41 430.63 267.97 430.34 C 268.00 435.80 274.06 437.44 277.14 441.00 C 273.45 441.46 269.58 440.73 266.62 438.42 C 263.45 434.62 259.74 431.30 256.68 427.42 Z" />
<path fill="#383838" d=" M 553.36 429.62 C 553.92 429.61 555.05 429.58 555.61 429.56 C 555.61 430.47 555.61 431.39 555.63 432.31 C 555.07 432.32 553.94 432.35 553.38 432.36 C 553.36 431.44 553.36 430.53 553.36 429.62 Z" />
<path fill="#383838" d=" M 545.54 431.02 C 546.98 430.96 548.74 429.86 549.99 431.04 C 550.75 431.99 550.70 433.32 551.08 434.45 C 549.43 434.40 547.79 434.34 546.15 434.35 C 545.93 433.24 545.73 432.13 545.54 431.02 Z" />
<path fill="#fcfcfc" d=" M 292.09 432.49 C 293.64 433.34 294.93 430.83 296.38 432.01 C 299.32 434.01 303.62 432.58 306.12 435.24 C 305.05 435.27 302.90 435.32 301.83 435.35 C 303.43 440.66 309.61 442.00 312.94 445.93 C 307.46 446.48 301.97 443.63 298.06 439.96 C 295.78 438.10 294.58 434.49 291.24 434.38 C 292.71 437.44 294.47 440.74 297.84 442.00 C 300.04 443.33 303.66 443.41 304.01 446.56 C 299.85 445.76 295.31 444.92 292.18 441.84 C 289.93 439.77 287.35 438.12 284.99 436.19 C 284.98 435.39 284.94 433.78 284.92 432.97 C 286.62 431.14 289.84 432.23 292.09 432.49 Z" />
<path fill="#383838" d=" M 528.17 435.35 C 528.26 433.49 529.23 432.15 530.91 431.36 C 531.74 432.06 532.55 432.90 533.45 433.56 C 534.69 432.46 535.83 430.93 537.67 431.87 C 539.94 431.39 542.23 431.00 544.56 430.86 C 544.84 431.62 545.40 433.15 545.68 433.91 C 543.07 434.61 540.38 434.91 537.69 434.86 C 534.59 435.63 531.30 436.42 528.17 435.35 Z" />
<path fill="#fcfcfc" d=" M 305.21 433.89 C 308.66 433.87 312.25 433.53 315.55 434.79 C 315.66 435.04 315.88 435.54 315.99 435.79 C 315.55 436.10 314.66 436.71 314.22 437.01 C 317.26 444.42 325.74 446.18 330.86 451.58 C 325.10 450.07 319.44 447.85 314.57 444.38 C 311.05 441.27 307.97 437.67 305.21 433.89 Z" />
<path fill="#fcfcfc" d=" M 317.27 435.72 C 317.19 435.42 317.04 434.82 316.96 434.52 C 320.76 434.94 324.63 435.06 328.31 436.18 L 329.26 437.76 C 328.46 437.74 326.85 437.70 326.05 437.67 C 327.03 439.06 328.01 440.45 328.98 441.86 C 332.42 444.92 337.00 446.22 340.31 449.41 C 333.74 450.16 327.35 446.55 322.71 442.14 C 320.46 440.38 319.33 437.65 317.27 435.72 Z" />
<path fill="#fcfcfc" d=" M 219.52 436.23 C 219.54 436.84 219.56 437.47 219.59 438.10 C 218.54 438.79 217.51 439.51 216.49 440.25 C 215.62 445.07 214.54 449.98 215.55 454.89 C 216.79 460.08 216.11 465.54 214.28 470.51 C 213.74 472.16 211.88 472.45 210.55 473.17 C 210.55 473.80 210.54 475.07 210.54 475.71 L 210.12 475.86 C 208.60 473.74 205.75 472.62 204.90 470.08 C 204.33 463.67 206.61 457.47 208.59 451.49 C 209.68 450.35 210.99 449.45 212.23 448.48 C 212.80 449.21 213.95 450.66 214.52 451.38 C 214.13 449.07 215.71 445.47 212.61 444.48 C 215.27 445.61 214.23 442.90 214.46 441.59 C 216.17 439.82 217.89 438.07 219.52 436.23 Z" />
<path fill="#383838" d=" M 546.18 437.34 C 547.60 436.45 550.43 435.70 550.84 438.03 C 550.30 438.59 549.74 439.14 549.18 439.68 C 548.17 438.91 547.17 438.13 546.18 437.34 Z" />
<path fill="#fcfcfc" d=" M 328.67 436.39 C 334.20 436.51 339.82 436.29 345.20 437.80 C 345.24 439.10 345.80 440.02 346.90 440.57 C 347.16 439.97 347.67 438.76 347.92 438.15 C 352.89 438.06 357.76 440.11 362.68 439.35 C 362.52 439.61 362.20 440.12 362.04 440.38 C 364.92 440.40 367.83 440.29 370.67 440.96 C 370.17 442.88 369.05 445.09 370.28 446.99 C 372.05 449.72 374.51 451.94 377.25 453.69 C 379.79 455.27 381.22 458.57 384.55 458.68 C 384.50 459.10 384.41 459.94 384.37 460.36 C 384.71 460.64 385.38 461.20 385.72 461.48 C 382.27 459.46 379.03 456.83 375.03 456.03 C 373.02 455.40 370.42 455.67 369.14 453.69 C 366.10 449.75 362.48 446.33 358.99 442.81 C 357.35 441.13 355.00 440.56 352.86 439.82 C 352.84 442.90 355.86 444.00 357.46 446.13 C 360.31 450.55 366.52 450.92 369.10 455.64 C 358.01 454.12 349.89 445.72 341.73 438.83 C 339.79 441.14 341.84 443.72 343.72 445.24 C 346.64 447.52 349.75 449.57 352.41 452.18 C 348.46 451.37 344.59 450.15 340.90 448.54 C 336.29 445.07 332.68 440.49 328.67 436.39 Z" />
<path fill="#383838" d=" M 538.01 438.75 C 539.84 437.93 541.77 437.42 543.74 437.05 C 543.96 437.51 544.38 438.43 544.60 438.88 C 542.35 439.45 539.60 441.61 538.01 438.75 Z" />
<path fill="#383838" d=" M 523.18 439.21 C 525.29 438.12 527.55 438.67 529.64 439.51 C 529.61 440.09 529.54 441.25 529.51 441.83 C 527.63 442.24 525.71 442.36 523.80 442.25 C 521.57 442.45 518.65 443.46 517.24 441.09 C 518.12 438.46 521.04 438.90 523.18 439.21 Z" />
<path fill="#383838" d=" M 530.57 438.49 C 531.46 438.72 533.23 439.19 534.12 439.43 C 535.72 437.82 537.95 438.28 539.05 440.28 C 536.18 441.39 533.07 440.94 530.11 441.55 C 530.23 440.79 530.46 439.26 530.57 438.49 Z" />
<path fill="#fcfcfc" d=" M 233.31 443.86 C 233.50 442.73 234.01 441.75 234.84 440.92 C 236.43 446.10 238.29 451.19 239.79 456.40 C 242.15 461.32 244.62 466.19 246.78 471.20 C 246.36 471.21 245.52 471.23 245.10 471.24 C 249.21 472.21 248.30 477.59 248.43 480.86 C 247.01 481.79 245.61 482.76 244.25 483.78 C 239.30 484.08 234.96 481.43 231.85 477.80 C 231.11 474.18 232.65 470.69 232.83 467.10 C 234.02 459.40 232.81 451.59 233.31 443.86 Z" />
<path fill="#383838" d=" M 545.87 445.62 C 547.02 443.50 551.11 442.45 551.97 445.41 C 553.60 443.85 555.82 442.15 557.63 444.53 C 556.99 445.12 556.36 445.72 555.74 446.32 C 554.31 445.61 552.69 445.81 551.17 445.76 L 551.61 446.93 C 549.92 447.14 548.23 447.36 546.55 447.58 L 546.60 446.20 C 544.19 446.75 541.76 447.20 539.30 447.31 C 537.90 448.36 536.38 448.61 535.06 447.24 C 534.33 447.98 533.62 448.73 532.93 449.51 C 531.95 449.02 530.98 448.54 530.01 448.07 C 530.92 447.04 531.89 446.06 532.86 445.09 C 533.38 445.51 534.41 446.34 534.92 446.75 C 538.19 445.41 542.65 443.27 545.87 445.62 Z" />
<path fill="#383838" d=" M 507.21 450.98 C 507.22 449.07 507.71 446.69 509.94 446.33 C 512.62 446.15 516.09 445.13 517.88 447.80 C 519.30 445.51 521.55 445.79 523.77 446.53 C 525.66 446.10 527.58 445.92 529.52 445.85 C 529.63 446.81 529.86 448.73 529.97 449.69 C 527.90 450.08 525.90 449.73 524.06 448.77 C 521.54 449.68 518.82 449.36 516.27 450.06 C 513.22 450.12 510.27 451.09 507.21 450.98 Z" />
<path fill="#383838" d=" M 545.93 453.24 C 547.63 452.10 549.98 450.65 551.84 452.38 C 551.77 454.36 549.31 455.11 548.04 453.60 C 545.96 456.30 541.77 456.31 539.47 453.89 C 541.41 452.96 543.91 451.73 545.93 453.24 Z" />
<path fill="#383838" d=" M 556.11 451.28 C 559.47 451.38 554.53 454.21 556.11 451.28 Z" />
<path fill="#fcfcfc" d=" M 220.90 457.12 C 221.49 457.74 222.10 458.35 222.65 459.03 C 222.37 465.86 220.53 472.77 216.06 478.09 C 215.12 478.36 214.17 478.60 213.21 478.81 C 212.07 479.50 210.83 479.87 209.48 479.91 C 211.15 478.77 213.07 478.08 214.92 477.30 C 215.07 476.98 215.36 476.33 215.51 476.01 C 218.14 474.50 218.77 471.45 219.45 468.75 C 220.04 465.73 220.74 462.64 220.10 459.57 C 220.30 458.96 220.70 457.73 220.90 457.12 Z" />
<path fill="#fcfcfc" d=" M 225.81 458.25 C 225.98 458.25 226.30 458.25 226.47 458.25 C 226.88 462.58 225.02 467.10 226.53 471.26 C 223.44 472.21 222.75 475.89 222.06 478.64 C 222.65 478.62 223.83 478.59 224.43 478.58 L 224.52 480.83 C 222.94 480.63 221.35 480.43 219.77 480.24 C 219.62 479.78 219.34 478.87 219.19 478.41 C 219.72 478.17 220.78 477.68 221.31 477.44 C 222.33 473.62 222.64 469.59 224.39 466.00 C 224.95 463.43 225.49 460.85 225.81 458.25 Z" />
<path fill="#fcfcfc" d=" M 246.24 459.19 C 249.11 457.60 246.43 462.64 246.24 459.19 Z" />
<path fill="#383838" d=" M 549.09 462.51 C 548.85 460.07 550.84 459.12 552.98 459.46 C 554.21 461.50 556.19 460.49 557.76 459.60 C 558.10 460.21 558.45 460.83 558.81 461.45 C 557.46 461.40 556.12 461.36 554.78 461.32 C 553.63 463.40 550.96 462.23 549.09 462.51 Z" />
<path fill="#fcfcfc" d=" M 354.86 463.94 C 355.97 463.76 357.08 463.58 358.21 463.57 C 358.39 464.16 358.77 465.35 358.95 465.95 C 357.57 465.32 356.21 464.62 354.86 463.94 Z" />
<path fill="#383838" d=" M 549.37 470.49 C 548.66 467.02 552.37 467.68 554.52 467.17 L 554.13 468.11 C 555.37 468.14 556.61 468.17 557.87 468.21 L 557.79 466.95 C 558.43 467.72 560.12 468.05 559.73 469.36 C 559.15 469.57 558.00 470.00 557.42 470.21 L 557.88 468.80 C 556.63 468.82 555.38 468.84 554.14 468.87 L 555.10 470.16 C 553.20 470.46 551.01 472.19 549.37 470.49 Z" />
<path fill="#fcfcfc" d=" M 429.14 475.17 C 432.14 473.53 429.24 478.60 429.14 475.17 Z" />
<path fill="#fcfcfc" d=" M 453.99 476.07 C 457.61 476.65 462.60 475.83 464.97 479.14 C 462.16 478.69 459.40 478.03 456.67 477.28 C 456.00 476.98 454.66 476.37 453.99 476.07 Z" />
<path fill="#fcfcfc" d=" M 324.49 477.34 C 327.99 477.27 330.91 479.48 334.30 479.96 C 335.15 480.59 336.00 481.23 336.84 481.88 C 336.01 481.40 335.19 480.92 334.37 480.43 C 331.67 480.43 329.09 479.64 326.53 478.89 C 326.40 479.35 326.14 480.29 326.01 480.76 C 325.50 479.60 324.99 478.48 324.49 477.34 Z" />
<path fill="#383838" d=" M 563.31 476.99 C 564.38 475.41 566.59 477.41 565.57 478.80 C 564.52 480.35 562.22 478.36 563.31 476.99 Z" />
<path fill="#383838" d=" M 387.03 482.06 C 388.45 480.32 390.53 479.95 392.68 480.07 C 392.73 480.46 392.83 481.26 392.88 481.65 C 392.97 477.48 397.81 480.79 399.99 480.72 C 399.09 481.54 398.18 482.34 397.25 483.13 C 398.25 482.88 399.25 482.62 400.25 482.35 C 402.20 480.01 405.61 482.66 408.08 482.66 C 414.72 484.79 421.71 486.01 427.94 489.30 C 431.49 489.66 434.88 490.83 438.34 491.66 C 440.93 493.13 443.90 493.35 446.82 493.35 L 446.50 494.75 C 456.64 498.18 466.51 502.74 477.17 504.37 C 478.01 504.60 478.84 504.90 479.66 505.25 C 485.02 504.03 489.33 508.44 494.61 507.71 C 493.82 505.86 491.81 505.63 490.19 505.06 C 486.57 504.32 483.04 503.20 479.41 502.54 C 479.78 501.23 480.23 499.94 480.70 498.67 C 488.95 500.16 497.43 501.20 505.23 504.42 C 507.65 504.57 510.08 504.45 512.50 504.74 C 512.40 505.59 512.21 507.31 512.12 508.17 C 509.42 508.57 506.66 508.36 503.96 508.52 C 505.10 512.59 511.89 508.13 512.85 512.75 C 514.17 511.54 515.42 510.25 516.67 508.97 C 513.85 509.54 514.43 506.77 513.86 505.24 C 518.41 505.74 523.56 504.92 527.50 507.74 C 527.87 507.36 528.62 506.60 528.99 506.22 C 533.32 507.14 537.74 507.79 542.19 507.60 C 544.06 508.46 546.39 509.07 545.84 511.78 C 541.19 511.48 536.51 510.56 531.87 511.12 C 530.04 510.92 528.73 509.30 527.15 508.53 C 526.56 508.89 525.37 509.62 524.77 509.98 C 523.99 512.41 520.96 512.70 519.08 513.99 C 517.49 514.76 513.81 515.45 514.19 512.54 C 512.89 513.39 511.65 514.68 509.97 514.55 C 503.84 513.51 497.97 510.84 491.63 511.37 C 490.93 510.87 490.23 510.37 489.54 509.88 C 483.85 510.05 478.36 508.52 472.90 507.19 C 464.41 505.35 456.11 502.72 447.97 499.74 C 442.14 498.35 436.39 496.61 430.91 494.20 C 424.65 492.37 418.27 491.01 412.06 488.99 C 410.60 488.61 409.09 488.37 407.60 488.19 C 406.91 487.74 406.22 487.29 405.53 486.86 C 400.69 485.89 396.03 483.75 391.01 483.88 C 389.67 483.28 388.34 482.67 387.03 482.06 Z" />
<path fill="#383838" d=" M 415.43 479.51 C 416.04 479.94 417.26 480.80 417.87 481.23 C 423.65 480.75 428.74 483.71 434.31 484.53 C 440.57 486.29 446.99 487.44 453.08 489.79 C 454.38 490.58 455.68 491.42 457.17 491.87 C 463.67 493.52 470.20 495.11 476.65 497.00 C 478.75 497.55 478.89 500.30 478.46 502.06 C 473.10 501.49 468.14 499.27 462.93 498.03 C 458.84 496.56 454.24 496.07 450.64 493.55 L 449.89 493.41 C 447.89 494.33 446.93 493.37 446.60 491.40 C 445.40 493.27 443.46 493.02 441.51 492.57 L 441.35 491.76 C 438.88 491.40 436.51 490.61 434.21 489.71 C 427.78 488.46 421.86 485.43 415.44 484.18 C 415.43 482.62 415.42 481.06 415.43 479.51 Z" />
<path fill="#fcfcfc" d=" M 358.19 483.85 C 365.29 483.66 372.00 486.37 379.02 486.97 C 382.59 487.12 385.76 489.91 389.34 489.09 C 388.97 489.97 388.61 490.84 388.22 491.71 C 384.47 490.67 380.72 489.63 377.01 488.45 C 373.72 487.39 369.98 487.69 367.06 485.59 C 365.54 485.52 364.03 485.55 362.52 485.68 L 363.82 484.71 C 361.93 484.44 360.06 484.20 358.19 483.85 Z" />
<path fill="#fcfcfc" d=" M 351.64 487.18 C 354.32 487.44 357.02 487.81 359.64 488.51 C 359.74 488.87 359.94 489.57 360.04 489.93 L 359.86 490.65 C 357.14 489.62 353.20 490.08 351.64 487.18 Z" />
<path fill="#fcfcfc" d=" M 361.17 490.13 C 361.49 489.93 362.12 489.55 362.44 489.35 C 369.76 490.51 376.80 492.91 383.93 494.87 C 387.82 495.64 391.80 496.23 395.49 497.78 C 395.65 498.43 395.62 499.10 395.40 499.77 C 390.07 499.23 385.08 497.27 379.87 496.23 C 373.79 494.30 367.51 493.09 361.44 491.16 C 361.37 490.90 361.24 490.38 361.17 490.13 Z" />
<path fill="#383838" d=" M 552.24 490.41 C 553.77 490.29 555.29 490.65 556.79 490.99 C 556.74 491.64 556.64 492.94 556.60 493.59 C 554.66 493.50 551.22 493.30 552.24 490.41 Z" />
<path fill="#fcfcfc" d=" M 388.87 491.89 C 390.40 491.17 392.12 490.16 393.86 490.75 C 398.87 492.13 403.95 493.19 408.82 495.04 C 408.11 495.57 407.40 496.11 406.69 496.65 C 400.78 494.93 394.87 493.23 388.87 491.89 Z" />
<path fill="#383838" d=" M 558.24 491.41 C 560.44 491.22 563.08 491.17 564.20 493.49 C 562.54 493.63 560.89 493.73 559.25 493.79 C 558.90 492.99 558.56 492.20 558.24 491.41 Z" />
<path fill="#383838" d=" M 566.97 494.92 C 565.43 494.14 565.46 493.39 567.05 492.67 C 568.57 493.47 568.54 494.22 566.97 494.92 Z" />
<path fill="#383838" d=" M 553.16 499.20 C 554.99 497.77 557.02 498.94 558.89 499.66 C 561.26 498.99 564.41 498.79 565.15 501.78 C 562.88 501.60 560.67 501.10 558.61 500.13 C 558.48 500.66 558.23 501.73 558.10 502.27 C 556.45 501.25 554.81 500.20 553.16 499.20 Z" />
<path fill="#383838" d=" M 533.29 501.17 C 534.21 501.10 536.07 500.96 537.00 500.89 C 538.36 501.12 540.01 503.73 541.04 501.44 C 541.96 501.60 543.80 501.90 544.73 502.05 C 544.69 503.13 544.63 505.27 544.60 506.35 C 541.11 504.98 537.09 507.38 534.07 505.00 C 533.88 504.04 533.48 502.12 533.29 501.17 Z" />
<path fill="#383838" d=" M 546.33 502.41 C 549.54 501.57 551.80 505.31 554.99 504.30 C 556.80 503.72 558.10 505.19 559.43 506.10 C 561.78 504.05 564.93 504.46 566.93 506.81 C 567.94 505.88 568.98 504.99 570.06 504.13 C 571.00 505.43 571.91 506.74 572.82 508.08 C 571.15 509.43 569.48 510.77 567.87 512.19 C 565.36 512.14 561.37 514.23 560.25 510.82 C 561.28 509.96 562.44 509.29 563.62 508.65 C 562.00 508.63 560.56 508.12 559.78 506.62 C 557.66 509.67 553.38 508.25 552.95 504.71 C 552.49 505.45 551.58 506.92 551.13 507.65 C 549.71 507.46 548.29 507.29 546.88 507.13 C 545.95 505.84 544.61 503.62 546.33 502.41 Z" />
<path fill="#fcfcfc" d=" M 516.33 511.22 C 517.19 510.21 518.06 509.20 518.92 508.18 C 520.13 509.04 521.48 509.50 522.98 509.55 C 521.74 510.16 520.53 510.81 519.35 511.51 C 518.59 511.44 517.08 511.29 516.33 511.22 Z" />
<path fill="#383838" d=" M 546.70 509.02 C 548.91 509.11 551.11 509.49 553.28 509.96 C 552.75 513.76 548.62 511.60 546.27 511.43 C 546.38 510.83 546.59 509.62 546.70 509.02 Z" />
<path fill="#383838" d=" M 554.55 511.54 C 555.16 509.82 557.09 510.61 558.47 510.47 C 558.55 511.01 558.73 512.07 558.82 512.60 C 557.75 512.92 556.68 513.25 555.62 513.59 C 555.23 512.90 554.79 512.28 554.55 511.54 Z" />
</svg>
