<?xml version="1.0" encoding="UTF-8" ?>
<!DOCTYPE svg PUBLIC "-//W3C//DTD SVG 1.1//EN" "http://www.w3.org/Graphics/SVG/1.1/DTD/svg11.dtd">
<svg width="682pt" height="599pt" viewBox="0 0 682 599" version="1.1" xmlns="http://www.w3.org/2000/svg">
<path fill="#ffffff" d=" M 0.00 0.00 L 682.00 0.00 L 682.00 599.00 L 0.00 599.00 L 0.00 0.00 Z" />
<path fill="#ada393" d=" M 27.44 102.45 C 31.84 96.86 39.34 95.30 46.04 94.62 C 61.53 93.52 76.94 96.50 91.98 99.92 C 130.93 109.39 168.39 124.05 205.20 139.77 C 219.86 146.02 234.23 152.94 248.80 159.39 C 246.18 162.07 243.04 164.11 239.90 166.09 C 238.73 165.23 237.58 164.34 236.26 163.73 C 216.66 154.98 196.84 146.69 176.70 139.24 C 155.61 131.58 134.21 124.52 112.15 120.24 C 100.88 118.22 89.28 116.42 77.87 118.36 C 72.91 119.29 67.59 121.38 65.00 126.01 C 62.31 130.88 63.59 136.74 65.45 141.66 C 69.02 150.68 74.88 158.54 80.95 166.02 C 93.64 181.27 108.21 194.82 123.15 207.82 C 143.80 225.62 165.49 242.18 187.66 258.03 L 188.40 256.67 C 188.58 256.80 188.95 257.07 189.13 257.21 C 188.76 258.60 189.48 259.63 190.67 260.29 C 200.13 266.86 209.71 273.26 219.37 279.54 C 220.40 280.23 221.67 280.33 222.85 280.57 C 224.68 281.49 226.42 282.58 228.10 283.76 C 240.01 292.00 252.35 299.60 264.40 307.62 C 265.45 308.87 266.42 310.26 267.86 311.12 C 293.81 327.15 320.20 342.45 347.01 357.01 C 352.83 359.82 358.14 364.01 364.64 365.17 C 375.01 370.23 385.46 375.20 395.50 380.89 C 398.95 383.83 403.24 385.43 407.21 387.52 C 419.90 394.05 432.72 400.35 445.78 406.11 C 445.89 406.15 446.11 406.24 446.21 406.28 C 481.85 421.98 518.16 436.70 556.06 446.00 C 570.22 449.20 584.81 452.19 599.38 450.57 C 605.80 449.76 613.48 447.10 615.40 440.15 C 617.34 431.92 613.01 423.92 608.96 417.04 C 599.03 401.39 585.83 388.17 572.50 375.43 C 550.66 355.02 527.12 336.52 503.09 318.77 C 502.01 317.93 500.66 317.53 499.41 317.06 L 498.85 316.83 C 499.20 312.91 499.45 308.97 500.42 305.15 C 501.04 305.95 501.75 306.68 502.53 307.34 C 535.40 330.44 567.48 354.77 597.36 381.67 C 612.08 395.22 626.58 409.20 638.74 425.15 C 644.93 433.53 651.06 442.46 653.34 452.80 C 654.70 458.64 653.22 465.59 648.00 469.09 C 640.45 474.23 630.80 474.29 622.02 474.12 C 600.19 472.96 578.95 467.14 558.12 460.87 C 516.41 447.79 476.05 430.75 436.52 412.18 C 437.26 411.49 438.00 410.80 438.76 410.13 C 424.37 403.77 410.50 396.29 396.03 390.11 C 395.41 390.40 394.18 390.98 393.56 391.27 C 391.23 390.05 388.86 388.94 386.53 387.74 C 382.72 385.61 378.82 383.68 374.89 381.78 C 370.80 379.50 366.66 377.29 362.44 375.23 C 357.12 372.36 351.90 369.31 346.48 366.62 C 321.60 352.85 296.95 338.69 272.50 324.17 C 263.48 318.53 254.36 313.04 245.30 307.47 C 238.93 303.10 232.40 298.98 225.91 294.79 C 226.43 294.45 227.46 293.76 227.98 293.42 C 214.54 284.64 201.50 275.23 188.01 266.53 C 188.53 267.91 189.01 269.32 189.40 270.75 L 187.77 269.66 C 156.99 248.28 126.69 226.13 98.09 201.87 C 80.12 186.59 62.63 170.63 47.20 152.75 C 39.00 142.98 30.93 132.70 26.44 120.63 C 24.31 114.84 23.41 107.64 27.44 102.45 Z" />
<path fill="#ffffff" d=" M 36.01 105.06 C 41.06 100.23 48.41 99.12 55.10 98.67 C 75.14 98.15 94.84 102.88 114.02 108.23 C 133.28 113.62 152.12 120.37 170.81 127.45 C 169.87 127.85 168.91 127.18 168.03 126.95 C 150.97 120.43 133.70 114.44 116.15 109.41 C 100.39 104.98 84.37 101.04 67.99 99.78 C 59.27 99.35 50.05 99.04 41.96 102.85 C 37.25 105.02 33.68 109.74 33.60 115.03 C 33.40 122.92 37.22 130.18 41.09 136.81 C 54.16 157.64 72.35 174.53 90.16 191.23 C 87.80 189.88 85.88 187.94 83.89 186.12 C 69.78 172.84 55.85 159.17 44.46 143.42 C 39.44 136.29 34.68 128.69 32.60 120.12 C 31.35 114.95 31.98 108.88 36.01 105.06 Z" />
<path fill="#ffffff" d=" M 65.00 126.01 C 67.59 121.38 72.91 119.29 77.87 118.36 C 89.28 116.42 100.88 118.22 112.15 120.24 C 134.21 124.52 155.61 131.58 176.70 139.24 C 196.84 146.69 216.66 154.98 236.26 163.73 C 237.58 164.34 238.73 165.23 239.90 166.09 C 238.01 165.76 236.11 165.40 234.36 164.60 C 215.25 155.96 195.80 148.09 176.10 140.90 C 156.25 133.84 136.10 127.37 115.35 123.54 C 105.34 121.82 95.06 120.39 84.92 121.87 C 79.75 122.69 74.09 124.61 71.27 129.37 C 68.58 133.99 69.69 139.67 71.44 144.42 C 74.75 153.12 80.33 160.71 86.12 167.91 C 98.57 183.03 112.95 196.42 127.69 209.26 C 147.15 226.03 167.50 241.74 188.40 256.67 L 187.66 258.03 C 165.49 242.18 143.80 225.62 123.15 207.82 C 108.21 194.82 93.64 181.27 80.95 166.02 C 74.88 158.54 69.02 150.68 65.45 141.66 C 63.59 136.74 62.31 130.88 65.00 126.01 Z" />
<path fill="#d8d4c1" d=" M 84.92 121.87 C 95.06 120.39 105.34 121.82 115.35 123.54 C 136.10 127.37 156.25 133.84 176.10 140.90 C 195.80 148.09 215.25 155.96 234.36 164.60 C 236.11 165.40 238.01 165.76 239.90 166.09 C 236.04 169.47 232.24 172.91 228.61 176.53 C 227.83 177.42 226.70 177.75 225.63 178.12 C 206.98 170.48 187.73 164.09 167.98 159.93 C 159.11 158.07 149.96 157.12 140.91 158.14 C 136.59 158.72 131.87 160.79 130.18 165.12 C 128.32 173.34 133.33 180.87 137.71 187.36 C 152.60 207.77 172.44 223.75 191.65 239.87 C 207.77 252.92 224.76 264.85 241.84 276.60 C 291.48 310.22 343.62 340.17 397.58 366.29 C 408.83 371.57 420.05 376.91 431.51 381.73 C 441.12 385.76 450.68 390.00 460.56 393.36 C 480.97 400.70 501.68 407.94 523.32 410.59 C 530.38 411.26 538.00 411.75 544.55 408.50 C 548.33 406.67 550.63 402.19 549.67 398.07 C 548.09 389.75 542.91 382.75 537.83 376.21 C 525.32 360.69 510.11 347.68 495.05 334.73 C 495.81 328.66 498.03 322.89 498.85 316.83 L 499.41 317.06 C 500.55 318.41 501.67 319.81 503.12 320.86 C 519.04 332.49 534.49 344.74 549.51 357.51 C 564.29 370.29 578.73 383.57 591.39 398.50 C 597.40 405.76 603.28 413.31 607.09 421.99 C 609.46 427.45 611.26 434.31 607.82 439.72 C 604.14 445.20 597.06 446.54 590.94 447.11 C 576.51 448.04 562.21 444.98 548.25 441.66 C 513.92 432.93 480.93 419.72 448.50 405.64 C 447.66 405.36 446.90 405.57 446.21 406.28 C 446.11 406.24 445.89 406.15 445.78 406.11 L 446.37 404.58 C 429.24 397.06 412.14 389.43 395.50 380.89 C 385.46 375.20 375.01 370.23 364.64 365.17 C 345.04 354.16 325.10 343.75 305.76 332.27 C 291.81 324.33 278.28 315.66 264.40 307.62 C 252.35 299.60 240.01 292.00 228.10 283.76 C 226.42 282.58 224.68 281.49 222.85 280.57 C 211.29 273.27 200.29 265.11 189.13 257.21 C 188.95 257.07 188.58 256.80 188.40 256.67 C 167.50 241.74 147.15 226.03 127.69 209.26 C 112.95 196.42 98.57 183.03 86.12 167.91 C 80.33 160.71 74.75 153.12 71.44 144.42 C 69.69 139.67 68.58 133.99 71.27 129.37 C 74.09 124.61 79.75 122.69 84.92 121.87 Z" />
<path fill="#cbc4ba" d=" M 172.08 128.17 C 176.19 128.63 180.08 130.84 183.92 132.42 L 184.88 133.62 C 180.65 132.47 176.65 130.65 172.55 129.14 C 172.43 128.90 172.19 128.41 172.08 128.17 Z" />
<path fill="#4a4235" d=" M 282.20 142.99 C 304.43 135.42 328.35 133.48 351.62 136.07 L 351.61 136.24 C 351.59 136.66 351.54 137.49 351.52 137.91 C 355.09 141.56 358.50 146.22 363.86 147.15 C 379.83 151.46 395.02 158.30 409.25 166.68 C 425.23 175.84 440.97 185.87 453.82 199.21 C 457.89 204.13 464.61 205.90 470.74 206.23 C 483.32 223.45 492.58 243.23 497.17 264.08 C 497.03 264.77 496.75 266.16 496.60 266.85 C 494.47 263.17 492.14 259.41 488.15 257.52 C 484.14 252.99 481.06 247.72 479.00 242.04 C 475.20 231.87 469.43 222.60 463.44 213.61 C 459.72 208.76 456.55 202.50 450.06 201.04 C 444.79 200.00 441.54 195.62 437.59 192.45 C 427.20 184.59 416.40 177.28 404.92 171.12 C 397.99 166.67 390.28 163.77 382.94 160.12 C 377.95 157.64 372.06 156.96 367.67 153.34 C 364.77 151.12 362.15 148.12 358.38 147.48 C 352.97 146.38 347.45 145.90 341.93 145.75 C 337.96 145.66 334.02 144.60 330.05 145.15 C 323.71 145.97 317.28 145.72 311.00 147.03 C 305.94 148.14 300.81 146.93 295.74 146.57 C 291.34 144.88 286.22 145.65 282.20 142.99 Z" />
<path fill="#37322c" d=" M 351.52 137.91 C 351.54 137.49 351.59 136.66 351.61 136.24 C 398.72 141.72 442.94 167.84 470.74 206.23 C 464.61 205.90 457.89 204.13 453.82 199.21 C 440.97 185.87 425.23 175.84 409.25 166.68 C 395.02 158.30 379.83 151.46 363.86 147.15 C 358.50 146.22 355.09 141.56 351.52 137.91 Z" />
<path fill="#584a2e" d=" M 248.80 159.39 C 258.84 152.07 270.46 146.99 282.20 142.99 C 286.22 145.65 291.34 144.88 295.74 146.57 C 295.24 147.00 294.23 147.87 293.72 148.30 C 289.62 148.37 285.39 146.84 281.42 148.44 C 266.60 153.74 252.68 161.59 240.43 171.47 C 238.97 172.66 237.45 173.81 236.31 175.31 C 235.04 177.72 235.59 181.32 232.70 182.64 C 231.25 182.78 229.79 182.68 228.34 182.64 C 214.64 197.13 204.30 214.81 198.62 233.93 C 197.14 232.43 195.92 230.71 194.69 229.01 C 200.07 213.00 208.54 198.08 219.32 185.09 C 221.31 182.67 223.21 180.13 225.63 178.12 C 226.70 177.75 227.83 177.42 228.61 176.53 C 232.24 172.91 236.04 169.47 239.90 166.09 C 243.04 164.11 246.18 162.07 248.80 159.39 Z" />
<path fill="#5c5040" d=" M 311.00 147.03 C 317.28 145.72 323.71 145.97 330.05 145.15 C 334.02 144.60 337.96 145.66 341.93 145.75 C 347.45 145.90 352.97 146.38 358.38 147.48 C 362.15 148.12 364.77 151.12 367.67 153.34 C 372.06 156.96 377.95 157.64 382.94 160.12 C 390.28 163.77 397.99 166.67 404.92 171.12 C 416.40 177.28 427.20 184.59 437.59 192.45 C 441.54 195.62 444.79 200.00 450.06 201.04 C 456.55 202.50 459.72 208.76 463.44 213.61 C 469.43 222.60 475.20 231.87 479.00 242.04 C 481.06 247.72 484.14 252.99 488.15 257.52 C 488.20 258.10 488.31 259.24 488.36 259.82 C 486.22 258.67 483.91 257.90 481.56 257.33 C 476.38 253.19 471.32 248.35 468.87 242.05 C 463.46 229.88 456.44 218.40 447.76 208.28 C 443.45 203.29 439.51 197.40 433.13 194.88 C 426.91 192.25 420.73 189.52 414.99 185.94 C 404.34 180.61 394.51 173.87 384.58 167.34 C 380.31 164.10 376.05 160.52 370.64 159.43 C 363.20 157.52 355.61 156.21 347.99 155.23 C 340.34 154.35 332.65 155.53 324.99 154.93 C 319.84 154.48 314.69 156.93 309.62 155.38 C 306.00 154.31 302.36 153.28 298.58 152.98 C 297.11 151.28 295.90 149.19 293.72 148.30 C 294.23 147.87 295.24 147.00 295.74 146.57 C 300.81 146.93 305.94 148.14 311.00 147.03 Z" />
<path fill="#6b5a38" d=" M 281.42 148.44 C 285.39 146.84 289.62 148.37 293.72 148.30 C 295.90 149.19 297.11 151.28 298.58 152.98 C 299.85 154.55 301.51 155.70 303.24 156.70 C 303.54 157.23 304.14 158.30 304.44 158.83 C 300.61 158.23 296.90 157.13 293.28 155.76 C 290.20 154.47 287.04 156.16 284.13 157.14 C 269.38 162.98 255.17 170.65 243.33 181.31 C 240.33 183.61 245.95 188.27 241.75 189.83 C 239.87 191.55 237.57 190.06 235.66 189.30 C 229.93 193.81 226.01 200.11 221.94 206.05 C 216.50 213.80 212.67 222.51 209.27 231.31 C 208.06 234.40 207.33 237.65 206.71 240.91 C 203.99 238.61 201.27 236.31 198.62 233.93 C 204.30 214.81 214.64 197.13 228.34 182.64 C 229.79 182.68 231.25 182.78 232.70 182.64 C 235.59 181.32 235.04 177.72 236.31 175.31 C 237.45 173.81 238.97 172.66 240.43 171.47 C 252.68 161.59 266.60 153.74 281.42 148.44 Z" />
<path fill="#6c5e4a" d=" M 298.58 152.98 C 302.36 153.28 306.00 154.31 309.62 155.38 C 314.69 156.93 319.84 154.48 324.99 154.93 C 332.65 155.53 340.34 154.35 347.99 155.23 C 355.61 156.21 363.20 157.52 370.64 159.43 C 376.05 160.52 380.31 164.10 384.58 167.34 C 394.51 173.87 404.34 180.61 414.99 185.94 C 420.73 189.52 426.91 192.25 433.13 194.88 C 439.51 197.40 443.45 203.29 447.76 208.28 C 456.44 218.40 463.46 229.88 468.87 242.05 C 471.32 248.35 476.38 253.19 481.56 257.33 C 481.22 257.58 480.53 258.09 480.19 258.34 C 478.34 257.52 476.48 256.70 474.46 256.43 C 472.65 256.08 470.88 255.53 469.20 254.78 C 466.61 252.06 464.01 249.36 461.01 247.10 C 457.36 244.42 456.06 239.89 453.78 236.20 C 448.74 226.68 442.19 218.05 434.94 210.12 C 431.29 205.09 426.04 201.67 421.61 197.40 C 398.31 178.02 368.41 166.34 338.02 165.90 C 331.93 165.11 325.66 167.52 319.73 165.33 C 315.67 163.80 311.59 162.31 307.33 161.45 C 306.37 160.57 305.41 159.70 304.44 158.83 C 304.14 158.30 303.54 157.23 303.24 156.70 C 301.51 155.70 299.85 154.55 298.58 152.98 Z" />
<path fill="#826d43" d=" M 284.13 157.14 C 287.04 156.16 290.20 154.47 293.28 155.76 C 296.90 157.13 300.61 158.23 304.44 158.83 C 305.41 159.70 306.37 160.57 307.33 161.45 C 309.63 164.41 312.83 166.43 315.60 168.91 C 315.41 169.52 315.03 170.75 314.84 171.37 C 311.20 170.17 307.61 168.78 304.50 166.48 C 301.88 164.24 298.44 165.98 295.58 166.69 C 279.20 171.93 263.35 180.09 251.11 192.33 C 254.14 196.77 258.45 200.10 261.65 204.42 C 259.30 204.76 256.94 205.50 254.56 205.23 C 251.01 203.30 248.22 200.21 244.63 198.30 C 236.47 207.01 229.65 216.99 224.91 227.96 C 222.00 235.10 218.72 242.24 217.89 249.99 C 214.03 247.13 210.41 243.97 206.71 240.91 C 207.33 237.65 208.06 234.40 209.27 231.31 C 212.67 222.51 216.50 213.80 221.94 206.05 C 226.01 200.11 229.93 193.81 235.66 189.30 C 237.57 190.06 239.87 191.55 241.75 189.83 C 245.95 188.27 240.33 183.61 243.33 181.31 C 255.17 170.65 269.38 162.98 284.13 157.14 Z" />
<path fill="#6b6b5e" d=" M 130.18 165.12 C 131.87 160.79 136.59 158.72 140.91 158.14 C 149.96 157.12 159.11 158.07 167.98 159.93 C 187.73 164.09 206.98 170.48 225.63 178.12 C 223.21 180.13 221.31 182.67 219.32 185.09 C 205.24 180.76 190.89 176.33 176.04 176.04 C 170.88 176.15 164.43 176.57 161.38 181.41 C 158.78 186.54 161.60 192.34 164.13 196.90 C 171.99 209.80 183.15 220.23 194.25 230.31 C 193.14 233.42 192.24 236.61 191.65 239.87 C 172.44 223.75 152.60 207.77 137.71 187.36 C 133.33 180.87 128.32 173.34 130.18 165.12 Z" />
<path fill="#7f6f58" d=" M 315.60 168.91 C 312.83 166.43 309.63 164.41 307.33 161.45 C 311.59 162.31 315.67 163.80 319.73 165.33 C 325.66 167.52 331.93 165.11 338.02 165.90 C 368.41 166.34 398.31 178.02 421.61 197.40 C 426.04 201.67 431.29 205.09 434.94 210.12 C 442.19 218.05 448.74 226.68 453.78 236.20 C 456.06 239.89 457.36 244.42 461.01 247.10 C 464.01 249.36 466.61 252.06 469.20 254.78 C 467.32 253.98 465.31 253.67 463.29 253.66 C 459.80 251.06 455.10 252.18 451.58 249.79 C 447.25 243.60 439.33 241.13 435.40 234.59 C 416.25 204.87 383.08 184.98 348.04 181.10 C 343.58 180.60 338.88 181.14 334.68 179.23 C 330.10 177.29 325.64 174.95 320.69 174.07 C 318.74 173.16 316.82 172.20 314.84 171.37 C 315.03 170.75 315.41 169.52 315.60 168.91 Z" />
<path fill="#9b8250" d=" M 295.58 166.69 C 298.44 165.98 301.88 164.24 304.50 166.48 C 307.61 168.78 311.20 170.17 314.84 171.37 C 316.82 172.20 318.74 173.16 320.69 174.07 C 322.13 175.21 323.52 176.42 324.95 177.59 C 322.47 177.35 319.98 177.40 317.52 177.81 C 315.31 176.66 312.87 175.44 310.33 176.21 C 292.22 180.33 274.70 188.49 261.06 201.26 C 263.12 204.72 266.13 207.42 269.24 209.92 C 269.84 210.40 271.04 211.37 271.64 211.85 C 268.55 212.53 265.32 213.20 262.18 212.48 C 259.63 211.11 257.39 209.24 254.92 207.75 C 249.66 212.00 246.33 218.02 242.56 223.53 C 235.91 234.30 231.34 246.43 229.62 259.00 C 225.58 256.17 221.82 252.96 217.89 249.99 C 218.72 242.24 222.00 235.10 224.91 227.96 C 229.65 216.99 236.47 207.01 244.63 198.30 C 248.22 200.21 251.01 203.30 254.56 205.23 C 256.94 205.50 259.30 204.76 261.65 204.42 C 258.45 200.10 254.14 196.77 251.11 192.33 C 263.35 180.09 279.20 171.93 295.58 166.69 Z" />
<path fill="#968367" d=" M 320.69 174.07 C 325.64 174.95 330.10 177.29 334.68 179.23 C 338.88 181.14 343.58 180.60 348.04 181.10 C 383.08 184.98 416.25 204.87 435.40 234.59 C 439.33 241.13 447.25 243.60 451.58 249.79 C 450.90 249.69 449.56 249.48 448.88 249.38 C 449.73 250.59 450.60 251.79 451.52 252.95 C 450.48 253.14 449.43 253.26 448.38 253.32 C 443.63 251.11 440.13 246.73 435.01 245.22 C 405.54 226.44 375.63 208.24 344.41 192.46 C 339.84 190.25 335.57 187.37 330.66 185.93 C 325.87 183.93 321.46 181.17 317.52 177.81 C 319.98 177.40 322.47 177.35 324.95 177.59 C 323.52 176.42 322.13 175.21 320.69 174.07 Z" />
<path fill="#ffffff" d=" M 161.38 181.41 C 164.43 176.57 170.88 176.15 176.04 176.04 C 190.89 176.33 205.24 180.76 219.32 185.09 C 208.54 198.08 200.07 213.00 194.69 229.01 L 194.25 230.31 C 183.15 220.23 171.99 209.80 164.13 196.90 C 161.60 192.34 158.78 186.54 161.38 181.41 Z" />
<path fill="#af945d" d=" M 310.33 176.21 C 312.87 175.44 315.31 176.66 317.52 177.81 C 321.46 181.17 325.87 183.93 330.66 185.93 C 332.63 187.95 334.77 189.79 337.17 191.29 C 336.04 191.29 334.90 191.30 333.78 191.31 C 330.75 188.89 327.55 186.44 323.86 185.16 C 319.27 185.02 314.82 186.48 310.37 187.43 C 297.14 190.53 284.77 196.76 273.94 204.90 C 272.07 206.27 270.63 208.09 269.24 209.92 C 266.13 207.42 263.12 204.72 261.06 201.26 C 274.70 188.49 292.22 180.33 310.33 176.21 Z" />
<path fill="#bfa166" d=" M 310.37 187.43 C 314.82 186.48 319.27 185.02 323.86 185.16 C 327.55 186.44 330.75 188.89 333.78 191.31 C 334.17 191.67 334.95 192.38 335.33 192.74 C 318.71 193.69 301.79 197.53 287.68 206.70 C 283.61 209.23 279.35 211.73 276.46 215.67 C 274.88 214.36 273.26 213.11 271.64 211.85 C 271.04 211.37 269.84 210.40 269.24 209.92 C 270.63 208.09 272.07 206.27 273.94 204.90 C 284.77 196.76 297.14 190.53 310.37 187.43 Z" />
<path fill="#baa071" d=" M 330.66 185.93 C 335.57 187.37 339.84 190.25 344.41 192.46 C 375.63 208.24 405.54 226.44 435.01 245.22 C 435.58 246.57 436.17 247.92 436.78 249.27 C 433.03 247.21 429.63 243.50 424.93 244.75 C 413.14 240.89 403.23 233.31 392.52 227.32 C 379.77 219.56 366.78 212.17 353.51 205.35 C 347.01 201.80 341.28 197.09 335.33 192.74 C 334.95 192.38 334.17 191.67 333.78 191.31 C 334.90 191.30 336.04 191.29 337.17 191.29 C 334.77 189.79 332.63 187.95 330.66 185.93 Z" />
<path fill="#ffffff" d=" M 90.62 191.88 C 94.48 194.58 97.77 198.00 101.40 200.99 C 103.74 203.12 106.46 204.84 108.45 207.34 C 102.27 202.49 96.17 197.44 90.62 191.88 Z" />
<path fill="#ccad6d" d=" M 287.68 206.70 C 301.79 197.53 318.71 193.69 335.33 192.74 C 341.28 197.09 347.01 201.80 353.51 205.35 C 366.78 212.17 379.77 219.56 392.52 227.32 C 403.23 233.31 413.14 240.89 424.93 244.75 C 429.71 250.19 431.88 257.21 434.33 263.87 C 437.48 272.57 438.61 281.83 439.30 291.00 C 439.05 297.31 438.27 303.63 436.87 309.80 C 434.20 309.17 431.53 308.57 428.86 307.99 C 432.46 312.12 435.42 316.88 439.83 320.25 C 436.62 330.02 431.53 339.17 425.00 347.11 C 419.89 352.95 414.12 358.15 408.26 363.22 C 406.35 362.35 404.44 361.47 402.54 360.59 C 400.15 359.48 397.76 358.37 395.38 357.25 C 403.46 351.92 410.65 345.37 416.89 337.98 C 421.81 331.19 426.05 323.78 428.55 315.75 C 423.78 312.53 420.26 307.75 415.19 304.94 C 410.93 302.40 406.09 300.64 402.66 296.91 C 410.62 298.08 417.22 303.34 425.08 305.01 C 428.24 294.95 427.07 284.23 425.02 274.08 C 422.73 265.14 419.52 256.32 414.43 248.56 C 411.52 244.26 409.03 239.38 404.58 236.43 C 398.27 232.10 391.10 229.30 384.52 225.44 C 375.51 220.17 366.71 214.54 357.67 209.31 C 354.70 207.58 351.34 206.60 347.94 206.19 C 331.58 204.49 314.51 207.03 299.96 214.94 C 295.28 217.43 290.98 220.55 286.75 223.72 C 285.16 222.47 283.52 221.29 281.90 220.09 C 280.04 218.68 278.25 217.18 276.46 215.67 C 279.35 211.73 283.61 209.23 287.68 206.70 Z" />
<path fill="#debb75" d=" M 299.96 214.94 C 314.51 207.03 331.58 204.49 347.94 206.19 C 351.34 206.60 354.70 207.58 357.67 209.31 C 366.71 214.54 375.51 220.17 384.52 225.44 C 391.10 229.30 398.27 232.10 404.58 236.43 C 409.03 239.38 411.52 244.26 414.43 248.56 C 419.52 256.32 422.73 265.14 425.02 274.08 C 427.07 284.23 428.24 294.95 425.08 305.01 C 417.22 303.34 410.62 298.08 402.66 296.91 C 406.09 300.64 410.93 302.40 415.19 304.94 C 420.26 307.75 423.78 312.53 428.55 315.75 C 426.05 323.78 421.81 331.19 416.89 337.98 C 410.65 345.37 403.46 351.92 395.38 357.25 C 385.13 352.45 374.94 347.54 364.91 342.30 C 374.28 340.85 382.46 335.49 389.71 329.65 C 396.90 323.30 401.84 314.72 405.07 305.76 C 400.02 301.48 393.59 299.45 388.02 296.00 C 384.49 293.70 380.40 292.46 376.86 290.18 C 371.69 286.85 365.85 284.74 360.79 281.24 C 351.15 275.45 340.92 270.66 331.55 264.42 C 325.96 260.67 320.00 257.49 314.64 253.40 C 309.79 249.80 304.72 246.51 299.65 243.23 C 293.67 247.69 290.16 254.56 287.42 261.31 C 282.77 272.96 283.00 286.14 286.99 297.95 C 276.22 291.22 265.64 284.20 255.13 277.06 C 254.86 263.29 258.54 249.45 265.75 237.70 C 268.61 233.16 271.37 228.35 275.80 225.14 C 283.63 229.90 290.03 236.93 298.67 240.32 C 304.42 242.57 309.51 246.12 314.91 249.07 C 320.58 252.50 326.56 255.37 332.26 258.73 C 333.59 259.68 335.22 259.53 336.75 259.37 C 353.62 269.21 370.13 279.74 387.74 288.25 C 393.01 290.80 398.10 293.78 403.62 295.81 C 405.10 291.68 404.98 287.28 404.22 283.03 C 401.69 260.80 385.98 241.25 365.66 232.41 C 354.62 227.95 342.45 225.67 330.58 227.49 C 321.63 229.24 312.44 231.82 305.45 238.00 C 299.04 233.49 292.86 228.64 286.75 223.72 C 290.98 220.55 295.28 217.43 299.96 214.94 Z" />
<path fill="#ffffff" d=" M 108.93 207.90 C 111.98 209.48 114.46 211.91 117.03 214.15 C 114.02 212.50 111.51 210.11 108.93 207.90 Z" />
<path fill="#af945d" d=" M 242.56 223.53 C 246.33 218.02 249.66 212.00 254.92 207.75 C 257.39 209.24 259.63 211.11 262.18 212.48 C 265.32 213.20 268.55 212.53 271.64 211.85 C 273.26 213.11 274.88 214.36 276.46 215.67 C 278.25 217.18 280.04 218.68 281.90 220.09 C 280.31 220.76 278.72 221.81 276.91 221.57 C 271.68 221.62 267.93 217.60 263.78 215.05 C 258.93 218.87 255.52 224.13 252.31 229.33 C 245.38 240.53 241.55 253.36 239.57 266.30 C 236.18 263.97 232.97 261.39 229.62 259.00 C 231.34 246.43 235.91 234.30 242.56 223.53 Z" />
<path fill="#ffffff" d=" M 118.29 215.27 C 118.79 215.84 118.79 215.84 118.29 215.27 Z" />
<path fill="#c4a568" d=" M 252.31 229.33 C 255.52 224.13 258.93 218.87 263.78 215.05 C 267.93 217.60 271.68 221.62 276.91 221.57 C 278.72 221.81 280.31 220.76 281.90 220.09 C 283.52 221.29 285.16 222.47 286.75 223.72 C 292.86 228.64 299.04 233.49 305.45 238.00 C 315.72 245.36 325.95 252.80 336.75 259.37 C 335.22 259.53 333.59 259.68 332.26 258.73 C 326.56 255.37 320.58 252.50 314.91 249.07 C 309.51 246.12 304.42 242.57 298.67 240.32 C 290.03 236.93 283.63 229.90 275.80 225.14 C 271.37 228.35 268.61 233.16 265.75 237.70 C 258.54 249.45 254.86 263.29 255.13 277.06 C 251.47 274.72 248.01 272.09 244.43 269.64 C 242.80 268.53 241.18 267.42 239.57 266.30 C 241.55 253.36 245.38 240.53 252.31 229.33 Z" />
<path fill="#ffffff" d=" M 128.22 222.94 C 129.62 223.20 131.74 224.54 131.71 226.15 C 130.17 226.71 127.97 224.50 128.22 222.94 Z" />
<path fill="#e4c079" d=" M 330.58 227.49 C 342.45 225.67 354.62 227.95 365.66 232.41 C 385.98 241.25 401.69 260.80 404.22 283.03 C 404.98 287.28 405.10 291.68 403.62 295.81 C 398.10 293.78 393.01 290.80 387.74 288.25 C 370.13 279.74 353.62 269.21 336.75 259.37 C 325.95 252.80 315.72 245.36 305.45 238.00 C 312.44 231.82 321.63 229.24 330.58 227.49 Z" />
<path fill="#ffffff" d=" M 133.84 227.79 C 136.51 229.23 138.89 231.11 141.10 233.18 C 138.46 231.70 136.09 229.81 133.84 227.79 Z" />
<path fill="#4c452c" d=" M 194.69 229.01 C 195.92 230.71 197.14 232.43 198.62 233.93 C 201.27 236.31 203.99 238.61 206.71 240.91 C 210.41 243.97 214.03 247.13 217.89 249.99 C 221.82 252.96 225.58 256.17 229.62 259.00 C 232.97 261.39 236.18 263.97 239.57 266.30 C 241.18 267.42 242.80 268.53 244.43 269.64 C 243.56 271.96 242.70 274.28 241.84 276.60 C 224.76 264.85 207.77 252.92 191.65 239.87 C 192.24 236.61 193.14 233.42 194.25 230.31 L 194.69 229.01 Z" />
<path fill="#ffffff" d=" M 142.21 234.22 C 143.30 233.62 145.20 234.85 144.72 236.14 C 143.67 236.77 141.82 235.39 142.21 234.22 Z" />
<path fill="#ffffff" d=" M 146.23 236.98 C 147.37 236.46 149.03 237.92 148.71 239.14 C 147.56 239.76 145.92 238.17 146.23 236.98 Z" />
<path fill="#ffffff" d=" M 150.21 240.22 C 151.29 239.60 153.19 240.84 152.72 242.12 C 151.67 242.78 149.84 241.39 150.21 240.22 Z" />
<path fill="#ffffff" d=" M 154.22 243.21 C 155.29 242.57 157.23 243.80 156.74 245.08 C 155.71 245.71 153.84 244.39 154.22 243.21 Z" />
<path fill="#e5c179" d=" M 287.42 261.31 C 290.16 254.56 293.67 247.69 299.65 243.23 C 304.72 246.51 309.79 249.80 314.64 253.40 C 320.00 257.49 325.96 260.67 331.55 264.42 C 340.92 270.66 351.15 275.45 360.79 281.24 C 365.85 284.74 371.69 286.85 376.86 290.18 C 380.40 292.46 384.49 293.70 388.02 296.00 C 393.59 299.45 400.02 301.48 405.07 305.76 C 401.84 314.72 396.90 323.30 389.71 329.65 C 382.46 335.49 374.28 340.85 364.91 342.30 C 338.32 328.63 312.36 313.76 286.99 297.95 C 283.00 286.14 282.77 272.96 287.42 261.31 Z" />
<path fill="#bb9e64" d=" M 424.93 244.75 C 429.63 243.50 433.03 247.21 436.78 249.27 C 440.34 251.60 445.88 252.11 447.37 256.67 C 454.25 275.14 455.87 295.61 451.57 314.88 C 447.05 314.27 442.80 312.44 438.24 312.06 C 440.54 316.88 444.38 320.58 449.10 323.01 C 446.56 331.94 442.10 340.20 436.75 347.75 C 431.27 355.03 425.47 362.28 417.80 367.39 C 414.63 365.97 411.42 364.65 408.26 363.22 C 414.12 358.15 419.89 352.95 425.00 347.11 C 431.53 339.17 436.62 330.02 439.83 320.25 C 435.42 316.88 432.46 312.12 428.86 307.99 C 431.53 308.57 434.20 309.17 436.87 309.80 C 438.27 303.63 439.05 297.31 439.30 291.00 C 438.61 281.83 437.48 272.57 434.33 263.87 C 431.88 257.21 429.71 250.19 424.93 244.75 Z" />
<path fill="#a88d59" d=" M 435.01 245.22 C 440.13 246.73 443.63 251.11 448.38 253.32 C 449.43 253.26 450.48 253.14 451.52 252.95 C 454.20 255.11 457.34 256.75 459.59 259.39 C 460.85 261.42 461.29 263.82 461.90 266.10 C 463.84 274.93 465.76 283.89 465.23 293.00 C 465.61 301.38 464.30 309.69 462.69 317.90 C 459.11 317.94 455.55 317.43 452.10 316.51 C 453.28 319.23 453.88 322.65 456.73 324.19 C 458.15 325.28 460.90 326.30 459.56 328.57 C 453.40 345.29 443.59 360.85 429.85 372.36 C 425.83 370.72 421.76 369.18 417.80 367.39 C 425.47 362.28 431.27 355.03 436.75 347.75 C 442.10 340.20 446.56 331.94 449.10 323.01 C 444.38 320.58 440.54 316.88 438.24 312.06 C 442.80 312.44 447.05 314.27 451.57 314.88 C 455.87 295.61 454.25 275.14 447.37 256.67 C 445.88 252.11 440.34 251.60 436.78 249.27 C 436.17 247.92 435.58 246.57 435.01 245.22 Z" />
<path fill="#ffffff" d=" M 158.28 245.90 C 159.41 245.34 161.14 246.83 160.74 248.04 C 159.60 248.52 157.87 247.11 158.28 245.90 Z" />
<path fill="#927a4c" d=" M 448.88 249.38 C 449.56 249.48 450.90 249.69 451.58 249.79 C 455.10 252.18 459.80 251.06 463.29 253.66 C 465.92 256.75 468.95 259.44 472.11 261.98 C 474.57 263.74 474.81 266.95 475.43 269.66 C 478.71 286.72 479.06 304.64 474.71 321.54 C 472.44 321.43 470.17 321.33 467.91 321.24 C 467.08 325.18 469.75 328.11 472.62 330.32 C 469.09 340.28 465.03 350.19 458.76 358.77 C 454.45 365.82 448.99 372.04 442.80 377.49 C 441.26 376.90 439.74 376.31 438.21 375.72 C 435.41 374.63 432.62 373.51 429.85 372.36 C 443.59 360.85 453.40 345.29 459.56 328.57 C 460.90 326.30 458.15 325.28 456.73 324.19 C 453.88 322.65 453.28 319.23 452.10 316.51 C 455.55 317.43 459.11 317.94 462.69 317.90 C 464.30 309.69 465.61 301.38 465.23 293.00 C 465.76 283.89 463.84 274.93 461.90 266.10 C 461.29 263.82 460.85 261.42 459.59 259.39 C 457.34 256.75 454.20 255.11 451.52 252.95 C 450.60 251.79 449.73 250.59 448.88 249.38 Z" />
<path fill="#ffffff" d=" M 165.18 251.26 C 166.22 250.61 168.22 251.71 167.75 253.02 C 166.75 253.70 164.79 252.45 165.18 251.26 Z" />
<path fill="#7d6941" d=" M 463.29 253.66 C 465.31 253.67 467.32 253.98 469.20 254.78 C 470.88 255.53 472.65 256.08 474.46 256.43 C 476.90 260.01 480.86 262.27 483.19 265.89 C 485.68 274.36 486.09 283.26 487.08 291.99 C 487.64 296.68 486.49 301.32 486.27 305.99 C 485.96 311.89 485.01 317.74 483.74 323.50 C 481.54 323.93 479.36 324.39 477.18 324.90 C 477.62 327.73 478.96 330.26 480.92 332.35 C 479.12 340.78 474.89 348.36 471.08 356.01 C 466.62 363.97 461.09 371.29 455.16 378.22 C 454.16 379.59 452.43 379.96 450.95 380.57 C 448.23 379.55 445.51 378.51 442.80 377.49 C 448.99 372.04 454.45 365.82 458.76 358.77 C 465.03 350.19 469.09 340.28 472.62 330.32 C 469.75 328.11 467.08 325.18 467.91 321.24 C 470.17 321.33 472.44 321.43 474.71 321.54 C 479.06 304.64 478.71 286.72 475.43 269.66 C 474.81 266.95 474.57 263.74 472.11 261.98 C 468.95 259.44 465.92 256.75 463.29 253.66 Z" />
<path fill="#ffffff" d=" M 172.20 255.99 C 173.25 255.39 175.09 256.65 174.75 257.87 C 173.68 258.57 171.77 257.23 172.20 255.99 Z" />
<path fill="#6a5937" d=" M 474.46 256.43 C 476.48 256.70 478.34 257.52 480.19 258.34 C 480.53 258.09 481.22 257.58 481.56 257.33 C 483.91 257.90 486.22 258.67 488.36 259.82 C 490.33 263.31 493.31 266.33 494.34 270.30 C 497.44 287.75 497.70 305.81 494.03 323.19 C 493.95 325.58 490.92 325.75 490.14 327.69 C 488.91 330.80 492.19 333.73 490.62 336.84 C 484.89 354.31 475.93 371.09 462.97 384.27 C 458.96 383.06 454.90 381.98 450.95 380.57 C 452.43 379.96 454.16 379.59 455.16 378.22 C 461.09 371.29 466.62 363.97 471.08 356.01 C 474.89 348.36 479.12 340.78 480.92 332.35 C 478.96 330.26 477.62 327.73 477.18 324.90 C 479.36 324.39 481.54 323.93 483.74 323.50 C 485.01 317.74 485.96 311.89 486.27 305.99 C 486.49 301.32 487.64 296.68 487.08 291.99 C 486.09 283.26 485.68 274.36 483.19 265.89 C 480.86 262.27 476.90 260.01 474.46 256.43 Z" />
<path fill="#6a5937" d=" M 190.67 260.29 C 189.48 259.63 188.76 258.60 189.13 257.21 C 200.29 265.11 211.29 273.27 222.85 280.57 C 221.67 280.33 220.40 280.23 219.37 279.54 C 209.71 273.26 200.13 266.86 190.67 260.29 Z" />
<path fill="#57492d" d=" M 488.15 257.52 C 492.14 259.41 494.47 263.17 496.60 266.85 C 496.75 266.16 497.03 264.77 497.17 264.08 C 500.22 277.48 501.80 291.45 500.42 305.15 C 499.45 308.97 499.20 312.91 498.85 316.83 C 498.03 322.89 495.81 328.66 495.05 334.73 C 495.00 338.28 493.60 341.57 492.24 344.79 C 486.48 359.75 478.13 373.70 467.62 385.81 L 467.39 385.74 C 465.91 385.24 464.45 384.74 462.97 384.27 C 475.93 371.09 484.89 354.31 490.62 336.84 C 492.19 333.73 488.91 330.80 490.14 327.69 C 490.92 325.75 493.95 325.58 494.03 323.19 C 497.70 305.81 497.44 287.75 494.34 270.30 C 493.31 266.33 490.33 263.31 488.36 259.82 C 488.31 259.24 488.20 258.10 488.15 257.52 Z" />
<path fill="#ffffff" d=" M 179.24 260.99 C 180.33 260.39 182.13 261.78 181.75 263.00 C 180.65 263.58 178.85 262.20 179.24 260.99 Z" />
<path fill="#a29681" d=" M 188.01 266.53 C 201.50 275.23 214.54 284.64 227.98 293.42 C 227.46 293.76 226.43 294.45 225.91 294.79 C 224.03 293.64 222.06 292.62 220.15 291.53 C 218.18 290.18 216.17 288.90 214.17 287.62 C 208.84 284.01 203.57 280.30 198.19 276.77 C 195.73 275.10 193.29 273.43 190.85 271.75 C 190.37 271.41 189.88 271.08 189.40 270.75 C 189.01 269.32 188.53 267.91 188.01 266.53 Z" />
<path fill="#453d2f" d=" M 187.77 269.66 L 189.40 270.75 C 189.88 271.08 190.37 271.41 190.85 271.75 C 190.74 273.78 190.61 275.82 190.66 277.86 C 190.42 281.22 194.37 282.87 194.90 285.99 C 195.92 303.19 202.70 319.45 210.37 334.66 C 216.56 347.73 224.65 359.90 234.27 370.70 C 239.03 375.61 243.93 380.40 248.83 385.19 C 275.62 408.87 310.37 423.24 346.02 425.70 C 360.70 425.72 375.50 426.56 390.04 423.94 C 399.49 422.15 408.98 419.89 417.66 415.63 C 420.57 414.01 423.98 414.88 427.09 414.12 C 429.43 413.39 431.53 412.09 433.69 410.96 C 434.35 411.46 435.00 411.98 435.64 412.52 C 401.39 433.29 358.95 438.74 320.12 429.87 C 289.92 423.09 261.68 407.98 239.09 386.85 C 207.03 356.99 186.75 313.80 187.77 269.66 Z" />
<path fill="#625939" d=" M 244.43 269.64 C 248.01 272.09 251.47 274.72 255.13 277.06 C 265.64 284.20 276.22 291.22 286.99 297.95 C 312.36 313.76 338.32 328.63 364.91 342.30 C 374.94 347.54 385.13 352.45 395.38 357.25 C 397.76 358.37 400.15 359.48 402.54 360.59 C 400.89 362.49 399.23 364.39 397.58 366.29 C 343.62 340.17 291.48 310.22 241.84 276.60 C 242.70 274.28 243.56 271.96 244.43 269.64 Z" />
<path fill="#5a4f3c" d=" M 190.85 271.75 C 193.29 273.43 195.73 275.10 198.19 276.77 C 199.28 280.55 199.82 284.46 199.74 288.40 C 202.50 291.22 205.35 293.97 208.03 296.88 C 210.38 309.87 216.44 321.77 222.80 333.20 C 239.06 358.31 259.97 381.39 287.01 395.03 C 305.34 404.92 325.81 409.99 346.17 413.72 C 357.16 414.23 368.26 416.43 379.22 414.38 C 386.83 412.92 394.70 412.67 402.06 410.02 C 405.87 408.35 409.93 411.67 413.66 409.71 C 417.05 408.26 420.54 407.02 424.19 406.44 C 427.31 408.06 430.56 409.39 433.69 410.96 C 431.53 412.09 429.43 413.39 427.09 414.12 C 423.98 414.88 420.57 414.01 417.66 415.63 C 408.98 419.89 399.49 422.15 390.04 423.94 C 375.50 426.56 360.70 425.72 346.02 425.70 C 310.37 423.24 275.62 408.87 248.83 385.19 C 243.93 380.40 239.03 375.61 234.27 370.70 C 224.65 359.90 216.56 347.73 210.37 334.66 C 202.70 319.45 195.92 303.19 194.90 285.99 C 194.37 282.87 190.42 281.22 190.66 277.86 C 190.61 275.82 190.74 273.78 190.85 271.75 Z" />
<path fill="#6e613f" d=" M 198.19 276.77 C 203.57 280.30 208.84 284.01 214.17 287.62 C 214.58 291.82 218.00 297.70 213.26 300.62 C 211.52 299.37 209.73 298.19 208.03 296.88 C 205.35 293.97 202.50 291.22 199.74 288.40 C 199.82 284.46 199.28 280.55 198.19 276.77 Z" />
<path fill="#857453" d=" M 214.17 287.62 C 216.17 288.90 218.18 290.18 220.15 291.53 C 223.57 295.84 227.78 299.43 232.20 302.67 C 233.63 309.13 238.01 314.20 241.30 319.75 C 240.56 320.49 239.83 321.24 239.10 321.99 C 243.16 328.17 246.95 334.57 251.79 340.21 C 256.60 345.72 260.79 351.84 266.67 356.32 C 280.30 369.21 296.78 378.70 314.00 385.93 C 331.07 391.51 348.87 396.77 367.04 394.92 C 368.21 394.56 368.93 393.44 369.84 392.69 C 376.53 393.77 383.42 390.86 389.90 393.44 C 392.95 394.40 395.88 395.67 398.84 396.87 C 395.62 398.77 392.05 399.90 388.46 400.84 C 388.81 401.48 389.16 402.13 389.52 402.79 C 387.02 402.61 384.50 402.63 382.02 403.03 C 374.09 404.17 366.02 404.78 358.04 403.89 C 349.94 402.99 341.71 402.62 333.85 400.31 C 326.96 398.21 319.78 396.90 313.28 393.70 C 299.93 388.57 286.91 382.24 275.42 373.66 C 253.07 357.53 234.12 335.89 223.77 310.13 C 220.97 306.32 216.92 303.58 213.26 300.62 C 218.00 297.70 214.58 291.82 214.17 287.62 Z" />
<path fill="#ac9766" d=" M 220.15 291.53 C 222.06 292.62 224.03 293.64 225.91 294.79 C 232.40 298.98 238.93 303.10 245.30 307.47 C 245.45 310.15 245.90 313.05 248.25 314.74 C 258.29 323.29 269.72 330.00 280.01 338.22 C 281.33 339.47 282.58 340.79 284.03 341.89 C 295.19 349.77 306.86 356.98 319.20 362.88 C 322.61 364.79 326.26 366.22 330.07 367.10 C 337.32 370.51 344.65 373.76 351.86 377.24 C 356.38 379.49 361.02 381.54 365.79 383.17 C 368.87 384.20 372.00 382.77 374.89 381.78 C 378.82 383.68 382.72 385.61 386.53 387.74 C 384.16 388.56 381.62 389.80 379.09 388.82 C 374.77 387.55 370.49 385.92 365.94 385.71 C 359.40 385.27 352.95 384.14 346.71 382.12 C 346.61 383.04 346.50 383.95 346.40 384.88 C 330.03 383.71 314.81 376.93 300.42 369.53 C 291.39 363.72 281.74 358.56 274.23 350.75 C 270.86 347.42 266.72 344.88 263.94 340.97 C 260.62 336.30 255.83 333.06 251.32 329.67 C 252.36 329.05 253.41 328.44 254.45 327.84 C 251.12 322.56 245.58 319.11 242.61 313.57 C 240.17 309.07 236.49 305.40 232.20 302.67 C 227.78 299.43 223.57 295.84 220.15 291.53 Z" />
<path fill="#6f6149" d=" M 208.03 296.88 C 209.73 298.19 211.52 299.37 213.26 300.62 C 216.92 303.58 220.97 306.32 223.77 310.13 C 234.12 335.89 253.07 357.53 275.42 373.66 C 286.91 382.24 299.93 388.57 313.28 393.70 C 319.78 396.90 326.96 398.21 333.85 400.31 C 341.71 402.62 349.94 402.99 358.04 403.89 C 366.02 404.78 374.09 404.17 382.02 403.03 C 384.50 402.63 387.02 402.61 389.52 402.79 C 389.16 402.13 388.81 401.48 388.46 400.84 C 392.05 399.90 395.62 398.77 398.84 396.87 C 401.87 398.03 405.10 398.46 408.30 398.91 C 413.56 401.50 418.95 403.81 424.19 406.44 C 420.54 407.02 417.05 408.26 413.66 409.71 C 409.93 411.67 405.87 408.35 402.06 410.02 C 394.70 412.67 386.83 412.92 379.22 414.38 C 368.26 416.43 357.16 414.23 346.17 413.72 C 325.81 409.99 305.34 404.92 287.01 395.03 C 259.97 381.39 239.06 358.31 222.80 333.20 C 216.44 321.77 210.38 309.87 208.03 296.88 Z" />
<path fill="#98845e" d=" M 232.20 302.67 C 236.49 305.40 240.17 309.07 242.61 313.57 C 245.58 319.11 251.12 322.56 254.45 327.84 C 253.41 328.44 252.36 329.05 251.32 329.67 C 255.83 333.06 260.62 336.30 263.94 340.97 C 266.72 344.88 270.86 347.42 274.23 350.75 C 281.74 358.56 291.39 363.72 300.42 369.53 C 314.81 376.93 330.03 383.71 346.40 384.88 C 346.50 383.95 346.61 383.04 346.71 382.12 C 352.95 384.14 359.40 385.27 365.94 385.71 C 370.49 385.92 374.77 387.55 379.09 388.82 C 381.62 389.80 384.16 388.56 386.53 387.74 C 388.86 388.94 391.23 390.05 393.56 391.27 C 398.42 393.93 403.53 396.08 408.30 398.91 C 405.10 398.46 401.87 398.03 398.84 396.87 C 395.88 395.67 392.95 394.40 389.90 393.44 C 383.42 390.86 376.53 393.77 369.84 392.69 C 368.93 393.44 368.21 394.56 367.04 394.92 C 348.87 396.77 331.07 391.51 314.00 385.93 C 296.78 378.70 280.30 369.21 266.67 356.32 C 260.79 351.84 256.60 345.72 251.79 340.21 C 246.95 334.57 243.16 328.17 239.10 321.99 C 239.83 321.24 240.56 320.49 241.30 319.75 C 238.01 314.20 233.63 309.13 232.20 302.67 Z" />
<path fill="#c8a96b" d=" M 245.30 307.47 C 254.36 313.04 263.48 318.53 272.50 324.17 C 273.65 329.67 278.51 333.28 281.73 337.60 C 281.30 337.75 280.44 338.07 280.01 338.22 C 269.72 330.00 258.29 323.29 248.25 314.74 C 245.90 313.05 245.45 310.15 245.30 307.47 Z" />
<path fill="#debb75" d=" M 264.40 307.62 C 278.28 315.66 291.81 324.33 305.76 332.27 C 325.10 343.75 345.04 354.16 364.64 365.17 C 358.14 364.01 352.83 359.82 347.01 357.01 C 320.20 342.45 293.81 327.15 267.86 311.12 C 266.42 310.26 265.45 308.87 264.40 307.62 Z" />
<path fill="#ffffff" d=" M 499.41 317.06 C 500.66 317.53 502.01 317.93 503.09 318.77 C 527.12 336.52 550.66 355.02 572.50 375.43 C 585.83 388.17 599.03 401.39 608.96 417.04 C 613.01 423.92 617.34 431.92 615.40 440.15 C 613.48 447.10 605.80 449.76 599.38 450.57 C 584.81 452.19 570.22 449.20 556.06 446.00 C 518.16 436.70 481.85 421.98 446.21 406.28 C 446.90 405.57 447.66 405.36 448.50 405.64 C 480.93 419.72 513.92 432.93 548.25 441.66 C 562.21 444.98 576.51 448.04 590.94 447.11 C 597.06 446.54 604.14 445.20 607.82 439.72 C 611.26 434.31 609.46 427.45 607.09 421.99 C 603.28 413.31 597.40 405.76 591.39 398.50 C 578.73 383.57 564.29 370.29 549.51 357.51 C 534.49 344.74 519.04 332.49 503.12 320.86 C 501.67 319.81 500.55 318.41 499.41 317.06 Z" />
<path fill="#d6b572" d=" M 281.73 337.60 C 278.51 333.28 273.65 329.67 272.50 324.17 C 296.95 338.69 321.60 352.85 346.48 366.62 C 340.28 367.93 334.23 365.71 328.15 364.91 C 328.77 365.65 329.42 366.38 330.07 367.10 C 326.26 366.22 322.61 364.79 319.20 362.88 C 306.86 356.98 295.19 349.77 284.03 341.89 C 282.58 340.79 281.33 339.47 280.01 338.22 C 280.44 338.07 281.30 337.75 281.73 337.60 Z" />
<path fill="#6b6b5e" d=" M 495.05 334.73 C 510.11 347.68 525.32 360.69 537.83 376.21 C 542.91 382.75 548.09 389.75 549.67 398.07 C 550.63 402.19 548.33 406.67 544.55 408.50 C 538.00 411.75 530.38 411.26 523.32 410.59 C 501.68 407.94 480.97 400.70 460.56 393.36 C 463.00 390.97 465.33 388.47 467.39 385.74 L 467.62 385.81 C 479.71 389.49 492.20 392.70 504.92 392.56 C 510.01 392.36 516.68 391.27 518.65 385.79 C 520.09 380.34 517.17 375.00 514.50 370.44 C 508.38 360.85 500.33 352.70 492.24 344.79 C 493.60 341.57 495.00 338.28 495.05 334.73 Z" />
<path fill="#ffffff" d=" M 492.24 344.79 C 500.33 352.70 508.38 360.85 514.50 370.44 C 517.17 375.00 520.09 380.34 518.65 385.79 C 516.68 391.27 510.01 392.36 504.92 392.56 C 492.20 392.70 479.71 389.49 467.62 385.81 C 478.13 373.70 486.48 359.75 492.24 344.79 Z" />
<path fill="#554e32" d=" M 402.54 360.59 C 404.44 361.47 406.35 362.35 408.26 363.22 C 411.42 364.65 414.63 365.97 417.80 367.39 C 421.76 369.18 425.83 370.72 429.85 372.36 C 432.62 373.51 435.41 374.63 438.21 375.72 C 435.62 377.28 433.22 379.20 431.51 381.73 C 420.05 376.91 408.83 371.57 397.58 366.29 C 399.23 364.39 400.89 362.49 402.54 360.59 Z" />
<path fill="#cbac6d" d=" M 328.15 364.91 C 334.23 365.71 340.28 367.93 346.48 366.62 C 351.90 369.31 357.12 372.36 362.44 375.23 C 358.93 375.99 355.40 376.65 351.86 377.24 C 344.65 373.76 337.32 370.51 330.07 367.10 C 329.42 366.38 328.77 365.65 328.15 364.91 Z" />
<path fill="#c0a266" d=" M 362.44 375.23 C 366.66 377.29 370.80 379.50 374.89 381.78 C 372.00 382.77 368.87 384.20 365.79 383.17 C 361.02 381.54 356.38 379.49 351.86 377.24 C 355.40 376.65 358.93 375.99 362.44 375.23 Z" />
<path fill="#454029" d=" M 431.51 381.73 C 433.22 379.20 435.62 377.28 438.21 375.72 C 439.74 376.31 441.26 376.90 442.80 377.49 C 445.51 378.51 448.23 379.55 450.95 380.57 C 454.90 381.98 458.96 383.06 462.97 384.27 C 464.45 384.74 465.91 385.24 467.39 385.74 C 465.33 388.47 463.00 390.97 460.56 393.36 C 450.68 390.00 441.12 385.76 431.51 381.73 Z" />
<path fill="#6b5a38" d=" M 395.50 380.89 C 412.14 389.43 429.24 397.06 446.37 404.58 L 445.78 406.11 C 432.72 400.35 419.90 394.05 407.21 387.52 C 403.24 385.43 398.95 383.83 395.50 380.89 Z" />
<path fill="#ffffff" d=" M 601.66 388.84 C 603.49 389.97 605.00 391.52 606.49 393.06 C 618.15 404.57 629.47 416.63 638.46 430.39 C 642.76 437.27 646.95 444.76 647.34 453.06 C 647.61 458.09 645.07 463.16 640.67 465.71 C 633.89 469.77 625.66 470.02 617.98 470.00 C 599.83 469.39 582.06 465.03 564.62 460.23 C 523.45 448.34 483.80 431.82 444.84 414.12 C 443.42 413.51 442.04 412.83 440.73 412.04 C 452.33 416.66 463.52 422.30 475.09 427.02 C 497.40 436.55 520.03 445.40 543.07 453.03 C 562.07 459.22 581.37 464.77 601.17 467.70 C 611.51 469.08 622.19 470.03 632.46 467.59 C 637.95 466.24 643.67 462.85 645.19 457.03 C 647.08 449.82 644.01 442.52 640.79 436.18 C 630.92 418.02 615.92 403.50 601.66 388.84 Z" />
<path fill="#a39682" d=" M 393.56 391.27 C 394.18 390.98 395.41 390.40 396.03 390.11 C 410.50 396.29 424.37 403.77 438.76 410.13 C 438.00 410.80 437.26 411.49 436.52 412.18 L 435.91 412.74 L 435.64 412.52 C 435.00 411.98 434.35 411.46 433.69 410.96 C 430.56 409.39 427.31 408.06 424.19 406.44 C 418.95 403.81 413.56 401.50 408.30 398.91 C 403.53 396.08 398.42 393.93 393.56 391.27 Z" />
</svg>
