<?xml version="1.0" encoding="UTF-8" ?>
<!DOCTYPE svg PUBLIC "-//W3C//DTD SVG 1.1//EN" "http://www.w3.org/Graphics/SVG/1.1/DTD/svg11.dtd">
<svg width="1680px" height="2383px" viewBox="0 0 165 234" version="1.1" xmlns="http://www.w3.org/2000/svg">
<path fill="#fefefe" d=" M 0.00 0.00 L 165.00 0.00 L 165.00 234.00 L 0.00 234.00 L 0.00 0.00 Z" />
<path fill="#050505" d=" M 63.84 18.71 C 64.37 17.18 64.68 15.59 65.00 14.01 C 67.21 15.47 67.09 18.28 67.71 20.55 C 69.55 28.68 71.75 36.73 73.36 44.92 C 80.21 44.64 87.38 43.54 94.05 45.51 C 87.20 45.62 80.32 46.05 73.47 45.58 C 73.61 46.30 73.89 47.75 74.04 48.47 C 75.40 48.62 77.53 46.95 78.26 48.76 C 79.11 49.63 77.77 50.52 77.45 51.29 C 81.27 53.23 84.49 56.25 88.62 57.61 C 88.93 57.94 89.57 58.61 89.88 58.94 C 93.31 59.66 96.55 61.15 99.48 63.05 C 99.90 63.21 100.74 63.52 101.16 63.67 C 102.10 64.91 103.16 66.06 104.12 67.28 C 103.10 67.05 102.32 67.28 101.77 67.98 C 102.21 68.43 103.10 69.33 103.55 69.78 C 103.64 70.19 103.81 71.01 103.90 71.42 C 105.28 72.55 106.61 73.73 107.88 74.98 C 106.04 73.91 104.22 72.81 102.24 72.02 C 102.42 71.40 102.58 70.78 102.71 70.15 C 101.76 70.20 100.81 70.34 99.88 70.58 C 99.75 70.38 99.49 69.98 99.36 69.78 L 100.95 69.05 C 100.72 68.59 100.27 67.66 100.05 67.19 C 99.18 67.12 97.44 66.98 96.57 66.90 C 96.63 68.14 96.68 69.37 96.71 70.61 C 95.76 70.39 94.81 70.15 93.86 69.92 C 87.07 70.58 80.86 73.60 74.29 75.14 C 74.34 76.29 74.37 77.43 74.45 78.57 C 72.66 79.40 71.45 80.89 70.64 82.65 C 69.37 82.95 68.11 83.32 66.84 83.65 C 68.47 82.69 70.11 81.74 71.68 80.68 L 69.03 80.17 C 70.11 79.50 71.16 78.78 72.26 78.14 C 72.69 77.09 73.10 76.03 73.48 74.96 C 71.56 75.45 70.23 76.93 68.88 78.26 C 68.15 77.93 66.68 77.28 65.94 76.95 C 65.38 78.07 64.79 79.17 64.19 80.27 C 64.34 82.27 64.44 84.30 63.94 86.27 C 63.56 84.55 63.38 82.81 63.26 81.06 C 62.61 79.57 62.66 77.93 62.43 76.36 C 64.14 76.48 65.86 76.54 67.58 76.69 C 68.28 75.31 68.99 73.92 69.61 72.50 C 68.82 72.10 67.24 71.30 66.45 70.90 C 67.87 70.68 69.30 70.48 70.73 70.33 L 70.45 68.98 C 71.13 69.34 72.49 70.07 73.17 70.44 L 72.33 68.51 C 75.27 67.28 78.10 65.37 81.42 65.53 C 82.17 65.02 82.92 64.51 83.66 64.00 L 83.83 65.15 C 86.38 66.09 87.79 69.00 90.94 68.58 C 89.56 66.81 88.08 65.11 86.72 63.32 C 88.71 64.46 90.68 65.62 92.64 66.80 C 92.79 64.76 92.69 62.73 92.65 60.70 C 88.46 58.87 84.45 56.64 80.09 55.20 C 78.89 54.12 77.63 53.13 76.44 52.06 C 76.71 50.76 77.28 49.55 77.67 48.28 C 73.89 49.37 69.86 49.32 66.27 51.05 C 66.59 48.33 66.77 45.52 65.42 43.04 C 65.38 41.82 65.35 40.60 65.33 39.38 C 64.87 39.47 63.95 39.65 63.49 39.74 C 63.65 35.98 63.36 32.24 63.36 28.49 L 62.34 28.83 C 62.42 27.38 62.49 25.93 62.55 24.48 L 61.62 24.74 C 61.80 21.50 61.11 18.35 60.29 15.25 L 63.60 15.02 C 63.67 16.25 63.58 17.49 63.84 18.71 Z" />
<path fill="#050505" d=" M 54.02 15.75 C 54.88 15.67 56.59 15.52 57.44 15.44 C 57.81 17.83 58.42 20.16 58.75 22.56 L 59.29 22.56 C 59.44 25.26 60.07 27.89 60.65 30.52 L 61.60 30.50 C 61.56 31.86 61.52 33.22 61.47 34.58 L 62.28 34.50 C 62.51 37.19 63.21 39.80 63.80 42.42 L 64.45 42.01 C 64.54 43.60 64.66 45.19 64.90 46.76 C 65.22 47.67 65.86 49.48 66.17 50.38 C 64.73 50.97 61.84 52.15 60.39 52.74 C 60.96 51.80 62.11 49.91 62.68 48.97 C 60.00 49.87 57.45 51.17 55.40 53.15 C 47.52 57.60 40.04 63.23 35.29 71.09 C 36.39 67.77 38.85 65.16 40.98 62.47 C 43.59 60.24 46.53 58.42 48.95 55.97 C 52.51 52.42 57.36 50.70 61.98 49.01 C 59.24 37.95 56.66 26.84 54.02 15.75 Z" />
<path fill="#050505" d=" M 53.31 56.25 C 53.87 56.87 53.87 56.87 53.31 56.25 Z" />
<path fill="#fefefe" d=" M 94.21 60.37 C 96.13 62.17 100.16 62.91 100.81 65.76 C 98.80 67.54 95.09 66.67 92.87 65.42 C 93.50 64.84 94.77 63.69 95.40 63.11 C 95.10 62.43 94.50 61.05 94.21 60.37 Z" />
<path fill="#fefefe" d=" M 93.66 68.09 C 94.86 67.10 95.53 67.30 95.66 68.69 C 94.48 69.69 93.81 69.49 93.66 68.09 Z" />
<path fill="#050505" d=" M 66.26 74.20 C 66.76 74.87 66.76 74.87 66.26 74.20 Z" />
<path fill="#050505" d=" M 136.43 75.45 C 138.04 76.83 138.88 78.69 138.99 80.80 C 137.50 79.97 135.95 79.27 134.38 78.62 C 134.98 78.62 136.17 78.63 136.76 78.63 C 136.68 77.83 136.51 76.25 136.43 75.45 Z" />
<path fill="#050505" d=" M 140.14 76.31 C 140.74 76.91 140.74 76.91 140.14 76.31 Z" />
<path fill="#050505" d=" M 29.49 86.86 C 29.27 84.36 29.51 81.85 30.40 79.50 C 30.56 85.63 30.09 91.78 30.81 97.89 C 32.01 94.89 32.16 91.66 32.71 88.52 C 32.75 91.26 32.41 94.00 32.41 96.75 C 37.69 97.12 42.71 95.11 47.95 94.78 C 52.34 94.62 56.68 93.75 61.09 93.82 C 61.04 93.15 60.95 91.81 60.90 91.13 C 61.59 89.74 62.21 88.32 62.97 86.97 C 62.62 89.26 61.87 91.46 61.22 93.67 C 62.18 93.54 64.12 93.28 65.09 93.15 L 65.49 92.50 L 65.95 92.00 C 66.25 92.25 66.84 92.77 67.13 93.03 C 68.65 93.75 70.33 93.57 71.96 93.56 C 80.12 93.45 88.28 93.79 96.43 93.97 C 96.25 93.34 95.88 92.09 95.69 91.46 C 95.85 90.95 96.00 90.45 96.15 89.94 C 96.72 91.11 95.50 94.69 97.76 93.77 C 98.41 92.72 99.01 91.63 99.67 90.57 C 99.22 91.73 98.76 92.88 98.28 94.04 C 99.04 93.99 100.56 93.91 101.32 93.86 C 101.38 92.73 101.51 91.60 101.64 90.48 C 102.28 91.13 103.01 91.58 103.83 91.84 C 104.03 91.23 104.42 89.99 104.62 89.37 C 105.34 90.06 106.08 90.73 106.79 91.43 C 105.65 91.00 104.54 91.48 104.49 92.83 C 103.44 94.79 106.78 94.72 107.70 95.70 L 107.71 95.76 C 105.94 95.51 104.17 95.28 102.39 95.06 C 102.85 97.03 101.99 98.42 100.18 99.24 C 100.53 99.82 101.00 100.31 101.58 100.70 C 100.43 101.41 98.87 101.78 98.31 103.15 C 98.69 105.09 97.50 106.77 97.05 108.58 C 96.93 108.69 96.71 108.92 96.59 109.03 C 96.51 105.12 96.19 100.18 100.08 97.89 C 100.46 96.61 101.14 95.47 101.78 94.31 C 88.29 94.85 74.74 93.54 61.23 94.44 C 61.22 96.34 60.23 98.96 63.00 99.20 C 63.46 98.80 64.38 98.01 64.84 97.62 L 65.15 97.92 C 66.29 98.92 67.51 98.16 68.70 97.70 C 68.41 98.28 68.14 98.87 67.86 99.45 C 65.95 99.45 64.03 99.45 62.13 99.64 C 60.68 101.29 58.42 103.71 60.51 105.78 C 59.81 105.60 59.11 105.43 58.41 105.27 C 58.44 104.88 58.49 104.10 58.52 103.71 C 61.30 101.26 60.39 97.52 60.86 94.25 C 53.50 94.46 46.23 95.75 38.98 96.97 C 36.19 97.51 33.19 97.27 30.68 98.82 C 30.07 101.31 30.44 103.92 29.79 106.41 C 29.22 99.77 28.30 93.15 28.55 86.46 L 29.49 86.86 Z" />
<path fill="#050505" d=" M 116.52 79.70 C 120.11 80.61 119.24 84.46 119.54 87.27 C 120.02 87.58 120.98 88.20 121.47 88.50 C 121.50 89.09 121.56 90.25 121.60 90.83 C 121.35 90.80 120.85 90.74 120.60 90.71 L 120.25 90.05 C 118.14 87.54 118.42 84.22 118.40 81.16 C 117.87 81.25 116.79 81.43 116.25 81.52 C 116.32 81.07 116.45 80.16 116.52 79.70 Z" />
<path fill="#050505" d=" M 135.15 89.11 C 134.51 86.80 134.22 84.42 134.66 82.03 C 135.33 85.15 138.85 84.30 140.76 86.07 C 141.53 87.17 142.34 88.24 143.19 89.28 C 143.36 90.42 143.53 91.56 143.69 92.70 C 144.13 92.56 144.99 92.27 145.42 92.13 C 145.81 95.27 147.38 98.75 145.85 101.76 C 145.54 101.81 144.93 101.90 144.62 101.95 C 142.58 101.56 140.49 101.48 138.42 101.50 C 140.01 102.22 141.73 102.51 143.47 102.57 C 143.59 102.81 143.82 103.30 143.94 103.54 C 144.43 103.62 145.42 103.77 145.91 103.85 L 146.59 104.27 C 146.60 107.14 146.69 110.01 146.50 112.87 C 145.41 119.20 146.28 125.89 143.42 131.85 C 141.43 135.75 141.25 140.16 140.23 144.34 C 136.12 148.62 131.29 152.78 129.59 158.69 C 128.83 157.94 128.09 157.17 127.38 156.38 C 127.88 155.48 128.46 154.60 128.64 153.56 C 127.67 154.23 126.71 154.91 125.76 155.59 C 125.02 159.74 123.82 163.81 123.45 168.01 C 123.40 176.05 124.04 184.35 121.06 192.01 C 120.12 194.34 117.63 196.33 114.99 195.60 C 115.09 195.94 115.30 196.60 115.40 196.93 L 113.89 196.72 C 114.41 196.06 115.44 194.75 115.96 194.10 L 113.10 194.60 C 113.49 193.58 113.88 192.57 114.30 191.57 L 114.37 193.96 C 116.78 193.87 118.14 191.98 119.51 190.31 C 119.90 190.49 120.67 190.87 121.06 191.05 C 121.24 190.12 121.60 188.25 121.79 187.31 C 121.17 187.41 119.94 187.61 119.32 187.71 C 119.47 184.87 119.63 182.03 119.45 179.20 C 118.71 181.24 118.43 183.39 117.95 185.50 C 117.71 184.40 117.24 182.20 117.00 181.11 C 116.73 182.26 116.46 183.42 116.20 184.58 C 116.73 184.88 117.80 185.49 118.33 185.80 C 117.40 185.67 115.53 185.42 114.60 185.29 C 113.81 186.94 113.08 188.61 112.31 190.27 C 112.42 189.59 112.64 188.24 112.75 187.56 C 113.58 186.13 114.30 184.62 115.02 183.14 C 113.42 183.14 112.12 183.72 111.13 184.89 C 111.36 183.33 111.48 181.77 111.59 180.20 C 110.82 180.23 109.28 180.28 108.51 180.30 C 109.93 186.18 111.22 192.10 112.91 197.91 L 110.82 197.88 C 111.56 198.02 112.30 198.16 113.05 198.30 C 113.68 202.66 115.64 206.79 115.63 211.24 C 115.26 211.53 114.53 212.11 114.16 212.40 C 117.44 212.39 117.08 217.02 117.76 219.35 C 116.14 218.00 114.98 215.94 112.88 215.29 C 110.98 215.63 109.22 216.49 107.40 217.11 C 107.47 217.70 107.61 218.89 107.68 219.49 L 106.74 219.34 C 106.50 220.65 106.25 221.98 105.96 223.28 C 105.67 222.44 105.10 220.76 104.81 219.92 C 104.53 217.90 104.46 215.86 104.44 213.83 L 103.56 214.63 C 103.48 213.45 103.40 212.28 103.30 211.11 C 102.65 209.45 102.16 207.75 101.63 206.06 C 97.78 210.69 91.78 212.63 86.88 215.91 C 83.95 217.97 80.41 218.68 76.91 218.97 C 76.04 217.48 75.23 215.97 74.39 214.47 L 77.39 214.33 C 77.32 216.66 79.42 216.60 81.17 216.79 C 81.22 215.95 81.32 214.26 81.36 213.42 C 81.48 214.30 81.72 216.04 81.84 216.92 C 85.30 216.73 87.39 214.08 89.56 211.77 C 89.43 211.42 89.16 210.73 89.03 210.38 C 90.99 210.52 93.00 210.46 94.66 209.25 C 93.40 209.43 90.88 209.80 89.62 209.98 C 92.22 208.50 93.64 205.40 96.72 204.76 C 96.59 205.35 96.32 206.53 96.19 207.12 C 96.79 207.27 97.97 207.59 98.57 207.75 C 98.55 207.31 98.53 206.45 98.52 206.02 C 99.04 205.67 100.08 204.99 100.60 204.65 C 101.10 200.43 98.96 196.47 98.18 192.40 L 97.35 192.87 C 97.42 192.00 97.58 190.27 97.65 189.40 C 95.76 190.67 94.89 192.76 93.92 194.73 C 93.02 194.18 92.13 193.63 91.23 193.08 C 89.29 194.55 86.60 195.83 87.43 198.74 C 86.08 198.73 84.73 198.72 83.38 198.73 C 83.31 200.49 83.29 202.26 83.32 204.02 C 84.62 203.52 85.91 203.00 87.21 202.48 C 87.45 201.83 87.94 200.53 88.19 199.88 C 88.24 200.63 88.36 202.12 88.41 202.87 L 91.19 202.34 C 90.64 200.92 90.08 199.52 89.50 198.13 C 89.69 198.14 90.05 198.18 90.23 198.19 C 90.64 199.38 91.05 200.56 91.48 201.74 C 91.83 201.68 92.52 201.56 92.87 201.49 C 90.38 203.84 87.41 205.53 84.38 207.06 C 84.77 206.36 85.56 204.97 85.96 204.28 L 82.98 204.66 C 83.14 202.45 81.35 198.06 85.06 198.15 C 84.50 196.72 83.92 195.31 83.32 193.91 C 81.88 195.69 80.33 197.38 78.74 199.05 C 79.45 196.99 80.20 194.96 80.97 192.93 C 80.07 190.70 79.96 186.99 76.32 188.90 C 77.35 186.47 77.47 183.82 78.15 181.30 C 78.40 183.39 78.54 185.49 78.82 187.57 C 81.93 187.11 81.80 183.93 82.91 181.71 C 83.10 182.97 83.47 185.50 83.66 186.76 C 84.64 186.28 86.59 185.34 87.56 184.86 C 86.93 184.43 86.29 184.01 85.65 183.60 C 85.68 182.00 85.59 180.40 85.43 178.81 C 85.00 178.63 84.13 178.26 83.70 178.08 C 83.03 179.27 83.13 181.09 81.76 181.76 C 80.02 181.64 79.69 176.84 77.94 180.84 C 78.37 178.49 78.91 176.18 79.62 173.91 C 80.21 174.79 81.40 176.54 81.99 177.42 L 82.28 175.09 C 84.32 175.38 86.37 175.83 88.44 175.54 C 88.21 172.19 87.41 168.88 87.99 165.52 C 87.02 168.56 86.96 171.83 85.90 174.82 C 83.78 175.62 84.95 172.06 84.30 171.11 C 83.20 170.36 82.07 169.67 80.89 169.09 C 80.37 170.52 79.85 171.95 79.33 173.38 C 79.41 171.30 78.40 168.71 80.65 167.43 C 82.45 166.29 81.34 164.14 81.40 162.46 C 82.71 161.11 84.03 159.77 85.36 158.44 C 86.82 158.53 88.28 158.59 89.74 158.70 C 88.63 158.88 86.41 159.24 85.30 159.43 C 86.13 159.95 86.82 162.66 88.33 161.53 C 89.59 160.52 90.85 159.49 92.17 158.55 C 93.17 158.86 94.03 158.36 94.56 157.51 C 95.82 157.20 95.26 160.08 94.02 159.79 C 93.27 159.77 91.77 159.74 91.02 159.72 C 90.21 161.16 89.47 162.63 88.81 164.13 C 90.31 163.03 91.79 161.89 93.17 160.62 C 94.79 160.52 96.41 160.32 98.03 160.20 C 98.65 159.86 99.26 159.52 99.88 159.19 C 100.53 158.22 101.21 157.27 101.95 156.35 C 102.78 156.69 104.45 157.36 105.29 157.70 C 105.65 158.51 106.02 159.32 106.39 160.14 C 106.46 158.75 106.54 157.36 106.62 155.97 C 104.96 155.49 103.41 154.78 101.96 153.85 C 104.40 153.38 107.04 153.36 109.20 151.96 C 110.82 151.73 112.03 150.75 113.05 149.53 C 113.58 149.41 114.63 149.18 115.15 149.07 C 115.46 148.83 116.07 148.36 116.37 148.12 C 116.30 146.92 116.16 144.54 116.08 143.34 C 117.03 143.31 117.98 143.33 118.92 143.40 L 117.86 144.57 C 118.75 144.23 120.53 143.56 121.42 143.22 C 121.43 144.11 121.45 145.89 121.46 146.78 C 120.20 146.62 118.94 146.47 117.68 146.34 C 118.24 146.69 119.36 147.38 119.92 147.73 C 119.31 148.78 118.71 149.84 118.11 150.90 C 119.86 149.45 121.31 147.54 123.49 146.70 C 123.52 146.52 123.56 146.14 123.58 145.96 C 125.84 145.80 127.79 144.80 128.36 142.40 C 127.41 142.52 125.51 142.76 124.56 142.87 C 124.59 142.47 124.65 141.67 124.68 141.27 C 124.01 141.38 122.68 141.60 122.02 141.71 C 122.76 140.62 123.50 139.54 124.25 138.47 C 122.82 138.47 121.39 138.46 119.97 138.44 L 121.04 139.83 L 119.60 139.32 C 119.70 142.04 117.11 141.45 115.53 142.67 C 112.80 140.76 111.12 137.92 109.90 134.90 C 109.26 134.66 107.97 134.20 107.33 133.97 L 107.70 136.23 L 106.74 136.82 C 106.63 134.66 106.40 132.51 106.24 130.36 C 106.50 131.27 107.02 133.08 107.27 133.99 C 108.03 133.80 109.54 133.42 110.29 133.23 C 110.36 131.46 110.40 129.69 110.41 127.93 C 109.87 128.08 108.80 128.40 108.26 128.56 C 106.53 126.60 104.06 124.95 103.96 122.03 C 103.19 124.61 102.36 127.17 101.48 129.71 C 100.85 129.75 99.59 129.82 98.97 129.85 C 99.77 132.82 101.20 135.77 100.59 138.93 C 100.54 141.18 98.53 142.49 97.16 143.98 C 95.38 144.73 93.76 145.85 91.90 146.38 C 88.91 146.86 85.86 146.42 82.85 146.68 C 82.85 147.47 82.87 149.07 82.88 149.87 C 83.34 149.46 84.28 148.63 84.75 148.21 C 88.14 150.83 93.05 150.86 96.78 148.94 C 98.01 148.19 99.45 148.31 100.83 148.31 L 100.09 146.92 C 100.68 147.14 101.86 147.58 102.45 147.80 L 102.35 146.42 L 103.49 146.74 C 103.46 145.91 103.41 144.26 103.39 143.44 C 103.90 144.51 104.38 145.60 104.83 146.71 C 105.87 146.69 107.96 146.66 109.00 146.64 C 107.50 148.10 105.67 149.09 103.91 150.18 C 102.84 150.44 101.79 150.73 100.74 151.04 C 99.30 151.51 97.86 152.00 96.52 152.70 C 95.48 152.60 94.43 152.49 93.39 152.37 C 94.10 153.11 94.80 153.86 95.49 154.62 C 97.51 154.48 100.04 153.26 101.19 156.06 C 100.15 156.65 99.09 157.24 98.03 157.81 C 96.75 157.18 95.52 156.47 94.18 156.00 C 93.50 155.12 92.82 154.26 92.12 153.41 C 90.66 153.49 89.60 152.84 88.95 151.44 C 88.39 151.39 87.29 151.29 86.73 151.24 C 86.01 150.51 85.16 150.14 84.18 150.11 C 83.79 150.59 83.00 151.53 82.61 152.00 C 86.00 152.83 89.39 153.66 92.74 154.65 L 92.33 155.89 C 91.39 155.73 89.50 155.40 88.56 155.24 C 88.39 155.80 88.06 156.92 87.89 157.48 C 87.82 156.69 87.67 155.12 87.59 154.34 L 85.34 154.53 C 85.35 154.93 85.38 155.73 85.40 156.13 L 84.42 155.91 L 84.91 154.22 C 84.10 154.22 82.47 154.22 81.66 154.22 C 81.71 155.88 80.23 156.70 79.31 157.79 C 79.47 156.05 79.64 154.31 79.57 152.56 C 80.30 152.49 81.76 152.33 82.49 152.26 C 82.32 150.63 82.68 148.84 81.86 147.36 C 79.84 146.04 77.64 145.05 75.55 143.85 C 75.43 142.31 75.21 140.76 74.25 139.49 C 74.40 140.53 74.70 142.61 74.85 143.65 C 72.81 142.87 70.72 142.20 68.76 141.23 C 67.39 138.01 66.34 134.54 63.94 131.88 C 63.40 133.63 62.84 135.37 62.10 137.04 C 61.90 136.12 61.50 134.27 61.31 133.34 L 60.47 133.79 C 60.48 132.05 60.12 130.36 59.10 128.92 C 57.67 128.51 56.24 128.10 54.84 127.57 C 54.63 129.45 54.37 131.32 54.07 133.19 C 53.48 131.70 52.29 128.71 51.70 127.22 C 54.34 132.94 51.26 138.40 49.03 143.55 C 46.35 145.17 42.62 145.44 41.05 148.45 C 44.53 149.94 43.88 154.33 45.35 157.22 C 44.33 156.41 43.31 155.59 42.30 154.78 C 42.32 153.88 42.36 152.07 42.37 151.16 C 41.87 151.28 40.88 151.52 40.38 151.64 L 41.27 149.39 C 40.12 149.69 37.81 150.31 36.66 150.61 C 37.85 149.76 39.43 149.33 40.25 148.04 C 40.95 145.99 38.27 146.73 37.13 146.13 C 35.23 144.46 33.98 142.22 33.31 139.80 C 34.51 139.54 35.71 139.30 36.91 139.07 C 38.20 139.25 39.49 139.40 40.79 139.55 C 40.80 139.23 40.83 138.60 40.84 138.28 L 39.22 138.75 C 39.41 138.16 39.81 136.98 40.01 136.39 C 37.88 137.19 35.72 137.89 33.59 138.69 C 33.51 138.03 33.37 136.70 33.29 136.04 C 31.91 136.14 30.53 136.24 29.16 136.35 C 31.20 140.83 29.70 146.26 32.77 150.32 C 33.06 148.70 33.79 147.34 35.43 146.94 C 35.15 147.86 34.60 149.69 34.32 150.61 C 33.77 150.53 32.68 150.36 32.13 150.28 C 32.30 151.96 32.75 153.57 34.29 154.53 C 34.34 153.77 34.45 152.24 34.50 151.48 C 35.12 151.49 36.37 151.53 37.00 151.54 C 36.35 152.85 35.68 154.15 35.00 155.44 C 35.42 155.41 36.24 155.35 36.65 155.31 L 36.47 157.61 C 36.00 157.67 35.06 157.80 34.59 157.86 C 35.68 158.52 36.75 159.21 37.81 159.93 C 37.59 158.34 37.37 156.76 37.16 155.17 C 38.89 155.45 40.63 155.55 42.39 155.47 L 42.03 157.21 C 43.33 157.18 44.71 157.01 45.89 157.70 C 45.62 155.72 45.43 153.74 45.35 151.74 C 46.47 154.10 47.37 156.56 48.43 158.95 C 48.27 153.92 48.25 148.38 51.30 144.11 C 51.71 142.50 52.06 140.89 52.38 139.27 C 55.06 138.26 54.59 135.08 55.36 132.83 C 55.35 135.46 55.30 138.10 54.54 140.64 C 54.99 140.81 55.89 141.16 56.34 141.33 C 55.26 144.41 58.60 145.02 60.55 146.23 C 60.34 143.79 60.55 141.33 61.44 139.04 C 60.73 137.60 60.07 136.14 59.52 134.64 C 60.47 136.00 61.30 137.43 62.22 138.82 C 62.66 138.43 63.54 137.66 63.99 137.28 C 64.59 138.69 65.27 140.07 65.91 141.47 C 66.43 141.48 67.48 141.50 68.01 141.51 C 67.70 142.05 67.09 143.14 66.79 143.68 C 69.14 143.01 71.08 144.55 73.03 145.56 C 70.85 145.11 68.70 144.51 66.51 144.13 C 66.49 143.93 66.43 143.52 66.40 143.32 C 65.13 142.23 64.71 140.57 64.05 139.11 C 63.58 139.35 62.64 139.81 62.17 140.04 C 61.10 141.58 61.76 143.74 61.26 145.50 C 62.12 146.41 62.97 147.33 63.80 148.27 C 65.38 151.22 64.57 154.66 64.43 157.84 L 66.09 157.72 C 64.63 158.52 63.15 159.30 61.70 160.12 C 63.31 161.35 65.18 161.83 67.30 161.57 C 67.41 160.59 67.62 158.63 67.73 157.66 C 67.65 157.82 67.49 158.15 67.41 158.31 C 67.37 157.42 67.31 155.65 67.27 154.76 C 67.80 155.84 68.37 156.91 68.99 157.95 L 69.87 155.72 C 70.11 156.32 70.59 157.50 70.83 158.10 C 73.10 160.84 73.82 164.28 73.90 167.77 L 73.58 167.85 C 73.05 164.89 73.10 161.51 70.76 159.27 C 70.28 159.40 69.32 159.65 68.84 159.77 C 67.40 160.42 68.92 161.70 69.31 162.45 C 69.51 163.17 69.90 164.61 70.10 165.33 C 69.28 163.99 68.42 161.42 66.39 162.12 C 66.17 163.50 66.87 164.90 66.98 166.30 C 65.98 164.78 64.99 163.26 63.97 161.77 C 63.54 163.07 63.09 164.36 62.62 165.64 L 62.66 163.13 L 61.49 163.57 C 61.55 163.06 61.66 162.04 61.72 161.53 C 60.29 161.36 58.85 161.18 57.42 160.99 C 57.56 161.41 57.86 162.26 58.00 162.68 C 56.96 162.63 54.87 162.54 53.83 162.49 L 54.62 160.27 C 55.30 160.42 56.65 160.73 57.33 160.88 C 56.72 159.93 56.12 158.97 55.53 158.01 C 54.62 159.39 53.63 160.76 53.13 162.35 C 54.31 162.86 55.52 163.31 56.75 163.70 C 57.83 165.35 58.08 167.24 57.43 169.14 C 60.31 170.94 62.63 168.03 64.26 165.99 C 63.75 166.81 62.71 168.45 62.19 169.27 C 62.93 169.06 64.42 168.65 65.16 168.44 C 61.52 168.92 60.51 173.17 62.14 175.99 C 64.52 175.92 63.91 172.42 64.89 170.88 C 64.62 173.25 64.19 175.70 62.11 177.18 C 61.43 179.06 62.40 181.17 62.28 183.13 C 63.25 179.03 66.75 176.16 67.58 172.02 C 67.58 170.40 67.37 168.80 67.22 167.20 L 67.79 167.10 C 67.83 168.36 67.88 169.62 67.92 170.89 C 68.87 170.67 69.82 170.45 70.77 170.24 C 70.71 170.85 70.59 172.07 70.53 172.68 C 70.10 172.56 69.24 172.30 68.81 172.17 C 68.47 174.01 67.93 175.81 67.42 177.61 L 66.03 177.41 C 66.51 178.36 67.47 180.27 67.95 181.23 C 68.44 180.20 69.41 178.15 69.90 177.12 C 70.07 177.99 70.41 179.73 70.58 180.59 L 69.68 180.46 C 69.29 183.04 67.38 186.18 69.27 188.54 C 70.37 188.39 71.45 188.12 72.54 187.89 C 72.36 185.28 72.40 182.66 72.25 180.04 C 71.48 178.49 70.79 176.86 70.59 175.12 C 71.38 176.41 72.10 177.75 72.76 179.11 C 73.95 177.81 75.42 176.85 76.96 176.02 C 76.78 173.67 75.99 171.51 74.64 169.59 C 75.59 170.30 76.55 171.00 77.51 171.71 C 77.31 175.06 77.72 178.41 77.65 181.78 L 76.39 181.39 C 75.84 183.28 74.77 185.33 76.45 187.05 C 75.99 187.55 75.54 188.04 75.09 188.54 C 75.26 192.11 78.42 194.84 77.47 198.55 C 76.53 197.60 75.59 196.64 74.62 195.73 C 74.14 196.55 73.64 197.37 73.13 198.17 L 72.61 198.58 C 72.29 198.68 71.65 198.89 71.33 198.99 C 71.18 199.48 70.86 200.46 70.71 200.95 L 72.60 199.54 C 73.02 201.52 73.46 203.56 73.00 205.57 C 72.86 204.82 72.60 203.33 72.46 202.58 L 70.43 202.15 C 70.29 202.82 70.01 204.17 69.88 204.84 C 69.48 203.18 69.62 201.49 70.24 199.92 C 69.50 198.48 68.73 197.06 67.95 195.65 C 67.04 196.85 66.60 198.19 66.63 199.69 C 64.39 198.03 62.68 195.86 61.40 193.40 C 61.91 193.49 62.94 193.67 63.46 193.77 C 63.46 192.48 63.49 191.19 63.52 189.91 C 62.56 189.68 61.60 189.46 60.64 189.25 C 60.43 191.01 60.33 192.79 60.00 194.53 C 59.44 193.18 58.91 191.83 58.39 190.47 C 55.98 189.40 52.43 188.88 51.36 192.03 C 51.97 191.79 53.19 191.31 53.79 191.07 C 53.81 192.02 53.84 193.91 53.85 194.86 C 54.48 194.05 55.09 193.22 55.67 192.37 C 56.00 192.20 56.66 191.86 56.99 191.69 C 57.40 194.11 58.23 196.43 59.29 198.64 C 59.45 197.63 59.78 195.62 59.94 194.61 C 60.88 197.64 63.12 199.76 65.98 200.99 L 65.44 202.12 C 64.07 200.07 61.48 200.63 59.48 199.86 C 58.31 201.27 56.63 202.42 57.13 204.71 C 58.39 203.54 59.69 202.42 61.06 201.39 C 59.50 202.97 59.22 204.63 60.88 206.13 C 61.48 205.97 62.69 205.65 63.29 205.49 C 63.58 205.03 64.16 204.10 64.45 203.64 C 64.46 204.35 64.48 205.77 64.50 206.48 C 63.14 206.43 61.78 206.38 60.43 206.34 C 60.51 207.27 60.69 209.12 60.77 210.05 C 61.65 208.82 62.94 208.25 64.36 208.02 C 64.39 208.29 64.44 208.83 64.47 209.10 C 64.16 209.15 63.55 209.25 63.25 209.30 C 63.05 209.58 62.67 210.15 62.47 210.44 C 60.44 210.52 58.42 210.42 56.39 210.35 L 56.33 209.45 C 57.26 209.38 59.11 209.22 60.04 209.15 C 59.36 207.52 58.66 205.90 57.93 204.30 C 57.77 205.25 57.45 207.16 57.29 208.11 C 57.22 207.90 57.07 207.48 56.99 207.27 C 55.95 204.45 55.16 201.56 54.06 198.77 C 52.22 198.43 50.33 198.55 48.47 198.46 C 49.54 200.14 50.67 201.78 51.84 203.40 C 52.17 203.79 52.84 204.58 53.18 204.98 C 54.44 205.76 55.71 206.52 56.99 207.27 C 56.62 207.28 55.86 207.30 55.48 207.31 C 55.15 207.30 54.49 207.27 54.17 207.25 C 54.10 208.14 53.97 209.93 53.91 210.82 C 52.77 209.34 51.52 207.95 50.21 206.63 C 49.83 208.91 50.60 210.34 52.54 210.89 C 52.51 212.09 52.48 213.28 52.45 214.48 C 53.22 214.46 54.77 214.40 55.54 214.37 L 55.36 215.63 C 56.55 216.06 57.73 216.52 58.97 216.81 C 59.17 216.04 59.58 214.51 59.78 213.74 C 59.98 214.24 60.38 215.24 60.58 215.74 C 62.99 213.56 66.52 215.19 69.43 214.68 C 69.54 215.21 69.75 216.28 69.86 216.82 C 68.59 217.03 66.13 215.05 65.79 217.02 C 66.26 219.28 69.61 217.94 70.94 219.07 C 68.86 219.77 66.66 219.64 64.50 219.64 L 64.76 218.54 C 61.11 218.45 57.46 218.55 53.82 218.34 C 48.61 216.82 49.40 210.17 46.33 206.59 C 48.54 206.43 52.14 207.10 51.42 203.60 C 50.70 204.28 49.26 205.63 48.54 206.31 L 48.61 204.32 L 47.78 204.66 C 47.47 203.53 47.12 202.41 46.74 201.30 C 46.92 195.99 46.52 190.69 45.44 185.50 C 47.97 187.50 48.47 190.89 50.26 193.45 C 49.28 191.39 48.35 189.25 48.80 186.91 C 45.26 186.66 45.70 182.16 44.58 179.65 C 44.85 183.81 43.72 188.02 44.71 192.13 C 45.53 195.60 45.67 199.17 45.48 202.72 L 46.50 202.24 C 46.54 203.65 46.59 205.05 46.64 206.46 C 46.10 205.60 45.56 204.74 45.02 203.87 C 41.70 197.14 42.84 189.57 42.80 182.37 C 42.43 182.42 41.68 182.52 41.30 182.58 C 41.79 182.05 42.29 181.54 42.80 181.05 C 43.26 179.43 43.76 177.82 44.33 176.23 C 44.46 172.13 45.23 167.64 42.54 164.10 L 45.47 164.54 C 45.84 166.66 46.34 168.76 46.72 170.88 L 46.99 168.88 C 47.57 169.73 48.16 170.58 48.74 171.43 C 48.70 172.28 48.61 173.97 48.56 174.81 C 46.25 176.32 46.17 179.23 46.00 181.68 C 47.36 179.50 46.46 174.60 50.31 175.43 C 49.46 177.44 48.93 179.55 48.36 181.65 L 46.75 181.52 C 47.76 182.97 48.68 184.58 50.35 185.38 C 51.01 181.87 50.78 178.30 50.57 174.76 L 51.45 174.65 C 51.91 173.85 52.83 172.26 53.29 171.47 C 53.32 173.89 53.57 176.34 55.17 178.29 C 55.06 175.27 54.83 172.26 54.61 169.25 C 55.01 168.97 55.81 168.40 56.21 168.12 C 55.24 167.03 54.28 165.93 53.34 164.83 C 53.37 166.53 53.52 168.29 52.62 169.82 C 52.43 168.26 52.28 166.70 52.17 165.14 C 51.39 163.64 50.75 162.08 49.99 160.58 C 50.28 162.23 50.58 163.89 50.89 165.54 L 49.45 165.09 C 49.40 166.41 49.30 169.03 49.25 170.35 C 47.40 168.26 47.22 165.39 46.55 162.81 C 44.56 161.65 44.04 159.48 43.96 157.30 C 41.63 159.11 42.96 161.54 44.16 163.68 C 42.34 163.96 40.51 164.25 38.68 164.45 C 38.14 164.16 37.06 163.59 36.52 163.31 C 33.97 159.23 31.84 154.89 29.50 150.71 C 29.17 145.83 29.65 140.77 27.89 136.07 C 27.46 132.67 26.84 129.31 26.33 125.93 C 26.53 121.70 28.35 117.76 28.81 113.56 L 29.71 113.83 C 29.63 111.26 29.58 108.68 29.49 106.11 C 29.99 107.25 30.49 108.38 30.98 109.52 C 31.13 106.33 31.03 103.13 31.45 99.96 C 32.08 103.50 31.53 107.10 31.44 110.66 L 32.60 110.31 C 32.60 110.95 32.61 112.22 32.61 112.86 C 32.03 111.83 30.87 109.77 30.29 108.73 C 30.32 111.10 30.67 113.56 30.05 115.89 C 29.12 119.27 28.18 122.66 27.25 126.04 C 27.55 126.77 28.16 128.21 28.46 128.94 C 28.83 125.95 31.42 126.24 33.61 126.17 C 33.47 124.82 33.32 123.48 33.18 122.14 C 33.79 122.64 35.00 123.63 35.60 124.13 C 35.33 121.76 36.04 118.89 33.52 117.47 C 33.56 118.44 33.63 120.36 33.66 121.33 C 32.80 118.98 30.89 116.86 31.65 114.15 C 32.01 115.08 32.74 116.92 33.10 117.85 L 33.47 117.41 C 33.76 116.64 34.35 115.10 34.65 114.33 C 34.64 115.32 34.61 117.29 34.60 118.28 C 35.88 118.83 37.21 119.22 38.59 119.43 C 38.57 120.30 38.54 122.05 38.53 122.93 C 37.95 122.08 36.80 120.39 36.23 119.55 C 36.32 120.79 36.42 122.04 36.52 123.29 C 36.88 123.57 37.58 124.13 37.93 124.40 C 39.45 124.12 40.97 123.84 42.48 123.49 C 41.64 123.48 39.97 123.46 39.13 123.45 C 39.28 122.74 39.59 121.33 39.74 120.62 C 41.28 119.80 42.47 121.45 43.82 121.92 C 45.21 122.81 46.94 122.62 48.51 122.94 C 47.88 120.33 47.45 117.67 47.26 114.99 C 48.08 116.35 48.90 117.71 49.76 119.04 C 50.28 120.11 50.76 121.20 51.20 122.31 C 52.22 122.70 54.27 123.48 55.30 123.88 C 57.01 121.40 53.57 121.59 53.45 119.87 C 53.29 117.52 52.87 115.21 52.51 112.89 C 53.35 115.30 54.11 117.74 54.92 120.16 C 55.56 121.29 56.16 122.45 56.75 123.61 L 58.33 123.60 C 58.97 122.38 59.64 121.18 60.30 119.98 C 59.06 119.74 57.81 119.48 56.58 119.21 C 58.72 119.13 60.87 119.16 63.00 119.38 C 62.04 120.51 61.03 121.59 59.96 122.61 L 62.32 122.30 C 62.74 120.92 63.14 119.53 63.59 118.17 C 62.82 118.17 61.28 118.18 60.51 118.19 C 62.10 117.04 64.00 116.72 65.88 116.48 C 64.41 115.32 63.01 114.06 61.78 112.63 C 62.28 111.88 63.29 110.37 63.80 109.61 C 62.50 109.45 61.21 109.29 59.91 109.13 C 59.72 108.68 59.34 107.76 59.15 107.30 C 60.20 107.53 61.24 107.77 62.29 108.00 C 62.73 107.37 63.61 106.11 64.05 105.47 C 64.34 108.40 63.96 111.57 65.93 114.02 C 67.65 114.65 69.43 115.09 71.16 115.71 C 72.49 116.35 73.94 116.65 75.41 116.79 C 75.40 117.02 75.37 117.50 75.36 117.73 C 76.76 117.64 78.17 117.54 79.58 117.44 C 80.08 116.00 80.53 114.54 80.90 113.07 L 82.06 113.41 C 81.01 115.98 79.58 118.37 78.15 120.74 C 80.52 120.60 82.92 120.46 85.24 119.88 C 84.04 119.77 82.84 119.71 81.64 119.71 C 81.94 118.93 82.55 117.35 82.85 116.56 C 82.94 117.11 83.12 118.23 83.21 118.78 C 84.09 118.51 84.93 118.12 85.72 117.61 C 85.88 118.72 84.59 120.62 86.05 121.18 C 87.59 121.23 89.12 121.23 90.66 121.17 L 90.63 122.47 C 90.98 122.40 91.68 122.25 92.03 122.18 C 93.47 123.80 95.63 124.13 97.63 124.61 C 96.73 123.60 95.80 122.63 94.84 121.70 C 94.68 121.27 94.35 120.42 94.19 119.99 C 95.15 121.05 96.11 122.12 97.11 123.16 C 97.22 122.30 97.44 120.58 97.55 119.72 C 97.68 121.98 97.74 124.24 97.89 126.51 C 98.49 125.33 99.08 124.14 99.64 122.95 C 99.50 124.79 99.47 126.63 99.55 128.48 C 100.53 127.14 101.49 125.79 102.42 124.42 C 102.19 121.94 102.48 119.46 102.78 117.00 L 101.35 117.76 C 101.66 114.20 99.89 109.24 103.55 106.92 C 103.83 109.88 102.33 113.25 104.17 115.92 C 104.42 116.59 104.92 117.93 105.17 118.59 C 105.33 116.82 105.45 115.05 105.53 113.27 C 106.13 113.32 107.33 113.42 107.92 113.47 C 107.66 114.89 107.39 116.31 107.12 117.74 C 107.78 117.59 109.10 117.29 109.76 117.14 C 109.66 119.21 109.54 121.27 109.47 123.34 C 109.99 122.02 111.02 119.39 111.53 118.08 C 111.57 120.67 111.58 123.26 111.56 125.86 C 111.76 125.83 112.18 125.78 112.39 125.76 L 112.74 122.85 C 113.51 123.97 115.00 124.96 114.56 126.52 C 115.56 129.24 116.24 132.07 117.09 134.85 C 117.82 133.01 117.64 131.06 117.44 129.15 C 118.01 129.29 119.13 129.57 119.69 129.71 C 119.24 128.81 120.56 126.24 118.74 126.56 C 115.09 127.65 115.62 122.17 118.92 123.24 C 118.91 123.07 118.89 122.72 118.88 122.54 C 118.04 122.48 116.37 122.36 115.53 122.30 L 114.98 124.46 C 114.23 123.06 113.69 121.57 113.50 119.99 C 114.54 119.69 115.58 119.42 116.63 119.18 C 115.52 116.95 115.15 114.47 114.34 112.13 C 114.42 113.19 114.58 115.30 114.66 116.36 C 114.08 116.45 112.92 116.64 112.34 116.73 C 112.51 115.29 112.71 113.86 112.89 112.42 C 111.93 112.75 110.01 113.40 109.05 113.73 C 109.24 113.14 109.61 111.96 109.79 111.37 C 109.22 111.47 108.09 111.68 107.52 111.78 C 107.45 111.08 107.31 109.70 107.24 109.00 C 107.98 109.15 109.46 109.45 110.21 109.59 C 111.14 108.97 112.43 107.12 112.64 109.56 C 112.92 109.74 113.49 110.08 113.77 110.26 L 114.31 110.55 C 115.38 110.56 116.46 110.57 117.54 110.57 C 117.51 109.76 117.44 108.15 117.41 107.35 C 117.92 107.42 118.94 107.56 119.45 107.63 C 119.40 107.04 119.29 105.85 119.24 105.25 C 119.69 105.30 120.61 105.40 121.06 105.45 L 121.63 106.97 C 122.07 107.32 122.95 108.01 123.39 108.36 L 123.47 106.47 C 123.95 106.40 124.92 106.25 125.40 106.18 C 125.23 108.46 126.00 110.58 126.84 112.65 C 127.08 111.87 127.57 110.31 127.82 109.53 L 126.38 109.42 C 126.48 108.19 126.57 106.96 126.65 105.72 L 123.30 105.08 C 125.07 104.69 126.84 104.33 128.63 104.02 C 128.51 105.95 128.36 107.87 128.32 109.81 C 128.54 108.96 128.97 107.26 129.18 106.42 C 129.64 106.50 130.57 106.68 131.03 106.76 C 130.70 106.22 130.05 105.13 129.72 104.59 C 130.23 104.60 131.23 104.63 131.73 104.65 C 131.51 102.19 130.97 99.55 133.00 97.61 C 132.28 97.62 130.84 97.65 130.12 97.67 C 130.39 96.04 130.69 94.42 131.02 92.80 C 131.32 94.39 130.68 96.66 132.56 97.43 C 132.04 95.08 131.48 91.71 134.78 91.49 C 133.85 91.18 132.92 90.89 131.98 90.60 C 132.49 90.57 133.49 90.52 133.99 90.49 L 133.25 89.02 C 134.02 89.80 134.65 89.83 135.15 89.11 Z" />
<path fill="#fefefe" d=" M 136.08 85.14 C 137.10 85.59 139.15 86.49 140.17 86.94 C 140.40 88.54 140.54 90.15 140.74 91.76 C 140.05 91.59 138.66 91.25 137.97 91.08 C 138.49 90.41 139.01 89.75 139.53 89.09 L 139.65 87.71 C 137.45 88.10 136.26 87.24 136.08 85.14 Z" />
<path fill="#050505" d=" M 119.21 91.20 C 119.78 91.85 119.78 91.85 119.21 91.20 Z" />
<path fill="#050505" d=" M 127.49 102.54 C 126.73 101.45 127.58 98.72 129.20 99.48 C 129.21 100.08 129.24 101.28 129.26 101.88 C 128.82 102.04 127.93 102.38 127.49 102.54 Z" />
<path fill="#fefefe" d=" M 134.46 99.72 C 135.43 99.21 136.38 99.30 137.31 99.98 C 138.95 102.18 133.63 101.67 134.46 99.72 Z" />
<path fill="#050505" d=" M 121.94 104.54 C 122.65 105.08 122.65 105.08 121.94 104.54 Z" />
<path fill="#050505" d=" M 114.48 108.48 C 115.12 109.11 115.12 109.11 114.48 108.48 Z" />
<path fill="#fefefe" d=" M 118.48 112.84 C 117.77 110.24 119.00 108.17 121.61 107.56 C 121.06 108.16 119.96 109.38 119.41 109.98 C 119.48 110.97 119.62 112.93 119.69 113.92 C 120.25 113.71 121.36 113.31 121.92 113.10 L 122.64 112.57 C 122.51 111.78 122.25 110.19 122.12 109.40 C 122.45 110.03 123.13 111.29 123.47 111.92 L 124.85 109.77 C 124.61 112.16 124.57 114.56 124.71 116.96 C 124.36 116.74 123.65 116.31 123.29 116.09 C 122.36 116.72 121.44 117.36 120.50 117.98 C 120.40 117.69 120.19 117.12 120.09 116.83 C 120.63 116.56 121.72 116.01 122.26 115.74 L 122.01 115.11 C 120.74 113.67 118.89 114.36 117.25 114.42 C 117.31 113.93 117.43 112.94 117.49 112.45 L 118.48 112.84 Z" />
<path fill="#050505" d=" M 34.77 112.20 C 35.50 111.32 36.17 110.41 36.79 109.45 L 38.52 109.43 C 38.50 110.25 38.47 111.90 38.46 112.72 L 37.33 112.43 C 37.32 113.21 37.32 114.75 37.31 115.52 C 36.09 114.75 35.02 113.74 33.95 112.78 C 34.15 112.64 34.57 112.35 34.77 112.20 Z" />
<path fill="#050505" d=" M 37.65 114.73 C 38.83 114.55 40.02 114.36 41.20 114.17 C 41.30 115.97 41.42 117.77 41.56 119.56 L 39.43 119.61 L 39.58 118.35 C 39.01 118.40 37.88 118.49 37.31 118.54 C 37.41 117.27 37.53 116.00 37.65 114.73 Z" />
<path fill="#fefefe" d=" M 126.15 115.25 C 126.76 115.82 126.76 115.82 126.15 115.25 Z" />
<path fill="#050505" d=" M 45.10 121.33 C 42.92 121.02 42.70 118.19 44.51 117.25 C 44.70 119.25 51.51 124.85 45.10 121.33 Z" />
<path fill="#fefefe" d=" M 124.31 117.93 C 125.28 117.66 126.27 117.41 127.26 117.18 C 126.47 118.28 125.68 119.38 124.89 120.48 L 126.61 120.38 L 126.09 122.91 L 127.97 121.16 C 127.86 121.71 127.65 122.82 127.54 123.37 C 127.19 123.57 126.50 123.99 126.15 124.20 C 126.52 124.65 127.27 125.56 127.65 126.01 C 126.10 127.21 124.58 128.44 123.08 129.69 L 124.33 130.80 C 124.05 131.48 123.50 132.84 123.22 133.52 C 122.79 133.59 121.94 133.74 121.51 133.82 C 121.45 132.76 121.38 131.70 121.32 130.64 L 122.94 130.89 C 122.82 130.32 122.58 129.19 122.46 128.62 C 122.87 128.59 123.71 128.52 124.12 128.49 C 124.55 127.86 125.39 126.62 125.81 125.99 C 124.18 123.62 124.43 120.68 124.31 117.93 Z" />
<path fill="#fefefe" d=" M 65.46 118.62 C 66.55 118.43 67.64 118.24 68.73 118.06 C 68.55 119.01 68.37 119.96 68.18 120.91 C 67.44 120.78 65.95 120.52 65.21 120.39 C 65.27 119.95 65.40 119.06 65.46 118.62 Z" />
<path fill="#fefefe" d=" M 138.90 123.23 C 142.38 123.22 137.41 126.17 138.90 123.23 Z" />
<path fill="#fefefe" d=" M 122.24 124.20 C 122.83 124.77 122.83 124.77 122.24 124.20 Z" />
<path fill="#fefefe" d=" M 118.80 130.25 C 122.16 130.26 117.38 133.28 118.80 130.25 Z" />
<path fill="#fefefe" d=" M 79.59 137.90 C 81.87 134.76 85.86 136.36 87.27 139.49 L 84.93 139.46 C 84.39 138.65 83.83 137.85 83.26 137.06 C 82.04 137.36 80.82 137.64 79.59 137.90 Z" />
<path fill="#050505" d=" M 107.27 138.74 C 108.58 138.76 109.29 140.71 109.31 141.87 C 108.96 142.08 108.27 142.50 107.92 142.72 C 107.22 141.66 107.03 139.99 107.27 138.74 Z" />
<path fill="#fefefe" d=" M 84.50 140.21 C 85.16 140.26 85.83 140.32 86.49 140.38 L 87.41 141.45 C 87.78 141.46 88.51 141.49 88.87 141.50 C 88.84 142.30 88.77 143.90 88.73 144.70 C 87.64 143.19 86.50 141.68 85.23 140.31 C 84.86 141.75 86.76 144.63 84.24 144.91 C 82.91 144.00 82.06 142.22 80.23 142.32 C 80.26 142.12 80.31 141.71 80.34 141.51 C 81.80 141.31 83.24 141.01 84.50 140.21 Z" />
<path fill="#fefefe" d=" M 124.01 140.19 C 124.60 140.85 124.60 140.85 124.01 140.19 Z" />
<path fill="#fefefe" d=" M 126.31 140.42 C 129.75 140.48 124.98 143.48 126.31 140.42 Z" />
<path fill="#fefefe" d=" M 111.06 155.02 C 112.72 153.45 114.57 152.12 116.52 150.92 C 115.69 151.94 114.82 152.92 113.96 153.90 C 113.37 154.99 112.76 156.08 112.15 157.15 C 112.33 157.48 112.67 158.14 112.84 158.47 C 112.13 158.12 110.69 157.42 109.97 157.06 C 110.33 156.38 110.69 155.70 111.06 155.02 Z" />
<path fill="#050505" d=" M 101.30 153.99 C 101.99 154.62 101.99 154.62 101.30 153.99 Z" />
<path fill="#fefefe" d=" M 84.93 159.98 C 87.33 159.31 85.39 163.35 84.59 160.76 L 84.93 159.98 Z" />
<path fill="#fefefe" d=" M 120.02 161.35 C 123.55 161.14 118.80 164.31 120.02 161.35 Z" />
<path fill="#050505" d=" M 57.93 163.47 C 59.31 163.09 59.85 163.61 59.54 165.02 C 58.16 165.38 57.62 164.86 57.93 163.47 Z" />
<path fill="#fefefe" d=" M 84.76 162.16 C 85.83 162.23 87.96 162.38 89.03 162.46 C 87.50 164.24 85.84 165.91 84.24 167.63 C 83.53 167.52 82.11 167.32 81.40 167.22 C 82.33 166.80 83.26 166.40 84.20 166.02 C 84.40 164.73 84.58 163.44 84.76 162.16 Z" />
<path fill="#fefefe" d=" M 121.28 166.18 C 121.69 166.89 121.69 166.89 121.28 166.18 Z" />
<path fill="#fefefe" d=" M 97.53 172.87 C 97.41 171.24 97.46 169.61 97.37 167.99 C 98.48 177.15 102.62 185.58 103.94 194.69 C 104.62 194.59 105.98 194.39 106.66 194.29 C 104.87 195.41 105.14 197.48 105.39 199.32 C 106.35 199.71 107.31 200.11 108.27 200.53 L 106.16 200.24 C 106.39 201.81 106.62 203.39 106.84 204.97 C 107.17 206.00 107.48 207.03 107.77 208.07 C 108.71 210.68 109.63 213.32 109.60 216.13 C 108.84 216.33 107.32 216.72 106.55 216.92 C 106.40 214.63 106.29 212.34 106.17 210.05 C 105.81 208.98 105.48 207.89 105.17 206.81 C 104.65 204.59 104.41 202.32 104.00 200.08 C 102.14 190.95 99.60 181.96 97.53 172.87 Z" />
<path fill="#fefefe" d=" M 56.56 170.77 C 57.90 171.37 59.34 171.39 60.77 171.51 C 61.15 172.53 59.91 173.05 59.39 173.72 C 59.78 174.20 60.56 175.16 60.94 175.64 C 60.08 175.95 58.35 176.57 57.49 176.89 C 57.17 174.85 56.89 172.80 56.56 170.77 Z" />
<path fill="#fefefe" d=" M 91.65 174.88 C 92.25 174.82 93.43 174.69 94.03 174.63 C 94.19 174.90 94.51 175.43 94.67 175.70 C 93.96 175.49 92.54 175.08 91.83 174.87 C 92.45 175.75 93.69 177.52 94.31 178.40 C 93.82 178.38 92.84 178.34 92.35 178.32 L 92.33 180.84 L 94.11 180.27 C 93.90 180.88 93.48 182.09 93.28 182.70 C 91.58 181.97 87.72 176.69 88.62 181.77 L 89.47 183.96 L 87.69 184.99 C 87.72 184.29 87.78 182.88 87.81 182.18 L 86.02 182.44 C 86.33 180.94 86.69 179.46 87.11 177.99 C 88.27 178.69 89.39 179.45 90.47 180.27 C 90.87 178.47 91.28 176.68 91.65 174.88 Z" />
<path fill="#fefefe" d=" M 119.47 178.94 C 117.82 179.43 118.02 176.10 119.58 176.75 C 119.56 177.30 119.50 178.39 119.47 178.94 Z" />
<path fill="#fefefe" d=" M 52.36 179.79 C 53.03 179.05 53.71 178.32 54.40 177.61 C 54.19 179.27 53.86 180.90 53.41 182.52 L 54.74 182.16 C 54.61 184.00 54.50 185.85 54.44 187.70 C 53.73 187.60 52.33 187.39 51.62 187.29 C 51.81 184.78 52.54 182.32 52.36 179.79 Z" />
<path fill="#fefefe" d=" M 59.36 177.37 C 59.73 178.95 60.11 180.53 60.50 182.11 C 59.37 182.31 58.25 182.54 57.13 182.80 C 57.94 181.02 58.66 179.20 59.36 177.37 Z" />
<path fill="#fefefe" d=" M 64.42 184.70 C 64.67 183.11 64.92 181.49 65.81 180.10 C 66.65 182.78 67.28 185.52 67.76 188.30 C 66.38 188.47 64.99 188.63 63.61 188.79 C 63.53 187.31 63.45 185.84 63.35 184.36 L 64.42 184.70 Z" />
<path fill="#fefefe" d=" M 121.48 184.63 C 120.83 183.76 120.77 181.35 122.16 181.28 C 122.90 182.12 122.85 184.54 121.48 184.63 Z" />
<path fill="#fefefe" d=" M 95.79 181.71 C 96.40 183.81 97.00 185.92 97.60 188.03 C 96.97 187.25 95.73 185.68 95.11 184.89 C 94.83 187.04 96.85 190.75 93.42 191.00 C 93.49 191.38 93.65 192.14 93.72 192.52 C 93.34 192.63 92.56 192.84 92.18 192.95 C 92.18 192.19 92.18 190.68 92.18 189.92 C 91.58 190.13 90.37 190.54 89.77 190.75 C 89.81 189.09 89.36 187.52 88.82 185.97 C 90.25 184.11 92.43 184.32 94.55 184.52 C 93.72 185.25 92.04 186.70 91.20 187.42 C 92.06 188.03 92.86 188.72 93.74 189.30 C 93.43 188.76 92.79 187.68 92.48 187.14 C 95.11 186.58 95.16 183.79 95.79 181.71 Z" />
<path fill="#fefefe" d=" M 58.86 186.28 C 59.55 184.83 60.20 183.36 60.98 181.96 C 61.46 183.87 61.78 185.81 62.14 187.75 C 60.63 187.96 59.11 188.12 57.60 188.24 C 57.41 186.60 57.35 184.95 57.42 183.30 L 59.55 183.25 C 59.38 184.01 59.03 185.52 58.86 186.28 Z" />
<path fill="#fefefe" d=" M 81.74 187.97 C 83.65 187.37 85.56 186.75 87.49 186.20 C 87.70 187.73 88.64 189.34 87.87 190.88 C 86.28 192.39 85.17 189.90 83.89 189.18 C 84.48 190.34 85.08 191.50 85.65 192.68 C 85.97 192.77 86.60 192.96 86.92 193.05 C 88.12 193.96 86.15 195.68 85.86 196.83 C 85.65 196.80 85.24 196.74 85.04 196.71 C 84.29 193.66 82.45 191.03 81.74 187.97 Z" />
<path fill="#fefefe" d=" M 72.10 190.47 C 72.53 190.16 73.41 189.55 73.85 189.25 C 74.02 191.40 73.37 193.44 72.67 195.44 C 71.68 196.17 70.72 196.94 69.76 197.71 C 69.47 195.02 69.27 192.34 69.11 189.64 C 69.86 189.85 71.35 190.26 72.10 190.47 Z" />
<path fill="#fefefe" d=" M 64.69 190.72 C 65.49 190.66 67.09 190.56 67.89 190.50 C 68.01 193.38 67.01 196.05 65.19 198.27 C 64.69 195.78 64.66 193.24 64.69 190.72 Z" />
<path fill="#fefefe" d=" M 54.88 194.25 C 56.43 194.05 57.07 196.12 56.69 197.32 C 55.31 198.39 53.23 195.13 54.88 194.25 Z" />
<path fill="#fefefe" d=" M 48.47 198.46 C 50.33 198.55 52.22 198.43 54.06 198.77 C 55.16 201.56 55.95 204.45 56.99 207.27 C 55.71 206.52 54.44 205.76 53.18 204.98 C 52.84 204.58 52.17 203.79 51.84 203.40 C 50.67 201.78 49.54 200.14 48.47 198.46 Z" />
<path fill="#fefefe" d=" M 49.44 207.88 C 49.94 208.60 49.94 208.60 49.44 207.88 Z" />
<path fill="#050505" d=" M 57.21 214.26 C 57.82 214.84 57.82 214.84 57.21 214.26 Z" />
<path fill="#050505" d=" M 70.94 217.27 C 70.64 215.87 72.92 215.23 73.96 215.66 C 74.43 216.69 74.25 217.58 73.41 218.34 C 72.79 218.07 71.56 217.53 70.94 217.27 Z" />
<path fill="#fefefe" d=" M 62.54 216.87 C 62.85 216.68 63.46 216.29 63.76 216.10 C 63.99 216.52 64.43 217.36 64.65 217.79 C 64.13 217.56 63.07 217.10 62.54 216.87 Z" />
</svg>
