<?xml version="1.0" encoding="UTF-8" ?>
<!DOCTYPE svg PUBLIC "-//W3C//DTD SVG 1.1//EN" "http://www.w3.org/Graphics/SVG/1.1/DTD/svg11.dtd">
<svg width="1680px" height="1680px" viewBox="0 0 145 145" version="1.1" xmlns="http://www.w3.org/2000/svg">
<path fill="#ffffff" d=" M 0.00 0.00 L 145.00 0.00 L 145.00 145.00 L 0.00 145.00 L 0.00 0.00 Z" />
<path fill="#171717" d=" M 71.83 17.51 C 74.01 16.92 76.34 15.99 78.62 16.55 C 80.01 17.40 81.58 17.49 83.17 17.30 C 82.15 17.72 80.74 17.65 80.12 18.69 C 81.66 19.24 83.21 19.75 84.77 20.24 C 84.73 19.64 84.66 18.43 84.63 17.83 L 85.64 18.06 L 84.90 20.68 C 86.18 19.85 87.51 19.15 88.91 18.57 C 92.24 19.77 95.45 21.29 98.60 22.91 C 98.22 22.15 97.46 20.63 97.07 19.87 C 99.90 20.21 102.43 21.50 104.61 23.29 C 106.36 23.76 108.07 24.32 109.82 24.80 L 109.95 26.72 L 106.47 25.39 C 107.36 26.00 109.13 27.22 110.02 27.83 C 110.51 28.95 111.22 29.99 112.64 29.33 C 112.26 28.04 111.95 26.67 112.53 25.39 C 114.36 26.98 116.17 28.62 118.14 30.05 C 116.17 26.48 112.40 24.58 108.73 23.22 C 107.09 21.74 105.33 20.39 103.75 18.85 C 106.88 21.17 110.30 23.03 113.93 24.46 C 118.42 27.46 122.06 31.61 126.64 34.51 C 126.63 34.13 126.60 33.36 126.58 32.98 C 125.16 32.35 123.95 31.43 122.96 30.23 C 124.69 30.99 126.42 31.76 128.14 32.54 L 123.65 28.64 C 126.58 28.70 128.24 31.27 130.08 33.12 C 130.31 35.36 130.70 37.58 131.65 39.65 C 129.88 38.53 127.92 37.82 125.97 37.07 C 126.08 37.37 126.29 37.97 126.40 38.27 C 129.33 38.90 129.72 42.22 131.47 44.20 C 131.44 42.70 131.44 41.20 131.49 39.70 C 132.23 40.64 132.92 41.61 133.55 42.63 C 133.99 41.75 134.47 40.89 134.96 40.04 C 136.63 43.64 137.79 47.45 138.51 51.35 C 138.20 49.41 139.05 47.71 139.92 46.10 C 139.74 50.65 139.75 55.45 137.35 59.51 C 136.48 61.42 135.44 63.26 134.09 64.88 C 134.42 63.64 134.76 62.42 135.13 61.19 L 133.13 61.52 C 133.87 60.34 134.58 59.14 135.26 57.93 C 134.68 58.40 133.52 59.36 132.94 59.84 C 132.68 58.65 132.46 57.46 132.26 56.26 L 131.26 56.99 C 131.27 56.25 131.30 54.77 131.31 54.04 C 130.71 54.49 129.50 55.40 128.89 55.86 C 129.20 55.41 129.83 54.52 130.14 54.08 C 129.45 52.50 128.79 50.90 128.13 49.30 C 127.92 50.74 127.68 52.16 127.42 53.59 C 127.30 52.60 127.05 50.62 126.93 49.63 C 126.44 50.31 125.47 51.67 124.98 52.35 C 125.26 51.16 125.81 48.78 126.09 47.60 L 124.22 49.06 L 125.02 46.56 L 122.95 47.93 L 123.46 46.40 C 122.87 46.31 121.67 46.13 121.08 46.04 C 120.61 45.09 120.16 44.13 119.70 43.17 L 118.18 44.04 L 119.15 41.35 L 116.97 42.59 C 117.30 41.81 117.63 41.03 117.96 40.25 C 116.15 39.21 114.34 38.16 112.52 37.14 C 111.27 36.37 110.01 35.65 108.72 34.97 L 108.75 34.66 C 107.80 34.48 105.91 34.10 104.97 33.91 C 106.29 33.24 107.65 32.66 109.01 32.08 C 108.20 32.28 106.57 32.69 105.76 32.90 L 106.28 30.58 C 105.73 31.62 105.21 32.68 104.73 33.75 C 103.51 33.05 102.31 32.33 101.11 31.60 C 98.50 31.24 95.86 31.19 93.23 31.38 L 93.78 30.23 C 91.63 30.25 89.48 30.22 87.33 30.27 C 87.46 29.82 87.72 28.92 87.86 28.47 C 86.50 28.87 83.79 29.67 82.43 30.07 L 83.50 28.34 C 79.68 29.08 75.85 29.87 71.96 30.06 C 75.48 27.48 79.96 27.09 84.09 26.19 C 79.15 26.28 74.49 28.64 69.54 27.09 C 70.36 27.36 71.99 27.89 72.81 28.16 C 72.09 28.57 71.37 28.97 70.65 29.38 C 68.24 29.35 65.84 29.54 63.43 29.61 C 63.69 29.88 64.22 30.42 64.48 30.69 C 63.87 30.56 62.66 30.29 62.05 30.16 L 62.69 31.87 C 62.28 31.80 61.47 31.65 61.06 31.57 C 57.96 32.30 54.73 32.62 51.80 33.95 C 50.11 35.00 48.27 33.66 46.55 33.44 C 46.61 33.89 46.72 34.81 46.78 35.26 C 37.83 37.78 30.04 42.98 22.03 47.53 C 20.92 48.96 19.48 50.08 17.94 51.02 C 18.42 52.21 18.78 53.44 18.83 54.74 C 18.18 53.78 17.55 52.81 16.93 51.83 C 15.80 53.29 14.65 54.74 13.47 56.17 C 13.87 56.49 14.27 56.81 14.67 57.14 C 12.94 59.10 14.07 61.38 16.24 62.24 C 15.47 62.03 13.93 61.61 13.17 61.40 C 12.62 59.96 12.96 58.30 12.30 56.87 C 11.84 57.81 10.92 59.69 10.46 60.62 C 7.78 62.33 6.44 65.31 5.52 68.29 L 6.27 62.64 L 5.88 60.95 C 6.29 60.34 6.71 59.73 7.15 59.13 C 8.11 58.38 9.05 57.61 9.98 56.83 L 10.01 57.04 C 10.07 56.99 10.20 56.89 10.27 56.84 L 9.98 56.83 C 9.52 56.78 8.61 56.68 8.16 56.63 C 9.14 55.42 10.22 54.29 11.26 53.13 C 11.92 48.84 17.26 47.94 19.60 44.77 C 18.26 45.16 15.59 45.93 14.25 46.32 C 17.02 43.34 21.17 42.30 24.06 39.45 C 24.67 39.59 25.90 39.87 26.52 40.01 C 25.93 39.61 24.75 38.80 24.16 38.40 C 28.25 36.57 32.37 34.65 35.77 31.68 C 37.46 30.98 39.12 30.22 40.74 29.36 C 43.35 29.35 46.00 29.16 48.50 28.34 C 46.73 28.45 43.19 28.67 41.43 28.78 C 45.03 26.96 48.70 25.21 52.66 24.33 L 52.38 23.36 C 54.40 23.39 56.43 23.45 58.44 23.60 C 57.82 23.22 56.59 22.46 55.97 22.09 C 58.25 22.20 60.54 22.14 62.80 22.40 C 61.41 22.90 59.98 23.27 58.57 23.74 C 63.24 23.22 67.89 24.03 72.46 24.98 C 71.87 24.55 70.70 23.69 70.11 23.26 C 71.20 22.77 72.35 22.41 73.48 22.02 L 73.28 23.80 C 75.38 23.65 77.52 23.61 79.53 22.86 L 76.23 22.46 L 76.52 21.63 C 74.64 21.40 72.70 21.28 71.02 20.31 C 74.13 19.91 77.19 20.61 79.80 22.33 C 81.27 22.01 84.23 21.37 85.71 21.05 C 82.63 20.21 79.46 19.70 76.41 18.74 C 76.87 18.31 78.62 17.25 77.13 16.91 C 75.34 16.74 73.59 17.33 71.83 17.51 Z" />
<path fill="#ffffff" d=" M 87.83 20.26 C 88.07 19.95 88.54 19.34 88.77 19.03 L 89.51 19.42 L 89.42 20.22 C 89.02 20.23 88.23 20.25 87.83 20.26 Z" />
<path fill="#171717" d=" M 64.63 20.12 C 65.91 20.17 67.20 20.24 68.48 20.34 C 68.58 20.98 68.79 22.26 68.89 22.90 C 68.16 24.47 65.34 23.12 64.11 22.83 L 64.10 22.27 L 64.28 21.65 C 64.37 21.27 64.54 20.50 64.63 20.12 Z" />
<path fill="#ffffff" d=" M 87.83 20.26 C 87.26 23.58 84.83 18.69 87.83 20.26 Z" />
<path fill="#ffffff" d=" M 93.85 22.54 C 94.48 23.16 94.48 23.16 93.85 22.54 Z" />
<path fill="#ffffff" d=" M 96.28 23.20 C 96.76 23.90 96.76 23.90 96.28 23.20 Z" />
<path fill="#ffffff" d=" M 102.01 26.83 C 101.21 25.06 97.87 23.50 100.16 21.43 L 100.43 23.55 C 101.09 23.53 102.40 23.48 103.05 23.46 C 105.20 25.33 106.07 27.90 106.22 30.68 C 105.27 28.64 104.96 26.22 103.04 24.77 C 102.78 25.28 102.27 26.31 102.01 26.83 Z" />
<path fill="#ffffff" d=" M 56.15 25.75 C 59.82 24.66 63.52 24.80 67.18 25.92 C 64.86 26.37 62.48 26.33 60.12 26.34 C 60.26 26.85 60.52 27.87 60.66 28.38 C 57.45 28.48 54.23 28.59 51.03 28.29 L 51.01 27.43 C 52.95 27.53 54.90 27.59 56.84 27.67 C 56.67 27.19 56.32 26.23 56.15 25.75 Z" />
<path fill="#171717" d=" M 110.37 26.37 C 110.66 26.66 110.66 26.66 110.37 26.37 Z" />
<path fill="#171717" d=" M 132.31 37.54 C 133.06 38.06 133.06 38.06 132.31 37.54 Z" />
<path fill="#171717" d=" M 133.24 39.50 C 133.54 39.76 133.54 39.76 133.24 39.50 Z" />
<path fill="#171717" d=" M 100.28 40.23 C 100.77 40.87 100.77 40.87 100.28 40.23 Z" />
<path fill="#171717" d=" M 136.00 39.10 C 137.70 41.22 139.75 43.97 138.35 46.78 C 137.83 44.14 136.77 41.66 136.00 39.10 Z" />
<path fill="#171717" d=" M 109.12 46.22 C 109.81 46.84 109.81 46.84 109.12 46.22 Z" />
<path fill="#171717" d=" M 111.07 48.16 C 114.41 48.30 109.51 51.06 111.07 48.16 Z" />
<path fill="#171717" d=" M 22.18 51.25 C 22.82 51.82 22.82 51.82 22.18 51.25 Z" />
<path fill="#171717" d=" M 111.20 51.20 C 111.87 51.78 111.87 51.78 111.20 51.20 Z" />
<path fill="#171717" d=" M 113.32 51.21 C 113.83 51.89 113.83 51.89 113.32 51.21 Z" />
<path fill="#171717" d=" M 110.21 53.30 C 110.87 53.75 110.87 53.75 110.21 53.30 Z" />
<path fill="#171717" d=" M 115.43 53.20 C 116.02 53.85 116.02 53.85 115.43 53.20 Z" />
<path fill="#171717" d=" M 16.19 55.12 C 16.89 55.72 16.89 55.72 16.19 55.12 Z" />
<path fill="#171717" d=" M 108.16 55.29 C 108.86 55.75 108.86 55.75 108.16 55.29 Z" />
<path fill="#ffffff" d=" M 10.27 56.84 C 10.20 56.89 10.07 56.99 10.01 57.04 L 9.98 56.83 L 10.27 56.84 Z" />
<path fill="#171717" d=" M 20.24 57.17 C 20.80 57.81 20.80 57.81 20.24 57.17 Z" />
<path fill="#171717" d=" M 29.21 57.18 C 29.83 57.83 29.83 57.83 29.21 57.18 Z" />
<path fill="#171717" d=" M 69.12 57.99 C 70.31 57.72 71.51 57.46 72.71 57.21 C 72.72 57.49 72.75 58.05 72.77 58.33 C 72.00 58.27 70.47 58.15 69.70 58.09 C 68.93 62.60 72.40 65.88 76.22 67.49 C 74.45 65.06 73.05 62.30 72.79 59.27 C 74.56 62.45 76.16 66.86 80.49 66.95 C 78.30 64.21 79.04 60.71 79.46 57.54 C 79.54 61.31 80.31 64.99 83.36 67.53 C 83.15 64.51 81.87 61.39 83.17 58.44 C 83.41 61.74 83.77 65.20 86.42 67.55 C 86.55 64.29 87.25 61.09 88.08 57.95 L 88.63 58.16 C 87.84 61.66 86.86 65.91 90.30 68.33 C 90.50 67.50 90.92 65.85 91.12 65.02 C 91.09 64.27 91.03 62.77 91.00 62.02 C 92.16 61.15 93.31 60.27 94.42 59.34 L 94.69 59.44 C 91.15 61.57 91.13 66.00 93.28 69.15 C 94.19 67.18 95.07 65.20 96.04 63.26 C 95.77 65.88 94.68 68.89 97.16 70.86 C 98.08 69.30 98.94 67.70 99.76 66.08 C 99.88 68.38 99.22 71.05 101.18 72.79 C 102.01 71.14 102.80 69.49 103.61 67.84 C 103.54 70.53 102.75 73.43 104.41 75.85 C 105.55 74.20 106.62 72.50 107.50 70.69 C 106.45 73.51 106.03 76.57 106.88 79.51 C 107.69 78.36 108.47 77.20 109.27 76.05 C 108.94 78.18 108.67 80.34 108.90 82.50 C 109.46 82.96 110.58 83.89 111.14 84.36 C 110.99 83.62 110.69 82.14 110.54 81.40 C 111.29 80.19 112.00 78.96 112.72 77.73 C 111.33 80.03 111.26 82.62 111.39 85.22 C 113.21 86.68 116.44 87.25 116.65 90.00 C 116.15 91.09 115.60 92.14 115.00 93.17 C 111.81 93.08 108.66 92.50 105.47 92.52 C 106.26 91.94 107.04 91.35 107.82 90.76 C 107.79 89.84 107.68 88.93 107.48 88.02 C 108.23 89.41 109.01 90.78 109.86 92.12 C 110.38 91.70 111.43 90.86 111.95 90.45 C 111.36 90.16 110.19 89.59 109.60 89.30 C 110.76 89.38 113.07 89.54 114.23 89.62 C 111.53 87.15 107.78 86.68 104.29 87.12 C 104.11 86.48 103.73 85.20 103.54 84.56 C 102.73 85.10 101.94 85.66 101.15 86.22 C 101.32 87.95 103.12 89.02 104.01 90.43 L 104.74 90.47 C 104.32 92.03 105.01 95.32 101.95 93.99 C 103.54 95.78 105.60 95.85 107.79 95.06 C 106.87 96.35 105.84 97.60 104.09 97.51 C 104.44 98.18 105.16 99.51 105.51 100.18 C 104.75 99.59 103.22 98.42 102.46 97.83 L 102.44 99.59 L 98.07 99.96 C 99.24 99.18 101.59 97.61 102.76 96.83 C 102.21 96.54 101.66 96.26 101.11 95.99 C 99.65 99.33 95.52 98.20 93.36 100.87 L 94.09 102.64 C 94.63 101.89 95.70 100.38 96.23 99.63 C 96.72 100.57 97.19 101.51 97.64 102.47 C 98.70 103.34 99.44 104.77 101.02 104.77 C 99.54 105.29 98.08 105.85 96.63 106.44 C 97.33 106.83 98.02 107.22 98.72 107.62 C 98.21 107.80 97.20 108.16 96.70 108.34 L 96.98 111.03 C 94.81 110.08 96.21 107.76 95.81 106.13 C 95.49 106.04 94.86 105.88 94.54 105.79 C 94.56 107.48 94.58 109.16 94.60 110.85 C 93.42 111.19 92.24 111.54 91.06 111.90 C 91.41 111.50 92.11 110.72 92.46 110.33 C 92.64 109.30 92.85 108.28 93.08 107.26 C 94.36 105.38 95.65 103.49 96.77 101.51 C 95.97 102.24 94.38 103.71 93.58 104.44 C 92.51 104.25 91.60 104.56 90.83 105.36 C 90.34 106.57 89.63 107.64 88.73 108.58 C 88.98 110.19 89.32 111.79 89.55 113.41 C 88.89 111.83 88.41 110.17 88.05 108.49 C 88.48 107.75 89.34 106.26 89.78 105.52 C 87.08 105.88 85.73 108.31 84.03 110.10 C 84.56 108.80 85.10 107.51 85.63 106.22 C 82.60 106.54 81.01 109.04 79.23 111.16 C 79.84 109.64 80.43 108.11 81.00 106.57 C 78.64 107.82 76.75 109.70 74.72 111.40 C 75.58 109.96 76.43 108.52 77.27 107.07 C 74.53 107.90 72.54 109.94 70.51 111.82 C 71.28 110.29 72.09 108.78 72.75 107.20 C 70.62 108.21 68.81 109.72 66.84 110.99 C 68.01 109.53 69.21 108.09 70.43 106.67 C 67.32 106.42 65.15 108.64 62.74 110.16 C 63.73 108.94 64.80 107.79 65.91 106.69 L 61.73 104.90 C 65.13 105.36 68.52 105.99 71.94 106.35 C 79.56 107.11 87.16 105.47 94.32 102.96 C 93.88 102.64 93.01 102.01 92.57 101.69 C 88.11 103.03 83.71 104.92 78.98 104.94 C 73.15 105.05 67.18 104.73 61.59 102.96 C 60.24 101.83 63.30 101.82 63.90 102.12 C 67.87 102.93 71.98 104.24 75.99 103.23 C 77.06 103.27 78.11 103.44 79.15 103.75 C 79.48 103.40 79.82 103.05 80.16 102.71 C 83.04 103.77 86.07 102.06 88.81 101.24 C 88.81 100.98 88.82 100.48 88.82 100.22 L 88.47 99.67 C 87.76 98.10 90.83 98.93 91.57 98.42 C 93.97 96.26 96.80 94.60 99.74 93.30 C 98.62 94.77 96.10 94.98 95.63 96.88 C 96.10 97.15 97.04 97.68 97.52 97.95 C 98.31 96.93 99.29 96.09 100.37 95.38 C 101.54 93.98 103.10 92.87 103.73 91.09 C 102.79 91.33 100.92 91.82 99.98 92.06 C 100.91 91.33 101.82 90.58 102.70 89.80 C 102.17 89.13 101.12 87.79 100.60 87.12 L 100.85 89.84 C 99.77 89.23 98.68 88.65 97.58 88.09 C 98.14 88.11 99.26 88.16 99.82 88.18 C 100.09 86.71 100.63 85.31 101.74 84.28 C 101.40 83.60 101.07 82.92 100.74 82.24 L 100.45 81.72 C 100.26 80.96 99.89 79.46 99.70 78.70 C 100.29 79.20 101.48 80.21 102.07 80.71 C 102.16 80.07 102.33 78.78 102.42 78.13 C 102.13 76.31 100.09 77.73 98.95 77.47 C 96.75 77.83 96.62 75.18 96.07 73.71 C 93.91 72.74 91.79 71.45 89.33 71.54 L 89.43 70.26 C 90.34 70.56 92.16 71.15 93.08 71.45 C 91.70 69.67 89.58 69.04 87.49 68.62 C 79.07 67.01 70.61 68.68 62.71 71.66 C 64.06 71.82 67.02 70.39 66.78 72.76 C 66.11 73.78 65.40 74.77 64.64 75.72 C 65.27 75.37 66.52 74.67 67.15 74.32 C 67.77 75.85 68.68 77.22 69.47 78.66 C 67.69 77.99 65.99 77.15 64.32 76.25 C 63.47 77.62 63.04 79.11 63.61 80.72 L 62.55 80.06 C 62.52 81.66 62.37 83.26 62.13 84.84 C 63.35 83.77 64.75 81.95 66.58 83.00 L 67.42 83.39 L 67.86 84.89 C 67.00 85.00 65.29 85.21 64.43 85.32 C 65.89 85.71 67.35 86.09 68.81 86.47 C 67.22 87.19 65.59 87.82 63.98 88.48 C 63.72 87.74 63.21 86.27 62.96 85.53 C 62.92 86.61 62.94 87.69 62.96 88.77 C 65.35 88.62 67.72 88.29 70.07 87.83 C 68.74 89.16 67.36 90.44 65.87 91.60 C 66.84 90.97 67.83 90.82 68.86 91.14 C 69.22 92.68 68.08 94.05 67.74 95.49 C 68.18 95.69 69.07 96.07 69.51 96.27 C 73.59 98.04 78.52 98.26 82.62 96.58 C 84.16 95.26 87.43 94.86 86.81 92.20 C 87.28 92.13 88.21 92.00 88.68 91.93 C 89.17 90.43 89.73 88.94 90.19 87.42 C 89.75 87.91 88.89 88.88 88.46 89.36 C 87.27 88.59 86.05 87.90 84.79 87.27 C 85.96 88.53 87.37 89.47 89.01 90.09 C 87.80 92.49 84.63 91.11 84.20 89.01 C 84.49 87.87 84.83 86.74 85.21 85.62 C 85.79 85.86 86.94 86.35 87.52 86.59 C 88.63 86.43 89.76 86.32 90.87 86.06 C 90.82 85.39 90.72 84.05 90.67 83.38 C 89.43 83.21 88.18 83.09 86.93 83.03 C 88.23 83.37 89.32 83.99 90.18 84.91 C 90.42 87.56 86.60 84.52 85.25 85.09 C 85.50 83.55 85.73 82.00 85.93 80.46 C 87.24 80.50 88.53 80.70 89.80 81.06 L 90.42 81.53 L 91.19 81.91 C 90.84 80.84 90.24 79.89 89.32 79.22 C 87.60 79.73 85.90 80.28 84.22 80.88 C 85.28 78.57 87.42 77.67 89.82 78.03 C 89.84 77.63 89.88 76.85 89.90 76.46 C 87.41 76.99 85.07 77.98 82.72 78.91 C 83.99 76.31 86.55 75.07 89.15 74.26 C 87.87 74.31 86.59 74.33 85.30 74.35 C 84.37 74.96 82.49 76.20 81.55 76.81 C 82.51 74.73 84.12 72.69 83.04 70.34 C 82.75 72.52 82.11 74.61 79.94 75.53 C 79.90 73.76 80.83 71.72 79.24 70.30 C 79.27 71.50 79.35 73.89 79.38 75.09 C 76.68 74.73 77.29 72.20 76.97 70.28 C 76.87 72.07 76.33 73.71 75.35 75.20 C 75.12 74.36 74.65 72.69 74.42 71.85 C 74.31 72.71 74.09 74.43 73.98 75.29 C 72.99 74.04 72.03 72.77 71.02 71.53 C 71.33 72.64 71.93 74.85 72.24 75.95 C 70.51 74.31 68.83 72.61 67.25 70.82 C 70.51 70.36 73.74 69.76 76.99 69.29 C 81.12 69.05 85.22 69.77 89.33 70.11 L 89.30 71.04 L 87.07 70.99 C 91.46 74.90 93.49 81.26 92.19 86.98 C 91.46 91.75 87.74 95.51 83.73 97.88 C 79.52 99.61 74.93 99.72 70.49 98.95 C 65.50 96.01 60.82 91.35 60.62 85.20 C 59.82 84.97 59.04 84.71 58.27 84.42 C 58.91 84.45 60.19 84.49 60.84 84.52 C 60.27 80.23 62.23 76.46 64.35 72.91 C 60.36 74.44 56.12 75.50 52.71 78.21 C 52.70 78.85 52.66 80.12 52.65 80.75 C 51.14 80.64 49.23 79.07 48.15 80.99 C 48.66 83.18 51.74 82.31 53.32 83.23 C 51.55 83.75 49.09 82.60 47.78 83.97 C 47.95 84.54 48.29 85.70 48.46 86.27 C 50.17 87.00 51.89 87.72 53.48 88.69 C 51.40 88.28 49.38 87.64 47.28 87.29 C 46.68 85.41 46.71 83.51 47.32 81.63 C 46.31 82.46 45.31 83.31 44.31 84.15 C 45.53 87.43 46.96 90.78 49.37 93.38 C 49.94 93.45 51.10 93.60 51.67 93.68 L 51.20 94.46 L 52.94 94.39 C 52.77 94.79 52.44 95.61 52.27 96.02 C 53.28 96.71 54.28 97.42 55.26 98.15 C 52.87 100.46 56.85 101.64 57.79 102.78 C 55.40 103.90 52.91 105.48 50.29 105.74 C 50.50 104.05 53.92 104.19 53.72 102.26 C 51.72 101.72 49.86 103.19 47.95 103.60 C 49.68 102.20 51.59 101.06 53.54 100.01 C 50.92 100.01 48.31 99.90 45.70 99.80 C 46.49 99.52 48.07 98.97 48.86 98.69 L 48.74 97.37 C 46.33 97.55 43.93 97.76 41.52 97.84 C 43.80 96.86 46.24 96.23 48.34 94.85 C 45.44 95.05 42.54 95.45 39.62 95.25 C 41.71 94.27 44.47 94.48 45.93 92.46 L 42.46 93.34 C 42.85 92.23 43.22 91.11 43.64 90.02 C 42.12 90.19 40.59 90.32 39.06 90.47 C 39.24 89.92 39.58 88.81 39.75 88.26 C 40.28 88.61 41.34 89.30 41.87 89.65 C 41.79 88.74 41.64 86.90 41.57 85.99 C 41.26 86.01 40.65 86.06 40.34 86.08 L 40.92 87.31 C 38.85 87.91 36.87 88.74 34.90 89.62 C 34.91 91.27 33.51 91.99 32.32 91.11 C 31.16 91.88 30.08 92.76 29.78 94.20 C 29.37 94.45 28.57 94.97 28.16 95.22 C 28.50 94.83 29.16 94.05 29.50 93.66 C 29.21 93.30 28.65 92.58 28.37 92.22 C 29.81 90.56 31.57 89.22 33.22 87.76 C 32.54 87.35 31.19 86.52 30.51 86.11 C 31.43 86.19 33.27 86.36 34.19 86.44 C 35.91 85.59 37.67 84.83 39.39 84.00 C 38.14 83.89 35.65 83.66 34.40 83.55 C 37.39 83.31 40.56 83.69 43.18 81.87 C 41.74 81.53 40.30 81.17 38.86 80.82 C 42.43 80.36 45.84 79.18 49.12 77.75 C 46.65 77.77 44.18 77.91 41.72 77.69 C 45.03 76.88 48.39 76.22 51.55 74.91 C 50.01 74.44 48.49 73.93 46.99 73.39 C 49.68 73.38 52.37 73.49 55.05 73.25 C 52.98 72.27 50.79 71.56 48.70 70.60 C 51.61 71.01 54.49 71.77 57.45 71.47 C 56.08 70.28 54.37 69.66 52.71 69.01 C 54.07 69.11 55.44 69.21 56.81 69.30 C 56.82 69.57 56.83 70.10 56.84 70.36 C 58.96 70.12 61.09 69.92 63.22 69.77 C 60.86 68.49 58.21 67.55 56.37 65.49 C 59.23 66.99 62.13 68.46 65.43 68.69 C 63.08 67.04 60.95 65.13 58.79 63.25 C 57.21 63.34 55.88 64.52 54.43 65.09 L 53.50 62.49 C 54.02 64.97 53.10 66.58 50.83 66.91 C 45.38 70.79 39.71 74.40 34.59 78.70 C 33.76 79.00 32.94 79.30 32.11 79.61 C 31.15 80.82 29.97 81.82 28.56 82.47 C 27.64 83.01 26.72 83.56 25.79 84.10 C 23.60 84.77 21.33 85.11 19.04 85.02 C 20.65 85.90 22.26 86.78 23.86 87.69 C 23.57 88.03 22.99 88.71 22.70 89.04 C 21.00 87.64 19.10 86.45 17.76 84.67 C 16.67 84.51 15.58 84.35 14.50 84.16 C 16.38 83.68 17.10 82.53 16.65 80.71 C 15.20 81.69 13.99 82.96 12.55 83.96 C 13.28 82.73 14.25 81.69 15.33 80.77 C 14.87 78.63 15.01 76.90 17.91 78.03 L 15.51 78.86 C 16.36 79.92 17.17 81.01 17.96 82.12 C 17.81 79.63 19.69 79.52 21.54 79.57 L 21.41 78.22 L 21.87 77.78 L 22.36 77.36 C 23.82 77.01 25.20 77.63 26.54 78.11 C 25.86 78.80 24.56 79.53 25.18 80.70 C 25.85 81.53 28.75 83.61 27.73 81.25 L 27.27 80.72 L 26.77 80.07 C 27.65 80.19 29.42 80.44 30.30 80.57 C 30.33 80.04 30.38 79.00 30.41 78.47 C 31.27 78.51 32.98 78.58 33.84 78.62 C 33.69 78.03 33.38 76.83 33.22 76.24 L 33.87 76.28 L 33.92 77.95 C 35.43 76.68 37.04 75.54 38.73 74.53 C 38.54 73.87 38.16 72.53 37.96 71.87 C 38.52 72.44 39.62 73.58 40.17 74.15 C 40.82 72.74 41.43 71.31 41.99 69.86 C 42.07 70.40 42.23 71.50 42.31 72.05 C 43.26 70.86 44.23 69.70 45.13 68.47 C 45.45 68.76 46.09 69.36 46.41 69.66 C 46.42 68.88 46.45 67.34 46.47 66.56 C 46.84 67.11 47.60 68.20 47.97 68.74 C 48.76 67.33 49.54 65.89 49.48 64.22 C 49.71 64.68 50.18 65.60 50.42 66.06 C 51.14 65.48 51.85 64.89 52.54 64.28 C 52.71 63.78 53.05 62.79 53.23 62.29 C 54.05 62.81 54.85 63.35 55.65 63.92 C 55.59 62.92 55.48 60.94 55.42 59.94 L 56.08 62.81 C 56.74 61.77 57.36 60.71 57.96 59.64 L 58.38 61.84 C 59.00 61.60 60.23 61.11 60.85 60.86 C 61.41 59.50 59.81 58.86 59.14 57.95 C 60.39 58.84 61.66 59.70 62.95 60.54 C 62.07 61.39 61.38 62.52 60.17 62.94 C 60.17 63.24 60.17 63.83 60.17 64.12 C 63.12 66.06 66.24 67.77 69.81 68.19 L 67.27 66.63 C 68.93 65.99 70.82 65.70 72.31 67.35 C 71.31 65.53 70.27 63.75 69.19 61.99 C 69.19 60.66 69.17 59.32 69.12 57.99 Z" />
<path fill="#171717" d=" M 119.16 57.27 C 119.75 57.89 119.75 57.89 119.16 57.27 Z" />
<path fill="#171717" d=" M 113.19 58.40 C 113.88 58.94 113.88 58.94 113.19 58.40 Z" />
<path fill="#171717" d=" M 115.18 59.47 C 118.51 59.69 113.51 62.35 115.18 59.47 Z" />
<path fill="#171717" d=" M 125.22 60.25 C 125.89 60.70 125.89 60.70 125.22 60.25 Z" />
<path fill="#171717" d=" M 131.10 60.01 C 134.40 60.22 129.50 62.93 131.10 60.01 Z" />
<path fill="#171717" d=" M 112.24 61.09 C 115.23 59.57 112.39 64.39 112.24 61.09 Z" />
<path fill="#171717" d=" M 9.98 62.07 C 12.89 60.37 10.23 65.40 9.98 62.07 Z" />
<path fill="#171717" d=" M 19.02 62.26 C 19.71 62.81 19.71 62.81 19.02 62.26 Z" />
<path fill="#171717" d=" M 64.05 62.19 C 65.45 62.02 66.03 63.84 66.81 64.71 C 66.82 65.06 66.85 65.75 66.86 66.10 C 65.40 65.59 63.59 63.83 64.05 62.19 Z" />
<path fill="#171717" d=" M 99.57 62.35 C 100.25 62.48 101.63 62.72 102.31 62.84 C 105.49 65.57 109.61 67.44 111.74 71.20 C 111.93 70.89 112.31 70.28 112.50 69.98 C 111.89 72.53 114.04 74.37 115.87 75.72 C 117.02 75.30 118.16 74.85 119.29 74.37 C 118.10 75.26 116.90 76.14 115.71 77.02 C 116.64 77.19 118.49 77.52 119.41 77.69 C 117.76 78.49 115.90 78.45 114.12 78.66 C 114.57 78.11 115.02 77.57 115.48 77.02 C 114.81 76.38 113.46 75.11 112.79 74.47 C 112.43 74.53 111.70 74.65 111.33 74.71 C 111.50 74.44 111.83 73.91 111.99 73.65 C 108.85 68.94 104.58 65.00 99.57 62.35 Z" />
<path fill="#171717" d=" M 126.24 62.19 C 126.78 62.84 126.78 62.84 126.24 62.19 Z" />
<path fill="#171717" d=" M 12.94 63.35 C 13.57 63.92 13.57 63.92 12.94 63.35 Z" />
<path fill="#171717" d=" M 132.21 63.16 C 132.80 63.80 132.80 63.80 132.21 63.16 Z" />
<path fill="#171717" d=" M 16.21 64.19 C 16.86 64.82 16.86 64.82 16.21 64.19 Z" />
<path fill="#171717" d=" M 21.31 64.00 C 22.68 63.43 23.14 63.86 22.69 65.29 C 21.34 65.87 20.88 65.44 21.31 64.00 Z" />
<path fill="#171717" d=" M 113.94 64.54 C 117.32 64.45 112.51 67.53 113.94 64.54 Z" />
<path fill="#171717" d=" M 41.20 65.22 C 41.83 65.81 41.83 65.81 41.20 65.22 Z" />
<path fill="#171717" d=" M 14.19 66.20 C 14.84 66.84 14.84 66.84 14.19 66.20 Z" />
<path fill="#171717" d=" M 18.37 66.04 C 21.24 64.41 18.77 69.37 18.37 66.04 Z" />
<path fill="#171717" d=" M 28.33 66.02 C 31.22 64.35 28.47 69.38 28.33 66.02 Z" />
<path fill="#171717" d=" M 112.29 66.17 C 112.82 66.87 112.82 66.87 112.29 66.17 Z" />
<path fill="#171717" d=" M 33.15 67.46 C 33.91 67.82 33.91 67.82 33.15 67.46 Z" />
<path fill="#171717" d=" M 41.46 66.93 C 42.86 66.48 43.38 66.94 43.02 68.33 C 41.63 68.78 41.11 68.31 41.46 66.93 Z" />
<path fill="#171717" d=" M 114.02 67.21 C 117.36 67.17 112.51 70.23 114.02 67.21 Z" />
<path fill="#171717" d=" M 118.32 67.25 C 118.94 67.91 118.94 67.91 118.32 67.25 Z" />
<path fill="#171717" d=" M 126.28 67.24 C 126.86 67.79 126.86 67.79 126.28 67.24 Z" />
<path fill="#171717" d=" M 16.17 67.99 C 19.17 66.44 16.05 71.37 16.17 67.99 Z" />
<path fill="#171717" d=" M 112.21 68.26 C 112.87 68.82 112.87 68.82 112.21 68.26 Z" />
<path fill="#171717" d=" M 116.25 69.19 C 116.86 69.81 116.86 69.81 116.25 69.19 Z" />
<path fill="#171717" d=" M 121.21 69.23 C 121.79 69.85 121.79 69.85 121.21 69.23 Z" />
<path fill="#171717" d=" M 135.01 69.42 C 138.31 69.92 133.17 72.20 135.01 69.42 Z" />
<path fill="#171717" d=" M 39.25 70.16 C 39.88 70.79 39.88 70.79 39.25 70.16 Z" />
<path fill="#171717" d=" M 26.35 70.88 C 29.44 69.52 26.10 74.24 26.35 70.88 Z" />
<path fill="#171717" d=" M 116.94 71.51 C 120.27 71.70 115.46 74.45 116.94 71.51 Z" />
<path fill="#171717" d=" M 11.24 72.27 C 13.95 70.35 11.70 75.63 11.24 72.27 Z" />
<path fill="#171717" d=" M 16.22 72.07 C 19.20 70.52 16.23 75.46 16.22 72.07 Z" />
<path fill="#171717" d=" M 21.38 72.15 C 22.06 72.80 22.06 72.80 21.38 72.15 Z" />
<path fill="#ffffff" d=" M 85.16 72.21 C 87.97 70.40 85.56 75.52 85.16 72.21 Z" />
<path fill="#171717" d=" M 13.83 73.27 C 17.19 73.14 12.53 76.35 13.83 73.27 Z" />
<path fill="#171717" d=" M 32.50 73.05 C 35.53 71.65 32.51 76.36 32.50 73.05 Z" />
<path fill="#171717" d=" M 68.00 73.52 L 68.80 73.60 C 68.85 74.02 68.96 74.85 69.01 75.27 C 68.68 75.02 68.01 74.51 67.68 74.26 L 68.00 73.52 Z" />
<path fill="#171717" d=" M 115.19 73.24 C 115.80 73.81 115.80 73.81 115.19 73.24 Z" />
<path fill="#171717" d=" M 34.99 74.25 C 35.67 74.84 35.67 74.84 34.99 74.25 Z" />
<path fill="#171717" d=" M 11.21 75.27 C 11.77 75.91 11.77 75.91 11.21 75.27 Z" />
<path fill="#171717" d=" M 30.28 75.18 C 30.88 75.82 30.88 75.82 30.28 75.18 Z" />
<path fill="#171717" d=" M 69.01 75.27 C 69.69 75.78 69.69 75.78 69.01 75.27 Z" />
<path fill="#171717" d=" M 128.21 75.26 C 128.86 75.84 128.86 75.84 128.21 75.26 Z" />
<path fill="#171717" d=" M 73.77 76.63 C 75.82 76.59 78.02 76.06 79.98 76.87 C 81.51 77.93 82.95 79.30 83.78 81.00 C 84.23 82.92 83.62 84.88 83.47 86.81 C 83.09 87.47 82.32 88.80 81.93 89.47 C 80.31 89.67 77.91 92.01 77.20 89.17 C 77.32 89.72 77.56 90.81 77.68 91.36 C 75.13 90.82 72.77 89.73 70.52 88.44 C 69.24 85.65 68.94 82.60 69.64 79.61 C 71.01 78.61 72.39 77.62 73.77 76.63 Z" />
<path fill="#171717" d=" M 130.23 76.20 C 130.80 76.78 130.80 76.78 130.23 76.20 Z" />
<path fill="#171717" d=" M 7.24 76.90 C 10.28 75.45 7.20 80.25 7.24 76.90 Z" />
<path fill="#171717" d=" M 13.28 77.19 C 13.88 77.77 13.88 77.77 13.28 77.19 Z" />
<path fill="#171717" d=" M 19.16 77.23 C 19.80 77.78 19.80 77.78 19.16 77.23 Z" />
<path fill="#171717" d=" M 28.23 77.26 C 28.90 77.83 28.90 77.83 28.23 77.26 Z" />
<path fill="#171717" d=" M 10.00 78.13 C 10.71 78.77 10.71 78.77 10.00 78.13 Z" />
<path fill="#ffffff" d=" M 23.37 78.37 C 23.66 78.65 23.66 78.65 23.37 78.37 Z" />
<path fill="#171717" d=" M 64.59 79.30 C 63.06 76.92 68.31 78.45 67.72 80.17 C 66.59 80.47 65.54 80.18 64.59 79.30 Z" />
<path fill="#171717" d=" M 125.15 78.23 C 125.79 78.79 125.79 78.79 125.15 78.23 Z" />
<path fill="#171717" d=" M 127.18 78.25 C 127.87 78.75 127.87 78.75 127.18 78.25 Z" />
<path fill="#171717" d=" M 13.01 79.40 C 13.66 80.05 13.66 80.05 13.01 79.40 Z" />
<path fill="#171717" d=" M 130.19 79.25 C 130.82 79.82 130.82 79.82 130.19 79.25 Z" />
<path fill="#171717" d=" M 10.27 80.16 C 10.83 80.81 10.83 80.81 10.27 80.16 Z" />
<path fill="#ffffff" d=" M 21.75 82.68 C 21.06 81.98 21.03 79.72 22.35 79.60 C 23.22 80.11 24.14 81.31 23.75 82.38 C 23.25 82.45 22.25 82.60 21.75 82.68 Z" />
<path fill="#ffffff" d=" M 103.13 79.52 C 104.28 79.94 104.79 80.66 104.67 81.68 L 104.36 82.29 C 104.37 82.69 104.39 83.48 104.40 83.88 C 104.81 83.29 105.61 82.13 106.02 81.54 C 106.44 82.71 106.88 83.88 107.34 85.04 C 107.17 85.50 106.83 86.42 106.66 86.88 C 105.41 85.75 104.17 84.62 102.84 83.59 C 102.43 82.22 102.39 80.80 103.13 79.52 Z" />
<path fill="#ffffff" d=" M 19.60 80.73 C 21.43 80.86 19.13 84.01 17.94 83.55 C 17.82 82.29 18.37 81.35 19.60 80.73 Z" />
<path fill="#171717" d=" M 64.30 81.64 C 63.60 79.92 67.25 80.03 66.61 81.71 C 66.03 81.69 64.88 81.66 64.30 81.64 Z" />
<path fill="#171717" d=" M 118.27 82.21 C 118.75 82.86 118.75 82.86 118.27 82.21 Z" />
<path fill="#171717" d=" M 129.29 81.94 C 132.35 80.63 129.08 85.28 129.29 81.94 Z" />
<path fill="#171717" d=" M 132.19 87.20 C 132.81 87.86 132.81 87.86 132.19 87.20 Z" />
<path fill="#171717" d=" M 85.67 93.40 C 84.26 93.79 82.03 91.09 83.45 90.24 C 84.45 90.84 86.30 92.04 85.67 93.40 Z" />
<path fill="#171717" d=" M 69.35 88.77 C 70.72 90.42 73.14 91.19 74.20 93.11 L 74.30 94.07 C 74.19 94.75 73.96 96.12 73.84 96.80 C 70.89 98.12 72.32 93.85 73.08 92.57 C 71.80 93.48 70.56 97.58 69.09 94.87 C 69.33 92.70 72.54 91.00 69.35 88.77 Z" />
<path fill="#171717" d=" M 41.76 92.31 C 41.99 92.71 41.99 92.71 41.76 92.31 Z" />
<path fill="#171717" d=" M 80.42 92.14 C 81.85 91.69 83.12 93.52 83.88 94.55 C 83.55 94.77 82.90 95.22 82.57 95.45 C 81.30 94.99 80.16 93.50 80.42 92.14 Z" />
<path fill="#171717" d=" M 74.98 96.98 C 74.11 94.10 77.05 92.16 79.66 92.71 L 79.05 94.33 C 78.62 94.31 77.78 94.29 77.36 94.28 C 78.18 96.15 77.23 97.89 74.98 96.98 Z" />
<path fill="#171717" d=" M 79.05 94.33 C 80.39 94.65 80.73 95.44 80.05 96.71 C 78.69 96.45 78.36 95.66 79.05 94.33 Z" />
<path fill="#ffffff" d=" M 93.16 97.28 C 95.60 95.96 94.95 99.99 92.90 98.76 C 92.97 98.39 93.10 97.65 93.16 97.28 Z" />
<path fill="#171717" d=" M 58.00 101.31 C 56.65 101.85 54.82 99.82 56.38 98.92 C 57.48 98.67 59.94 100.73 58.00 101.31 Z" />
<path fill="#ffffff" d=" M 90.29 99.38 C 90.72 99.82 90.72 99.82 90.29 99.38 Z" />
<path fill="#171717" d=" M 64.49 100.18 C 65.67 99.42 67.97 99.38 68.73 100.73 C 68.19 102.26 64.63 101.58 64.49 100.18 Z" />
<path fill="#171717" d=" M 39.20 101.25 C 39.87 101.84 39.87 101.84 39.20 101.25 Z" />
<path fill="#171717" d=" M 41.19 101.19 C 41.78 101.84 41.78 101.84 41.19 101.19 Z" />
<path fill="#171717" d=" M 118.18 101.25 C 118.88 101.70 118.88 101.70 118.18 101.25 Z" />
<path fill="#171717" d=" M 104.99 102.31 C 105.69 102.73 105.69 102.73 104.99 102.31 Z" />
<path fill="#171717" d=" M 108.24 102.18 C 108.72 102.86 108.72 102.86 108.24 102.18 Z" />
<path fill="#171717" d=" M 120.21 102.18 C 120.85 102.73 120.85 102.73 120.21 102.18 Z" />
<path fill="#171717" d=" M 36.27 103.17 C 36.81 103.76 36.81 103.76 36.27 103.17 Z" />
<path fill="#171717" d=" M 110.30 103.00 C 110.93 103.66 110.93 103.66 110.30 103.00 Z" />
<path fill="#171717" d=" M 44.18 104.26 C 44.83 104.84 44.83 104.84 44.18 104.26 Z" />
<path fill="#ffffff" d=" M 97.37 104.37 C 97.65 104.65 97.65 104.65 97.37 104.37 Z" />
<path fill="#171717" d=" M 106.24 104.20 C 106.79 104.85 106.79 104.85 106.24 104.20 Z" />
<path fill="#171717" d=" M 42.21 105.18 C 42.75 105.81 42.75 105.81 42.21 105.18 Z" />
<path fill="#171717" d=" M 110.18 105.22 C 110.81 105.77 110.81 105.77 110.18 105.22 Z" />
<path fill="#171717" d=" M 38.18 106.31 C 38.83 106.77 38.83 106.77 38.18 106.31 Z" />
<path fill="#171717" d=" M 119.33 109.26 C 119.43 107.57 121.65 105.87 123.24 105.73 C 122.86 107.24 121.00 109.46 119.33 109.26 Z" />
<path fill="#171717" d=" M 117.34 107.17 C 117.75 107.87 117.75 107.87 117.34 107.17 Z" />
<path fill="#171717" d=" M 100.22 109.29 C 100.87 109.79 100.87 109.79 100.22 109.29 Z" />
<path fill="#171717" d=" M 117.17 109.45 C 120.55 109.56 115.63 112.40 117.17 109.45 Z" />
<path fill="#171717" d=" M 112.16 110.27 C 112.76 110.87 112.76 110.87 112.16 110.27 Z" />
<path fill="#171717" d=" M 114.20 112.49 C 113.86 111.09 114.38 110.58 115.76 110.96 C 116.10 112.32 115.58 112.83 114.20 112.49 Z" />
<path fill="#171717" d=" M 107.18 112.19 C 107.79 112.77 107.79 112.77 107.18 112.19 Z" />
<path fill="#171717" d=" M 105.20 113.17 C 105.85 113.75 105.85 113.75 105.20 113.17 Z" />
<path fill="#171717" d=" M 46.17 114.13 C 49.16 112.75 46.21 117.47 46.17 114.13 Z" />
<path fill="#171717" d=" M 95.28 114.37 C 95.82 115.06 95.82 115.06 95.28 114.37 Z" />
<path fill="#171717" d=" M 107.40 114.18 C 110.40 112.70 107.30 117.53 107.40 114.18 Z" />
<path fill="#171717" d=" M 49.02 115.48 C 52.39 115.17 47.79 118.55 49.02 115.48 Z" />
<path fill="#171717" d=" M 57.21 114.94 C 60.24 113.52 57.12 118.27 57.21 114.94 Z" />
<path fill="#171717" d=" M 105.22 116.21 C 105.77 116.85 105.77 116.85 105.22 116.21 Z" />
<path fill="#171717" d=" M 106.94 117.87 C 106.83 116.49 107.44 116.00 108.78 116.40 C 108.88 117.81 108.27 118.30 106.94 117.87 Z" />
<path fill="#171717" d=" M 48.28 118.19 C 48.85 118.79 48.85 118.79 48.28 118.19 Z" />
<path fill="#171717" d=" M 54.23 119.18 C 54.77 119.79 54.77 119.79 54.23 119.18 Z" />
<path fill="#171717" d=" M 100.23 119.19 C 100.84 119.75 100.84 119.75 100.23 119.19 Z" />
<path fill="#171717" d=" M 95.19 120.05 C 95.83 120.67 95.83 120.67 95.19 120.05 Z" />
<path fill="#171717" d=" M 97.14 120.68 C 97.81 121.25 97.81 121.25 97.14 120.68 Z" />
<path fill="#171717" d=" M 53.15 121.19 C 53.80 121.70 53.80 121.70 53.15 121.19 Z" />
<path fill="#171717" d=" M 92.39 120.90 C 95.47 119.82 92.06 124.26 92.39 120.90 Z" />
<path fill="#171717" d=" M 63.21 122.22 C 63.82 122.75 63.82 122.75 63.21 122.22 Z" />
</svg>
