<?xml version="1.0" encoding="utf-8"?>
<!-- Generator: Adobe Illustrator 15.0.0, SVG Export Plug-In . SVG Version: 6.00 Build 0)  -->
<!DOCTYPE svg PUBLIC "-//W3C//DTD SVG 1.1//EN" "http://www.w3.org/Graphics/SVG/1.1/DTD/svg11.dtd">
<svg version="1.1" id="Layer_1" xmlns="http://www.w3.org/2000/svg" xmlns:xlink="http://www.w3.org/1999/xlink" x="0px" y="0px"
	 width="1680px" height="607px" viewBox="0 252.5 800 289" enable-background="new 0 252.5 800 289" xml:space="preserve">
<path fill="#FEFEFE" d="M0,0h800v800H0V0z"/>
<path fill="#AAAAAA" d="M239.9,309.65c2.01-0.59,3.94-1.64,6.1-1.52c2.71-0.18,4.95,1.57,7.39,2.43c8.24,1.68,15.25,7.13,23.52,8.67
	c2.23,2.51,5.98,1.88,8.91,2.95c5.84,2.29,12.09,3.75,17.23,7.54c3.13,2.19,5.601,5.17,8.65,7.48
	c8.689-0.78,15.729,6.38,17.76,14.36c1.5,0.53,3,1.06,4.51,1.58c2.88,3.81,2.96,8.74,5.07,12.91c1.61,3.11,2.01,6.65,2.65,10.05
	c1.21,6.5-3.48,12.34-2.881,18.8c-0.069,5.28,3.341,9.831,3.301,15.11c0.229,4.23-0.96,10.061-5.761,11.181
	c-2.88-4.221-6.13-8.58-11.02-10.57c-3.28-1.98-7.66-1.68-10.34-4.64c-1.7-1.45-2.431-3.601-3.25-5.591
	c-10.56-5.49-19.55-14.08-25.37-24.49c-5.14-7.52-9.89-15.44-16.44-21.87c-8.35-7.63-18.66-13.59-29.97-15.27
	c-13.37-3.41-27.29-3.84-41.02-3.59c-8.64,0.51-17.35,0.76-25.81,2.76c-9.68,1.15-18.84,4.59-28.19,7.13
	c-8.91,3.66-17.88,7.55-25.69,13.27c-7.78,4.65-15.21,9.94-22,15.95c-11.07,8.89-20.07,20.03-28.55,31.32
	c-2.11,3.301-3.27,7.75-6.85,9.75c-2.81,1.511-2.59-2.67-2.81-4.31c-1.03-7.84,2.97-14.96,6.04-21.86
	c5.44-8.96,11.87-17.34,18.96-25.05c4.34-3.84,7.45-8.77,11.4-12.96c9.64-8.88,19.87-17.37,31.77-23.09
	c4.3-2.8,9.38-3.89,13.78-6.47c6.92-3.59,14.64-4.93,21.98-7.37c6.51-1.82,13.19-3.07,19.87-4.02c11.02-0.18,22.07-1.55,33.06-0.23
	C223.9,309.79,231.92,310.66,239.9,309.65z"/>
<path fill="#FEFEFE" d="M242.5,310.6c1.76-0.49,3.59-0.55,5.4-0.58c0.14,0.41,0.42,1.24,0.55,1.66c2.73,0.73,5.5,1.32,8.31,1.62
	c-0.16,0.41-0.47,1.23-0.62,1.63c1.82,0.86,3.75,1.47,5.74,1.79c3.11,1.82,6.48,3.11,9.73,4.64c3.23,1.46,7.63,0.8,9.94,3.94
	c0,0.49-0.02,1.47-0.02,1.96c1.16,0.15,2.05,0.79,2.65,1.9c-1.27,0.13-2.38-0.22-3.31-1.05c-2.36-1.88-5.47-2.18-8.33-2.67
	c-1.94-1.91-4.25-3.79-7.14-3.6c0.81,1.43,2.23,2.23,3.66,2.94c-2.19,0.11-5.38-1.2-6.82,1c7.46,1.56,14.89,4.16,22.58,4.06
	c1.52,2.49,1.21,5.46,1.05,8.23c-0.97,7.51,3.93,13.94,5.67,20.96c1.33,6.05,2.34,12.27,5.12,17.88c2.3,4.4,5.49,8.41,6.67,13.33
	c-1.98-2.09-3.53-4.7-6.25-5.92c0.63,0.02,1.88,0.06,2.5,0.08c-1.07-1.58-2.32-3.03-3.69-4.36c-0.25,0.62-0.76,1.85-1.01,2.46
	c-1.04-1.72-2.28-3.33-3.96-4.46l-0.6-0.46c0.17-1.25,0.87-2.24,2.11-2.96c-2.38-0.13-1.85-5.45-4.41-3.09l-0.58,1.43
	c0.51-2.44-0.38-4.79-1.2-7.05c-0.42-0.93-1.07-1.67-1.94-2.24c0.4,0,1.21,0.01,1.61,0.01c-0.21-0.92-0.64-2.74-0.86-3.65
	c-1.36-0.41-2.71-0.81-4.05-1.24c0.55-0.13,1.65-0.39,2.2-0.52c-3.7-6.05-8.74-11.24-14.5-15.35c-0.44,0.22-1.31,0.65-1.74,0.87
	c-3.39-2.86-7.32-5.06-11.84-5.22c-7.73-3.19-15.88-5.13-23.93-7.29c-9.67-2.11-19.59-2.66-29.33-4.29
	c-0.02,1.62-0.05,3.25-0.11,4.88l-0.66-0.04c0.1-1.63,0.3-3.24,0.55-4.85c-10.66-1.6-21.55-1.3-32.26-0.31
	c0.6,0.76,1.22,1.53,1.83,2.3c9.19-0.98,18.4-0.64,27.62-0.87l-1.28,0.9l1.23,0.65c-2.16-0.19-4.43,0.47-4.27,3.08
	c-1.12,0.07-2.24,0.13-3.36,0.18c1.53-0.5,4.08-1.59,2.67-3.61c-3.59-1.55-7.66-0.28-11.44-0.37c-0.82,0.56-1.5,1.98-2.7,1.33
	c-2.05-0.69-2.13,2.17-2.96,3.37c-1.15-0.69-2.28-1.42-3.43-2.08c1.13-0.27,2.28-0.41,3.4-0.73c-0.09-0.46-0.28-1.39-0.37-1.85
	c-1.91,0.11-3.79,0.39-5.63,0.84c-0.04,2.23,1.02,5.45-1.26,6.89c-0.13-1.12-0.35-2.22-0.67-3.29c-1.46-0.35-2.99,0.31-4.48,0.27
	c1.74-1.45,5.23-1.1,5.3-4.18c-2.84,0.58-5.65,1.49-8.58,1.44c-3.67-0.25-6.75,2.17-10.32,2.58c0.13,0.51,0.4,1.54,0.54,2.05
	c0.82,0.1,2.41,0.01,2.42,1.14c-1.13,1.01-2.69,1.3-4.03,1.94c-1.48,0.71-1.66-1.27-2.08-2.17c1.75-0.02,3.46-1.75,1.29-2.82
	c-1.16,0.68-2.31,1.37-3.45,2.08c-0.23,0.75,0.01,1.38,0.73,1.89l-1.31,0.13c0.03,1.63,0.04,3.27-0.05,4.91
	c-0.76-1.18-1.9-1.97-3.32-2.07c0.57-1.11,4.31-2.33,1.9-3.85c-2.48-0.96-4.73,0.5-6.96,1.37c-5.72,0.69-9.94,5.09-15.36,6.79
	c0.5-2.36,2.78-3.11,4.62-4.09c13.79-6.71,29.06-9.49,44.07-11.77c-0.86-0.59-1.51-1.69-2.61-1.8
	c-17.45,2.37-34.97,6.74-50.19,15.87c-5.84,3.37-11.43,7.16-16.77,11.26c0.91-1.13,1.74-2.34,2.8-3.35
	c9.28-7.46,19.68-13.39,30.34-18.66c4.22-2.55,9.12-3.45,13.5-5.62c3.48-1.8,7.58-1.31,11.12-2.91c4.17-1.94,8.79-2.19,13.3-2.6
	c5.31-0.35,10.37-2.45,15.73-2.28c11.39,0.24,22.79-0.21,34.17,0.2c13.62,1.72,27.28,3.3,40.73,6.11c-2.82-5.15-10-2.96-14.78-4.5
	c-8.07-2.61-16.65-2.32-24.99-3.33c-7.64-1.03-15.34-0.14-23.01-0.33c-6.68-0.25-13.3,0.84-19.96,0.9
	c-6.56,0.16-12.77,2.45-19.22,3.35c-19.06,4.46-37.07,13.1-52.74,24.84c-3.43,3.04-7.9,4.84-10.62,8.66
	c0.91-0.12,2.72-0.36,3.63-0.48c-1.26,1.08-2.67,1.98-4.15,2.73l0.01,0.93l-1.55-0.61l0.35,1.18c-0.95,0.68-1.67,1.56-2.15,2.62
	c-0.07,0.09-0.2,0.28-0.27,0.37c0.07-0.09,0.2-0.28,0.27-0.37c3.22-0.31,4.98-3.38,7.83-4.53c-1.17,1.9-3.12,3.02-4.96,4.16
	c0.58,0.57,1.17,1.14,1.77,1.7c1.07-1.09,2.1-2.21,3.02-3.42c0.61-0.41,1.81-1.23,2.41-1.64c-1.42,1.97-3.36,3.52-4.57,5.64
	c-2.49-0.66-3.59,2.52-5.47,3.56c-1.56,0.55-0.07,1.93-0.18,2.95c-1.25,0.39-2.5,0.78-3.59,1.53c0.2,0.39,0.59,1.16,0.78,1.55
	c-4.7,0.5-6.99,5.01-10.05,7.97c0.31-0.82,0.95-2.47,1.27-3.3c-1.81,0.8-2.72,2.52-3.52,4.21c0.66-0.13,1.98-0.4,2.65-0.53
	c-1,1.11-1.99,2.23-2.99,3.35l0.24-2.45c-1.41,1.4-2.81,2.82-4.23,4.21l-0.63,2.09c0.51-0.12,1.54-0.37,2.06-0.5
	c0.51-1.26,1.47-2.18,2.56-2.94c-1.17,1.81-2.42,3.55-3.53,5.41c-0.57-0.66-1.16-1.29-1.77-1.91c-0.32,0.81-0.96,2.45-1.29,3.27
	c0.65-0.26,1.95-0.77,2.61-1.03c-2.78,3.43-3.79,7.7-5.58,11.61c-0.03-2.74,0.15-5.5-0.45-8.181c2.66-3.36,4.79-7.09,7.42-10.46
	c1.74-2.23,3.37-4.59,4.18-7.33c3.78-4.49,8.22-8.33,12.23-12.58l0.81-2.16c-1.61,0.97-3.1,2.13-4.6,3.25
	c0.77-1.02,2.24-1.81,1.96-3.32c2.14-0.63,4.03-1.9,5.24-3.8c-0.23-0.32-0.69-0.96-0.92-1.29c9.75-9.39,20.25-18.1,31.91-25.04
	c6.13-3.29,12.62-5.81,18.74-9.08c4.82-1.05,9.14-3.52,13.98-4.5c5.29-1.73,10.76-2.76,16.13-4.2c12.79-2.62,25.93-2.55,38.93-2.39
	C222.83,311.85,232.81,312.91,242.5,310.6z"/>
<path fill="#AAAAAA" d="M243.75,313.82c1.63,0.43,3.29,0.82,4.99,0.78c-0.01,0.45-0.03,1.34-0.04,1.79
	c0.89-0.12,2.68-0.35,3.58-0.47c0.01-0.52,0.04-1.57,0.05-2.09c0.87,0.39,1.75,0.79,2.63,1.2c-0.22,0.47-0.65,1.42-0.86,1.9
	c0.75,0,2.26,0,3.01-0.01c0.86,1.57,1.7,3.15,2.49,4.77c-2.15-0.05-3.03-1.61-4.17-3.06c-3.82-0.65-7.51-1.75-11.18-2.99
	C244.13,315.18,243.88,314.27,243.75,313.82z"/>
<path fill="#AAAAAA" d="M179.07,318.01c6.66-0.06,13.28-1.15,19.96-0.9c7.67,0.19,15.37-0.7,23.01,0.33
	c8.34,1.01,16.92,0.72,24.99,3.33c4.78,1.54,11.96-0.65,14.78,4.5c-13.45-2.81-27.11-4.39-40.73-6.11
	c-11.38-0.41-22.78,0.04-34.17-0.2c-5.36-0.17-10.42,1.93-15.73,2.28c-4.51,0.41-9.13,0.66-13.3,2.6c-3.54,1.6-7.64,1.11-11.12,2.91
	c-4.38,2.17-9.28,3.07-13.5,5.62c-10.66,5.27-21.06,11.2-30.34,18.66c-1.06,1.01-1.89,2.22-2.8,3.35c-0.91,0.12-2.72,0.36-3.63,0.48
	c2.72-3.82,7.19-5.62,10.62-8.66c15.67-11.74,33.68-20.38,52.74-24.84C166.3,320.46,172.51,318.17,179.07,318.01z"/>
<path fill="#AAAAAA" d="M259.52,321.08c-0.2-3.19,3.86-1.91,5.76-2.07c-0.02,0.49-0.06,1.48-0.07,1.98
	c-1.16,0.35-2.3,0.72-3.44,1.12C261.21,321.85,260.09,321.34,259.52,321.08z"/>
<path fill="#AAAAAA" d="M223.38,323.3c0.03-0.37,0.09-1.1,0.12-1.47c3.77,0.62,7.93,1.05,10.73,3.99
	C230.35,326.83,226.95,324.36,223.38,323.3z"/>
<path fill="#AAAAAA" d="M218.24,325.73c2.58-3.26,6.55,0.67,9.79,0.49c0,0.79,0,2.36,0,3.14
	C224.86,327.89,221.62,326.64,218.24,325.73z"/>
<path fill="#FEFEFE" d="M283.73,324.83c4.53,1.39,6.43,6.11,8.45,9.95c3.12,6.18,6.01,13.44,12.55,16.73
	c0.7,4.49,1.51,8.96,1.33,13.52c2.641,6.09,11.5,7.58,12.311,14.9c1.04,0.08,2.08,0.16,3.13,0.24c0.01,0.67,0.01,2.01,0.02,2.68
	c-0.149-0.51-0.439-1.52-0.579-2.03c-0.65,0-1.94,0.01-2.591,0.01c-1.08-2.53-4.09-2.25-6.33-1.78c-2.68,0.81-4.59,2.9-6.189,5.08
	c0.16-3.18,3.27-4.67,4.53-7.31c-2.521-0.19-4.25,4.04-6.49,2.38c-2.63-5.07-5.66-10.21-6.28-15.99c1.1,0.53,1.83,1.41,2.21,2.64
	c-0.25-1.08-0.47-2.15-0.69-3.22c-2.98,1.45-3.36-2.73-0.51-3.17c-0.18-0.24-0.53-0.72-0.7-0.96c-0.42,0.24-1.26,0.73-1.67,0.97
	c-0.6-0.9-1.19-1.8-1.77-2.7c1.05-4.18-2.14-7.63-2.78-11.6c-1.43-0.92-2.31-2.34-2.81-3.93c0.65,0.32,1.94,0.96,2.59,1.27
	c-0.73-1.9-1.53-3.78-2.34-5.65c0.46-0.28,1.37-0.83,1.83-1.11c-0.62-0.2-1.86-0.6-2.48-0.8c1.38-3.19-2.09-4.86-2.71-7.71
	C285.08,326.43,284.4,325.63,283.73,324.83z"/>
<path fill="#FEFEFE" d="M289.03,325.19c3.41,4.07,8.27,6.35,12.17,9.83c-1.48-0.02-2.89-0.48-3.36-2.01
	c-1.4,0.63-2.88,0.92-4.41,0.9c-0.38-1.53-0.78-3.05-1.23-4.56C290.89,328.16,289.84,326.75,289.03,325.19z"/>
<path fill="#AAAAAA" d="M248.34,326.06c2.17,0.15,4.34,0.33,6.52,0.41c0.09,0.69,0.27,2.06,0.36,2.75
	C252.66,328.92,250.09,328.03,248.34,326.06z"/>
<path fill="#AAAAAA" d="M241.72,328.93c3.45,0.06,6.96-0.07,10.3,0.96c0.06,0.7,0.2,2.09,0.26,2.79c1.55,1.53,3.69,1.95,5.75,2.39
	l-0.37,1.68c-2.79,0.86-5.59-0.62-8.35-0.93c0.36-0.43,1.1-1.29,1.46-1.72c-1.68-0.49-3.38-0.89-5.09-1.23
	c0.34-0.49,1.02-1.49,1.36-1.99c-1.54,0.22-3.06,0.46-4.59,0.72C242.27,330.93,241.9,329.6,241.72,328.93z"/>
<path fill="#AAAAAA" d="M256.05,332.66c1.11-3.35,4.15-0.63,5.77,0.78C261.46,336.98,257.66,333.63,256.05,332.66z"/>
<path fill="#AAAAAA" d="M263.44,335.81c4.09-0.5,7.89,1.08,11.68,2.34c0.04,0.76,0.12,2.27,0.16,3.03
	c-2.48-0.08-4.37-2.12-6.71-2.76C266.86,337.58,264.44,337.66,263.44,335.81z"/>
<path fill="#FEFEFE" d="M294.89,335.87c3.69,0.82,7.22,2.32,11.06,2.38c-0.73,0.38-2.19,1.12-2.92,1.49
	c3.041-0.18,6.34-0.91,8.85,1.3c-0.47,2.79,1.28,6.31-0.99,8.57l-0.68-1.28c-0.02,0.56-0.06,1.68-0.08,2.24
	c1.03-0.74,2.271-0.59,3.47-0.53c-0.199,0.84-0.609,2.53-0.81,3.37c-1.21,0.05-2.42,0.11-3.62,0.17c0.32,0.33,0.96,1,1.28,1.33
	c0.069,1.45-0.51,3.42,1.58,3.65c-0.16-0.85-0.49-2.55-0.66-3.4c0.689,0.08,2.07,0.24,2.75,0.32c-0.51,1.82-1.3,3.66-0.89,5.6
	c1.35,1.54,2.39-0.53,3.06-1.53l-0.29,1.01l2.64,0.34c-0.449-1.28-0.81-2.75-2.21-3.27c0.61-1.05,0.931-2.19,0.99-3.4
	c0.25,0.8,0.65,1.53,1.18,2.19c0.221,2.21,1.11,4.44,0.521,6.66c-0.29,1.35,0.77,2.38,1.33,3.5c-1.03-0.3-2.05-0.6-3.07-0.88
	c-0.51,0.35-1.54,1.05-2.06,1.4c0.609-1.68,1.359-3.34,3.34-3.76c-0.68-0.76-1.37-1.5-2.061-2.22c-1.08,0.93-2.14,1.9-3.199,2.86
	c-1.49-2.3-3.931-3.73-5.471-5.96c-1.27-1.78-0.84-4.05-0.89-6.07c-1.92-2.41-4.75-3.94-6.37-6.59
	C298.67,342.24,296.55,339.18,294.89,335.87z"/>
<path fill="#FEFEFE" d="M318.27,341.34c0.54,0.83,1.091,1.67,1.65,2.52c0.36,0.08,1.09,0.24,1.45,0.32
	c-0.13,1.38,0.03,2.89-0.82,4.11c1.33,1.57,2.75,3.07,4.21,4.53c-0.93-0.65-1.88-1.32-2.8-1.95c-0.27,0.81-0.8,2.42-1.07,3.23
	c1.011,0.47,2.03,0.95,3.04,1.44c-0.68-0.13-2.05-0.39-2.729-0.52c0.34,1.92,0.54,3.88,0.99,5.79c0.939,0.97,2.27,1.29,3.51,1.77
	c-1.521,0.28-3,0.7-4.5,1c0.64-3.69,0.3-8.23-2.641-11.01c0.32-1.16-0.09-2.23-0.56-3.25C318.07,346.65,318.19,344,318.27,341.34z"
	/>
<path fill="#FEFEFE" d="M263.27,343.19C263.75,343.77,263.75,343.77,263.27,343.19z"/>
<path fill="#AAAAAA" d="M310.13,346.57c-0.8-1.27-0.57-2.08,0.71-2.41C311.63,345.41,311.39,346.21,310.13,346.57z"/>
<path fill="#AAAAAA" d="M417.02,348.02c2.25-1.2,4.841-0.7,7.2-0.14c2.021,4.22-2.8,7.29-2.21,11.43c2.061-1.21,1.58-4.54,3.84-5.29
	c0.091,3.34-2.069,6.53-1.939,10.01c0.63-0.06,1.899-0.19,2.53-0.25c0.189-1.49,0.449-2.98,0.76-4.44c3.18-1.56,3.63-5.42,4.7-8.43
	c0.58-2.53-2.24-1.66-3.44-0.77c-0.69,0.91-0.66,3.07-2.26,2.69c-0.44-1.64,0.54-3.17,0.93-4.71c2.55-1.24,5.82-1.76,7.82,0.76
	c0.13,3.6-3.2,6.37-3.01,10.05c0.619-0.48,1.869-1.44,2.489-1.92c-0.31,1.37-0.66,2.73-1.05,4.09c0.34,1.2,0.69,2.4,1.05,3.61
	c0.551,0.08,1.641,0.25,2.19,0.33c0.49-1.91,1.01-3.81,1.63-5.68c2.25-2.83,3.13-6.48,4.94-9.58c-3.2-0.7-5.271,2.21-7.561,3.84
	c-0.189-2.42,1.25-4.66,3.47-5.56c1.971-0.25,3.971-0.15,5.96-0.15c1.801,4.06-3.09,6.91-2.97,10.73c0.42,0.1,1.25,0.3,1.67,0.4
	c0.2-0.79,0.601-2.38,0.8-3.18c0.051,3.37,0.25,6.84,1.771,9.91c0.41,0.13,1.229,0.4,1.64,0.53c-0.109-2.04-0.37-4.07-0.26-6.1
	c2.6-2.49,5.46-6.29,3.68-10c-1.02,0.36-3.06,1.09-4.09,1.45c-0.12-3.96,4.12-2.38,6.59-2.43c2.681,3.13-0.8,6.39-1.87,9.47
	c0.54,0.12,1.601,0.35,2.141,0.46c0.109-1.04,0.229-2.08,0.359-3.12c0.29,0.79,0.58,1.59,0.87,2.39c-2.439,2.7,0.811,6.01,1.29,8.86
	c-3.17,1.49-3.68-3.88-4.319-5.86c-0.88-0.12-1.75-0.22-2.61-0.32c0.99,1.23,0.17,2.43-0.5,3.53c0.25,0.57,0.74,1.73,0.99,2.31
	c0.34,0.24,1.029,0.73,1.37,0.97c-1.73-1.27-0.561-2.58,0.56-3.66c0.64,0.87,1.92,2.6,2.55,3.46l-2,1.01
	c0.49,0.12,1.46,0.37,1.95,0.49c-0.07,0.38-0.22,1.13-0.29,1.5c1.11-0.08,2.15-0.48,3.17-0.92c-1.39-3.24,0.601-6.47,0.29-9.78
	c2.44-2.15,3.48-5.38,5.34-8.02c-1.37-0.21-2.729-0.41-4.09-0.61c1.17-3.46,6.21-1.17,7.38,1.39c-1.55,1.89-3.56,3.58-4.279,6
	c0.979,2.3,2.77-0.15,4.029-0.83c-0.29,1.42-0.6,2.85-0.979,4.27c0.479,2.03,1.3,3.96,2.3,5.8c-0.21-1.56,0.3-2.66,1.53-3.29
	c2.189,0.75,2.26,3.39,2.59,5.31c0.07-1.82,0.18-3.64,0.13-5.46c-1.03-0.29-1.95-0.79-2.75-1.49c-0.47-3.9,4.62-5.99,5.18-9.76
	c-2.81-0.31-4.96,1.34-7.239,2.64c1.189-2.37,3.039-5.6,6.149-5.04c1.811,0.29,4.74,1.45,3.78,3.82c-0.97,1.91-2.47,3.46-3.93,5
	c1.34,0.41,2.689,0.85,4.039,1.3c1.79-2.66,2.79-5.86,5.051-8.19c2.87-1.89,5.55,0.58,7.5,2.53c-1.101,2.29-1.99,4.87-4.19,6.37
	c1.41-0.05,2.851,0.07,4.26-0.18c1.44-1.96,2.311-4.27,3.66-6.29c1.55-2.01,4.15-0.8,6.11-0.28c0.74,2.35-0.32,4.62-1.29,6.72
	c1.27,0.37,2.54,0.79,3.8,1.24c1.15-2.33,2.271-4.67,3.311-7.05c2.069-0.13,4.109,0.28,6.039,1.06c0.551,2.53-0.649,4.76-2.289,6.57
	c1.289,0.38,2.6,0.81,3.89,1.26c1.81-1.91,3.09-4.21,4.47-6.43c1.62-0.4,3.22,0.54,4.811,0.79c0.8,1.99,0.409,3.9-1.07,5.46
	c1.39,0.34,2.37,1.36,3.31,2.39c1.11-2.04,1.46-5.03,3.67-6.14c1.98-0.02,4.671-0.65,6.011,1.25c0.609,1.75-1.4,3.09-1.931,4.57
	c1.86,0.05,3.75,0.15,5.61,0.32c0.52-1.45,1.23-2.93,0.92-4.51c1.97-1.04,4.061-2.64,6.37-1.34c2.63,0.68,0.38,3.36,0.05,4.91
	c1.51,1.1,3.021,2.27,4.771,3c1.649-2.46,2.96-5.21,5.25-7.2c1.409,0.39,2.83,0.77,4.25,1.17c0.12,2.2-1.54,6,1.72,6.48
	c1.92-0.4,2.42-2.67,3.28-4.13c-0.511,0.03-1.53,0.07-2.04,0.09c1.79-0.69,3.14-2.1,4.779-3.04c1.36,0.07,2.7,0.37,4.051,0.6
	c0.51,1.93-0.46,3.71-1.131,5.47c2.131,0.95,3.561,2.75,4.461,4.86c0.279-0.16,0.85-0.47,1.13-0.63c1.52-2.34,3.149-4.61,4.55-7.03
	c-3.351-0.19-3.5,4.52-6.57,5c1.18-2.3,2.46-4.54,3.601-6.85c1.68-0.09,3.359-0.08,5.05,0.03c-0.101,1.6-0.25,3.22-0.66,4.79
	c0.88,0.48,1.77,0.96,2.67,1.45c0.56-0.46,1.69-1.37,2.25-1.83c-0.64-0.73-1.31-1.43-1.96-2.13c0.14-0.06,0.44-0.18,0.58-0.25
	c0.74-0.02,1.479-0.05,2.229-0.09c1.23-1.85,3.42-2,5.44-1.87c0.43,0.37,1.28,1.1,1.7,1.47c-0.721,2.03-1.63,3.99-2.891,5.75
	c0.811,2.57,1.721,5.17,1.521,7.93c-1.3-1.08-2.59-2.16-3.79-3.33l1.71-0.57c-0.15-0.53-0.44-1.6-0.59-2.13
	c-1,0.8-1.99,1.61-2.97,2.42c0.409,0.14,1.22,0.41,1.619,0.54c-0.05,3.39,1.551,6.57,0.98,10.01c2.64,0.65,6.439,0.19,6.85,3.8
	c-10.279,1.69-20.71,1.03-31.069,1.26c-16.07-0.37-32.101-2.04-47.92-4.44c-6.671-1.53-13.561-1.78-20.171-3.54
	c-8.489-0.33-16.649-2.7-24.979-4.01c1.91,4.08,4.32,7.94,5.67,12.28c2.32,6.97,3.54,14.78,8.75,20.34c1.12,1.43,2.98,3.2,1.86,5.21
	c-2.74,2.51-4.13-2.11-5.65-3.73c-7.66-9.33-7.38-22.26-13.83-32.18c-0.83-1.69-2.689-2.13-4.359-2.47
	c3.979,10.92,3.93,22.661,6.329,33.92c1.061,5.05,0.44,10.3-0.96,15.22c-0.63,1.31-1.83,2.95-3.42,1.9
	c-0.72-2.53,0.771-5.04,0.59-7.591c-0.67-6.689-1.689-13.35-1.909-20.069c-1.2-7.92-1.561-16.26-5.391-23.47
	c-0.64-0.08-1.91-0.23-2.55-0.31c0.37,3.21,1.84,6.12,2.64,9.22c2.95,12.209,4.131,25.28,0.181,37.419
	c-0.91,3.561-3.04,6.591-5,9.641c-0.83,1.97-3.03,2.8-5.05,2.54c0.34-0.971,1.02-2.9,1.359-3.87c0.67-0.12,2.01-0.351,2.681-0.47
	c-0.54-0.511-1.091-1.011-1.641-1.49c3.9-8.521,5.97-17.83,5.9-27.19c-0.04-2.77-0.28-5.56-1.4-8.13
	c1.141-1.2,3.18,0.391,2.37,2.021c0.41,4.75,0.29,9.52,0.47,14.279c0.511-5.46,0.2-10.949,0.23-16.399
	c-1.54-2.26,0.399-6.1-1.99-7.57l-0.12-1.08c-0.109,0.49-0.34,1.48-0.45,1.97c0.641,1.1,1.17,2.4,0.75,3.69
	c-2.63-0.77-1.689-4.56-2.54-6.59c0.521-0.1,1.57-0.31,2.091-0.42l-0.91-1.82c-0.55,0.54-1.11,1.08-1.66,1.61
	c-0.98-2.45-2.03-4.87-3.11-7.26c-1.43-0.4-2.84-0.79-4.25-1.2c0.2,1.58,2.58,4.56-0.22,4.7c-0.64-2.29-1.29-5.66-3.96-6.25
	c-1.24,0.69-4.39,0-4.1,2.03c4.52,6.12,4.39,14.22,5.5,21.45c1,4.99-0.12,10.01-0.681,14.98c-0.66,5.47-1.76,10.939-3.71,16.109
	c-0.89,2.44-3.819,1.021-5.59,2.08c1.01-3.04,1.97-6.11,2.86-9.189c1.77-5.53,1.41-11.4,2.31-17.08c1.78-0.591,2.87-2.74,0.37-3.271
	c-1.53-8.65-1.45-18.07-6.44-25.7c-0.899-1.71-3.17-0.53-4.68-0.78c4.05,9.75,4.83,20.44,5.53,30.86
	c-0.51,6.04-0.46,12.16-2.2,18.021c-1.44,5.359-1.479,11.8-5.55,15.97c-0.54,0.05-1.61,0.16-2.15,0.21
	c-0.02-0.95-0.05-2.84-0.069-3.78c0.6,0.53,1.21,1.08,1.8,1.65l1.02-1.87c-0.56-0.08-1.7-0.24-2.27-0.33
	c0.52-4.88,2.91-9.38,2.859-14.34c0.61-0.06,1.841-0.16,2.45-0.22c0-0.16,0.01-0.48,0.01-0.63c-0.439-0.021-1.319-0.04-1.76-0.051
	c1.72-15.35,0.83-31.36-5.189-45.74c-1.33,0.02-2.66,0.01-3.98-0.02c3,7.92,4.2,16.46,5.47,24.811c-0.909,0.76-1.83,1.52-2.739,2.27
	c-0.341-1.7-0.641-3.37-1.03-5.04c-0.29,3.94-0.24,7.91-0.01,11.84c1.21-1.49,0.35-3.96,0.6-5.79c1.23-0.3,2.39-0.81,3.521-1.37
	c1.1,8.721,0.21,17.49-0.75,26.17c-0.631,4.931-2.65,9.58-5.41,13.671c-0.65,1.079-2.101,1.01-3.15,1.42
	c-0.14-1.591-0.229-3.19-0.28-4.78l1.73,0.22c-0.061,0.63-0.18,1.88-0.24,2.51c0.58-1.59,2.8-3.069,1.92-4.859
	c-0.72,0.55-2.16,1.64-2.88,2.189c1.51-8.31,3.98-16.55,3.62-25.08c0.29-12.85-1.43-25.729-5.36-37.97
	c-1.279-0.59-2.63-0.74-3.97-0.25c3,9.8,3.71,20.06,5.34,30.13c0.63,11.71,0.561,23.59-2.02,35.08c-0.351,1.99-1.48,4.54-3.971,4.01
	c-0.729-4.97-0.09-9.96,0.011-14.939l1.64,0.02c-0.47,3.24-0.88,6.561-0.13,9.811c0.34-2.75,0.15-5.53,0.67-8.25
	c0.4,0.25,1.2,0.74,1.6,0.99c-1.42-6.091-1.06-12.4-0.81-18.591c0.33-0.3,0.98-0.89,1.31-1.189c-2.909-1.08-1-5.5-1.75-8
	c-0.54,8.24-0.52,16.56-0.21,24.82l-2.04,0.229c0.94-8.9,0.82-17.9,0.23-26.82c2.479-3.02,1.21-7.68,0.3-11.169
	c0.44-1.12,0.8-2.25,1.05-3.42c-1.159-1.14-2.56-2.5-2.1-4.32c0.58-5.51-3.48-9.89-4.76-14.85c-1.391-0.3-2.021-1.18-1.891-2.64
	c-1.34,0.35-2.319,1.25-3,2.44c-0.17-0.93-0.34-1.86-0.489-2.78c-0.17,0.13-0.521,0.38-0.69,0.51c0.13,0.92,0.271,1.85,0.43,2.79
	c0.851,0.49,1.71,1,2.57,1.51c0.09,0.58,0.29,1.75,0.39,2.33c0.351-0.18,1.051-0.55,1.4-0.73c-0.42-0.81-0.62-1.66-0.6-2.55
	c3.05,0.56,3.29,4.32,4.25,6.69c0.76,3.39,2.55,6.9,1.93,10.38c0.979,2.17,0.689,4.65,1.58,6.86c-0.11,2.83,1.479,6.33-0.65,8.69
	c-1.26-8.51-2.33-17.11-4.76-25.37c-1.23-2.62-5.02-1.45-6.67-3.38c-0.69-2.71-2.34-4.94-4.08-7.04c-1.53,0.12-3.05,0.25-4.56,0.35
	c1.949,0.32,3.89,0.8,5.76,1.48c1.67,3.89,2.83,7.97,4.29,11.95c0.52,1.77,1.66,3.62,0.939,5.52c0.891,1.44,2.63,3.38,0.92,5
	c2.101,2.41,0.801,5.76,1.41,8.65c0.41-2.74,0.01-5.51,0.24-8.24c-0.2-1.66,1.5-1.97,2.7-2.28c-0.86,3.57,0.76,7.09,0.7,10.68
	c1.779,9.85,0.39,19.92,1.79,29.79c0.109,4.649,0.18,9.31,0,13.95c-1.54,3.079-4.57,0.069-4.591-2.221
	c-0.83,0.74-1.199,2.3-2.47,2.32c-1.76,0.36-1.91-1.92-2.47-3c0.42-0.42,1.28-1.271,1.7-1.7c-1.551,1.641-2.49,1.311-2.83-0.97
	c0.56-0.19,1.68-0.57,2.25-0.76c-0.24-0.41-0.7-1.24-0.94-1.65c-0.6,0.45-1.2,0.91-1.8,1.36c-2.16-7.311-2.89-14.92-4.14-22.351
	l-0.46-0.25c-0.391,2.7,1.22,6.431-2.171,7.721c0.66,6.279,1.94,12.55,4.021,18.52c0.12,1.33,0.07,2.65-0.15,3.99
	c-1.22-0.23-2.409-0.51-3.55-0.95c-3.109-6.27-6.78-12.45-7.03-19.66c-1.109,0.28-2.21,0.55-3.31,0.82
	c-0.42,1.53-0.25,3.07-0.01,4.62c-0.42,0.02-1.26,0.069-1.681,0.09c2.141-0.01,1.61,2.32,2.12,3.729
	c0.63,3.811,3.54,6.82,3.811,10.721c-5.26-0.431-8.601-5.48-9.3-10.32c-0.631-1.69-0.011-4.14-1.83-5.15
	c0.31,2.79,0.87,5.561,1.069,8.381c-2.72,0.05-5.12-1.211-6.83-3.271c-2.109,1.65-4.85,3.08-5.64,5.82
	c-0.4,2.35-0.41,4.739-0.74,7.1c-4.609,0.43-9.25,0.38-13.87,0.311c-0.399-1.33-0.81-2.65-1.229-3.971
	c-0.51,0.24-1.54,0.721-2.061,0.96c0-0.68-0.01-2.029-0.01-2.699c-1.319-0.49-2.63-0.98-3.939-1.471c0.21-1.37-0.341-3.16,1.13-3.95
	c2.05-0.609,5.17,0.71,6.3-1.71c2.53-5.109,0.86-10.939-0.67-16.069c-1.82-6.46-4.84-12.57-5.7-19.28c0.061-4.13,4.68-5.3,7.8-6.48
	c4.88-1.84,10.17-1.54,15.21-0.72c0.45-5.05-0.91-10.03-3.359-14.41c-3.011,0.9-5.88,2.13-8.551,3.77
	c-1.409-0.07-2.359-1.23-3.489-1.9c-1.471,0.61-2.94,1.28-4.49,1.66c-3.81-2.56-3.62-7.77-3.74-11.84
	c0.311-3.07-0.66-7.79,3.391-8.61c0.939-3.65,3.51-6.28,6.97-7.66c2.359,1.59,5.229,1.16,7.91,1.08c1-0.69,1.87-2.72,3.35-1.94
	c1.23,1.35,1.38,3.31,2.2,4.91c-0.021,1.06-0.03,2.12-0.04,3.19c0.42,0.06,1.27,0.17,1.7,0.23c0.189-2.74,0.25-5.48,0.22-8.22h-0.94
	l0.181,2.55c-0.66-0.65-1.3-1.31-1.92-1.98c0.62-1.19,1.25-2.38,1.89-3.55c1.271,0.66,2.67,1.27,3.25,2.7
	c-1.96,0.84-1.22,3.3-1.13,4.94c0.57-1.6,1.39-3.06,2.56-4.28c1.431,1.5,2.32,3.35,2.37,5.45l0.561-0.03c0.18-2.38,0.64-4.72,1.33-7
	c4.09-1.39,5.239,3.08,6.29,5.97c0.359-0.82,0.739-1.63,1.119-2.43c0.91,2.99,1.71,6.06,1.57,9.23c-1.63-0.43-3.21-0.23-3.74,1.53
	c2.12-0.51,4.28-0.83,6.46-0.57c0.96-2.06,1.19-4.33,1.16-6.57c-1.569-1.52-2.85-3.29-3.979-5.14c-1-2.16-2.221,0.49-1.86,1.66
	l-1.21-0.01c0.03-0.94,0.09-2.83,0.13-3.77c2.73-0.89,4.851,0.81,6.4,2.87c0.26-3.72,4.729-4.2,7.39-2.64
	c-0.03,2.07,0.26,4.16,1.66,5.8c0.14-0.51,0.42-1.54,0.57-2.06c-0.601-0.75-1.181-1.51-1.75-2.27c1.1-2.8,4.89-3.64,7.409-2.41
	c1.16,1.5,1.37,3.47,2.021,5.22c0.12-2.04,0.11-4.08,0.29-6.1c2.14-2.59,6.13-1.04,9.05-1.12c-0.42,5.29-3.689,10.08-3,15.48
	c1.08-2.56,1.4-5.34,2.01-8.02l1.4-0.07c-0.21,2.52-0.55,5.04-1.29,7.48c1.08-0.01,2.17-0.02,3.26-0.02
	c1.521-4.66,4.521-9.06,4.57-14.02c-2.65-0.29-4.49,1.33-6.09,3.19C416.07,350.68,415.94,349.09,417.02,348.02z"/>
<path fill="#FEFEFE" d="M408.06,350.1c1.341-0.21,2.69-0.42,4.04-0.63c-0.39,4.56-2.529,8.79-2.34,13.44
	c-0.87-0.22-1.74-0.42-2.609-0.63C406.66,358.2,406.21,353.94,408.06,350.1z"/>
<path fill="#AAAAAA" d="M280.25,351.19C280.81,351.75,280.81,351.75,280.25,351.19z"/>
<path fill="#FEFEFE" d="M400.18,350.76c0.82,0.51,1.65,1.03,2.48,1.55c0.64,3.74,1.34,7.48,2.439,11.13
	c1.561,0.09,3.15,0.06,4.58,0.81c-0.64,0.79-1.29,2.12-2.359,2.22c-2.66-0.98-5.311-2.15-8.21-1.84
	c0.189-4.08-0.011-8.16,0.12-12.22C399.47,351.99,399.95,351.17,400.18,350.76z"/>
<path fill="#FEFEFE" d="M274.19,352.25C274.78,352.7,274.78,352.7,274.19,352.25z"/>
<path fill="#FEFEFE" d="M327.07,353c0.43-0.15,1.29-0.45,1.72-0.59c-0.03,4.06,0.68,8.25-0.73,12.18c1.221-0.4,2.45-0.82,3.671-1.22
	c0.189,1.45,0.279,2.92,0.55,4.37c0.38-0.98,1.14-2.93,1.52-3.91c0.33,0.39,0.99,1.16,1.32,1.54c-0.63,0.65-1.24,1.31-1.84,1.97
	c1.75,0.31,2.68,1.23,1.979,2.85c0.23,1.69-0.33,3.29-0.84,4.88c0.08,1.37,1.17,2.38,2.05,3.34c-1.13,0.04-2.12,0.53-2.979,1.22
	c0.7,1.96,1.99,3.57,3.609,4.86c-0.489,0.25-1.47,0.76-1.949,1.01c-0.011-0.65-0.03-1.96-0.051-2.62c-1.8,0.42-2.22,2.35-2.659,3.87
	c-0.091,0.31-0.25,0.92-0.33,1.22c-0.38-1.49,0.97-4.02-1.13-4.55c0.489-0.54,0.989-1.08,1.479-1.63c-0.57-0.3-1.72-0.9-2.29-1.2
	c0.54-0.29,1.62-0.86,2.17-1.15c-1.04-0.86-2.06-1.7-3.09-2.54c-0.18-0.66-0.55-1.97-0.73-2.63c-0.439-0.14-1.329-0.44-1.77-0.59
	c0.6-0.73,1.21-1.47,1.81-2.2c0.32,2.32,0.261,6.11,3.671,5.7c-0.32-0.63-0.98-1.89-1.301-2.52c0.431-0.02,1.301-0.07,1.74-0.09
	c-0.82-1.02-1.64-2.04-2.45-3.04c0.431-0.08,1.271-0.23,1.69-0.3c-1.66-1.46-1.09-3.23-1.24-5c-1.54-1.08-3.07,0.41-4.14,1.4
	c0.09,0.82,0.279,2.46,0.37,3.28l-0.86-0.1c-0.26,4.48-3.07,9.53-0.31,13.68c-1.921,1.61,0.02,4.23-0.061,6.32
	c-1.33-4.51-2.21-9.26-1.55-13.95c-0.311-5.01,2.24-9.5,3.86-14.07C328.31,359.57,328.74,355.93,327.07,353z"/>
<path fill="#FEFEFE" d="M390.83,352c0.75,0.02,2.25,0.08,3.01,0.11c1.21,4.24,4.16,8.21,2.97,12.82
	c-1.979-0.04-3.949-0.09-5.93-0.14C391.15,360.53,391.15,356.25,390.83,352z"/>
<path fill="#FEFEFE" d="M377.12,352.7c2.83,1.6,3.21,5.54,4.92,8.18c-0.95,1.63-2.37,2.92-3.6,4.34
	c-2.511-0.23-5.261-1.45-7.271,0.69c-1.74,0.61-3.55,1.08-5.12,2.05c0.88,1.3,1.63,2.67,2.26,4.11c-1.43-0.91-2.739-3.07-4.71-2.02
	c-0.39-1.53-1.58-2.44-3.159-2.33c1.109-0.25,1.109-1.42,1.18-2.31c2.01-0.65,4.1-1.32,5.58-2.92c1.13,0.71,2.3,1.43,3.149,2.51
	c1.801-0.85,3.841-1.62,4.25-3.85c-0.09,0.86-0.279,2.59-0.369,3.45C379.07,362.76,376.28,356.59,377.12,352.7z"/>
<path fill="#AAAAAA" d="M415.09,353.45C418.32,353.56,413.6,356.56,415.09,353.45z"/>
<path fill="#FEFEFE" d="M478.07,362.78c1.04-3.53,2.6-7.63,6.59-8.58c0.57,0.34,1.7,1.02,2.27,1.36c-1.5,3.04-3.989,5.46-5.439,8.51
	c0.45,3.71-0.23,7.36-0.99,10.98c-0.03-2.47,0.01-5.96-3.11-6.48c-0.1,2.16-4.88,2.35-3.89-0.03c0.99-2.43-0.82-4.48-1.71-6.61
	c4.59-0.83,3.81,5.47,7.52,6.48C479.33,366.45,478.97,364.53,478.07,362.78z"/>
<path fill="#FEFEFE" d="M348.15,359.77c0.439-2.46,2.729-3.42,4.72-4.41c0.03,0.29,0.09,0.86,0.12,1.15
	C350.79,356.52,349.6,358.45,348.15,359.77z"/>
<path fill="#FEFEFE" d="M100.46,356.7C100.94,356.15,100.94,356.15,100.46,356.7z"/>
<path fill="#FEFEFE" d="M493.09,365.82c-4.37-2.9,0.101-10.31,4.54-9.45C496.71,359.78,494.57,362.66,493.09,365.82z"/>
<path fill="#FEFEFE" d="M502.99,366.15c0.45-3.32,1.939-8.43,6.109-8.21c-0.13,2.19-1.81,3.68-2.96,5.38
	C505.26,364.45,504.55,365.87,502.99,366.15z"/>
<path fill="#FEFEFE" d="M515.3,369.65c-2.89-3.68,1.181-7.36,3.681-9.89c0.409,0.39,1.21,1.18,1.609,1.57
	C518.61,363.92,515.75,366.24,515.3,369.65z"/>
<path fill="#AAAAAA" d="M92.36,361.6c0.07-0.09,0.2-0.28,0.27-0.37C92.56,361.32,92.43,361.51,92.36,361.6z"/>
<path fill="#FEFEFE" d="M281.26,361.22C281.78,361.77,281.78,361.77,281.26,361.22z"/>
<path fill="#FEFEFE" d="M420.11,361.43c1.85-0.83,2.85,3.29,0.899,3.59C419.46,364.74,419.09,362.44,420.11,361.43z"/>
<path fill="#FEFEFE" d="M429.09,360.67c1.561,1.42,2.16,3.47,2.86,5.39c-1.41-0.25-2.78-0.65-4.101-1.2
	C428.16,363.43,428.55,362.02,429.09,360.67z"/>
<path fill="#FEFEFE" d="M439.94,360.7c2.67,0.36,2.829,3.28,3.71,5.26c-0.62-0.02-1.86-0.06-2.48-0.08
	C440.49,364.23,440.02,362.49,439.94,360.7z"/>
<path fill="#AAAAAA" d="M94.68,361.95c0.07,0.41,0.21,1.21,0.28,1.61c-0.58,1.11-1.43,1.64-2.56,1.57
	C92.19,363.77,93.55,362.5,94.68,361.95z"/>
<path fill="#FEFEFE" d="M343.99,363.84c1.029-0.65,2.069-1.3,3.12-1.93c-0.66,4.36-1.71,8.66-1.88,13.09
	C344.04,371.41,344.14,367.57,343.99,363.84z"/>
<path fill="#AAAAAA" d="M736.76,362.1c3.13-1.13,4.25,2.48,3.21,4.83c-5.76-0.16-11.42,0.99-16.979,2.32
	c-1.84,0.42-3.5,2.02-5.46,1.29c-1.69,0.34-3.36,0.77-5.061,1.02c-0.479,0.45-1.45,1.34-1.939,1.79c-1.4-1.17-3.011-1-4.271,0.26
	c1.59,0.2,3.19,0.28,4.811,0.44c-1.48,0.65-2.99,1.18-4.54,1.59c-1.511,1.38-3.11,0.95-4.33-0.51c0.43,2.8-2.19,1.91-3.83,1.3
	c-0.28,2.66-2.58,2.09-4.03,0.79c-0.229,1.37-1.02,2.46-2.2,3.17c-0.55-0.7-1.1-1.4-1.63-2.1c-0.29,0.85-0.859,2.54-1.149,3.38
	c-1.11-0.61-2.12-1.35-3.011-2.22c-0.06,1.55-0.279,3.58-2.35,3.42c-0.49-0.59-1.47-1.76-1.95-2.35
	c-0.29,0.88-0.689,1.71-0.939,2.61c-1.73,0.06-3.4-0.26-5.011-0.82c-0.27,0.42-0.8,1.27-1.069,1.7c-0.771,0.07-2.32,0.22-3.101,0.3
	c-0.54-0.74-1.06-1.48-1.58-2.22c-0.689,1.44-0.989,3.88-3.159,3.52c-1.7,0.48-2-1.56-2.631-2.56c-0.479,0.11-1.439,0.34-1.93,0.45
	c0.29,2.88-4.189,6.94-5.67,2.71c0.73-0.13,2.2-0.39,2.94-0.52c-0.091-0.65-0.271-1.94-0.351-2.58c-0.92,0.77-1.81,1.56-2.72,2.33
	c-1.34-1.32-3.41-1.34-4.9-0.35c0.391,0.71,1.181,2.14,1.57,2.85c-1.4,1.94-5.16,3.05-6.49,0.24c1.34-0.19,2.7-0.37,4.061-0.53
	c-0.7-1.09-1.4-2.17-2.09-3.25c-0.711,0.71-1.41,1.44-2.11,2.14c-0.561-2.97-3.63-1.34-5.45-1.09c1.09,2.38,0.85,5.34-2.53,5.36
	c-0.27-1.4,0.12-2.46,1.181-3.17c-0.9-0.89-1.82-1.76-2.801-2.54c0.311,0.69,0.94,2.09,1.261,2.79c-0.58,0.55-1.17,1.1-1.75,1.64
	c-1.9-3.46-6.141-2.85-9.45-3.18c-0.061,1.6,0.68,3.12,0.939,4.69c-0.859,0.05-2.579,0.13-3.43,0.18c0.01-1.53,0.32-3.03,0.93-4.49
	c-1.26,0.35-2.449,0.9-3.539,1.61c-3.391-0.63-6.75,0.58-10.12-0.09c-4.53,1.94-9.681,0.23-14.36,1.73c0.06-1.91,0.08-3.82,0.2-5.71
	c1.72-1.52,0.95-4.28,0.819-6.28c-2.77-1.84-4.579-4.7-5.449-7.88c0.66,0.19,1.96,0.56,2.62,0.75c0.96,0.88,0.8,2.34,1.27,3.49
	c0.98-0.87,2.22-0.47,3.39-0.37c-0.38,4.2-0.6,8.89,1.61,12.65c1.15-0.34,2.31-0.72,3.48-1.05c-1.62-0.56-3.171-1.29-4.641-2.14
	c0.61-2.08,1.23-4.15,1.92-6.19c-0.569-0.05-1.7-0.15-2.27-0.19c0.62-1.31,1.109-2.67,1.45-4.07c-1.36,0.09-2.721,0.21-4.061,0.34
	c1.54-2.15,3.34-4.48,2.75-7.32c-1.26,0.98-1.99,3.12-3.8,3.04c-0.57-3.99,4.07-6.4,7.24-4.11c-0.3,2.14-1.38,4.03-2.21,6
	c0.58,1.8,1.529,3.44,2.359,5.14c-0.29,2.37-0.489,4.75-0.56,7.13c3-0.04,1.7-3.44,2.06-5.26c1.601,1.51,3.91,5.14,1.46,6.82
	c0.971,0.03,1.94,0.02,2.931-0.02c-0.4-2.23-2.03-6.98,1.81-6.93c0.12,2.73,0.46,5.46,1.17,8.11c1.36-0.08,2.811-0.15,3.91-1.08
	c2.1-0.01,4.2,0.03,6.31,0.06c-0.199-0.7-0.6-2.1-0.8-2.8l-0.62,0.23l0.971,1.72c-0.84,0.08-2.5,0.23-3.33,0.3
	c0.01-1.17,0.029-2.33,0.04-3.48c-1.82-0.12-1.96-3.02-0.12-3.23c0.56,1.13,1.13,2.26,1.7,3.39c0.58-0.1,1.739-0.3,2.33-0.4
	c0-1.06,0.01-2.11,0.04-3.16c-3.131-0.25-5.23-2.63-6.171-5.43c-0.77,0.04-1.529,0.09-2.27,0.15c2.7,4.01-3.51,5.94-6.521,5.16
	c-2.93-0.91-2.109-4.92-4.909-5.93c3.09-2.18,3.51-8.04,8.3-7.12c2.17-0.44,2.37,2.23,1.76,3.66c-1.18,2.74-3.26,4.95-5,7.34
	c1.69-0.01,3.37-0.25,5.05-0.53c-0.02-1.25-0.029-2.49-0.029-3.73c1-0.31,2.01-0.61,3.029-0.92c0.94-1.8,1.95-3.57,3.03-5.3
	c1.4,0.34,2.81,0.7,4.22,1.06c0.57,3.24-2.39,5.65-2.05,8.78c1.44-0.34,2.88-0.67,4.35-0.97c-0.319-1.1-0.609-2.2-0.88-3.29
	c1.53,0.84,2.62,2.29,3.271,3.9c0.57,1.71-1.83,1.57-2.78,1.96c0.4,2.11,0.26,4.26,0.15,6.4c0.399,0.3,1.2,0.9,1.6,1.2
	c0-1.28,0-2.56,0.021-3.84c1.619-0.06,3.319-0.07,4.97-0.14c0.01-3.15-2.05-5.71-3.42-8.39c-0.38-0.2-1.141-0.59-1.51-0.79
	c1.01-2.25,2.04-4.5,3.26-6.65c2,0.46,4.01,0.83,6.04,1.15c0.3,3.29-1.78,6.02-3.75,8.41c0.84,0.29,2.52,0.87,3.359,1.16
	c-0.85,0.68-1.72,1.34-2.59,2c0.58,1.29,1.15,2.59,1.67,3.92c0.761-2.32-0.199-6.77,3.12-6.96c-1.09-1.82-1.52-3.71,1.01-4.42
	c0.07,2.18,2.61,6.16-0.97,6.75c-0.01,0.74-0.01,2.21-0.02,2.95c1.229-0.09,2.46-0.18,3.699-0.26c0-0.87,0-2.6,0-3.47
	c2.32,0.62,3.211,2.99,3.94,5.02c1.44-1.36,0.99-3.54,1.34-5.29c-1.64,0.01-3.27,0.02-4.89,0.05c-0.88-1.71-1.771-3.41-2.71-5.08
	c1.16-2.14,2.49-5.28,5.54-4.09c4,0.71,0.76,4.86-0.03,7.07c0.72,0,2.17,0.01,2.89,0.01c0.091-0.62,0.28-1.85,0.37-2.47
	c2.58-1.85,4.17-5.65,7.971-4.71c0.81,2.64-0.16,5.34-0.101,8.02c1.25-0.43,2.5-1.01,3.87-0.98c1.69,1.02,2.63,2.92,3.97,4.35
	c0.021-0.7,0.051-2.1,0.07-2.8c-1.44-0.25-2.13-1.34-2.72-2.52c-1.13-0.41-2.261-0.83-3.37-1.26c1.41-1.59,2.37-4.67,5.01-4.45
	c1.311,0.17,1.64,1.71,2.42,2.56c-0.51,1.16-0.99,2.32-1.43,3.51c2.13-0.17,2.64-2.42,3.609-3.93c1.65,0.05,3.73-0.3,3.761,2.08
	c1.029-1.07,2.25-1.91,3.59-2.55c0.979,1.64,2.3,3.17,2.939,4.99c-0.3,1.5-0.819,2.95-1.17,4.44c0.91-0.55,1.801-1.12,2.721-1.67
	l0.29,2.34c0.399-2.18,0.199-4.39-0.021-6.56c-0.64-0.16-1.91-0.49-2.54-0.65c1.59-3.38,5.061-0.75,7.57-0.48
	c2.18,1.53,4.859,5.67,1.22,7.36c4.12-0.86,2.98-5.91,0.97-8.4c1.11,0.18,2.23,0.36,3.351,0.55c-0.03,1.99-0.101,4.01,0.21,5.99
	c1.02-2.02,0.149-4.53,0.35-6.73c13.38,0.5,26.601-3.02,39.48-6.03c0.21,0.49,0.609,1.45,0.819,1.94c-0.04-0.59-0.1-1.76-0.13-2.35
	c1.99-0.49,3.41,0.05,4.25,1.62C737.25,366.04,736.64,361.69,736.76,362.1z"/>
<path fill="#FEFEFE" d="M485.89,362.86c0.601,0.18,1.811,0.55,2.41,0.73c1.78,2.81,4.271,4.99,6.55,7.37
	c0.28,1.98,0.28,4.07-0.71,5.88l0.42,0.88c-0.949,0.18-1.869,0.41-2.779,0.68l-0.5,0.01c-2.29-0.97-4.681-1.73-7.15-2.02
	c-0.229,0.32-0.689,0.97-0.92,1.3c0.8-4.56,1.75-9.4-0.08-13.85c1.89,1.48,2.88,3.72,4.09,5.73
	C489.32,367.46,486.68,364.93,485.89,362.86z"/>
<path fill="#FEFEFE" d="M528.18,363.07c0.771-0.03,2.32-0.11,3.09-0.14c-1.479,2.41-3,4.82-3.909,7.52
	c-0.69,1.29-1.641-0.85-2.19-1.34C526.13,367.08,527.12,365.06,528.18,363.07z"/>
<path fill="#FEFEFE" d="M541.33,363.11c0.59,0,1.77-0.02,2.36-0.03c-1.591,2.85-2.721,6.34-5.601,8.16
	C538.07,368.19,540.33,365.87,541.33,363.11z"/>
<path fill="#AAAAAA" d="M367.16,364.1c1.96-2.28,2.649,3.49,0.06,1.71C367.2,365.38,367.18,364.53,367.16,364.1z"/>
<path fill="#FEFEFE" d="M497.06,363.96c1.381-0.09,2.53,0.57,3.101,1.85c1.35,2.37,2.79,4.73,5.05,6.36
	c-0.08,0.81-0.229,2.41-0.31,3.21c-0.431-1.22-0.79-2.45-1.091-3.7c-2.529-0.04-2,2.9-2.63,4.6c-0.279,0.08-0.84,0.24-1.109,0.32
	c0.77-1.5,0.26-4.15-1.87-3.75c-0.25,0.69-0.73,2.08-0.97,2.77c-0.721,1.37,0.409,2.46,1.449,3.18c-0.87,0.09-1.729,0.16-2.58,0.24
	c-0.08-2.09,0.141-4.18,0.931-6.12c-0.04-2.26,3.51-1.44,3.13-3.9C499.27,367.25,498.09,365.65,497.06,363.96z"/>
<path fill="#FEFEFE" d="M550.28,371c2.41-2.12,3.17-6.83,6.75-6.97c-1.13,3.37-3.57,5.97-5.681,8.74
	C551.08,372.32,550.55,371.44,550.28,371z"/>
<path fill="#FEFEFE" d="M567.3,364.25c0.46-0.03,1.38-0.09,1.84-0.12c-1.89,3.34-3.899,7.05-7.22,9.12
	C562.45,369.7,565.69,367.36,567.3,364.25z"/>
<path fill="#FEFEFE" d="M507.6,366.62c0.33-0.32,1-0.96,1.33-1.28c3.221,2.06,4.561,6.12,7.91,8.17c-0.5,1.28-1,2.56-1.49,3.86
	c0.62-2.28-2.33-4.92-2.93-1.36l-0.58,1.44l1.25,2c-1.12-0.53-2.1-1.27-2.649-2.4c-0.631,0.41-1.24,0.82-1.851,1.23
	c1.3,1.32-0.26,3.3-1.71,3.27c1.69-3.33,2.45-7.17,4.39-10.51c-0.68-1.24-1.38-2.48-2.079-3.7c-1.551,1.13-1.9,2.55-0.29,3.9
	c-1-0.59-2.03-1.13-2.91-1.86c-0.061-1.21,0.09-2.41,0.16-3.6L507.6,366.62z"/>
<path fill="#AAAAAA" d="M81.94,375.98c2.24-4.48,6.13-8.12,10.08-11.13c-0.05,3.57-4.54,4.37-4.69,7.78l-0.87-0.34
	C85.36,373.96,83.6,374.96,81.94,375.98z"/>
<path fill="#AAAAAA" d="M287.13,366.28l0.69-0.2l0.44,0.9l-0.46,0.89l-0.69-0.22C287.12,367.31,287.12,366.63,287.13,366.28z"/>
<path fill="#AAAAAA" d="M364.2,366.2c1.45-0.5,1.88-0.07,1.28,1.28C364.13,368.09,363.7,367.66,364.2,366.2z"/>
<path fill="#FEFEFE" d="M383.27,367.57c2-2.27,5.671,0.36,5.671,2.99c0.52-0.58,1.04-1.16,1.56-1.74l-0.37,1.49
	c1.561,0.22,3.15,0.47,4.7,0.82c-1.97-0.04-3.94-0.21-5.9-0.4c1.5,3.59,2.771,7.3,3.21,11.19c2.591,3.14,1.091,7.3,2.49,10.83
	c-0.02,1.76-0.03,3.54-0.2,5.3c3.301,3.08-0.68,8.521,2.7,11.521c-3.24-0.351-1.33-5.32-1.83-7.431l-1.35-0.069
	c-0.37,4.05,0.42,8.14,0.22,12.14c-2.31-2.66-4.37-6.43-4.14-10.18c-0.08-4.511-1.34-8.86-2.63-13.13
	c-1-5.79-3.07-11.33-4.091-17.12l-1.479,0.54c0.479-1.1,0.97-2.19,1.47-3.27c-0.49-0.39-1.47-1.16-1.97-1.55
	c1.38,0.83,2.86,1.42,4.41,1.9c-2.76-0.41-3.55,3.33-0.15,3.23c0.24-0.32,0.72-0.97,0.96-1.29c1.351,3.08,2.891,6.1,3.5,9.45
	c1.07-1.34,1.03-3.1,1.141-4.71C389.15,374.23,388.08,368.85,383.27,367.57z"/>
<path fill="#FEFEFE" d="M459.25,366.34c1.29,0.3,1.5,1.06,0.62,2.29C458.59,368.32,458.38,367.56,459.25,366.34z"/>
<path fill="#FEFEFE" d="M589.28,366.38c0.47-0.16,1.42-0.47,1.89-0.63c-0.54,3.6-3.55,6-5.93,8.47
	C584.53,371,587.63,368.76,589.28,366.38z"/>
<path fill="#FEFEFE" d="M606.87,370.98c1.01-2,2.25-3.9,4.09-5.23c-0.03,1.24-0.05,2.49-0.09,3.74c-1.08,0.93-2.01,2.02-2.43,3.42
	C607.91,372.26,607.39,371.61,606.87,370.98z"/>
<path fill="#FEFEFE" d="M630.07,369.1c0.939-1.14,1.89-2.27,2.88-3.37c1.72,1.97,0.71,4.28-0.311,6.31
	C631.77,371.05,630.92,370.07,630.07,369.1z"/>
<path fill="#FEFEFE" d="M518.81,367.17c0.45,0.02,1.351,0.07,1.801,0.09c2.18,3.28,4.52,6.73,8.399,8.14
	c-0.529,1.21-1.06,2.43-1.58,3.65c-0.25-0.77-0.75-2.32-0.989-3.1c-0.94,1.05-2.681,3.7-4.21,2.04c-0.891-1.48-1.4-3.14-1.98-4.74
	C522.15,371.07,519.88,369.1,518.81,367.17z"/>
<path fill="#FEFEFE" d="M620.49,371.86c-2.79-1.61-1.15-4.63,1.529-5.06C621.53,368.49,621.01,370.17,620.49,371.86z"/>
<path fill="#FEFEFE" d="M532.08,367.84c3.83,1.66,5.03,6.23,8.2,8.78c-0.29,2.93,0.6,6.23-0.73,9c-0.979,0.5-3.02,0.71-3.45-0.56
	c0.631-1.42,3.4-0.66,3.33-2.77c-0.02-2.09-1.13-3.86-2.109-5.6c-1.08,1.55-0.41,3.47-0.351,5.21c-1.319,0.04-2.64,0.1-3.95,0.17
	c0.2-1.27,2.631-4.77-0.479-3.96c-1.86-0.01-1.03-2.72-1.47-3.9c-0.561-0.26-1.67-0.77-2.23-1.03c0.5-1.01-0.02-3.37,1.811-2.87
	c1.72,1.23,1.1,3.44,1.22,5.23c0.55-0.07,1.649-0.21,2.2-0.28C534.83,372.46,532.51,370.41,532.08,367.84z"/>
<path fill="#FEFEFE" d="M543.02,367.98c3.69,0.3,4.7,4.6,7.16,6.77c3.48,2.45,3.04,7.23,2.45,10.91c-3.14,1.93-7.99,1.79-10.7-0.95
	c0.351-1.19,0.75-2.37,1.2-3.52c0.101-1.89-0.88-4.83,1.63-5.47c0.11,0.67,0.311,2.01,0.41,2.68c1.57-0.46,1.76-2.04,2.14-3.39
	C545.91,372.65,544.44,370.33,543.02,367.98z"/>
<path fill="#FEFEFE" d="M654.2,368c2.26-0.59,0.97,2.63,0.51,3.64C652.92,371.92,652.19,368.4,654.2,368z"/>
<path fill="#FEFEFE" d="M662.16,368.17c1.55-1.4,2.729,1.51,1.51,2.51C662.18,372.07,660.98,369.13,662.16,368.17z"/>
<path fill="#FEFEFE" d="M714.16,368.22C714.73,368.69,714.73,368.69,714.16,368.22z"/>
<path fill="#AAAAAA" d="M290.21,369.34C290.78,369.83,290.78,369.83,290.21,369.34z"/>
<path fill="#FEFEFE" d="M355.85,370.3c1.431-0.67,3.061-0.49,4.591-0.28c5.34,3.14,6.21,10.01,9.3,14.8
	c1.26-2.72,0.7-5.45-1.41-7.53c0.46-0.17,1.37-0.5,1.82-0.67c-0.24-0.67-0.721-2.01-0.96-2.68c0.68,1,1.25,2.08,1.619,3.26
	c4.48,5.35,4.66,12.63,6.15,19.13c-1.91-0.56-2.36-2.66-2.69-4.36c-0.51-4.11-0.489-8.73-3.22-12.12
	c-0.25-0.48-0.729-1.44-0.979-1.92c0.25,0.48,0.729,1.44,0.979,1.92c-0.21,2.82,0.26,5.57,0.9,8.32c-0.641-1.55-2.25-3.02-3.54-1.13
	c0.62,1.8,1.09,3.64,1.41,5.52c0.989-0.8,1.979-1.6,2.989-2.38c-0.05,1.27-0.109,2.55-0.149,3.83c-1.47-0.65-2.96-1.31-4.58-1.43
	c-0.91-4.86-0.3-10.1-2.811-14.55C363.49,374.28,360.62,369.82,355.85,370.3z"/>
<path fill="#FEFEFE" d="M414.27,369.22c2.99,4.56,5.021,9.63,6.54,14.84c0.45,1.35-0.02,2.77-0.229,4.13
	C419.25,381.62,417.4,375.17,414.27,369.22z"/>
<path fill="#FEFEFE" d="M517.21,369.31c1.25-0.76,2.38,1.37,1.64,2.35C517.66,372.26,516.44,370.25,517.21,369.31z"/>
<path fill="#AAAAAA" d="M484.71,376.16c-0.52-2.52,0.06-5.31,2.07-7.01c0.33,1.39,0.649,2.79,0.979,4.2
	c0.92-0.28,1.851-0.56,2.79-0.83c0.37-1.19,0.88-2.35,2.16-2.78c0.22,0.84,0.65,2.53,0.87,3.38c-0.44,1.39-0.08,4.51-2.44,3.86
	C489.08,376.19,486.88,376.03,484.71,376.16z"/>
<path fill="#FEFEFE" d="M542.33,370.4c0.75,1.14,1.51,2.29,2.28,3.43c-1.37,1.46-3.16,1.19-4-0.6
	C541.18,372.29,541.75,371.34,542.33,370.4z"/>
<path fill="#FEFEFE" d="M555.95,369.9c2.14-1.12,3.2,1.48,4.13,2.85c1.63,3.16,5.14,5.88,3.52,9.88c2.33-0.2,2.78-2.36,2.98-4.3
	c0.689-0.48,1.38-0.95,2.09-1.42c-0.15,1.99,0.64,2.77,2.37,2.34c0.69-2.69-1.23-4.72-2.42-6.87c-0.7-0.87-0.601-2.78,0.96-2.18
	c3.12,3.11,4.78,7.38,4.46,11.81c-0.85-1.18-1.79-2.29-3.3-2.56c0.55,2.38,1.37,4.8,3.479,6.25c-0.18,0.96-0.319,1.93-0.479,2.9
	c-1.12-0.35-2.24-0.67-3.351-0.95c1.03-0.6,2.29-1.87,1.24-3.07c-0.6-0.25-1.81-0.74-2.41-0.98c0.011-1.76-0.739-3.02-2.22-3.8
	c-0.09,2.13-0.1,4.26-0.12,6.4l2.39-0.41c-0.38,0.88-0.75,1.77-1.229,2.6c-1.4-1.77-1.84-4.63-4.46-5c0.97,2.54-0.76,2.9-2.3,3.32
	c0.43-0.18,1.31-0.55,1.75-0.73c0.16-2.53-0.12-5.05-1.58-7.18c-0.44,1.7-0.61,3.44-0.66,5.2c-0.66,0-1.99,0-2.65,0
	c-0.06-0.95-0.17-2.84-0.229-3.79c-2.811,1.14-2.26,4.22-1.51,6.53c-0.311-0.23-0.94-0.67-1.261-0.89
	c0.051-2.94,0.23-5.88,0.15-8.82c1.81-0.22,3.41,0.68,4.94,1.54C560.08,375.17,557.3,372.84,555.95,369.9z"/>
<path fill="#FEFEFE" d="M579.94,371.02c0.46,0.06,1.359,0.18,1.81,0.25c2.06,3.7,4.58,7.52,4.26,11.96
	c-0.81-1.25-1.58-2.64-3.27-2.71c0.25,1.16,0.529,2.33,0.84,3.49c-2.36,0.27-4.43,0.01-3.76-3.12l-1.65,0.58
	c-0.01,1.01-0.04,3.03-0.05,4.05c0.99,0.52,2.12,1.07,2.63,2.16c-1.4,0.16-2.8,0.18-4.19,0.27c2.101-3.21-0.13-7.25,0.5-10.87
	c1.23-0.09,2.471-0.17,3.721-0.24c0.1,0.81,0.3,2.43,0.399,3.25c1.351,0,1.98-0.66,1.91-1.97
	C582.3,375.64,580.98,373.39,579.94,371.02z"/>
<path fill="#FEFEFE" d="M651.13,370.76c1.94,2.59,5.96,3.7,5.96,7.46c-1.51-1.36-2.91-2.88-4.68-3.89
	c-0.01,1.09-0.01,3.28-0.01,4.37c1.119,1.02,2.67,0.87,4.069,1.04c-1.319,0.49-2.64,0.96-3.97,1.41c0.23-1.78-1.37-2.76-2.25-4.05
	C648.87,374.51,652.94,373.44,651.13,370.76z"/>
<path fill="#FEFEFE" d="M554.51,371.75c1.08,0.95,1.91,2.12,2.71,3.33c-1.46,0.77-2.93,0.67-4.22-0.39
	C553.5,373.7,554,372.72,554.51,371.75z"/>
<path fill="#FEFEFE" d="M563.89,374.77c0.99-0.97,1.99-1.92,3-2.87c0.46,1.35,0.88,2.72,1.261,4.11
	C566.64,375.85,564.84,376.21,563.89,374.77z"/>
<path fill="#FEFEFE" d="M576.31,374.84c0.79-0.92,1.591-1.84,2.391-2.75c0.359,1.04,0.729,2.08,1.1,3.13
	C578.63,375.1,577.46,374.96,576.31,374.84z"/>
<path fill="#FEFEFE" d="M668.44,371.78c1.069,2.68,1.529,5.55,1.43,8.45C667.51,378.14,667.11,374.54,668.44,371.78z"/>
<path fill="#FEFEFE" d="M673.91,376.04c-0.3-1.36-0.04-2.32,0.78-2.89c0.67,1.58,0.46,3.43,0.399,5.12
	C674.21,380.15,673.67,376.64,673.91,376.04z"/>
<path fill="#FEFEFE" d="M373.38,374.7c1.39,0.05,2.771,0.21,4.16,0.35c3.02,6.14,3.29,13.02,4.74,19.59
	c0.319-0.76,0.979-2.26,1.31-3.01c1.271,3.62,1.311,7.47,1.84,11.24c-1.399-2.18-1.439-4.78-1.62-7.27
	c-1.72,0.66-0.909,2.709-1.17,4.09c-1.1-0.761-2.199-1.521-3.29-2.271c-0.34-5.76-1.729-11.43-3.729-16.82
	C374.98,378.61,373.45,376.82,373.38,374.7z"/>
<path fill="#FEFEFE" d="M471.22,373.96c0.601,0.09,1.811,0.26,2.41,0.34C474,375.85,470.66,375.37,471.22,373.96z"/>
<path fill="#FEFEFE" d="M660.18,373.82c1.391,0.95,1.891,2.33,1.511,3.97c-0.891-0.54-1.78-1.08-2.65-1.62
	C659.32,375.58,659.89,374.41,660.18,373.82z"/>
<path fill="#FEFEFE" d="M393.4,375.64c1.35-0.04,2.699,0.03,4.06,0.08c7.35,17.82,6.33,37.45,7.14,56.33
	c-0.02,2.94,0.931,5.99-0.14,8.84c-1.34-6.96-3.6-13.739-4.31-20.819c-1.351-11.08-1.73-22.271-3.78-33.271
	C395.59,383.03,393.84,379.46,393.4,375.64z"/>
<path fill="#AAAAAA" d="M81.27,376.29C81.84,376.87,81.84,376.87,81.27,376.29z"/>
<path fill="#AAAAAA" d="M403.08,385.06c0.51-3.04-2.68-6.35-0.061-8.96c1.141,3.65,2.311,7.32,2.851,11.12
	c-0.4,0.14-1.21,0.4-1.61,0.53C403.86,386.85,403.47,385.95,403.08,385.06z"/>
<path fill="#AAAAAA" d="M443.46,377.74c2.85-1.46,4.65,4.27,2.66,6.1C445.5,381.69,444.63,379.64,443.46,377.74z"/>
<path fill="#AAAAAA" d="M370.07,377.93c0.25,0.48,0.729,1.44,0.979,1.92C370.8,379.37,370.32,378.41,370.07,377.93z"/>
<path fill="#AAAAAA" d="M544.02,378.99c2.801-1.25,1.78,2.56,2.141,4.08c1.16,0.24,2.33,0.48,3.51,0.71
	c0.14-1.75,0.271-3.49,0.45-5.23c2.63,0.94,2.29,4.03,1.68,6.21c-1.7,2.93-5.569,0.7-8.16,0.49
	C543.8,383.16,543.82,381.07,544.02,378.99z"/>
<path fill="#AAAAAA" d="M612.85,382.47c0.891-1.37,1.511-3.09,3.11-3.83c0.01,0.81,0.04,2.44,0.06,3.25
	c1.681-1.58,2.801,0.45,3.271,1.69C617.03,383.69,614.72,384.11,612.85,382.47z"/>
<path fill="#AAAAAA" d="M591.19,379.74c0.829,0.95,1.22,2.08,1.159,3.38c0.75,0.11,2.261,0.34,3.011,0.45
	c-0.15-1.06-0.45-3.19-0.601-4.25c2.46,0.21,2.67,2.68,3.36,4.56c-2.061,1.76-4.89,1.16-7.351,1.21
	C590.88,383.3,590.97,381.51,591.19,379.74z"/>
<path fill="#FEFEFE" d="M308.81,384.22c2.011-0.61,4.25-0.83,5.921-2.21c1.279,0.73,3.05,1.14,3.409,2.82
	c-0.489-0.35-1.449-1.05-1.93-1.4c-0.65,0.58-1.28,1.18-1.89,1.8l0.97,0.35c-0.86,1.77-1.7,3.55-2.51,5.35
	c0.31,0.57,0.939,1.69,1.26,2.26c-1.65-0.85-3.74-1.39-4.65-3.15C308.82,388.15,308.85,386.16,308.81,384.22z"/>
<path fill="#AAAAAA" d="M390.61,383.95c0.27-0.17,0.81-0.52,1.08-0.69c1.5,3.15,1.77,6.56,1.26,10
	C391.04,390.54,390.93,387.12,390.61,383.95z"/>
<path fill="#AAAAAA" d="M449.22,383.22c2.65,1.1,3.21,5.58,2.271,7.97c-0.811-0.94-1.53-1.92-2.24-2.92
	c0.22,1.19,0.27,2.39,0.12,3.6c1.1-0.02,2.21-0.02,3.32-0.02c1.09,15.12,1.319,31.25-5.94,45.02c-1.21,1.57-2.72,3.8-4.96,3.55
	c0.04-4.81,3.07-8.87,4.12-13.43c0.689-3.03,1.67-5.99,2.03-9.07c-0.431-2.78,2.14-1.63,2.939-0.32c-1.32-1.58-2.63-3.38-2.29-5.569
	c0.29-5.011,0.62-10.03,0.101-15.03c-0.16-4.74-1.971-9.24-1.99-14c0.93,1.06,1.399,2.38,1.89,3.69
	C448.75,385.52,448.96,384.37,449.22,383.22z"/>
<path fill="#FEFEFE" d="M320.15,400.38c0.149-3.47-1.78-7.06,0.34-10.26c0.109,0.55,0.33,1.63,0.439,2.17
	c1.87,0.8,1.931-2.29,2.931-3.2c-0.07,2.46,0.319,4.9,1.77,6.96c-1.21,0.63-1.84,1.641-1.88,3.04c0.76-0.14,2.28-0.41,3.04-0.55
	c0.27,1.66-0.04,3.89,2.18,4.17c0.021-1.65,0.11-3.29,0.471-4.9c1.069,2.99,1.159,6.78,3.949,8.82c0.931-2.82-0.71-5.17-2.069-7.399
	c0.54,0.069,1.63,0.22,2.18,0.3c0.81,2.6,1.51,5.34,3.45,7.38c-0.05,1.34-0.11,2.689-0.16,4.05c-0.59-0.77-0.46-2.64-1.58-2.67
	c-1.24,1.59,1.37,3.97-0.51,5.06c-0.17-0.83-0.5-2.47-0.66-3.3c0.18-0.72,0.55-2.16,0.74-2.89c-4.8-0.15-10-1.93-13.011-5.78
	c-0.02,0.62-0.06,1.86-0.079,2.49c-0.091-1.54-0.83-2.47-2.21-2.8c0.01,0.66,0.029,1.97,0.039,2.62c-0.88-1.08-1.439-3.471-3.27-2.5
	c-0.18,0.409-0.55,1.25-0.74,1.67c-0.41-0.841-0.8-1.66-1.2-2.49C316.25,400.31,318.2,400.4,320.15,400.38z"/>
<path fill="#AAAAAA" d="M69.34,393.17c1.65,0.09,0.48,2.53-0.6,2.71C67.18,395.77,68.29,393.34,69.34,393.17z"/>
<path fill="#FEFEFE" d="M354.27,393.94c7.57-1.38,15.931,0.05,22.15,4.73c5.58,2.7,9.08,8.01,13,12.58
	c-1.189,0.31-2.37,0.61-3.55,0.92c0.22-0.53,0.66-1.59,0.88-2.11c-1.9,0.48-7.4,0.851-4.49,3.74c-1.79,0.57-4.04,1.04-4.479,3.21
	c1.21-0.569,2.41-1.189,3.6-1.83c1.55,0.32,3.09,0.69,4.64,1.07c-0.039,0.63-0.13,1.89-0.18,2.52c-0.38-0.31-1.14-0.92-1.52-1.229
	c-3.34,1.95-8.101,2.4-9.94,6.229c-0.68-0.159-1.35-0.31-2.01-0.449c-0.771,0.56-1.53,1.14-2.29,1.71
	c-0.51-0.721-1.021-1.431-1.521-2.141c-0.51,1.431,0.271,5.391-2.18,3.25c-0.06,1.431-0.96,2.42-2.05,3.23
	c0.11,0.74,0.229,1.49,0.35,2.24c-1.18,0.029-2.59-0.521-3.529,0.439c-0.92,1.44-1.57,3.08-2.851,4.26c0.04,1.33,0.11,2.66,0.2,4
	c1.02,1.32,1.41,2.921,1.56,4.57c-3.189-0.87-6.619-1.87-9.81-0.41c-1.32-2.54-2.88-6.92-6.5-5.649c1.13-2.96,5.29-0.73,7.61-2.29
	c0.76-4.511,1.029-9.07,1.04-13.641c-0.811-1.04-1.891-2.229-1.141-3.609c0.71,0.83,1.36,1.71,2.101,2.529
	c0.439-2.52-0.551-4.909-2.19-6.729c-0.189,0.78-0.56,2.34-0.75,3.11c0.15-2.98,1.24-6.011-0.28-8.891l0.53-0.149
	c1.4,2.739,0.78,6.909,3.5,8.609c0.021-4.13-1.83-7.87-2.89-11.77c-0.55-1.78-0.92-3.74-2.24-5.141c-0.15,0.91-0.46,2.73-0.62,3.65
	c-0.06-0.8-0.17-2.4-0.22-3.19l-1.65,0.03c0.17,3.41,1.59,6.51,2.65,9.7l-0.891,0.12c-0.89-5-4.43-9.92-2.06-15.021
	c0.36,0.07,1.08,0.21,1.44,0.28c0.649-1.19,1.75-1.64,3.3-1.37c0,0.46,0.01,1.38,0.01,1.84c-0.54-0.239-1.61-0.71-2.15-0.939
	c0.011,1.67,0.36,3.319,0.931,4.899c0.89,1.17,1.88,2.261,2.96,3.271c-0.26-1.26-0.771-3.771-1.021-5.03
	c0.471,0.84,1.42,2.51,1.9,3.351c2.21-2.96-2.51-5.381-1.64-8.561c0.989,1.4,2.289,2.76,2.18,4.65l1.17,0.02
	C355.26,396.94,354.9,395.4,354.27,393.94z"/>
<path fill="#AAAAAA" d="M393.15,395.14c2.33-0.48,0.06,3.55-0.37,0.81L393.15,395.14z"/>
<path fill="#AAAAAA" d="M348.07,399.09C351.25,399.63,346.39,402.09,348.07,399.09z"/>
<path fill="#AAAAAA" d="M393.11,399.32c1-0.83,2.55,1.359,1.409,2.06c-0.38-0.3-1.13-0.899-1.51-1.2L393.11,399.32z"/>
<path fill="#FEFEFE" d="M478.29,399.18C478.74,399.76,478.74,399.76,478.29,399.18z"/>
<path fill="#AAAAAA" d="M334.13,404.26C337.22,404.58,332.64,407.51,334.13,404.26z"/>
<path fill="#AAAAAA" d="M608.02,404.78c2.711,1.79,5.721-0.11,8.641,0.069c2.84,0.131,5.68-0.689,8.51-0.25
	c1.92,0.74,0.8,3.25,0.1,4.561c-5.069-0.061-10.14-0.09-15.189-0.53c-3.36-0.25-4.25,3.771-5.97,5.9c0.12,1,0.26,2.01,0.39,3.02
	c-0.92,1.42-2.36,2.66-2.63,4.4c0.08,2.81,0.59,5.62,0.27,8.45c-3.159,1.06-2.14-2.261-1.399-3.94c-0.811-1.16-0.98-2.43-0.521-3.84
	c-0.31-0.4-0.93-1.21-1.239-1.61c-1.011-3.43,0.34-6.29,2.09-9.109c-0.44-2.431,0.83-4.471,2.109-6.4
	C604.85,406.88,607.77,407.9,608.02,404.78z"/>
<path fill="#FEFEFE" d="M349.14,405.54C352.29,405.88,347.57,408.61,349.14,405.54z"/>
<path fill="#FEFEFE" d="M613.71,406.63c2.43-1.52,6.47-1.83,8.61,0.19C619.46,407.21,616.53,407.36,613.71,406.63z"/>
<path fill="#FEFEFE" d="M599.87,416.98c1.6-2.82,2.439-6.311,5.07-8.391c0.229,1.33-0.12,2.4-1.061,3.23
	c-1.61,1.149-1.04,3.3-1.33,4.989C601.88,416.85,600.54,416.93,599.87,416.98z"/>
<path fill="#AAAAAA" d="M593.58,410.98c2.17-1.03,4.54-1.461,6.84-2.12C602.49,413.61,594.32,415.08,593.58,410.98z"/>
<path fill="#AAAAAA" d="M316.02,410.93c5.841-0.199,12.19,1.24,16.011,6.011c3.01,3.1,5.09,7.72,3.12,11.939
	c-1.96,3.7-0.37,7.811-0.96,11.71c-2.221,4.53-5.96,9.38-11.41,9.771c-5.87,1.14-11.75,2.68-17.79,1.939
	c-7.69,0.44-15.31,1.9-22.95,2.73c-11.69,0.29-23.27,2.43-34.98,2.01c-6.41,0.25-12.7-1.35-19.12-1.05
	c-8.29-1.23-16.7-0.88-25.03-1.681c-15.03-0.31-30.05-1.42-44.87-3.949c-15.01-3.66-30.54-5.37-44.96-11.15
	c-6.36-2.16-12.67-4.47-18.94-6.89c-6.83-2.87-14.54-2.94-21.19-6.311c-3.84-1.79-8.39-3.12-10.62-7.05
	c-0.57-3.33,4.08-4.92,6.69-3.96c7.36,2.05,14.47,5.02,22.06,6.21c10.55,3.11,21.06,6.71,32.04,8c22.4,3.38,45.05,7.41,67.77,5.08
	c9.1-1.25,18.18,1.1,27.3,0.42c6.22-0.9,12.53-0.49,18.8-0.89c1.1-0.03,2.15-0.49,2.81-1.41l-0.37,1.37
	c5.76-1.45,11.8-0.59,17.56-2.07c12.87-2.95,25.76-6.39,38.99-7.09c3.25-0.32,6.06-2.01,9.02-3.22c1.78-0.28,4.94-1.45,5.5,1.08
	c1.32-0.171,2.23,0.89,3.13,1.659c-2.88,0.61-5.71,1.551-8.65,1.841c-14.94,0.239-29.83,2.659-44.16,6.81
	c-7.18,1.61-14.57,1.99-21.89,2.4c-2.3,0.18-4.61,1.079-6.9,0.31c-5.61,0.73-11.28,0.68-16.91,1.28
	c-11.34-0.87-22.78-1.04-34.13-0.141c-9,0.011-18.03-0.02-26.97-1.08c-4.6-0.699-10.02-3.02-14.2,0.07
	c-1.28-0.96-1.91-2.72-3.73-2.96c0.03,0.65,0.09,1.96,0.12,2.61c-2.2-0.37-5.78-0.24-5.95-3.271c-0.73,0.73-1.04,2.221-2.37,1.971
	c-1.51,0.109-1.71-1.711-2.5-2.57c-5.49-0.83-11.02-1.58-16.37-3.11c-3.29-1.109-6.64-2.17-10.13-2.37
	c-0.03,0.63-0.08,1.88-0.11,2.511c-1.41-0.801-1.46-2.141-0.55-3.33c-6.41-0.891-12.94-1.511-19.23-3.03
	c-2.13,1.89-4.66-0.47-6.98-0.82c3.73,1.86,7.79,3.15,11.98,3.32c3.69-0.15,6.42,2.77,9.92,3.42c2.51,1.12,5.49,1,7.74,2.68
	c2.65-0.189,5.16,0.63,7.15,2.41c-0.74,3.38,2.96,3.01,0.39-0.53l2.25-0.149c0.08,0.52,0.24,1.57,0.32,2.1
	c0.61-0.069,1.84-0.2,2.45-0.26c0.73,0.93,0.45,4.19,2.31,3.34c1.39-1.28,3.16-1.2,4.65-0.16c0.74-0.029,2.2-0.1,2.93-0.13
	c0.34,0.23,1.02,0.67,1.36,0.891c3.99-0.551,7.64,2.239,11.59,2.75c3.16,0.319,5.94,1.89,8.9,2.899c6.13,0.61,12.2,1.8,18.3,2.65
	c0.1-0.63,0.3-1.87,0.4-2.5c1.05,1.35,2.22,2.609,3.49,3.779c0.45-0.279,1.36-0.829,1.81-1.109c3.39,1.42,7.82-0.93,10.4,2.3
	c0.58,0.521,1.22,0.38,1.9-0.41c0.41,0.75,0.86,1.49,1.34,2.21c0.21-0.66,0.63-1.97,0.85-2.63c2.76,0.771,5.64,1.03,8.5,0.64
	c2.2,1.2,4.7,0.37,7.05,0.36c5.06-0.189,10.14,0,15.18,0.561c1.47,0.359,3.3,0.29,4.32,1.619c0.87-1.649,1.99-1.659,3.34-0.05
	c0.59-0.45,1.2-0.89,1.81-1.33c4.19,2.32,8.97,1.15,13.46,1.94c2.02,0.2,1.71,2.229,0.27,2.89c1.09,0.101,2.18,0.11,3.28,0.03
	c-0.32-0.84-0.68-1.65-1.07-2.44c2.6-0.029,5.33-0.83,7.88,0.07c1.68-1.05,3.51,0.09,5.31,0.01c1.69-0.489,3.35-1.35,5.17-1.18
	c1.89,0.28,2.4,2.42,3.73,3.43c-0.94-4.6,3.84-3.149,6.28-3.859c-0.18-2.78-3.97-0.34-5.63-0.851c1.22-2.56,4.88-1.04,7.14-1.75
	c-0.06,0.41-0.2,1.23-0.27,1.63c1.68,0.811,3.57,0.261,5.35,0.24c-0.33,0.46-0.99,1.37-1.32,1.82c1.85-0.38,3.63-1.01,5.22-2.04
	c0.22,0.72,0.67,2.149,0.89,2.87c0.52-0.61,1.02-1.221,1.51-1.84c1.04-0.181,2.1-0.351,3.15-0.521c-1.65,0.061-3.29,0.12-4.93,0.17
	c0.29-1.99,2.54-1.66,3.92-2.29c1.48,0.49,2.97,0.971,4.47,1.42c3.43-2.92,8.47-3.38,12.58-1.739c3.02-0.4,6.1-0.171,9.07-1.03
	c0.54,0.2,1.609,0.58,2.149,0.77c4.101-0.189,8.221-0.27,12.26-1.04c0.94-0.81,1.921-1.59,2.91-2.35c-0.1-1.42,0.061-2.83,0.42-4.2
	c0.521,0.2,1.551,0.61,2.07,0.82c1.2-3.61-0.49-7.28,0.061-10.95c-3.15-4.41-6.341-9.6-11.931-11.08
	c-1.25,2.58-3.399,4.311-6.38,3.19c1.32-1.12,2.8-2.011,4.16-3.08C316.28,416.33,315.94,413.61,316.02,410.93z"/>
<path fill="#FEFEFE" d="M317.81,412.71c4.36-0.03,8.9,1.43,11.96,4.64c-0.05,3.28,1.99,6.7,0.641,9.841
	c-0.18-1.391-0.34-2.78-0.47-4.171c-0.75,0.301-1.49,0.591-2.23,0.9c-1.9-3.59-5.82-4.99-9.51-5.9
	C318.06,416.24,317.93,414.48,317.81,412.71z"/>
<path fill="#FEFEFE" d="M386.39,413.01c1.28-0.88,2.04-0.67,2.29,0.63C387.4,414.48,386.63,414.27,386.39,413.01z"/>
<path fill="#AAAAAA" d="M380.2,417.26C380.73,417.82,380.73,417.82,380.2,417.26z"/>
<path fill="#FEFEFE" d="M458.14,422.71c-0.83-1.28-0.609-2.08,0.65-2.39C459.59,421.59,459.37,422.39,458.14,422.71z"/>
<path fill="#FEFEFE" d="M304.19,423.81c0.53-1.51,3.39-1.05,4.66-0.51C308.21,424.65,305.46,424.34,304.19,423.81z"/>
<path fill="#AAAAAA" d="M352.7,422.09l1.96-0.08c1.149,4.11,1.77,8.33,0.84,12.57c-1.4,0.51-2.74,1.14-4.04,1.86
	C354,431.96,352.61,426.91,352.7,422.09z"/>
<path fill="#FEFEFE" d="M387.28,422.98c1.66,2.819,1.63,6.149,1.47,9.329C387.51,429.36,387.09,426.15,387.28,422.98z"/>
<path fill="#FEFEFE" d="M302.29,424.27C302.76,424.85,302.76,424.85,302.29,424.27z"/>
<path fill="#AAAAAA" d="M295.13,428.06c1,0.271,2,0.551,3.01,0.83c-0.07,0.74-0.21,2.24-0.28,2.98c-0.75,0.06-2.25,0.17-2.99,0.229
	C294.93,430.75,295.02,429.4,295.13,428.06z"/>
<path fill="#FEFEFE" d="M367.01,428.14c1.19,0.021,2.021,1.65,1.57,2.69C367.14,431.58,364.99,428.76,367.01,428.14z"/>
<path fill="#FEFEFE" d="M398.12,428.41c1.25,0.27,1.43,1.03,0.55,2.28C397.38,430.43,397.19,429.67,398.12,428.41z"/>
<path fill="#FEFEFE" d="M421.25,430.13c1.63,0.13,1.09,2.83-0.31,2.95C419.27,432.94,419.87,430.28,421.25,430.13z"/>
<path fill="#AAAAAA" d="M112.4,431.28c1.5-0.67,5.09-0.58,4.85,1.649C115.71,433.48,113.18,432.43,112.4,431.28z"/>
<path fill="#AAAAAA" d="M328.39,433.4c1.63,0.39,1.2,5.319-1,4.369C326.65,436.34,327.73,434.67,328.39,433.4z"/>
<path fill="#AAAAAA" d="M433.78,436c0.779-1.1,0.649-3.33,2.3-3.53c1.71-0.93,2.63,0.98,3.67,1.88c-1.53,2.601-2.82,5.78-5.73,7.12
	C431.3,440.73,433.31,437.7,433.78,436z"/>
<path fill="#AAAAAA" d="M119.27,434.04c1.56-0.89,4.51,0.2,5.24,1.59C122.85,435.92,119.82,435.91,119.27,434.04z"/>
<path fill="#AAAAAA" d="M125.93,436.41c4.2-0.58,8.21,1.03,12.25,1.859c0.84,0.15,1.52,0.57,2.04,1.271
	C135.43,438.62,130.73,437.28,125.93,436.41z"/>
<path fill="#AAAAAA" d="M144.19,435.94c1.57-0.681,3.93,1.02,2.2,2.439C144.74,440.54,141.68,437.48,144.19,435.94z"/>
<path fill="#AAAAAA" d="M258.21,436.19c1.61-0.851,3.47,0.909,2.78,2.579c-2.69,0.94-5.7,2.311-8.44,0.75
	c-0.12-0.619-0.36-1.869-0.48-2.489C254.13,436.91,256.22,436.78,258.21,436.19z"/>
<path fill="#AAAAAA" d="M354.24,436.2c1.63,0.24,0.279,2.81-0.9,2.95C352.29,438.29,353.22,436.64,354.24,436.2z"/>
<path fill="#AAAAAA" d="M167.87,438.15c1.64-0.45,3.35-1.16,5.08-0.801c1.55,1,1.04,3.601-0.96,3.44
	C170.47,440.4,166.62,440.73,167.87,438.15z"/>
<path fill="#AAAAAA" d="M205.42,438.16C208.67,438.5,203.65,441.17,205.42,438.16z"/>
<path fill="#AAAAAA" d="M207.67,437.96c1.59-0.46,2.14,0.13,1.63,1.771C207.67,440.21,207.13,439.62,207.67,437.96z"/>
<path fill="#AAAAAA" d="M224.77,440.57c-0.33-2.54,2.57-2.23,4.22-2.65c1.92-0.7,3.59,0.53,5.23,1.33
	c-0.73,2.79-3.56,2.44-5.79,2.18C227.21,441.12,225.99,440.84,224.77,440.57z"/>
<path fill="#AAAAAA" d="M349.08,440.9c-0.89-2.29,0.01-3.66,2.5-3.98c0.85,2.08,1.88,4.12,2.09,6.4c-1.86,0.01-2.55-1.61-3.27-2.94
	L349.08,440.9z"/>
<path fill="#AAAAAA" d="M354.22,442.79c-0.72-1.09-0.229-3.98,1.44-3.55C356.21,440.34,355.52,442.69,354.22,442.79z"/>
<path fill="#AAAAAA" d="M143.44,440.09c0.87-0.939,3.2,0.15,2.46,1.44C145.01,442.18,142.89,441.35,143.44,440.09z"/>
<path fill="#AAAAAA" d="M310.65,445.62c1.979-1.79,4.81-1.061,7.22-1.25c-0.67,0.479-1.33,0.97-2,1.46
	C314.13,445.78,312.39,445.72,310.65,445.62z"/>
<path fill="#AAAAAA" d="M420.45,447.16c2.17-1.66,4.62-3.22,7.479-2.95c-0.609,2.29-2.08,4.24-4.069,5.521
	c-4.091,2.609-8.36,4.97-12.141,8.039c-1.149,0.94-2.6,1.69-2.979,3.261c4.859,0.069,9.54-0.931,14.25-1.96
	c4.45,0.199,8.2-3,12.7-2.32c-1.181,1.08-2.44,2.05-3.69,3.05c1.34-0.63,2.69-0.76,4.05-0.37c-0.109-0.6-0.33-1.79-0.439-2.39
	c1.939-0.61,3.989-0.81,5.64,0.6c0.14-0.42,0.43-1.25,0.57-1.67c2.02-0.739,4.16-1.069,6.319-0.95c0.32,2.551-2.569,2.98-4.31,3.87
	c-6.561,2.28-13.43,3.46-20.23,4.771c0.341-1,0.69-1.99,1.051-2.97c-2.9-0.931-2.57,2.229-2.771,4.09
	c-4.82,0.09-10.43,0.04-13.93,3.92c1.81,1.14,5.46,0.56,5.88,3.16c-1.271-0.53-2.521-1.08-3.771-1.61
	c-0.029,1.58-0.06,3.17-0.09,4.77c1.32-1.369,3.101-1.899,4.94-2.13c1.229,0.44,2.479,0.841,3.74,1.221
	c-0.381-1.91-1.761-2.91-3.67-2.41c0.069-0.32,0.21-0.96,0.279-1.28c2.51,0.32,5.05,0.07,7.561,0.39
	c5.75,1.091,11.81-1.409,17.43,0.9c-1.74,0.25-3.5,0.35-5.25,0.42c0,0.47,0,1.43-0.01,1.91c2.859-1.39,6.37-0.51,9.04-2.16
	c-0.58-0.49-1.73-1.46-2.311-1.939c0.78,0.069,2.351,0.199,3.13,0.27c0.21,0.59,0.631,1.78,0.841,2.37c0.09-0.2,0.26-0.6,0.34-0.8
	c0.02-0.431,0.06-1.311,0.08-1.74c0.6-1.94,1.939,1.13,2.569,1.65c0.98-0.5,2.011-0.891,3.08-1.171c0-0.609,0-1.84,0-2.46
	c1.94,0.19,5.271-2.06,6.03,0.66c-0.08-0.39-0.23-1.18-0.3-1.569c2.399-0.23,4.97-2.24,7.27-0.71
	c-0.17,0.81-0.359,1.619-0.569,2.439c-5.49,1.83-11.21,2.94-16.61,4.95c-6.59,0.45-12.93,3.13-19.57,2.26
	c-5.38,1.25-10.8-1.01-16.17,0.22c-1.5,0.28-2.979,0.641-4.46,0.98c0.14,0.62,0.41,1.86,0.55,2.479
	c-0.729,0.181-2.17,0.53-2.899,0.7l0.75-2.6c-0.8,0.979-1.511,2.04-1.91,3.26c0.95,0.76,1.11,1.41,0.479,1.95
	c-0.63-0.16-1.89-0.49-2.529-0.65c0.91,4.16,8.199,3,6.97,7.931c-1.98-0.03-3.26-1.36-4.49-2.62l1.641-0.51
	c-0.49-0.08-1.471-0.23-1.96-0.311c0.069,0.83,0.21,2.48,0.289,3.3c-5.189-0.609-7.17-5.7-10.77-8.56
	c-3.83-0.61-7.59-1.47-11.36-2.311c-0.47,0.28-1.409,0.851-1.88,1.141l-0.609-1.221c-3.841-1.14-8.011-1.27-11.53-3.369
	c-5.061-2.271-9.11-6.21-14.271-8.261c-2.81-2.359-3.569-6.27-4.79-9.58c0.9-3.14,0.801-7.21,4.061-8.989
	c2.89-1.37,6.96-2.33,9.54,0.14c2.13,2.7,0.29,6.44,2.439,9.16c1.86-0.66,4.351-0.8,4.98-3.14c1.84,3.149,1.68,6.97,2.28,10.489
	c0.739-0.08,2.21-0.229,2.949-0.3c0.28,0.38,0.841,1.13,1.12,1.51c1.261-0.529,2.58-0.949,3.91-1.29c1.92,1.48,4.55,1.41,6.59,0.21
	c4.101,0.351,8.011,1.681,11.801,3.221c0.81-2.65,1.819-5.521,0.119-8.03c-2.89,0.76-5.79,1.49-8.689,2.18
	c-3.061,0.811-6.11-0.81-9.21-0.359l-0.11-0.79c3.4,0.229,6.811,0.319,10.21,0.14c2-0.77,4.11-1.21,6.061-2.11
	c-1.36-2.5-2.511-5.199-2.221-8.119c0.471-0.211,1.42-0.641,1.891-0.851c1.63,1.88,3.109,3.89,4.6,5.89
	c1.22-0.14,2.44-0.279,3.66-0.42c0.35,1.051,0.71,2.11,1.07,3.17c1.729-1.38,3.51-2.729,4.87-4.489
	c-1.98-0.181-3.851,0.56-5.69,1.12c3.979-3.99,8.88-6.631,13.979-8.9c-0.029,0.86-0.09,2.56-0.119,3.42
	c0.79-0.77,1.58-1.55,2.39-2.3C421.27,448.25,420.72,447.52,420.45,447.16z"/>
<path fill="#AAAAAA" d="M254.93,449.63c1.29-0.62,2.68-1.3,4.1-0.56c0.47-0.17,1.4-0.511,1.87-0.681c0.32,0.341,0.94,1.03,1.26,1.38
	C259.75,449.69,257.34,449.67,254.93,449.63z"/>
<path fill="#AAAAAA" d="M236.43,449.27c0.75-0.8,3.19-0.859,3.16,0.551C238.85,450.63,236.34,450.7,236.43,449.27z"/>
<path fill="#AAAAAA" d="M244.07,449.21c0.97-1.3,3.71,0.021,2.59,1.55C245.71,452.1,242.97,450.73,244.07,449.21z"/>
<path fill="#AAAAAA" d="M249.29,449.25c1.27-0.73,3.08-0.58,4.32,0.17C253.29,451.09,249.29,451.07,249.29,449.25z"/>
<path fill="#FEFEFE" d="M354.08,450.25c1.81-0.42,3.63-0.83,5.45-1.22c0.04,0.64,0.109,1.899,0.14,2.54
	c-2.05-2.11-4.59,0.699-4.5,2.97c-1.02,0.3-2.01,0.63-3.01,0.95c-0.021-1.07-0.03-2.12-0.04-3.17
	C352.77,451.62,353.42,450.93,354.08,450.25z"/>
<path fill="#FEFEFE" d="M416.93,449.99c-0.12,2.689-3.18,3.59-4.92,5.14c0.05-0.689,0.16-2.07,0.21-2.77
	C413.94,451.91,415.49,451.04,416.93,449.99z"/>
<path fill="#AAAAAA" d="M371.29,453.54c1.74-1.22,3.33-0.51,3.95,1.29c1.29,2.8,3.51,4.95,5.319,7.39
	c-3.63-0.729-5.68-4.109-8.14-6.55l0.85-0.01C372.59,454.96,371.92,454.26,371.29,453.54z"/>
<path fill="#FEFEFE" d="M397.17,455.27c1.42,0.391,2.37,2.171,3.53,3.141C399.81,460.61,396,456.97,397.17,455.27z"/>
<path fill="#FEFEFE" d="M360.3,456.34c0.891,0.99,1.76,1.28,2.48-0.04c-0.08,0.48-0.23,1.44-0.311,1.92
	c2.141,0.42,4.3,0.79,6.471,1.11c-0.101,2.979-0.65,5.92-1.19,8.85c0.79,0.96,1.21,2.16,1.08,3.431c-0.74-0.62-1.37-1.551-2.43-1.48
	c0.029,0.3,0.1,0.9,0.13,1.2c-0.42,0.37-1.271,1.11-1.69,1.479c0.24-1.189,0.49-2.369,0.74-3.55c-1.23-1.31-2.311-2.729-3.32-4.189
	c-1.43,0.189-2.85,0.38-4.26,0.58c1.18-0.5,2.35-1,3.55-1.45c-0.689-0.9-1.37-1.79-2.04-2.681
	C359.91,459.81,360.14,458.07,360.3,456.34z"/>
<path fill="#FEFEFE" d="M400.99,460.03c1.24-0.511,2.56-0.49,3.81-0.05c-0.439,2.479-0.189,4.979,0.08,7.46
	c-0.89,0.579-1.76,1.189-2.61,1.84c-1.67,2.01,0.04,5.47-2.47,6.989c1.23,1.48,2.061,4.79-0.689,5c0.62-0.979,0.85-2.02,0.689-3.119
	c-1-0.221-1.56,0.63-2.12,1.27c-1.46-0.4-2.92-1.83-4.479-0.95c-1.82,0.811-3.51-1.38-3.67-3.02c-2.311,0.319-5.84,0.91-6.15-2.38
	c-0.79,0.529-1.58,1.06-2.36,1.59c-2.43-1.2-6.25-0.38-7.479-3.2c-0.71,0.79-3.1,1.75-2.73-0.26c0.11-0.55,0.351-1.66,0.46-2.21
	c3.011-0.3,5.771,1.16,8.511,2.17c0.18-0.49,0.529-1.49,0.71-1.98c3.31-0.17,6.649,0.53,9.79,1.58c-2.48,0.24-4.96,0.34-7.41,0.78
	c4.26,1.37,8.689,0.43,13.04,0.44c0.74,0.55,2.21,1.649,2.95,2.199c0.18-1.67,0.729-3.189,1.88-4.38
	C401.51,466.59,403.25,463.03,400.99,460.03z"/>
<path fill="#FEFEFE" d="M427.24,460.11C427.79,460.65,427.79,460.65,427.24,460.11z"/>
<path fill="#FEFEFE" d="M406.31,467.86c-0.319-2.17-0.18-4.48,1.46-6.12C408.25,463.96,407.96,466.19,406.31,467.86z"/>
<path fill="#FEFEFE" d="M409.59,461.63c2.771,0.14,5.55,0.18,8.34,0.33c-2.05,2.26-5.58,1.17-7.97,2.96
	C409.87,464.1,409.68,462.45,409.59,461.63z"/>
<path fill="#AAAAAA" d="M402.26,465.33c1.32-0.34,1.8,0.22,1.46,1.7C402.37,467.36,401.89,466.79,402.26,465.33z"/>
<path fill="#FEFEFE" d="M402.23,479.11c1.22-3.391,1.119-7.351,3.489-10.24C406.6,472.67,405.02,476.52,402.23,479.11z"/>
<path fill="#AAAAAA" d="M400.71,474.01c-1.46,0.36-1.34-3.06,0.06-2.649C400.76,472.02,400.73,473.35,400.71,474.01z"/>
<path fill="#FEFEFE" d="M407.31,471.14c1.37,0.29,1.03,2.78,0.4,3.73C406.37,474.57,406.7,472.08,407.31,471.14z"/>
<path fill="#FEFEFE" d="M423.25,472.7c2.25-0.2,4.51-0.22,6.75-0.47c-0.01,0.43-0.03,1.27-0.04,1.699c-2.43-0.029-4.85,0.29-7.17,1
	C422.91,474.38,423.14,473.26,423.25,472.7z"/>
<path fill="#AAAAAA" d="M397.43,474.28C398.01,474.85,398.01,474.85,397.43,474.28z"/>
<path fill="#AAAAAA" d="M397.1,476.38l0.931,0.14C399.64,478.44,395.65,478.15,397.1,476.38z"/>
<path fill="#AAAAAA" d="M410.12,480.48c0.46-0.29,0.91-0.58,1.38-0.86c5.31,1.81,10.79,3.11,16.17,4.71l0.2,0.59
	c-0.771,0.18-2.32,0.54-3.09,0.72c1.399,1.12,3.3,0.99,4.979,1.37c0-0.52-0.01-1.56-0.02-2.08c0.83,0.04,2.49,0.12,3.319,0.16
	c0.15,0.43,0.45,1.28,0.61,1.71c2.41-2.05,5.62-1.6,8.561-1.92c-0.03,0.76-0.101,2.271-0.131,3.021
	c-7.42,0.58-14.819,0.71-22.22-0.16c0.05-0.62,0.14-1.87,0.19-2.49l1.979,0.26c-1.22-2.18-4.149-2.319-6.27-3.06
	c0.64,1.59,1.93,2.41,3.87,2.46c-0.67,0.55-1.341,1.09-2.021,1.63c-3.64-1.44-7.39-2.5-11.21-3.3c-1.479-1.48,0.76-2.53,2.07-2.5
	c1.59,1.08,3.37,1.81,5.189,2.42C414.18,480.51,412.1,480.48,410.12,480.48z"/>
<path fill="#FEFEFE" d="M400.39,485.17c0.95-0.86,2.79,0.54,2.24,1.69C401.65,487.71,399.65,486.38,400.39,485.17z"/>
</svg>
